<svg width="100%" height="100%" viewBox="0 0 1104 580" version="1.1" xmlns="http://www.w3.org/2000/svg" xmlns:xlink="http://www.w3.org/1999/xlink" xml:space="preserve" xmlns:serif="http://www.serif.com/" style="fill-rule:evenodd;clip-rule:evenodd;stroke-linejoin:round;stroke-miterlimit:2;">
    <g transform="matrix(1,0,0,1,-2325,0)">
        <g id="logotype_color_transparent" transform="matrix(0.43896,0,0,0.579869,1270.59,0.13108)">
            <rect x="2402.81" y="-0.226" width="2512.76" height="1000.23" style="fill:none;"/>
            <g transform="matrix(2.20127,0,0,1,-2926.69,5.59068e-13)">
                <g transform="matrix(1.34252,0,0,2.68142,2414.74,84.7317)">
                    <g transform="matrix(230.427,0,0,192.247,278,283.991)">
                        <path d="M0.416,-0.135C0.399,-0.135 0.382,-0.133 0.367,-0.13C0.326,-0.121 0.288,-0.117 0.253,-0.117C0.214,-0.117 0.183,-0.122 0.162,-0.133C0.14,-0.143 0.129,-0.157 0.129,-0.175C0.129,-0.184 0.132,-0.194 0.139,-0.205C0.182,-0.188 0.228,-0.179 0.278,-0.179C0.314,-0.179 0.351,-0.185 0.389,-0.196C0.427,-0.207 0.459,-0.225 0.486,-0.252C0.513,-0.278 0.526,-0.312 0.526,-0.355C0.526,-0.398 0.515,-0.435 0.493,-0.466C0.47,-0.496 0.439,-0.518 0.399,-0.533C0.412,-0.538 0.425,-0.541 0.439,-0.541C0.452,-0.541 0.465,-0.539 0.477,-0.534C0.482,-0.533 0.487,-0.534 0.492,-0.537C0.497,-0.54 0.499,-0.544 0.499,-0.549L0.499,-0.625C0.499,-0.63 0.496,-0.635 0.491,-0.639C0.488,-0.641 0.484,-0.642 0.479,-0.642C0.468,-0.642 0.455,-0.638 0.44,-0.631C0.425,-0.624 0.41,-0.613 0.395,-0.598C0.38,-0.583 0.369,-0.565 0.361,-0.544C0.334,-0.549 0.307,-0.552 0.278,-0.552C0.204,-0.552 0.144,-0.535 0.097,-0.501C0.05,-0.467 0.026,-0.418 0.026,-0.355C0.026,-0.297 0.053,-0.252 0.108,-0.221C0.085,-0.214 0.064,-0.2 0.045,-0.179C0.026,-0.158 0.016,-0.132 0.016,-0.103C0.016,-0.07 0.028,-0.042 0.053,-0.019C0.078,0.004 0.11,0.022 0.149,0.034C0.188,0.046 0.229,0.052 0.272,0.052C0.308,0.052 0.34,0.048 0.369,0.04C0.384,0.037 0.397,0.035 0.408,0.035C0.435,0.035 0.456,0.042 0.472,0.055C0.487,0.068 0.495,0.084 0.495,0.103C0.495,0.122 0.486,0.138 0.469,0.153C0.451,0.168 0.425,0.178 0.391,0.182C0.379,0.184 0.366,0.185 0.352,0.185C0.315,0.185 0.276,0.179 0.235,0.167C0.194,0.155 0.159,0.138 0.128,0.115C0.097,0.093 0.076,0.068 0.066,0.039C0.053,0.05 0.043,0.063 0.034,0.078C0.025,0.093 0.021,0.109 0.021,0.124C0.021,0.179 0.045,0.216 0.093,0.236C0.14,0.257 0.198,0.267 0.265,0.267C0.326,0.267 0.38,0.256 0.425,0.234C0.47,0.212 0.504,0.182 0.528,0.143C0.552,0.104 0.564,0.061 0.564,0.013C0.564,-0.007 0.559,-0.029 0.55,-0.052C0.54,-0.075 0.524,-0.094 0.502,-0.111C0.479,-0.127 0.451,-0.135 0.416,-0.135ZM0.225,-0.476C0.238,-0.506 0.255,-0.521 0.278,-0.521C0.301,-0.521 0.318,-0.505 0.331,-0.474C0.344,-0.442 0.35,-0.405 0.35,-0.364C0.35,-0.325 0.344,-0.292 0.332,-0.265C0.32,-0.238 0.302,-0.224 0.278,-0.224C0.253,-0.224 0.235,-0.238 0.224,-0.266C0.212,-0.294 0.206,-0.33 0.206,-0.373C0.206,-0.411 0.212,-0.445 0.225,-0.476Z" style="fill:rgb(241,39,5);fill-rule:nonzero;"/>
                    </g>
                    <g transform="matrix(230.427,0,0,192.247,398.513,283.991)">
                        <path d="M0.434,-0.262C0.463,-0.274 0.484,-0.294 0.497,-0.323C0.505,-0.34 0.509,-0.358 0.509,-0.376C0.509,-0.405 0.5,-0.434 0.482,-0.461C0.463,-0.488 0.439,-0.509 0.408,-0.526C0.377,-0.542 0.343,-0.55 0.307,-0.55C0.218,-0.55 0.148,-0.525 0.097,-0.474C0.046,-0.423 0.02,-0.35 0.02,-0.254C0.02,-0.167 0.044,-0.101 0.091,-0.057C0.138,-0.012 0.2,0.01 0.277,0.01C0.382,0.01 0.454,-0.032 0.495,-0.117C0.498,-0.122 0.497,-0.127 0.494,-0.132C0.491,-0.136 0.487,-0.138 0.482,-0.138C0.48,-0.138 0.477,-0.137 0.474,-0.135C0.44,-0.108 0.405,-0.095 0.369,-0.095C0.329,-0.095 0.295,-0.109 0.268,-0.138C0.24,-0.166 0.223,-0.207 0.217,-0.262C0.227,-0.258 0.244,-0.254 0.267,-0.25C0.29,-0.245 0.313,-0.243 0.337,-0.243C0.373,-0.243 0.405,-0.249 0.434,-0.262ZM0.29,-0.321C0.269,-0.306 0.244,-0.299 0.215,-0.3C0.215,-0.327 0.219,-0.357 0.227,-0.39C0.234,-0.422 0.245,-0.449 0.26,-0.472C0.274,-0.494 0.291,-0.505 0.311,-0.505C0.324,-0.505 0.335,-0.5 0.342,-0.489C0.349,-0.478 0.353,-0.463 0.353,-0.445C0.353,-0.423 0.348,-0.401 0.337,-0.378C0.326,-0.355 0.311,-0.336 0.29,-0.321Z" style="fill:rgb(241,39,5);fill-rule:nonzero;"/>
                    </g>
                    <g transform="matrix(230.427,0,0,192.247,509.579,283.991)">
                        <path d="M0.947,-0.012C0.947,-0.015 0.946,-0.018 0.944,-0.02C0.927,-0.041 0.919,-0.061 0.919,-0.08L0.919,-0.366C0.919,-0.4 0.91,-0.431 0.893,-0.459C0.876,-0.487 0.853,-0.509 0.825,-0.525C0.796,-0.541 0.766,-0.549 0.735,-0.549C0.721,-0.549 0.706,-0.547 0.691,-0.543C0.639,-0.53 0.598,-0.501 0.569,-0.458C0.552,-0.486 0.53,-0.508 0.501,-0.525C0.472,-0.541 0.442,-0.549 0.411,-0.549C0.396,-0.549 0.381,-0.547 0.366,-0.543C0.326,-0.533 0.292,-0.513 0.264,-0.484L0.264,-0.533C0.264,-0.537 0.263,-0.54 0.26,-0.543C0.257,-0.545 0.253,-0.546 0.249,-0.546C0.245,-0.546 0.242,-0.545 0.241,-0.544C0.226,-0.533 0.201,-0.523 0.167,-0.513C0.132,-0.502 0.087,-0.497 0.031,-0.497C0.028,-0.497 0.025,-0.496 0.023,-0.494C0.021,-0.492 0.02,-0.489 0.02,-0.486C0.02,-0.482 0.022,-0.478 0.025,-0.475C0.031,-0.47 0.037,-0.463 0.044,-0.452C0.051,-0.441 0.054,-0.431 0.054,-0.423L0.054,-0.079C0.054,-0.062 0.046,-0.043 0.029,-0.02C0.027,-0.018 0.026,-0.015 0.026,-0.012C0.026,-0.009 0.027,-0.006 0.03,-0.004C0.032,-0.001 0.035,-0 0.038,-0L0.28,-0C0.283,-0 0.286,-0.001 0.289,-0.004C0.291,-0.007 0.292,-0.01 0.292,-0.013C0.292,-0.016 0.291,-0.019 0.29,-0.02C0.273,-0.042 0.264,-0.062 0.264,-0.079L0.264,-0.453C0.277,-0.462 0.292,-0.467 0.307,-0.467C0.327,-0.467 0.345,-0.46 0.36,-0.447C0.375,-0.434 0.383,-0.419 0.383,-0.403L0.383,-0.073C0.382,-0.057 0.373,-0.039 0.358,-0.02C0.356,-0.018 0.355,-0.015 0.355,-0.012C0.355,-0.009 0.356,-0.006 0.359,-0.004C0.361,-0.001 0.364,-0 0.367,-0L0.609,-0C0.613,-0 0.616,-0.001 0.619,-0.004C0.621,-0.006 0.622,-0.009 0.622,-0.012C0.622,-0.015 0.621,-0.018 0.619,-0.02C0.602,-0.041 0.594,-0.061 0.594,-0.08L0.594,-0.366C0.594,-0.389 0.59,-0.41 0.582,-0.43C0.595,-0.438 0.609,-0.442 0.624,-0.442C0.646,-0.442 0.666,-0.434 0.683,-0.418C0.7,-0.401 0.708,-0.38 0.708,-0.354L0.708,-0.073C0.707,-0.057 0.698,-0.039 0.683,-0.02C0.681,-0.018 0.68,-0.015 0.68,-0.012C0.68,-0.009 0.681,-0.006 0.684,-0.004C0.686,-0.001 0.689,-0 0.692,-0L0.934,-0C0.938,-0 0.941,-0.001 0.944,-0.004C0.946,-0.006 0.947,-0.009 0.947,-0.012Z" style="fill:rgb(241,39,5);fill-rule:nonzero;"/>
                    </g>
                    <g transform="matrix(230.427,0,0,192.247,727.102,283.991)">
                        <path d="M0.516,-0.093C0.516,-0.116 0.512,-0.149 0.504,-0.191C0.503,-0.194 0.501,-0.196 0.498,-0.196C0.496,-0.196 0.494,-0.195 0.493,-0.193C0.491,-0.187 0.488,-0.177 0.483,-0.163C0.478,-0.148 0.471,-0.133 0.462,-0.117C0.453,-0.1 0.439,-0.086 0.421,-0.074C0.394,-0.056 0.36,-0.047 0.32,-0.047C0.299,-0.047 0.276,-0.049 0.253,-0.054C0.336,-0.223 0.411,-0.374 0.478,-0.506C0.483,-0.516 0.489,-0.523 0.494,-0.527C0.498,-0.53 0.5,-0.534 0.5,-0.539C0.5,-0.542 0.499,-0.545 0.497,-0.548C0.495,-0.55 0.493,-0.551 0.49,-0.551L0.488,-0.551C0.431,-0.544 0.371,-0.541 0.309,-0.541C0.254,-0.541 0.193,-0.543 0.126,-0.548L0.083,-0.55C0.066,-0.55 0.053,-0.543 0.044,-0.529C0.034,-0.514 0.027,-0.495 0.024,-0.472C0.021,-0.457 0.02,-0.439 0.02,-0.419C0.02,-0.397 0.022,-0.378 0.025,-0.361C0.026,-0.357 0.029,-0.355 0.033,-0.355C0.037,-0.355 0.039,-0.356 0.039,-0.359C0.046,-0.406 0.066,-0.442 0.097,-0.467C0.116,-0.482 0.135,-0.492 0.156,-0.497C0.176,-0.502 0.197,-0.505 0.219,-0.505L0.264,-0.504L0.024,-0.019C0.021,-0.014 0.022,-0.009 0.025,-0.004C0.028,0.001 0.033,0.003 0.038,0.003L0.042,0.003C0.056,-0 0.082,-0.002 0.119,-0.004C0.156,-0.006 0.198,-0.007 0.243,-0.007C0.325,-0.007 0.393,-0.004 0.447,0.002C0.481,0.005 0.503,-0.013 0.512,-0.052C0.515,-0.063 0.516,-0.077 0.516,-0.093Z" style="fill:rgb(241,39,5);fill-rule:nonzero;"/>
                    </g>
                </g>
                <g transform="matrix(0.651822,0,0,1.08617,2180.16,-2568.95)">
                    <path d="M548.358,2606C552.403,2612.83 556.71,2619.46 561.19,2625.86C594.659,2673.64 636.921,2707.97 639.537,2710.31C639.917,2710.65 640.307,2710.98 640.707,2711.29C653.712,2721.57 672.224,2721.57 685.228,2711.29C688.235,2708.92 731.12,2674.25 764.924,2625.83C769.384,2619.44 773.67,2612.82 777.693,2606L838.432,2606C850.144,2606 860.857,2612.6 866.122,2623.06C880.583,2651.79 909.781,2709.8 925.832,2741.69C933.917,2757.75 934.651,2776.53 927.845,2793.18C921.038,2809.82 907.358,2822.7 890.334,2828.5C883.474,2830.76 876.149,2832 868.534,2832C844.098,2832 822.633,2819.18 810.507,2799.9C808.268,2796.27 804.311,2794.06 800.05,2794.06C800.049,2794 800.049,2794 800.049,2794C795.749,2794 791.756,2796.23 789.496,2799.89C777.42,2819.19 755.962,2832 731.534,2832C707.098,2832 685.633,2819.18 673.507,2799.9C671.268,2796.27 667.311,2794.06 663.05,2794.06C663.049,2794 663.049,2794 663.049,2794C658.749,2794 654.756,2796.23 652.496,2799.89C640.42,2819.19 618.962,2832 594.534,2832C570.098,2832 548.633,2819.18 536.507,2799.9C534.268,2796.27 530.311,2794.06 526.05,2794.06C526.049,2794 526.049,2794 526.049,2794C521.749,2794 517.756,2796.23 515.496,2799.89C503.42,2819.19 481.962,2832 457.534,2832C449.523,2832 441.831,2830.62 434.683,2828.09C417.902,2822.09 404.505,2809.17 397.896,2792.62C391.287,2776.06 392.102,2757.47 400.133,2741.56C416.136,2709.81 445.438,2651.76 459.938,2623.03C465.21,2612.59 475.913,2606 487.612,2606L548.358,2606Z" style="fill:rgb(47,47,65);"/>
                    <g transform="matrix(2.71516,0,0,2.71516,-3306.54,-3020.66)">
                        <path d="M1495.13,2224.55C1504.6,2224.55 1512.28,2216.89 1512.31,2207.42C1512.35,2192.96 1512.4,2172.82 1512.43,2161.36C1512.43,2159.86 1513.26,2158.49 1514.59,2157.79C1515.91,2157.09 1517.51,2157.18 1518.75,2158.02C1524.14,2161.72 1530.66,2163.88 1537.69,2163.88C1538.21,2163.88 1538.74,2163.87 1539.26,2163.84C1540.36,2163.8 1541.43,2164.2 1542.23,2164.96C1543.02,2165.73 1543.47,2166.78 1543.47,2167.89C1543.48,2183.61 1543.48,2236.38 1543.48,2259.52C1543.48,2265.61 1538.54,2270.55 1532.45,2270.55L1391.51,2270.55C1388.58,2270.55 1385.78,2269.39 1383.71,2267.32C1381.64,2265.25 1380.48,2262.45 1380.48,2259.52C1380.48,2236.38 1380.48,2183.62 1380.48,2167.88C1380.48,2166.78 1380.93,2165.72 1381.73,2164.96C1382.53,2164.19 1383.6,2163.79 1384.7,2163.84C1385.24,2163.87 1385.78,2163.88 1386.32,2163.88C1393.33,2163.88 1399.85,2161.72 1405.23,2158.03C1406.47,2157.19 1408.07,2157.11 1409.39,2157.8C1410.72,2158.5 1411.55,2159.88 1411.55,2161.37C1411.58,2172.84 1411.62,2192.96 1411.65,2207.41C1411.67,2216.89 1419.36,2224.55 1428.83,2224.55C1447.33,2224.55 1476.63,2224.55 1495.13,2224.55Z" style="fill:rgb(47,47,65);"/>
                    </g>
                    <g transform="matrix(3.48944,0,0,3.48944,488.496,2366.94)">
                        <path d="M50,6.25C31.142,6.25 15.625,21.767 15.625,40.625C15.625,66.813 46.875,92 48.063,93.063C49.194,93.957 50.806,93.957 51.938,93.063C53.281,92 84.375,66.813 84.375,40.625C84.375,21.767 68.858,6.25 50,6.25ZM50,59.375C39.714,59.375 31.25,50.911 31.25,40.625C31.25,30.339 39.714,21.875 50,21.875C60.286,21.875 68.75,30.339 68.75,40.625C68.75,50.911 60.286,59.375 50,59.375Z" style="fill:rgb(241,39,5);fill-rule:nonzero;"/>
                    </g>
                </g>
            </g>
        </g>
    </g>
</svg>
