<svg xmlns="http://www.w3.org/2000/svg" viewBox="0 0 50 50">
  <path d="M25 7C24.847656 7 24.703125 7.023438 24.5625 7.09375L0.5625 19.09375C0.222656 19.265625 0 19.621094 0 20C0 20.378906 0.222656 20.734375 0.5625 20.90625L4 22.625L4 37.1875C2.84375 37.605469 2 38.699219 2 40C2 41.273438 3.53125 43.613281 4.1875 44.5625L5 45.75L5.8125 44.5625C6.46875 43.613281 8 41.273438 8 40C8 38.699219 7.15625 37.605469 6 37.1875L6 23.625L8 24.625L8 22C8 18.53125 12.992188 17.828125 15.125 17.53125C18.339844 17.085938 22.269531 17 25 17C27.730469 17 31.660156 17.085938 34.875 17.53125C37.007813 17.828125 42 18.53125 42 22L42 24.625L49.4375 20.90625C49.777344 20.738281 50 20.378906 50 20C50 19.621094 49.777344 19.265625 49.4375 19.09375L25.4375 7.09375C25.296875 7.023438 25.152344 7 25 7 Z M 25 19C19.398438 19 10 19.390625 10 22L10 26.65625C12.078125 25.769531 16.320313 25 25 25C33.679688 25 37.921875 25.769531 40 26.65625L40 22C40 19.390625 30.601563 19 25 19 Z M 25 27C14.609375 27 10.289063 28.222656 10 29C10.015625 31.601563 19.402344 32 25 32C30.480469 32 39.574219 31.617188 39.96875 29.15625C39.980469 29.097656 40 29.058594 40 29C39.730469 28.234375 35.414063 27 25 27Z" fill="#FFFFFF" />
</svg>