<svg xmlns="http://www.w3.org/2000/svg" viewBox="0 0 50 50">
  <path d="M26.300781 0C15.550781 0 3 6.207031 3 23.699219C3 36.402344 12.804688 50 27.398438 50C27.40625 50 27.609375 50 27.617188 50C33.101563 49.898438 39 46.355469 39 38.800781C39 37.355469 38.464844 36.101563 37.988281 34.996094C37.863281 34.707031 37.742188 34.421875 37.628906 34.132813C36.550781 31.414063 37.742188 30.417969 40.539063 28.425781C43.714844 26.167969 48.058594 23.074219 48 14.898438C48 10.039063 42.695313 0 26.300781 0 Z M 26.5 6C28.433594 6 30 8.015625 30 10.5C30 12.984375 28.433594 15 26.5 15C24.566406 15 23 12.984375 23 10.5C23 8.015625 24.566406 6 26.5 6 Z M 14.5 33C12.566406 33 11 30.984375 11 28.5C11 26.015625 12.566406 24 14.5 24C16.433594 24 18 26.015625 18 28.5C18 30.984375 16.433594 33 14.5 33 Z M 15.5 20C13.566406 20 12 17.984375 12 15.5C12 13.015625 13.566406 11 15.5 11C17.433594 11 19 13.015625 19 15.5C19 17.984375 17.433594 20 15.5 20 Z M 27 43C24.757813 43 23 41.242188 23 39C23 36.757813 24.757813 35 27 35C29.242188 35 31 36.757813 31 39C31 41.242188 29.242188 43 27 43 Z M 37.5 20C35.566406 20 34 17.984375 34 15.5C34 13.015625 35.566406 11 37.5 11C39.433594 11 41 13.015625 41 15.5C41 17.984375 39.433594 20 37.5 20Z" fill="#FFFFFF" />
</svg>