<svg xmlns="http://www.w3.org/2000/svg" viewBox="0 0 48 46">
  <path d="M17,0 A 6,7.5 0 1 0 17,15 6,7.5 0 1 0 17,0 Z M 6,11 A 6,7.5 0 1 0 6,26 6,7.5 0 1 0 6,11 Z m 36,0 a 6,7.5 0 1 0 0,15 6,7.5 0 1 0 0,-15 z M 31,0 a 6,7.5 0 1 0 0,15 6,7.5 0 1 0 0,-15 z m 9.938,36.06 a 13.8,13.8 0 0 0 -1.861,-5.581c-0.46,-0.754 -0.9,-1.5 -1.334,-2.227C34.163,22.215 31.071,17 24,17 16.929,17 13.852,22.215 10.271,28.252 9.839,28.98 9.397,29.725 8.938,30.48 A 13.764,13.764 0 0 0 7.077,36.06 8.822,8.822 0 0 0 9.253,42.952 9.111,9.111 0 0 0 16.065,46 H 31.95 a 9.111,9.111 0 0 0 6.812,-3.048 8.829,8.829 0 0 0 2.176,-6.892 z M 31,34 a 1,1 0 0 1 -1,1 h -4 v 4 a 1,1 0 0 1 -1,1 h -2 a 1,1 0 0 1 -1,-1 v -4 h -4 a 1,1 0 0 1 -1,-1 v -2 a 1,1 0 0 1 1,-1 h 4 v -4 a 1,1 0 0 1 1,-1 h 2 a 1,1 0 0 1 1,1 v 4 h 4 a 1,1 0 0 1 1,1 z" fill="#FFFFFF" />
</svg>