<svg xmlns="http://www.w3.org/2000/svg" viewBox="0 0 50 50">
  <path d="M33 3C27.694 3 24.233156 5.313375 22.660156 9.859375C22.777156 9.927375 22.894906 9.9954531 23.003906 10.064453C24.662906 9.0124531 27.23 8 31 8C31.673 8 32.325797 8.0595312 32.966797 8.1445312C33.668797 6.3815313 34 4.635 34 4C34 3.448 33.553 3 33 3 z M 18.083984 3.0039062C17.696984 2.9710469 17.310688 3.1679531 17.117188 3.5332031C16.859188 4.0202031 17.04525 4.6247656 17.53125 4.8847656C17.65525 4.9517656 19.703422 6.0786094 20.982422 8.5996094C21.283422 7.8326094 21.634156 7.1197969 22.035156 6.4667969C20.497156 4.2207969 18.597844 3.1852344 18.464844 3.1152344C18.342844 3.0507344 18.212984 3.0148594 18.083984 3.0039062 z M 15 10C7.935 10 3 15.346 3 23C3 30.106 6.774 38.896203 14 43.408203C14 43.408203 14.485 43.721 15 44L15 35C15 33.343 16.343 32 18 32L40 32C40.464 32 40.897062 31.885266 41.289062 31.697266C42.414062 28.776266 43 25.763 43 23C43 15.346 38.065 10 31 10C26.609 10 24.154 11.524875 23 12.546875C21.846 11.524875 19.391 10 15 10 z M 45 24.111328L45 29C45 31.414 43.279 33.433437 41 33.898438L41 41C41 41.552 40.553 42 40 42C39.447 42 39 41.552 39 41L39 34L35 34L35 40C35 40.552 34.553 41 34 41C33.447 41 33 40.552 33 40L33 34L29 34L29 41C29 41.552 28.553 42 28 42C27.447 42 27 41.552 27 41L27 34L23 34L23 39C23 39.552 22.553 40 22 40C21.447 40 21 39.552 21 39L21 34L18 34C17.447 34 17 34.448 17 35L17 46C17 46.552 17.447 47 18 47L40 47C43.52 47 46.442687 44.388 46.929688 41C46.976687 40.673 47 40.339 47 40L47 29C47 27.098 46.235 25.373328 45 24.111328 z" fill="#FFFFFF" />
</svg>