<svg xmlns="http://www.w3.org/2000/svg" viewBox="0 0 50 50">
  <path d="M42.900391 2.9003906C41.790391 2.9003906 40.760234 3.3198437 39.990234 4.0898438L39.169922 4.9101562C38.789922 4.7101562 38.310234 4.7698438 37.990234 5.0898438L25.539062 17.539062L26.960938 18.960938L31.050781 23.050781L32.460938 24.460938L44.910156 12.009766C45.260156 11.659766 45.299766 11.110937 45.009766 10.710938L45.810547 9.9101562C47.410547 8.3001563 47.410547 5.6998438 45.810547 4.0898438C45.040547 3.3198437 44.010391 2.9003906 42.900391 2.9003906 z M 6.6972656 3.6269531C5.3661133 3.7021484 4.0992187 4.3066406 3.2304688 5.3691406C2.0204688 6.8291406 1.8096875 8.9099219 2.6796875 10.669922C2.7196875 10.759922 2.7891406 10.849687 2.8691406 10.929688L17.509766 25.570312L18.910156 27.009766L23.019531 31.080078L24.429688 32.490234L25.650391 33.699219L25.679688 33.730469L31.779297 38.539062C31.849297 38.589062 31.92 38.639922 32 38.669922C32.3 38.799922 32.600156 38.889219 32.910156 38.949219L32.910156 39.039062C32.960156 40.379063 33.320234 42.899297 35.240234 44.779297C36.740234 46.249297 38.820547 46.980469 41.060547 46.980469C43.220547 46.980469 45.539375 46.290391 47.609375 44.900391C47.999375 44.640391 48.169063 44.149219 48.039062 43.699219C47.909062 43.239219 47.499297 42.930156 47.029297 42.910156C46.049297 42.890156 45.259453 42.639922 44.689453 42.169922C43.959453 41.549922 43.740234 40.679922 43.490234 39.669922C43.200234 38.519922 42.880703 37.209688 41.720703 36.179688C40.710703 35.289687 39.300781 34.860391 37.550781 34.900391C37.530781 34.420391 37.420938 33.940703 37.210938 33.470703C37.170938 33.390703 37.130078 33.32 37.080078 33.25L32.240234 27.109375C32.210234 27.079375 32.190156 27.049531 32.160156 27.019531L31.029297 25.890625L29.630859 24.460938L25.539062 20.369141L24.099609 18.980469L9.3808594 4.2792969C9.2908594 4.1892969 9.1998437 4.1200781 9.0898438 4.0800781C8.3173438 3.7275781 7.495957 3.5818359 6.6972656 3.6269531 z M 38.699219 7.2109375L42.789062 11.300781L40.060547 14.039062L35.970703 9.9492188L38.699219 7.2109375 z M 16.070312 27.009766L6.5898438 36.490234C6.4898438 36.590234 6.409375 36.719609 6.359375 36.849609L3.0605469 45.650391C2.9305469 46.020391 3.0190625 46.430937 3.2890625 46.710938C3.4790625 46.900937 3.74 47 4 47C4.12 47 4.2396094 46.979453 4.3496094 46.939453L13.150391 43.640625C13.280391 43.590625 13.409766 43.510156 13.509766 43.410156L23.019531 33.900391L21.599609 32.5L17.5 28.419922L16.070312 27.009766 z M 32.019531 30.070312L35.419922 34.380859C35.699922 35.130859 35.549766 35.940469 35.009766 36.480469C34.479766 37.010469 33.660156 37.170859 32.910156 36.880859L28.570312 33.460938C29.350313 33.160938 30.239766 32.64 31.009766 31.75C31.429766 31.25 31.779531 30.680312 32.019531 30.070312 z M 7.6601562 39.080078L8.2890625 39.710938C8.4790625 39.890937 8.73 40 9 40L10 40L10 41C10 41.27 10.109063 41.520938 10.289062 41.710938L10.919922 42.339844L7.0800781 43.779297L6.2207031 42.919922L7.6601562 39.080078 z" fill="#FFFFFF" />
</svg>