<svg xmlns="http://www.w3.org/2000/svg" viewBox="0 0 50 50">
  <path d="M16.3125 0C15.550781 0 14.941406 0.300781 14.28125 0.6875C13.621094 1.074219 12.964844 1.589844 12.4375 2.15625C11.183594 3.5 10.777344 4.542969 10.53125 5.5625C10.226563 6.824219 10.691406 8.058594 11.40625 9.03125C11.945313 9.769531 12.648438 10.394531 13.4375 10.84375C13.160156 11.851563 13 12.902344 13 14C13 15.828125 13.421875 17.542969 14.15625 19.09375C11.371094 20.566406 5.222656 23.824219 3.84375 24.53125C1.1875 25.894531 0.277344 28.023438 1.34375 30.375C2.320313 32.519531 4.515625 33.253906 7.03125 32.3125C8.183594 31.882813 10.90625 30.765625 12.65625 30.03125L12.46875 31.40625C12.664063 31.34375 12.863281 31.296875 13.0625 31.25C13.722656 31.09375 14.398438 31 15.0625 31C16.683594 31 18.261719 31.484375 19.65625 32.3125C20.644531 30.359375 22.65625 29 25 29C27.34375 29 29.355469 30.359375 30.34375 32.3125C31.738281 31.488281 33.316406 31 34.9375 31C35.601563 31 36.273438 31.09375 36.9375 31.25C37.128906 31.296875 37.3125 31.347656 37.5 31.40625L37.34375 30C37.753906 30.171875 38.230469 30.390625 38.71875 30.59375C40.296875 31.25 42.085938 31.984375 42.96875 32.3125C45.375 33.210938 47.382813 32.609375 48.4375 30.75C48.507813 30.625 48.59375 30.515625 48.65625 30.375C49.398438 28.738281 49.15625 27.207031 48.0625 25.96875C47.878906 25.761719 47.667969 25.566406 47.4375 25.375C47.066406 25.070313 46.652344 24.789063 46.15625 24.53125C44.796875 23.835938 38.730469 20.585938 35.875 19.0625C36.597656 17.519531 37 15.8125 37 14C37 12.902344 36.839844 11.851563 36.5625 10.84375C37.351563 10.394531 38.054688 9.769531 38.59375 9.03125C39.308594 8.058594 39.773438 6.824219 39.46875 5.5625C39.222656 4.542969 38.816406 3.5 37.5625 2.15625C37.035156 1.589844 36.378906 1.074219 35.71875 0.6875C35.058594 0.300781 34.449219 0 33.6875 0C31.65625 0 29.851563 1.035156 28.8125 2.625C27.613281 2.21875 26.335938 2 25 2C23.664063 2 22.386719 2.21875 21.1875 2.625C20.148438 1.035156 18.34375 0 16.3125 0 Z M 16.3125 2C17.523438 2 18.582031 2.570313 19.28125 3.4375C17.03125 4.660156 15.214844 6.609375 14.125 8.9375C13.710938 8.648438 13.320313 8.273438 13.03125 7.875C12.554688 7.226563 12.347656 6.539063 12.46875 6.03125C12.691406 5.101563 12.828125 4.65625 13.90625 3.5C14.273438 3.105469 14.789063 2.695313 15.28125 2.40625C15.773438 2.117188 16.269531 2 16.3125 2 Z M 33.6875 2C33.730469 2 34.226563 2.117188 34.71875 2.40625C35.210938 2.695313 35.726563 3.105469 36.09375 3.5C37.171875 4.65625 37.308594 5.101563 37.53125 6.03125C37.652344 6.539063 37.445313 7.226563 36.96875 7.875C36.679688 8.273438 36.289063 8.648438 35.875 8.9375C34.785156 6.609375 32.96875 4.660156 30.71875 3.4375C31.417969 2.570313 32.476563 2 33.6875 2 Z M 21.5 8C22.328125 8 23 8.671875 23 9.5C23 10.328125 22.328125 11 21.5 11C20.671875 11 20 10.328125 20 9.5C20 8.671875 20.671875 8 21.5 8 Z M 28.5 8C29.328125 8 30 8.671875 30 9.5C30 10.328125 29.328125 11 28.5 11C27.671875 11 27 10.328125 27 9.5C27 8.671875 27.671875 8 28.5 8 Z M 25 11C28.867188 11 32 14.132813 32 18C32 21.867188 28.867188 25 25 25C21.132813 25 18 21.867188 18 18C18 14.132813 21.132813 11 25 11 Z M 25 13C23.34375 13 22 14.34375 22 16C22 17.65625 23.34375 19 25 19C26.65625 19 28 17.65625 28 16C28 14.34375 26.65625 13 25 13 Z M 15.0625 33C14.546875 33 14.03125 33.070313 13.53125 33.1875C13.171875 33.273438 12.828125 33.390625 12.5 33.53125C12.375 33.585938 12.246094 33.625 12.125 33.6875C12.113281 33.695313 12.105469 33.710938 12.09375 33.71875C11.886719 33.824219 11.664063 33.933594 11.46875 34.0625C11.457031 34.070313 11.449219 34.085938 11.4375 34.09375C11.242188 34.222656 11.054688 34.351563 10.875 34.5C10.863281 34.507813 10.855469 34.523438 10.84375 34.53125C10.472656 34.839844 10.117188 35.183594 9.8125 35.5625C9.796875 35.578125 9.796875 35.605469 9.78125 35.625C9.640625 35.804688 9.5 35.996094 9.375 36.1875C9.261719 36.363281 9.164063 36.5625 9.0625 36.75C9.039063 36.796875 8.992188 36.828125 8.96875 36.875C8.964844 36.882813 8.972656 36.898438 8.96875 36.90625C8.863281 37.113281 8.746094 37.34375 8.65625 37.5625C8.652344 37.574219 8.628906 37.582031 8.625 37.59375C8.53125 37.824219 8.480469 38.042969 8.40625 38.28125C8.363281 38.414063 8.316406 38.550781 8.28125 38.6875C8.25 38.808594 8.214844 38.9375 8.1875 39.0625C8.183594 39.082031 8.191406 39.105469 8.1875 39.125C8.136719 39.367188 8.09375 39.625 8.0625 39.875C8.0625 39.886719 8.0625 39.894531 8.0625 39.90625C8.03125 40.175781 8.007813 40.441406 8 40.71875C7.976563 41.542969 8.050781 42.40625 8.25 43.25C8.652344 44.957031 9.492188 46.449219 10.59375 47.59375C10.605469 47.605469 10.613281 47.613281 10.625 47.625C11.101563 48.113281 11.628906 48.527344 12.1875 48.875C12.210938 48.890625 12.226563 48.921875 12.25 48.9375C12.363281 49.007813 12.476563 49.0625 12.59375 49.125C12.699219 49.183594 12.800781 49.230469 12.90625 49.28125C12.976563 49.316406 13.050781 49.34375 13.125 49.375C13.210938 49.414063 13.289063 49.464844 13.375 49.5C13.492188 49.546875 13.628906 49.585938 13.75 49.625C13.9375 49.6875 14.121094 49.765625 14.3125 49.8125C14.417969 49.839844 14.519531 49.855469 14.625 49.875C14.667969 49.882813 14.707031 49.898438 14.75 49.90625C14.898438 49.933594 15.039063 49.953125 15.1875 49.96875C15.433594 49.996094 15.6875 50 15.9375 50C16.453125 50 16.96875 49.929688 17.46875 49.8125C17.832031 49.726563 18.164063 49.613281 18.5 49.46875C18.625 49.414063 18.753906 49.371094 18.875 49.3125C18.886719 49.304688 18.894531 49.289063 18.90625 49.28125C19.132813 49.167969 19.351563 49.042969 19.5625 48.90625C19.757813 48.777344 19.945313 48.648438 20.125 48.5C20.136719 48.492188 20.144531 48.476563 20.15625 48.46875C20.351563 48.304688 20.539063 48.121094 20.71875 47.9375C20.878906 47.773438 21.042969 47.617188 21.1875 47.4375C21.203125 47.417969 21.203125 47.394531 21.21875 47.375C21.308594 47.261719 21.382813 47.152344 21.46875 47.03125C21.527344 46.945313 21.601563 46.867188 21.65625 46.78125C21.78125 46.585938 21.890625 46.363281 22 46.15625C22.125 45.917969 22.273438 45.660156 22.375 45.40625C22.464844 45.1875 22.523438 44.949219 22.59375 44.71875C22.601563 44.699219 22.617188 44.675781 22.625 44.65625C22.695313 44.421875 22.761719 44.179688 22.8125 43.9375C22.816406 43.917969 22.808594 43.894531 22.8125 43.875C22.863281 43.625 22.90625 43.382813 22.9375 43.125C22.9375 43.113281 22.9375 43.105469 22.9375 43.09375C22.96875 42.835938 22.992188 42.578125 23 42.3125C23 42.300781 23 42.292969 23 42.28125C23.015625 41.742188 22.984375 41.175781 22.90625 40.625C22.90625 40.613281 22.90625 40.605469 22.90625 40.59375C22.867188 40.324219 22.8125 40.054688 22.75 39.78125C22.746094 39.773438 22.753906 39.757813 22.75 39.75C22.691406 39.5 22.609375 39.269531 22.53125 39.03125C22.527344 39.019531 22.503906 39.011719 22.5 39C22.429688 38.777344 22.367188 38.554688 22.28125 38.34375C22.246094 38.257813 22.222656 38.175781 22.1875 38.09375C22.128906 37.960938 22.066406 37.816406 22 37.6875C21.984375 37.652344 21.953125 37.625 21.9375 37.59375C21.84375 37.410156 21.730469 37.238281 21.625 37.0625C21.503906 36.859375 21.386719 36.660156 21.25 36.46875C21.113281 36.273438 20.992188 36.085938 20.84375 35.90625C20.714844 35.75 20.574219 35.582031 20.4375 35.4375C20.417969 35.417969 20.394531 35.394531 20.375 35.375C20.199219 35.191406 20 35.039063 19.8125 34.875C19.539063 34.636719 19.269531 34.414063 18.96875 34.21875C18.910156 34.179688 18.84375 34.132813 18.78125 34.09375C18.695313 34.042969 18.617188 33.984375 18.53125 33.9375C17.898438 33.574219 17.230469 33.3125 16.53125 33.15625C16.480469 33.144531 16.425781 33.136719 16.375 33.125C16.179688 33.085938 15.976563 33.054688 15.78125 33.03125C15.761719 33.027344 15.738281 33.035156 15.71875 33.03125C15.5 33.007813 15.28125 33 15.0625 33 Z M 34.9375 33C34.5625 32.996094 34.210938 33.03125 33.84375 33.09375C33.773438 33.105469 33.695313 33.109375 33.625 33.125C33.574219 33.136719 33.519531 33.144531 33.46875 33.15625C32.769531 33.3125 32.101563 33.574219 31.46875 33.9375C31.417969 33.96875 31.363281 34 31.3125 34.03125C31.089844 34.167969 30.867188 34.34375 30.65625 34.5C30.507813 34.613281 30.363281 34.71875 30.21875 34.84375C29.769531 35.230469 29.34375 35.671875 28.96875 36.15625C28.851563 36.308594 28.734375 36.460938 28.625 36.625C28.003906 37.550781 27.523438 38.59375 27.25 39.75C26.71875 41.992188 27.03125 44.230469 27.9375 46.03125C27.949219 46.050781 27.957031 46.074219 27.96875 46.09375C28.558594 47.246094 29.402344 48.21875 30.4375 48.90625C30.644531 49.042969 30.871094 49.167969 31.09375 49.28125C31.226563 49.351563 31.363281 49.410156 31.5 49.46875C31.59375 49.507813 31.683594 49.558594 31.78125 49.59375C32.027344 49.683594 32.273438 49.75 32.53125 49.8125C33.035156 49.929688 33.546875 50 34.0625 50C34.28125 50 34.5 49.988281 34.71875 49.96875C34.894531 49.949219 35.078125 49.9375 35.25 49.90625C35.292969 49.898438 35.332031 49.882813 35.375 49.875C35.425781 49.863281 35.480469 49.855469 35.53125 49.84375C35.6875 49.808594 35.847656 49.765625 36 49.71875C36.085938 49.695313 36.167969 49.652344 36.25 49.625C36.371094 49.585938 36.507813 49.546875 36.625 49.5C36.742188 49.453125 36.855469 49.398438 36.96875 49.34375C37.054688 49.304688 37.132813 49.261719 37.21875 49.21875C37.359375 49.148438 37.488281 49.082031 37.625 49C38.257813 48.628906 38.847656 48.167969 39.375 47.625C39.394531 47.605469 39.417969 47.582031 39.4375 47.5625C39.898438 47.078125 40.300781 46.535156 40.65625 45.9375C40.71875 45.832031 40.785156 45.730469 40.84375 45.625C41.234375 44.898438 41.550781 44.09375 41.75 43.25C41.820313 42.957031 41.863281 42.667969 41.90625 42.375C41.945313 42.101563 41.984375 41.835938 42 41.5625C42 41.550781 42 41.542969 42 41.53125C42.015625 41.257813 42.007813 40.984375 42 40.71875C42 40.707031 42 40.699219 42 40.6875C41.992188 40.421875 41.96875 40.167969 41.9375 39.90625C41.9375 39.894531 41.9375 39.886719 41.9375 39.875C41.90625 39.625 41.863281 39.367188 41.8125 39.125C41.808594 39.105469 41.816406 39.082031 41.8125 39.0625C41.761719 38.820313 41.695313 38.574219 41.625 38.34375C41.617188 38.320313 41.601563 38.304688 41.59375 38.28125C41.519531 38.042969 41.46875 37.824219 41.375 37.59375C41.371094 37.582031 41.347656 37.574219 41.34375 37.5625C41.25 37.335938 41.144531 37.089844 41.03125 36.875C41.023438 36.863281 41.007813 36.855469 41 36.84375C40.886719 36.628906 40.785156 36.421875 40.65625 36.21875C40.648438 36.207031 40.632813 36.199219 40.625 36.1875C40.578125 36.113281 40.519531 36.042969 40.46875 35.96875C40.371094 35.832031 40.292969 35.691406 40.1875 35.5625C40.039063 35.378906 39.882813 35.230469 39.71875 35.0625C39.367188 34.703125 38.980469 34.367188 38.5625 34.09375C38.355469 33.957031 38.128906 33.832031 37.90625 33.71875C37.894531 33.710938 37.886719 33.695313 37.875 33.6875C37.660156 33.578125 37.445313 33.492188 37.21875 33.40625C37.210938 33.402344 37.195313 33.410156 37.1875 33.40625C36.953125 33.320313 36.71875 33.246094 36.46875 33.1875C35.964844 33.070313 35.453125 33 34.9375 33 Z M 24.59375 44.96875C24.402344 45.664063 24.128906 46.308594 23.8125 46.9375C24.203125 46.957031 24.605469 47 25 47C25.394531 47 25.796875 46.957031 26.1875 46.9375C25.871094 46.316406 25.597656 45.65625 25.40625 44.96875C25.132813 44.976563 24.867188 44.972656 24.59375 44.96875Z" fill="#FFFFFF" />
</svg>