<svg xmlns="http://www.w3.org/2000/svg" viewBox="0 0 50 50">
  <path d="M43.90625 0.96875C43.863281 0.976563 43.820313 0.988281 43.78125 1C43.316406 1.105469 42.988281 1.523438 43 2C43 3.898438 42.121094 4.941406 40.5 5.96875C38.878906 6.996094 36.535156 7.828125 34.125 8.84375C31.714844 9.859375 29.21875 11.082031 27.28125 13.125C25.519531 14.984375 24.296875 17.539063 24.09375 20.96875C22.292969 20.820313 21.171875 20.242188 19.96875 19.625C18.5 18.871094 16.820313 18 14 18C7.980469 18 0 31.683594 0 42C0 46.710938 2.46875 50 6 50C11.304688 50 14.90625 47.121094 18.09375 44.59375C20.53125 42.660156 22.652344 41 25 41C27.347656 41 29.46875 42.660156 31.90625 44.59375C35.09375 47.121094 38.695313 50 44 50C47.53125 50 50 46.710938 50 42C50 31.683594 42.019531 18 36 18C33.179688 18 31.5 18.871094 30.03125 19.625C28.878906 20.21875 27.796875 20.761719 26.125 20.9375C26.320313 17.996094 27.300781 16.027344 28.75 14.5C30.367188 12.792969 32.578125 11.640625 34.90625 10.65625C37.234375 9.671875 39.628906 8.878906 41.5625 7.65625C43.496094 6.433594 45 4.601563 45 2C45.011719 1.710938 44.894531 1.433594 44.6875 1.238281C44.476563 1.039063 44.191406 0.941406 43.90625 0.96875 Z M 37 27C38.105469 27 39 27.894531 39 29C39 30.105469 38.105469 31 37 31C35.894531 31 35 30.105469 35 29C35 27.894531 35.894531 27 37 27 Z M 12 28L15 28L15 31L18 31L18 34L15 34L15 37L12 37L12 34L9 34L9 31L12 31 Z M 33 31C34.105469 31 35 31.894531 35 33C35 34.105469 34.105469 35 33 35C31.894531 35 31 34.105469 31 33C31 31.894531 31.894531 31 33 31 Z M 41 31C42.105469 31 43 31.894531 43 33C43 34.105469 42.105469 35 41 35C39.894531 35 39 34.105469 39 33C39 31.894531 39.894531 31 41 31 Z M 37 35C38.105469 35 39 35.894531 39 37C39 38.105469 38.105469 39 37 39C35.894531 39 35 38.105469 35 37C35 35.894531 35.894531 35 37 35Z" fill="#FFFFFF" />
</svg>