<svg xmlns="http://www.w3.org/2000/svg" viewBox="0 0 50 50">
  <path d="M25 2C19.488281 2 15 6.488281 15 12L15 14C14.996094 14.359375 15.183594 14.695313 15.496094 14.878906C15.808594 15.058594 16.191406 15.058594 16.503906 14.878906C16.816406 14.695313 17.003906 14.359375 17 14L17 12C17 7.570313 20.570313 4 25 4C29.429688 4 33 7.570313 33 12L33 14C32.996094 14.359375 33.183594 14.695313 33.496094 14.878906C33.808594 15.058594 34.191406 15.058594 34.503906 14.878906C34.816406 14.695313 35.003906 14.359375 35 14L35 12C35 6.488281 30.511719 2 25 2 Z M 16 16C14.894531 16 14 16.894531 14 18L9 18C8.53125 18 8.132813 18.328125 8.03125 18.78125L5.46875 30.0625C5.328125 30.671875 5.675781 31.277344 6.28125 31.4375C9.386719 32.253906 16.945313 34 25 34C33.0625 34 40.617188 32.253906 43.71875 31.4375C44.324219 31.277344 44.671875 30.671875 44.53125 30.0625L41.96875 18.78125C41.867188 18.324219 41.46875 18 41 18L36 18C36 16.894531 35.105469 16 34 16C32.894531 16 32 16.894531 32 18L18 18C18 16.894531 17.105469 16 16 16 Z M 5.84375 33.40625L4 45.84375C3.957031 46.128906 4.058594 46.433594 4.25 46.65625C4.441406 46.875 4.710938 47 5 47L8 47L8 48L11 48L11 47L39 47L39 48L42 48L42 47L45 47C45.289063 47 45.558594 46.875 45.75 46.65625C45.941406 46.433594 46.042969 46.128906 46 45.84375L44.15625 33.40625C41.285156 34.164063 35 35.613281 27.84375 35.9375C27.449219 37.136719 26.332031 38 25 38C23.667969 38 22.550781 37.136719 22.15625 35.9375C15 35.613281 8.714844 34.164063 5.84375 33.40625Z" fill="#FFFFFF" />
</svg>