<svg xmlns="http://www.w3.org/2000/svg" viewBox="0 0 50 50">
  <path d="M3.125 23.160156L8.183594 14.480469C8.230469 14.394531 8.292969 14.316406 8.363281 14.253906L17.441406 5.792969C17.539063 5.703125 17.65625 5.632813 17.78125 5.585938L25.578125 2.722656L32.152344 7.316406L28.878906 17.722656L16.597656 29.132813L6.582031 31.378906 Z M 7.296875 33.269531L11.96875 46.628906L15.8125 31.355469 Z M 42.484375 2.875L35.074219 6.992188L47.355469 15.910156C47.613281 14.761719 47.914063 13.195313 47.984375 11.863281C47.980469 11.847656 47.980469 11.828125 47.980469 11.808594C48.019531 9.910156 47.707031 7.925781 46.675781 6.210938C45.75 4.667969 44.359375 3.539063 42.535156 2.828125C42.519531 2.84375 42.507813 2.863281 42.484375 2.875 Z M 34.375 35.578125L29.296875 20.058594L18.988281 29.644531 Z M 31.144531 19.269531L36.1875 34.679688C40.132813 30.386719 44.171875 25.246094 46.476563 18.925781 Z M 45.382813 16.949219L33.851563 8.578125L31.117188 17.269531 Z M 5.761719 34.9375L2.335938 40.816406C3.507813 46.242188 7.566406 47.457031 10.242188 47.753906 Z M 4.878906 32.484375L2 25.644531L2 37.421875 Z M 39.921875 2.011719C39.90625 2.007813 39.890625 2 39.871094 2L28.039063 2L33.3125 5.6875 Z M 17.875 31.355469L13.777344 47.632813C22.109375 46.40625 28.359375 41.929688 33.425781 37.355469 Z M 44.546875 45.648438C44.3125 45.648438 44.074219 45.566406 43.882813 45.398438L35.617188 38.058594C31.984375 41.429688 27.742188 44.855469 22.519531 47.164063L44.5625 45.667969C44.691406 45.660156 44.8125 45.621094 44.925781 45.570313C44.804688 45.621094 44.675781 45.648438 44.546875 45.648438 Z M 37.0625 36.667969L45.210938 43.902344C45.382813 44.054688 45.472656 44.253906 45.511719 44.460938L47.195313 22.414063C44.582031 28.078125 40.742188 32.730469 37.0625 36.667969Z" fill="#FFFFFF" />
</svg>