<svg xmlns="http://www.w3.org/2000/svg" viewBox="0 0 50 50">
  <path d="M25 8C18.402344 8 15.992188 8.863281 15.53125 9.0625C13.980469 9.589844 11.683594 10.378906 10.6875 12.3125C10.011719 13.628906 5.566406 25.46875 5.0625 26.8125L5 27L5 39C5 40.652344 6.347656 42 8 42L12 42C13.652344 42 15 40.652344 15 39L15 38L35 38L35 39C35 40.652344 36.347656 42 38 42L42 42C43.652344 42 45 40.652344 45 39L45 27L44.9375 26.8125C44.832031 26.53125 43.410156 22.816406 42 19.1875C41.984375 19.15625 41.980469 19.125 41.96875 19.09375C40.796875 16.078125 39.648438 13.152344 39.28125 12.3125C38.441406 10.410156 36.128906 9.546875 34.4375 9.0625C33.917969 8.847656 31.480469 8 25 8 Z M 25 10C31.550781 10 33.648438 10.902344 33.65625 10.90625L33.8125 10.96875C34.566406 11.183594 36.871094 11.835938 37.4375 13.125C37.773438 13.886719 38.808594 16.546875 39.90625 19.375L40 19.5625C40.015625 19.601563 40.011719 19.640625 40.03125 19.6875C40.058594 19.757813 40.097656 19.835938 40.125 19.90625C40.371094 20.550781 40.640625 21.511719 40.25 22.09375C39.847656 22.6875 38.703125 23 37 23L13 23C11.296875 23 10.085938 22.597656 9.6875 22C9.21875 21.304688 9.726563 20.0625 9.96875 19.46875L10.0625 19.28125C11.222656 16.253906 12.21875 13.734375 12.46875 13.25C13.105469 12.015625 14.972656 11.359375 16.21875 10.9375L16.3125 10.90625C16.332031 10.898438 18.449219 10 25 10 Z M 5.09375 19C2.070313 19 1 20.859375 1 22.59375C1 23.4375 1.378906 24.796875 3.625 24.96875C4.253906 23.300781 5.0625 21.128906 5.875 19 Z M 44.0625 19C44.96875 21.339844 45.863281 23.640625 46.375 24.96875C48.628906 24.800781 49 23.441406 49 22.59375C49 20.859375 47.929688 19 44.90625 19 Z M 11 27L15 27C16.65625 27 18 28.34375 18 30C18 31.65625 16.65625 33 15 33C13.324219 33 12.828125 32.574219 11.09375 31.59375C9.933594 30.9375 9 30.308594 9 29C9 27.894531 9.894531 27 11 27 Z M 35 27L39 27C40.105469 27 41 27.894531 41 29C41 30.308594 40.066406 30.9375 38.90625 31.59375C37.175781 32.574219 36.675781 33 35 33C33.34375 33 32 31.65625 32 30C32 28.34375 33.34375 27 35 27Z" fill="#FFFFFF" />
</svg>