<svg xmlns="http://www.w3.org/2000/svg" viewBox="0 0 50 50">
  <path d="M17.902344 4C16.800781 4 16.800781 5.699219 17.699219 6C18.300781 6.199219 21 8 21 8L21 16.800781C21.699219 17.300781 24.800781 18 30 18C35.101563 18 38.199219 17.199219 39 16.800781L39 13.4375L39.394531 12.644531C39.78125 11.875 40.523438 11.175781 41.28125 10.699219C42.039063 10.21875 42.898438 10 43 10C44.167969 10 44.789063 10.496094 45.277344 11.28125C45.765625 12.0625 46 13.167969 46 14C46 14.867188 45.730469 18.140625 45.085938 19.59375C44.378906 21.191406 43.597656 22.828125 42.867188 24.328125C42.53125 22.039063 41.5 20.054688 39.800781 18.597656C37.300781 19.898438 32 20 30 20C28 20 22.699219 19.898438 20.199219 18.597656C18.097656 20.398438 17 22.902344 16.902344 25.902344C17.402344 25.699219 17.898438 25.597656 18.5 25.597656C20.101563 25.597656 21.300781 26.5 22.199219 27.402344C22.597656 27.199219 23 27 23.402344 27L23.597656 27C26 27 27.5 29 28 29.699219C28.199219 29.898438 28.300781 30.199219 28.5 30.402344C30.398438 31.101563 31.898438 32.300781 33.097656 33.902344C34.398438 35.601563 35.097656 37.597656 35.199219 39.597656L35.199219 40.097656L38 40.097656C38 40.019531 41.214844 34.597656 42.488281 29.5625C42.648438 29.25 45.054688 24.609375 46.914063 20.40625C47.867188 18.257813 48 15.132813 48 14C48 12.832031 47.734375 11.4375 46.972656 10.21875C46.210938 9.003906 44.832031 8 43 8C42.101563 8 41.210938 8.382813 40.21875 9.003906C39.804688 9.265625 39.390625 9.585938 39 9.949219L39 8L40.199219 5.199219C40.398438 4.597656 39.800781 4 39 4 Z M 18.359375 27.550781C17.984375 27.582031 17.59375 27.71875 17.199219 28C17.097656 28.199219 17 28.398438 17 28.699219C17 29 17.199219 29.199219 17.199219 29.097656C17.699219 29.300781 18.199219 29.699219 18.597656 30.300781C19.898438 32.101563 20.699219 35 20.402344 36.5C20.300781 37.101563 20.101563 37.199219 20 37.199219C19.898438 37.199219 19.699219 37 19.5 36.800781C18.898438 36.101563 18.300781 34.597656 17.699219 33.097656C16.898438 31.300781 16.199219 29.601563 15.5 29C14.898438 28.398438 13 26.800781 11.199219 28.800781C11 29 11 29.199219 11 29.5C11.101563 29.699219 11.199219 29.898438 11.402344 30C11.902344 30.300781 12.402344 30.699219 12.902344 31.300781C14.101563 32.800781 14.699219 35.097656 14.5 36.097656C14.398438 36.398438 14.300781 36.5 14.199219 36.5C14.199219 36.5 14 36.5 13.5 35.902344C12.898438 35.101563 12.101563 33.5 11.5 32.402344C11.101563 31.601563 10.800781 31.101563 10.597656 30.800781C10.398438 30.5 10.199219 30.398438 10 30.5C8.699219 30.898438 3.601563 34 4 40C4.101563 40.800781 4.300781 41.5 4.800781 42.097656C6.601563 44.398438 10.699219 45.699219 19.402344 46C26.101563 46.300781 31.5 44 32.902344 41.597656C33.300781 41 33.402344 40.398438 33.402344 39.699219C33.199219 38 32.597656 36.398438 31.597656 35C30.5 33.601563 29 32.5 27.300781 32C27.300781 31.898438 27.101563 31.699219 26.902344 31.402344C26.699219 31.199219 26.601563 31 26.402344 30.800781C25.699219 29.902344 24.800781 28.800781 23.5 28.902344C23.300781 28.902344 23.097656 29.101563 23.097656 29.402344C23.097656 29.699219 23.199219 30 23.402344 30.199219C23.5 30.199219 23.601563 30.398438 23.800781 30.597656C24.902344 32.199219 26.300781 35.5 26 36.699219C26 36.800781 25.898438 37 25.597656 37C25.398438 37 25.101563 36.800781 24.902344 36.5C24.402344 35.699219 23.800781 34.300781 23.300781 33C22.800781 31.699219 22.402344 30.601563 21.902344 30C21.414063 29.269531 20 27.414063 18.359375 27.550781Z" fill="#FFFFFF" />
</svg>