<svg xmlns="http://www.w3.org/2000/svg" viewBox="0 0 50 50">
  <path d="M25 0.59375L24.28125 1.28125L16.28125 9.28125C15.882813 9.679688 15.882813 10.320313 16.28125 10.71875C16.679688 11.117188 17.320313 11.117188 17.71875 10.71875L24 4.4375L24 32C23.996094 32.359375 24.183594 32.695313 24.496094 32.878906C24.808594 33.058594 25.191406 33.058594 25.503906 32.878906C25.816406 32.695313 26.003906 32.359375 26 32L26 4.4375L32.28125 10.71875C32.679688 11.117188 33.320313 11.117188 33.71875 10.71875C34.117188 10.320313 34.117188 9.679688 33.71875 9.28125L25.71875 1.28125 Z M 7 16L7 50L43 50L43 16L33 16C32.640625 15.996094 32.304688 16.183594 32.121094 16.496094C31.941406 16.808594 31.941406 17.191406 32.121094 17.503906C32.304688 17.816406 32.640625 18.003906 33 18L41 18L41 48L9 48L9 18L17 18C17.359375 18.003906 17.695313 17.816406 17.878906 17.503906C18.058594 17.191406 18.058594 16.808594 17.878906 16.496094C17.695313 16.183594 17.359375 15.996094 17 16Z" fill="#FFFFFF" />
</svg>