<svg xmlns="http://www.w3.org/2000/svg" viewBox="0 0 50 50">
  <path d="M30.78125 0C30.605469 0.0195313 30.425781 0.078125 30.28125 0.1875C29.992188 0.40625 29.855469 0.765625 29.90625 1.125C30.109375 2.589844 29.09375 4.101563 27.9375 5.84375C26.230469 8.414063 24.117188 11.617188 24.9375 16.21875C25.578125 19.792969 28.113281 21.9375 31.75 21.9375C32.640625 21.9375 33.527344 21.796875 34.3125 21.5625C35.585938 15.578125 34.8125 11.582031 33.09375 7.28125C32.890625 6.769531 33.144531 6.203125 33.65625 6C34.167969 5.796875 34.765625 6.046875 34.96875 6.5625C36.703125 10.90625 37.550781 15.097656 36.4375 21.09375C36.941406 21.304688 37.523438 21.4375 38.1875 21.4375C39.507813 21.4375 40.8125 20.859375 42.03125 19.71875C43.234375 18.59375 44.425781 16.128906 43.875 12.84375C43.394531 9.96875 41.140625 4.492188 31.3125 0.09375C31.148438 0.0195313 30.957031 -0.0195313 30.78125 0 Z M 36.4375 21.09375C36.257813 21.019531 36.09375 20.929688 35.9375 20.84375C35.496094 21.128906 34.925781 21.378906 34.3125 21.5625C34.035156 22.871094 33.640625 24.289063 33.15625 25.8125C32.984375 25.808594 32.785156 25.78125 32.65625 25.78125C31.703125 25.789063 30.398438 26.394531 29.53125 27.34375C28.832031 26.96875 27.949219 26.777344 27.03125 26.875C25.808594 27 24.808594 27.582031 24.21875 28.5C23.335938 28.414063 22.507813 28.574219 21.8125 28.9375C22.199219 29.300781 22.515625 29.644531 22.78125 29.9375C22.964844 30.136719 23.21875 30.417969 23.28125 30.46875C24.019531 30.914063 28.0625 32 30 32C30.011719 32 30.023438 32 30.03125 32C32.421875 32.046875 34.398438 32.789063 35.5625 33.9375L41.21875 30.125L41.25 30.09375L41.3125 30.0625C41.816406 29.765625 42.304688 29.53125 42.78125 29.3125C42.476563 28.933594 42.128906 28.574219 41.71875 28.3125C40.550781 27.5625 39.089844 27.433594 37.5625 27.90625C36.917969 26.890625 36.035156 26.375 35.15625 26.09375C35.71875 24.289063 36.152344 22.628906 36.4375 21.09375 Z M 13.46875 28C10.945313 28 9.757813 28.476563 8.5 29L7.90625 29.25C6.839844 29.671875 5.460938 30.265625 4.1875 30.84375C2.316406 31.695313 0.675781 32.507813 0.5625 32.5625C0.40625 32.636719 0.28125 32.742188 0.1875 32.875C0.179688 32.886719 0.195313 32.894531 0.1875 32.90625C0.132813 32.988281 0.0898438 33.09375 0.0625 33.1875C0.0273438 33.292969 0 33.386719 0 33.5C0 33.539063 -0.00390625 33.582031 0 33.625C0.9375 41.035156 5.375 45.742188 5.5625 45.9375C5.894531 46.285156 6.441406 46.351563 6.84375 46.09375L9.53125 44.34375C10.761719 43.558594 11.210938 43.4375 12.78125 44.25L14.90625 45.375C17.382813 46.664063 20.773438 48.417969 21.84375 48.9375C23.433594 49.710938 24.773438 50 25.90625 50C27.863281 50 29.238281 49.128906 30.4375 48.375C30.699219 48.210938 30.953125 48.027344 31.21875 47.875C33.078125 46.800781 45.996094 38.207031 47.34375 37.25C48.90625 36.144531 49.789063 34.992188 49.96875 33.8125C50.089844 33.015625 49.863281 32.242188 49.34375 31.5625C48.742188 30.777344 47.460938 29.808594 44.90625 30.59375C44.832031 30.617188 44.734375 30.664063 44.65625 30.6875C44.535156 30.726563 44.441406 30.761719 44.3125 30.8125C44.273438 30.828125 44.226563 30.828125 44.1875 30.84375C44.019531 30.910156 43.863281 30.980469 43.6875 31.0625C43.265625 31.253906 42.792969 31.496094 42.3125 31.78125L36.59375 35.65625C36.664063 35.929688 36.6875 36.207031 36.6875 36.5C36.6875 39.484375 34.441406 41 30 41L24.1875 41C21.382813 41 17.867188 40.011719 17.71875 39.96875C17.1875 39.816406 16.878906 39.25 17.03125 38.71875C17.183594 38.1875 17.75 37.886719 18.28125 38.03125C18.316406 38.042969 21.667969 39 24.1875 39L30 39C34.160156 39 34.6875 37.664063 34.6875 36.5C34.6875 35.320313 32.988281 34.125 30.125 34.03125C30.09375 34.03125 30.0625 34 30.03125 34C29.945313 33.996094 29.867188 34 29.78125 34C29.765625 34 29.734375 34 29.71875 34C27.496094 33.917969 23.371094 32.859375 22.25 32.1875C21.960938 32.011719 21.667969 31.671875 21.3125 31.28125C21.050781 30.992188 20.753906 30.667969 20.40625 30.34375C20.109375 30.066406 19.769531 29.796875 19.375 29.53125C19.355469 29.515625 19.332031 29.480469 19.3125 29.46875C19.121094 29.339844 18.910156 29.242188 18.6875 29.125C18.664063 29.113281 18.648438 29.074219 18.625 29.0625C18.421875 28.957031 18.199219 28.875 17.96875 28.78125C17.929688 28.765625 17.878906 28.734375 17.84375 28.71875C17.597656 28.621094 17.34375 28.550781 17.0625 28.46875C17.007813 28.453125 16.964844 28.421875 16.90625 28.40625C16.644531 28.335938 16.355469 28.273438 16.0625 28.21875C16.023438 28.210938 15.976563 28.195313 15.9375 28.1875C15.617188 28.132813 15.269531 28.097656 14.90625 28.0625C14.824219 28.054688 14.742188 28.070313 14.65625 28.0625C14.277344 28.035156 13.894531 28 13.46875 28Z" fill="#FFFFFF" />
</svg>