<svg xmlns="http://www.w3.org/2000/svg" viewBox="0 0 50 50">
  <path d="M25 1C18.372 1 12.818953 5.8831562 11.376953 12.410156C14.626953 10.131156 18.75425 8.7530156 22.03125 7.6660156C23.19925 7.2780156 24.296266 6.9144063 25.197266 6.5664062C28.236266 5.3894062 28.861469 2.761 28.980469 2C28.989469 1.943 29 1.6972656 29 1.6972656C27.962 1.3072656 26.63 1 25 1 z M 30.808594 3L30.798828 3.0292969C30.680828 3.4742969 30.497078 4.0166094 30.205078 4.5996094C29.521078 5.9656094 28.257922 7.5256406 25.919922 8.4316406C24.971922 8.7986406 23.850109 9.1704531 22.662109 9.5644531C16.475109 11.615453 8 14.426281 8 21.863281C8 25.459001 9.9634639 27.040619 11.019531 27.634766C11.118706 30.391149 11.84858 33.852005 13.126953 37.228516 A 1.0001109 1.0001109 0 0 0 13.15625 37.298828C11.894709 37.824227 11 39.047443 11 40.5C11 42.277 12.330875 43.728125 14.046875 43.953125C14.271875 45.669125 15.723 47 17.5 47C18.079532 47 18.618239 46.84504 19.099609 46.595703C20.786459 48.048009 22.78317 49 25 49C27.257719 49 29.302901 48.092374 31.029297 46.666016C31.47756 46.874635 31.972986 47 32.5 47C33.922 47 35.1395 46.149641 35.6875 44.931641C37.5675 44.603641 39 42.973 39 41C39 39.871 38.528391 38.855906 37.775391 38.128906C37.917391 37.779906 38 37.4 38 37C38 36.448613 37.841538 35.938073 37.582031 35.494141 A 1.0001598 1.0001598 0 0 0 37.757812 35.152344C38.517993 32.522662 38.930777 29.868447 38.980469 27.476562C39.853758 26.729704 42 24.455013 42 19.773438C42 16.612437 40.853563 14.329344 39.601562 12.777344C39.168563 12.263344 38.794922 12.007812 38.794922 12.007812C37.959922 16.220813 34.496 19.459578 29 21.142578C35.07054 23.384517 36.798924 26.812906 36.990234 27.224609C36.967055 29.328501 36.605714 31.753386 35.945312 34.166016C35.646656 34.066356 35.332186 34 35 34C33.343 34 32 35.343 32 37C30.343 37 29 38.343 29 40C29 40.626 29.191531 41.2065 29.519531 41.6875C29.195531 42.2175 29 42.833 29 43.5C29 44.159869 29.194279 44.770086 29.511719 45.296875C28.123456 46.379495 26.635466 47 25 47C23.402578 47 21.933285 46.335541 20.550781 45.183594C20.828158 44.682171 21 44.113596 21 43.5C21 42.594 20.646078 41.776297 20.080078 41.154297C20.645078 40.609297 21 39.847 21 39C21 37.684 20.146797 36.577828 18.966797 36.173828C18.805797 34.948828 17.769 34 16.5 34C15.666366 34 14.934657 34.412069 14.480469 35.039062C13.545557 32.167927 13.035601 29.311736 13.005859 27.201172C13.321056 26.50269 15.763614 21.806261 25.164062 19.986328C32.575063 18.750328 37 15.018 37 10C37 6.279 34.716141 4.326375 32.744141 3.484375C31.853141 3.083375 30.808594 3 30.808594 3 z M 19.5 28 A 1.5 1.5 0 0 0 18 29.5 A 1.5 1.5 0 0 0 19.5 31 A 1.5 1.5 0 0 0 21 29.5 A 1.5 1.5 0 0 0 19.5 28 z M 30.5 28 A 1.5 1.5 0 0 0 29 29.5 A 1.5 1.5 0 0 0 30.5 31 A 1.5 1.5 0 0 0 32 29.5 A 1.5 1.5 0 0 0 30.5 28 z M 6 34 A 1 1 0 0 0 5 35 A 1 1 0 0 0 6 36 A 1 1 0 0 0 7 35 A 1 1 0 0 0 6 34 z M 44.5 34C43.121 34 42 35.121 42 36.5C42 37.879 43.121 39 44.5 39C45.879 39 47 37.879 47 36.5C47 35.121 45.879 34 44.5 34 z M 3.5 41C2.121 41 1 42.121 1 43.5C1 44.879 2.121 46 3.5 46C4.879 46 6 44.879 6 43.5C6 42.121 4.879 41 3.5 41 z M 48 42 A 1 1 0 0 0 47 43 A 1 1 0 0 0 48 44 A 1 1 0 0 0 49 43 A 1 1 0 0 0 48 42 z" fill="#FFFFFF" />
</svg>