<svg xmlns="http://www.w3.org/2000/svg" viewBox="0 0 50 50">
  <path d="M25 4C13.421875 4 4 13.421875 4 25C4 36.578125 13.421875 46 25 46C36.578125 46 46 36.578125 46 25C46 24.335938 45.949219 23.691406 45.90625 23.203125C45.878906 22.851563 45.667969 22.546875 45.355469 22.390625C45.042969 22.234375 44.667969 22.253906 44.375 22.441406C43.804688 22.808594 43.15625 23 42.5 23C41.0625 23 39.789063 22.132813 39.253906 20.792969C39.148438 20.527344 38.933594 20.316406 38.667969 20.21875C38.398438 20.125 38.101563 20.144531 37.847656 20.28125C36.980469 20.75 35.996094 21 35 21C31.691406 21 29 18.308594 29 15C29 14.007813 29.25 13.019531 29.71875 12.152344C29.855469 11.898438 29.878906 11.601563 29.78125 11.332031C29.683594 11.066406 29.476563 10.851563 29.210938 10.746094C27.867188 10.210938 27 8.9375 27 7.5C27 6.84375 27.191406 6.195313 27.558594 5.625C27.746094 5.328125 27.765625 4.957031 27.609375 4.644531C27.453125 4.332031 27.144531 4.121094 26.796875 4.089844C26.269531 4.042969 25.644531 4 25 4 Z M 38 4C36.894531 4 36 4.894531 36 6C36 7.105469 36.894531 8 38 8C39.105469 8 40 7.105469 40 6C40 4.894531 39.105469 4 38 4 Z M 36.5 12C35.671875 12 35 12.671875 35 13.5C35 14.328125 35.671875 15 36.5 15C37.328125 15 38 14.328125 38 13.5C38 12.671875 37.328125 12 36.5 12 Z M 21.5 15C22.328125 15 23 15.671875 23 16.5C23 17.328125 22.328125 18 21.5 18C20.671875 18 20 17.328125 20 16.5C20 15.671875 20.671875 15 21.5 15 Z M 45 15C44.449219 15 44 15.449219 44 16C44 16.550781 44.449219 17 45 17C45.550781 17 46 16.550781 46 16C46 15.449219 45.550781 15 45 15 Z M 15 20C16.65625 20 18 21.34375 18 23C18 24.65625 16.65625 26 15 26C13.34375 26 12 24.65625 12 23C12 21.34375 13.34375 20 15 20 Z M 24.5 24C25.328125 24 26 24.671875 26 25.5C26 26.328125 25.328125 27 24.5 27C23.671875 27 23 26.328125 23 25.5C23 24.671875 23.671875 24 24.5 24 Z M 17 31C18.105469 31 19 31.894531 19 33C19 34.105469 18.105469 35 17 35C15.894531 35 15 34.105469 15 33C15 31.894531 15.894531 31 17 31 Z M 30.5 32C31.882813 32 33 33.117188 33 34.5C33 35.882813 31.882813 37 30.5 37C29.117188 37 28 35.882813 28 34.5C28 33.117188 29.117188 32 30.5 32Z" fill="#FFFFFF" />
</svg>