<svg xmlns="http://www.w3.org/2000/svg" viewBox="0 0 50 50">
  <path d="M25 3C15.63 3 8 10.63 8 20L8 26L10 26L10 20C10 11.73 16.73 5 25 5C29.72 5 34.189766 7.2495312 37.009766 11.019531C35.699766 12.709531 34.060625 15.270469 31.890625 18.980469L37.050781 24.169922C38.190781 22.119922 39.149219 20.350547 39.949219 18.810547C39.979219 19.210547 40 19.6 40 20L40 26L42 26L42 20C42 18.9 41.830234 17.050156 41.490234 15.660156C43.484234 11.250156 43.397109 9.1897656 41.787109 8.2597656C40.727109 7.6497656 39.729609 8.1402344 38.349609 9.4902344C35.149609 5.4102344 30.21 3 25 3 z M 17 10C16.4 10 16 10.4 16 11L16 19.099609C14.8 19.499609 12 20.7 12 26L24 26C24 20.8 21.2 19.499609 20 19.099609L20 11C20 10.4 19.6 10 19 10L17 10 z M 40 14C39.65 14.68 39.199297 15.37 38.279297 15.5C37.349297 15.63 37.019141 14.810859 37.369141 14.130859L40 14 z M 28.009766 18L24.46875 20.101562C25.36875 21.431562 26 23.35 26 26L35.988281 26L28.009766 18 z M 37.759766 18C37.419766 18.68 36.959063 19.37 36.039062 19.5C35.119062 19.63 34.790859 18.810859 35.130859 18.130859L37.759766 18 z M 7 28C5.9 28 5 28.9 5 30C5 31.1 5.9 32 7 32L8.0292969 32C8.3892969 38.35 12.120547 44.250391 17.560547 46.900391C17.700547 46.970391 17.85 47 18 47L32 47C32.15 47 32.299453 46.970391 32.439453 46.900391C37.879453 44.250391 41.610703 38.35 41.970703 32L43 32C44.1 32 45 31.1 45 30C45 28.9 44.1 28 43 28L7 28 z M 29 34L36 34C36.55 34 37 34.45 37 35C37 35.55 36.55 36 36 36L29 36C28.45 36 28 35.55 28 35C28 34.45 28.45 34 29 34 z M 16 37L23 37C23.55 37 24 37.45 24 38C24 38.55 23.55 39 23 39L16 39C15.45 39 15 38.55 15 38C15 37.45 15.45 37 16 37 z M 27 41L31 41C31.55 41 32 41.45 32 42C32 42.55 31.55 43 31 43L27 43C26.45 43 26 42.55 26 42C26 41.45 26.45 41 27 41 z" fill="#FFFFFF" />
</svg>