<svg xmlns="http://www.w3.org/2000/svg" viewBox="0 0 50 50">
  <path d="M21.8125 10C21.261719 10.050781 20.855469 10.542969 20.90625 11.09375C20.957031 11.644531 21.449219 12.050781 22 12L24 12L24 13L26 13L26 12L28 12C28.359375 12.003906 28.695313 11.816406 28.878906 11.503906C29.058594 11.191406 29.058594 10.808594 28.878906 10.496094C28.695313 10.183594 28.359375 9.996094 28 10L22 10C21.96875 10 21.9375 10 21.90625 10C21.875 10 21.84375 10 21.8125 10 Z M 25 14C13.542969 14 4.109375 22.804688 3.09375 34L46.90625 34C45.890625 22.804688 36.457031 14 25 14 Z M 2 36C0.898438 36 0 36.898438 0 38L0 42C0 43.101563 0.898438 44 2 44L48 44C49.101563 44 50 43.101563 50 42L50 38C50 36.898438 49.101563 36 48 36Z" fill="#FFFFFF" />
</svg>