<svg xmlns="http://www.w3.org/2000/svg" viewBox="0 0 50 50">
  <path d="M35.869,4c-4.289,0-8.055,1.86-10.891,5.38C22.143,5.86,18.392,4,14.131,4C6.339,4,0,10.367,0,18.193 C0,20.267,0.312,22.193,0.843,24h7.539l1.724-3.447c0.178-0.355,0.557-0.566,0.947-0.552c0.396,0.021,0.744,0.275,0.884,0.647 l1.783,4.755l2.801-13.604C16.616,11.333,17.026,11,17.5,11c0.004,0,0.008,0,0.012,0c0.479,0.006,0.887,0.35,0.972,0.821 l3.363,18.493l3.72-9.674C25.715,20.255,26.086,20,26.5,20c0.001,0,0.003,0,0.004,0c0.416,0.002,0.786,0.26,0.933,0.648l2.289,6.104 l1.427-2.283C31.335,24.178,31.655,24,32,24h5.277c0.346-0.595,0.984-1,1.723-1c1.105,0,2,0.895,2,2c0,1.105-0.895,2-2,2 c-0.738,0-1.376-0.405-1.723-1h-4.723l-2.207,3.53c-0.201,0.322-0.574,0.495-0.947,0.465c-0.379-0.038-0.703-0.288-0.837-0.644 l-2.075-5.535l-4.055,10.543C22.284,34.748,21.911,35,21.5,35c-0.03,0-0.062-0.001-0.094-0.004c-0.446-0.042-0.81-0.376-0.89-0.817 l-3.077-16.924l-2.46,11.946c-0.09,0.437-0.458,0.761-0.901,0.796c-0.46,0.035-0.858-0.229-1.015-0.646l-2.194-5.854l-0.975,1.949 C9.725,25.786,9.379,26,9,26H1.534c3.309,8.105,11.339,13.513,17.589,17.716c2.024,1.36,5.203,4.023,5.235,4.05 c0.172,0.145,0.393,0.213,0.617,0.213c0.259,0,0.522-0.091,0.723-0.258c1.333-1.116,3.159-2.646,5.179-4.004 C38.947,38.289,50,30.857,50,18.193C50,10.367,43.661,4,35.869,4z" fill="#FFFFFF" />
</svg>