<svg xmlns="http://www.w3.org/2000/svg" viewBox="0 0 50 50">
  <path d="M16 4C15.447 4 15 4.447 15 5L15 5.6601562C11.143541 5.3956585 7.4855815 4.9836707 4.1679688 4.4199219C3.6249688 4.3389219 3.1066719 4.6923281 3.0136719 5.2363281C2.9216719 5.7813281 3.2880312 6.297625 3.8320312 6.390625C7.2529382 6.9716379 11.025489 7.3954724 15 7.6640625L15 11.203125L12.693359 11.847656C12.558359 11.883656 9.3881719 12.766547 7.8261719 15.310547C5.6031719 18.930547 2.9257813 23.298828 2.9257812 23.298828C2.6647812 23.727828 2.8071406 24.281063 3.2441406 24.539062L9.3964844 28.171875C9.5464844 28.260875 9.712 28.302734 9.875 28.302734C10.184 28.302734 10.487109 28.15 10.662109 27.875L12.433594 25.359375C13.032594 30.402375 13.429531 37.794734 12.019531 44.802734C11.953531 45.130734 12.056969 45.471031 12.292969 45.707031C13.797969 47.212031 20.0455 48.289063 26.0625 48.289062C31.0415 48.289062 35.862031 47.552031 37.707031 45.707031C37.931031 45.483031 38.036234 45.166516 37.990234 44.853516C36.906234 37.491516 36.755484 31.047141 37.521484 25.244141L39.337891 27.873047C39.512891 28.148047 39.817953 28.300781 40.126953 28.300781C40.289953 28.300781 40.455469 28.258922 40.605469 28.169922L46.757812 24.537109C47.193813 24.280109 47.335219 23.726828 47.074219 23.298828C47.074219 23.298828 44.396828 18.930547 42.173828 15.310547C40.611828 12.766547 37.441641 11.884656 37.306641 11.847656L35 11.203125L35 7.6640625C38.974511 7.3953617 42.747062 6.9721902 46.167969 6.390625C46.711969 6.298625 47.078328 5.7813281 46.986328 5.2363281C46.894328 4.6923281 46.378031 4.3379687 45.832031 4.4179688C42.514419 4.9822628 38.856459 5.3955458 35 5.6601562L35 5C35 4.447 34.553 4 34 4C33.447 4 33 4.447 33 5L33 5.7851562C30.400871 5.9250835 27.724319 6 25 6C22.275681 6 19.599129 5.9250364 17 5.7851562L17 5C17 4.447 16.553 4 16 4 z M 17 7.7871094C19.601977 7.9252198 22.27828 8 25 8C27.72172 8 30.398023 7.9252647 33 7.7871094L33 10.644531L30.814453 10.033203C30.771453 10.022203 30.676547 10 30.560547 10L19.439453 10C19.324453 10 19.228547 10.022203 19.185547 10.033203L17 10.644531L17 7.7871094 z M 19.746094 11.599609L24.988281 11.599609L25 11.599609L30.253906 11.599609C29.771906 12.939609 28.44 15.274297 25 15.279297C21.56 15.274297 20.228094 12.939609 19.746094 11.599609 z" fill="#FFFFFF" />
</svg>