<svg xmlns="http://www.w3.org/2000/svg" viewBox="0 0 50 50">
  <path d="M25 3C21.6875 3 19 5.6875 19 9C19 12.3125 21.6875 15 25 15C28.3125 15 31 12.3125 31 9C31 5.6875 28.3125 3 25 3 Z M 25 17C21.441406 17 16.566406 18.03125 16.566406 18.03125L16.546875 18.046875C15.570313 18.195313 14.753906 18.8125 14.328125 19.664063L14.308594 19.679688L9.601563 28.210938L9.601563 28.214844C9.230469 28.714844 9 29.328125 9 30C9 31.65625 10.34375 33 12 33C12.269531 33 12.527344 32.953125 12.777344 32.886719L12.78125 32.894531L17 31.894531L17 33.878906C17 35.246094 10.042969 39.503906 10.042969 39.503906L10.046875 39.515625C8.785156 40.222656 8.003906 41.554688 8 43C8 45.210938 9.789063 47 12 47L17.761719 47C17.28125 46.285156 17 45.425781 17 44.5C17 42.382813 18.503906 40.53125 20.574219 40.09375L29.78125 38.027344C30.320313 37.90625 30.855469 38.242188 30.972656 38.78125C31.09375 39.320313 30.757813 39.855469 30.21875 39.976563L20.996094 42.050781C19.832031 42.292969 19 43.324219 19 44.5C19 45.878906 20.121094 47 21.5 47L38 47C40.210938 47 42 45.210938 42 43C42 41.574219 41.234375 40.253906 40 39.542969L40.003906 39.527344C40.003906 39.527344 33 35.074219 33 33.796875L33 31.894531L37.21875 32.894531L37.222656 32.886719C37.472656 32.953125 37.730469 33 38 33C39.65625 33 41 31.65625 41 30C41 29.328125 40.769531 28.714844 40.398438 28.214844L40.402344 28.210938L35.691406 19.679688L35.671875 19.664063C35.246094 18.8125 34.429688 18.195313 33.453125 18.046875L33.433594 18.03125C33.433594 18.03125 28.558594 17 25 17 Z M 25 19C25.523438 19 26.730469 19 27.859375 24.234375L33.316406 26.050781C33.839844 26.226563 34.121094 26.792969 33.949219 27.316406C33.808594 27.734375 33.417969 28 33 28C32.894531 28 32.789063 27.980469 32.683594 27.949219L26.683594 25.949219C26.34375 25.835938 26.089844 25.546875 26.019531 25.195313C25.742188 23.816406 25.335938 22.410156 25 21.578125C24.660156 22.410156 24.257813 23.816406 23.980469 25.195313C23.910156 25.546875 23.65625 25.835938 23.316406 25.949219L17.316406 27.949219C16.789063 28.125 16.226563 27.839844 16.050781 27.316406C15.875 26.792969 16.160156 26.226563 16.683594 26.050781L22.136719 24.234375C23.265625 19 24.472656 19 25 19Z" fill="#FFFFFF" />
</svg>