<svg xmlns="http://www.w3.org/2000/svg" viewBox="0 0 50 50">
  <path d="M14.09375 0C10.234375 0 7.09375 3.140625 7.09375 7C7.09375 10.859375 10.234375 14 14.09375 14C17.953125 14 21.09375 10.859375 21.09375 7C21.09375 3.140625 17.953125 0 14.09375 0 Z M 36.78125 0C32.921875 0 29.78125 3.140625 29.78125 7C29.78125 10.859375 32.921875 14 36.78125 14C40.640625 14 43.78125 10.859375 43.78125 7C43.78125 3.140625 40.640625 0 36.78125 0 Z M 29.46875 3.78125C27.628906 4.839844 25.058594 7.066406 24.78125 11.9375C24.765625 12.210938 24.875 12.488281 25.0625 12.6875C25.25 12.886719 25.503906 13 25.78125 13L29.78125 13C30.253906 13 30.648438 12.660156 30.75 12.21875C29.535156 10.816406 28.78125 8.996094 28.78125 7C28.78125 5.855469 29.03125 4.769531 29.46875 3.78125 Z M 44.09375 3.78125C44.53125 4.769531 44.78125 5.855469 44.78125 7C44.78125 8.996094 44.058594 10.816406 42.84375 12.21875C42.945313 12.660156 43.304688 13 43.78125 13L47.78125 13C48.054688 13 48.34375 12.886719 48.53125 12.6875C48.71875 12.488281 48.796875 12.210938 48.78125 11.9375C48.507813 7.066406 45.933594 4.839844 44.09375 3.78125 Z M 33.53125 14.84375C30.804688 14.84375 28.351563 16.519531 27.40625 19L25.28125 24.875C24.644531 22.410156 23.96875 19.75 23.96875 19.75C23.25 16.890625 20.628906 14.90625 17.59375 14.90625L9.53125 14.90625C6.542969 14.90625 3.859375 16.941406 3.15625 19.75C3.15625 19.75 0.0820313 32.066406 0.0625 32.15625C-0.179688 33.363281 0.476563 34.511719 1.65625 34.90625C1.695313 34.921875 1.742188 34.929688 1.78125 34.9375C1.957031 34.972656 2.140625 35 2.3125 35C3.421875 35 4.378906 34.292969 4.59375 33.21875C4.605469 33.160156 7.0625 23.65625 7.0625 23.65625L7.09375 23.65625L7.09375 28L20.09375 28L20.09375 23.65625L20.125 23.65625C20.125 23.65625 22.613281 33.171875 22.625 33.21875C22.820313 34.199219 23.640625 34.855469 24.625 34.96875C24.753906 34.988281 24.875 35 25 35C25.140625 34.996094 25.261719 34.964844 25.40625 34.9375C25.445313 34.929688 25.492188 34.917969 25.53125 34.90625C26.171875 34.761719 26.722656 34.394531 27.0625 33.78125C27.070313 33.769531 27.085938 33.761719 27.09375 33.75C27.125 33.714844 27.15625 33.667969 27.1875 33.625C27.210938 33.59375 27.230469 33.570313 27.25 33.53125C27.277344 33.480469 27.292969 33.425781 27.3125 33.375L30.96875 23.71875C30.96875 23.71875 30.996094 23.71875 31 23.71875C31.035156 23.480469 31.21875 23.3125 31.46875 23.3125C31.742188 23.3125 31.96875 23.535156 31.96875 23.8125C31.96875 23.871094 31.953125 23.917969 31.9375 23.96875L27.5 35.65625C27.382813 35.96875 27.410156 36.289063 27.59375 36.5625C27.785156 36.832031 28.105469 37 28.4375 37L44.15625 37C44.484375 37 44.8125 36.835938 45 36.5625C45.1875 36.289063 45.210938 35.933594 45.09375 35.625L40.65625 23.96875C40.636719 23.917969 40.625 23.839844 40.625 23.78125C40.625 23.503906 40.851563 23.28125 41.125 23.28125C41.375 23.28125 41.585938 23.480469 41.625 23.71875L45.28125 33.375C45.300781 33.425781 45.316406 33.484375 45.34375 33.53125C45.363281 33.566406 45.386719 33.59375 45.40625 33.625C45.4375 33.667969 45.46875 33.714844 45.5 33.75C45.507813 33.761719 45.523438 33.769531 45.53125 33.78125C45.964844 34.558594 46.730469 35 47.59375 35C47.847656 35 48.117188 34.953125 48.375 34.875C49.003906 34.6875 49.507813 34.25 49.78125 33.65625C50.050781 33.070313 50.066406 32.390625 49.8125 31.8125C49.808594 31.800781 49.785156 31.789063 49.78125 31.78125L45.1875 19C44.246094 16.519531 41.789063 14.84375 39.0625 14.84375 Z M 7.09375 29L7.09375 36L20.09375 36L20.09375 29 Z M 7.09375 37L7.09375 47.5C7.09375 48.875 8.21875 50 9.59375 50C10.96875 50 12.09375 48.875 12.09375 47.5L12.09375 37 Z M 15.09375 37L15.09375 47.5C15.09375 48.875 16.21875 50 17.59375 50C18.96875 50 20.09375 48.875 20.09375 47.5L20.09375 37 Z M 31.78125 38L31.78125 48C31.78125 49.101563 32.679688 50 33.78125 50C34.882813 50 35.78125 49.101563 35.78125 48L35.78125 38 Z M 36.78125 38L36.78125 48C36.78125 49.101563 37.679688 50 38.78125 50C39.882813 50 40.78125 49.101563 40.78125 48L40.78125 38Z" fill="#FFFFFF" />
</svg>