<svg xmlns="http://www.w3.org/2000/svg" viewBox="0 0 50 50">
  <path d="M20.5625 13.6875C20.097656 13.6875 19.640625 13.886719 19.25 14.3125C19.101563 14.472656 19.039063 14.667969 18.875 15.03125C17.914063 17.171875 16.261719 20 13 20C10.867188 20 8.699219 19.03125 6.78125 18.1875C5.253906 17.515625 4.039063 17 3 17C2.628906 17 2.296875 17.199219 2.125 17.53125C1.019531 19.648438 0.945313 22.527344 1.03125 25.0625C1.164063 28.925781 1.996094 31.117188 2.03125 31.25C2.148438 31.6875 2.546875 32 3 32L10.8125 31.9375L12.21875 31.96875C16.242188 32.03125 17.925781 33.074219 19.125 33.625C19.800781 33.933594 20.382813 34.222656 20.9375 34.5C23.957031 36.007813 25.957031 37 34 37C47.769531 37 49 36.222656 49 34C49 27.09375 42.519531 25.535156 37.78125 24.40625C36.105469 24.007813 34.5 23.625 33.4375 23.09375C29.550781 21.152344 22.722656 15.175781 21.78125 14.34375C21.542969 14 21.125 13.6875 20.5625 13.6875 Z M 2 33.8125L2 36C2 36.554688 2.449219 37 3 37L14 37C14.550781 37 15 36.554688 15 36L15 34.25C14.25 34.105469 13.332031 33.984375 12.1875 33.96875L10.8125 33.96875L3 34C2.652344 34 2.316406 33.925781 2 33.8125Z" fill="#FFFFFF" />
</svg>