<svg xmlns="http://www.w3.org/2000/svg" viewBox="0 0 50 50">
  <path d="M24 2C11.851563 2 2 11.851563 2 24C2 36.148438 11.851563 46 24 46C27.207031 46 30.25 45.304688 33 44.070313L33 45.25C33 45.65625 33.242188 46.019531 33.617188 46.171875C33.992188 46.328125 34.421875 46.242188 34.707031 45.957031L37.71875 42.941406L40.230469 48.417969C40.460938 48.917969 41.054688 49.136719 41.558594 48.90625L45.417969 47.140625C45.917969 46.910156 46.136719 46.316406 45.90625 45.8125L43.300781 40.125L48 40.125C48.410156 40.125 48.78125 39.875 48.929688 39.492188C49.082031 39.109375 48.984375 38.675781 48.683594 38.394531L43.71875 33.738281C45.171875 30.804688 46 27.5 46 24C46 11.851563 36.148438 2 24 2 Z M 24 4C35.027344 4 44 12.972656 44 24C44 26.960938 43.339844 29.765625 42.179688 32.296875L40.609375 30.824219C41.359375 29.007813 41.835938 27.054688 41.949219 25L33.972656 25C33.964844 25 33.960938 25 33.953125 25C33.421875 25.027344 33 25.464844 33 26L33 35.574219C32.160156 37.75 31.09375 39.605469 29.84375 41.003906C30.953125 40.625 32.003906 40.132813 33 39.550781L33 41.832031C30.292969 43.207031 27.242188 44 24 44C12.972656 44 4 35.027344 4 24C4 12.972656 12.972656 4 24 4 Z M 23 6.125C20.574219 6.691406 18.410156 9.28125 16.941406 13L23 13 Z M 25 6.125L25 13L31.058594 13C29.589844 9.28125 27.425781 6.691406 25 6.125 Z M 18.15625 6.992188C14.808594 8.148438 11.910156 10.257813 9.78125 13L14.769531 13C15.636719 10.5625 16.792969 8.519531 18.15625 6.992188 Z M 29.84375 6.992188C31.207031 8.519531 32.363281 10.5625 33.230469 13L38.21875 13C36.089844 10.257813 33.191406 8.148438 29.84375 6.992188 Z M 8.4375 15C7.054688 17.378906 6.210938 20.097656 6.050781 23L13.027344 23C13.101563 20.117188 13.496094 17.414063 14.152344 15 Z M 16.261719 15C15.550781 17.390625 15.109375 20.113281 15.027344 23L23 23L23 15 Z M 25 15L25 23L32.972656 23C32.890625 20.113281 32.453125 17.390625 31.738281 15 Z M 33.847656 15C34.503906 17.414063 34.898438 20.117188 34.972656 23L41.949219 23C41.789063 20.097656 40.945313 17.378906 39.5625 15 Z M 6.050781 25C6.210938 27.902344 7.054688 30.621094 8.4375 33L14.152344 33C13.496094 30.585938 13.101563 27.882813 13.027344 25 Z M 15.027344 25C15.109375 27.886719 15.546875 30.609375 16.261719 33L23 33L23 25 Z M 25 25L25 33L31.738281 33C32.449219 30.609375 32.890625 27.886719 32.972656 25 Z M 35 28.308594L45.46875 38.125L41.875 38.125C41.71875 38.125 41.566406 38.160156 41.425781 38.230469L41.320313 38.285156C40.839844 38.527344 40.632813 39.105469 40.859375 39.59375L43.671875 45.734375L41.628906 46.671875L38.9375 40.800781C38.804688 40.503906 38.527344 40.292969 38.207031 40.234375C37.882813 40.175781 37.554688 40.28125 37.324219 40.515625L35 42.835938 Z M 9.78125 35C11.910156 37.742188 14.808594 39.851563 18.15625 41.003906C16.792969 39.480469 15.636719 37.4375 14.769531 35 Z M 16.941406 35C18.410156 38.71875 20.574219 41.308594 23 41.875L23 35 Z M 25 35L25 41.875C27.425781 41.308594 29.589844 38.71875 31.058594 35Z" fill="#FFFFFF" />
</svg>