<svg xmlns="http://www.w3.org/2000/svg" viewBox="0 0 50 50">
  <path d="M13 2C12.448 2 12 2.448 12 3L12 7.5722656L6 11L6 12L12 10.285156L12 14L10 16L10 17L13 16L16 17L16 16L14 14L14 10.285156L20 12L20 11L14 7.5722656L14 3C14 2.448 13.552 2 13 2 z M 25 2C21.807 2 18.766 2.6578438 16 3.8398438L16 6.0390625C18.73 4.7370625 21.779 4 25 4C27.45406 4 29.809054 4.4260992 32 5.203125L32 6C31.89 6 31.789688 6.0207813 31.679688 6.0507812L28.679688 7.0507812C28.399687 7.1407813 28.180312 7.3608594 28.070312 7.6308594L27.080078 11.029297C26.880078 11.539297 27.130625 12.130078 27.640625 12.330078L29.619141 12.960938C29.929141 13.080938 30.280391 12.929141 30.400391 12.619141L30.699219 11.849609C30.789219 11.609609 30.740547 11.350156 30.560547 11.160156L29.869141 10.5C29.729141 10.34 29.740391 10.100938 29.900391 9.9609375L30.529297 9.3691406C30.849297 9.0791406 31.340625 9.1001562 31.640625 9.4101562L32.740234 10.570312C32.990234 10.860313 33.069688 11.259141 32.929688 11.619141L31.490234 15.339844C31.360234 15.679844 31.09 15.959375 30.75 16.109375L29.429688 16.679688C28.959687 16.879688 28.629766 17.289297 28.509766 17.779297L28.039062 19.820312C28.019063 19.930313 27.940078 20.030078 27.830078 20.080078L25.740234 21.050781C25.410234 21.160781 25.160078 21.429531 25.080078 21.769531C25.000078 22.109531 25.099609 22.460938 25.349609 22.710938L26.349609 23.710938C26.539609 23.900938 26.790781 24 27.050781 24C27.200781 24 27.36 23.970625 27.5 23.890625L30.980469 20.429688C31.100469 20.319688 31.279922 20.289375 31.419922 20.359375L34.519531 21.880859C34.819531 22.040859 35.190234 22.039141 35.490234 21.869141C35.790234 21.709141 35.98 21.400547 36 21.060547L36 16.390625C36 16.170625 36.170625 16 36.390625 16L37.609375 16C37.889375 16 38.070703 16.279297 37.970703 16.529297L37.029297 18.25C36.959297 18.42 37.000391 18.63 37.150391 18.75L38.25 20.910156C38.43 21.050156 38.679844 21.040859 38.839844 20.880859L39.289062 20.300781C39.609062 19.980781 40.1 19.920625 40.5 20.140625C40.5 20.140625 43.853467 22.053007 45.917969 23.222656C45.967402 23.809257 46 24.400828 46 25C46 25.196311 45.985851 25.388956 45.980469 25.583984L40.470703 22.439453C40.280703 22.329453 40.040625 22.359297 39.890625 22.529297L37.679688 24.880859C37.609688 24.960859 37.500625 25 37.390625 25L32.119141 25C31.799141 25 31.5 25.110547 31.25 25.310547L26.519531 28.099609C26.189531 28.369609 26 28.759453 26 29.189453L26 32.839844C26 33.209844 26.150156 33.560313 26.410156 33.820312L29.179688 36.589844C29.439688 36.849844 29.790156 37 30.160156 37L32.839844 37C33.209844 37 33.560313 36.849844 33.820312 36.589844L35.300781 35.109375C35.370781 35.039375 35.470312 35 35.570312 35L37 35C37.17 35 37.309141 35.109766 37.369141 35.259766L38.009766 37.189453C38.109766 37.479453 38.300547 37.730156 38.560547 37.910156L40.466797 39.183594C38.9234 40.864062 37.110959 42.293353 35.097656 43.402344C35.891656 43.646344 36.670063 43.827922 37.414062 43.919922C37.621063 43.945922 37.807859 43.942078 38.005859 43.955078C44.035859 39.805078 48 32.858 48 25C48 12.318 37.682 2 25 2 z M 7.3554688 13.693359L4.5644531 14.490234C2.9344531 17.643234 2 21.212 2 25C2 37.682 12.318 48 25 48C26.512 48 27.988922 47.849312 29.419922 47.570312C28.438922 47.084313 27.463906 46.535828 26.503906 45.923828C26.005906 45.958828 25.507 46 25 46C21.381874 46 17.974953 45.078704 15 43.460938L15 40.160156L15.949219 37.320312C16.029219 37.060313 16.010625 36.790781 15.890625 36.550781L13.890625 32.550781C13.730625 32.210781 13.38 32 13 32L10.160156 32L7.3203125 31.050781C7.2103125 31.020781 7.11 31 7 31L4.8769531 31C4.6152818 30.123943 4.4077281 29.224266 4.2617188 28.304688L7.5996094 25.800781C7.7796094 25.660781 7.9107031 25.470234 7.9707031 25.240234L8.9707031 21.240234C9.0407031 20.950234 8.9807812 20.640391 8.8007812 20.400391L5.8515625 16.46875C6.2876505 15.504703 6.7865971 14.575691 7.3554688 13.693359 z M 22.990234 13.990234 A 1.0001 1.0001 0 0 0 22.292969 15.707031L23.3125 16.726562L22.552734 17.105469 A 1.0001163 1.0001163 0 1 0 23.447266 18.894531L25.447266 17.894531 A 1.0001 1.0001 0 0 0 25.707031 16.292969L23.707031 14.292969 A 1.0001 1.0001 0 0 0 22.990234 13.990234 z M 13 18.107422L12.007812 18.439453C12.062812 24.177453 14.666938 30.770281 19.210938 36.613281C23.960938 42.719281 30.913828 47.144672 36.923828 47.888672C37.496828 47.959672 38.052844 47.994141 38.589844 47.994141C40.726844 47.994141 42.559172 47.435656 43.951172 46.347656C46.382172 44.447656 47.380094 41.166453 46.871094 37.064453C46.303094 38.089453 45.662078 39.071766 44.955078 40.009766C44.783078 42.087766 44.044703 43.738438 42.720703 44.773438C41.406703 45.801437 39.486922 46.193297 37.169922 45.904297C31.743922 45.232297 25.160062 41.006719 20.789062 35.386719C16.578062 29.972719 14.070813 23.677359 14.007812 18.443359L13 18.107422 z" fill="#FFFFFF" />
</svg>