<svg xmlns="http://www.w3.org/2000/svg" viewBox="0 0 50 50">
  <path d="M25 2C22.09375 2 19.316406 2.546875 16.753906 3.53125C16.78125 4.3125 16.8125 4.945313 16.8125 4.960938C16.839844 5.792969 16.941406 6.976563 17.203125 8.398438C19.929688 7.25 29.136719 4.03125 39.839844 7.445313C35.828125 4.050781 30.648438 2 25 2 Z M 14.785156 4.398438C13.375 5.101563 12.050781 5.945313 10.824219 6.90625C10.8125 7.449219 10.816406 8.128906 10.839844 9.03125C11.050781 22.179688 18.761719 29.445313 21.328125 31.5C22.296875 29.679688 23.167969 27.597656 23.859375 25.238281C16.09375 17.042969 14.9375 8.414063 14.8125 5.042969C14.8125 5.011719 14.800781 4.761719 14.785156 4.398438 Z M 30.046875 7.910156C23.746094 7.890625 19.011719 9.773438 17.644531 10.382813C18.136719 12.261719 18.914063 14.410156 20.113281 16.6875C22.476563 15.722656 34.15625 11.640625 47.136719 19.171875C47.1875 19.203125 47.226563 19.226563 47.277344 19.253906C46.464844 16.113281 45 13.234375 43.042969 10.761719C41.03125 9.902344 39.46875 9.417969 39.441406 9.410156C36.097656 8.320313 32.910156 7.917969 30.046875 7.910156 Z M 8.828125 8.664063C6.640625 10.828125 4.886719 13.433594 3.703125 16.328125C3.980469 18.722656 4.40625 20.542969 4.414063 20.570313C6.71875 31.113281 13.878906 37.09375 16.023438 38.683594C17.429688 37.289063 18.9375 35.496094 20.324219 33.253906C17.753906 31.242188 9.070313 23.398438 8.835938 9.070313C8.832031 8.921875 8.832031 8.800781 8.828125 8.664063 Z M 30.128906 16.714844C25.675781 16.832031 22.386719 17.9375 21.109375 18.4375C22.207031 20.222656 23.597656 22.058594 25.316406 23.871094C36.449219 21.210938 44.574219 24.625 47.570313 26.234375C47.59375 26.25 47.738281 26.324219 47.953125 26.4375C47.980469 25.960938 48 25.484375 48 25C48 23.941406 47.921875 22.898438 47.78125 21.878906C47.351563 21.613281 46.828125 21.296875 46.140625 20.90625C40.203125 17.460938 34.582031 16.59375 30.128906 16.714844 Z M 2.402344 20.734375C2.140625 22.117188 2 23.542969 2 25C2 32.214844 5.339844 38.660156 10.554688 42.878906C11.03125 42.582031 11.464844 42.308594 11.726563 42.140625C12.4375 41.695313 13.417969 41.003906 14.53125 40.058594C11.894531 38.027344 4.804688 31.71875 2.464844 21.015625C2.460938 20.996094 2.4375 20.894531 2.402344 20.734375 Z M 34.46875 24.894531C34.023438 28.074219 31.59375 39.589844 19.277344 46.984375C19.15625 47.058594 19.058594 47.117188 18.945313 47.1875C20.875 47.710938 22.902344 48 25 48C26.070313 48 27.121094 47.921875 28.152344 47.777344C30.078125 46.339844 31.425781 45.070313 31.445313 45.050781C39.445313 37.757813 41.023438 28.542969 41.316406 25.921875C39.398438 25.394531 37.097656 24.980469 34.46875 24.894531 Z M 32.449219 24.90625C30.386719 24.972656 28.15625 25.246094 25.777344 25.816406C22.574219 36.691406 15.660156 42.027344 12.796875 43.828125C12.769531 43.847656 12.574219 43.96875 12.28125 44.15625C13.578125 45.015625 14.96875 45.75 16.429688 46.339844C16.902344 46.078125 17.480469 45.738281 18.238281 45.277344C29.542969 38.488281 31.960938 28.117188 32.449219 24.90625 Z M 43.257813 26.527344C42.824219 29.820313 40.914063 39.128906 32.808594 46.519531C32.792969 46.535156 32.722656 46.597656 32.609375 46.703125C40.472656 43.933594 46.398438 37.015625 47.71875 28.582031C47.28125 28.347656 46.882813 28.136719 46.628906 28C45.859375 27.585938 44.714844 27.042969 43.257813 26.527344Z" fill="#FFFFFF" />
</svg>