<svg xmlns="http://www.w3.org/2000/svg" class="h-hide"><symbol viewBox="0 0 50 50" id="icon-accesorii"><title>icon-accesorii</title> <path d="M25 2C19.488281 2 15 6.488281 15 12L15 14C14.996094 14.359375 15.183594 14.695313 15.496094 14.878906C15.808594 15.058594 16.191406 15.058594 16.503906 14.878906C16.816406 14.695313 17.003906 14.359375 17 14L17 12C17 7.570313 20.570313 4 25 4C29.429688 4 33 7.570313 33 12L33 14C32.996094 14.359375 33.183594 14.695313 33.496094 14.878906C33.808594 15.058594 34.191406 15.058594 34.503906 14.878906C34.816406 14.695313 35.003906 14.359375 35 14L35 12C35 6.488281 30.511719 2 25 2 Z M 16 16C14.894531 16 14 16.894531 14 18L9 18C8.53125 18 8.132813 18.328125 8.03125 18.78125L5.46875 30.0625C5.328125 30.671875 5.675781 31.277344 6.28125 31.4375C9.386719 32.253906 16.945313 34 25 34C33.0625 34 40.617188 32.253906 43.71875 31.4375C44.324219 31.277344 44.671875 30.671875 44.53125 30.0625L41.96875 18.78125C41.867188 18.324219 41.46875 18 41 18L36 18C36 16.894531 35.105469 16 34 16C32.894531 16 32 16.894531 32 18L18 18C18 16.894531 17.105469 16 16 16 Z M 5.84375 33.40625L4 45.84375C3.957031 46.128906 4.058594 46.433594 4.25 46.65625C4.441406 46.875 4.710938 47 5 47L8 47L8 48L11 48L11 47L39 47L39 48L42 48L42 47L45 47C45.289063 47 45.558594 46.875 45.75 46.65625C45.941406 46.433594 46.042969 46.128906 46 45.84375L44.15625 33.40625C41.285156 34.164063 35 35.613281 27.84375 35.9375C27.449219 37.136719 26.332031 38 25 38C23.667969 38 22.550781 37.136719 22.15625 35.9375C15 35.613281 8.714844 34.164063 5.84375 33.40625Z" fill="#FFFFFF"/> </symbol><symbol viewBox="0 0 50 50" id="icon-agricultura"><title>icon-agricultura</title> <path d="M5.96875 5C4.332031 5 3 6.355469 3 8L3 24.40625C2.605469 24.679688 2.214844 24.96875 1.84375 25.28125C1.398438 25.65625 1.34375 26.335938 1.71875 26.78125C2.09375 27.226563 2.773438 27.277344 3.21875 26.90625C5.757813 24.769531 8.964844 23.59375 12.28125 23.59375C20.066406 23.59375 26.40625 29.933594 26.40625 37.71875C26.40625 38.300781 26.886719 38.75 27.46875 38.75C28.050781 38.75 28.5 38.300781 28.5 37.71875C28.5 37.480469 28.480469 37.238281 28.46875 37L42.96875 37C44.484375 37 46.429688 35.605469 46.96875 34.125L49.875 26.1875C50.125 25.5 50.035156 24.804688 49.625 24.21875C49.109375 23.484375 48.105469 23 47.0625 23L28.78125 23L24.65625 7.78125C24.292969 6.066406 23.140625 5 21.6875 5 Z M 41 9.9375C36.585938 9.9375 33.9375 12.503906 33.9375 16.8125L33.9375 21L40.0625 21L40.0625 17C40.0625 14.65625 40.746094 14.089844 40.9375 14.0625C41.226563 14.082031 41.503906 13.980469 41.71875 13.78125C41.933594 13.582031 42.0625 13.292969 42.0625 13L42.0625 11C42.0625 10.417969 41.582031 9.9375 41 9.9375 Z M 8 10L20.46875 10L22.90625 19L8 19 Z M 12 26C5.382813 26 0 31.382813 0 38C0 44.617188 5.382813 50 12 50C18.617188 50 24 44.617188 24 38C24 31.382813 18.617188 26 12 26 Z M 12 33.5C14.480469 33.5 16.5 35.519531 16.5 38C16.5 40.480469 14.480469 42.5 12 42.5C9.519531 42.5 7.5 40.480469 7.5 38C7.5 35.519531 9.519531 33.5 12 33.5 Z M 45.96875 38.09375C45.023438 38.65625 43.960938 39 42.96875 39L41.625 39C42.464844 39.734375 43 40.800781 43 42C43 44.203125 41.203125 46 39 46C36.796875 46 35 44.203125 35 42C35 40.800781 35.535156 39.734375 36.375 39L31.59375 39C31.210938 39.9375 31 40.949219 31 42C31 46.410156 34.589844 50 39 50C43.410156 50 47 46.410156 47 42C47 40.609375 46.636719 39.277344 45.96875 38.09375Z" fill="#FFFFFF"/> </symbol><symbol viewBox="0 0 50 50" id="icon-alimente"><title>icon-alimente</title> <path d="M17.902344 4C16.800781 4 16.800781 5.699219 17.699219 6C18.300781 6.199219 21 8 21 8L21 16.800781C21.699219 17.300781 24.800781 18 30 18C35.101563 18 38.199219 17.199219 39 16.800781L39 13.4375L39.394531 12.644531C39.78125 11.875 40.523438 11.175781 41.28125 10.699219C42.039063 10.21875 42.898438 10 43 10C44.167969 10 44.789063 10.496094 45.277344 11.28125C45.765625 12.0625 46 13.167969 46 14C46 14.867188 45.730469 18.140625 45.085938 19.59375C44.378906 21.191406 43.597656 22.828125 42.867188 24.328125C42.53125 22.039063 41.5 20.054688 39.800781 18.597656C37.300781 19.898438 32 20 30 20C28 20 22.699219 19.898438 20.199219 18.597656C18.097656 20.398438 17 22.902344 16.902344 25.902344C17.402344 25.699219 17.898438 25.597656 18.5 25.597656C20.101563 25.597656 21.300781 26.5 22.199219 27.402344C22.597656 27.199219 23 27 23.402344 27L23.597656 27C26 27 27.5 29 28 29.699219C28.199219 29.898438 28.300781 30.199219 28.5 30.402344C30.398438 31.101563 31.898438 32.300781 33.097656 33.902344C34.398438 35.601563 35.097656 37.597656 35.199219 39.597656L35.199219 40.097656L38 40.097656C38 40.019531 41.214844 34.597656 42.488281 29.5625C42.648438 29.25 45.054688 24.609375 46.914063 20.40625C47.867188 18.257813 48 15.132813 48 14C48 12.832031 47.734375 11.4375 46.972656 10.21875C46.210938 9.003906 44.832031 8 43 8C42.101563 8 41.210938 8.382813 40.21875 9.003906C39.804688 9.265625 39.390625 9.585938 39 9.949219L39 8L40.199219 5.199219C40.398438 4.597656 39.800781 4 39 4 Z M 18.359375 27.550781C17.984375 27.582031 17.59375 27.71875 17.199219 28C17.097656 28.199219 17 28.398438 17 28.699219C17 29 17.199219 29.199219 17.199219 29.097656C17.699219 29.300781 18.199219 29.699219 18.597656 30.300781C19.898438 32.101563 20.699219 35 20.402344 36.5C20.300781 37.101563 20.101563 37.199219 20 37.199219C19.898438 37.199219 19.699219 37 19.5 36.800781C18.898438 36.101563 18.300781 34.597656 17.699219 33.097656C16.898438 31.300781 16.199219 29.601563 15.5 29C14.898438 28.398438 13 26.800781 11.199219 28.800781C11 29 11 29.199219 11 29.5C11.101563 29.699219 11.199219 29.898438 11.402344 30C11.902344 30.300781 12.402344 30.699219 12.902344 31.300781C14.101563 32.800781 14.699219 35.097656 14.5 36.097656C14.398438 36.398438 14.300781 36.5 14.199219 36.5C14.199219 36.5 14 36.5 13.5 35.902344C12.898438 35.101563 12.101563 33.5 11.5 32.402344C11.101563 31.601563 10.800781 31.101563 10.597656 30.800781C10.398438 30.5 10.199219 30.398438 10 30.5C8.699219 30.898438 3.601563 34 4 40C4.101563 40.800781 4.300781 41.5 4.800781 42.097656C6.601563 44.398438 10.699219 45.699219 19.402344 46C26.101563 46.300781 31.5 44 32.902344 41.597656C33.300781 41 33.402344 40.398438 33.402344 39.699219C33.199219 38 32.597656 36.398438 31.597656 35C30.5 33.601563 29 32.5 27.300781 32C27.300781 31.898438 27.101563 31.699219 26.902344 31.402344C26.699219 31.199219 26.601563 31 26.402344 30.800781C25.699219 29.902344 24.800781 28.800781 23.5 28.902344C23.300781 28.902344 23.097656 29.101563 23.097656 29.402344C23.097656 29.699219 23.199219 30 23.402344 30.199219C23.5 30.199219 23.601563 30.398438 23.800781 30.597656C24.902344 32.199219 26.300781 35.5 26 36.699219C26 36.800781 25.898438 37 25.597656 37C25.398438 37 25.101563 36.800781 24.902344 36.5C24.402344 35.699219 23.800781 34.300781 23.300781 33C22.800781 31.699219 22.402344 30.601563 21.902344 30C21.414063 29.269531 20 27.414063 18.359375 27.550781Z" fill="#FFFFFF"/> </symbol><symbol viewBox="0 0 50 50" id="icon-amenajare-si-constructii"><title>icon-amenajare-si-constructii</title> <path d="M38.5625 -0.09375C34.761719 -0.0195313 30.148438 2.351563 28 4.5C25.269531 7.230469 25.03125 10.980469 27.3125 14.875L23.75 18.4375L25.03125 19.6875C25.703125 19.125 26.570313 18.8125 27.5 18.8125C28.535156 18.8125 29.527344 19.1875 30.21875 19.875L30.90625 20.59375C31.816406 21.503906 32.207031 22.789063 31.96875 24.03125L32.65625 24.75C32.78125 24.75 32.90625 24.773438 33.03125 24.78125L35.15625 22.65625C36.945313 23.617188 38.667969 24.09375 40.25 24.09375C42.199219 24.09375 43.953125 23.359375 45.40625 21.90625C48.09375 19.21875 51.019531 12.953125 49.65625 8.875C49.546875 8.546875 49.277344 8.296875 48.9375 8.21875C48.597656 8.136719 48.246094 8.253906 48 8.5L42.6875 13.78125C42.363281 14.105469 41.753906 14.085938 41.40625 13.78125L36.09375 8.5C35.769531 8.175781 35.789063 7.570313 36.09375 7.21875L41.40625 1.90625C41.648438 1.664063 41.765625 1.304688 41.6875 0.96875C41.609375 0.632813 41.355469 0.363281 41.03125 0.25C40.28125 -0.0078125 39.441406 -0.109375 38.5625 -0.09375 Z M 2.5 0L0 2.5L4.1875 9.8125L6.90625 9.40625L22.5 25L21.3125 26.1875C20.621094 26.878906 20.621094 28.121094 21.3125 28.8125L22 29.5C22.492188 29.988281 23.320313 30.152344 23.96875 29.90625L24.59375 29.6875L26.78125 31.875L26.71875 32.34375C26.605469 33.40625 27.023438 34.523438 27.8125 35.3125L40.9375 48.46875C41.953125 49.484375 43.285156 50.03125 44.6875 50.03125C46.089844 50.03125 47.441406 49.464844 48.46875 48.4375C50.472656 46.339844 50.488281 42.988281 48.46875 40.96875L35.3125 27.8125C34.566406 27.066406 33.496094 26.671875 32.34375 26.75L31.875 26.78125L29.6875 24.59375L29.90625 23.96875C30.171875 23.285156 30.015625 22.515625 29.5 22L28.8125 21.3125C28.179688 20.679688 26.820313 20.679688 26.1875 21.3125L25 22.5L9.40625 6.90625L9.8125 4.1875 Z M 18.4375 23.75L12.375 29.8125C11.683594 29.675781 11.003906 29.59375 10.3125 29.59375C4.6875 29.59375 0.09375 34.1875 0.09375 39.8125C0.09375 45.4375 4.6875 50 10.3125 50C15.9375 50 20.5 45.4375 20.5 39.8125C20.5 38.964844 20.429688 38.230469 20.25 37.5625L24.71875 33.09375C24.707031 32.941406 24.683594 32.777344 24.6875 32.625L24.03125 31.96875C22.808594 32.199219 21.472656 31.785156 20.59375 30.90625L19.875 30.21875C18.476563 28.820313 18.429688 26.519531 19.6875 25.03125 Z M 31.71875 30.28125L43.71875 42.28125L42.28125 43.71875L30.28125 31.71875 Z M 11.5 35L15 38.5L13.8125 43.1875L9 44.5L5.5 41L6.8125 36.3125Z" fill="#FFFFFF"/> </symbol><symbol viewBox="0 0 50 50" id="icon-animale"><title>icon-animale</title> <path d="M9 3C5.27 3 1 9.39 1 12C1 14.09 2.7800781 15.829844 4.8300781 16.589844C4.9400781 16.419844 5.0594531 16.249844 5.1894531 16.089844C5.0594531 15.389844 5 14.69 5 14C5 9.54 7.4405469 5.6400781 11.060547 3.5800781C10.460547 3.2100781 9.75 3 9 3 z M 25 3C24.25 3 23.539453 3.2100781 22.939453 3.5800781C26.559453 5.6400781 29 9.54 29 14C29 14.69 28.940547 15.389844 28.810547 16.089844C28.940547 16.249844 29.059922 16.419844 29.169922 16.589844C31.219922 15.829844 33 14.09 33 12C33 9.39 28.73 3 25 3 z M 17 4C11.48 4 7 8.48 7 14C7 14.91 7.129375 15.790859 7.359375 16.630859C5.899375 18.160859 5 20.22 5 22.5C5 27.19 8.81 31 13.5 31L16 31L16 24.710938C14.83 24.050937 14 22.43 14 22C14 21.45 15.34 21 17 21C18.66 21 20 21.45 20 22C20 22.43 19.17 24.050938 18 24.710938L18 31L20.5 31C25.19 31 29 27.19 29 22.5C29 20.22 28.100625 18.160859 26.640625 16.630859C26.870625 15.790859 27 14.91 27 14C27 8.48 22.52 4 17 4 z M 13.5 15C14.33 15 15 15.67 15 16.5C15 17.33 14.33 18 13.5 18C12.67 18 12 17.33 12 16.5C12 15.67 12.67 15 13.5 15 z M 20.5 15C21.33 15 22 15.67 22 16.5C22 17.33 21.33 18 20.5 18C19.67 18 19 17.33 19 16.5C19 15.67 19.67 15 20.5 15 z M 44.109375 21.009766C43.849375 20.979766 43.580859 21.050703 43.380859 21.220703L38.820312 24.859375C37.880313 24.549375 35.84 24 33 24C32.23 24 31.530859 24.039375 30.880859 24.109375C30.100859 29.139375 25.74 33 20.5 33L18.990234 33C18.500234 34.55 18.03 36.840234 18 39.990234C18 40.170234 18.050625 40.35 18.140625 40.5C18.290625 40.77 22.06 47 33 47C43.94 47 47.709375 40.77 47.859375 40.5C47.949375 40.35 48 40.170234 48 39.990234C47.96 35.060234 46.829219 32.240547 46.199219 31.060547C46.569219 30.450547 47 29.44 47 28C47 24.19 44.869297 21.490859 44.779297 21.380859C44.619297 21.170859 44.369375 21.039766 44.109375 21.009766 z M 29.5 33C30.33 33 31 33.67 31 34.5C31 35.33 30.33 36 29.5 36C28.67 36 28 35.33 28 34.5C28 33.67 28.67 33 29.5 33 z M 36.5 33C37.33 33 38 33.67 38 34.5C38 35.33 37.33 36 36.5 36C35.67 36 35 35.33 35 34.5C35 33.67 35.67 33 36.5 33 z M 33 37C34.66 37 36 37.45 36 38C36 38.35 35.210859 39.440937 34.380859 40.210938C34.730859 40.590938 35.28 41 36 41L36 43C34.64 43 33.64 42.320156 33 41.660156C32.36 42.320156 31.36 43 30 43L30 41C30.72 41 31.269141 40.590937 31.619141 40.210938C30.789141 39.440937 30 38.35 30 38C30 37.45 31.34 37 33 37 z" fill="#FFFFFF"/> </symbol><symbol viewBox="0 0 50 50" id="icon-arta"><title>icon-arta</title> <path d="M26.300781 0C15.550781 0 3 6.207031 3 23.699219C3 36.402344 12.804688 50 27.398438 50C27.40625 50 27.609375 50 27.617188 50C33.101563 49.898438 39 46.355469 39 38.800781C39 37.355469 38.464844 36.101563 37.988281 34.996094C37.863281 34.707031 37.742188 34.421875 37.628906 34.132813C36.550781 31.414063 37.742188 30.417969 40.539063 28.425781C43.714844 26.167969 48.058594 23.074219 48 14.898438C48 10.039063 42.695313 0 26.300781 0 Z M 26.5 6C28.433594 6 30 8.015625 30 10.5C30 12.984375 28.433594 15 26.5 15C24.566406 15 23 12.984375 23 10.5C23 8.015625 24.566406 6 26.5 6 Z M 14.5 33C12.566406 33 11 30.984375 11 28.5C11 26.015625 12.566406 24 14.5 24C16.433594 24 18 26.015625 18 28.5C18 30.984375 16.433594 33 14.5 33 Z M 15.5 20C13.566406 20 12 17.984375 12 15.5C12 13.015625 13.566406 11 15.5 11C17.433594 11 19 13.015625 19 15.5C19 17.984375 17.433594 20 15.5 20 Z M 27 43C24.757813 43 23 41.242188 23 39C23 36.757813 24.757813 35 27 35C29.242188 35 31 36.757813 31 39C31 41.242188 29.242188 43 27 43 Z M 37.5 20C35.566406 20 34 17.984375 34 15.5C34 13.015625 35.566406 11 37.5 11C39.433594 11 41 13.015625 41 15.5C41 17.984375 39.433594 20 37.5 20Z" fill="#FFFFFF"/> </symbol><symbol viewBox="0 0 50 50" id="icon-auto"><title>icon-auto</title> <path d="M25 8C18.402344 8 15.992188 8.863281 15.53125 9.0625C13.980469 9.589844 11.683594 10.378906 10.6875 12.3125C10.011719 13.628906 5.566406 25.46875 5.0625 26.8125L5 27L5 39C5 40.652344 6.347656 42 8 42L12 42C13.652344 42 15 40.652344 15 39L15 38L35 38L35 39C35 40.652344 36.347656 42 38 42L42 42C43.652344 42 45 40.652344 45 39L45 27L44.9375 26.8125C44.832031 26.53125 43.410156 22.816406 42 19.1875C41.984375 19.15625 41.980469 19.125 41.96875 19.09375C40.796875 16.078125 39.648438 13.152344 39.28125 12.3125C38.441406 10.410156 36.128906 9.546875 34.4375 9.0625C33.917969 8.847656 31.480469 8 25 8 Z M 25 10C31.550781 10 33.648438 10.902344 33.65625 10.90625L33.8125 10.96875C34.566406 11.183594 36.871094 11.835938 37.4375 13.125C37.773438 13.886719 38.808594 16.546875 39.90625 19.375L40 19.5625C40.015625 19.601563 40.011719 19.640625 40.03125 19.6875C40.058594 19.757813 40.097656 19.835938 40.125 19.90625C40.371094 20.550781 40.640625 21.511719 40.25 22.09375C39.847656 22.6875 38.703125 23 37 23L13 23C11.296875 23 10.085938 22.597656 9.6875 22C9.21875 21.304688 9.726563 20.0625 9.96875 19.46875L10.0625 19.28125C11.222656 16.253906 12.21875 13.734375 12.46875 13.25C13.105469 12.015625 14.972656 11.359375 16.21875 10.9375L16.3125 10.90625C16.332031 10.898438 18.449219 10 25 10 Z M 5.09375 19C2.070313 19 1 20.859375 1 22.59375C1 23.4375 1.378906 24.796875 3.625 24.96875C4.253906 23.300781 5.0625 21.128906 5.875 19 Z M 44.0625 19C44.96875 21.339844 45.863281 23.640625 46.375 24.96875C48.628906 24.800781 49 23.441406 49 22.59375C49 20.859375 47.929688 19 44.90625 19 Z M 11 27L15 27C16.65625 27 18 28.34375 18 30C18 31.65625 16.65625 33 15 33C13.324219 33 12.828125 32.574219 11.09375 31.59375C9.933594 30.9375 9 30.308594 9 29C9 27.894531 9.894531 27 11 27 Z M 35 27L39 27C40.105469 27 41 27.894531 41 29C41 30.308594 40.066406 30.9375 38.90625 31.59375C37.175781 32.574219 36.675781 33 35 33C33.34375 33 32 31.65625 32 30C32 28.34375 33.34375 27 35 27Z" fill="#FFFFFF"/> </symbol><symbol viewBox="0 0 50 50" id="icon-bauturi"><title>icon-bauturi</title> <path d="M47.15625 0C47.027344 -0.0195313 46.882813 -0.00390625 46.75 0.03125L38.75 2.03125C38.46875 2.101563 38.226563 2.300781 38.09375 2.5625L34.0625 10.59375L31.6875 15.34375L29.09375 20.5625C28.847656 21.054688 29.070313 21.660156 29.5625 21.90625C29.707031 21.976563 29.851563 22 30 22C30.367188 22 30.730469 21.789063 30.90625 21.4375L33.71875 15.78125C33.773438 15.792969 33.851563 15.800781 33.90625 15.8125C37.972656 16.964844 40.5625 18.976563 40.5625 21C40.5625 21.015625 40.59375 21.019531 40.59375 21.03125L40.5625 21.09375C42.945313 20 44.640625 18.671875 44.9375 17.375C44.503906 14.679688 41.269531 12.371094 36.09375 11.0625L39.6875 3.84375L47.25 1.96875C47.785156 1.835938 48.105469 1.285156 47.96875 0.75C47.867188 0.347656 47.539063 0.0585938 47.15625 0 Z M 12.5 5C6.75 5 2 9.75 2 15.5C2 19.515625 4.25 22.925781 7.53125 24.75C7.21875 26.609375 7 28.503906 7 30C7 41.027344 15.972656 50 27 50C38.027344 50 47 41.027344 47 30C47 26.742188 46.164063 22.632813 45.5625 20.09375C44.214844 21.523438 42.027344 22.796875 39.40625 23.78125C39.367188 30.835938 36.917969 36.75 36.8125 37C36.652344 37.382813 36.296875 37.59375 35.90625 37.59375C35.777344 37.59375 35.65625 37.585938 35.53125 37.53125C35.019531 37.320313 34.757813 36.730469 34.96875 36.21875C34.992188 36.164063 37.171875 30.828125 37.375 24.4375C34.105469 25.417969 30.421875 26 27 26C19.941406 26 11.746094 23.558594 8.46875 20.125C8.300781 20.867188 8.089844 21.757813 7.90625 22.6875C5.542969 21.132813 4 18.527344 4 15.5C4 10.851563 7.851563 7 12.5 7C17.148438 7 21 10.851563 21 15.5C21 16.265625 20.757813 16.910156 20.59375 17.59375L13.53125 13.1875C13.179688 12.976563 12.734375 13.003906 12.40625 13.25C12.398438 13.253906 12.382813 13.246094 12.375 13.25C12.351563 13.269531 12.332031 13.289063 12.3125 13.3125C10.433594 14.480469 9.300781 15.910156 9.0625 17.40625C9.386719 18.703125 11.097656 20 13.40625 21.0625C13.382813 21.050781 13.378906 21.046875 13.46875 21.09375C13.472656 21.066406 13.5 21.03125 13.5 21C13.5 19.757813 14.800781 18.003906 16.0625 17.53125C16.191406 17.484375 16.28125 17.402344 16.375 17.3125L20.78125 20.0625C21.027344 20.214844 21.324219 20.253906 21.597656 20.167969C21.875 20.085938 22.101563 19.886719 22.21875 19.625C22.800781 18.347656 23 16.902344 23 15.5C23 15.394531 22.972656 15.292969 22.96875 15.1875C24.128906 15 25.417969 14.9375 27 14.9375C27.898438 14.9375 28.742188 14.9375 29.59375 15.03125C29.597656 15.03125 29.621094 15.03125 29.625 15.03125L31.96875 10.3125C31.703125 10.285156 31.386719 10.269531 30.96875 10.21875C29.679688 10.0625 28.335938 10 27 10C24.90625 10 23.144531 10.128906 21.625 10.375C19.8125 7.1875 16.390625 5 12.5 5Z" fill="#FFFFFF"/> </symbol><symbol viewBox="0 0 50 50" id="icon-bijuterii"><title>icon-bijuterii</title> <path d="M3.125 23.160156L8.183594 14.480469C8.230469 14.394531 8.292969 14.316406 8.363281 14.253906L17.441406 5.792969C17.539063 5.703125 17.65625 5.632813 17.78125 5.585938L25.578125 2.722656L32.152344 7.316406L28.878906 17.722656L16.597656 29.132813L6.582031 31.378906 Z M 7.296875 33.269531L11.96875 46.628906L15.8125 31.355469 Z M 42.484375 2.875L35.074219 6.992188L47.355469 15.910156C47.613281 14.761719 47.914063 13.195313 47.984375 11.863281C47.980469 11.847656 47.980469 11.828125 47.980469 11.808594C48.019531 9.910156 47.707031 7.925781 46.675781 6.210938C45.75 4.667969 44.359375 3.539063 42.535156 2.828125C42.519531 2.84375 42.507813 2.863281 42.484375 2.875 Z M 34.375 35.578125L29.296875 20.058594L18.988281 29.644531 Z M 31.144531 19.269531L36.1875 34.679688C40.132813 30.386719 44.171875 25.246094 46.476563 18.925781 Z M 45.382813 16.949219L33.851563 8.578125L31.117188 17.269531 Z M 5.761719 34.9375L2.335938 40.816406C3.507813 46.242188 7.566406 47.457031 10.242188 47.753906 Z M 4.878906 32.484375L2 25.644531L2 37.421875 Z M 39.921875 2.011719C39.90625 2.007813 39.890625 2 39.871094 2L28.039063 2L33.3125 5.6875 Z M 17.875 31.355469L13.777344 47.632813C22.109375 46.40625 28.359375 41.929688 33.425781 37.355469 Z M 44.546875 45.648438C44.3125 45.648438 44.074219 45.566406 43.882813 45.398438L35.617188 38.058594C31.984375 41.429688 27.742188 44.855469 22.519531 47.164063L44.5625 45.667969C44.691406 45.660156 44.8125 45.621094 44.925781 45.570313C44.804688 45.621094 44.675781 45.648438 44.546875 45.648438 Z M 37.0625 36.667969L45.210938 43.902344C45.382813 44.054688 45.472656 44.253906 45.511719 44.460938L47.195313 22.414063C44.582031 28.078125 40.742188 32.730469 37.0625 36.667969Z" fill="#FFFFFF"/> </symbol><symbol viewBox="0 0 50 50" id="icon-cadouri"><title>icon-cadouri</title> <path d="M25 3C15.63 3 8 10.63 8 20L8 26L10 26L10 20C10 11.73 16.73 5 25 5C29.72 5 34.189766 7.2495312 37.009766 11.019531C35.699766 12.709531 34.060625 15.270469 31.890625 18.980469L37.050781 24.169922C38.190781 22.119922 39.149219 20.350547 39.949219 18.810547C39.979219 19.210547 40 19.6 40 20L40 26L42 26L42 20C42 18.9 41.830234 17.050156 41.490234 15.660156C43.484234 11.250156 43.397109 9.1897656 41.787109 8.2597656C40.727109 7.6497656 39.729609 8.1402344 38.349609 9.4902344C35.149609 5.4102344 30.21 3 25 3 z M 17 10C16.4 10 16 10.4 16 11L16 19.099609C14.8 19.499609 12 20.7 12 26L24 26C24 20.8 21.2 19.499609 20 19.099609L20 11C20 10.4 19.6 10 19 10L17 10 z M 40 14C39.65 14.68 39.199297 15.37 38.279297 15.5C37.349297 15.63 37.019141 14.810859 37.369141 14.130859L40 14 z M 28.009766 18L24.46875 20.101562C25.36875 21.431562 26 23.35 26 26L35.988281 26L28.009766 18 z M 37.759766 18C37.419766 18.68 36.959063 19.37 36.039062 19.5C35.119062 19.63 34.790859 18.810859 35.130859 18.130859L37.759766 18 z M 7 28C5.9 28 5 28.9 5 30C5 31.1 5.9 32 7 32L8.0292969 32C8.3892969 38.35 12.120547 44.250391 17.560547 46.900391C17.700547 46.970391 17.85 47 18 47L32 47C32.15 47 32.299453 46.970391 32.439453 46.900391C37.879453 44.250391 41.610703 38.35 41.970703 32L43 32C44.1 32 45 31.1 45 30C45 28.9 44.1 28 43 28L7 28 z M 29 34L36 34C36.55 34 37 34.45 37 35C37 35.55 36.55 36 36 36L29 36C28.45 36 28 35.55 28 35C28 34.45 28.45 34 29 34 z M 16 37L23 37C23.55 37 24 37.45 24 38C24 38.55 23.55 39 23 39L16 39C15.45 39 15 38.55 15 38C15 37.45 15.45 37 16 37 z M 27 41L31 41C31.55 41 32 41.45 32 42C32 42.55 31.55 43 31 43L27 43C26.45 43 26 42.55 26 42C26 41.45 26.45 41 27 41 z" fill="#FFFFFF"/> </symbol><symbol viewBox="0 0 50 50" id="icon-carti-si-publicatii"><title>icon-carti-si-publicatii</title> <path d="M5.101563 3C3.941406 3 3 3.941406 3 5.101563L3 44.902344C3 46.058594 3.941406 47 5.101563 47L15 47C16.105469 47 17 46.105469 17 45L17 5.101563C17 3.941406 16.058594 3 14.902344 3 Z M 35.097656 3C33.941406 3 33 3.941406 33 5.101563L33 45C33 46.105469 33.894531 47 35 47L45 47C46.105469 47 47 46.105469 47 45L47 5.101563C47 3.941406 46.058594 3 44.902344 3 Z M 6 11L14 11C14.554688 11 15 11.449219 15 12C15 12.550781 14.554688 13 14 13L6 13C5.445313 13 5 12.550781 5 12C5 11.449219 5.445313 11 6 11 Z M 36 11L44 11C44.554688 11 45 11.449219 45 12C45 12.550781 44.554688 13 44 13L36 13C35.445313 13 35 12.550781 35 12C35 11.449219 35.445313 11 36 11 Z M 20 12C18.894531 12 18 12.894531 18 14L18 45C18 46.105469 18.894531 47 20 47L30 47C31.105469 47 32 46.105469 32 45L32 14C32 12.894531 31.105469 12 30 12 Z M 21 20L29 20C29.554688 20 30 20.449219 30 21C30 21.550781 29.554688 22 29 22L21 22C20.445313 22 20 21.550781 20 21C20 20.449219 20.445313 20 21 20 Z M 6 34L14 34C14.554688 34 15 34.449219 15 35C15 35.550781 14.554688 36 14 36L6 36C5.445313 36 5 35.550781 5 35C5 34.449219 5.445313 34 6 34 Z M 36 34L44 34C44.554688 34 45 34.449219 45 35C45 35.550781 44.554688 36 44 36L36 36C35.445313 36 35 35.550781 35 35C35 34.449219 35.445313 34 36 34 Z M 6 38L14 38C14.554688 38 15 38.449219 15 39C15 39.550781 14.554688 40 14 40L6 40C5.445313 40 5 39.550781 5 39C5 38.449219 5.445313 38 6 38 Z M 36 38L44 38C44.554688 38 45 38.449219 45 39C45 39.550781 44.554688 40 44 40L36 40C35.445313 40 35 39.550781 35 39C35 38.449219 35.445313 38 36 38 Z M 21 39L29 39C29.554688 39 30 39.449219 30 40C30 40.550781 29.554688 41 29 41L21 41C20.445313 41 20 40.550781 20 40C20 39.449219 20.445313 39 21 39Z" fill="#FFFFFF"/> </symbol><symbol viewBox="0 0 50 50" id="icon-casa-si-gradina"><title>icon-casa-si-gradina</title> <path d="M30.78125 0C30.605469 0.0195313 30.425781 0.078125 30.28125 0.1875C29.992188 0.40625 29.855469 0.765625 29.90625 1.125C30.109375 2.589844 29.09375 4.101563 27.9375 5.84375C26.230469 8.414063 24.117188 11.617188 24.9375 16.21875C25.578125 19.792969 28.113281 21.9375 31.75 21.9375C32.640625 21.9375 33.527344 21.796875 34.3125 21.5625C35.585938 15.578125 34.8125 11.582031 33.09375 7.28125C32.890625 6.769531 33.144531 6.203125 33.65625 6C34.167969 5.796875 34.765625 6.046875 34.96875 6.5625C36.703125 10.90625 37.550781 15.097656 36.4375 21.09375C36.941406 21.304688 37.523438 21.4375 38.1875 21.4375C39.507813 21.4375 40.8125 20.859375 42.03125 19.71875C43.234375 18.59375 44.425781 16.128906 43.875 12.84375C43.394531 9.96875 41.140625 4.492188 31.3125 0.09375C31.148438 0.0195313 30.957031 -0.0195313 30.78125 0 Z M 36.4375 21.09375C36.257813 21.019531 36.09375 20.929688 35.9375 20.84375C35.496094 21.128906 34.925781 21.378906 34.3125 21.5625C34.035156 22.871094 33.640625 24.289063 33.15625 25.8125C32.984375 25.808594 32.785156 25.78125 32.65625 25.78125C31.703125 25.789063 30.398438 26.394531 29.53125 27.34375C28.832031 26.96875 27.949219 26.777344 27.03125 26.875C25.808594 27 24.808594 27.582031 24.21875 28.5C23.335938 28.414063 22.507813 28.574219 21.8125 28.9375C22.199219 29.300781 22.515625 29.644531 22.78125 29.9375C22.964844 30.136719 23.21875 30.417969 23.28125 30.46875C24.019531 30.914063 28.0625 32 30 32C30.011719 32 30.023438 32 30.03125 32C32.421875 32.046875 34.398438 32.789063 35.5625 33.9375L41.21875 30.125L41.25 30.09375L41.3125 30.0625C41.816406 29.765625 42.304688 29.53125 42.78125 29.3125C42.476563 28.933594 42.128906 28.574219 41.71875 28.3125C40.550781 27.5625 39.089844 27.433594 37.5625 27.90625C36.917969 26.890625 36.035156 26.375 35.15625 26.09375C35.71875 24.289063 36.152344 22.628906 36.4375 21.09375 Z M 13.46875 28C10.945313 28 9.757813 28.476563 8.5 29L7.90625 29.25C6.839844 29.671875 5.460938 30.265625 4.1875 30.84375C2.316406 31.695313 0.675781 32.507813 0.5625 32.5625C0.40625 32.636719 0.28125 32.742188 0.1875 32.875C0.179688 32.886719 0.195313 32.894531 0.1875 32.90625C0.132813 32.988281 0.0898438 33.09375 0.0625 33.1875C0.0273438 33.292969 0 33.386719 0 33.5C0 33.539063 -0.00390625 33.582031 0 33.625C0.9375 41.035156 5.375 45.742188 5.5625 45.9375C5.894531 46.285156 6.441406 46.351563 6.84375 46.09375L9.53125 44.34375C10.761719 43.558594 11.210938 43.4375 12.78125 44.25L14.90625 45.375C17.382813 46.664063 20.773438 48.417969 21.84375 48.9375C23.433594 49.710938 24.773438 50 25.90625 50C27.863281 50 29.238281 49.128906 30.4375 48.375C30.699219 48.210938 30.953125 48.027344 31.21875 47.875C33.078125 46.800781 45.996094 38.207031 47.34375 37.25C48.90625 36.144531 49.789063 34.992188 49.96875 33.8125C50.089844 33.015625 49.863281 32.242188 49.34375 31.5625C48.742188 30.777344 47.460938 29.808594 44.90625 30.59375C44.832031 30.617188 44.734375 30.664063 44.65625 30.6875C44.535156 30.726563 44.441406 30.761719 44.3125 30.8125C44.273438 30.828125 44.226563 30.828125 44.1875 30.84375C44.019531 30.910156 43.863281 30.980469 43.6875 31.0625C43.265625 31.253906 42.792969 31.496094 42.3125 31.78125L36.59375 35.65625C36.664063 35.929688 36.6875 36.207031 36.6875 36.5C36.6875 39.484375 34.441406 41 30 41L24.1875 41C21.382813 41 17.867188 40.011719 17.71875 39.96875C17.1875 39.816406 16.878906 39.25 17.03125 38.71875C17.183594 38.1875 17.75 37.886719 18.28125 38.03125C18.316406 38.042969 21.667969 39 24.1875 39L30 39C34.160156 39 34.6875 37.664063 34.6875 36.5C34.6875 35.320313 32.988281 34.125 30.125 34.03125C30.09375 34.03125 30.0625 34 30.03125 34C29.945313 33.996094 29.867188 34 29.78125 34C29.765625 34 29.734375 34 29.71875 34C27.496094 33.917969 23.371094 32.859375 22.25 32.1875C21.960938 32.011719 21.667969 31.671875 21.3125 31.28125C21.050781 30.992188 20.753906 30.667969 20.40625 30.34375C20.109375 30.066406 19.769531 29.796875 19.375 29.53125C19.355469 29.515625 19.332031 29.480469 19.3125 29.46875C19.121094 29.339844 18.910156 29.242188 18.6875 29.125C18.664063 29.113281 18.648438 29.074219 18.625 29.0625C18.421875 28.957031 18.199219 28.875 17.96875 28.78125C17.929688 28.765625 17.878906 28.734375 17.84375 28.71875C17.597656 28.621094 17.34375 28.550781 17.0625 28.46875C17.007813 28.453125 16.964844 28.421875 16.90625 28.40625C16.644531 28.335938 16.355469 28.273438 16.0625 28.21875C16.023438 28.210938 15.976563 28.195313 15.9375 28.1875C15.617188 28.132813 15.269531 28.097656 14.90625 28.0625C14.824219 28.054688 14.742188 28.070313 14.65625 28.0625C14.277344 28.035156 13.894531 28 13.46875 28Z" fill="#FFFFFF"/> </symbol><symbol viewBox="0 0 50 50" id="icon-cursuri-si-training"><title>icon-cursuri-si-training</title> <path d="M25 7C24.847656 7 24.703125 7.023438 24.5625 7.09375L0.5625 19.09375C0.222656 19.265625 0 19.621094 0 20C0 20.378906 0.222656 20.734375 0.5625 20.90625L4 22.625L4 37.1875C2.84375 37.605469 2 38.699219 2 40C2 41.273438 3.53125 43.613281 4.1875 44.5625L5 45.75L5.8125 44.5625C6.46875 43.613281 8 41.273438 8 40C8 38.699219 7.15625 37.605469 6 37.1875L6 23.625L8 24.625L8 22C8 18.53125 12.992188 17.828125 15.125 17.53125C18.339844 17.085938 22.269531 17 25 17C27.730469 17 31.660156 17.085938 34.875 17.53125C37.007813 17.828125 42 18.53125 42 22L42 24.625L49.4375 20.90625C49.777344 20.738281 50 20.378906 50 20C50 19.621094 49.777344 19.265625 49.4375 19.09375L25.4375 7.09375C25.296875 7.023438 25.152344 7 25 7 Z M 25 19C19.398438 19 10 19.390625 10 22L10 26.65625C12.078125 25.769531 16.320313 25 25 25C33.679688 25 37.921875 25.769531 40 26.65625L40 22C40 19.390625 30.601563 19 25 19 Z M 25 27C14.609375 27 10.289063 28.222656 10 29C10.015625 31.601563 19.402344 32 25 32C30.480469 32 39.574219 31.617188 39.96875 29.15625C39.980469 29.097656 40 29.058594 40 29C39.730469 28.234375 35.414063 27 25 27Z" fill="#FFFFFF"/> </symbol><symbol viewBox="0 0 50 50" id="icon-diete"><title>icon-diete</title> <path d="M33 3C27.694 3 24.233156 5.313375 22.660156 9.859375C22.777156 9.927375 22.894906 9.9954531 23.003906 10.064453C24.662906 9.0124531 27.23 8 31 8C31.673 8 32.325797 8.0595312 32.966797 8.1445312C33.668797 6.3815313 34 4.635 34 4C34 3.448 33.553 3 33 3 z M 18.083984 3.0039062C17.696984 2.9710469 17.310688 3.1679531 17.117188 3.5332031C16.859188 4.0202031 17.04525 4.6247656 17.53125 4.8847656C17.65525 4.9517656 19.703422 6.0786094 20.982422 8.5996094C21.283422 7.8326094 21.634156 7.1197969 22.035156 6.4667969C20.497156 4.2207969 18.597844 3.1852344 18.464844 3.1152344C18.342844 3.0507344 18.212984 3.0148594 18.083984 3.0039062 z M 15 10C7.935 10 3 15.346 3 23C3 30.106 6.774 38.896203 14 43.408203C14 43.408203 14.485 43.721 15 44L15 35C15 33.343 16.343 32 18 32L40 32C40.464 32 40.897062 31.885266 41.289062 31.697266C42.414062 28.776266 43 25.763 43 23C43 15.346 38.065 10 31 10C26.609 10 24.154 11.524875 23 12.546875C21.846 11.524875 19.391 10 15 10 z M 45 24.111328L45 29C45 31.414 43.279 33.433437 41 33.898438L41 41C41 41.552 40.553 42 40 42C39.447 42 39 41.552 39 41L39 34L35 34L35 40C35 40.552 34.553 41 34 41C33.447 41 33 40.552 33 40L33 34L29 34L29 41C29 41.552 28.553 42 28 42C27.447 42 27 41.552 27 41L27 34L23 34L23 39C23 39.552 22.553 40 22 40C21.447 40 21 39.552 21 39L21 34L18 34C17.447 34 17 34.448 17 35L17 46C17 46.552 17.447 47 18 47L40 47C43.52 47 46.442687 44.388 46.929688 41C46.976687 40.673 47 40.339 47 40L47 29C47 27.098 46.235 25.373328 45 24.111328 z" fill="#FFFFFF"/> </symbol><symbol viewBox="0 0 50 50" id="icon-frumusete"><title>icon-frumusete</title> <path d="M25 1C18.372 1 12.818953 5.8831562 11.376953 12.410156C14.626953 10.131156 18.75425 8.7530156 22.03125 7.6660156C23.19925 7.2780156 24.296266 6.9144063 25.197266 6.5664062C28.236266 5.3894062 28.861469 2.761 28.980469 2C28.989469 1.943 29 1.6972656 29 1.6972656C27.962 1.3072656 26.63 1 25 1 z M 30.808594 3L30.798828 3.0292969C30.680828 3.4742969 30.497078 4.0166094 30.205078 4.5996094C29.521078 5.9656094 28.257922 7.5256406 25.919922 8.4316406C24.971922 8.7986406 23.850109 9.1704531 22.662109 9.5644531C16.475109 11.615453 8 14.426281 8 21.863281C8 25.459001 9.9634639 27.040619 11.019531 27.634766C11.118706 30.391149 11.84858 33.852005 13.126953 37.228516 A 1.0001109 1.0001109 0 0 0 13.15625 37.298828C11.894709 37.824227 11 39.047443 11 40.5C11 42.277 12.330875 43.728125 14.046875 43.953125C14.271875 45.669125 15.723 47 17.5 47C18.079532 47 18.618239 46.84504 19.099609 46.595703C20.786459 48.048009 22.78317 49 25 49C27.257719 49 29.302901 48.092374 31.029297 46.666016C31.47756 46.874635 31.972986 47 32.5 47C33.922 47 35.1395 46.149641 35.6875 44.931641C37.5675 44.603641 39 42.973 39 41C39 39.871 38.528391 38.855906 37.775391 38.128906C37.917391 37.779906 38 37.4 38 37C38 36.448613 37.841538 35.938073 37.582031 35.494141 A 1.0001598 1.0001598 0 0 0 37.757812 35.152344C38.517993 32.522662 38.930777 29.868447 38.980469 27.476562C39.853758 26.729704 42 24.455013 42 19.773438C42 16.612437 40.853563 14.329344 39.601562 12.777344C39.168563 12.263344 38.794922 12.007812 38.794922 12.007812C37.959922 16.220813 34.496 19.459578 29 21.142578C35.07054 23.384517 36.798924 26.812906 36.990234 27.224609C36.967055 29.328501 36.605714 31.753386 35.945312 34.166016C35.646656 34.066356 35.332186 34 35 34C33.343 34 32 35.343 32 37C30.343 37 29 38.343 29 40C29 40.626 29.191531 41.2065 29.519531 41.6875C29.195531 42.2175 29 42.833 29 43.5C29 44.159869 29.194279 44.770086 29.511719 45.296875C28.123456 46.379495 26.635466 47 25 47C23.402578 47 21.933285 46.335541 20.550781 45.183594C20.828158 44.682171 21 44.113596 21 43.5C21 42.594 20.646078 41.776297 20.080078 41.154297C20.645078 40.609297 21 39.847 21 39C21 37.684 20.146797 36.577828 18.966797 36.173828C18.805797 34.948828 17.769 34 16.5 34C15.666366 34 14.934657 34.412069 14.480469 35.039062C13.545557 32.167927 13.035601 29.311736 13.005859 27.201172C13.321056 26.50269 15.763614 21.806261 25.164062 19.986328C32.575063 18.750328 37 15.018 37 10C37 6.279 34.716141 4.326375 32.744141 3.484375C31.853141 3.083375 30.808594 3 30.808594 3 z M 19.5 28 A 1.5 1.5 0 0 0 18 29.5 A 1.5 1.5 0 0 0 19.5 31 A 1.5 1.5 0 0 0 21 29.5 A 1.5 1.5 0 0 0 19.5 28 z M 30.5 28 A 1.5 1.5 0 0 0 29 29.5 A 1.5 1.5 0 0 0 30.5 31 A 1.5 1.5 0 0 0 32 29.5 A 1.5 1.5 0 0 0 30.5 28 z M 6 34 A 1 1 0 0 0 5 35 A 1 1 0 0 0 6 36 A 1 1 0 0 0 7 35 A 1 1 0 0 0 6 34 z M 44.5 34C43.121 34 42 35.121 42 36.5C42 37.879 43.121 39 44.5 39C45.879 39 47 37.879 47 36.5C47 35.121 45.879 34 44.5 34 z M 3.5 41C2.121 41 1 42.121 1 43.5C1 44.879 2.121 46 3.5 46C4.879 46 6 44.879 6 43.5C6 42.121 4.879 41 3.5 41 z M 48 42 A 1 1 0 0 0 47 43 A 1 1 0 0 0 48 44 A 1 1 0 0 0 49 43 A 1 1 0 0 0 48 42 z" fill="#FFFFFF"/> </symbol><symbol viewBox="0 0 50 50" id="icon-gaming"><title>icon-gaming</title> <path d="M43.90625 0.96875C43.863281 0.976563 43.820313 0.988281 43.78125 1C43.316406 1.105469 42.988281 1.523438 43 2C43 3.898438 42.121094 4.941406 40.5 5.96875C38.878906 6.996094 36.535156 7.828125 34.125 8.84375C31.714844 9.859375 29.21875 11.082031 27.28125 13.125C25.519531 14.984375 24.296875 17.539063 24.09375 20.96875C22.292969 20.820313 21.171875 20.242188 19.96875 19.625C18.5 18.871094 16.820313 18 14 18C7.980469 18 0 31.683594 0 42C0 46.710938 2.46875 50 6 50C11.304688 50 14.90625 47.121094 18.09375 44.59375C20.53125 42.660156 22.652344 41 25 41C27.347656 41 29.46875 42.660156 31.90625 44.59375C35.09375 47.121094 38.695313 50 44 50C47.53125 50 50 46.710938 50 42C50 31.683594 42.019531 18 36 18C33.179688 18 31.5 18.871094 30.03125 19.625C28.878906 20.21875 27.796875 20.761719 26.125 20.9375C26.320313 17.996094 27.300781 16.027344 28.75 14.5C30.367188 12.792969 32.578125 11.640625 34.90625 10.65625C37.234375 9.671875 39.628906 8.878906 41.5625 7.65625C43.496094 6.433594 45 4.601563 45 2C45.011719 1.710938 44.894531 1.433594 44.6875 1.238281C44.476563 1.039063 44.191406 0.941406 43.90625 0.96875 Z M 37 27C38.105469 27 39 27.894531 39 29C39 30.105469 38.105469 31 37 31C35.894531 31 35 30.105469 35 29C35 27.894531 35.894531 27 37 27 Z M 12 28L15 28L15 31L18 31L18 34L15 34L15 37L12 37L12 34L9 34L9 31L12 31 Z M 33 31C34.105469 31 35 31.894531 35 33C35 34.105469 34.105469 35 33 35C31.894531 35 31 34.105469 31 33C31 31.894531 31.894531 31 33 31 Z M 41 31C42.105469 31 43 31.894531 43 33C43 34.105469 42.105469 35 41 35C39.894531 35 39 34.105469 39 33C39 31.894531 39.894531 31 41 31 Z M 37 35C38.105469 35 39 35.894531 39 37C39 38.105469 38.105469 39 37 39C35.894531 39 35 38.105469 35 37C35 35.894531 35.894531 35 37 35Z" fill="#FFFFFF"/> </symbol><symbol viewBox="0 0 50 50" id="icon-hobby"><title>icon-hobby</title> <path d="M42.900391 2.9003906C41.790391 2.9003906 40.760234 3.3198437 39.990234 4.0898438L39.169922 4.9101562C38.789922 4.7101562 38.310234 4.7698438 37.990234 5.0898438L25.539062 17.539062L26.960938 18.960938L31.050781 23.050781L32.460938 24.460938L44.910156 12.009766C45.260156 11.659766 45.299766 11.110937 45.009766 10.710938L45.810547 9.9101562C47.410547 8.3001563 47.410547 5.6998438 45.810547 4.0898438C45.040547 3.3198437 44.010391 2.9003906 42.900391 2.9003906 z M 6.6972656 3.6269531C5.3661133 3.7021484 4.0992187 4.3066406 3.2304688 5.3691406C2.0204688 6.8291406 1.8096875 8.9099219 2.6796875 10.669922C2.7196875 10.759922 2.7891406 10.849687 2.8691406 10.929688L17.509766 25.570312L18.910156 27.009766L23.019531 31.080078L24.429688 32.490234L25.650391 33.699219L25.679688 33.730469L31.779297 38.539062C31.849297 38.589062 31.92 38.639922 32 38.669922C32.3 38.799922 32.600156 38.889219 32.910156 38.949219L32.910156 39.039062C32.960156 40.379063 33.320234 42.899297 35.240234 44.779297C36.740234 46.249297 38.820547 46.980469 41.060547 46.980469C43.220547 46.980469 45.539375 46.290391 47.609375 44.900391C47.999375 44.640391 48.169063 44.149219 48.039062 43.699219C47.909062 43.239219 47.499297 42.930156 47.029297 42.910156C46.049297 42.890156 45.259453 42.639922 44.689453 42.169922C43.959453 41.549922 43.740234 40.679922 43.490234 39.669922C43.200234 38.519922 42.880703 37.209688 41.720703 36.179688C40.710703 35.289687 39.300781 34.860391 37.550781 34.900391C37.530781 34.420391 37.420938 33.940703 37.210938 33.470703C37.170938 33.390703 37.130078 33.32 37.080078 33.25L32.240234 27.109375C32.210234 27.079375 32.190156 27.049531 32.160156 27.019531L31.029297 25.890625L29.630859 24.460938L25.539062 20.369141L24.099609 18.980469L9.3808594 4.2792969C9.2908594 4.1892969 9.1998437 4.1200781 9.0898438 4.0800781C8.3173438 3.7275781 7.495957 3.5818359 6.6972656 3.6269531 z M 38.699219 7.2109375L42.789062 11.300781L40.060547 14.039062L35.970703 9.9492188L38.699219 7.2109375 z M 16.070312 27.009766L6.5898438 36.490234C6.4898438 36.590234 6.409375 36.719609 6.359375 36.849609L3.0605469 45.650391C2.9305469 46.020391 3.0190625 46.430937 3.2890625 46.710938C3.4790625 46.900937 3.74 47 4 47C4.12 47 4.2396094 46.979453 4.3496094 46.939453L13.150391 43.640625C13.280391 43.590625 13.409766 43.510156 13.509766 43.410156L23.019531 33.900391L21.599609 32.5L17.5 28.419922L16.070312 27.009766 z M 32.019531 30.070312L35.419922 34.380859C35.699922 35.130859 35.549766 35.940469 35.009766 36.480469C34.479766 37.010469 33.660156 37.170859 32.910156 36.880859L28.570312 33.460938C29.350313 33.160938 30.239766 32.64 31.009766 31.75C31.429766 31.25 31.779531 30.680312 32.019531 30.070312 z M 7.6601562 39.080078L8.2890625 39.710938C8.4790625 39.890937 8.73 40 9 40L10 40L10 41C10 41.27 10.109063 41.520938 10.289062 41.710938L10.919922 42.339844L7.0800781 43.779297L6.2207031 42.919922L7.6601562 39.080078 z" fill="#FFFFFF"/> </symbol><symbol viewBox="0 0 50 50" id="icon-imbracaminte"><title>icon-imbracaminte</title> <path d="M16 4C15.447 4 15 4.447 15 5L15 5.6601562C11.143541 5.3956585 7.4855815 4.9836707 4.1679688 4.4199219C3.6249688 4.3389219 3.1066719 4.6923281 3.0136719 5.2363281C2.9216719 5.7813281 3.2880312 6.297625 3.8320312 6.390625C7.2529382 6.9716379 11.025489 7.3954724 15 7.6640625L15 11.203125L12.693359 11.847656C12.558359 11.883656 9.3881719 12.766547 7.8261719 15.310547C5.6031719 18.930547 2.9257813 23.298828 2.9257812 23.298828C2.6647812 23.727828 2.8071406 24.281063 3.2441406 24.539062L9.3964844 28.171875C9.5464844 28.260875 9.712 28.302734 9.875 28.302734C10.184 28.302734 10.487109 28.15 10.662109 27.875L12.433594 25.359375C13.032594 30.402375 13.429531 37.794734 12.019531 44.802734C11.953531 45.130734 12.056969 45.471031 12.292969 45.707031C13.797969 47.212031 20.0455 48.289063 26.0625 48.289062C31.0415 48.289062 35.862031 47.552031 37.707031 45.707031C37.931031 45.483031 38.036234 45.166516 37.990234 44.853516C36.906234 37.491516 36.755484 31.047141 37.521484 25.244141L39.337891 27.873047C39.512891 28.148047 39.817953 28.300781 40.126953 28.300781C40.289953 28.300781 40.455469 28.258922 40.605469 28.169922L46.757812 24.537109C47.193813 24.280109 47.335219 23.726828 47.074219 23.298828C47.074219 23.298828 44.396828 18.930547 42.173828 15.310547C40.611828 12.766547 37.441641 11.884656 37.306641 11.847656L35 11.203125L35 7.6640625C38.974511 7.3953617 42.747062 6.9721902 46.167969 6.390625C46.711969 6.298625 47.078328 5.7813281 46.986328 5.2363281C46.894328 4.6923281 46.378031 4.3379687 45.832031 4.4179688C42.514419 4.9822628 38.856459 5.3955458 35 5.6601562L35 5C35 4.447 34.553 4 34 4C33.447 4 33 4.447 33 5L33 5.7851562C30.400871 5.9250835 27.724319 6 25 6C22.275681 6 19.599129 5.9250364 17 5.7851562L17 5C17 4.447 16.553 4 16 4 z M 17 7.7871094C19.601977 7.9252198 22.27828 8 25 8C27.72172 8 30.398023 7.9252647 33 7.7871094L33 10.644531L30.814453 10.033203C30.771453 10.022203 30.676547 10 30.560547 10L19.439453 10C19.324453 10 19.228547 10.022203 19.185547 10.033203L17 10.644531L17 7.7871094 z M 19.746094 11.599609L24.988281 11.599609L25 11.599609L30.253906 11.599609C29.771906 12.939609 28.44 15.274297 25 15.279297C21.56 15.274297 20.228094 12.939609 19.746094 11.599609 z" fill="#FFFFFF"/> </symbol><symbol viewBox="0 0 50 50" id="icon-incaltaminte"><title>icon-incaltaminte</title> <path d="M20.5625 13.6875C20.097656 13.6875 19.640625 13.886719 19.25 14.3125C19.101563 14.472656 19.039063 14.667969 18.875 15.03125C17.914063 17.171875 16.261719 20 13 20C10.867188 20 8.699219 19.03125 6.78125 18.1875C5.253906 17.515625 4.039063 17 3 17C2.628906 17 2.296875 17.199219 2.125 17.53125C1.019531 19.648438 0.945313 22.527344 1.03125 25.0625C1.164063 28.925781 1.996094 31.117188 2.03125 31.25C2.148438 31.6875 2.546875 32 3 32L10.8125 31.9375L12.21875 31.96875C16.242188 32.03125 17.925781 33.074219 19.125 33.625C19.800781 33.933594 20.382813 34.222656 20.9375 34.5C23.957031 36.007813 25.957031 37 34 37C47.769531 37 49 36.222656 49 34C49 27.09375 42.519531 25.535156 37.78125 24.40625C36.105469 24.007813 34.5 23.625 33.4375 23.09375C29.550781 21.152344 22.722656 15.175781 21.78125 14.34375C21.542969 14 21.125 13.6875 20.5625 13.6875 Z M 2 33.8125L2 36C2 36.554688 2.449219 37 3 37L14 37C14.550781 37 15 36.554688 15 36L15 34.25C14.25 34.105469 13.332031 33.984375 12.1875 33.96875L10.8125 33.96875L3 34C2.652344 34 2.316406 33.925781 2 33.8125Z" fill="#FFFFFF"/> </symbol><symbol viewBox="0 0 50 50" id="icon-it"><title>icon-it</title> <path d="M8 4C5.792969 4 4 5.792969 4 8L4 17L9 17L9 9L41 9L41 23L46 23L46 8C46 5.792969 44.207031 4 42 4 Z M 2 18C0.898438 18 0 18.898438 0 20L0 44C0 45.101563 0.898438 46 2 46L21 46C22.101563 46 23 45.101563 23 44L23 20C23 18.898438 22.101563 18 21 18 Z M 4 22L19 22L19 40L4 40 Z M 37 24C35.898438 24 35 24.898438 35 26L35 44C35 45.101563 35.898438 46 37 46L48 46C49.101563 46 50 45.101563 50 44L50 26C50 24.898438 49.101563 24 48 24 Z M 39 28L46 28L46 40L39 40 Z M 24 32L24 43L34 43L34 39L30 39L30 36L34 36L34 32 Z M 11.5 41.5C12.050781 41.5 12.5 41.945313 12.5 42.5C12.5 43.054688 12.050781 43.5 11.5 43.5C10.949219 43.5 10.5 43.054688 10.5 42.5C10.5 41.945313 10.949219 41.5 11.5 41.5 Z M 42.5 41.5C43.054688 41.5 43.5 41.945313 43.5 42.5C43.5 43.054688 43.054688 43.5 42.5 43.5C41.945313 43.5 41.5 43.054688 41.5 42.5C41.5 41.945313 41.945313 41.5 42.5 41.5Z" fill="#FFFFFF"/> </symbol><symbol viewBox="0 0 50 50" id="icon-jucarii"><title>icon-jucarii</title> <path d="M16.3125 0C15.550781 0 14.941406 0.300781 14.28125 0.6875C13.621094 1.074219 12.964844 1.589844 12.4375 2.15625C11.183594 3.5 10.777344 4.542969 10.53125 5.5625C10.226563 6.824219 10.691406 8.058594 11.40625 9.03125C11.945313 9.769531 12.648438 10.394531 13.4375 10.84375C13.160156 11.851563 13 12.902344 13 14C13 15.828125 13.421875 17.542969 14.15625 19.09375C11.371094 20.566406 5.222656 23.824219 3.84375 24.53125C1.1875 25.894531 0.277344 28.023438 1.34375 30.375C2.320313 32.519531 4.515625 33.253906 7.03125 32.3125C8.183594 31.882813 10.90625 30.765625 12.65625 30.03125L12.46875 31.40625C12.664063 31.34375 12.863281 31.296875 13.0625 31.25C13.722656 31.09375 14.398438 31 15.0625 31C16.683594 31 18.261719 31.484375 19.65625 32.3125C20.644531 30.359375 22.65625 29 25 29C27.34375 29 29.355469 30.359375 30.34375 32.3125C31.738281 31.488281 33.316406 31 34.9375 31C35.601563 31 36.273438 31.09375 36.9375 31.25C37.128906 31.296875 37.3125 31.347656 37.5 31.40625L37.34375 30C37.753906 30.171875 38.230469 30.390625 38.71875 30.59375C40.296875 31.25 42.085938 31.984375 42.96875 32.3125C45.375 33.210938 47.382813 32.609375 48.4375 30.75C48.507813 30.625 48.59375 30.515625 48.65625 30.375C49.398438 28.738281 49.15625 27.207031 48.0625 25.96875C47.878906 25.761719 47.667969 25.566406 47.4375 25.375C47.066406 25.070313 46.652344 24.789063 46.15625 24.53125C44.796875 23.835938 38.730469 20.585938 35.875 19.0625C36.597656 17.519531 37 15.8125 37 14C37 12.902344 36.839844 11.851563 36.5625 10.84375C37.351563 10.394531 38.054688 9.769531 38.59375 9.03125C39.308594 8.058594 39.773438 6.824219 39.46875 5.5625C39.222656 4.542969 38.816406 3.5 37.5625 2.15625C37.035156 1.589844 36.378906 1.074219 35.71875 0.6875C35.058594 0.300781 34.449219 0 33.6875 0C31.65625 0 29.851563 1.035156 28.8125 2.625C27.613281 2.21875 26.335938 2 25 2C23.664063 2 22.386719 2.21875 21.1875 2.625C20.148438 1.035156 18.34375 0 16.3125 0 Z M 16.3125 2C17.523438 2 18.582031 2.570313 19.28125 3.4375C17.03125 4.660156 15.214844 6.609375 14.125 8.9375C13.710938 8.648438 13.320313 8.273438 13.03125 7.875C12.554688 7.226563 12.347656 6.539063 12.46875 6.03125C12.691406 5.101563 12.828125 4.65625 13.90625 3.5C14.273438 3.105469 14.789063 2.695313 15.28125 2.40625C15.773438 2.117188 16.269531 2 16.3125 2 Z M 33.6875 2C33.730469 2 34.226563 2.117188 34.71875 2.40625C35.210938 2.695313 35.726563 3.105469 36.09375 3.5C37.171875 4.65625 37.308594 5.101563 37.53125 6.03125C37.652344 6.539063 37.445313 7.226563 36.96875 7.875C36.679688 8.273438 36.289063 8.648438 35.875 8.9375C34.785156 6.609375 32.96875 4.660156 30.71875 3.4375C31.417969 2.570313 32.476563 2 33.6875 2 Z M 21.5 8C22.328125 8 23 8.671875 23 9.5C23 10.328125 22.328125 11 21.5 11C20.671875 11 20 10.328125 20 9.5C20 8.671875 20.671875 8 21.5 8 Z M 28.5 8C29.328125 8 30 8.671875 30 9.5C30 10.328125 29.328125 11 28.5 11C27.671875 11 27 10.328125 27 9.5C27 8.671875 27.671875 8 28.5 8 Z M 25 11C28.867188 11 32 14.132813 32 18C32 21.867188 28.867188 25 25 25C21.132813 25 18 21.867188 18 18C18 14.132813 21.132813 11 25 11 Z M 25 13C23.34375 13 22 14.34375 22 16C22 17.65625 23.34375 19 25 19C26.65625 19 28 17.65625 28 16C28 14.34375 26.65625 13 25 13 Z M 15.0625 33C14.546875 33 14.03125 33.070313 13.53125 33.1875C13.171875 33.273438 12.828125 33.390625 12.5 33.53125C12.375 33.585938 12.246094 33.625 12.125 33.6875C12.113281 33.695313 12.105469 33.710938 12.09375 33.71875C11.886719 33.824219 11.664063 33.933594 11.46875 34.0625C11.457031 34.070313 11.449219 34.085938 11.4375 34.09375C11.242188 34.222656 11.054688 34.351563 10.875 34.5C10.863281 34.507813 10.855469 34.523438 10.84375 34.53125C10.472656 34.839844 10.117188 35.183594 9.8125 35.5625C9.796875 35.578125 9.796875 35.605469 9.78125 35.625C9.640625 35.804688 9.5 35.996094 9.375 36.1875C9.261719 36.363281 9.164063 36.5625 9.0625 36.75C9.039063 36.796875 8.992188 36.828125 8.96875 36.875C8.964844 36.882813 8.972656 36.898438 8.96875 36.90625C8.863281 37.113281 8.746094 37.34375 8.65625 37.5625C8.652344 37.574219 8.628906 37.582031 8.625 37.59375C8.53125 37.824219 8.480469 38.042969 8.40625 38.28125C8.363281 38.414063 8.316406 38.550781 8.28125 38.6875C8.25 38.808594 8.214844 38.9375 8.1875 39.0625C8.183594 39.082031 8.191406 39.105469 8.1875 39.125C8.136719 39.367188 8.09375 39.625 8.0625 39.875C8.0625 39.886719 8.0625 39.894531 8.0625 39.90625C8.03125 40.175781 8.007813 40.441406 8 40.71875C7.976563 41.542969 8.050781 42.40625 8.25 43.25C8.652344 44.957031 9.492188 46.449219 10.59375 47.59375C10.605469 47.605469 10.613281 47.613281 10.625 47.625C11.101563 48.113281 11.628906 48.527344 12.1875 48.875C12.210938 48.890625 12.226563 48.921875 12.25 48.9375C12.363281 49.007813 12.476563 49.0625 12.59375 49.125C12.699219 49.183594 12.800781 49.230469 12.90625 49.28125C12.976563 49.316406 13.050781 49.34375 13.125 49.375C13.210938 49.414063 13.289063 49.464844 13.375 49.5C13.492188 49.546875 13.628906 49.585938 13.75 49.625C13.9375 49.6875 14.121094 49.765625 14.3125 49.8125C14.417969 49.839844 14.519531 49.855469 14.625 49.875C14.667969 49.882813 14.707031 49.898438 14.75 49.90625C14.898438 49.933594 15.039063 49.953125 15.1875 49.96875C15.433594 49.996094 15.6875 50 15.9375 50C16.453125 50 16.96875 49.929688 17.46875 49.8125C17.832031 49.726563 18.164063 49.613281 18.5 49.46875C18.625 49.414063 18.753906 49.371094 18.875 49.3125C18.886719 49.304688 18.894531 49.289063 18.90625 49.28125C19.132813 49.167969 19.351563 49.042969 19.5625 48.90625C19.757813 48.777344 19.945313 48.648438 20.125 48.5C20.136719 48.492188 20.144531 48.476563 20.15625 48.46875C20.351563 48.304688 20.539063 48.121094 20.71875 47.9375C20.878906 47.773438 21.042969 47.617188 21.1875 47.4375C21.203125 47.417969 21.203125 47.394531 21.21875 47.375C21.308594 47.261719 21.382813 47.152344 21.46875 47.03125C21.527344 46.945313 21.601563 46.867188 21.65625 46.78125C21.78125 46.585938 21.890625 46.363281 22 46.15625C22.125 45.917969 22.273438 45.660156 22.375 45.40625C22.464844 45.1875 22.523438 44.949219 22.59375 44.71875C22.601563 44.699219 22.617188 44.675781 22.625 44.65625C22.695313 44.421875 22.761719 44.179688 22.8125 43.9375C22.816406 43.917969 22.808594 43.894531 22.8125 43.875C22.863281 43.625 22.90625 43.382813 22.9375 43.125C22.9375 43.113281 22.9375 43.105469 22.9375 43.09375C22.96875 42.835938 22.992188 42.578125 23 42.3125C23 42.300781 23 42.292969 23 42.28125C23.015625 41.742188 22.984375 41.175781 22.90625 40.625C22.90625 40.613281 22.90625 40.605469 22.90625 40.59375C22.867188 40.324219 22.8125 40.054688 22.75 39.78125C22.746094 39.773438 22.753906 39.757813 22.75 39.75C22.691406 39.5 22.609375 39.269531 22.53125 39.03125C22.527344 39.019531 22.503906 39.011719 22.5 39C22.429688 38.777344 22.367188 38.554688 22.28125 38.34375C22.246094 38.257813 22.222656 38.175781 22.1875 38.09375C22.128906 37.960938 22.066406 37.816406 22 37.6875C21.984375 37.652344 21.953125 37.625 21.9375 37.59375C21.84375 37.410156 21.730469 37.238281 21.625 37.0625C21.503906 36.859375 21.386719 36.660156 21.25 36.46875C21.113281 36.273438 20.992188 36.085938 20.84375 35.90625C20.714844 35.75 20.574219 35.582031 20.4375 35.4375C20.417969 35.417969 20.394531 35.394531 20.375 35.375C20.199219 35.191406 20 35.039063 19.8125 34.875C19.539063 34.636719 19.269531 34.414063 18.96875 34.21875C18.910156 34.179688 18.84375 34.132813 18.78125 34.09375C18.695313 34.042969 18.617188 33.984375 18.53125 33.9375C17.898438 33.574219 17.230469 33.3125 16.53125 33.15625C16.480469 33.144531 16.425781 33.136719 16.375 33.125C16.179688 33.085938 15.976563 33.054688 15.78125 33.03125C15.761719 33.027344 15.738281 33.035156 15.71875 33.03125C15.5 33.007813 15.28125 33 15.0625 33 Z M 34.9375 33C34.5625 32.996094 34.210938 33.03125 33.84375 33.09375C33.773438 33.105469 33.695313 33.109375 33.625 33.125C33.574219 33.136719 33.519531 33.144531 33.46875 33.15625C32.769531 33.3125 32.101563 33.574219 31.46875 33.9375C31.417969 33.96875 31.363281 34 31.3125 34.03125C31.089844 34.167969 30.867188 34.34375 30.65625 34.5C30.507813 34.613281 30.363281 34.71875 30.21875 34.84375C29.769531 35.230469 29.34375 35.671875 28.96875 36.15625C28.851563 36.308594 28.734375 36.460938 28.625 36.625C28.003906 37.550781 27.523438 38.59375 27.25 39.75C26.71875 41.992188 27.03125 44.230469 27.9375 46.03125C27.949219 46.050781 27.957031 46.074219 27.96875 46.09375C28.558594 47.246094 29.402344 48.21875 30.4375 48.90625C30.644531 49.042969 30.871094 49.167969 31.09375 49.28125C31.226563 49.351563 31.363281 49.410156 31.5 49.46875C31.59375 49.507813 31.683594 49.558594 31.78125 49.59375C32.027344 49.683594 32.273438 49.75 32.53125 49.8125C33.035156 49.929688 33.546875 50 34.0625 50C34.28125 50 34.5 49.988281 34.71875 49.96875C34.894531 49.949219 35.078125 49.9375 35.25 49.90625C35.292969 49.898438 35.332031 49.882813 35.375 49.875C35.425781 49.863281 35.480469 49.855469 35.53125 49.84375C35.6875 49.808594 35.847656 49.765625 36 49.71875C36.085938 49.695313 36.167969 49.652344 36.25 49.625C36.371094 49.585938 36.507813 49.546875 36.625 49.5C36.742188 49.453125 36.855469 49.398438 36.96875 49.34375C37.054688 49.304688 37.132813 49.261719 37.21875 49.21875C37.359375 49.148438 37.488281 49.082031 37.625 49C38.257813 48.628906 38.847656 48.167969 39.375 47.625C39.394531 47.605469 39.417969 47.582031 39.4375 47.5625C39.898438 47.078125 40.300781 46.535156 40.65625 45.9375C40.71875 45.832031 40.785156 45.730469 40.84375 45.625C41.234375 44.898438 41.550781 44.09375 41.75 43.25C41.820313 42.957031 41.863281 42.667969 41.90625 42.375C41.945313 42.101563 41.984375 41.835938 42 41.5625C42 41.550781 42 41.542969 42 41.53125C42.015625 41.257813 42.007813 40.984375 42 40.71875C42 40.707031 42 40.699219 42 40.6875C41.992188 40.421875 41.96875 40.167969 41.9375 39.90625C41.9375 39.894531 41.9375 39.886719 41.9375 39.875C41.90625 39.625 41.863281 39.367188 41.8125 39.125C41.808594 39.105469 41.816406 39.082031 41.8125 39.0625C41.761719 38.820313 41.695313 38.574219 41.625 38.34375C41.617188 38.320313 41.601563 38.304688 41.59375 38.28125C41.519531 38.042969 41.46875 37.824219 41.375 37.59375C41.371094 37.582031 41.347656 37.574219 41.34375 37.5625C41.25 37.335938 41.144531 37.089844 41.03125 36.875C41.023438 36.863281 41.007813 36.855469 41 36.84375C40.886719 36.628906 40.785156 36.421875 40.65625 36.21875C40.648438 36.207031 40.632813 36.199219 40.625 36.1875C40.578125 36.113281 40.519531 36.042969 40.46875 35.96875C40.371094 35.832031 40.292969 35.691406 40.1875 35.5625C40.039063 35.378906 39.882813 35.230469 39.71875 35.0625C39.367188 34.703125 38.980469 34.367188 38.5625 34.09375C38.355469 33.957031 38.128906 33.832031 37.90625 33.71875C37.894531 33.710938 37.886719 33.695313 37.875 33.6875C37.660156 33.578125 37.445313 33.492188 37.21875 33.40625C37.210938 33.402344 37.195313 33.410156 37.1875 33.40625C36.953125 33.320313 36.71875 33.246094 36.46875 33.1875C35.964844 33.070313 35.453125 33 34.9375 33 Z M 24.59375 44.96875C24.402344 45.664063 24.128906 46.308594 23.8125 46.9375C24.203125 46.957031 24.605469 47 25 47C25.394531 47 25.796875 46.957031 26.1875 46.9375C25.871094 46.316406 25.597656 45.65625 25.40625 44.96875C25.132813 44.976563 24.867188 44.972656 24.59375 44.96875Z" fill="#FFFFFF"/> </symbol><symbol viewBox="0 0 50 50" id="icon-online"><title>icon-online</title> <path d="M24 2C11.851563 2 2 11.851563 2 24C2 36.148438 11.851563 46 24 46C27.207031 46 30.25 45.304688 33 44.070313L33 45.25C33 45.65625 33.242188 46.019531 33.617188 46.171875C33.992188 46.328125 34.421875 46.242188 34.707031 45.957031L37.71875 42.941406L40.230469 48.417969C40.460938 48.917969 41.054688 49.136719 41.558594 48.90625L45.417969 47.140625C45.917969 46.910156 46.136719 46.316406 45.90625 45.8125L43.300781 40.125L48 40.125C48.410156 40.125 48.78125 39.875 48.929688 39.492188C49.082031 39.109375 48.984375 38.675781 48.683594 38.394531L43.71875 33.738281C45.171875 30.804688 46 27.5 46 24C46 11.851563 36.148438 2 24 2 Z M 24 4C35.027344 4 44 12.972656 44 24C44 26.960938 43.339844 29.765625 42.179688 32.296875L40.609375 30.824219C41.359375 29.007813 41.835938 27.054688 41.949219 25L33.972656 25C33.964844 25 33.960938 25 33.953125 25C33.421875 25.027344 33 25.464844 33 26L33 35.574219C32.160156 37.75 31.09375 39.605469 29.84375 41.003906C30.953125 40.625 32.003906 40.132813 33 39.550781L33 41.832031C30.292969 43.207031 27.242188 44 24 44C12.972656 44 4 35.027344 4 24C4 12.972656 12.972656 4 24 4 Z M 23 6.125C20.574219 6.691406 18.410156 9.28125 16.941406 13L23 13 Z M 25 6.125L25 13L31.058594 13C29.589844 9.28125 27.425781 6.691406 25 6.125 Z M 18.15625 6.992188C14.808594 8.148438 11.910156 10.257813 9.78125 13L14.769531 13C15.636719 10.5625 16.792969 8.519531 18.15625 6.992188 Z M 29.84375 6.992188C31.207031 8.519531 32.363281 10.5625 33.230469 13L38.21875 13C36.089844 10.257813 33.191406 8.148438 29.84375 6.992188 Z M 8.4375 15C7.054688 17.378906 6.210938 20.097656 6.050781 23L13.027344 23C13.101563 20.117188 13.496094 17.414063 14.152344 15 Z M 16.261719 15C15.550781 17.390625 15.109375 20.113281 15.027344 23L23 23L23 15 Z M 25 15L25 23L32.972656 23C32.890625 20.113281 32.453125 17.390625 31.738281 15 Z M 33.847656 15C34.503906 17.414063 34.898438 20.117188 34.972656 23L41.949219 23C41.789063 20.097656 40.945313 17.378906 39.5625 15 Z M 6.050781 25C6.210938 27.902344 7.054688 30.621094 8.4375 33L14.152344 33C13.496094 30.585938 13.101563 27.882813 13.027344 25 Z M 15.027344 25C15.109375 27.886719 15.546875 30.609375 16.261719 33L23 33L23 25 Z M 25 25L25 33L31.738281 33C32.449219 30.609375 32.890625 27.886719 32.972656 25 Z M 35 28.308594L45.46875 38.125L41.875 38.125C41.71875 38.125 41.566406 38.160156 41.425781 38.230469L41.320313 38.285156C40.839844 38.527344 40.632813 39.105469 40.859375 39.59375L43.671875 45.734375L41.628906 46.671875L38.9375 40.800781C38.804688 40.503906 38.527344 40.292969 38.207031 40.234375C37.882813 40.175781 37.554688 40.28125 37.324219 40.515625L35 42.835938 Z M 9.78125 35C11.910156 37.742188 14.808594 39.851563 18.15625 41.003906C16.792969 39.480469 15.636719 37.4375 14.769531 35 Z M 16.941406 35C18.410156 38.71875 20.574219 41.308594 23 41.875L23 35 Z M 25 35L25 41.875C27.425781 41.308594 29.589844 38.71875 31.058594 35Z" fill="#FFFFFF"/> </symbol><symbol viewBox="0 0 50 50" id="icon-pentru-copii"><title>icon-pentru-copii</title> <path d="M14.09375 0C10.234375 0 7.09375 3.140625 7.09375 7C7.09375 10.859375 10.234375 14 14.09375 14C17.953125 14 21.09375 10.859375 21.09375 7C21.09375 3.140625 17.953125 0 14.09375 0 Z M 36.78125 0C32.921875 0 29.78125 3.140625 29.78125 7C29.78125 10.859375 32.921875 14 36.78125 14C40.640625 14 43.78125 10.859375 43.78125 7C43.78125 3.140625 40.640625 0 36.78125 0 Z M 29.46875 3.78125C27.628906 4.839844 25.058594 7.066406 24.78125 11.9375C24.765625 12.210938 24.875 12.488281 25.0625 12.6875C25.25 12.886719 25.503906 13 25.78125 13L29.78125 13C30.253906 13 30.648438 12.660156 30.75 12.21875C29.535156 10.816406 28.78125 8.996094 28.78125 7C28.78125 5.855469 29.03125 4.769531 29.46875 3.78125 Z M 44.09375 3.78125C44.53125 4.769531 44.78125 5.855469 44.78125 7C44.78125 8.996094 44.058594 10.816406 42.84375 12.21875C42.945313 12.660156 43.304688 13 43.78125 13L47.78125 13C48.054688 13 48.34375 12.886719 48.53125 12.6875C48.71875 12.488281 48.796875 12.210938 48.78125 11.9375C48.507813 7.066406 45.933594 4.839844 44.09375 3.78125 Z M 33.53125 14.84375C30.804688 14.84375 28.351563 16.519531 27.40625 19L25.28125 24.875C24.644531 22.410156 23.96875 19.75 23.96875 19.75C23.25 16.890625 20.628906 14.90625 17.59375 14.90625L9.53125 14.90625C6.542969 14.90625 3.859375 16.941406 3.15625 19.75C3.15625 19.75 0.0820313 32.066406 0.0625 32.15625C-0.179688 33.363281 0.476563 34.511719 1.65625 34.90625C1.695313 34.921875 1.742188 34.929688 1.78125 34.9375C1.957031 34.972656 2.140625 35 2.3125 35C3.421875 35 4.378906 34.292969 4.59375 33.21875C4.605469 33.160156 7.0625 23.65625 7.0625 23.65625L7.09375 23.65625L7.09375 28L20.09375 28L20.09375 23.65625L20.125 23.65625C20.125 23.65625 22.613281 33.171875 22.625 33.21875C22.820313 34.199219 23.640625 34.855469 24.625 34.96875C24.753906 34.988281 24.875 35 25 35C25.140625 34.996094 25.261719 34.964844 25.40625 34.9375C25.445313 34.929688 25.492188 34.917969 25.53125 34.90625C26.171875 34.761719 26.722656 34.394531 27.0625 33.78125C27.070313 33.769531 27.085938 33.761719 27.09375 33.75C27.125 33.714844 27.15625 33.667969 27.1875 33.625C27.210938 33.59375 27.230469 33.570313 27.25 33.53125C27.277344 33.480469 27.292969 33.425781 27.3125 33.375L30.96875 23.71875C30.96875 23.71875 30.996094 23.71875 31 23.71875C31.035156 23.480469 31.21875 23.3125 31.46875 23.3125C31.742188 23.3125 31.96875 23.535156 31.96875 23.8125C31.96875 23.871094 31.953125 23.917969 31.9375 23.96875L27.5 35.65625C27.382813 35.96875 27.410156 36.289063 27.59375 36.5625C27.785156 36.832031 28.105469 37 28.4375 37L44.15625 37C44.484375 37 44.8125 36.835938 45 36.5625C45.1875 36.289063 45.210938 35.933594 45.09375 35.625L40.65625 23.96875C40.636719 23.917969 40.625 23.839844 40.625 23.78125C40.625 23.503906 40.851563 23.28125 41.125 23.28125C41.375 23.28125 41.585938 23.480469 41.625 23.71875L45.28125 33.375C45.300781 33.425781 45.316406 33.484375 45.34375 33.53125C45.363281 33.566406 45.386719 33.59375 45.40625 33.625C45.4375 33.667969 45.46875 33.714844 45.5 33.75C45.507813 33.761719 45.523438 33.769531 45.53125 33.78125C45.964844 34.558594 46.730469 35 47.59375 35C47.847656 35 48.117188 34.953125 48.375 34.875C49.003906 34.6875 49.507813 34.25 49.78125 33.65625C50.050781 33.070313 50.066406 32.390625 49.8125 31.8125C49.808594 31.800781 49.785156 31.789063 49.78125 31.78125L45.1875 19C44.246094 16.519531 41.789063 14.84375 39.0625 14.84375 Z M 7.09375 29L7.09375 36L20.09375 36L20.09375 29 Z M 7.09375 37L7.09375 47.5C7.09375 48.875 8.21875 50 9.59375 50C10.96875 50 12.09375 48.875 12.09375 47.5L12.09375 37 Z M 15.09375 37L15.09375 47.5C15.09375 48.875 16.21875 50 17.59375 50C18.96875 50 20.09375 48.875 20.09375 47.5L20.09375 37 Z M 31.78125 38L31.78125 48C31.78125 49.101563 32.679688 50 33.78125 50C34.882813 50 35.78125 49.101563 35.78125 48L35.78125 38 Z M 36.78125 38L36.78125 48C36.78125 49.101563 37.679688 50 38.78125 50C39.882813 50 40.78125 49.101563 40.78125 48L40.78125 38Z" fill="#FFFFFF"/> </symbol><symbol viewBox="0 0 50 50" id="icon-relaxare"><title>icon-relaxare</title> <path d="M25 3C21.6875 3 19 5.6875 19 9C19 12.3125 21.6875 15 25 15C28.3125 15 31 12.3125 31 9C31 5.6875 28.3125 3 25 3 Z M 25 17C21.441406 17 16.566406 18.03125 16.566406 18.03125L16.546875 18.046875C15.570313 18.195313 14.753906 18.8125 14.328125 19.664063L14.308594 19.679688L9.601563 28.210938L9.601563 28.214844C9.230469 28.714844 9 29.328125 9 30C9 31.65625 10.34375 33 12 33C12.269531 33 12.527344 32.953125 12.777344 32.886719L12.78125 32.894531L17 31.894531L17 33.878906C17 35.246094 10.042969 39.503906 10.042969 39.503906L10.046875 39.515625C8.785156 40.222656 8.003906 41.554688 8 43C8 45.210938 9.789063 47 12 47L17.761719 47C17.28125 46.285156 17 45.425781 17 44.5C17 42.382813 18.503906 40.53125 20.574219 40.09375L29.78125 38.027344C30.320313 37.90625 30.855469 38.242188 30.972656 38.78125C31.09375 39.320313 30.757813 39.855469 30.21875 39.976563L20.996094 42.050781C19.832031 42.292969 19 43.324219 19 44.5C19 45.878906 20.121094 47 21.5 47L38 47C40.210938 47 42 45.210938 42 43C42 41.574219 41.234375 40.253906 40 39.542969L40.003906 39.527344C40.003906 39.527344 33 35.074219 33 33.796875L33 31.894531L37.21875 32.894531L37.222656 32.886719C37.472656 32.953125 37.730469 33 38 33C39.65625 33 41 31.65625 41 30C41 29.328125 40.769531 28.714844 40.398438 28.214844L40.402344 28.210938L35.691406 19.679688L35.671875 19.664063C35.246094 18.8125 34.429688 18.195313 33.453125 18.046875L33.433594 18.03125C33.433594 18.03125 28.558594 17 25 17 Z M 25 19C25.523438 19 26.730469 19 27.859375 24.234375L33.316406 26.050781C33.839844 26.226563 34.121094 26.792969 33.949219 27.316406C33.808594 27.734375 33.417969 28 33 28C32.894531 28 32.789063 27.980469 32.683594 27.949219L26.683594 25.949219C26.34375 25.835938 26.089844 25.546875 26.019531 25.195313C25.742188 23.816406 25.335938 22.410156 25 21.578125C24.660156 22.410156 24.257813 23.816406 23.980469 25.195313C23.910156 25.546875 23.65625 25.835938 23.316406 25.949219L17.316406 27.949219C16.789063 28.125 16.226563 27.839844 16.050781 27.316406C15.875 26.792969 16.160156 26.226563 16.683594 26.050781L22.136719 24.234375C23.265625 19 24.472656 19 25 19Z" fill="#FFFFFF"/> </symbol><symbol viewBox="0 0 50 50" id="icon-sanatate"><title>icon-sanatate</title> <path d="M35.869,4c-4.289,0-8.055,1.86-10.891,5.38C22.143,5.86,18.392,4,14.131,4C6.339,4,0,10.367,0,18.193 C0,20.267,0.312,22.193,0.843,24h7.539l1.724-3.447c0.178-0.355,0.557-0.566,0.947-0.552c0.396,0.021,0.744,0.275,0.884,0.647 l1.783,4.755l2.801-13.604C16.616,11.333,17.026,11,17.5,11c0.004,0,0.008,0,0.012,0c0.479,0.006,0.887,0.35,0.972,0.821 l3.363,18.493l3.72-9.674C25.715,20.255,26.086,20,26.5,20c0.001,0,0.003,0,0.004,0c0.416,0.002,0.786,0.26,0.933,0.648l2.289,6.104 l1.427-2.283C31.335,24.178,31.655,24,32,24h5.277c0.346-0.595,0.984-1,1.723-1c1.105,0,2,0.895,2,2c0,1.105-0.895,2-2,2 c-0.738,0-1.376-0.405-1.723-1h-4.723l-2.207,3.53c-0.201,0.322-0.574,0.495-0.947,0.465c-0.379-0.038-0.703-0.288-0.837-0.644 l-2.075-5.535l-4.055,10.543C22.284,34.748,21.911,35,21.5,35c-0.03,0-0.062-0.001-0.094-0.004c-0.446-0.042-0.81-0.376-0.89-0.817 l-3.077-16.924l-2.46,11.946c-0.09,0.437-0.458,0.761-0.901,0.796c-0.46,0.035-0.858-0.229-1.015-0.646l-2.194-5.854l-0.975,1.949 C9.725,25.786,9.379,26,9,26H1.534c3.309,8.105,11.339,13.513,17.589,17.716c2.024,1.36,5.203,4.023,5.235,4.05 c0.172,0.145,0.393,0.213,0.617,0.213c0.259,0,0.522-0.091,0.723-0.258c1.333-1.116,3.159-2.646,5.179-4.004 C38.947,38.289,50,30.857,50,18.193C50,10.367,43.661,4,35.869,4z" fill="#FFFFFF"/> </symbol><symbol viewBox="0 0 50 50" id="icon-servicii"><title>icon-servicii</title> <path d="M21.8125 10C21.261719 10.050781 20.855469 10.542969 20.90625 11.09375C20.957031 11.644531 21.449219 12.050781 22 12L24 12L24 13L26 13L26 12L28 12C28.359375 12.003906 28.695313 11.816406 28.878906 11.503906C29.058594 11.191406 29.058594 10.808594 28.878906 10.496094C28.695313 10.183594 28.359375 9.996094 28 10L22 10C21.96875 10 21.9375 10 21.90625 10C21.875 10 21.84375 10 21.8125 10 Z M 25 14C13.542969 14 4.109375 22.804688 3.09375 34L46.90625 34C45.890625 22.804688 36.457031 14 25 14 Z M 2 36C0.898438 36 0 36.898438 0 38L0 42C0 43.101563 0.898438 44 2 44L48 44C49.101563 44 50 43.101563 50 42L50 38C50 36.898438 49.101563 36 48 36Z" fill="#FFFFFF"/> </symbol><symbol viewBox="0 0 50 50" id="icon-sport"><title>icon-sport</title> <path d="M25 2C22.09375 2 19.316406 2.546875 16.753906 3.53125C16.78125 4.3125 16.8125 4.945313 16.8125 4.960938C16.839844 5.792969 16.941406 6.976563 17.203125 8.398438C19.929688 7.25 29.136719 4.03125 39.839844 7.445313C35.828125 4.050781 30.648438 2 25 2 Z M 14.785156 4.398438C13.375 5.101563 12.050781 5.945313 10.824219 6.90625C10.8125 7.449219 10.816406 8.128906 10.839844 9.03125C11.050781 22.179688 18.761719 29.445313 21.328125 31.5C22.296875 29.679688 23.167969 27.597656 23.859375 25.238281C16.09375 17.042969 14.9375 8.414063 14.8125 5.042969C14.8125 5.011719 14.800781 4.761719 14.785156 4.398438 Z M 30.046875 7.910156C23.746094 7.890625 19.011719 9.773438 17.644531 10.382813C18.136719 12.261719 18.914063 14.410156 20.113281 16.6875C22.476563 15.722656 34.15625 11.640625 47.136719 19.171875C47.1875 19.203125 47.226563 19.226563 47.277344 19.253906C46.464844 16.113281 45 13.234375 43.042969 10.761719C41.03125 9.902344 39.46875 9.417969 39.441406 9.410156C36.097656 8.320313 32.910156 7.917969 30.046875 7.910156 Z M 8.828125 8.664063C6.640625 10.828125 4.886719 13.433594 3.703125 16.328125C3.980469 18.722656 4.40625 20.542969 4.414063 20.570313C6.71875 31.113281 13.878906 37.09375 16.023438 38.683594C17.429688 37.289063 18.9375 35.496094 20.324219 33.253906C17.753906 31.242188 9.070313 23.398438 8.835938 9.070313C8.832031 8.921875 8.832031 8.800781 8.828125 8.664063 Z M 30.128906 16.714844C25.675781 16.832031 22.386719 17.9375 21.109375 18.4375C22.207031 20.222656 23.597656 22.058594 25.316406 23.871094C36.449219 21.210938 44.574219 24.625 47.570313 26.234375C47.59375 26.25 47.738281 26.324219 47.953125 26.4375C47.980469 25.960938 48 25.484375 48 25C48 23.941406 47.921875 22.898438 47.78125 21.878906C47.351563 21.613281 46.828125 21.296875 46.140625 20.90625C40.203125 17.460938 34.582031 16.59375 30.128906 16.714844 Z M 2.402344 20.734375C2.140625 22.117188 2 23.542969 2 25C2 32.214844 5.339844 38.660156 10.554688 42.878906C11.03125 42.582031 11.464844 42.308594 11.726563 42.140625C12.4375 41.695313 13.417969 41.003906 14.53125 40.058594C11.894531 38.027344 4.804688 31.71875 2.464844 21.015625C2.460938 20.996094 2.4375 20.894531 2.402344 20.734375 Z M 34.46875 24.894531C34.023438 28.074219 31.59375 39.589844 19.277344 46.984375C19.15625 47.058594 19.058594 47.117188 18.945313 47.1875C20.875 47.710938 22.902344 48 25 48C26.070313 48 27.121094 47.921875 28.152344 47.777344C30.078125 46.339844 31.425781 45.070313 31.445313 45.050781C39.445313 37.757813 41.023438 28.542969 41.316406 25.921875C39.398438 25.394531 37.097656 24.980469 34.46875 24.894531 Z M 32.449219 24.90625C30.386719 24.972656 28.15625 25.246094 25.777344 25.816406C22.574219 36.691406 15.660156 42.027344 12.796875 43.828125C12.769531 43.847656 12.574219 43.96875 12.28125 44.15625C13.578125 45.015625 14.96875 45.75 16.429688 46.339844C16.902344 46.078125 17.480469 45.738281 18.238281 45.277344C29.542969 38.488281 31.960938 28.117188 32.449219 24.90625 Z M 43.257813 26.527344C42.824219 29.820313 40.914063 39.128906 32.808594 46.519531C32.792969 46.535156 32.722656 46.597656 32.609375 46.703125C40.472656 43.933594 46.398438 37.015625 47.71875 28.582031C47.28125 28.347656 46.882813 28.136719 46.628906 28C45.859375 27.585938 44.714844 27.042969 43.257813 26.527344Z" fill="#FFFFFF"/> </symbol><symbol viewBox="0 0 50 50" id="icon-turism"><title>icon-turism</title> <path d="M13 2C12.448 2 12 2.448 12 3L12 7.5722656L6 11L6 12L12 10.285156L12 14L10 16L10 17L13 16L16 17L16 16L14 14L14 10.285156L20 12L20 11L14 7.5722656L14 3C14 2.448 13.552 2 13 2 z M 25 2C21.807 2 18.766 2.6578438 16 3.8398438L16 6.0390625C18.73 4.7370625 21.779 4 25 4C27.45406 4 29.809054 4.4260992 32 5.203125L32 6C31.89 6 31.789688 6.0207813 31.679688 6.0507812L28.679688 7.0507812C28.399687 7.1407813 28.180312 7.3608594 28.070312 7.6308594L27.080078 11.029297C26.880078 11.539297 27.130625 12.130078 27.640625 12.330078L29.619141 12.960938C29.929141 13.080938 30.280391 12.929141 30.400391 12.619141L30.699219 11.849609C30.789219 11.609609 30.740547 11.350156 30.560547 11.160156L29.869141 10.5C29.729141 10.34 29.740391 10.100938 29.900391 9.9609375L30.529297 9.3691406C30.849297 9.0791406 31.340625 9.1001562 31.640625 9.4101562L32.740234 10.570312C32.990234 10.860313 33.069688 11.259141 32.929688 11.619141L31.490234 15.339844C31.360234 15.679844 31.09 15.959375 30.75 16.109375L29.429688 16.679688C28.959687 16.879688 28.629766 17.289297 28.509766 17.779297L28.039062 19.820312C28.019063 19.930313 27.940078 20.030078 27.830078 20.080078L25.740234 21.050781C25.410234 21.160781 25.160078 21.429531 25.080078 21.769531C25.000078 22.109531 25.099609 22.460938 25.349609 22.710938L26.349609 23.710938C26.539609 23.900938 26.790781 24 27.050781 24C27.200781 24 27.36 23.970625 27.5 23.890625L30.980469 20.429688C31.100469 20.319688 31.279922 20.289375 31.419922 20.359375L34.519531 21.880859C34.819531 22.040859 35.190234 22.039141 35.490234 21.869141C35.790234 21.709141 35.98 21.400547 36 21.060547L36 16.390625C36 16.170625 36.170625 16 36.390625 16L37.609375 16C37.889375 16 38.070703 16.279297 37.970703 16.529297L37.029297 18.25C36.959297 18.42 37.000391 18.63 37.150391 18.75L38.25 20.910156C38.43 21.050156 38.679844 21.040859 38.839844 20.880859L39.289062 20.300781C39.609062 19.980781 40.1 19.920625 40.5 20.140625C40.5 20.140625 43.853467 22.053007 45.917969 23.222656C45.967402 23.809257 46 24.400828 46 25C46 25.196311 45.985851 25.388956 45.980469 25.583984L40.470703 22.439453C40.280703 22.329453 40.040625 22.359297 39.890625 22.529297L37.679688 24.880859C37.609688 24.960859 37.500625 25 37.390625 25L32.119141 25C31.799141 25 31.5 25.110547 31.25 25.310547L26.519531 28.099609C26.189531 28.369609 26 28.759453 26 29.189453L26 32.839844C26 33.209844 26.150156 33.560313 26.410156 33.820312L29.179688 36.589844C29.439688 36.849844 29.790156 37 30.160156 37L32.839844 37C33.209844 37 33.560313 36.849844 33.820312 36.589844L35.300781 35.109375C35.370781 35.039375 35.470312 35 35.570312 35L37 35C37.17 35 37.309141 35.109766 37.369141 35.259766L38.009766 37.189453C38.109766 37.479453 38.300547 37.730156 38.560547 37.910156L40.466797 39.183594C38.9234 40.864062 37.110959 42.293353 35.097656 43.402344C35.891656 43.646344 36.670063 43.827922 37.414062 43.919922C37.621063 43.945922 37.807859 43.942078 38.005859 43.955078C44.035859 39.805078 48 32.858 48 25C48 12.318 37.682 2 25 2 z M 7.3554688 13.693359L4.5644531 14.490234C2.9344531 17.643234 2 21.212 2 25C2 37.682 12.318 48 25 48C26.512 48 27.988922 47.849312 29.419922 47.570312C28.438922 47.084313 27.463906 46.535828 26.503906 45.923828C26.005906 45.958828 25.507 46 25 46C21.381874 46 17.974953 45.078704 15 43.460938L15 40.160156L15.949219 37.320312C16.029219 37.060313 16.010625 36.790781 15.890625 36.550781L13.890625 32.550781C13.730625 32.210781 13.38 32 13 32L10.160156 32L7.3203125 31.050781C7.2103125 31.020781 7.11 31 7 31L4.8769531 31C4.6152818 30.123943 4.4077281 29.224266 4.2617188 28.304688L7.5996094 25.800781C7.7796094 25.660781 7.9107031 25.470234 7.9707031 25.240234L8.9707031 21.240234C9.0407031 20.950234 8.9807812 20.640391 8.8007812 20.400391L5.8515625 16.46875C6.2876505 15.504703 6.7865971 14.575691 7.3554688 13.693359 z M 22.990234 13.990234 A 1.0001 1.0001 0 0 0 22.292969 15.707031L23.3125 16.726562L22.552734 17.105469 A 1.0001163 1.0001163 0 1 0 23.447266 18.894531L25.447266 17.894531 A 1.0001 1.0001 0 0 0 25.707031 16.292969L23.707031 14.292969 A 1.0001 1.0001 0 0 0 22.990234 13.990234 z M 13 18.107422L12.007812 18.439453C12.062812 24.177453 14.666938 30.770281 19.210938 36.613281C23.960938 42.719281 30.913828 47.144672 36.923828 47.888672C37.496828 47.959672 38.052844 47.994141 38.589844 47.994141C40.726844 47.994141 42.559172 47.435656 43.951172 46.347656C46.382172 44.447656 47.380094 41.166453 46.871094 37.064453C46.303094 38.089453 45.662078 39.071766 44.955078 40.009766C44.783078 42.087766 44.044703 43.738438 42.720703 44.773438C41.406703 45.801437 39.486922 46.193297 37.169922 45.904297C31.743922 45.232297 25.160062 41.006719 20.789062 35.386719C16.578062 29.972719 14.070813 23.677359 14.007812 18.443359L13 18.107422 z" fill="#FFFFFF"/> </symbol><symbol viewBox="0 0 48 46" id="icon-veterinar"><title>icon-veterinar</title> <path d="M17,0 A 6,7.5 0 1 0 17,15 6,7.5 0 1 0 17,0 Z M 6,11 A 6,7.5 0 1 0 6,26 6,7.5 0 1 0 6,11 Z m 36,0 a 6,7.5 0 1 0 0,15 6,7.5 0 1 0 0,-15 z M 31,0 a 6,7.5 0 1 0 0,15 6,7.5 0 1 0 0,-15 z m 9.938,36.06 a 13.8,13.8 0 0 0 -1.861,-5.581c-0.46,-0.754 -0.9,-1.5 -1.334,-2.227C34.163,22.215 31.071,17 24,17 16.929,17 13.852,22.215 10.271,28.252 9.839,28.98 9.397,29.725 8.938,30.48 A 13.764,13.764 0 0 0 7.077,36.06 8.822,8.822 0 0 0 9.253,42.952 9.111,9.111 0 0 0 16.065,46 H 31.95 a 9.111,9.111 0 0 0 6.812,-3.048 8.829,8.829 0 0 0 2.176,-6.892 z M 31,34 a 1,1 0 0 1 -1,1 h -4 v 4 a 1,1 0 0 1 -1,1 h -2 a 1,1 0 0 1 -1,-1 v -4 h -4 a 1,1 0 0 1 -1,-1 v -2 a 1,1 0 0 1 1,-1 h 4 v -4 a 1,1 0 0 1 1,-1 h 2 a 1,1 0 0 1 1,1 v 4 h 4 a 1,1 0 0 1 1,1 z" fill="#FFFFFF"/> </symbol></svg>