<?xml version="1.0" encoding="UTF-8" standalone="no"?>
<!DOCTYPE svg PUBLIC "-//W3C//DTD SVG 1.1//EN" "http://www.w3.org/Graphics/SVG/1.1/DTD/svg11.dtd">
<svg width="100%" height="100%" viewBox="0 0 2000 2000" version="1.1" xmlns="http://www.w3.org/2000/svg" xmlns:xlink="http://www.w3.org/1999/xlink" xml:space="preserve" xmlns:serif="http://www.serif.com/" style="fill-rule:evenodd;clip-rule:evenodd;stroke-linejoin:round;stroke-miterlimit:2;">
    <g transform="matrix(1,0,0,1,-4426.4,0)">
        <g id="_-" serif:id=" " transform="matrix(1,0,0,1,4426.4,0)">
            <rect x="0" y="0" width="2000" height="2000" style="fill:none;"/>
            <g transform="matrix(1,0,0,1,-4426.4,0)">
                <path d="M4926.44,2000L5021.91,1855.85L5005.23,1844.8C5000.63,1841.76 4999.37,1835.55 5002.42,1830.94C5005.47,1826.34 5011.68,1825.08 5016.28,1828.13L5275.78,2000L5238.29,2000L5238.68,1999.41L5038.58,1866.89L4988.89,1941.93L5076.57,2000L4926.44,2000ZM5856.17,2000C5857.74,1998.61 5859.36,1997.26 5861.01,1995.95C5886.1,1976.15 5918.36,1968.4 5949.49,1974.68L5960.47,1976.9L5978.26,1888.67L5968.46,1886.7C5963.04,1885.6 5959.54,1880.34 5960.63,1874.92C5961.73,1869.5 5966.99,1866 5972.41,1867.09L6109.65,1894.77C6115.07,1895.86 6118.57,1901.12 6117.48,1906.55C6116.38,1911.97 6111.12,1915.47 6105.7,1914.37L6095.9,1912.39L6089.96,1941.8L6134.08,1950.7C6157.2,1955.36 6172.58,1976.98 6169.88,2000L6149.64,2000L6149.69,1999.75C6152.42,1986.22 6143.66,1973.03 6130.12,1970.3L6086.01,1961.41L6078.23,2000L5856.17,2000ZM6426.4,1439.72L6426.4,1465.8L6176.46,1531.51L6291.6,1835.57L6291.44,1834.95C6304.8,1870.43 6348.42,1890.52 6396.47,1877.89L6426.4,1870.02L6426.4,1961.29L6355.51,1979.93C6336.77,1984.86 6317.36,1974.84 6310.51,1956.73L6147.92,1527.34C6146.65,1523.99 6146.86,1520.27 6148.5,1517.09C6150.14,1513.92 6153.05,1511.58 6156.5,1510.67L6426.4,1439.72ZM6347.34,1968.53C6347.2,1968.53 6347.06,1968.54 6346.92,1968.55C6346.78,1968.55 6346.64,1968.56 6346.5,1968.56C6346.78,1968.55 6347.06,1968.54 6347.34,1968.53ZM6344.43,1968.53L6344.72,1968.54L6344.17,1968.51L6344.43,1968.53ZM6343.57,1968.46L6343.74,1968.48L6343.34,1968.44L6343.57,1968.46ZM6350.77,1968.09L6349.96,1968.23L6349.07,1968.36L6349.84,1968.25L6350.61,1968.12L6351.12,1968.02L6350.77,1968.09ZM6341.7,1968.22L6340.74,1968.04L6340.98,1968.09L6341.75,1968.23L6342.39,1968.33L6341.7,1968.22ZM6338.16,1967.35C6338.3,1967.4 6338.45,1967.44 6338.59,1967.49C6338.74,1967.53 6338.88,1967.57 6339.03,1967.62C6338.74,1967.53 6338.45,1967.45 6338.16,1967.35ZM6336.26,1966.66C6336.53,1966.77 6336.8,1966.87 6337.07,1966.97C6337.33,1967.07 6337.61,1967.17 6337.88,1967.26C6337.33,1967.08 6336.79,1966.88 6336.26,1966.66ZM6334.95,1966.07C6335.1,1966.14 6335.25,1966.22 6335.4,1966.28C6335.56,1966.35 6335.71,1966.42 6335.86,1966.49C6335.56,1966.36 6335.25,1966.22 6334.95,1966.07ZM6333.6,1965.37C6333.8,1965.48 6334,1965.59 6334.21,1965.7C6334.41,1965.81 6334.62,1965.91 6334.82,1966.01C6334.41,1965.81 6334,1965.6 6333.6,1965.37ZM6328.99,1962.08L6328.49,1961.62L6328.99,1962.08ZM5484.7,1596.19C5470.32,1592.18 5432.52,1583.42 5431.78,1601.73C5430.96,1622.03 5478.59,1608.77 5488.35,1605.84L5489.31,1606.6C5484.25,1614.17 5458.15,1654.68 5475.89,1662.05C5486.08,1666.28 5491.46,1651.38 5494.28,1636.11L5567.55,1694.37C5553.58,1705.02 5537.48,1712.53 5519.87,1716.3C5454.63,1730.27 5390.18,1688.55 5376.22,1623.31C5362.25,1558.07 5403.96,1493.63 5469.2,1479.66C5531.26,1466.38 5592.11,1502.82 5610.23,1562.98L5546.05,1576.72C5549.25,1572.54 5550.1,1568.2 5546.63,1564C5536.48,1551.68 5516.24,1572.2 5505.11,1585.49L5805.35,1521.21L5806.77,1521.01C5810.09,1520.78 5813.34,1522.23 5815.39,1524.92C5817.73,1527.99 5818.11,1532.14 5816.32,1535.58L5701.95,1756.77C5702.25,1757.42 5702.65,1758 5702.8,1758.71L5726.01,1867.12C5767.19,1866.01 5844.07,1867.85 5854.77,1896.32C5855.22,1897.16 5855.56,1898.06 5855.76,1899.03C5856.92,1904.43 5853.49,1909.74 5848.08,1910.9L5613.2,1961.18C5607.8,1962.34 5602.49,1958.91 5601.33,1953.5C5594.67,1922.4 5667.23,1887.64 5706.45,1871.31L5683.24,1762.9C5683.09,1762.18 5683.21,1761.49 5683.22,1760.8L5488.32,1605.81C5485.33,1603.43 5484.06,1599.7 5484.7,1596.19ZM4426.4,1439.72L4619.97,1388.84C4623.42,1387.93 4627.1,1388.53 4630.09,1390.49C4633.08,1392.45 4635.1,1395.59 4635.64,1399.12C4635.64,1399.12 4705.26,1852.96 4705.26,1852.96C4708.19,1872.1 4696.21,1890.36 4677.48,1895.29L4426.4,1961.29L4426.4,1870.02L4591.61,1826.59C4639.67,1813.95 4667.77,1775.01 4661.96,1737.55L4662.15,1738.26L4680.33,1856.78C4680.34,1856.87 4680.35,1856.95 4680.36,1857.03C4680.35,1856.95 4680.34,1856.87 4680.33,1856.78L4612.83,1416.79L4426.4,1465.8L4426.4,1439.72ZM6326.23,1959.17C6326.45,1959.45 6326.69,1959.73 6326.93,1960C6327.16,1960.27 6327.41,1960.53 6327.65,1960.79C6327.16,1960.27 6326.68,1959.73 6326.23,1959.17ZM6324.91,1957.38L6324.69,1957.05L6325.06,1957.6L6325.35,1958.02L6324.91,1957.38ZM6343.45,1955.72L6343.55,1955.74L6343.41,1955.71L6343.45,1955.72ZM6342.62,1955.52L6342.66,1955.53L6342.59,1955.52L6342.62,1955.52ZM6323.6,1955.18L6323.24,1954.49L6323.48,1954.96L6323.76,1955.48L6323.6,1955.18ZM6340.49,1954.74L6340.57,1954.78L6340.47,1954.73L6340.49,1954.74ZM6322.87,1953.7C6322.9,1953.78 6322.94,1953.87 6322.98,1953.95L6322.75,1953.43L6322.87,1953.7ZM6338.77,1953.75L6338.87,1953.82L6338.67,1953.68L6338.77,1953.75ZM5329.62,1807.77C5334.23,1810.82 5335.49,1817.02 5332.44,1821.63L5299.31,1871.65L5315.98,1882.69L5304.94,1899.37L5288.27,1888.33L5249.61,1946.68C5246.56,1951.29 5240.36,1952.55 5235.75,1949.5L5085.68,1850.11C5081.08,1847.06 5079.82,1840.85 5082.87,1836.25L5121.52,1777.89L5104.85,1766.84L5115.89,1750.17L5132.56,1761.21L5160.17,1719.53L5126.82,1697.44C5122.22,1694.39 5120.96,1688.18 5124.01,1683.58C5127.06,1678.98 5133.27,1677.72 5137.87,1680.77L5329.62,1807.77ZM4675.43,1882.76C4675.61,1882.7 4675.78,1882.64 4675.96,1882.58L4676.3,1882.47L4675.43,1882.76ZM4680.27,1880.66L4680.25,1880.67L4680.39,1880.59L4680.27,1880.66ZM4681.5,1879.91L4681.41,1879.98L4681.63,1879.83L4681.5,1879.91ZM4682.92,1878.93L4682.7,1879.1L4683.04,1878.84L4682.92,1878.93ZM4686.5,1875.69C4686.32,1875.88 4686.15,1876.07 4685.97,1876.25C4685.79,1876.44 4685.61,1876.62 4685.42,1876.8C4685.79,1876.44 4686.15,1876.07 4686.5,1875.69ZM4688.45,1873.26C4688.19,1873.62 4687.93,1873.98 4687.65,1874.33C4687.37,1874.68 4687.09,1875.02 4686.79,1875.36C4687.38,1874.69 4687.93,1873.99 4688.45,1873.26ZM4690.1,1870.59C4689.94,1870.88 4689.78,1871.17 4689.61,1871.46C4689.44,1871.75 4689.26,1872.04 4689.08,1872.32C4689.44,1871.76 4689.78,1871.18 4690.1,1870.59ZM4674.52,1869.41C4674.15,1869.64 4673.77,1869.85 4673.37,1870.05C4672.97,1870.24 4672.56,1870.41 4672.14,1870.56C4672.98,1870.26 4673.78,1869.87 4674.52,1869.41ZM4675.36,1868.84L4675.17,1868.98L4675.52,1868.72L4675.36,1868.84ZM4692.04,1865.89L4692,1866.01L4692.1,1865.69L4692.04,1865.89ZM4679.47,1863.62C4679.35,1863.9 4679.22,1864.18 4679.08,1864.46C4678.94,1864.73 4678.79,1865 4678.63,1865.26C4678.95,1864.74 4679.23,1864.19 4679.47,1863.62ZM4692.75,1862.82L4692.61,1863.59L4692.41,1864.51L4692.48,1864.19L4692.62,1863.54L4692.76,1862.75L4692.85,1862.18L4692.75,1862.82ZM4693.04,1860.22L4693.03,1860.43L4693.05,1860.07L4693.04,1860.22ZM4680.44,1857.73L4680.45,1857.97L4680.42,1857.53L4680.44,1857.73ZM4692.85,1855.18C4692.89,1855.52 4692.94,1855.87 4692.97,1856.21C4693,1856.55 4693.03,1856.89 4693.05,1857.23C4693.01,1856.55 4692.94,1855.87 4692.85,1855.18ZM6426.4,1843.94L6390.06,1853.49C6356.52,1862.31 6324.26,1850.71 6315.13,1826.38L6286.28,1750.38L6321.41,1741.15L6311.79,1704.56C6310.02,1697.82 6314.04,1690.93 6320.78,1689.16L6418.35,1663.51C6421.13,1662.78 6423.94,1663.03 6426.4,1664.06L6426.4,1743.73L6412.57,1691.11L6339.39,1710.34L6358.62,1783.52L6426.4,1765.7L6426.4,1843.94ZM4426.4,1664.06C4429.9,1665.52 4432.71,1668.54 4433.75,1672.5L4443.37,1709.09L4469.53,1702.21L4478.53,1641.73C4479.56,1634.84 4485.98,1630.09 4492.87,1631.12L4589.06,1645.44C4595.95,1646.47 4600.7,1652.88 4599.67,1659.77L4598.4,1668.33L4624.86,1661.38L4637.11,1741.74C4641.12,1767.41 4618.74,1793.38 4585.2,1802.19L4426.4,1843.94L4426.4,1765.7L4431.8,1764.28L4426.4,1743.72L4426.4,1664.06ZM5994.11,1542.4C5957.71,1616.37 6034.42,1671.86 6021.14,1718.67C6009.97,1758.03 5968.95,1780.91 5929.59,1769.74C5890.24,1758.57 5867.35,1717.55 5878.52,1678.19C5891.81,1631.39 5946.43,1574.64 5994.11,1542.4ZM5012.19,1647.63C5014.57,1636.65 5020.75,1623.82 5027.93,1608.96C5038.55,1586.92 5051.78,1559.48 5059.49,1523.98C5065.21,1497.6 5063.52,1475.16 5059.23,1454.41L5059.67,1452.39L5058.73,1452.19C5056.31,1441.06 5053.24,1430.37 5050.14,1419.84C5042.23,1392.93 5034.86,1367.3 5039.48,1335.45L4960.39,1318.29C4951.4,1349.19 4934.06,1369.46 4915.72,1390.67C4908.53,1398.98 4901.31,1407.42 4894.5,1416.55L4893.54,1416.34L4893.1,1418.36C4880.6,1435.46 4869.76,1455.18 4864.03,1481.57C4856.33,1517.07 4857,1547.52 4857.53,1571.98C4857.9,1588.48 4858.21,1602.71 4855.83,1613.7C4852.9,1627.16 4845.19,1637.55 4837.71,1647.6C4830.66,1657.08 4824,1666.05 4821.62,1677.02C4816.95,1698.53 4832.79,1710.14 4844.57,1712.69L4981.39,1742.39C4993.18,1744.94 5012.4,1740.94 5017.07,1719.43C5019.45,1708.47 5017.1,1697.54 5014.62,1685.99C5011.98,1673.74 5009.27,1661.09 5012.19,1647.63ZM4491.02,1729.17L4562.26,1739.78L4572.87,1668.53L4501.62,1657.92L4491.02,1729.17ZM4964.5,1718.26L4944.57,1713.93C4946.47,1710.96 4948.01,1707.59 4948.66,1704.59C4950.35,1696.81 4950.31,1688.12 4950.26,1678.08C4950.19,1665.24 4950.12,1650.7 4953.74,1634.06C4956.6,1620.88 4963.73,1597.18 4970.44,1576.29L4990.06,1580.54C4983.35,1601.38 4976.08,1625.4 4973.28,1638.3C4970.14,1652.79 4970.19,1665.59 4970.26,1677.98C4970.31,1688.74 4970.36,1698.9 4968.21,1708.83C4967.4,1712.53 4966.06,1715.54 4964.5,1718.26ZM4899.56,1667.08C4895.35,1676.19 4891.72,1684.08 4890.03,1691.86C4889.38,1694.86 4889.38,1698.57 4889.88,1702.06L4869.95,1697.74C4869.66,1694.62 4869.68,1691.32 4870.48,1687.62C4872.64,1677.69 4876.9,1668.47 4881.4,1658.7C4886.6,1647.45 4891.96,1635.82 4895.1,1621.33C4897.9,1608.43 4901.24,1583.56 4903.76,1561.82L4923.39,1566.07C4920.83,1587.87 4917.51,1612.39 4914.65,1625.57C4911.03,1642.22 4904.95,1655.43 4899.56,1667.08ZM5771.01,1579.69L5547.72,1627.5L5517.33,1603.33L5788.85,1545.19L5771.01,1579.69ZM5496.93,1587.24C5495.92,1570.81 5491.86,1535.75 5475.5,1541.13C5458.64,1546.68 5477.75,1579.05 5486.36,1592.2C5486.47,1592.05 5486.59,1591.9 5486.7,1591.75C5488.35,1589.69 5490.66,1588.51 5493.07,1588.15L5493.06,1588.07L5496.93,1587.24ZM4877.53,1535.66C4878.09,1520.38 4879.65,1503.9 4883.58,1485.81C4887.65,1467.06 4894.66,1452.16 4903.24,1438.91L5041.51,1468.91C5043.81,1484.53 5044.01,1501 5039.94,1519.74C5036.02,1537.83 5030.61,1553.48 5024.78,1567.61L4877.53,1535.66ZM5213.91,1254.83C5213.25,1356.36 5098.17,1375.21 5087.02,1434.1C5077.63,1483.6 5110.21,1531.41 5159.71,1540.79C5209.22,1550.18 5257.03,1517.6 5266.41,1468.1C5277.57,1409.22 5248.66,1316.62 5213.91,1254.83ZM6067.04,1063.36L6061.83,1077.62L6134,1103.95L6128.33,1134.69C6071.74,1118.96 6011.51,1149.13 5991.03,1205.23C5989.6,1209.16 5991.62,1213.52 5995.56,1214.96L6003.58,1217.88L5996.73,1247.69L6092.06,1282.48C6096,1283.92 6098.03,1288.27 6096.59,1292.21C6095.15,1296.15 6090.8,1298.17 6086.86,1296.74L5993.32,1262.6L5963.92,1390.18C5963.06,1393.9 5965.18,1397.7 5968.77,1399.01L6097.06,1445.83C6100.65,1447.14 6104.72,1445.6 6106.46,1442.2L6166.15,1325.67L6122.49,1309.74C6118.55,1308.3 6116.53,1303.96 6117.97,1300.01C6119.41,1296.07 6123.76,1294.05 6127.7,1295.49L6173.13,1312.07L6187.1,1284.86L6195.12,1287.79C6199.05,1289.23 6203.41,1287.2 6204.85,1283.26C6225.6,1226.41 6197.97,1163.55 6143.11,1139.84L6150.37,1100.59C6151.09,1096.89 6148.99,1093.22 6145.44,1091.97L6067.04,1063.36ZM5001.06,1399.38C5006.53,1398.62 5011.61,1402.37 5012.41,1407.83L5017.58,1443.26L4996.71,1438.73L4992.62,1410.74C4991.82,1405.27 4995.61,1400.19 5001.06,1399.38ZM4955.01,1395.39C4957.99,1390.73 4964.18,1389.43 4968.84,1392.4C4973.48,1395.39 4974.81,1401.59 4971.82,1406.23L4956.5,1430L4935.63,1425.47L4955.01,1395.39ZM5749.41,1153.23L5487.35,1153.23C5468.87,1185.82 5458.38,1221.94 5458.38,1254.73C5458.38,1317.34 5496.16,1370.17 5556.99,1392.61L5558.66,1393.23L5678.1,1393.23L5679.77,1392.61C5740.6,1370.17 5778.38,1317.34 5778.38,1254.73C5778.38,1221.94 5767.89,1185.82 5749.41,1153.23ZM5043.27,1315.81L4965.09,1298.84C4959.24,1297.57 4955.53,1291.8 4956.8,1285.96L4959.98,1271.3C4962.91,1257.8 4976.04,1250.05 4989.54,1252.98L5040.04,1263.94C5053.54,1266.87 5062.28,1279.37 5059.35,1292.87L5056.17,1307.53C5054.89,1313.36 5049.12,1317.08 5043.27,1315.81ZM5441.36,1286.06C5419.54,1272.88 5398.38,1252.32 5398.38,1222.05C5398.38,1208.93 5412.09,1183.23 5443.77,1183.23C5446.54,1183.23 5449.15,1183.37 5451.64,1183.59C5453.94,1177.12 5456.47,1170.69 5459.34,1164.34C5454.62,1163.69 5449.46,1163.23 5443.77,1163.23C5401.1,1163.23 5378.38,1197.39 5378.38,1222.05C5378.38,1270.37 5417.94,1298.13 5448.58,1312.43C5445.46,1303.94 5443.05,1295.13 5441.36,1286.06ZM4426.4,986.527L4573.31,1036.63C4567.89,1043.23 4564.06,1048.26 4562.12,1053.94C4556.64,1070.03 4564.74,1086.53 4580.84,1092.02C4596.93,1097.51 4613.43,1089.4 4618.91,1073.31C4620.85,1067.63 4620.89,1061.31 4620.64,1052.77L4701.09,1080.2L4638.47,1263.82C4624.91,1303.57 4595.4,1318.86 4554.7,1304.98L4426.4,1261.23L4426.4,986.527ZM5878.03,1140.61C5876.85,1136.25 5872.89,1133.23 5868.38,1133.23L5831.47,1133.23C5814.58,1133.23 5810.13,1148.92 5806.57,1161.53C5803.29,1173.1 5799.69,1185.65 5788.94,1194.92C5795.06,1215.15 5798.38,1235.51 5798.38,1254.73C5798.38,1273.66 5795.27,1291.75 5789.54,1308.66C5837.03,1283.25 5849.65,1229.87 5858.34,1192.84C5862.64,1174.52 5867.09,1155.57 5873.44,1151.86C5877.34,1149.59 5879.21,1144.97 5878.03,1140.61ZM6131.75,1151.59C6180.57,1169.41 6206.3,1221.49 6192.53,1270.69L6008.56,1203.55C6029.7,1157.04 6082.94,1133.78 6131.75,1151.59ZM6426.4,986.525L6426.4,1261.23L6376.77,1244.3C6337.02,1230.75 6321.73,1201.23 6335.6,1160.53L6398.22,976.916L6426.4,986.525ZM4758.31,1036.32C4751.69,1034.06 4744.74,1032.75 4738.74,1031.76L4732.28,1050.69C4738.28,1051.68 4745.23,1052.99 4751.86,1055.25C4774.57,1063 4784.55,1083.31 4776.8,1106.02C4759.05,1158.08 4720.15,1203.98 4679.35,1205.91L4672.57,1225.79C4726.31,1229.32 4774.75,1174 4795.73,1112.48C4807.03,1079.35 4791.44,1047.62 4758.31,1036.32ZM4893.59,951.213C4860.51,932.934 4838.15,898.716 4838.15,858.421C4838.15,800.948 4885.68,753.421 4943.15,753.421C4982.04,753.421 5016.37,775.178 5034.51,807.048C5049.66,804.611 5067.25,803.421 5088.15,803.421C5101.52,803.421 5114.99,803.882 5127.9,805.46C5132.07,805.972 5135.25,806.319 5137.89,806.601L5114.36,853.64C5114.31,853.632 5114.19,853.612 5114.14,853.612C5105.64,852.659 5097.14,852.659 5088.15,852.659C5072.51,852.659 5059.61,853.526 5048.11,855.374C5048.14,856.39 5048.15,857.404 5048.15,858.421C5048.15,872.883 5045.82,887.323 5040.25,899.559C5039.06,902.178 5036.8,904.157 5034.05,904.992C5031.3,905.826 5028.32,905.434 5025.88,903.917L4982.03,876.692C4981.08,877.585 4979.95,878.308 4978.66,878.792C4966.03,883.523 4953.15,900.999 4953.15,913.421C4953.15,913.722 4953,913.98 4952.98,914.273L4952.43,914.022C4929.29,903.378 4912.09,890.409 4908.85,877.401C4911.27,862.222 4922.67,847.659 4941.92,835.89C4942.27,835.675 4942.63,835.484 4943,835.317C4946.11,833.453 4950.13,833.351 4953.43,835.395L5025.77,880.309C5027.46,873.331 5028.15,865.872 5028.15,858.421C5028.15,811.895 4989.68,773.421 4943.15,773.421C4896.62,773.421 4858.15,811.895 4858.15,858.421C4858.15,888.712 4873.79,914.719 4897.43,930.194C4899.26,920.861 4901.14,912.139 4902.81,904.71C4935.6,939.05 5017.58,963.421 5088.15,963.421C5122.37,963.421 5159.27,957.683 5191.95,947.87C5189.91,1011.76 5168.15,1065.02 5167.93,1065.58C5165.81,1070.68 5168.22,1076.53 5173.32,1078.65C5174.57,1079.18 5175.88,1079.42 5177.16,1079.42C5181.08,1079.42 5184.79,1077.11 5186.39,1073.27C5187.43,1070.76 5211.7,1011.61 5212.08,941.081C5238.28,931.241 5260.32,918.683 5273.81,904.39C5279.82,929.773 5288.15,970.851 5288.15,1003.42C5288.15,1113.7 5198.43,1203.42 5088.15,1203.42C4977.87,1203.42 4888.15,1113.7 4888.15,1003.42C4888.15,988.57 4890.49,969.68 4893.59,951.213ZM5585.41,1085.86C5580.98,1079.42 5578.38,1071.62 5578.38,1063.23C5578.38,1041.17 5596.32,1023.23 5618.38,1023.23C5640.44,1023.23 5658.38,1041.17 5658.38,1063.23C5658.38,1071.62 5655.79,1079.42 5651.36,1085.86C5703.14,1094.46 5728.94,1121.97 5737.56,1133.23L5499.19,1133.23C5507.81,1121.98 5533.62,1094.47 5585.41,1085.86ZM5618.38,1043.23C5607.35,1043.23 5598.38,1052.2 5598.38,1063.23C5598.38,1074.26 5607.35,1083.23 5618.38,1083.23C5629.41,1083.23 5638.38,1074.26 5638.38,1063.23C5638.38,1052.2 5629.41,1043.23 5618.38,1043.23ZM4426.4,833.02C4438.81,804.981 4471.08,790.454 4500.62,800.53C4511.98,804.403 4521.1,811.74 4528.63,820.646C4547.07,806.859 4570.49,803.226 4592.26,810.649C4612.14,817.427 4627.84,833.347 4634.98,852.687C4643.84,851.483 4653.01,852.495 4661.53,855.4C4675.72,860.242 4687.36,869.493 4694.54,882.508C4707.86,877.54 4723.05,876.38 4737.24,881.221C4768.48,891.872 4785.32,926.142 4774.67,957.376C4767.57,978.198 4750.08,992.308 4729.49,996.91L4707.54,1061.27L4620.47,1031.58C4619.93,1017.66 4622.58,1000.6 4630,978.831C4635.49,962.74 4650.09,953.987 4659.3,948.674C4661.84,947.427 4663.43,945.856 4664.7,945.233C4670.1,941.791 4677.67,944.374 4679.85,950.397C4684.19,962.444 4692.66,971.673 4704.97,975.869C4725.79,982.97 4748.64,971.743 4755.74,950.92C4762.84,930.098 4751.61,907.252 4730.79,900.151C4718.48,895.955 4706.14,898.083 4695.34,904.966C4689.94,908.407 4682.37,905.825 4680.19,899.802C4675.85,887.755 4667.38,878.526 4655.07,874.33C4647.5,871.748 4638.96,872.005 4631.04,873.531C4628.5,874.779 4625.34,874.757 4622.82,872.842C4621.26,871.25 4619.06,868.389 4618.76,866.173C4615.08,849.071 4602.84,835.389 4585.81,829.579C4567.82,823.446 4547.24,828.048 4532.91,842.18C4530.99,844.696 4527.51,845.621 4524.35,845.599C4521.51,844.631 4518.05,842.393 4516.8,839.855C4512.75,830.024 4504.58,823.01 4494.17,819.46C4473.35,812.359 4450.5,823.586 4443.4,844.408C4436.3,865.231 4447.53,888.077 4468.35,895.178C4481.6,899.697 4496.16,897.267 4506.66,888.169C4509.52,885.975 4513.01,885.05 4515.85,886.019C4518.69,886.987 4521.2,888.902 4522.13,892.387C4527.4,907.919 4538.39,919.063 4553.53,924.227C4565.84,928.423 4579.75,927.886 4592.12,922.596C4594.66,921.348 4596.88,921.047 4599.72,922.016C4602.56,922.984 4604.13,924.576 4605.37,927.114L4606.62,929.653C4610.04,938.215 4617.2,954.392 4611.07,972.375C4603.65,994.144 4594.37,1008.94 4586.39,1019.96L4426.4,965.397L4426.4,894.262L4428.88,887C4427.98,885.356 4427.15,883.666 4426.4,881.938L4426.4,833.02ZM5965.35,927.273L5979.69,875.922C5982.8,877.102 5985.85,878.32 5989.19,879.25C5992.42,880.148 5995.69,880.711 5998.97,881.289L5984.62,932.65C6029.61,947.804 6044.72,973.194 6039.3,992.68C6038.58,995.238 6036.89,997.41 6034.58,998.719C6033.06,999.559 6031.38,1000 6029.67,1000C6028.76,1000 6027.85,999.879 6026.97,999.629L5894.42,962.621C5891.86,961.91 5889.69,960.211 5888.4,957.898C5887.1,955.59 5886.76,952.852 5887.47,950.289C5892.1,933.711 5910.33,923.801 5936.22,923.801C5945.21,923.801 5954.98,924.966 5965.35,927.273ZM6300.12,907.961C6340.43,899.212 6371.78,908.616 6377.99,930.988C6379.47,936.309 6376.38,941.82 6371.06,943.301L6238.49,980.301C6237.61,980.57 6236.7,980.68 6235.81,980.68C6234.1,980.68 6232.4,980.238 6230.9,979.391C6228.58,978.078 6226.89,975.91 6226.17,973.359C6220.75,953.874 6235.86,928.488 6280.86,913.314L6266.53,861.969C6269.8,861.391 6273.06,860.828 6276.31,859.922C6279.64,858.988 6282.67,857.77 6285.79,856.602L6300.12,907.961ZM6426.4,894.284L6426.4,965.394L6404.68,957.986L6426.4,894.284ZM5680.55,849.234L5712.06,843.442L5714.71,771.513L5704.71,771.146C5638.49,768.71 5586.77,713.044 5589.21,646.816C5589.21,646.816 5589.4,641.518 5589.57,636.822C5591.44,586.237 5615.34,485.707 5615.34,485.707L5617.24,477.732L5853.49,486.422L5854.79,494.522C5854.79,494.522 5871.23,596.917 5869.39,647.115C5869.24,651.093 5869.02,657.109 5869.02,657.109C5866.58,723.337 5810.91,775.052 5744.69,772.616L5734.69,772.249L5732.05,844.178L5794.15,860.393C5809.98,864.535 5820.82,879.108 5820.22,895.476L5819.85,905.469L5732.71,902.264L5773.57,943.794L5414.08,930.57L5411.97,923.833C5411.97,923.833 5400.26,886.731 5401.98,840.063C5404.12,781.676 5414.93,750.101 5415.81,747.61C5415.85,747.511 5415.88,747.412 5415.92,747.314L5418.36,740.598L5579.51,746.527L5680.55,849.234ZM5158.93,809.517L5199.21,728.952C5200.52,726.343 5202.9,724.433 5205.73,723.722L5285.73,703.722C5291.08,702.351 5296.51,705.64 5297.85,710.999C5299.2,716.362 5295.94,721.792 5290.57,723.132L5215.03,742.011L5179.13,813.823C5230.96,826.902 5263.14,850.123 5267.49,877.112C5264.51,890.081 5247.53,903.569 5223.7,914.511L5223.99,913.8C5223.98,913.671 5223.91,913.562 5223.91,913.421C5223.91,893.183 5197.86,873.093 5157.21,861.581C5156.64,861.442 5156.05,861.302 5155.46,861.162L5127.09,917.901C5125.34,921.401 5121.81,923.421 5118.14,923.421C5116.64,923.421 5115.11,923.081 5113.68,922.37C5108.74,919.901 5106.74,913.89 5109.21,908.952L5135.17,857.024L5135.04,856.999L5158.8,809.491L5158.93,809.517ZM5450.04,761.777L5603.24,917.514L5724.03,921.958L5570.83,766.221L5450.04,761.777ZM5623.88,893.198C5619.52,894.406 5611.79,889.751 5606.61,882.787C5601.44,875.818 5600.77,869.192 5605.13,867.98C5609.49,866.769 5617.22,871.427 5622.4,878.391C5627.57,885.348 5628.24,891.975 5623.88,893.198ZM6426.4,833.037L6426.4,881.92C6420.63,868.63 6419.34,853.022 6424.48,837.953C6425.05,836.273 6425.69,834.634 6426.4,833.037ZM6144.14,614.871L5993.58,572.789C5988.58,571.359 5983.35,574.039 5981.53,578.898C5980.26,582.27 5950.38,661.879 5939.51,700.77C5921.6,765.039 5931.17,842.281 5994.56,859.98C6001.69,861.969 6008.92,862.98 6016.01,862.98C6062.85,862.98 6105.28,819.539 6124.1,752.309C6134.85,713.77 6150.6,629.898 6151.26,626.352C6152.22,621.25 6149.13,616.262 6144.14,614.871ZM5615.59,852.495C5609.56,854.173 5598.86,847.728 5591.69,838.087C5584.52,828.446 5583.6,819.277 5589.63,817.588C5595.67,815.905 5606.37,822.354 5613.54,831.995C5620.71,841.644 5621.63,850.817 5615.59,852.495ZM6325.95,681.449C6315.1,642.57 6285.22,562.961 6283.95,559.59C6282.11,554.738 6276.89,552.07 6271.9,553.48L6135.33,591.648L6149.51,595.609C6155.24,597.211 6160.11,600.352 6163.81,604.449L6268.42,575.211C6274.06,590.43 6286.1,623.27 6295.81,652.238L6166.65,652.238C6161.67,677.672 6153.19,719.359 6146.03,747.578C6166.58,806.422 6206.1,843.672 6249.45,843.672C6256.58,843.672 6263.81,842.648 6270.92,840.66C6334.31,822.969 6343.9,745.73 6325.95,681.449ZM5534.93,804.029C5530.57,805.236 5522.84,800.582 5517.66,793.613C5512.48,786.649 5511.82,780.022 5516.18,778.81C5520.53,777.598 5528.27,782.257 5533.45,789.221C5538.62,796.186 5539.29,802.816 5534.93,804.029ZM4616.61,447.707C4613.36,447.495 4610.28,445.703 4608.55,442.661L4588.82,407.865C4586.82,404.334 4587.2,400.098 4589.46,397.02L4534.25,350.878C4531.67,348.717 4530.35,345.399 4530.73,342.053C4531.12,338.706 4533.17,335.78 4536.18,334.268C4669.79,267.191 4770,236.437 4770,236.437C4774.49,235.06 4779.32,236.984 4781.64,241.064L4801.37,275.86C4805.24,273.667 4809.94,274.331 4813.04,277.172L4825.34,231.217C4826.63,226.382 4831.3,223.248 4836.26,223.881C4836.26,223.881 4940.36,237.159 4992.2,328.595C4994.93,333.396 4993.24,339.504 4988.44,342.227C4983.64,344.949 4977.53,343.261 4974.81,338.46C4936.47,270.835 4866.53,250.462 4842.28,245.28L4827.29,301.307L4834.73,314.423C4836.45,317.467 4836.41,321.033 4834.92,323.93L4995.25,465.666C5017.32,485.168 5028.21,513.167 5025.15,542.457C5022.09,571.735 5005.65,596.865 4980.04,611.385L4788.77,719.835C4763.16,734.355 4733.15,735.562 4706.44,723.152C4679.73,710.738 4661.32,687.016 4655.91,658.067L4616.61,447.707ZM5997.05,594.531L6129.9,631.66C6127.81,642.461 6124.06,661.711 6119.78,682.238L5966.13,682.238C5976.26,651.109 5990.69,611.672 5997.05,594.531ZM5509.44,376.381L5302.88,273.197L5295.85,269.42C5283.28,298.536 5254.09,377.285 5221.08,543.006C5220.41,546.394 5221.54,549.809 5223.92,552.124C5224.68,552.861 5225.56,553.484 5226.56,553.967L5339.87,608.345C5343.91,610.277 5348.74,609.294 5351.7,605.944C5462.29,480.555 5505.23,409.885 5520.08,381.643L5509.44,376.381ZM5847.4,596.273C5844.34,560.441 5838.79,522.116 5836.31,505.804L5632.94,498.323C5629.26,514.399 5620.9,552.177 5615.21,587.732L5847.4,596.273ZM6051.63,580C6048.35,580 6045.15,578.398 6043.22,575.441C6040.24,570.828 6041.53,564.672 6046.1,561.648C6047.17,560.922 6068.42,545.98 6064.54,511.102C6064.01,506.422 6066.83,502.02 6071.28,500.512C6075.7,499.02 6080.64,500.809 6083.05,504.852C6088.58,514.102 6100.4,519.68 6115.49,520.16C6133.33,520.809 6150.94,514.059 6157.67,504.309C6160.11,500.75 6164.56,499.16 6168.74,500.391C6172.89,501.621 6175.76,505.379 6175.9,509.699C6176.15,519.371 6179.39,527.281 6185.22,532.57C6191.4,538.172 6200.22,540.738 6210.9,540C6216.6,539.66 6221.19,543.762 6221.58,549.281C6221.95,554.789 6217.81,559.57 6212.3,559.949C6196.03,561.07 6182.08,556.738 6171.78,547.379C6166.24,542.379 6162.1,536.199 6159.44,529.102C6147.4,536.488 6131.36,540.641 6114.85,540.141C6103.19,539.77 6092.69,537.031 6084.06,532.289C6079.3,563.52 6058.14,577.648 6057.04,578.359C6055.38,579.48 6053.49,580 6051.63,580ZM4635.33,438.976L4817.82,335.503L4897.06,405.535L4654.74,542.923L4635.33,438.976ZM5505.73,519.269C5588.86,433.765 5598.28,363.932 5598.28,363.932C5599.06,358.468 5595.25,353.402 5589.79,352.626C5584.32,351.851 5579.26,355.658 5578.48,361.122C5578.48,361.122 5568.84,425.666 5491.39,505.327C5487.54,509.284 5487.63,515.621 5491.58,519.468C5495.54,523.315 5501.88,523.226 5505.73,519.269ZM5740.78,287.046C5735.84,329.177 5687.19,331.715 5679.85,355.652C5673.68,375.778 5685.01,397.129 5705.13,403.301C5725.26,409.473 5746.61,398.144 5752.78,378.018C5760.12,354.082 5752.38,314.299 5740.78,287.046ZM4783.97,285.725L4768.26,258.015C4743.77,266.086 4662.64,294.268 4558.82,345.349L4607.32,385.883L4783.97,285.725ZM5274.7,183.075C5200.29,259.61 5196.39,353.326 5196.39,353.326C5196.15,358.84 5200.44,363.51 5205.95,363.749C5211.46,363.988 5216.13,359.705 5216.37,354.191C5216.37,354.191 5220.28,267.737 5289.04,197.017C5292.89,193.059 5292.8,186.723 5288.84,182.876C5284.88,179.028 5278.55,179.118 5274.7,183.075ZM5527.56,362.712C5527.49,361.851 5527.27,361.026 5526.99,360.2C5526.88,359.903 5526.83,359.601 5526.7,359.315C5526.65,359.208 5526.65,359.081 5526.59,358.969L5502.01,310.887L5357.79,241.294L5309.28,250.541C5309.11,250.579 5308.96,250.68 5308.79,250.724C5308.39,250.821 5308.03,250.989 5307.65,251.135C5307,251.388 5306.4,251.705 5305.83,252.076L5312.12,255.457L5518.39,358.485L5527.59,363.043C5527.56,362.933 5527.57,362.82 5527.56,362.712ZM6169.88,0C6169.73,1.216 6169.54,2.437 6169.29,3.66C6166.52,17.419 6157.74,28.431 6146.24,34.528C6152.47,41.128 6157.91,48.555 6162.4,56.685C6178.14,85.146 6180.52,118.995 6168.95,149.522L6101.09,333.22C6099.38,337.845 6094.56,340.535 6089.73,339.561L5818.37,284.838C5813.54,283.863 5810.14,279.516 5810.35,274.589L5818.99,78.875C5820.09,48.461 5833.54,20.028 5856.12,0L6078.22,0L6078.1,0.573L6089.08,2.787C6103.45,5.684 6116.88,11.428 6128.7,19.522C6138.8,18.091 6147.38,10.517 6149.63,0L6169.88,0ZM6426.4,84.881L6426.4,283.227C6394.03,318.106 6339.95,324.353 6300.22,295.963C6257.08,265.144 6247.08,205.104 6277.9,161.97C6307.73,120.229 6369.47,114.72 6426.4,84.881ZM5386.44,232.914L5492.48,284.084L5520.16,208.03C5521.34,204.805 5520.78,201.209 5518.69,198.503C5518.06,197.698 5503.17,178.559 5483.85,168.989C5464.56,159.429 5440.29,159.184 5439.26,159.173C5435.84,159.153 5432.65,160.888 5430.79,163.774L5386.44,232.914ZM4426.4,84.865C4458.56,68.003 4489.2,43.358 4511.65,0C4500.83,97.749 4480.86,208.307 4434.18,273.651C4431.76,277.037 4429.16,280.218 4426.4,283.194L4426.4,84.865ZM6079.67,245.721L5864.01,202.23C5858.59,201.137 5855.09,195.873 5856.19,190.451C5857.28,185.029 5862.55,181.531 5867.97,182.625L6083.63,226.115C6089.05,227.209 6092.55,232.473 6091.45,237.895C6090.36,243.317 6085.09,246.814 6079.67,245.721ZM5700.07,53C5672.15,109.722 5730.98,152.275 5720.8,188.171C5712.23,218.351 5680.77,235.9 5650.59,227.335C5620.41,218.77 5602.86,187.313 5611.43,157.133C5621.61,121.237 5663.51,77.724 5700.07,53ZM5275.84,0L5283.07,4.788C5287.67,7.836 5288.93,14.046 5285.89,18.647C5282.84,23.249 5276.63,24.51 5272.03,21.463L5255.35,10.419L5238.79,35.431L5263.8,51.996C5282.22,64.196 5287.26,89.013 5275.06,107.433C5275.06,107.433 5230.88,174.13 5230.88,174.13C5218.69,192.55 5193.87,197.591 5175.45,185.392L5150.44,168.826L5117.31,218.85C5114.26,223.454 5108.05,224.715 5103.45,221.665L4886.68,78.097C4882.07,75.047 4880.81,68.842 4883.86,64.238L4926.41,0L5076.63,0L5188.98,74.41L5238.26,0L5275.84,0ZM6040.12,153.145C6037.06,148.54 6038.31,142.344 6042.92,139.284C6047.52,136.225 6053.72,137.474 6056.78,142.08L6066.9,157.31L6082.13,147.192C6086.73,144.132 6092.93,145.381 6095.99,149.987C6099.05,154.593 6097.8,160.788 6093.19,163.848L6077.96,173.967L6088.08,189.198C6091.14,193.804 6089.89,199.999 6085.29,203.059C6082.99,204.585 6080.28,205.039 6077.78,204.533C6075.27,204.027 6072.95,202.56 6071.43,200.263L6061.31,185.034L6046.08,195.151C6043.78,196.678 6041.07,197.132 6038.57,196.626C6036.06,196.12 6033.74,194.653 6032.22,192.356C6029.15,187.75 6030.4,181.555 6035.01,178.495L6050.24,168.376L6040.12,153.145ZM5961.7,137.331C5958.64,132.725 5959.89,126.53 5964.5,123.47C5969.1,120.41 5975.3,121.659 5978.36,126.265L5988.48,141.495L6003.71,131.377C6008.31,128.317 6014.51,129.567 6017.57,134.172C6020.63,138.778 6019.38,144.973 6014.77,148.033L5999.54,158.152L6009.66,173.383C6012.72,177.989 6011.47,184.184 6006.86,187.244C6004.57,188.77 6001.86,189.224 5999.36,188.718C5996.85,188.213 5994.53,186.745 5993,184.449L5982.89,169.219L5967.65,179.337C5965.36,180.863 5962.65,181.317 5960.15,180.811C5957.64,180.305 5955.32,178.838 5953.79,176.541C5950.73,171.936 5951.98,165.74 5956.59,162.68L5971.82,152.561L5961.7,137.331ZM5883.28,121.516C5880.22,116.91 5881.47,110.715 5886.07,107.655C5890.68,104.595 5896.88,105.844 5899.94,110.45L5910.06,125.68L5925.29,115.562C5929.89,112.502 5936.09,113.752 5939.15,118.358C5942.21,122.963 5940.96,129.159 5936.35,132.219L5921.12,142.338L5931.24,157.568C5934.3,162.174 5933.05,168.369 5928.44,171.429C5926.15,172.955 5923.44,173.41 5920.93,172.904C5918.43,172.398 5916.11,170.931 5914.58,168.634L5904.46,153.404L5889.23,163.522C5886.94,165.048 5884.23,165.502 5881.72,164.996C5879.22,164.491 5876.9,163.023 5875.37,160.727C5872.31,156.121 5873.56,149.926 5878.17,146.866L5893.4,136.747L5883.28,121.516ZM5227.74,52.105L5161.48,152.152L5186.49,168.717C5195.7,174.817 5208.11,172.296 5214.21,163.087C5214.21,163.087 5258.39,96.389 5258.39,96.389C5264.48,87.179 5261.96,74.771 5252.75,68.671L5227.74,52.105ZM6123,132.043L5868.13,80.645C5862.71,79.551 5859.21,74.287 5860.31,68.865C5861.4,63.443 5866.66,59.946 5872.08,61.039L6126.95,112.437C6132.38,113.531 6135.87,118.795 6134.78,124.217C6133.69,129.639 6128.42,133.136 6123,132.043Z"/>
            </g>
        </g>
    </g>
</svg>
