<?xml version="1.0" encoding="UTF-8" standalone="no"?>
<!DOCTYPE svg PUBLIC "-//W3C//DTD SVG 1.1//EN" "http://www.w3.org/Graphics/SVG/1.1/DTD/svg11.dtd">
<svg width="100%" height="100%" viewBox="0 0 2000 2000" version="1.1" xmlns="http://www.w3.org/2000/svg" xmlns:xlink="http://www.w3.org/1999/xlink" xml:space="preserve" xmlns:serif="http://www.serif.com/" style="fill-rule:evenodd;clip-rule:evenodd;stroke-linejoin:round;stroke-miterlimit:2;">
    <g transform="matrix(1,0,0,1,-4426.4,0)">
        <g id="_-" serif:id=" " transform="matrix(1,0,0,1,4426.4,0)">
            <rect x="0" y="0" width="2000" height="2000" style="fill:none;"/>
            <clipPath id="_clip1">
                <rect x="0" y="0" width="2000" height="2000"/>
            </clipPath>
            <g clip-path="url(#_clip1)">
                <g transform="matrix(0.954198,0,0,0.922509,91.6031,154.982)">
                    <rect x="-96" y="-168" width="2096" height="2168" style="fill:rgb(198,201,123);"/>
                </g>
                <g transform="matrix(0.977253,0.212079,-0.212079,0.977253,-5352.62,-337.812)">
                    <path d="M6224.4,680.871C6224.4,669.629 6227.72,655.781 6231.58,639.738C6237.29,615.949 6244.4,586.328 6244.4,550C6244.4,523 6237.99,501.43 6229.4,482.07L6229.4,480L6228.43,480C6223.71,469.641 6218.44,459.84 6213.18,450.211C6199.74,425.59 6187.11,402.109 6184.87,370L6103.94,370C6101.7,402.109 6089.06,425.59 6075.63,450.211C6070.37,459.852 6065.1,469.641 6060.38,480L6059.4,480L6059.4,482.07C6050.81,501.43 6044.4,523 6044.4,550C6044.4,586.328 6051.51,615.949 6057.22,639.738C6061.08,655.781 6064.4,669.629 6064.4,680.871C6064.4,694.641 6059.06,706.43 6053.89,717.84C6049.01,728.602 6044.4,738.781 6044.4,750C6044.4,772.012 6062.34,780 6074.4,780L6214.4,780C6226.46,780 6244.4,772.012 6244.4,750C6244.4,738.781 6239.79,728.602 6234.91,717.84C6229.74,706.43 6224.4,694.641 6224.4,680.871ZM6118.46,723.762C6116.28,733.559 6114.4,742.039 6114.4,750C6114.4,753.07 6115.19,756.691 6116.42,760L6096.02,760C6095.08,757.012 6094.4,753.789 6094.4,750C6094.4,739.84 6096.61,729.922 6098.94,719.422C6101.63,707.328 6104.4,694.828 6104.4,680C6104.4,666.801 6102.39,641.781 6100.24,620L6120.32,620C6122.45,641.84 6124.4,666.512 6124.4,680C6124.4,697.031 6121.25,711.23 6118.46,723.762ZM6192.78,760L6172.38,760C6173.61,756.691 6174.4,753.07 6174.4,750C6174.4,742.039 6172.52,733.559 6170.34,723.762C6167.55,711.23 6164.4,697.031 6164.4,680C6164.4,666.512 6166.35,641.84 6168.47,620L6188.55,620C6186.41,641.781 6184.4,666.801 6184.4,680C6184.4,694.828 6187.17,707.328 6189.86,719.422C6192.19,729.922 6194.4,739.84 6194.4,750C6194.4,753.789 6193.72,757.012 6192.78,760ZM6069.06,600C6066.36,584.949 6064.4,568.512 6064.4,550C6064.4,530.82 6068.09,514.77 6073.66,500L6215.15,500C6220.71,514.77 6224.4,530.82 6224.4,550C6224.4,568.512 6222.44,584.949 6219.74,600L6069.06,600ZM6160.88,440.629C6166.06,438.719 6171.82,441.309 6173.76,446.48L6186.33,480L6164.97,480L6155.04,453.512C6153.1,448.34 6155.72,442.578 6160.88,440.629ZM6115.03,446.488C6116.96,441.309 6122.73,438.719 6127.91,440.641C6133.08,442.578 6135.69,448.352 6133.76,453.52L6123.83,480L6102.47,480L6115.03,446.488ZM6184.4,350L6104.4,350C6098.42,350 6093.57,345.148 6093.57,339.172L6093.57,324.172C6093.57,310.359 6104.76,300 6118.57,300L6170.25,300C6184.06,300 6195.25,310.359 6195.25,324.172L6195.25,339.172C6195.24,345.148 6190.39,350 6184.4,350Z" style="fill:rgb(159,160,87);fill-rule:nonzero;"/>
                </g>
                <g transform="matrix(0.716985,0.697089,-0.697089,0.716985,-2581.28,-3500.01)">
                    <path d="M5329.46,224.955L5109.43,294.963L5101.76,297.154C5113.04,326.795 5147.01,403.603 5238.86,545.435C5240.74,548.334 5243.93,549.994 5247.25,549.994C5248.31,549.994 5249.38,549.822 5250.43,549.474L5369.58,509.474C5373.82,508.045 5376.6,503.974 5376.39,499.506C5368.27,332.514 5349.79,251.916 5340.75,221.314L5329.46,224.955ZM5026.4,249.994C5026.4,356.74 5088.93,426.648 5088.93,426.648C5092.61,430.768 5098.93,431.131 5103.05,427.459C5107.17,423.786 5107.54,417.46 5103.86,413.34C5103.86,413.34 5046.4,348.63 5046.4,249.994C5046.4,244.475 5041.92,239.994 5036.4,239.994C5030.88,239.994 5026.4,244.475 5026.4,249.994ZM5426.4,329.994C5426.4,210.739 5384.48,154.1 5384.48,154.1C5381.22,149.641 5374.96,148.663 5370.5,151.916C5366.05,155.169 5365.07,161.43 5368.32,165.888C5368.32,165.888 5406.4,218.888 5406.4,329.994C5406.4,335.513 5410.88,339.994 5416.4,339.994C5421.92,339.994 5426.4,335.513 5426.4,329.994ZM5332.92,202.525C5332.27,201.955 5331.54,201.514 5330.76,201.123C5330.48,200.982 5330.23,200.803 5329.94,200.685C5329.83,200.642 5329.74,200.553 5329.62,200.514L5278.48,183.174L5126.56,233.814L5098.23,274.256C5098.13,274.404 5098.09,274.584 5098,274.732C5097.78,275.084 5097.64,275.455 5097.47,275.822C5097.18,276.455 5096.97,277.103 5096.82,277.764L5103.69,275.803L5323.4,205.885L5333.17,202.744C5333.07,202.685 5333,202.596 5332.92,202.525ZM5141.26,207.834L5252.96,170.603L5219.79,96.775C5218.39,93.642 5215.48,91.455 5212.09,90.974C5211.08,90.834 5187.06,87.494 5166.54,94.096C5146.04,100.693 5128.47,117.435 5127.73,118.142C5125.26,120.514 5124.18,123.982 5124.86,127.346L5141.26,207.834Z" style="fill:rgb(159,160,87);fill-rule:nonzero;"/>
                </g>
                <g transform="matrix(0.980266,0.197684,-0.197684,0.980266,-2891.75,176.452)">
                    <path d="M4887.9,909.816C4895.32,915.054 4902.12,921.258 4908.13,928.34C4929.18,953.129 4938.2,985.84 4932.9,1018.05L4902.69,1211.54C4901.93,1216.41 4897.74,1220 4892.81,1220L4615.99,1220C4611.06,1220 4606.87,1216.41 4606.1,1211.54L4575.88,1017.98C4570.6,985.84 4579.63,953.129 4600.67,928.34C4621.35,903.969 4651.44,890 4683.2,890L4694.4,890L4694.4,800L4684.4,800C4678.87,800 4674.4,795.531 4674.4,790C4674.4,784.469 4678.87,780 4684.4,780L4824.4,780C4829.93,780 4834.4,784.469 4834.4,790C4834.4,795.531 4829.93,800 4824.4,800L4814.4,800L4814.4,830L4859.4,830C4884.25,830 4904.4,850.15 4904.4,875C4904.4,889.035 4897.97,901.565 4887.9,909.816ZM4864.4,1130L4644.4,1130C4638.87,1130 4634.4,1125.53 4634.4,1120C4634.4,1114.47 4638.87,1110 4644.4,1110L4864.4,1110C4869.93,1110 4874.4,1114.47 4874.4,1120C4874.4,1125.53 4869.93,1130 4864.4,1130ZM4647.33,1047.07C4643.42,1043.16 4643.42,1036.84 4647.33,1032.93C4651.24,1029.02 4657.56,1029.02 4661.47,1032.93L4674.4,1045.86L4687.33,1032.93C4691.24,1029.02 4697.56,1029.02 4701.47,1032.93C4705.38,1036.84 4705.38,1043.16 4701.47,1047.07L4688.54,1060L4701.47,1072.93C4705.38,1076.84 4705.38,1083.16 4701.47,1087.07C4699.52,1089.02 4696.96,1090 4694.4,1090C4691.84,1090 4689.28,1089.02 4687.33,1087.07L4674.4,1074.14L4661.47,1087.07C4659.52,1089.02 4656.96,1090 4654.4,1090C4651.84,1090 4649.28,1089.02 4647.33,1087.07C4643.42,1083.16 4643.42,1076.84 4647.33,1072.93L4660.26,1060L4647.33,1047.07ZM4727.33,1047.07C4723.42,1043.16 4723.42,1036.84 4727.33,1032.93C4731.24,1029.02 4737.56,1029.02 4741.47,1032.93L4754.4,1045.86L4767.33,1032.93C4771.24,1029.02 4777.56,1029.02 4781.47,1032.93C4785.38,1036.84 4785.38,1043.16 4781.47,1047.07L4768.54,1060L4781.47,1072.93C4785.38,1076.84 4785.38,1083.16 4781.47,1087.07C4779.52,1089.02 4776.96,1090 4774.4,1090C4771.84,1090 4769.28,1089.02 4767.33,1087.07L4754.4,1074.14L4741.47,1087.07C4739.52,1089.02 4736.96,1090 4734.4,1090C4731.84,1090 4729.28,1089.02 4727.33,1087.07C4723.42,1083.16 4723.42,1076.84 4727.33,1072.93L4740.26,1060L4727.33,1047.07ZM4807.33,1047.07C4803.42,1043.16 4803.42,1036.84 4807.33,1032.93C4811.24,1029.02 4817.56,1029.02 4821.47,1032.93L4834.4,1045.86L4847.33,1032.93C4851.24,1029.02 4857.56,1029.02 4861.47,1032.93C4865.38,1036.84 4865.38,1043.16 4861.47,1047.07L4848.54,1060L4861.47,1072.93C4865.38,1076.84 4865.38,1083.16 4861.47,1087.07C4859.52,1089.02 4856.96,1090 4854.4,1090C4851.84,1090 4849.28,1089.02 4847.33,1087.07L4834.4,1074.14L4821.47,1087.07C4819.52,1089.02 4816.96,1090 4814.4,1090C4811.84,1090 4809.28,1089.02 4807.33,1087.07C4803.42,1083.16 4803.42,1076.84 4807.33,1072.93L4820.26,1060L4807.33,1047.07ZM4884.4,1010L4624.4,1010C4618.87,1010 4614.4,1005.53 4614.4,1000C4614.4,994.469 4618.87,990 4624.4,990L4884.4,990C4889.93,990 4894.4,994.469 4894.4,1000C4894.4,1005.53 4889.93,1010 4884.4,1010ZM4814.4,850L4814.4,890L4825.6,890C4840.26,890 4854.56,892.975 4867.74,898.574C4877.45,895.142 4884.4,885.884 4884.4,875C4884.4,861.194 4873.2,850 4859.4,850L4814.4,850Z" style="fill:rgb(159,160,87);"/>
                </g>
                <g transform="matrix(0.980266,0.197684,-0.197684,0.980266,-2891.75,-1823.59)">
                    <path d="M4887.9,909.816C4895.32,915.054 4902.12,921.258 4908.13,928.34C4929.18,953.129 4938.2,985.84 4932.9,1018.05L4902.69,1211.54C4901.93,1216.41 4897.74,1220 4892.81,1220L4615.99,1220C4611.06,1220 4606.87,1216.41 4606.1,1211.54L4575.88,1017.98C4570.6,985.84 4579.63,953.129 4600.67,928.34C4621.35,903.969 4651.44,890 4683.2,890L4694.4,890L4694.4,800L4684.4,800C4678.87,800 4674.4,795.531 4674.4,790C4674.4,784.469 4678.87,780 4684.4,780L4824.4,780C4829.93,780 4834.4,784.469 4834.4,790C4834.4,795.531 4829.93,800 4824.4,800L4814.4,800L4814.4,830L4859.4,830C4884.25,830 4904.4,850.15 4904.4,875C4904.4,889.035 4897.97,901.565 4887.9,909.816ZM4864.4,1130L4644.4,1130C4638.87,1130 4634.4,1125.53 4634.4,1120C4634.4,1114.47 4638.87,1110 4644.4,1110L4864.4,1110C4869.93,1110 4874.4,1114.47 4874.4,1120C4874.4,1125.53 4869.93,1130 4864.4,1130ZM4647.33,1047.07C4643.42,1043.16 4643.42,1036.84 4647.33,1032.93C4651.24,1029.02 4657.56,1029.02 4661.47,1032.93L4674.4,1045.86L4687.33,1032.93C4691.24,1029.02 4697.56,1029.02 4701.47,1032.93C4705.38,1036.84 4705.38,1043.16 4701.47,1047.07L4688.54,1060L4701.47,1072.93C4705.38,1076.84 4705.38,1083.16 4701.47,1087.07C4699.52,1089.02 4696.96,1090 4694.4,1090C4691.84,1090 4689.28,1089.02 4687.33,1087.07L4674.4,1074.14L4661.47,1087.07C4659.52,1089.02 4656.96,1090 4654.4,1090C4651.84,1090 4649.28,1089.02 4647.33,1087.07C4643.42,1083.16 4643.42,1076.84 4647.33,1072.93L4660.26,1060L4647.33,1047.07ZM4727.33,1047.07C4723.42,1043.16 4723.42,1036.84 4727.33,1032.93C4731.24,1029.02 4737.56,1029.02 4741.47,1032.93L4754.4,1045.86L4767.33,1032.93C4771.24,1029.02 4777.56,1029.02 4781.47,1032.93C4785.38,1036.84 4785.38,1043.16 4781.47,1047.07L4768.54,1060L4781.47,1072.93C4785.38,1076.84 4785.38,1083.16 4781.47,1087.07C4779.52,1089.02 4776.96,1090 4774.4,1090C4771.84,1090 4769.28,1089.02 4767.33,1087.07L4754.4,1074.14L4741.47,1087.07C4739.52,1089.02 4736.96,1090 4734.4,1090C4731.84,1090 4729.28,1089.02 4727.33,1087.07C4723.42,1083.16 4723.42,1076.84 4727.33,1072.93L4740.26,1060L4727.33,1047.07ZM4807.33,1047.07C4803.42,1043.16 4803.42,1036.84 4807.33,1032.93C4811.24,1029.02 4817.56,1029.02 4821.47,1032.93L4834.4,1045.86L4847.33,1032.93C4851.24,1029.02 4857.56,1029.02 4861.47,1032.93C4865.38,1036.84 4865.38,1043.16 4861.47,1047.07L4848.54,1060L4861.47,1072.93C4865.38,1076.84 4865.38,1083.16 4861.47,1087.07C4859.52,1089.02 4856.96,1090 4854.4,1090C4851.84,1090 4849.28,1089.02 4847.33,1087.07L4834.4,1074.14L4821.47,1087.07C4819.52,1089.02 4816.96,1090 4814.4,1090C4811.84,1090 4809.28,1089.02 4807.33,1087.07C4803.42,1083.16 4803.42,1076.84 4807.33,1072.93L4820.26,1060L4807.33,1047.07ZM4884.4,1010L4624.4,1010C4618.87,1010 4614.4,1005.53 4614.4,1000C4614.4,994.469 4618.87,990 4624.4,990L4884.4,990C4889.93,990 4894.4,994.469 4894.4,1000C4894.4,1005.53 4889.93,1010 4884.4,1010ZM4814.4,850L4814.4,890L4825.6,890C4840.26,890 4854.56,892.975 4867.74,898.574C4877.45,895.142 4884.4,885.884 4884.4,875C4884.4,861.194 4873.2,850 4859.4,850L4814.4,850Z" style="fill:rgb(159,160,87);"/>
                </g>
                <g transform="matrix(0.833722,0.552185,-0.552185,0.833722,-3381.06,-4686.24)">
                    <path d="M5823.4,1591L5803.4,1591C5797.88,1591 5793.4,1586.52 5793.4,1581C5793.4,1575.48 5797.88,1571 5803.4,1571L6123.4,1571C6128.92,1571 6133.4,1575.48 6133.4,1581C6133.4,1586.52 6128.92,1591 6123.4,1591L6103.4,1591L6103.4,1621L6133.4,1621C6155.49,1621 6173.4,1638.91 6173.4,1661L6173.4,1741C6173.4,1763.09 6155.49,1781 6133.4,1781L6103.4,1781L6103.4,1841C6103.4,1846.52 6098.92,1851 6093.4,1851L5833.4,1851C5827.88,1851 5823.4,1846.52 5823.4,1841L5823.4,1591ZM6103.4,1641L6103.4,1761L6133.4,1761C6144.44,1761 6153.4,1752.05 6153.4,1741C6153.4,1741 6153.4,1661 6153.4,1661C6153.4,1649.95 6144.44,1641 6133.4,1641L6103.4,1641ZM6083.4,1681L6083.4,1591L5843.4,1591L5843.4,1681L6083.4,1681ZM6053.4,1381C6058.92,1381 6063.4,1385.48 6063.4,1391L6063.4,1451L6083.4,1451L6083.4,1471L6063.4,1471L6063.4,1541C6063.4,1546.52 6058.92,1551 6053.4,1551L5873.4,1551C5867.88,1551 5863.4,1546.52 5863.4,1541L5863.4,1471L5843.4,1471L5843.4,1451L5863.4,1451L5863.4,1401L5823.4,1401C5817.88,1401 5813.4,1396.52 5813.4,1391C5813.4,1385.48 5817.88,1381 5823.4,1381L6053.4,1381Z" style="fill:rgb(159,160,87);"/>
                </g>
                <g transform="matrix(0.833722,0.552185,-0.552185,0.833722,-3381.06,-2686.2)">
                    <path d="M5823.4,1591L5803.4,1591C5797.88,1591 5793.4,1586.52 5793.4,1581C5793.4,1575.48 5797.88,1571 5803.4,1571L6123.4,1571C6128.92,1571 6133.4,1575.48 6133.4,1581C6133.4,1586.52 6128.92,1591 6123.4,1591L6103.4,1591L6103.4,1621L6133.4,1621C6155.49,1621 6173.4,1638.91 6173.4,1661L6173.4,1741C6173.4,1763.09 6155.49,1781 6133.4,1781L6103.4,1781L6103.4,1841C6103.4,1846.52 6098.92,1851 6093.4,1851L5833.4,1851C5827.88,1851 5823.4,1846.52 5823.4,1841L5823.4,1591ZM6103.4,1641L6103.4,1761L6133.4,1761C6144.44,1761 6153.4,1752.05 6153.4,1741C6153.4,1741 6153.4,1661 6153.4,1661C6153.4,1649.95 6144.44,1641 6133.4,1641L6103.4,1641ZM6083.4,1681L6083.4,1591L5843.4,1591L5843.4,1681L6083.4,1681ZM6053.4,1381C6058.92,1381 6063.4,1385.48 6063.4,1391L6063.4,1451L6083.4,1451L6083.4,1471L6063.4,1471L6063.4,1541C6063.4,1546.52 6058.92,1551 6053.4,1551L5873.4,1551C5867.88,1551 5863.4,1546.52 5863.4,1541L5863.4,1471L5843.4,1471L5843.4,1451L5863.4,1451L5863.4,1401L5823.4,1401C5817.88,1401 5813.4,1396.52 5813.4,1391C5813.4,1385.48 5817.88,1381 5823.4,1381L6053.4,1381Z" style="fill:rgb(159,160,87);"/>
                </g>
                <g transform="matrix(1.21964,-0.320629,0.320629,1.21964,-359.104,1468.93)">
                    <g transform="matrix(1,0,0,1,0,265.898)">
                        <path d="M330,114.102L170,114.102C130.602,114.102 101.199,89.903 98.102,60L98.102,156.204C99.199,166.403 107.801,174.102 118,174.102L382,174.102C392.199,174.102 400.801,166.403 401.898,156.204L401.898,60C398.801,89.903 369.398,114.102 330,114.102Z" style="fill:rgb(159,160,87);fill-rule:nonzero;"/>
                    </g>
                    <g transform="matrix(1,0,0,-1,0,500)">
                        <path d="M449.945,438.953C450.242,441.772 449.328,444.584 447.432,446.691C445.536,448.797 442.834,450 440,450L60,450C57.166,450 54.464,448.797 52.568,446.691C50.672,444.584 49.758,441.772 50.055,438.953L88.176,76.863C89.781,61.595 102.649,50 118.012,50L382,50C397.357,50 410.23,61.594 411.836,76.864C411.836,76.863 449.945,438.953 449.945,438.953ZM428.892,430L71.108,430L108.066,78.955C108.601,73.865 112.891,70 118.012,70C118.012,70 382,70 382,70C387.119,70 391.41,73.866 391.946,78.956L428.892,430Z" style="fill:rgb(159,160,87);"/>
                    </g>
                    <g transform="matrix(1,0,0,1,0,120)">
                        <path d="M388.801,140L382,204.102C379.898,224.602 357.5,240 330,240L170,240C142.5,240 120.102,224.602 118,204.102L111.199,140L150,140L150,190L230,190L230,140L272.301,140L259.398,170.301L330.301,200.602L356.199,140L388.801,140Z" style="fill:rgb(159,160,87);fill-rule:nonzero;"/>
                    </g>
                    <g transform="matrix(1,0,0,-1,0,540)">
                        <path d="M230,220C235.523,220 240,224.477 240,230L240,310C240,315.523 235.523,320 230,320L150,320C144.477,320 140,315.523 140,310L140,230C140,224.477 144.477,220 150,220L230,220ZM160,300L160,240L220,240L220,300L160,300Z" style="fill:rgb(159,160,87);"/>
                    </g>
                    <g transform="matrix(0.42858,-1,-1,-0.42858,719.297,308.276)">
                        <path d="M-80.426,315.016C-75.35,315.016 -71.235,319.131 -71.235,324.207L-71.235,395.09C-71.235,400.166 -75.35,404.281 -80.426,404.281L-151.309,404.281C-156.385,404.281 -160.5,400.166 -160.5,395.09L-160.5,324.207C-160.5,319.131 -156.385,315.016 -151.309,315.016L-80.426,315.016ZM-142.118,385.899L-142.118,333.398L-89.617,333.398L-89.617,385.899L-142.118,385.899Z" style="fill:rgb(159,160,87);"/>
                    </g>
                </g>
                <g transform="matrix(1.21964,-0.320629,0.320629,1.21964,1640.89,1468.93)">
                    <g transform="matrix(1,0,0,1,0,265.898)">
                        <path d="M330,114.102L170,114.102C130.602,114.102 101.199,89.903 98.102,60L98.102,156.204C99.199,166.403 107.801,174.102 118,174.102L382,174.102C392.199,174.102 400.801,166.403 401.898,156.204L401.898,60C398.801,89.903 369.398,114.102 330,114.102Z" style="fill:rgb(159,160,87);fill-rule:nonzero;"/>
                    </g>
                    <g transform="matrix(1,0,0,-1,0,500)">
                        <path d="M449.945,438.953C450.242,441.772 449.328,444.584 447.432,446.691C445.536,448.797 442.834,450 440,450L60,450C57.166,450 54.464,448.797 52.568,446.691C50.672,444.584 49.758,441.772 50.055,438.953L88.176,76.863C89.781,61.595 102.649,50 118.012,50L382,50C397.357,50 410.23,61.594 411.836,76.864C411.836,76.863 449.945,438.953 449.945,438.953ZM428.892,430L71.108,430L108.066,78.955C108.601,73.865 112.891,70 118.012,70C118.012,70 382,70 382,70C387.119,70 391.41,73.866 391.946,78.956L428.892,430Z" style="fill:rgb(159,160,87);"/>
                    </g>
                    <g transform="matrix(1,0,0,1,0,120)">
                        <path d="M388.801,140L382,204.102C379.898,224.602 357.5,240 330,240L170,240C142.5,240 120.102,224.602 118,204.102L111.199,140L150,140L150,190L230,190L230,140L272.301,140L259.398,170.301L330.301,200.602L356.199,140L388.801,140Z" style="fill:rgb(159,160,87);fill-rule:nonzero;"/>
                    </g>
                    <g transform="matrix(1,0,0,-1,0,540)">
                        <path d="M230,220C235.523,220 240,224.477 240,230L240,310C240,315.523 235.523,320 230,320L150,320C144.477,320 140,315.523 140,310L140,230C140,224.477 144.477,220 150,220L230,220ZM160,300L160,240L220,240L220,300L160,300Z" style="fill:rgb(159,160,87);"/>
                    </g>
                </g>
                <g transform="matrix(1,0,0,1,-3883.42,-492.767)">
                    <path d="M5206.43,1646L4944.37,1646C4925.89,1678.59 4915.4,1714.71 4915.4,1747.5C4915.4,1810.11 4953.18,1862.94 5014.01,1885.38L5015.68,1886L5135.12,1886L5136.79,1885.38C5197.62,1862.94 5235.4,1810.11 5235.4,1747.5C5235.4,1714.71 5224.91,1678.59 5206.43,1646ZM4898.38,1778.83C4876.56,1765.65 4855.4,1745.09 4855.4,1714.82C4855.4,1701.7 4869.11,1676 4900.79,1676C4903.56,1676 4906.17,1676.14 4908.66,1676.35C4910.96,1669.89 4913.49,1663.46 4916.36,1657.11C4911.64,1656.46 4906.48,1656 4900.79,1656C4858.12,1656 4835.4,1690.16 4835.4,1714.82C4835.4,1763.14 4874.96,1790.9 4905.6,1805.2C4902.48,1796.71 4900.07,1787.9 4898.38,1778.83ZM5335.05,1633.38C5333.87,1629.02 5329.91,1626 5325.4,1626L5288.49,1626C5271.6,1626 5267.15,1641.69 5263.59,1654.3C5260.31,1665.87 5256.71,1678.42 5245.96,1687.69C5252.08,1707.92 5255.4,1728.28 5255.4,1747.5C5255.4,1766.43 5252.29,1784.52 5246.56,1801.43C5294.05,1776.01 5306.67,1722.64 5315.36,1685.6C5319.66,1667.29 5324.11,1648.34 5330.46,1644.63C5334.36,1642.35 5336.23,1637.74 5335.05,1633.38ZM5042.42,1578.62C5037.99,1572.18 5035.4,1564.39 5035.4,1556C5035.4,1533.94 5053.34,1516 5075.4,1516C5097.46,1516 5115.4,1533.94 5115.4,1556C5115.4,1564.39 5112.8,1572.18 5108.37,1578.62C5160.15,1587.23 5185.96,1614.74 5194.58,1626L4956.21,1626C4964.82,1614.74 4990.64,1587.24 5042.42,1578.62ZM5075.4,1536C5064.37,1536 5055.4,1544.97 5055.4,1556C5055.4,1567.03 5064.37,1576 5075.4,1576C5086.43,1576 5095.4,1567.03 5095.4,1556C5095.4,1544.97 5086.43,1536 5075.4,1536Z" style="fill:rgb(159,160,87);fill-rule:nonzero;"/>
                </g>
                <g transform="matrix(0.97784,-0.209353,0.209353,0.97784,915.894,1507.85)">
                    <g transform="matrix(1,0,0,1,0,-260)">
                        <path d="M121.77,417.23C115.809,431.578 107.43,445.02 98.359,438.75C82.551,427.828 116.551,393.68 123.09,387.34L122.309,386.391C112.148,387.211 62.801,390.211 67.852,370.531C72.422,352.73 107.738,369.359 120.871,376.25C121.398,374.949 122.172,373.762 123.262,372.75C117.609,358.148 105.602,322.328 123.289,320.43C140.801,318.551 136.879,355.34 134.43,371.078C135.66,371.691 136.801,372.52 137.73,373.648L138.012,373.988C149.738,364.219 179.699,341.578 188.059,357.68C190.57,362.512 188.828,366.578 184.82,370L250.461,370C245.34,307.379 193.461,259 130,259C63.281,259 9,313.281 9,380C9,446.719 63.281,501 130,501C148.012,501 165.328,497.031 181.219,489.539L121.77,417.23Z" style="fill:rgb(159,160,87);fill-rule:nonzero;"/>
                    </g>
                    <g transform="matrix(1,0,0,1,-5205.99,-1317)">
                        <path d="M5657.43,1427.1C5660.72,1427.58 5663.59,1429.67 5665.03,1432.73C5666.69,1436.22 5666.19,1440.36 5663.71,1443.35L5505.57,1635.7C5505.73,1636.39 5505.99,1637.04 5505.99,1637.77L5505.99,1748.64C5546.49,1756.17 5621.28,1774.07 5625.78,1804.15C5626.05,1805.06 5626.19,1806.01 5626.19,1807C5626.19,1812.53 5621.73,1817 5616.19,1817L5375.99,1817C5370.48,1817 5365.99,1812.53 5365.99,1807C5365.99,1775.2 5444.23,1756.4 5485.99,1748.64L5485.99,1637.77C5485.99,1637.04 5486.26,1636.39 5486.42,1635.71L5328.28,1443.35C5324.77,1439.08 5325.39,1432.78 5329.64,1429.27C5331.69,1427.6 5334.19,1426.93 5336.62,1427.08L5336.62,1427L5655.99,1427L5657.43,1427.1ZM5610.17,1477L5381.82,1477L5357.17,1447L5634.84,1447L5610.17,1477Z" style="fill:rgb(159,160,87);"/>
                    </g>
                </g>
                <g transform="matrix(0.999324,0.0367611,-0.0367611,0.999324,-4410.69,-78.5625)">
                    <path d="M5695.12,718.924L5726.4,711.977L5726.4,640L5716.4,640C5650.13,640 5596.4,586.273 5596.4,520L5596.4,510C5596.4,459.381 5616.59,358.039 5616.59,358.039L5618.2,350L5854.6,350L5856.21,358.047C5856.21,358.047 5876.4,459.767 5876.4,510L5876.4,520C5876.4,586.273 5822.67,640 5756.4,640L5746.4,640L5746.4,711.978L5809.05,725.899C5825.02,729.456 5836.4,743.621 5836.4,760L5836.4,770L5749.2,770L5791.55,810L5431.82,810L5429.46,803.345C5429.46,803.345 5416.4,766.699 5416.4,720C5416.4,661.574 5426.04,629.622 5426.83,627.1C5426.86,627 5426.89,626.9 5426.92,626.801L5429.11,620L5590.37,620L5695.12,718.924ZM5461.55,640L5620.37,790L5741.25,790L5582.42,640L5461.55,640ZM5640.11,764.941C5635.8,766.309 5627.9,761.941 5622.47,755.172C5617.04,748.398 5616.13,741.801 5620.44,740.43C5624.75,739.059 5632.65,743.43 5638.08,750.199C5643.51,756.961 5644.42,763.559 5640.11,764.941ZM5630.33,724.57C5624.36,726.469 5613.43,720.422 5605.91,711.051C5598.39,701.68 5597.14,692.551 5603.1,690.641C5609.07,688.738 5620,694.789 5627.52,704.16C5635.04,713.539 5636.3,722.672 5630.33,724.57ZM5547.94,679.102C5543.63,680.469 5535.73,676.102 5530.3,669.328C5524.87,662.559 5523.96,655.961 5528.27,654.59C5532.58,653.219 5540.48,657.59 5545.91,664.359C5551.34,671.129 5552.25,677.73 5547.94,679.102ZM5852.56,460C5848.19,424.305 5841.23,386.209 5838.15,370L5634.64,370C5631.55,386.2 5624.59,424.26 5620.21,460L5852.56,460Z" style="fill:rgb(159,160,87);"/>
                </g>
                <g transform="matrix(1,0,0,1,-4034.65,703.421)">
                    <path d="M4501.83,247.792C4468.76,229.513 4446.4,195.295 4446.4,155C4446.4,97.526 4493.93,50 4551.4,50C4590.28,50 4624.62,71.757 4642.76,103.627C4657.91,101.19 4675.5,100 4696.4,100C4709.77,100 4723.24,100.461 4736.15,102.039C4740.32,102.551 4743.5,102.898 4746.14,103.18L4722.61,150.219C4722.56,150.211 4722.44,150.191 4722.39,150.191C4713.89,149.238 4705.39,149.238 4696.4,149.238C4680.76,149.238 4667.86,150.105 4656.35,151.953C4656.38,152.969 4656.4,153.983 4656.4,155C4656.4,169.461 4654.06,183.902 4648.5,196.138C4647.31,198.757 4645.05,200.736 4642.3,201.57C4639.55,202.404 4636.57,202.013 4634.12,200.496L4590.27,173.271C4589.33,174.164 4588.2,174.887 4586.91,175.371C4574.28,180.102 4561.4,197.578 4561.4,210C4561.4,210.301 4561.25,210.559 4561.23,210.852L4560.68,210.601C4537.54,199.956 4520.33,186.988 4517.1,173.98C4519.52,158.801 4530.92,144.238 4550.17,132.469C4550.52,132.254 4550.88,132.063 4551.25,131.896C4554.36,130.032 4558.38,129.93 4561.67,131.973L4634.02,176.888C4635.7,169.91 4636.4,162.451 4636.4,155C4636.4,108.474 4597.93,70 4551.4,70C4504.87,70 4466.4,108.474 4466.4,155C4466.4,185.291 4482.04,211.298 4505.68,226.772C4507.51,217.44 4509.39,208.718 4511.06,201.289C4543.85,235.629 4625.83,260 4696.4,260C4730.62,260 4767.52,254.262 4800.2,244.449C4798.16,308.34 4776.4,361.602 4776.18,362.16C4774.06,367.262 4776.47,373.109 4781.57,375.23C4782.82,375.762 4784.13,376 4785.41,376C4789.33,376 4793.04,373.691 4794.64,369.852C4795.68,367.34 4819.95,308.191 4820.33,237.66C4846.53,227.82 4868.57,215.262 4882.06,200.969C4888.07,226.352 4896.4,267.43 4896.4,300C4896.4,410.281 4806.68,500 4696.4,500C4586.12,500 4496.4,410.281 4496.4,300C4496.4,285.148 4498.74,266.259 4501.83,247.792ZM4767.18,106.095L4807.46,25.531C4808.77,22.922 4811.15,21.012 4813.98,20.301L4893.98,0.301C4899.33,-1.07 4904.76,2.219 4906.1,7.578C4907.45,12.941 4904.19,18.371 4898.82,19.711L4823.28,38.59L4787.37,110.402C4839.21,123.481 4871.39,146.701 4875.74,173.691C4872.76,186.66 4855.78,200.148 4831.95,211.09L4832.24,210.379C4832.23,210.25 4832.16,210.141 4832.16,210C4832.16,189.762 4806.11,169.672 4765.46,158.16C4764.89,158.02 4764.3,157.88 4763.71,157.74L4735.34,214.48C4733.59,217.98 4730.06,220 4726.39,220C4724.89,220 4723.36,219.66 4721.93,218.949C4716.99,216.48 4714.99,210.469 4717.46,205.531L4743.42,153.602L4743.29,153.578L4767.05,106.07L4767.18,106.095Z" style="fill:rgb(159,160,87);fill-rule:nonzero;"/>
                </g>
                <g transform="matrix(0.946479,0.322764,-0.322764,0.946479,-1.27446,743.087)">
                    <path d="M410,170C403,170 396,171 390,172L390,192C396,191 403,190 410,190C434,190 450,206 450,230C450,285 428,341 390,356L390,377C442,363 470,295 470,230C470,195 445,170 410,170ZM400,90C400,57 373,30 340,30C325,30 311,36 300,45C289,35 275,30 260,30C251,30 242,32 234,36C221,20 201,10 180,10C157,10 136,21 123,40C113,34 102,30 90,30C57,30 30,57 30,90C30,108 38,124 50,135L50,210L242,210C246,197 250,180 250,157C250,138 238,125 232,118L230,116C228,114 226,113 223,113C220,113 218,114 216,116C206,125 193,130 180,130C164,130 150,123 140,110C138,107 135,106 132,106C129,106 126,108 124,111C117,123 104,130 90,130C68,130 50,112 50,90C50,68 68,50 90,50C101,50 111,54 118,62C120,64 124,65 127,65C130,64 133,62 134,59C143,41 161,30 180,30C198,30 214,39 223,54C224,56 227,58 229,59C232,60 235,59 237,57C244,53 252,50 260,50C273,50 284,56 292,66C296,71 304,71 308,66C316,56 327,50 340,50C362,50 380,68 380,90C380,112 362,130 340,130C327,130 316,124 308,114C304,109 296,109 292,114C291,115 290,117 288,119C281,127 270,140 270,157C270,180 273,197 278,210L370,210L370,142C388,131 400,112 400,90ZM370,230L285,230C288,238 290,244 290,250C290,267 277,280 260,280C243,280 230,267 230,250C230,244 232,238 235,230L50,230L50,424C50,467 74,490 116,490L304,490C347,490 370,466 370,424L370,230Z" style="fill:rgb(159,160,87);fill-rule:nonzero;"/>
                </g>
                <g transform="matrix(0.946479,0.322764,-0.322764,0.946479,1998.73,743.087)">
                    <path d="M410,170C403,170 396,171 390,172L390,192C396,191 403,190 410,190C434,190 450,206 450,230C450,285 428,341 390,356L390,377C442,363 470,295 470,230C470,195 445,170 410,170ZM400,90C400,57 373,30 340,30C325,30 311,36 300,45C289,35 275,30 260,30C251,30 242,32 234,36C221,20 201,10 180,10C157,10 136,21 123,40C113,34 102,30 90,30C57,30 30,57 30,90C30,108 38,124 50,135L50,210L242,210C246,197 250,180 250,157C250,138 238,125 232,118L230,116C228,114 226,113 223,113C220,113 218,114 216,116C206,125 193,130 180,130C164,130 150,123 140,110C138,107 135,106 132,106C129,106 126,108 124,111C117,123 104,130 90,130C68,130 50,112 50,90C50,68 68,50 90,50C101,50 111,54 118,62C120,64 124,65 127,65C130,64 133,62 134,59C143,41 161,30 180,30C198,30 214,39 223,54C224,56 227,58 229,59C232,60 235,59 237,57C244,53 252,50 260,50C273,50 284,56 292,66C296,71 304,71 308,66C316,56 327,50 340,50C362,50 380,68 380,90C380,112 362,130 340,130C327,130 316,124 308,114C304,109 296,109 292,114C291,115 290,117 288,119C281,127 270,140 270,157C270,180 273,197 278,210L370,210L370,142C388,131 400,112 400,90ZM370,230L285,230C288,238 290,244 290,250C290,267 277,280 260,280C243,280 230,267 230,250C230,244 232,238 235,230L50,230L50,424C50,467 74,490 116,490L304,490C347,490 370,466 370,424L370,230Z" style="fill:rgb(159,160,87);fill-rule:nonzero;"/>
                </g>
                <g transform="matrix(0.869903,-0.493223,0.493223,0.869903,29.8798,356.566)">
                    <g transform="matrix(1,0,0,1,0,-240)">
                        <path d="M340,400L100,400C94.48,400 90,395.52 90,390L90,350C90,344.48 94.48,340 100,340L340,340C345.531,340 350,344.48 350,350L350,390C350,395.52 345.531,400 340,400Z" style="fill:rgb(159,160,87);fill-rule:nonzero;"/>
                    </g>
                    <g transform="matrix(1,0,0,-1,0,270)">
                        <path d="M390.672,176.423L347.129,132.159C343.258,128.225 336.922,128.173 332.987,132.043C329.053,135.914 329.001,142.25 332.871,146.185L382.871,197.013C386.381,200.58 391.987,201.004 395.993,198.005C395.993,198.005 480,135.111 480,30C480,24.481 475.519,20 470,20C464.481,20 460,24.481 460,30C460,107.738 409.213,159.954 390.672,176.423ZM340,210C340,214.69 336.74,218.75 332.161,219.764C332.161,219.764 229.817,242.437 80.505,249.987C77.14,250.157 73.916,248.622 71.927,245.902C69.939,243.182 69.454,239.643 70.637,236.489L100.637,156.489C102.1,152.586 105.832,150 110,150L330,150C335.523,150 340,154.477 340,160L340,210ZM94.738,229.179L116.93,170L320,170L320,201.854C294.717,206.911 210.242,222.41 94.738,229.179Z" style="fill:rgb(159,160,87);"/>
                    </g>
                    <g transform="matrix(1,0,0,1,0,120)">
                        <path d="M415.039,240.738L341.488,26.75C340.102,22.711 336.301,20 332.031,20L107.969,20C103.699,20 99.898,22.711 98.512,26.75L24.949,240.738C15.379,268.59 19.699,298.309 36.809,322.281C53.922,346.25 80.621,360 110.059,360L329.941,360C359.379,360 386.078,346.25 403.18,322.289C420.289,298.32 424.621,268.59 415.039,240.738ZM115.109,40L324.898,40L359.281,140L80.73,140L115.109,40Z" style="fill:rgb(159,160,87);fill-rule:nonzero;"/>
                    </g>
                </g>
                <g transform="matrix(1,0,0,1,1455.22,500)">
                    <path d="M83.739,427.273L98.078,375.922C101.18,377.102 104.238,378.32 107.57,379.25C110.809,380.148 114.078,380.711 117.352,381.289L103.007,432.65C147.998,447.804 163.101,473.194 157.68,492.68C156.969,495.238 155.27,497.41 152.961,498.719C151.449,499.559 149.762,500 148.051,500C147.148,500 146.238,499.879 145.359,499.629L12.801,462.621C10.25,461.91 8.078,460.211 6.781,457.898C5.48,455.59 5.141,452.852 5.859,450.289C10.488,433.711 28.711,423.801 54.602,423.801C63.598,423.801 73.367,424.966 83.739,427.273ZM418.508,407.961C458.812,399.212 490.162,408.616 496.379,430.988C497.859,436.309 494.762,441.82 489.441,443.301L356.879,480.301C356,480.57 355.09,480.68 354.191,480.68C352.48,480.68 350.789,480.238 349.281,479.391C346.969,478.078 345.27,475.91 344.559,473.359C339.138,453.874 354.244,428.488 399.241,413.314L384.91,361.969C388.18,361.391 391.449,360.828 394.699,359.922C398.02,358.988 401.059,357.77 404.172,356.602L418.508,407.961ZM262.52,114.871L111.961,72.789C106.961,71.359 101.738,74.039 99.91,78.898C98.641,82.27 68.762,161.879 57.898,200.77C39.98,265.039 49.559,342.281 112.949,359.98C120.078,361.969 127.301,362.98 134.398,362.98C181.238,362.98 223.66,319.539 242.48,252.309C253.23,213.77 268.988,129.898 269.648,126.352C270.609,121.25 267.512,116.262 262.52,114.871ZM444.34,181.449C433.48,142.57 403.602,62.961 402.34,59.59C400.5,54.738 395.27,52.07 390.281,53.48L253.719,91.648L267.891,95.609C273.629,97.211 278.5,100.352 282.199,104.449L386.809,75.211C392.441,90.43 404.48,123.27 414.199,152.238L285.031,152.238C280.051,177.672 271.578,219.359 264.41,247.578C284.961,306.422 324.48,343.672 367.84,343.672C374.961,343.672 382.191,342.648 389.301,340.66C452.699,322.969 462.281,245.73 444.34,181.449ZM115.43,94.531L248.281,131.66C246.199,142.461 242.441,161.711 238.16,182.238L84.512,182.238C94.648,151.109 109.078,111.672 115.43,94.531ZM170.012,80C166.738,80 163.531,78.398 161.609,75.441C158.621,70.828 159.91,64.672 164.488,61.648C165.559,60.922 186.801,45.98 182.922,11.102C182.398,6.422 185.211,2.02 189.66,0.512C194.09,-0.98 199.02,0.809 201.43,4.852C206.969,14.102 218.789,19.68 233.879,20.16C251.719,20.809 269.328,14.059 276.051,4.309C278.5,0.75 282.949,-0.84 287.121,0.391C291.27,1.621 294.148,5.379 294.281,9.699C294.539,19.371 297.77,27.281 303.602,32.57C309.781,38.172 318.602,40.738 329.281,40C334.98,39.66 339.57,43.762 339.961,49.281C340.34,54.789 336.191,59.57 330.68,59.949C314.41,61.07 300.469,56.738 290.16,47.379C284.629,42.379 280.488,36.199 277.82,29.102C265.781,36.488 249.75,40.641 233.23,40.141C221.57,39.77 211.078,37.031 202.441,32.289C197.68,63.52 176.52,77.648 175.422,78.359C173.762,79.48 171.879,80 170.012,80Z" style="fill:rgb(159,160,87);fill-rule:nonzero;"/>
                </g>
                <g transform="matrix(0.712715,0.26011,-0.26011,0.712715,1553.2,1015.25)">
                    <path d="M130,20.059L130,40.059L231.25,40.059L238.125,80.684C160.953,86.778 100,151.348 100,230.059C100,235.582 104.477,240.059 110,240.059L121.25,240.059L126.25,280.059L260,280.059C265.531,280.059 270,284.528 270,290.059C270,295.59 265.531,300.059 260,300.059L128.75,300.059L150,471.309C150.621,476.309 154.961,480.059 160,480.059L340,480.059C345.039,480.059 349.379,476.309 350,471.309L371.25,300.059L310,300.059C304.469,300.059 300,295.59 300,290.059C300,284.528 304.469,280.059 310,280.059L373.75,280.059L378.75,240.059L390,240.059C395.523,240.059 400,235.582 400,230.059C400,150.289 337.395,84.942 258.75,80.371L250,28.496C249.223,23.59 244.965,20 240,20.059L130,20.059ZM250,100.059C318.492,100.059 373.891,152.918 379.063,220.059L120.938,220.059C126.109,152.918 181.508,100.059 250,100.059Z" style="fill:rgb(159,160,87);fill-rule:nonzero;"/>
                </g>
                <g transform="matrix(2.5275,0.479052,-0.381813,2.01446,-11906.4,-4031.12)">
                    <path d="M5256.38,1374C5263.48,1422.71 5220.89,1442.2 5220.89,1471.43C5220.89,1496 5236.79,1515.95 5256.38,1515.95C5275.96,1515.95 5291.87,1496 5291.87,1471.43C5291.87,1442.2 5274.12,1400.45 5256.38,1374Z" style="fill:rgb(159,160,87);"/>
                </g>
                <g transform="matrix(-2.00931,-0.570237,-0.454489,1.60146,12753.9,2339.38)">
                    <path d="M5256.38,1374C5263.48,1422.71 5220.89,1442.2 5220.89,1471.43C5220.89,1496 5236.79,1515.95 5256.38,1515.95C5275.96,1515.95 5291.87,1496 5291.87,1471.43C5291.87,1442.2 5274.12,1400.45 5256.38,1374Z" style="fill:rgb(159,160,87);"/>
                </g>
                <g transform="matrix(-1.54087,-0.437294,-0.348532,1.2281,9851.94,664.175)">
                    <path d="M5256.38,1374C5263.48,1422.71 5220.89,1442.2 5220.89,1471.43C5220.89,1496 5236.79,1515.95 5256.38,1515.95C5275.96,1515.95 5291.87,1496 5291.87,1471.43C5291.87,1442.2 5274.12,1400.45 5256.38,1374Z" style="fill:rgb(159,160,87);"/>
                </g>
                <g transform="matrix(1.02753,0.315121,-0.251157,0.818958,-3741.59,-2494.6)">
                    <path d="M5256.38,1374C5263.48,1422.71 5220.89,1442.2 5220.89,1471.43C5220.89,1496 5236.79,1515.95 5256.38,1515.95C5275.96,1515.95 5291.87,1496 5291.87,1471.43C5291.87,1442.2 5274.12,1400.45 5256.38,1374Z" style="fill:rgb(159,160,87);"/>
                </g>
                <g transform="matrix(2.20216,1.57346,-1.48967,2.0849,-7443.31,-11135.4)">
                    <path d="M5256.38,1374C5263.48,1426.24 5220.89,1447.13 5220.89,1478.47C5220.89,1499.16 5236.79,1515.95 5256.38,1515.95C5275.96,1515.95 5291.87,1499.16 5291.87,1478.47C5291.87,1447.13 5274.12,1407.49 5256.38,1374Z" style="fill:rgb(159,160,87);"/>
                </g>
                <g transform="matrix(2.20216,1.57346,-1.48967,2.0849,-9443.34,-11135.4)">
                    <path d="M5256.38,1374C5263.48,1426.24 5220.89,1447.13 5220.89,1478.47C5220.89,1499.16 5236.79,1515.95 5256.38,1515.95C5275.96,1515.95 5291.87,1499.16 5291.87,1478.47C5291.87,1447.13 5274.12,1407.49 5256.38,1374Z" style="fill:rgb(159,160,87);"/>
                </g>
            </g>
        </g>
    </g>
</svg>
