<?xml version="1.0" encoding="UTF-8" standalone="no"?>
<!DOCTYPE svg PUBLIC "-//W3C//DTD SVG 1.1//EN" "http://www.w3.org/Graphics/SVG/1.1/DTD/svg11.dtd">
<svg width="100%" height="100%" viewBox="0 0 2000 2000" version="1.1" xmlns="http://www.w3.org/2000/svg" xmlns:xlink="http://www.w3.org/1999/xlink" xml:space="preserve" xmlns:serif="http://www.serif.com/" style="fill-rule:evenodd;clip-rule:evenodd;stroke-linejoin:round;stroke-miterlimit:2;">
    <g transform="matrix(1,0,0,1,-4426.4,0)">
        <g id="_-" serif:id=" " transform="matrix(1,0,0,1,4426.4,0)">
            <rect x="0" y="0" width="2000" height="2000" style="fill:none;"/>
            <clipPath id="_clip1">
                <rect x="0" y="0" width="2000" height="2000"/>
            </clipPath>
            <g clip-path="url(#_clip1)">
                <g transform="matrix(0.954198,0,0,0.922509,91.6031,154.982)">
                    <rect x="-96" y="-168" width="2096" height="2168" style="fill:#d1d3a5;"/>
                </g>
                <g transform="matrix(9.52374,2.55188,-2.55188,9.52374,932.165,617.926)">
                    <path d="M6,8C3.242,8 1,10.242 1,13L1,23L6.68,23C7.039,23.754 7.539,24.422 8.133,25L1,25L1,36C1,38.758 3.242,41 6,41L16,41L16,29.281L17,28.297L18,29.281L18,41L44,41C46.758,41 49,38.758 49,36L49,25L25.871,25C26.461,24.422 26.961,23.754 27.32,23L49,23L49,13C49,10.242 46.758,8 44,8L18,8L18,13.688C17.652,13.852 17.316,14.043 17,14.266C16.684,14.043 16.348,13.852 16,13.688L16,8L6,8ZM13,15C13.309,15 13.605,15.035 13.895,15.09C13.957,15.102 14.02,15.109 14.078,15.125C14.34,15.184 14.594,15.262 14.84,15.359C14.93,15.395 15.012,15.438 15.102,15.48C15.27,15.559 15.43,15.645 15.582,15.738C15.742,15.84 15.895,15.945 16.043,16.063C16.133,16.129 16.223,16.203 16.309,16.277C16.563,16.504 16.797,16.754 17,17.031C17.203,16.754 17.438,16.504 17.691,16.277C17.777,16.203 17.867,16.129 17.957,16.063C18.105,15.945 18.254,15.836 18.418,15.738C18.57,15.645 18.734,15.559 18.898,15.48C18.988,15.438 19.07,15.395 19.16,15.359C19.406,15.262 19.66,15.184 19.922,15.125C19.98,15.109 20.043,15.102 20.105,15.09C20.395,15.035 20.691,15 21,15C23.758,15 26,17.242 26,20C26,22.758 23.758,25 21,25L19.355,25L23.703,29.285L22.297,30.715L17,25.488L11.703,30.715L10.297,29.285L14.645,25L13,25C10.242,25 8,22.758 8,20C8,17.242 10.242,15 13,15ZM13,17C11.348,17 10,18.348 10,20C10,21.652 11.348,23 13,23L16,23L16,20C16,18.348 14.652,17 13,17ZM21,17C19.348,17 18,18.348 18,20L18,23L21,23C22.652,23 24,21.652 24,20C24,18.348 22.652,17 21,17ZM32,33C32.551,33 33,33.449 33,34C33,34.551 32.551,35 32,35C31.449,35 31,34.551 31,34C31,33.449 31.449,33 32,33ZM35,33C35.551,33 36,33.449 36,34C36,34.551 35.551,35 35,35C34.449,35 34,34.551 34,34C34,33.449 34.449,33 35,33ZM38,33C38.551,33 39,33.449 39,34C39,34.551 38.551,35 38,35C37.449,35 37,34.551 37,34C37,33.449 37.449,33 38,33ZM41,33C41.551,33 42,33.449 42,34C42,34.551 41.551,35 41,35C40.449,35 40,34.551 40,34C40,33.449 40.449,33 41,33Z" style="fill:#b5b974;fill-rule:nonzero;"/>
                </g>
                <g transform="matrix(9.52374,-2.55188,2.55188,9.52374,1352.98,1294.87)">
                    <path d="M17.188,0C15.793,0 14.5,0.461 13.406,1.313C11.242,2.957 10.742,5.324 10.75,7.156C11.777,7.332 12.723,7.648 13.5,8C14.93,7.34 16.379,7 17.813,7L17.844,7C18.238,6.535 18.66,6.098 19.156,5.719C20.605,4.59 22.344,4 24.188,4C25.82,4 27.34,4.477 28.5,5C29.633,4.484 30.797,4.172 31.938,4.063C31.457,2.902 30.656,1.934 29.563,1.188C27.359,-0.355 24.332,-0.434 21.406,1.219C20.551,0.719 18.996,0 17.188,0ZM2,1C1.602,1 1.254,1.23 1.094,1.594C0.934,1.957 0.98,2.395 1.25,2.688C2.934,4.523 4.137,6.66 4.875,8.281C6.051,7.539 7.352,7.105 8.75,7.031C8.762,5.434 9.105,3.941 9.75,2.656C7.613,1.648 4.75,1 2,1ZM24.188,6C22.793,6 21.5,6.461 20.406,7.313C17.434,9.57 17.609,13.176 17.906,14.906C15.418,17.094 14.48,20.156 15.438,23.219C16.398,26.102 18.742,27.945 21.906,28.344C23.285,31.379 25.695,33.094 28.594,33.094C31.488,33.094 33.902,31.367 35.281,28.344C38.598,28.023 41.098,26.035 41.875,23.031C42.586,20.191 41.715,17.527 39.375,15.25C40.07,10.73 38.25,8.375 36.563,7.188C34.301,5.605 31.359,5.625 28.5,7.25C27.563,6.73 25.938,6 24.188,6ZM9.188,9C7.793,9 6.5,9.461 5.406,10.313C2.434,12.57 2.609,16.176 2.906,17.906C0.418,20.094 -0.52,23.156 0.438,26.219C1.398,29.102 3.742,30.945 6.906,31.344C8.285,34.379 10.695,36.094 13.594,36.094C16.492,36.094 18.902,34.375 20.281,31.344C20.613,31.305 20.938,31.25 21.25,31.188C21.012,30.855 20.801,30.496 20.594,30.125C17.98,29.539 15.863,28.082 14.531,25.938C14.32,25.977 14.129,26 13.906,26C11.805,26 10.094,24.199 10.094,22C10.094,19.934 11.609,18.23 13.531,18.031C13.969,16.633 14.707,15.336 15.781,14.188C15.617,12.336 15.891,10.613 16.531,9.125C15.527,9.297 14.516,9.672 13.5,10.25C12.496,9.688 10.918,9 9.188,9ZM47.156,12.844C44.762,12.844 43.074,13.688 41.594,14.719C43.793,17.313 44.602,20.379 43.813,23.531C42.918,26.977 40.199,29.461 36.594,30.188C35.613,31.918 34.289,33.199 32.75,34.031C31.672,42.176 27.293,46.828 25.844,48.156C25.727,48.262 25.617,48.367 25.5,48.469C24.797,49.07 24.121,49.539 23.469,49.875C23.395,49.914 23.297,49.949 23.219,49.969C24.16,49.887 39.742,48.277 43.281,33.219L43.969,30.063C46.035,20.773 46.91,16.918 49.625,14.781C49.938,14.535 50.066,14.133 49.969,13.75C49.871,13.367 49.547,13.066 49.156,13C48.461,12.883 47.785,12.844 47.156,12.844ZM28.813,15C30.91,15 32.594,16.789 32.594,19C32.594,21.211 30.91,23 28.813,23C26.715,23 25,21.211 25,19C25,16.789 26.715,15 28.813,15ZM22.5,32.938C22.203,33.023 21.906,33.094 21.594,33.156C20.445,35.191 18.863,36.652 16.969,37.438C19.469,39.441 21.602,43.27 21.969,48.5C22.137,48.379 22.309,48.266 22.531,48.125C24.68,46.441 24.879,38.203 22.5,32.938ZM25.188,34.406C26.254,37.945 26.508,42.074 25.938,45.156C27.926,42.766 29.797,39.238 30.594,34.875C29.953,35.02 29.281,35.094 28.594,35.094C27.379,35.094 26.246,34.852 25.188,34.406Z" style="fill:#b5b974;fill-rule:nonzero;"/>
                </g>
                <g transform="matrix(8.77618,-1.51174,1.51174,8.77618,1581.6,338.874)">
                    <path d="M17.188,0C15.793,0 14.5,0.461 13.406,1.313C11.242,2.957 10.742,5.324 10.75,7.156C11.777,7.332 12.723,7.648 13.5,8C14.93,7.34 16.379,7 17.813,7L17.844,7C18.238,6.535 18.66,6.098 19.156,5.719C20.605,4.59 22.344,4 24.188,4C25.82,4 27.34,4.477 28.5,5C29.633,4.484 30.797,4.172 31.938,4.063C31.457,2.902 30.656,1.934 29.563,1.188C27.359,-0.355 24.332,-0.434 21.406,1.219C20.551,0.719 18.996,0 17.188,0ZM2,1C1.602,1 1.254,1.23 1.094,1.594C0.934,1.957 0.98,2.395 1.25,2.688C2.934,4.523 4.137,6.66 4.875,8.281C6.051,7.539 7.352,7.105 8.75,7.031C8.762,5.434 9.105,3.941 9.75,2.656C7.613,1.648 4.75,1 2,1ZM24.188,6C22.793,6 21.5,6.461 20.406,7.313C17.434,9.57 17.609,13.176 17.906,14.906C15.418,17.094 14.48,20.156 15.438,23.219C16.398,26.102 18.742,27.945 21.906,28.344C23.285,31.379 25.695,33.094 28.594,33.094C31.488,33.094 33.902,31.367 35.281,28.344C38.598,28.023 41.098,26.035 41.875,23.031C42.586,20.191 41.715,17.527 39.375,15.25C40.07,10.73 38.25,8.375 36.563,7.188C34.301,5.605 31.359,5.625 28.5,7.25C27.563,6.73 25.938,6 24.188,6ZM9.188,9C7.793,9 6.5,9.461 5.406,10.313C2.434,12.57 2.609,16.176 2.906,17.906C0.418,20.094 -0.52,23.156 0.438,26.219C1.398,29.102 3.742,30.945 6.906,31.344C8.285,34.379 10.695,36.094 13.594,36.094C16.492,36.094 18.902,34.375 20.281,31.344C20.613,31.305 20.938,31.25 21.25,31.188C21.012,30.855 20.801,30.496 20.594,30.125C17.98,29.539 15.863,28.082 14.531,25.938C14.32,25.977 14.129,26 13.906,26C11.805,26 10.094,24.199 10.094,22C10.094,19.934 11.609,18.23 13.531,18.031C13.969,16.633 14.707,15.336 15.781,14.188C15.617,12.336 15.891,10.613 16.531,9.125C15.527,9.297 14.516,9.672 13.5,10.25C12.496,9.688 10.918,9 9.188,9ZM47.156,12.844C44.762,12.844 43.074,13.688 41.594,14.719C43.793,17.313 44.602,20.379 43.813,23.531C42.918,26.977 40.199,29.461 36.594,30.188C35.613,31.918 34.289,33.199 32.75,34.031C31.672,42.176 27.293,46.828 25.844,48.156C25.727,48.262 25.617,48.367 25.5,48.469C24.797,49.07 24.121,49.539 23.469,49.875C23.395,49.914 23.297,49.949 23.219,49.969C24.16,49.887 39.742,48.277 43.281,33.219L43.969,30.063C46.035,20.773 46.91,16.918 49.625,14.781C49.938,14.535 50.066,14.133 49.969,13.75C49.871,13.367 49.547,13.066 49.156,13C48.461,12.883 47.785,12.844 47.156,12.844ZM28.813,15C30.91,15 32.594,16.789 32.594,19C32.594,21.211 30.91,23 28.813,23C26.715,23 25,21.211 25,19C25,16.789 26.715,15 28.813,15ZM22.5,32.938C22.203,33.023 21.906,33.094 21.594,33.156C20.445,35.191 18.863,36.652 16.969,37.438C19.469,39.441 21.602,43.27 21.969,48.5C22.137,48.379 22.309,48.266 22.531,48.125C24.68,46.441 24.879,38.203 22.5,32.938ZM25.188,34.406C26.254,37.945 26.508,42.074 25.938,45.156C27.926,42.766 29.797,39.238 30.594,34.875C29.953,35.02 29.281,35.094 28.594,35.094C27.379,35.094 26.246,34.852 25.188,34.406Z" style="fill:#b5b974;fill-rule:nonzero;"/>
                </g>
                <g transform="matrix(11.4505,-3.06815,3.06815,11.4505,412.31,1264.24)">
                    <path d="M25,2C18.383,2 13,7.383 13,14C13,19.848 17.234,28.574 23.125,30.156L22.5,32L24,32L24,41.438C23.625,40.664 23.215,39.863 22.813,39.094C22.027,37.598 21.234,36.172 20.625,35.063C20.508,34.852 20.445,34.719 20.344,34.531L21.375,34.063L20.25,32.844C20.645,32.492 21.027,32.105 21.375,31.656C15.184,29.063 11,20.254 11,14C11,12.262 11.324,10.598 11.906,9.063C11.039,9.148 10.199,9.336 9.375,9.625C3.645,11.645 0.605,17.957 2.625,23.688C4.348,28.574 10.309,34.563 15.75,34.563C16.164,34.563 16.594,34.543 17,34.469L17.156,36L18.5,35.375C18.625,35.598 18.73,35.77 18.875,36.031C19.484,37.141 20.258,38.559 21.031,40.031C21.805,41.504 22.566,43.027 23.125,44.313C23.684,45.598 24,46.754 24,47C23.992,47.309 24.129,47.602 24.367,47.797C24.602,47.992 24.918,48.066 25.219,48C25.32,47.973 25.414,47.93 25.5,47.875C25.52,47.867 25.543,47.855 25.563,47.844C25.621,47.797 25.672,47.746 25.719,47.688C25.793,47.625 25.855,47.551 25.906,47.469C25.953,47.371 25.984,47.266 26,47.156C26.004,47.105 26.004,47.051 26,47L26,46.469C26,45.051 30.324,35.891 31.75,32.875C32.031,32.277 31.992,32.352 32.156,32L33.438,32.594L33.625,30.781C33.82,30.797 34.02,30.844 34.219,30.844C36.465,30.844 38.945,29.82 41.406,27.875C44.227,25.645 46.578,22.496 47.563,19.625C48.535,16.785 48.352,13.727 47.031,11.031C45.711,8.336 43.434,6.316 40.594,5.344C38.969,4.785 37.246,4.629 35.563,4.844C37.699,7.305 39,10.492 39,14C39,18.855 36.465,25.23 32.438,29.063C32.141,29.344 31.844,29.621 31.531,29.875C31.473,29.922 31.402,29.953 31.344,30C31.297,30.035 31.266,30.09 31.219,30.125C31.031,30.266 30.848,30.402 30.656,30.531C30.418,30.695 30.184,30.855 29.938,31L30.344,31.188C30.215,31.461 30.078,31.703 29.938,32C28.297,35.473 27.004,38.352 26,40.688L26,32L27.5,32L26.875,30.156C32.766,28.574 37,19.848 37,14C37,7.383 31.617,2 25,2Z" style="fill:#b5b974;fill-rule:nonzero;"/>
                </g>
                <g transform="matrix(11.2984,3.02741,-3.02741,11.2984,593.383,10.6008)">
                    <path d="M25,3C15.63,3 8,10.63 8,20L8,26L10,26L10,20C10,11.73 16.73,5 25,5C29.72,5 34.19,7.25 37.01,11.02C35.7,12.71 34.061,15.27 31.891,18.98L37.051,24.17C38.191,22.12 39.149,20.351 39.949,18.811C39.979,19.211 40,19.6 40,20L40,26L42,26L42,20C42,18.9 41.83,17.05 41.49,15.66C43.484,11.25 43.397,9.19 41.787,8.26C40.727,7.65 39.73,8.14 38.35,9.49C35.15,5.41 30.21,3 25,3ZM17,10C16.4,10 16,10.4 16,11L16,19.1C14.8,19.5 12,20.7 12,26L24,26C24,20.8 21.2,19.5 20,19.1L20,11C20,10.4 19.6,10 19,10L17,10ZM40,14C39.65,14.68 39.199,15.37 38.279,15.5C37.349,15.63 37.019,14.811 37.369,14.131L40,14ZM28.01,18L24.469,20.102C25.369,21.432 26,23.35 26,26L35.988,26L28.01,18ZM37.76,18C37.42,18.68 36.959,19.37 36.039,19.5C35.119,19.63 34.791,18.811 35.131,18.131L37.76,18ZM7,28C5.9,28 5,28.9 5,30C5,31.1 5.9,32 7,32L8.029,32C8.389,38.35 12.121,44.25 17.561,46.9C17.701,46.97 17.85,47 18,47L32,47C32.15,47 32.299,46.97 32.439,46.9C37.879,44.25 41.611,38.35 41.971,32L43,32C44.1,32 45,31.1 45,30C45,28.9 44.1,28 43,28L7,28ZM29,34L36,34C36.55,34 37,34.45 37,35C37,35.55 36.55,36 36,36L29,36C28.45,36 28,35.55 28,35C28,34.45 28.45,34 29,34ZM16,37L23,37C23.55,37 24,37.45 24,38C24,38.55 23.55,39 23,39L16,39C15.45,39 15,38.55 15,38C15,37.45 15.45,37 16,37ZM27,41L31,41C31.55,41 32,41.45 32,42C32,42.55 31.55,43 31,43L27,43C26.45,43 26,42.55 26,42C26,41.45 26.45,41 27,41Z" style="fill:#b5b974;fill-rule:nonzero;"/>
                </g>
                <g transform="matrix(9.8597,0,0,9.8597,265.861,1622.89)">
                    <path d="M25,2C13.455,2 4,11.455 4,23C4,28.72 6.277,33.85 10,37.648L10,41L40,41L40,38C40,37.894 39.977,37.795 39.971,37.691C43.715,33.887 46,28.739 46,23C46,11.455 36.545,2 25,2ZM25,4C25,4.549 25.451,5 26,5C26.508,5 26.94,4.613 26.994,4.107C29.586,4.381 32.022,5.185 34.201,6.4C34.071,6.573 34,6.784 34,7C34,7.549 34.451,8 35,8C35.371,8 35.712,7.793 35.885,7.465C36.559,7.94 37.194,8.463 37.801,9.02C37.336,9.114 37,9.526 37,10C37,10.549 37.451,11 38,11C38.475,11 38.888,10.661 38.98,10.195C39.537,10.803 40.06,11.44 40.535,12.115C40.207,12.288 40,12.629 40,13C40,13.549 40.451,14 41,14C41.216,14 41.427,13.929 41.6,13.799C41.864,14.273 42.104,14.762 42.328,15.26C42.119,15.449 42,15.718 42,16C42,16.549 42.451,17 43,17C43.003,17 43.005,17 43.008,17C43.438,18.283 43.746,19.62 43.893,21.006C43.387,21.06 43,21.492 43,22C43,22.549 43.451,23 44,23C44,27.813 42.246,32.131 39.303,35.479C38.506,34.124 37.1,33.171 35.457,33.021C34.773,31.789 33.46,31 32,31C31.672,31 31.354,31.034 31.051,31.098C30.325,30.088 29.217,29.374 28,29.115L28,37L26,37L26,16.586L21,11.586L21,9C21,8.995 21,8.991 21,8.986C21,8.438 20.549,7.986 20,7.986C19.995,7.986 19.99,7.986 19.984,7.986C19.437,7.995 18.992,8.452 19,9L19,11.586L14,16.586L14,37L12,37L12,33.543C11.329,33.926 10.789,34.496 10.438,35.186C7.648,31.88 6,27.672 6,23C6,12.545 14.545,4 25,4ZM29,6C28.451,6 28,6.451 28,7C28,7.549 28.451,8 29,8C29.549,8 30,7.549 30,7C30,6.451 29.549,6 29,6ZM32,9C31.451,9 31,9.451 31,10C31,10.549 31.451,11 32,11C32.549,11 33,10.549 33,10C33,9.451 32.549,9 32,9ZM29,12C28.451,12 28,12.451 28,13C28,13.549 28.451,14 29,14C29.549,14 30,13.549 30,13C30,12.451 29.549,12 29,12ZM35,12C34.451,12 34,12.451 34,13C34,13.549 34.451,14 35,14C35.549,14 36,13.549 36,13C36,12.451 35.549,12 35,12ZM32,15C31.451,15 31,15.451 31,16C31,16.549 31.451,17 32,17C32.549,17 33,16.549 33,16C33,15.451 32.549,15 32,15ZM38,15C37.451,15 37,15.451 37,16C37,16.549 37.451,17 38,17C38.549,17 39,16.549 39,16C39,15.451 38.549,15 38,15ZM35,18C34.451,18 34,18.451 34,19C34,19.549 34.451,20 35,20C35.549,20 36,19.549 36,19C36,18.451 35.549,18 35,18ZM41,18C40.451,18 40,18.451 40,19C40,19.549 40.451,20 41,20C41.549,20 42,19.549 42,19C42,18.451 41.549,18 41,18ZM18,19L22,19L22,21L18,21L18,19ZM32,21C31.451,21 31,21.451 31,22C31,22.549 31.451,23 32,23C32.549,23 33,22.549 33,22C33,21.451 32.549,21 32,21ZM38,21C37.451,21 37,21.451 37,22C37,22.549 37.451,23 38,23C38.549,23 39,22.549 39,22C39,21.451 38.549,21 38,21ZM18,23L22,23L22,25L18,25L18,23ZM35,24C34.451,24 34,24.451 34,25C34,25.549 34.451,26 35,26C35.549,26 36,25.549 36,25C36,24.451 35.549,24 35,24ZM41,24C40.451,24 40,24.451 40,25C40,25.549 40.451,26 41,26C41.549,26 42,25.549 42,25C42,24.451 41.549,24 41,24ZM18,27L22,27L22,29L18,29L18,27ZM38,27C37.451,27 37,27.451 37,28C37,28.549 37.451,29 38,29C38.549,29 39,28.549 39,28C39,27.451 38.549,27 38,27ZM18,31L22,31L22,33L18,33L18,31ZM7,43C6.448,43 6,43.447 6,44L6,46C6,46.553 6.448,47 7,47L43,47C43.553,47 44,46.553 44,46L44,44C44,43.447 43.553,43 43,43L7,43Z" style="fill:#b5b974;fill-rule:nonzero;"/>
                </g>
                <g transform="matrix(9.42496,2.89549,-2.89549,9.42496,1141.61,160.939)">
                    <path d="M25,2C13.455,2 4,11.455 4,23C4,28.72 6.277,33.85 10,37.648L10,41L40,41L40,38C40,37.894 39.977,37.795 39.971,37.691C43.715,33.887 46,28.739 46,23C46,11.455 36.545,2 25,2ZM25,4C25,4.549 25.451,5 26,5C26.508,5 26.94,4.613 26.994,4.107C29.586,4.381 32.022,5.185 34.201,6.4C34.071,6.573 34,6.784 34,7C34,7.549 34.451,8 35,8C35.371,8 35.712,7.793 35.885,7.465C36.559,7.94 37.194,8.463 37.801,9.02C37.336,9.114 37,9.526 37,10C37,10.549 37.451,11 38,11C38.475,11 38.888,10.661 38.98,10.195C39.537,10.803 40.06,11.44 40.535,12.115C40.207,12.288 40,12.629 40,13C40,13.549 40.451,14 41,14C41.216,14 41.427,13.929 41.6,13.799C41.864,14.273 42.104,14.762 42.328,15.26C42.119,15.449 42,15.718 42,16C42,16.549 42.451,17 43,17C43.003,17 43.005,17 43.008,17C43.438,18.283 43.746,19.62 43.893,21.006C43.387,21.06 43,21.492 43,22C43,22.549 43.451,23 44,23C44,27.813 42.246,32.131 39.303,35.479C38.506,34.124 37.1,33.171 35.457,33.021C34.773,31.789 33.46,31 32,31C31.672,31 31.354,31.034 31.051,31.098C30.325,30.088 29.217,29.374 28,29.115L28,37L26,37L26,16.586L21,11.586L21,9C21,8.995 21,8.991 21,8.986C21,8.438 20.549,7.986 20,7.986C19.995,7.986 19.99,7.986 19.984,7.986C19.437,7.995 18.992,8.452 19,9L19,11.586L14,16.586L14,37L12,37L12,33.543C11.329,33.926 10.789,34.496 10.438,35.186C7.648,31.88 6,27.672 6,23C6,12.545 14.545,4 25,4ZM29,6C28.451,6 28,6.451 28,7C28,7.549 28.451,8 29,8C29.549,8 30,7.549 30,7C30,6.451 29.549,6 29,6ZM32,9C31.451,9 31,9.451 31,10C31,10.549 31.451,11 32,11C32.549,11 33,10.549 33,10C33,9.451 32.549,9 32,9ZM29,12C28.451,12 28,12.451 28,13C28,13.549 28.451,14 29,14C29.549,14 30,13.549 30,13C30,12.451 29.549,12 29,12ZM35,12C34.451,12 34,12.451 34,13C34,13.549 34.451,14 35,14C35.549,14 36,13.549 36,13C36,12.451 35.549,12 35,12ZM32,15C31.451,15 31,15.451 31,16C31,16.549 31.451,17 32,17C32.549,17 33,16.549 33,16C33,15.451 32.549,15 32,15ZM38,15C37.451,15 37,15.451 37,16C37,16.549 37.451,17 38,17C38.549,17 39,16.549 39,16C39,15.451 38.549,15 38,15ZM35,18C34.451,18 34,18.451 34,19C34,19.549 34.451,20 35,20C35.549,20 36,19.549 36,19C36,18.451 35.549,18 35,18ZM41,18C40.451,18 40,18.451 40,19C40,19.549 40.451,20 41,20C41.549,20 42,19.549 42,19C42,18.451 41.549,18 41,18ZM18,19L22,19L22,21L18,21L18,19ZM32,21C31.451,21 31,21.451 31,22C31,22.549 31.451,23 32,23C32.549,23 33,22.549 33,22C33,21.451 32.549,21 32,21ZM38,21C37.451,21 37,21.451 37,22C37,22.549 37.451,23 38,23C38.549,23 39,22.549 39,22C39,21.451 38.549,21 38,21ZM18,23L22,23L22,25L18,25L18,23ZM35,24C34.451,24 34,24.451 34,25C34,25.549 34.451,26 35,26C35.549,26 36,25.549 36,25C36,24.451 35.549,24 35,24ZM41,24C40.451,24 40,24.451 40,25C40,25.549 40.451,26 41,26C41.549,26 42,25.549 42,25C42,24.451 41.549,24 41,24ZM18,27L22,27L22,29L18,29L18,27ZM38,27C37.451,27 37,27.451 37,28C37,28.549 37.451,29 38,29C38.549,29 39,28.549 39,28C39,27.451 38.549,27 38,27ZM18,31L22,31L22,33L18,33L18,31ZM7,43C6.448,43 6,43.447 6,44L6,46C6,46.553 6.448,47 7,47L43,47C43.553,47 44,46.553 44,46L44,44C44,43.447 43.553,43 43,43L7,43Z" style="fill:#b5b974;fill-rule:nonzero;"/>
                </g>
                <g transform="matrix(9.8597,0,0,9.8597,265.861,-377.119)">
                    <path d="M25,2C13.455,2 4,11.455 4,23C4,28.72 6.277,33.85 10,37.648L10,41L40,41L40,38C40,37.894 39.977,37.795 39.971,37.691C43.715,33.887 46,28.739 46,23C46,11.455 36.545,2 25,2ZM25,4C25,4.549 25.451,5 26,5C26.508,5 26.94,4.613 26.994,4.107C29.586,4.381 32.022,5.185 34.201,6.4C34.071,6.573 34,6.784 34,7C34,7.549 34.451,8 35,8C35.371,8 35.712,7.793 35.885,7.465C36.559,7.94 37.194,8.463 37.801,9.02C37.336,9.114 37,9.526 37,10C37,10.549 37.451,11 38,11C38.475,11 38.888,10.661 38.98,10.195C39.537,10.803 40.06,11.44 40.535,12.115C40.207,12.288 40,12.629 40,13C40,13.549 40.451,14 41,14C41.216,14 41.427,13.929 41.6,13.799C41.864,14.273 42.104,14.762 42.328,15.26C42.119,15.449 42,15.718 42,16C42,16.549 42.451,17 43,17C43.003,17 43.005,17 43.008,17C43.438,18.283 43.746,19.62 43.893,21.006C43.387,21.06 43,21.492 43,22C43,22.549 43.451,23 44,23C44,27.813 42.246,32.131 39.303,35.479C38.506,34.124 37.1,33.171 35.457,33.021C34.773,31.789 33.46,31 32,31C31.672,31 31.354,31.034 31.051,31.098C30.325,30.088 29.217,29.374 28,29.115L28,37L26,37L26,16.586L21,11.586L21,9C21,8.995 21,8.991 21,8.986C21,8.438 20.549,7.986 20,7.986C19.995,7.986 19.99,7.986 19.984,7.986C19.437,7.995 18.992,8.452 19,9L19,11.586L14,16.586L14,37L12,37L12,33.543C11.329,33.926 10.789,34.496 10.438,35.186C7.648,31.88 6,27.672 6,23C6,12.545 14.545,4 25,4ZM29,6C28.451,6 28,6.451 28,7C28,7.549 28.451,8 29,8C29.549,8 30,7.549 30,7C30,6.451 29.549,6 29,6ZM32,9C31.451,9 31,9.451 31,10C31,10.549 31.451,11 32,11C32.549,11 33,10.549 33,10C33,9.451 32.549,9 32,9ZM29,12C28.451,12 28,12.451 28,13C28,13.549 28.451,14 29,14C29.549,14 30,13.549 30,13C30,12.451 29.549,12 29,12ZM35,12C34.451,12 34,12.451 34,13C34,13.549 34.451,14 35,14C35.549,14 36,13.549 36,13C36,12.451 35.549,12 35,12ZM32,15C31.451,15 31,15.451 31,16C31,16.549 31.451,17 32,17C32.549,17 33,16.549 33,16C33,15.451 32.549,15 32,15ZM38,15C37.451,15 37,15.451 37,16C37,16.549 37.451,17 38,17C38.549,17 39,16.549 39,16C39,15.451 38.549,15 38,15ZM35,18C34.451,18 34,18.451 34,19C34,19.549 34.451,20 35,20C35.549,20 36,19.549 36,19C36,18.451 35.549,18 35,18ZM41,18C40.451,18 40,18.451 40,19C40,19.549 40.451,20 41,20C41.549,20 42,19.549 42,19C42,18.451 41.549,18 41,18ZM18,19L22,19L22,21L18,21L18,19ZM32,21C31.451,21 31,21.451 31,22C31,22.549 31.451,23 32,23C32.549,23 33,22.549 33,22C33,21.451 32.549,21 32,21ZM38,21C37.451,21 37,21.451 37,22C37,22.549 37.451,23 38,23C38.549,23 39,22.549 39,22C39,21.451 38.549,21 38,21ZM18,23L22,23L22,25L18,25L18,23ZM35,24C34.451,24 34,24.451 34,25C34,25.549 34.451,26 35,26C35.549,26 36,25.549 36,25C36,24.451 35.549,24 35,24ZM41,24C40.451,24 40,24.451 40,25C40,25.549 40.451,26 41,26C41.549,26 42,25.549 42,25C42,24.451 41.549,24 41,24ZM18,27L22,27L22,29L18,29L18,27ZM38,27C37.451,27 37,27.451 37,28C37,28.549 37.451,29 38,29C38.549,29 39,28.549 39,28C39,27.451 38.549,27 38,27ZM18,31L22,31L22,33L18,33L18,31ZM7,43C6.448,43 6,43.447 6,44L6,46C6,46.553 6.448,47 7,47L43,47C43.553,47 44,46.553 44,46L44,44C44,43.447 43.553,43 43,43L7,43Z" style="fill:#b5b974;fill-rule:nonzero;"/>
                </g>
                <g transform="matrix(7.23534,-4.17732,4.17732,7.23534,-174.261,1464.66)">
                    <path d="M25,1C20.029,1 16,5.029 16,10C16,12.351 16.909,14.485 18.385,16.088L12.041,14.818L9.383,23.467L15.186,24.627C16.242,24.838 17,25.765 17,26.84L17,28.914C17,29.61 16.854,30.299 16.572,30.936L12.773,39.535L21.35,42.395L25,34.135L28.65,42.395L37.227,39.535L33.426,30.936C33.145,30.3 33,29.612 33,28.916L33,26.84C33,25.764 33.759,24.838 34.814,24.627L40.617,23.467L37.961,14.818L31.615,16.088C33.091,14.485 34,12.351 34,10C34,5.029 29.971,1 25,1ZM22.5,7C23.328,7 24,7.672 24,8.5C24,9.328 23.328,10 22.5,10C21.672,10 21,9.328 21,8.5C21,7.672 21.672,7 22.5,7ZM27.5,7C28.328,7 29,7.672 29,8.5C29,9.328 28.328,10 27.5,10C26.672,10 26,9.328 26,8.5C26,7.672 26.672,7 27.5,7ZM27.531,12C27.659,12.008 27.784,12.067 27.875,12.17C28.058,12.377 28.038,12.693 27.83,12.875C26.995,13.611 26.017,14 25,14C23.983,14 23.005,13.612 22.17,12.877C21.962,12.694 21.942,12.377 22.125,12.17C22.308,11.963 22.623,11.943 22.83,12.125C24.131,13.27 25.869,13.27 27.17,12.125C27.273,12.033 27.404,11.992 27.531,12ZM42.576,13.998C42.261,13.993 41.939,14.023 41.617,14.088L39.932,14.424L42.588,23.07L43.197,22.949C45.501,22.489 47.221,20.393 46.979,18.055C46.735,15.708 44.785,14.033 42.576,13.998ZM7.424,14.002C5.215,14.039 3.266,15.707 3.021,18.053C2.778,20.391 4.498,22.49 6.803,22.951L7.412,23.072L10.07,14.426L8.383,14.088C8.061,14.024 7.739,13.997 7.424,14.002ZM25,20C26.105,20 27,20.895 27,22C27,23.105 26.105,24 25,24C23.895,24 23,23.105 23,22C23,20.895 23.895,20 25,20ZM25,27C26.105,27 27,27.895 27,29C27,30.105 26.105,31 25,31C23.895,31 23,30.105 23,29C23,27.895 23.895,27 25,27ZM11.963,41.373L11.469,42.49C10.519,44.64 11.234,47.256 13.279,48.414C15.625,49.742 18.552,48.73 19.617,46.318L20.539,44.232L11.963,41.373ZM38.037,41.373L29.463,44.232L30.385,46.318C31.128,48.001 32.775,49.002 34.502,49.002C35.168,49.002 35.845,48.853 36.486,48.539C38.689,47.46 39.515,44.72 38.523,42.477L38.037,41.373Z" style="fill:#b5b974;fill-rule:nonzero;"/>
                </g>
                <g transform="matrix(8.90025,2.38481,-2.38481,8.90025,1473.57,647.967)">
                    <path d="M25,1C20.029,1 16,5.029 16,10C16,12.351 16.909,14.485 18.385,16.088L12.041,14.818L9.383,23.467L15.186,24.627C16.242,24.838 17,25.765 17,26.84L17,28.914C17,29.61 16.854,30.299 16.572,30.936L12.773,39.535L21.35,42.395L25,34.135L28.65,42.395L37.227,39.535L33.426,30.936C33.145,30.3 33,29.612 33,28.916L33,26.84C33,25.764 33.759,24.838 34.814,24.627L40.617,23.467L37.961,14.818L31.615,16.088C33.091,14.485 34,12.351 34,10C34,5.029 29.971,1 25,1ZM22.5,7C23.328,7 24,7.672 24,8.5C24,9.328 23.328,10 22.5,10C21.672,10 21,9.328 21,8.5C21,7.672 21.672,7 22.5,7ZM27.5,7C28.328,7 29,7.672 29,8.5C29,9.328 28.328,10 27.5,10C26.672,10 26,9.328 26,8.5C26,7.672 26.672,7 27.5,7ZM27.531,12C27.659,12.008 27.784,12.067 27.875,12.17C28.058,12.377 28.038,12.693 27.83,12.875C26.995,13.611 26.017,14 25,14C23.983,14 23.005,13.612 22.17,12.877C21.962,12.694 21.942,12.377 22.125,12.17C22.308,11.963 22.623,11.943 22.83,12.125C24.131,13.27 25.869,13.27 27.17,12.125C27.273,12.033 27.404,11.992 27.531,12ZM42.576,13.998C42.261,13.993 41.939,14.023 41.617,14.088L39.932,14.424L42.588,23.07L43.197,22.949C45.501,22.489 47.221,20.393 46.979,18.055C46.735,15.708 44.785,14.033 42.576,13.998ZM7.424,14.002C5.215,14.039 3.266,15.707 3.021,18.053C2.778,20.391 4.498,22.49 6.803,22.951L7.412,23.072L10.07,14.426L8.383,14.088C8.061,14.024 7.739,13.997 7.424,14.002ZM25,20C26.105,20 27,20.895 27,22C27,23.105 26.105,24 25,24C23.895,24 23,23.105 23,22C23,20.895 23.895,20 25,20ZM25,27C26.105,27 27,27.895 27,29C27,30.105 26.105,31 25,31C23.895,31 23,30.105 23,29C23,27.895 23.895,27 25,27ZM11.963,41.373L11.469,42.49C10.519,44.64 11.234,47.256 13.279,48.414C15.625,49.742 18.552,48.73 19.617,46.318L20.539,44.232L11.963,41.373ZM38.037,41.373L29.463,44.232L30.385,46.318C31.128,48.001 32.775,49.002 34.502,49.002C35.168,49.002 35.845,48.853 36.486,48.539C38.689,47.46 39.515,44.72 38.523,42.477L38.037,41.373Z" style="fill:#b5b974;fill-rule:nonzero;"/>
                </g>
                <g transform="matrix(7.23534,-4.17732,4.17732,7.23534,1825.73,1464.66)">
                    <path d="M25,1C20.029,1 16,5.029 16,10C16,12.351 16.909,14.485 18.385,16.088L12.041,14.818L9.383,23.467L15.186,24.627C16.242,24.838 17,25.765 17,26.84L17,28.914C17,29.61 16.854,30.299 16.572,30.936L12.773,39.535L21.35,42.395L25,34.135L28.65,42.395L37.227,39.535L33.426,30.936C33.145,30.3 33,29.612 33,28.916L33,26.84C33,25.764 33.759,24.838 34.814,24.627L40.617,23.467L37.961,14.818L31.615,16.088C33.091,14.485 34,12.351 34,10C34,5.029 29.971,1 25,1ZM22.5,7C23.328,7 24,7.672 24,8.5C24,9.328 23.328,10 22.5,10C21.672,10 21,9.328 21,8.5C21,7.672 21.672,7 22.5,7ZM27.5,7C28.328,7 29,7.672 29,8.5C29,9.328 28.328,10 27.5,10C26.672,10 26,9.328 26,8.5C26,7.672 26.672,7 27.5,7ZM27.531,12C27.659,12.008 27.784,12.067 27.875,12.17C28.058,12.377 28.038,12.693 27.83,12.875C26.995,13.611 26.017,14 25,14C23.983,14 23.005,13.612 22.17,12.877C21.962,12.694 21.942,12.377 22.125,12.17C22.308,11.963 22.623,11.943 22.83,12.125C24.131,13.27 25.869,13.27 27.17,12.125C27.273,12.033 27.404,11.992 27.531,12ZM42.576,13.998C42.261,13.993 41.939,14.023 41.617,14.088L39.932,14.424L42.588,23.07L43.197,22.949C45.501,22.489 47.221,20.393 46.979,18.055C46.735,15.708 44.785,14.033 42.576,13.998ZM7.424,14.002C5.215,14.039 3.266,15.707 3.021,18.053C2.778,20.391 4.498,22.49 6.803,22.951L7.412,23.072L10.07,14.426L8.383,14.088C8.061,14.024 7.739,13.997 7.424,14.002ZM25,20C26.105,20 27,20.895 27,22C27,23.105 26.105,24 25,24C23.895,24 23,23.105 23,22C23,20.895 23.895,20 25,20ZM25,27C26.105,27 27,27.895 27,29C27,30.105 26.105,31 25,31C23.895,31 23,30.105 23,29C23,27.895 23.895,27 25,27ZM11.963,41.373L11.469,42.49C10.519,44.64 11.234,47.256 13.279,48.414C15.625,49.742 18.552,48.73 19.617,46.318L20.539,44.232L11.963,41.373ZM38.037,41.373L29.463,44.232L30.385,46.318C31.128,48.001 32.775,49.002 34.502,49.002C35.168,49.002 35.845,48.853 36.486,48.539C38.689,47.46 39.515,44.72 38.523,42.477L38.037,41.373Z" style="fill:#b5b974;fill-rule:nonzero;"/>
                </g>
                <g transform="matrix(9.8597,0,0,9.8597,-210.082,783.194)">
                    <path d="M20.5,0.012C18.585,0.012 17.012,1.585 17.012,3.5C17.012,4.143 17.236,4.666 17.5,5.215C17.764,5.763 18.096,6.311 18.424,6.811C18.808,7.396 19.142,7.851 19.393,8.182L16.816,12.469C16.814,12.472 16.812,12.475 16.811,12.479L15.713,14.307L9.359,24.879C7.226,28.429 7.668,32.969 10.445,36.043C10.455,36.055 10.466,36.067 10.477,36.078L21.299,46.955C21.301,46.958 21.304,46.96 21.307,46.963C24.953,50.541 30.618,50.929 34.768,48.008C34.881,47.974 34.988,47.921 35.082,47.85C40.099,44.056 40.699,36.698 36.363,32.141L35.051,30.658C33.847,29.301 33.633,27.365 34.461,25.779C34.501,25.734 34.537,25.685 34.568,25.633L39.865,16.816C40.144,16.352 39.991,15.74 39.527,15.461L23.201,5.652C23.254,5.56 23.313,5.471 23.363,5.379C23.686,4.789 23.988,4.246 23.988,3.5C23.988,1.585 22.415,0.012 20.5,0.012ZM20.5,1.988C21.347,1.988 22.012,2.653 22.012,3.5C22.012,3.48 21.893,3.947 21.629,4.43C21.365,4.913 21.003,5.465 20.678,5.951C20.553,6.138 20.573,6.108 20.467,6.268C20.292,6.025 20.271,6.021 20.076,5.725C19.779,5.271 19.486,4.782 19.281,4.357C19.077,3.933 18.988,3.547 18.988,3.5C18.988,2.653 19.653,1.988 20.5,1.988ZM22.195,7.355L37.66,16.645L34.479,21.941L19.014,12.648L22.195,7.355ZM13.029,22.609C15.943,23.804 18,26.656 18,30C18,32.932 16.418,35.488 14.066,36.881L11.912,34.717C9.713,32.283 9.366,28.708 11.055,25.896L13.029,22.609ZM36.604,36.045C38.115,39.558 37.148,43.81 33.891,46.273C31.289,48.241 27.897,48.519 25.084,47.207C25.702,41.208 30.552,36.476 36.604,36.045Z" style="fill:#b5b974;fill-rule:nonzero;"/>
                </g>
                <g transform="matrix(9.8597,0,0,9.8597,1789.96,783.194)">
                    <path d="M20.5,0.012C18.585,0.012 17.012,1.585 17.012,3.5C17.012,4.143 17.236,4.666 17.5,5.215C17.764,5.763 18.096,6.311 18.424,6.811C18.808,7.396 19.142,7.851 19.393,8.182L16.816,12.469C16.814,12.472 16.812,12.475 16.811,12.479L15.713,14.307L9.359,24.879C7.226,28.429 7.668,32.969 10.445,36.043C10.455,36.055 10.466,36.067 10.477,36.078L21.299,46.955C21.301,46.958 21.304,46.96 21.307,46.963C24.953,50.541 30.618,50.929 34.768,48.008C34.881,47.974 34.988,47.921 35.082,47.85C40.099,44.056 40.699,36.698 36.363,32.141L35.051,30.658C33.847,29.301 33.633,27.365 34.461,25.779C34.501,25.734 34.537,25.685 34.568,25.633L39.865,16.816C40.144,16.352 39.991,15.74 39.527,15.461L23.201,5.652C23.254,5.56 23.313,5.471 23.363,5.379C23.686,4.789 23.988,4.246 23.988,3.5C23.988,1.585 22.415,0.012 20.5,0.012ZM20.5,1.988C21.347,1.988 22.012,2.653 22.012,3.5C22.012,3.48 21.893,3.947 21.629,4.43C21.365,4.913 21.003,5.465 20.678,5.951C20.553,6.138 20.573,6.108 20.467,6.268C20.292,6.025 20.271,6.021 20.076,5.725C19.779,5.271 19.486,4.782 19.281,4.357C19.077,3.933 18.988,3.547 18.988,3.5C18.988,2.653 19.653,1.988 20.5,1.988ZM22.195,7.355L37.66,16.645L34.479,21.941L19.014,12.648L22.195,7.355ZM13.029,22.609C15.943,23.804 18,26.656 18,30C18,32.932 16.418,35.488 14.066,36.881L11.912,34.717C9.713,32.283 9.366,28.708 11.055,25.896L13.029,22.609ZM36.604,36.045C38.115,39.558 37.148,43.81 33.891,46.273C31.289,48.241 27.897,48.519 25.084,47.207C25.702,41.208 30.552,36.476 36.604,36.045Z" style="fill:#b5b974;fill-rule:nonzero;"/>
                </g>
                <g transform="matrix(9.8597,8.88178e-16,-8.88178e-16,9.8597,268.228,665.32)">
                    <path d="M28.5,1.006C27.602,1.006 26.705,1.346 26.025,2.025C24.668,3.384 24.666,5.616 26.025,6.975C26.478,7.427 27.013,7.685 27.674,8L17,8C16.45,8 16,8.45 16,9L16,13C16,13.55 16.45,14 17,14L18,14L18,29L21,29C23.76,29 26,31.24 26,34L26,41.18C26.57,41.37 27.079,41.74 27.439,42.25C27.999,43.03 28.15,44.039 27.85,44.949L27.529,45.9C27.259,46.69 26.841,47.4 26.301,48L47,48C47.55,48 48,47.55 48,47L48,16L25,16L25,14L49,14C49.55,14 50,13.55 50,13L50,9C50,8.45 49.55,8 49,8L38.326,8C38.987,7.685 39.522,7.428 39.975,6.975C41.332,5.616 41.334,3.384 39.975,2.025C39.295,1.347 38.398,1.006 37.5,1.006C36.602,1.006 35.705,1.346 35.025,2.025C34.568,2.483 34.31,3.023 33.99,3.693C33.671,4.364 33.354,5.135 33.068,5.871C33.041,5.943 33.027,5.986 33,6.057C32.973,5.986 32.96,5.943 32.932,5.871C32.646,5.135 32.329,4.364 32.01,3.693C31.69,3.023 31.433,2.483 30.975,2.025C30.295,1.347 29.398,1.006 28.5,1.006ZM28.5,2.994C28.882,2.994 29.263,3.142 29.561,3.439C29.591,3.47 29.921,3.957 30.205,4.553C30.489,5.149 30.793,5.885 31.068,6.594C31.218,6.98 31.21,6.99 31.336,7.336C30.99,7.21 30.98,7.218 30.594,7.068C29.885,6.793 29.151,6.487 28.555,6.203C27.958,5.919 27.47,5.592 27.439,5.561C26.845,4.967 26.845,4.035 27.439,3.439C27.736,3.142 28.118,2.994 28.5,2.994ZM37.5,2.994C37.882,2.994 38.263,3.142 38.561,3.439C39.155,4.033 39.155,4.965 38.561,5.561C38.53,5.591 38.043,5.921 37.447,6.205C36.851,6.489 36.115,6.793 35.406,7.068C35.02,7.218 35.01,7.21 34.664,7.336C34.79,6.99 34.782,6.98 34.932,6.594C35.207,5.885 35.513,5.151 35.797,4.555C36.081,3.958 36.408,3.47 36.439,3.439C36.736,3.142 37.118,2.994 37.5,2.994ZM13,17C13,17 11,20.895 11,22C11,22.739 11.404,23.376 12,23.723L12,26C10.907,26 10,26.907 10,28L10,31L5,31C3.35,31 2,32.35 2,34L2,41L24,41L24,34C24,32.35 22.65,31 21,31L16,31L16,28C16,26.907 15.093,26 14,26L14,23.723C14.596,23.376 15,22.739 15,22C15,20.895 13,17 13,17ZM12,28L12.832,28C12.94,28.018 13.05,28.018 13.158,28L14,28L14,31L12,31L12,28ZM1,43C0.679,43 0.377,43.155 0.188,43.416C-0.001,43.677 -0.051,44.011 0.051,44.316L0.367,45.266C0.913,46.902 2.438,48 4.162,48L21.838,48C23.563,48 25.088,46.902 25.633,45.266L25.947,44.316C26.05,44.011 26,43.676 25.813,43.416C25.624,43.155 25.321,43 25,43L1,43Z" style="fill:#b5b974;fill-rule:nonzero;"/>
                </g>
                <g transform="matrix(9.8597,8.88178e-16,-8.88178e-16,9.8597,817.507,1562.4)">
                    <path d="M28.5,1.006C27.602,1.006 26.705,1.346 26.025,2.025C24.668,3.384 24.666,5.616 26.025,6.975C26.478,7.427 27.013,7.685 27.674,8L17,8C16.45,8 16,8.45 16,9L16,13C16,13.55 16.45,14 17,14L18,14L18,29L21,29C23.76,29 26,31.24 26,34L26,41.18C26.57,41.37 27.079,41.74 27.439,42.25C27.999,43.03 28.15,44.039 27.85,44.949L27.529,45.9C27.259,46.69 26.841,47.4 26.301,48L47,48C47.55,48 48,47.55 48,47L48,16L25,16L25,14L49,14C49.55,14 50,13.55 50,13L50,9C50,8.45 49.55,8 49,8L38.326,8C38.987,7.685 39.522,7.428 39.975,6.975C41.332,5.616 41.334,3.384 39.975,2.025C39.295,1.347 38.398,1.006 37.5,1.006C36.602,1.006 35.705,1.346 35.025,2.025C34.568,2.483 34.31,3.023 33.99,3.693C33.671,4.364 33.354,5.135 33.068,5.871C33.041,5.943 33.027,5.986 33,6.057C32.973,5.986 32.96,5.943 32.932,5.871C32.646,5.135 32.329,4.364 32.01,3.693C31.69,3.023 31.433,2.483 30.975,2.025C30.295,1.347 29.398,1.006 28.5,1.006ZM28.5,2.994C28.882,2.994 29.263,3.142 29.561,3.439C29.591,3.47 29.921,3.957 30.205,4.553C30.489,5.149 30.793,5.885 31.068,6.594C31.218,6.98 31.21,6.99 31.336,7.336C30.99,7.21 30.98,7.218 30.594,7.068C29.885,6.793 29.151,6.487 28.555,6.203C27.958,5.919 27.47,5.592 27.439,5.561C26.845,4.967 26.845,4.035 27.439,3.439C27.736,3.142 28.118,2.994 28.5,2.994ZM37.5,2.994C37.882,2.994 38.263,3.142 38.561,3.439C39.155,4.033 39.155,4.965 38.561,5.561C38.53,5.591 38.043,5.921 37.447,6.205C36.851,6.489 36.115,6.793 35.406,7.068C35.02,7.218 35.01,7.21 34.664,7.336C34.79,6.99 34.782,6.98 34.932,6.594C35.207,5.885 35.513,5.151 35.797,4.555C36.081,3.958 36.408,3.47 36.439,3.439C36.736,3.142 37.118,2.994 37.5,2.994ZM13,17C13,17 11,20.895 11,22C11,22.739 11.404,23.376 12,23.723L12,26C10.907,26 10,26.907 10,28L10,31L5,31C3.35,31 2,32.35 2,34L2,41L24,41L24,34C24,32.35 22.65,31 21,31L16,31L16,28C16,26.907 15.093,26 14,26L14,23.723C14.596,23.376 15,22.739 15,22C15,20.895 13,17 13,17ZM12,28L12.832,28C12.94,28.018 13.05,28.018 13.158,28L14,28L14,31L12,31L12,28ZM1,43C0.679,43 0.377,43.155 0.188,43.416C-0.001,43.677 -0.051,44.011 0.051,44.316L0.367,45.266C0.913,46.902 2.438,48 4.162,48L21.838,48C23.563,48 25.088,46.902 25.633,45.266L25.947,44.316C26.05,44.011 26,43.676 25.813,43.416C25.624,43.155 25.321,43 25,43L1,43Z" style="fill:#b5b974;fill-rule:nonzero;"/>
                </g>
                <g transform="matrix(9.8597,8.88178e-16,-8.88178e-16,9.8597,817.507,-437.617)">
                    <path d="M28.5,1.006C27.602,1.006 26.705,1.346 26.025,2.025C24.668,3.384 24.666,5.616 26.025,6.975C26.478,7.427 27.013,7.685 27.674,8L17,8C16.45,8 16,8.45 16,9L16,13C16,13.55 16.45,14 17,14L18,14L18,29L21,29C23.76,29 26,31.24 26,34L26,41.18C26.57,41.37 27.079,41.74 27.439,42.25C27.999,43.03 28.15,44.039 27.85,44.949L27.529,45.9C27.259,46.69 26.841,47.4 26.301,48L47,48C47.55,48 48,47.55 48,47L48,16L25,16L25,14L49,14C49.55,14 50,13.55 50,13L50,9C50,8.45 49.55,8 49,8L38.326,8C38.987,7.685 39.522,7.428 39.975,6.975C41.332,5.616 41.334,3.384 39.975,2.025C39.295,1.347 38.398,1.006 37.5,1.006C36.602,1.006 35.705,1.346 35.025,2.025C34.568,2.483 34.31,3.023 33.99,3.693C33.671,4.364 33.354,5.135 33.068,5.871C33.041,5.943 33.027,5.986 33,6.057C32.973,5.986 32.96,5.943 32.932,5.871C32.646,5.135 32.329,4.364 32.01,3.693C31.69,3.023 31.433,2.483 30.975,2.025C30.295,1.347 29.398,1.006 28.5,1.006ZM28.5,2.994C28.882,2.994 29.263,3.142 29.561,3.439C29.591,3.47 29.921,3.957 30.205,4.553C30.489,5.149 30.793,5.885 31.068,6.594C31.218,6.98 31.21,6.99 31.336,7.336C30.99,7.21 30.98,7.218 30.594,7.068C29.885,6.793 29.151,6.487 28.555,6.203C27.958,5.919 27.47,5.592 27.439,5.561C26.845,4.967 26.845,4.035 27.439,3.439C27.736,3.142 28.118,2.994 28.5,2.994ZM37.5,2.994C37.882,2.994 38.263,3.142 38.561,3.439C39.155,4.033 39.155,4.965 38.561,5.561C38.53,5.591 38.043,5.921 37.447,6.205C36.851,6.489 36.115,6.793 35.406,7.068C35.02,7.218 35.01,7.21 34.664,7.336C34.79,6.99 34.782,6.98 34.932,6.594C35.207,5.885 35.513,5.151 35.797,4.555C36.081,3.958 36.408,3.47 36.439,3.439C36.736,3.142 37.118,2.994 37.5,2.994ZM13,17C13,17 11,20.895 11,22C11,22.739 11.404,23.376 12,23.723L12,26C10.907,26 10,26.907 10,28L10,31L5,31C3.35,31 2,32.35 2,34L2,41L24,41L24,34C24,32.35 22.65,31 21,31L16,31L16,28C16,26.907 15.093,26 14,26L14,23.723C14.596,23.376 15,22.739 15,22C15,20.895 13,17 13,17ZM12,28L12.832,28C12.94,28.018 13.05,28.018 13.158,28L14,28L14,31L12,31L12,28ZM1,43C0.679,43 0.377,43.155 0.188,43.416C-0.001,43.677 -0.051,44.011 0.051,44.316L0.367,45.266C0.913,46.902 2.438,48 4.162,48L21.838,48C23.563,48 25.088,46.902 25.633,45.266L25.947,44.316C26.05,44.011 26,43.676 25.813,43.416C25.624,43.155 25.321,43 25,43L1,43Z" style="fill:#b5b974;fill-rule:nonzero;"/>
                </g>
                <g transform="matrix(8.53875,4.92985,-4.92985,8.53875,-42.3957,-308.439)">
                    <path d="M11.063,0C9.797,0 8.742,0.426 8.063,1.188C7.383,1.949 7.109,2.926 7.031,3.906C6.898,5.551 7.254,7.336 7.625,8.875C4.797,9.883 2.734,11.25 2.188,13.031C3.496,16.902 11.973,19 20,19C28.027,19 36.504,16.902 37.813,13.031C37.266,11.25 35.203,9.883 32.375,8.875C32.746,7.332 33.102,5.551 32.969,3.906C32.891,2.926 32.617,1.945 31.938,1.188C31.258,0.43 30.199,0 28.938,0C27.844,0 26.883,0.273 26.156,0.813C25.43,1.352 24.984,2.133 24.688,2.938C24.207,4.238 24.121,5.715 24.063,7.188C22.715,7.07 21.359,7 20,7C18.641,7 17.285,7.07 15.938,7.188C15.879,5.715 15.793,4.238 15.313,2.938C15.016,2.133 14.566,1.355 13.844,0.813C13.121,0.27 12.156,0 11.063,0ZM11.063,2C11.828,2 12.281,2.18 12.625,2.438C12.969,2.695 13.23,3.066 13.438,3.625C13.781,4.555 13.902,5.93 13.969,7.406C12.406,7.613 10.91,7.883 9.531,8.25C9.199,6.801 8.938,5.23 9.031,4.063C9.09,3.34 9.258,2.836 9.531,2.531C9.805,2.227 10.199,2 11.063,2ZM28.938,2C29.801,2 30.195,2.227 30.469,2.531C30.742,2.836 30.91,3.34 30.969,4.063C31.063,5.23 30.801,6.801 30.469,8.25C29.09,7.883 27.594,7.613 26.031,7.406C26.098,5.93 26.219,4.551 26.563,3.625C26.77,3.066 27.031,2.695 27.375,2.438C27.719,2.18 28.172,2 28.938,2ZM2.188,16.531C2.379,18.125 2.758,20.68 3,22.063C2.875,25.668 2.027,28.535 1.281,31.063C0.625,33.277 0,35.363 0,37.531C0,43.723 4.008,50 11.656,50L26.688,50C38.168,50 40.406,46.172 40.406,39.563C40.406,32.66 38.316,25.688 37.375,22.906C33.344,26.523 19.336,30.047 8.938,25.031C8.441,24.793 8.23,24.184 8.469,23.688C8.707,23.191 9.316,22.98 9.813,23.219C20.125,28.191 34.813,23.953 37.313,20.594L37.344,20.594C37.563,19.566 37.855,17.613 37.969,16.531C34.059,20.016 25.539,21 20,21C14.539,21 6.172,19.895 2.188,16.531ZM37.344,20.594C37.246,21.047 37.145,21.512 37.031,21.969C37.109,22.184 37.234,22.496 37.375,22.906C40.945,22.117 43.754,22.164 45.094,23.719C46.805,25.699 46.695,29.672 44.813,34.375C42.742,39.547 42.492,43.371 44.063,45.688C45.434,47.711 47.738,48 49,48C49.555,48 50,47.555 50,47C50,46.445 49.555,46 49,46C48.137,46 46.57,45.824 45.719,44.563C44.91,43.371 44.402,40.754 46.656,35.125C48.852,29.637 48.832,25.004 46.594,22.406C44.688,20.191 41.879,19.523 37.344,20.594Z" style="fill:#b5b974;fill-rule:nonzero;"/>
                </g>
                <g transform="matrix(8.53875,4.92985,-4.92985,8.53875,1957.6,-308.439)">
                    <path d="M11.063,0C9.797,0 8.742,0.426 8.063,1.188C7.383,1.949 7.109,2.926 7.031,3.906C6.898,5.551 7.254,7.336 7.625,8.875C4.797,9.883 2.734,11.25 2.188,13.031C3.496,16.902 11.973,19 20,19C28.027,19 36.504,16.902 37.813,13.031C37.266,11.25 35.203,9.883 32.375,8.875C32.746,7.332 33.102,5.551 32.969,3.906C32.891,2.926 32.617,1.945 31.938,1.188C31.258,0.43 30.199,0 28.938,0C27.844,0 26.883,0.273 26.156,0.813C25.43,1.352 24.984,2.133 24.688,2.938C24.207,4.238 24.121,5.715 24.063,7.188C22.715,7.07 21.359,7 20,7C18.641,7 17.285,7.07 15.938,7.188C15.879,5.715 15.793,4.238 15.313,2.938C15.016,2.133 14.566,1.355 13.844,0.813C13.121,0.27 12.156,0 11.063,0ZM11.063,2C11.828,2 12.281,2.18 12.625,2.438C12.969,2.695 13.23,3.066 13.438,3.625C13.781,4.555 13.902,5.93 13.969,7.406C12.406,7.613 10.91,7.883 9.531,8.25C9.199,6.801 8.938,5.23 9.031,4.063C9.09,3.34 9.258,2.836 9.531,2.531C9.805,2.227 10.199,2 11.063,2ZM28.938,2C29.801,2 30.195,2.227 30.469,2.531C30.742,2.836 30.91,3.34 30.969,4.063C31.063,5.23 30.801,6.801 30.469,8.25C29.09,7.883 27.594,7.613 26.031,7.406C26.098,5.93 26.219,4.551 26.563,3.625C26.77,3.066 27.031,2.695 27.375,2.438C27.719,2.18 28.172,2 28.938,2ZM2.188,16.531C2.379,18.125 2.758,20.68 3,22.063C2.875,25.668 2.027,28.535 1.281,31.063C0.625,33.277 0,35.363 0,37.531C0,43.723 4.008,50 11.656,50L26.688,50C38.168,50 40.406,46.172 40.406,39.563C40.406,32.66 38.316,25.688 37.375,22.906C33.344,26.523 19.336,30.047 8.938,25.031C8.441,24.793 8.23,24.184 8.469,23.688C8.707,23.191 9.316,22.98 9.813,23.219C20.125,28.191 34.813,23.953 37.313,20.594L37.344,20.594C37.563,19.566 37.855,17.613 37.969,16.531C34.059,20.016 25.539,21 20,21C14.539,21 6.172,19.895 2.188,16.531ZM37.344,20.594C37.246,21.047 37.145,21.512 37.031,21.969C37.109,22.184 37.234,22.496 37.375,22.906C40.945,22.117 43.754,22.164 45.094,23.719C46.805,25.699 46.695,29.672 44.813,34.375C42.742,39.547 42.492,43.371 44.063,45.688C45.434,47.711 47.738,48 49,48C49.555,48 50,47.555 50,47C50,46.445 49.555,46 49,46C48.137,46 46.57,45.824 45.719,44.563C44.91,43.371 44.402,40.754 46.656,35.125C48.852,29.637 48.832,25.004 46.594,22.406C44.688,20.191 41.879,19.523 37.344,20.594Z" style="fill:#b5b974;fill-rule:nonzero;"/>
                </g>
                <g transform="matrix(8.53875,4.92985,-4.92985,8.53875,1957.6,1691.6)">
                    <path d="M11.063,0C9.797,0 8.742,0.426 8.063,1.188C7.383,1.949 7.109,2.926 7.031,3.906C6.898,5.551 7.254,7.336 7.625,8.875C4.797,9.883 2.734,11.25 2.188,13.031C3.496,16.902 11.973,19 20,19C28.027,19 36.504,16.902 37.813,13.031C37.266,11.25 35.203,9.883 32.375,8.875C32.746,7.332 33.102,5.551 32.969,3.906C32.891,2.926 32.617,1.945 31.938,1.188C31.258,0.43 30.199,0 28.938,0C27.844,0 26.883,0.273 26.156,0.813C25.43,1.352 24.984,2.133 24.688,2.938C24.207,4.238 24.121,5.715 24.063,7.188C22.715,7.07 21.359,7 20,7C18.641,7 17.285,7.07 15.938,7.188C15.879,5.715 15.793,4.238 15.313,2.938C15.016,2.133 14.566,1.355 13.844,0.813C13.121,0.27 12.156,0 11.063,0ZM11.063,2C11.828,2 12.281,2.18 12.625,2.438C12.969,2.695 13.23,3.066 13.438,3.625C13.781,4.555 13.902,5.93 13.969,7.406C12.406,7.613 10.91,7.883 9.531,8.25C9.199,6.801 8.938,5.23 9.031,4.063C9.09,3.34 9.258,2.836 9.531,2.531C9.805,2.227 10.199,2 11.063,2ZM28.938,2C29.801,2 30.195,2.227 30.469,2.531C30.742,2.836 30.91,3.34 30.969,4.063C31.063,5.23 30.801,6.801 30.469,8.25C29.09,7.883 27.594,7.613 26.031,7.406C26.098,5.93 26.219,4.551 26.563,3.625C26.77,3.066 27.031,2.695 27.375,2.438C27.719,2.18 28.172,2 28.938,2ZM2.188,16.531C2.379,18.125 2.758,20.68 3,22.063C2.875,25.668 2.027,28.535 1.281,31.063C0.625,33.277 0,35.363 0,37.531C0,43.723 4.008,50 11.656,50L26.688,50C38.168,50 40.406,46.172 40.406,39.563C40.406,32.66 38.316,25.688 37.375,22.906C33.344,26.523 19.336,30.047 8.938,25.031C8.441,24.793 8.23,24.184 8.469,23.688C8.707,23.191 9.316,22.98 9.813,23.219C20.125,28.191 34.813,23.953 37.313,20.594L37.344,20.594C37.563,19.566 37.855,17.613 37.969,16.531C34.059,20.016 25.539,21 20,21C14.539,21 6.172,19.895 2.188,16.531ZM37.344,20.594C37.246,21.047 37.145,21.512 37.031,21.969C37.109,22.184 37.234,22.496 37.375,22.906C40.945,22.117 43.754,22.164 45.094,23.719C46.805,25.699 46.695,29.672 44.813,34.375C42.742,39.547 42.492,43.371 44.063,45.688C45.434,47.711 47.738,48 49,48C49.555,48 50,47.555 50,47C50,46.445 49.555,46 49,46C48.137,46 46.57,45.824 45.719,44.563C44.91,43.371 44.402,40.754 46.656,35.125C48.852,29.637 48.832,25.004 46.594,22.406C44.688,20.191 41.879,19.523 37.344,20.594Z" style="fill:#b5b974;fill-rule:nonzero;"/>
                </g>
                <g transform="matrix(8.53875,4.92985,-4.92985,8.53875,-42.4,1691.6)">
                    <path d="M11.063,0C9.797,0 8.742,0.426 8.063,1.188C7.383,1.949 7.109,2.926 7.031,3.906C6.898,5.551 7.254,7.336 7.625,8.875C4.797,9.883 2.734,11.25 2.188,13.031C3.496,16.902 11.973,19 20,19C28.027,19 36.504,16.902 37.813,13.031C37.266,11.25 35.203,9.883 32.375,8.875C32.746,7.332 33.102,5.551 32.969,3.906C32.891,2.926 32.617,1.945 31.938,1.188C31.258,0.43 30.199,0 28.938,0C27.844,0 26.883,0.273 26.156,0.813C25.43,1.352 24.984,2.133 24.688,2.938C24.207,4.238 24.121,5.715 24.063,7.188C22.715,7.07 21.359,7 20,7C18.641,7 17.285,7.07 15.938,7.188C15.879,5.715 15.793,4.238 15.313,2.938C15.016,2.133 14.566,1.355 13.844,0.813C13.121,0.27 12.156,0 11.063,0ZM11.063,2C11.828,2 12.281,2.18 12.625,2.438C12.969,2.695 13.23,3.066 13.438,3.625C13.781,4.555 13.902,5.93 13.969,7.406C12.406,7.613 10.91,7.883 9.531,8.25C9.199,6.801 8.938,5.23 9.031,4.063C9.09,3.34 9.258,2.836 9.531,2.531C9.805,2.227 10.199,2 11.063,2ZM28.938,2C29.801,2 30.195,2.227 30.469,2.531C30.742,2.836 30.91,3.34 30.969,4.063C31.063,5.23 30.801,6.801 30.469,8.25C29.09,7.883 27.594,7.613 26.031,7.406C26.098,5.93 26.219,4.551 26.563,3.625C26.77,3.066 27.031,2.695 27.375,2.438C27.719,2.18 28.172,2 28.938,2ZM2.188,16.531C2.379,18.125 2.758,20.68 3,22.063C2.875,25.668 2.027,28.535 1.281,31.063C0.625,33.277 0,35.363 0,37.531C0,43.723 4.008,50 11.656,50L26.688,50C38.168,50 40.406,46.172 40.406,39.563C40.406,32.66 38.316,25.688 37.375,22.906C33.344,26.523 19.336,30.047 8.938,25.031C8.441,24.793 8.23,24.184 8.469,23.688C8.707,23.191 9.316,22.98 9.813,23.219C20.125,28.191 34.813,23.953 37.313,20.594L37.344,20.594C37.563,19.566 37.855,17.613 37.969,16.531C34.059,20.016 25.539,21 20,21C14.539,21 6.172,19.895 2.188,16.531ZM37.344,20.594C37.246,21.047 37.145,21.512 37.031,21.969C37.109,22.184 37.234,22.496 37.375,22.906C40.945,22.117 43.754,22.164 45.094,23.719C46.805,25.699 46.695,29.672 44.813,34.375C42.742,39.547 42.492,43.371 44.063,45.688C45.434,47.711 47.738,48 49,48C49.555,48 50,47.555 50,47C50,46.445 49.555,46 49,46C48.137,46 46.57,45.824 45.719,44.563C44.91,43.371 44.402,40.754 46.656,35.125C48.852,29.637 48.832,25.004 46.594,22.406C44.688,20.191 41.879,19.523 37.344,20.594Z" style="fill:#b5b974;fill-rule:nonzero;"/>
                </g>
                <g transform="matrix(9.17204,-3.61766,3.61766,9.17204,-29.8693,344.33)">
                    <path d="M43.406,0.156C43.203,0.176 43.051,0.281 42.938,0.469L37.969,9.688C37.707,10.172 37.113,10.355 36.625,10.094C36.141,9.832 35.957,9.203 36.219,8.719L40.188,1.344C38.375,0.395 36.285,0.395 35.188,0.406L35,0.406C33.691,0.406 32.59,1.281 32.438,2.375L30.375,11.375C33.84,13.414 37.73,16.992 39.938,20.188C42.246,19.09 46.926,16.852 48.438,16.094C49.359,15.633 49.906,14.809 49.906,13.813C49.906,13.781 49.91,13.719 49.906,13.688C49.84,13.012 49.535,10.926 48.469,9.313L40.75,14.438C40.578,14.551 40.379,14.594 40.188,14.594C39.863,14.594 39.566,14.445 39.375,14.156C39.07,13.695 39.195,13.086 39.656,12.781L49.563,6.188C49.672,6.098 49.719,5.941 49.656,5.75C49.582,5.531 49.48,5.316 49.375,5.094C48.93,4.25 48.203,3.219 47.031,2.125C46.996,2.086 46.945,2.039 46.906,2C46.328,1.48 45.762,1.082 45.219,0.781C45.199,0.773 45.207,0.758 45.188,0.75C45.086,0.695 44.973,0.672 44.875,0.625C44.59,0.496 44.309,0.371 44,0.281C43.883,0.25 43.773,0.207 43.656,0.188C43.586,0.168 43.48,0.172 43.406,0.156ZM21.719,11.156C18.402,11.07 15.551,12.754 14.375,15.594L3.344,40.906C4.438,41.461 5.797,42.285 6.844,43.406C7.879,44.516 8.684,45.766 9.25,46.781L35.563,36.125C38.688,34.914 40.266,31.934 40,27.688L39.563,23.75C39.117,22.273 37.715,20.332 35.875,18.406C35.906,19.645 35.863,21.402 35.5,22.313C35,23.414 33.805,24.813 32.906,24.313C32.008,23.813 32,21.895 32.5,20.594C32.84,19.711 34.23,18.395 35.094,17.625C34.441,16.984 33.762,16.34 33.063,15.75C32.328,16.457 31.246,17.387 30.406,17.688C29.305,18.188 27.285,18.207 26.688,17.406C26.086,16.605 27.293,15.5 28.594,15C29.27,14.793 30.684,14.781 31.875,14.813C29.832,13.242 27.773,12.031 26.281,11.75L26.281,11.719L23.188,11.313C22.699,11.227 22.191,11.168 21.719,11.156ZM2.531,42.75L0.094,47.656C-0.023,47.891 -0.02,48.156 0.063,48.406C0.086,48.477 0.207,48.859 0.469,49.25C0.504,49.305 0.547,49.359 0.594,49.406C0.961,49.773 1.5,49.93 1.656,49.969C1.734,49.988 1.824,50 1.906,50C2.047,50 2.18,49.965 2.313,49.906L7.406,47.594C6.91,46.723 6.219,45.684 5.375,44.781C4.535,43.883 3.449,43.219 2.531,42.75Z" style="fill:#b5b974;fill-rule:nonzero;"/>
                </g>
                <g transform="matrix(1.2608,0,0,1.2608,-1451.16,-1472.34)">
                    <circle cx="2367.61" cy="1269.39" r="101.61" style="fill:#b5b974;"/>
                </g>
                <g transform="matrix(1.35299,0,0,1.35299,-2005.9,-313.824)">
                    <circle cx="2367.61" cy="1269.39" r="101.61" style="fill:#b5b974;"/>
                </g>
                <g transform="matrix(1.01717,0,0,1.01717,-974.806,557.359)">
                    <circle cx="2367.61" cy="1269.39" r="101.61" style="fill:#b5b974;"/>
                </g>
                <g transform="matrix(0.830183,0,0,0.830183,-290.902,813.722)">
                    <circle cx="2367.61" cy="1269.39" r="101.61" style="fill:#b5b974;"/>
                </g>
                <g transform="matrix(0.773104,0,0,0.773104,-1459.89,299.619)">
                    <circle cx="2367.61" cy="1269.39" r="101.61" style="fill:#b5b974;"/>
                </g>
                <g transform="matrix(0.579828,0,0,0.579828,-982.651,746.552)">
                    <circle cx="2367.61" cy="1269.39" r="101.61" style="fill:#b5b974;"/>
                </g>
                <g transform="matrix(0.386552,0,0,0.386552,-376.277,736.481)">
                    <circle cx="2367.61" cy="1269.39" r="101.61" style="fill:#b5b974;"/>
                </g>
                <g transform="matrix(0.670307,0,0,0.670307,-437.994,-691.336)">
                    <circle cx="2367.61" cy="1269.39" r="101.61" style="fill:#b5b974;"/>
                </g>
            </g>
        </g>
    </g>
</svg>
