<?xml version="1.0" encoding="UTF-8" standalone="no"?>
<!DOCTYPE svg PUBLIC "-//W3C//DTD SVG 1.1//EN" "http://www.w3.org/Graphics/SVG/1.1/DTD/svg11.dtd">
<svg width="100%" height="100%" viewBox="0 0 2000 2000" version="1.1" xmlns="http://www.w3.org/2000/svg" xmlns:xlink="http://www.w3.org/1999/xlink" xml:space="preserve" xmlns:serif="http://www.serif.com/" style="fill-rule:evenodd;clip-rule:evenodd;stroke-linejoin:round;stroke-miterlimit:2;">
    <g transform="matrix(1,0,0,1,-4426.4,0)">
        <g id="_-" serif:id=" " transform="matrix(1,0,0,1,4426.4,0)">
            <rect x="0" y="0" width="2000" height="2000" style="fill:none;"/>
            <clipPath id="_clip1">
                <rect x="0" y="0" width="2000" height="2000"/>
            </clipPath>
            <g clip-path="url(#_clip1)">
                <g transform="matrix(8.60806,4.96986,-4.96986,8.60806,-87.9423,1594.44)">
                    <path d="M24.613,3.012L13.754,14.543L16.18,3.012L24.613,3.012ZM33.766,3.012L36.238,14.543L25.496,3.012L33.766,3.012ZM35.742,17L14.25,17L25,5.441L35.742,17ZM11.211,17L1.258,17L14.027,3.566L11.211,17ZM11.328,19L21.059,44.656L1.184,19L11.328,19ZM13.5,19L36.5,19L25,48.816L13.5,19ZM38.781,17L35.914,3.512L48.66,17L38.781,17ZM28.949,44.637L38.676,19L48.781,19L28.949,44.637Z" style="fill-rule:nonzero;"/>
                </g>
                <g transform="matrix(8.60806,4.96986,-4.96986,8.60806,1912.08,1594.44)">
                    <path d="M24.613,3.012L13.754,14.543L16.18,3.012L24.613,3.012ZM33.766,3.012L36.238,14.543L25.496,3.012L33.766,3.012ZM35.742,17L14.25,17L25,5.441L35.742,17ZM11.211,17L1.258,17L14.027,3.566L11.211,17ZM11.328,19L21.059,44.656L1.184,19L11.328,19ZM13.5,19L36.5,19L25,48.816L13.5,19ZM38.781,17L35.914,3.512L48.66,17L38.781,17ZM28.949,44.637L38.676,19L48.781,19L28.949,44.637Z" style="fill-rule:nonzero;"/>
                </g>
                <g transform="matrix(8.60806,4.96986,-4.96986,8.60806,1912.08,-405.507)">
                    <path d="M24.613,3.012L13.754,14.543L16.18,3.012L24.613,3.012ZM33.766,3.012L36.238,14.543L25.496,3.012L33.766,3.012ZM35.742,17L14.25,17L25,5.441L35.742,17ZM11.211,17L1.258,17L14.027,3.566L11.211,17ZM11.328,19L21.059,44.656L1.184,19L11.328,19ZM13.5,19L36.5,19L25,48.816L13.5,19ZM38.781,17L35.914,3.512L48.66,17L38.781,17ZM28.949,44.637L38.676,19L48.781,19L28.949,44.637Z" style="fill-rule:nonzero;"/>
                </g>
                <g transform="matrix(8.60806,4.96986,-4.96986,8.60806,-87.9206,-405.507)">
                    <path d="M24.613,3.012L13.754,14.543L16.18,3.012L24.613,3.012ZM33.766,3.012L36.238,14.543L25.496,3.012L33.766,3.012ZM35.742,17L14.25,17L25,5.441L35.742,17ZM11.211,17L1.258,17L14.027,3.566L11.211,17ZM11.328,19L21.059,44.656L1.184,19L11.328,19ZM13.5,19L36.5,19L25,48.816L13.5,19ZM38.781,17L35.914,3.512L48.66,17L38.781,17ZM28.949,44.637L38.676,19L48.781,19L28.949,44.637Z" style="fill-rule:nonzero;"/>
                </g>
                <g transform="matrix(9.93973,0,0,9.93973,1746.71,990.06)">
                    <path d="M31.602,7.102L33.5,4.898L28.301,1L21.602,1L16.5,4.801L18.398,7C10,9.898 4,17.898 4,27C4,38.602 13.398,48 25,48C36.602,48 46,38.602 46,27C46,17.801 40.199,9.898 31.602,7.102ZM22.301,3L27.602,3L30.301,5L25,5L25,7L29,7L26.5,10L23.398,10L21,7L23,7L23,5L19.699,5L22.301,3ZM25,12C33.301,12 40,18.699 40,27C40,35.301 33.301,42 25,42C16.699,42 10,35.301 10,27C10,18.699 16.699,12 25,12Z" style="fill-rule:nonzero;"/>
                </g>
                <g transform="matrix(9.93973,0,0,9.93973,-253.259,990.06)">
                    <path d="M31.602,7.102L33.5,4.898L28.301,1L21.602,1L16.5,4.801L18.398,7C10,9.898 4,17.898 4,27C4,38.602 13.398,48 25,48C36.602,48 46,38.602 46,27C46,17.801 40.199,9.898 31.602,7.102ZM22.301,3L27.602,3L30.301,5L25,5L25,7L29,7L26.5,10L23.398,10L21,7L23,7L23,5L19.699,5L22.301,3ZM25,12C33.301,12 40,18.699 40,27C40,35.301 33.301,42 25,42C16.699,42 10,35.301 10,27C10,18.699 16.699,12 25,12Z" style="fill-rule:nonzero;"/>
                </g>
                <g transform="matrix(9.93973,0,0,9.93973,226.582,842.673)">
                    <path d="M40,2C35.582,2 32,5.582 32,10C32,11.098 32.258,12.141 32.656,13.094L31.281,14.469C29.262,12.926 26.734,12 24,12C22.449,12 20.902,12.316 19.469,12.906C19.039,14.207 18.57,15.879 18.156,17.938C20.426,17.984 26.684,18.754 30.844,25.469C31.133,25.938 31,26.555 30.531,26.844C30.367,26.945 30.18,27 30,27C29.664,27 29.344,26.836 29.156,26.531C25.246,20.223 19.27,19.91 17.813,19.938C17.547,21.57 17.332,23.379 17.188,25.406C18.969,25.898 24.094,27.691 26.875,32.5C27.152,32.977 26.977,33.598 26.5,33.875C26.344,33.965 26.172,34 26,34C25.652,34 25.309,33.82 25.125,33.5C22.93,29.703 18.875,28.043 17.063,27.469C17.02,28.457 17,29.488 17,30.563C17,31.961 17.078,33.332 17.219,34.688C18.32,35.102 20.777,36.25 21.906,38.563C22.148,39.059 21.934,39.664 21.438,39.906C21.297,39.973 21.145,40 21,40C20.629,40 20.266,39.793 20.094,39.438C19.527,38.27 18.434,37.508 17.531,37.031C18.199,41.438 19.348,45.254 20.125,47.5C21.445,46.715 24.547,44.723 27.688,41.625C33.117,36.273 36,30.184 36,24C36,22.305 35.637,20.711 35,19.25L36.906,17.344C37.855,17.742 38.902,18 40,18C44.418,18 48,14.418 48,10C48,5.582 44.418,2 40,2ZM40,8.969C40.258,8.969 40.52,9.082 40.719,9.281C41.117,9.68 41.117,10.32 40.719,10.719L34,17.406C33.629,16.844 33.211,16.336 32.75,15.844L39.281,9.281C39.48,9.082 39.742,8.969 40,8.969ZM13,12C6.934,12 2,16.934 2,23C2,38.25 15.273,46.168 18.063,47.656C17.223,45.176 16.063,41.219 15.438,36.719C14.883,36.961 14.258,37.445 13.938,38.344C13.793,38.754 13.41,39 13,39C12.891,39 12.766,38.977 12.656,38.938C12.137,38.754 11.879,38.176 12.063,37.656C12.73,35.77 14.188,35.004 15.219,34.688C15.086,33.336 15,31.965 15,30.563C15,29.543 15.027,28.57 15.063,27.625C13.676,28.121 11.672,29.164 10.938,31.313C10.797,31.727 10.414,32 10,32C9.895,32 9.793,31.973 9.688,31.938C9.164,31.758 8.883,31.211 9.063,30.688C10.223,27.281 13.465,25.938 15.156,25.469C15.293,23.445 15.527,21.652 15.781,20C14.414,20.141 11.055,20.836 8.875,24.5C8.688,24.813 8.34,25 8,25C7.824,25 7.66,24.941 7.5,24.844C7.023,24.563 6.844,23.977 7.125,23.5C10.078,18.539 14.875,18.023 16.125,17.969C16.508,15.965 16.953,14.297 17.375,12.938C16,12.34 14.512,12 13,12Z" style="fill-rule:nonzero;"/>
                </g>
                <g transform="matrix(-9.60104,-2.57259,2.57259,-9.60104,1908.55,1066.61)">
                    <path d="M25,7C11.215,7 0,14.402 0,23.5C0,29.641 5.047,35.195 13.219,38.063C15.297,42.176 19.813,45 25,45C30.188,45 34.703,42.176 36.781,38.063C44.953,35.195 50,29.641 50,23.5C50,14.402 38.785,7 25,7ZM25,12C35.301,12 44,16.352 44,21.5C44,24.262 41.438,26.93 37.125,28.75C35.254,24.211 30.516,21 25,21C19.484,21 14.746,24.211 12.875,28.75C8.563,26.93 6,24.262 6,21.5C6,16.352 14.699,12 25,12ZM25,23C31.133,23 36,27.516 36,33C36,38.484 31.133,43 25,43C18.867,43 14,38.484 14,33C14,27.516 18.867,23 25,23ZM19.813,26.094C19.477,26.133 19.184,26.336 19.031,26.641C18.879,26.941 18.891,27.301 19.063,27.594L20.344,29.969L17.875,34.219L16.25,34.219C16.176,34.211 16.105,34.211 16.031,34.219C15.48,34.277 15.078,34.777 15.141,35.328C15.199,35.879 15.699,36.281 16.25,36.219L17.906,36.219L20.313,39.969L20.063,40.313C19.75,40.77 19.871,41.391 20.328,41.703C20.785,42.016 21.406,41.895 21.719,41.438L22,41L28,41L28.281,41.438C28.594,41.895 29.215,42.016 29.672,41.703C30.129,41.391 30.25,40.77 29.938,40.313L29.688,39.969L32.094,36.219L33.75,36.219C34.109,36.223 34.445,36.035 34.629,35.723C34.809,35.41 34.809,35.027 34.629,34.715C34.445,34.402 34.109,34.215 33.75,34.219L32.125,34.219L29.656,29.969L30.938,27.594C31.117,27.281 31.117,26.898 30.934,26.59C30.754,26.281 30.422,26.09 30.063,26.094L29.969,26.094C29.629,26.137 29.336,26.348 29.188,26.656L27.906,29L22.094,29L20.813,26.656C20.645,26.309 20.293,26.09 19.906,26.094L19.813,26.094ZM22.094,31L27.906,31L30.375,35.188L27.969,39L22.031,39L19.625,35.188L22.094,31Z" style="fill-rule:nonzero;"/>
                </g>
                <g transform="matrix(9.60104,2.57259,-2.57259,9.60104,1375.51,1338.25)">
                    <path d="M25,0C14.648,0 7.684,2.023 4.281,6.031C1.887,8.848 1.805,12.008 2.156,14.156C2.164,14.199 2.176,14.242 2.188,14.281C2.195,14.309 2.207,14.316 2.219,14.344L6.844,26.531L0.375,34.188C0.145,34.375 0,34.664 0,34.969L0,39.563C0,45.324 4.668,50 10.406,50L39.594,50C45.332,50 50,45.324 50,39.563L50,34.969C50,34.664 49.855,34.375 49.625,34.188L43.156,26.531L47.781,14.344C47.793,14.313 47.805,14.313 47.813,14.281C47.824,14.246 47.836,14.195 47.844,14.156C48.199,12.008 48.109,8.848 45.719,6.031C42.316,2.023 35.352,0 25,0ZM4.594,15L45.406,15L41.063,26.375C40.934,26.715 41.016,27.098 41.25,27.375L47.469,34.75C45.984,35.574 44.273,36 42.469,36L7.531,36C5.727,36 4.016,35.57 2.531,34.75L8.75,27.375C8.984,27.098 9.066,26.715 8.938,26.375L4.594,15ZM23.344,18C23.098,18 22.84,18.086 22.656,18.25L19.344,21.25C19.133,21.438 19,21.715 19,22C19,22.285 19.133,22.563 19.344,22.75L21.594,24.781C18.883,26.07 17,28.828 17,32.031L19,32.031C19,28.703 21.691,26 25,26C28.309,26 31,28.703 31,32.031L33,32.031C33,28.828 31.117,26.07 28.406,24.781L30.656,22.75C30.867,22.563 31,22.285 31,22C31,21.715 30.867,21.438 30.656,21.25L27.344,18.25C27.16,18.086 26.902,18 26.656,18L23.344,18Z" style="fill-rule:nonzero;"/>
                </g>
                <g transform="matrix(1.77636e-15,9.93973,-9.93973,1.77636e-15,1247.27,1751.58)">
                    <path d="M3.125,23.16L8.184,14.48C8.23,14.395 8.293,14.316 8.363,14.254L17.441,5.793C17.539,5.703 17.656,5.633 17.781,5.586L25.578,2.723L32.152,7.316L28.879,17.723L16.598,29.133L6.582,31.379L3.125,23.16ZM7.297,33.27L11.969,46.629L15.813,31.355L7.297,33.27ZM42.484,2.875L35.074,6.992L47.355,15.91C47.613,14.762 47.914,13.195 47.984,11.863C47.98,11.848 47.98,11.828 47.98,11.809C48.02,9.91 47.707,7.926 46.676,6.211C45.75,4.668 44.359,3.539 42.535,2.828C42.52,2.844 42.508,2.863 42.484,2.875ZM34.375,35.578L29.297,20.059L18.988,29.645L34.375,35.578ZM31.145,19.27L36.188,34.68C40.133,30.387 44.172,25.246 46.477,18.926L31.145,19.27ZM45.383,16.949L33.852,8.578L31.117,17.27L45.383,16.949ZM5.762,34.938L2.336,40.816C3.508,46.242 7.566,47.457 10.242,47.754L5.762,34.938ZM4.879,32.484L2,25.645L2,37.422L4.879,32.484ZM39.922,2.012C39.906,2.008 39.891,2 39.871,2L28.039,2L33.313,5.688L39.922,2.012ZM17.875,31.355L13.777,47.633C22.109,46.406 28.359,41.93 33.426,37.355L17.875,31.355ZM44.547,45.648C44.313,45.648 44.074,45.566 43.883,45.398L35.617,38.059C31.984,41.43 27.742,44.855 22.52,47.164L44.563,45.668C44.691,45.66 44.813,45.621 44.926,45.57C44.805,45.621 44.676,45.648 44.547,45.648ZM37.063,36.668L45.211,43.902C45.383,44.055 45.473,44.254 45.512,44.461L47.195,22.414C44.582,28.078 40.742,32.73 37.063,36.668Z" style="fill-rule:nonzero;"/>
                </g>
                <g transform="matrix(1.77636e-15,9.93973,-9.93973,1.77636e-15,1247.27,-248.379)">
                    <path d="M3.125,23.16L8.184,14.48C8.23,14.395 8.293,14.316 8.363,14.254L17.441,5.793C17.539,5.703 17.656,5.633 17.781,5.586L25.578,2.723L32.152,7.316L28.879,17.723L16.598,29.133L6.582,31.379L3.125,23.16ZM7.297,33.27L11.969,46.629L15.813,31.355L7.297,33.27ZM42.484,2.875L35.074,6.992L47.355,15.91C47.613,14.762 47.914,13.195 47.984,11.863C47.98,11.848 47.98,11.828 47.98,11.809C48.02,9.91 47.707,7.926 46.676,6.211C45.75,4.668 44.359,3.539 42.535,2.828C42.52,2.844 42.508,2.863 42.484,2.875ZM34.375,35.578L29.297,20.059L18.988,29.645L34.375,35.578ZM31.145,19.27L36.188,34.68C40.133,30.387 44.172,25.246 46.477,18.926L31.145,19.27ZM45.383,16.949L33.852,8.578L31.117,17.27L45.383,16.949ZM5.762,34.938L2.336,40.816C3.508,46.242 7.566,47.457 10.242,47.754L5.762,34.938ZM4.879,32.484L2,25.645L2,37.422L4.879,32.484ZM39.922,2.012C39.906,2.008 39.891,2 39.871,2L28.039,2L33.313,5.688L39.922,2.012ZM17.875,31.355L13.777,47.633C22.109,46.406 28.359,41.93 33.426,37.355L17.875,31.355ZM44.547,45.648C44.313,45.648 44.074,45.566 43.883,45.398L35.617,38.059C31.984,41.43 27.742,44.855 22.52,47.164L44.563,45.668C44.691,45.66 44.813,45.621 44.926,45.57C44.805,45.621 44.676,45.648 44.547,45.648ZM37.063,36.668L45.211,43.902C45.383,44.055 45.473,44.254 45.512,44.461L47.195,22.414C44.582,28.078 40.742,32.73 37.063,36.668Z" style="fill-rule:nonzero;"/>
                </g>
                <g transform="matrix(9.71169,2.1169,-2.1169,9.71169,4.5727,442.591)">
                    <path d="M25,2C24.449,2 24,2.449 24,3C24,3.551 24.449,4 25,4C25.551,4 26,3.551 26,3C26,2.449 25.551,2 25,2ZM21.5,2.094C20.672,2.094 20,2.766 20,3.594C20,4.422 20.672,5.094 21.5,5.094C22.328,5.094 23,4.422 23,3.594C23,2.766 22.328,2.094 21.5,2.094ZM28.5,2.094C27.672,2.094 27,2.766 27,3.594C27,4.422 27.672,5.094 28.5,5.094C29.328,5.094 30,4.422 30,3.594C30,2.766 29.328,2.094 28.5,2.094ZM17.5,4.094C16.672,4.094 16,4.766 16,5.594C16,6.422 16.672,7.094 17.5,7.094C18.328,7.094 19,6.422 19,5.594C19,4.766 18.328,4.094 17.5,4.094ZM32.5,4.094C31.672,4.094 31,4.766 31,5.594C31,6.422 31.672,7.094 32.5,7.094C33.328,7.094 34,6.422 34,5.594C34,4.766 33.328,4.094 32.5,4.094ZM14.5,7C13.672,7 13,7.672 13,8.5C13,9.328 13.672,10 14.5,10C15.328,10 16,9.328 16,8.5C16,7.672 15.328,7 14.5,7ZM35.5,7C34.672,7 34,7.672 34,8.5C34,9.328 34.672,10 35.5,10C36.328,10 37,9.328 37,8.5C37,7.672 36.328,7 35.5,7ZM12.5,11C11.672,11 11,11.672 11,12.5C11,13.328 11.672,14 12.5,14C13.328,14 14,13.328 14,12.5C14,11.672 13.328,11 12.5,11ZM37.5,11C36.672,11 36,11.672 36,12.5C36,13.328 36.672,14 37.5,14C38.328,14 39,13.328 39,12.5C39,11.672 38.328,11 37.5,11ZM11.5,15C10.102,15 9,16.102 9,17.5C9,18.898 10.102,20 11.5,20C12.898,20 14,18.898 14,17.5C14,16.102 12.898,15 11.5,15ZM38.5,15C37.102,15 36,16.102 36,17.5C36,18.898 37.102,20 38.5,20C39.898,20 41,18.898 41,17.5C41,16.102 39.898,15 38.5,15ZM11.5,21C10.102,21 9,22.102 9,23.5C9,24.898 10.102,26 11.5,26C12.898,26 14,24.898 14,23.5C14,22.102 12.898,21 11.5,21ZM38.5,21C37.102,21 36,22.102 36,23.5C36,24.898 37.102,26 38.5,26C39.898,26 41,24.898 41,23.5C41,22.102 39.898,21 38.5,21ZM13.5,27C12.102,27 11,28.102 11,29.5C11,30.898 12.102,32 13.5,32C14.898,32 16,30.898 16,29.5C16,28.102 14.898,27 13.5,27ZM36.5,27C35.102,27 34,28.102 34,29.5C34,30.898 35.102,32 36.5,32C37.898,32 39,30.898 39,29.5C39,28.102 37.898,27 36.5,27ZM18,30C16.301,30 15,31.301 15,33C15,34.699 16.301,36 18,36C19.699,36 21,34.699 21,33C21,31.301 19.699,30 18,30ZM32,30C30.301,30 29,31.301 29,33C29,34.699 30.301,36 32,36C33.699,36 35,34.699 35,33C35,31.301 33.699,30 32,30ZM25,31C22.801,31 21,32.801 21,35C21,37.199 22.801,39 25,39C27.199,39 29,37.199 29,35C29,32.801 27.199,31 25,31ZM25,39C24.75,39 24.512,39.113 24.313,39.313L21.313,42.313C20.914,42.613 20.887,43.195 21.188,43.594L24.188,47.594C24.387,47.895 24.699,48 25,48C25.301,48 25.613,47.895 25.813,47.594L28.813,43.594C29.113,43.195 29.086,42.711 28.688,42.313L25.688,39.313C25.488,39.113 25.25,39 25,39Z" style="fill-rule:nonzero;"/>
                </g>
                <g transform="matrix(9.73596,2.00232,-2.00232,9.73596,985.551,568.487)">
                    <path d="M18.906,4L17.219,7.125C16.859,7.801 16.398,8.355 15.844,8.781L16,10.406C16.277,14.574 19.957,19 25,19C30.043,19 33.727,14.574 34,10.438L34.219,8.844C33.598,8.402 33.055,7.844 32.688,7.156L31.125,4L18.906,4ZM13.906,9.656L7.75,11.219C5.336,11.855 3.754,14.055 4,16.375C5.004,31.836 12.703,44.949 13.031,45.5L13.344,46L36.594,46L36.875,45.5C37.199,44.926 44.801,31.215 45.906,16.344C46.027,14.016 44.461,11.859 42.156,11.219L36.125,9.688L36,10.625C35.672,15.594 31.164,21 25,21C18.836,21 14.336,15.602 14,10.563L13.906,9.656ZM25,21.188L28.594,24.813L25,30.313L21.406,24.813L25,21.188Z" style="fill-rule:nonzero;"/>
                </g>
                <g transform="matrix(7.02845,7.02845,-7.02845,7.02845,704.087,255.405)">
                    <path d="M30.621,4.609C27.121,4.609 22.602,6.547 18.262,9.766C17.863,10.063 17.469,10.359 17.078,10.676C16.973,10.762 16.867,10.852 16.762,10.938C16.355,11.273 15.953,11.621 15.551,11.98C15.414,12.102 15.277,12.223 15.141,12.348C14.648,12.797 14.16,13.254 13.68,13.734L13.676,13.738L13.668,13.75C13.164,14.254 12.684,14.762 12.219,15.277C12.059,15.449 11.914,15.621 11.762,15.797C11.453,16.141 11.152,16.488 10.863,16.84C10.77,16.949 10.684,17.063 10.594,17.176C4.75,24.5 3.258,31.73 5.875,34.344C6.715,35.188 7.965,35.609 9.598,35.609C11.254,35.609 13.141,35.168 15.125,34.375C15.625,30.668 17.945,25.844 21.895,21.895C25.828,17.961 30.664,15.637 34.371,15.113C34.523,14.723 34.68,14.332 34.809,13.945C36.02,10.32 35.848,7.379 34.344,5.875C33.504,5.035 32.25,4.609 30.621,4.609ZM36.152,4.938C39.363,8.945 37.047,17.172 30.801,24.77C29.91,25.863 28.949,26.938 27.91,27.973C27.219,28.668 26.504,29.316 25.781,29.945C25.609,30.094 25.438,30.238 25.266,30.387C25.035,30.582 24.801,30.781 24.563,30.969C19.332,35.219 13.813,37.609 9.598,37.609C7.707,37.609 6.082,37.125 4.859,36.113C5.383,37.371 6.508,39.527 8.742,41.766C10.566,43.59 14.293,46 19.387,46C24.188,46 30.207,43.859 37,37.063C51.125,22.938 45.23,12.32 41.707,8.797C39.508,6.598 37.457,5.484 36.152,4.938ZM28.207,8.031C28.617,7.969 29.004,8.246 29.066,8.656C29.133,9.063 28.852,9.449 28.441,9.516C27.965,9.59 27.605,10.016 27.605,10.5C27.605,11.055 28.051,11.5 28.605,11.5C29.098,11.5 29.512,11.148 29.59,10.664C29.656,10.254 30.035,9.973 30.449,10.047C30.855,10.109 31.137,10.496 31.07,10.906C30.875,12.121 29.836,13 28.605,13C27.852,13 27.184,12.66 26.723,12.133C26.484,12.762 26.242,13.445 26.031,14.09C25.813,15.164 24.785,16 23.605,16C22.898,16 22.266,15.707 21.813,15.238C21.516,16.164 21.234,17.223 21.059,17.988C20.852,19.141 19.816,20 18.605,20C17.922,20 17.305,19.727 16.855,19.281C16.645,20.207 16.57,21.125 16.516,21.883C16.484,22.293 16.453,22.66 16.41,22.961C16.238,24.172 15.176,25.086 13.938,25.086C13.539,25.086 13.172,24.984 12.84,24.816C12.855,25.496 12.902,26.125 12.949,26.684C13.02,27.547 13.082,28.293 12.996,28.918C12.824,30.129 11.762,31.043 10.52,31.043C9.141,31.043 8.023,29.922 8.023,28.543C8.023,27.867 8.289,27.234 8.77,26.762C9.066,26.469 9.539,26.473 9.828,26.77C10.121,27.066 10.117,27.539 9.82,27.828C9.629,28.02 9.523,28.273 9.523,28.547C9.523,29.098 9.969,29.547 10.52,29.547C11.016,29.547 11.441,29.188 11.508,28.711C11.57,28.254 11.516,27.582 11.453,26.809C11.348,25.563 11.219,24.008 11.469,22.203C11.473,22.176 11.488,22.148 11.496,22.121C11.625,21.43 12.023,20.82 12.641,20.449C12.996,20.23 13.457,20.344 13.672,20.699C13.887,21.055 13.773,21.516 13.422,21.73C13.117,21.914 12.938,22.234 12.938,22.586C12.938,23.137 13.387,23.586 13.938,23.586C14.434,23.586 14.859,23.227 14.922,22.75C14.961,22.477 14.988,22.145 15.016,21.77C15.125,20.34 15.289,18.18 16.391,16.348C16.391,16.344 16.395,16.344 16.402,16.34C16.742,15.695 17.355,15.207 18.102,15.051C18.508,14.973 18.906,15.23 18.984,15.637C19.07,16.043 18.809,16.438 18.402,16.52C17.941,16.617 17.605,17.027 17.605,17.5C17.605,18.055 18.051,18.5 18.605,18.5C19.086,18.5 19.504,18.156 19.59,17.684C19.746,17.008 20.504,13.859 21.238,12.703C21.52,11.879 22.215,11.234 23.102,11.051C23.508,10.973 23.906,11.23 23.984,11.637C24.07,12.043 23.809,12.438 23.402,12.52C22.941,12.617 22.605,13.027 22.605,13.5C22.605,14.051 23.051,14.5 23.605,14.5C24.078,14.5 24.488,14.168 24.582,13.703C24.949,12.555 25.797,10.102 26.438,9.254C26.801,8.617 27.434,8.152 28.207,8.031ZM37.383,22.012C37.574,22.02 37.762,22.102 37.906,22.254C38.184,22.559 38.164,23.031 37.859,23.313C37.648,23.504 37.535,23.766 37.535,24.047C37.535,24.602 37.984,25.047 38.535,25.047C38.945,25.047 39.52,24.785 39.52,24.203C39.52,24.059 39.496,23.914 39.387,23.645C39.23,23.262 39.414,22.824 39.797,22.668C40.18,22.512 40.617,22.691 40.777,23.078C40.945,23.492 41.02,23.832 41.02,24.203C41.016,25.672 39.754,26.547 38.531,26.547C38.184,26.547 37.855,26.48 37.559,26.352C37.586,26.676 37.617,27 37.652,27.305C37.777,28.484 37.875,29.41 37.73,30.012C37.414,31.301 36.457,32.043 35.105,32.043C34.527,32.043 34.035,31.824 33.652,31.461C33.672,31.602 33.695,31.746 33.73,31.891C34.113,33.516 33.855,34.469 33.25,35.656C33.023,36.105 32.719,36.523 32.344,36.891C32.195,37.035 32.004,37.105 31.816,37.105C31.621,37.105 31.426,37.031 31.281,36.879C31.047,36.641 31.016,36.289 31.168,36.004C30.773,35.953 30.41,35.816 30.094,35.605C30.051,36 30.008,36.426 29.973,36.887C29.883,38.094 28.801,39.035 27.5,39.035C26.672,39.035 25.938,38.625 25.484,38C25.277,38.57 25.102,39.211 24.965,39.965C24.746,41.164 23.711,42.035 22.5,42.035C22.113,42.035 21.75,41.941 21.422,41.781C21.035,42.586 20.344,42.957 19.902,43.035C19.855,43.047 19.813,43.051 19.766,43.051C19.41,43.051 19.098,42.797 19.031,42.438C18.957,42.035 19.215,41.648 19.613,41.566C19.719,41.539 20.184,41.363 20.195,40.504C20.07,40.207 20,39.883 20,39.539C20,38.84 20.293,38.172 20.809,37.699C21.113,37.418 21.586,37.438 21.871,37.742C22.148,38.047 22.129,38.523 21.824,38.801C21.613,38.992 21.5,39.258 21.5,39.539C21.5,40.09 21.949,40.539 22.5,40.539C22.984,40.539 23.398,40.184 23.488,39.695C23.863,37.621 24.469,36.176 25.395,35.141C25.414,35.117 25.441,35.105 25.465,35.09C25.566,34.945 25.68,34.816 25.809,34.699C26.113,34.418 26.586,34.438 26.871,34.742C27.148,35.047 27.129,35.523 26.824,35.801C26.613,35.992 26.5,36.258 26.5,36.539C26.5,37.09 26.949,37.539 27.5,37.539C28,37.539 28.445,37.188 28.48,36.773C28.578,35.445 28.777,33.664 29.145,32.719C29.152,32.703 29.156,32.699 29.16,32.688C29.297,32.316 29.512,31.973 29.813,31.699C30.117,31.418 30.59,31.438 30.871,31.742C31.152,32.047 31.133,32.523 30.828,32.801C30.617,32.992 30.5,33.258 30.5,33.539C30.5,34.09 30.949,34.539 31.5,34.539C31.715,34.539 32.023,34.492 32.277,34.074C32.285,34.059 32.297,34.051 32.305,34.039C32.453,33.52 32.453,33.004 32.27,32.234C31.801,30.234 32.336,28.422 33.703,27.387C33.711,27.391 33.711,27.391 33.719,27.395C34,27.184 34.391,27.184 34.664,27.43C34.969,27.711 34.992,28.184 34.715,28.488C34.422,28.805 34.27,29.598 34.512,30.141C34.664,30.496 34.898,30.543 35.109,30.543C35.766,30.543 36.125,30.266 36.273,29.656C36.355,29.309 36.254,28.328 36.16,27.465C36.035,26.258 35.91,24.934 36.051,23.891C36.063,23.727 36.086,23.566 36.129,23.406C36.137,23.383 36.133,23.355 36.141,23.328C36.148,23.305 36.164,23.285 36.176,23.262C36.309,22.863 36.527,22.496 36.844,22.207C36.996,22.07 37.191,22.004 37.383,22.012Z" style="fill-rule:nonzero;"/>
                </g>
                <g transform="matrix(7.16648,8.88178e-16,-8.88178e-16,7.16648,1838.3,191.803)">
                    <path d="M30.621,4.609C27.121,4.609 22.602,6.547 18.262,9.766C17.863,10.063 17.469,10.359 17.078,10.676C16.973,10.762 16.867,10.852 16.762,10.938C16.355,11.273 15.953,11.621 15.551,11.98C15.414,12.102 15.277,12.223 15.141,12.348C14.648,12.797 14.16,13.254 13.68,13.734L13.676,13.738L13.668,13.75C13.164,14.254 12.684,14.762 12.219,15.277C12.059,15.449 11.914,15.621 11.762,15.797C11.453,16.141 11.152,16.488 10.863,16.84C10.77,16.949 10.684,17.063 10.594,17.176C4.75,24.5 3.258,31.73 5.875,34.344C6.715,35.188 7.965,35.609 9.598,35.609C11.254,35.609 13.141,35.168 15.125,34.375C15.625,30.668 17.945,25.844 21.895,21.895C25.828,17.961 30.664,15.637 34.371,15.113C34.523,14.723 34.68,14.332 34.809,13.945C36.02,10.32 35.848,7.379 34.344,5.875C33.504,5.035 32.25,4.609 30.621,4.609ZM36.152,4.938C39.363,8.945 37.047,17.172 30.801,24.77C29.91,25.863 28.949,26.938 27.91,27.973C27.219,28.668 26.504,29.316 25.781,29.945C25.609,30.094 25.438,30.238 25.266,30.387C25.035,30.582 24.801,30.781 24.563,30.969C19.332,35.219 13.813,37.609 9.598,37.609C7.707,37.609 6.082,37.125 4.859,36.113C5.383,37.371 6.508,39.527 8.742,41.766C10.566,43.59 14.293,46 19.387,46C24.188,46 30.207,43.859 37,37.063C51.125,22.938 45.23,12.32 41.707,8.797C39.508,6.598 37.457,5.484 36.152,4.938ZM28.207,8.031C28.617,7.969 29.004,8.246 29.066,8.656C29.133,9.063 28.852,9.449 28.441,9.516C27.965,9.59 27.605,10.016 27.605,10.5C27.605,11.055 28.051,11.5 28.605,11.5C29.098,11.5 29.512,11.148 29.59,10.664C29.656,10.254 30.035,9.973 30.449,10.047C30.855,10.109 31.137,10.496 31.07,10.906C30.875,12.121 29.836,13 28.605,13C27.852,13 27.184,12.66 26.723,12.133C26.484,12.762 26.242,13.445 26.031,14.09C25.813,15.164 24.785,16 23.605,16C22.898,16 22.266,15.707 21.813,15.238C21.516,16.164 21.234,17.223 21.059,17.988C20.852,19.141 19.816,20 18.605,20C17.922,20 17.305,19.727 16.855,19.281C16.645,20.207 16.57,21.125 16.516,21.883C16.484,22.293 16.453,22.66 16.41,22.961C16.238,24.172 15.176,25.086 13.938,25.086C13.539,25.086 13.172,24.984 12.84,24.816C12.855,25.496 12.902,26.125 12.949,26.684C13.02,27.547 13.082,28.293 12.996,28.918C12.824,30.129 11.762,31.043 10.52,31.043C9.141,31.043 8.023,29.922 8.023,28.543C8.023,27.867 8.289,27.234 8.77,26.762C9.066,26.469 9.539,26.473 9.828,26.77C10.121,27.066 10.117,27.539 9.82,27.828C9.629,28.02 9.523,28.273 9.523,28.547C9.523,29.098 9.969,29.547 10.52,29.547C11.016,29.547 11.441,29.188 11.508,28.711C11.57,28.254 11.516,27.582 11.453,26.809C11.348,25.563 11.219,24.008 11.469,22.203C11.473,22.176 11.488,22.148 11.496,22.121C11.625,21.43 12.023,20.82 12.641,20.449C12.996,20.23 13.457,20.344 13.672,20.699C13.887,21.055 13.773,21.516 13.422,21.73C13.117,21.914 12.938,22.234 12.938,22.586C12.938,23.137 13.387,23.586 13.938,23.586C14.434,23.586 14.859,23.227 14.922,22.75C14.961,22.477 14.988,22.145 15.016,21.77C15.125,20.34 15.289,18.18 16.391,16.348C16.391,16.344 16.395,16.344 16.402,16.34C16.742,15.695 17.355,15.207 18.102,15.051C18.508,14.973 18.906,15.23 18.984,15.637C19.07,16.043 18.809,16.438 18.402,16.52C17.941,16.617 17.605,17.027 17.605,17.5C17.605,18.055 18.051,18.5 18.605,18.5C19.086,18.5 19.504,18.156 19.59,17.684C19.746,17.008 20.504,13.859 21.238,12.703C21.52,11.879 22.215,11.234 23.102,11.051C23.508,10.973 23.906,11.23 23.984,11.637C24.07,12.043 23.809,12.438 23.402,12.52C22.941,12.617 22.605,13.027 22.605,13.5C22.605,14.051 23.051,14.5 23.605,14.5C24.078,14.5 24.488,14.168 24.582,13.703C24.949,12.555 25.797,10.102 26.438,9.254C26.801,8.617 27.434,8.152 28.207,8.031ZM37.383,22.012C37.574,22.02 37.762,22.102 37.906,22.254C38.184,22.559 38.164,23.031 37.859,23.313C37.648,23.504 37.535,23.766 37.535,24.047C37.535,24.602 37.984,25.047 38.535,25.047C38.945,25.047 39.52,24.785 39.52,24.203C39.52,24.059 39.496,23.914 39.387,23.645C39.23,23.262 39.414,22.824 39.797,22.668C40.18,22.512 40.617,22.691 40.777,23.078C40.945,23.492 41.02,23.832 41.02,24.203C41.016,25.672 39.754,26.547 38.531,26.547C38.184,26.547 37.855,26.48 37.559,26.352C37.586,26.676 37.617,27 37.652,27.305C37.777,28.484 37.875,29.41 37.73,30.012C37.414,31.301 36.457,32.043 35.105,32.043C34.527,32.043 34.035,31.824 33.652,31.461C33.672,31.602 33.695,31.746 33.73,31.891C34.113,33.516 33.855,34.469 33.25,35.656C33.023,36.105 32.719,36.523 32.344,36.891C32.195,37.035 32.004,37.105 31.816,37.105C31.621,37.105 31.426,37.031 31.281,36.879C31.047,36.641 31.016,36.289 31.168,36.004C30.773,35.953 30.41,35.816 30.094,35.605C30.051,36 30.008,36.426 29.973,36.887C29.883,38.094 28.801,39.035 27.5,39.035C26.672,39.035 25.938,38.625 25.484,38C25.277,38.57 25.102,39.211 24.965,39.965C24.746,41.164 23.711,42.035 22.5,42.035C22.113,42.035 21.75,41.941 21.422,41.781C21.035,42.586 20.344,42.957 19.902,43.035C19.855,43.047 19.813,43.051 19.766,43.051C19.41,43.051 19.098,42.797 19.031,42.438C18.957,42.035 19.215,41.648 19.613,41.566C19.719,41.539 20.184,41.363 20.195,40.504C20.07,40.207 20,39.883 20,39.539C20,38.84 20.293,38.172 20.809,37.699C21.113,37.418 21.586,37.438 21.871,37.742C22.148,38.047 22.129,38.523 21.824,38.801C21.613,38.992 21.5,39.258 21.5,39.539C21.5,40.09 21.949,40.539 22.5,40.539C22.984,40.539 23.398,40.184 23.488,39.695C23.863,37.621 24.469,36.176 25.395,35.141C25.414,35.117 25.441,35.105 25.465,35.09C25.566,34.945 25.68,34.816 25.809,34.699C26.113,34.418 26.586,34.438 26.871,34.742C27.148,35.047 27.129,35.523 26.824,35.801C26.613,35.992 26.5,36.258 26.5,36.539C26.5,37.09 26.949,37.539 27.5,37.539C28,37.539 28.445,37.188 28.48,36.773C28.578,35.445 28.777,33.664 29.145,32.719C29.152,32.703 29.156,32.699 29.16,32.688C29.297,32.316 29.512,31.973 29.813,31.699C30.117,31.418 30.59,31.438 30.871,31.742C31.152,32.047 31.133,32.523 30.828,32.801C30.617,32.992 30.5,33.258 30.5,33.539C30.5,34.09 30.949,34.539 31.5,34.539C31.715,34.539 32.023,34.492 32.277,34.074C32.285,34.059 32.297,34.051 32.305,34.039C32.453,33.52 32.453,33.004 32.27,32.234C31.801,30.234 32.336,28.422 33.703,27.387C33.711,27.391 33.711,27.391 33.719,27.395C34,27.184 34.391,27.184 34.664,27.43C34.969,27.711 34.992,28.184 34.715,28.488C34.422,28.805 34.27,29.598 34.512,30.141C34.664,30.496 34.898,30.543 35.109,30.543C35.766,30.543 36.125,30.266 36.273,29.656C36.355,29.309 36.254,28.328 36.16,27.465C36.035,26.258 35.91,24.934 36.051,23.891C36.063,23.727 36.086,23.566 36.129,23.406C36.137,23.383 36.133,23.355 36.141,23.328C36.148,23.305 36.164,23.285 36.176,23.262C36.309,22.863 36.527,22.496 36.844,22.207C36.996,22.07 37.191,22.004 37.383,22.012Z" style="fill-rule:nonzero;"/>
                </g>
                <g transform="matrix(7.16648,8.88178e-16,-8.88178e-16,7.16648,-161.699,191.803)">
                    <path d="M30.621,4.609C27.121,4.609 22.602,6.547 18.262,9.766C17.863,10.063 17.469,10.359 17.078,10.676C16.973,10.762 16.867,10.852 16.762,10.938C16.355,11.273 15.953,11.621 15.551,11.98C15.414,12.102 15.277,12.223 15.141,12.348C14.648,12.797 14.16,13.254 13.68,13.734L13.676,13.738L13.668,13.75C13.164,14.254 12.684,14.762 12.219,15.277C12.059,15.449 11.914,15.621 11.762,15.797C11.453,16.141 11.152,16.488 10.863,16.84C10.77,16.949 10.684,17.063 10.594,17.176C4.75,24.5 3.258,31.73 5.875,34.344C6.715,35.188 7.965,35.609 9.598,35.609C11.254,35.609 13.141,35.168 15.125,34.375C15.625,30.668 17.945,25.844 21.895,21.895C25.828,17.961 30.664,15.637 34.371,15.113C34.523,14.723 34.68,14.332 34.809,13.945C36.02,10.32 35.848,7.379 34.344,5.875C33.504,5.035 32.25,4.609 30.621,4.609ZM36.152,4.938C39.363,8.945 37.047,17.172 30.801,24.77C29.91,25.863 28.949,26.938 27.91,27.973C27.219,28.668 26.504,29.316 25.781,29.945C25.609,30.094 25.438,30.238 25.266,30.387C25.035,30.582 24.801,30.781 24.563,30.969C19.332,35.219 13.813,37.609 9.598,37.609C7.707,37.609 6.082,37.125 4.859,36.113C5.383,37.371 6.508,39.527 8.742,41.766C10.566,43.59 14.293,46 19.387,46C24.188,46 30.207,43.859 37,37.063C51.125,22.938 45.23,12.32 41.707,8.797C39.508,6.598 37.457,5.484 36.152,4.938ZM28.207,8.031C28.617,7.969 29.004,8.246 29.066,8.656C29.133,9.063 28.852,9.449 28.441,9.516C27.965,9.59 27.605,10.016 27.605,10.5C27.605,11.055 28.051,11.5 28.605,11.5C29.098,11.5 29.512,11.148 29.59,10.664C29.656,10.254 30.035,9.973 30.449,10.047C30.855,10.109 31.137,10.496 31.07,10.906C30.875,12.121 29.836,13 28.605,13C27.852,13 27.184,12.66 26.723,12.133C26.484,12.762 26.242,13.445 26.031,14.09C25.813,15.164 24.785,16 23.605,16C22.898,16 22.266,15.707 21.813,15.238C21.516,16.164 21.234,17.223 21.059,17.988C20.852,19.141 19.816,20 18.605,20C17.922,20 17.305,19.727 16.855,19.281C16.645,20.207 16.57,21.125 16.516,21.883C16.484,22.293 16.453,22.66 16.41,22.961C16.238,24.172 15.176,25.086 13.938,25.086C13.539,25.086 13.172,24.984 12.84,24.816C12.855,25.496 12.902,26.125 12.949,26.684C13.02,27.547 13.082,28.293 12.996,28.918C12.824,30.129 11.762,31.043 10.52,31.043C9.141,31.043 8.023,29.922 8.023,28.543C8.023,27.867 8.289,27.234 8.77,26.762C9.066,26.469 9.539,26.473 9.828,26.77C10.121,27.066 10.117,27.539 9.82,27.828C9.629,28.02 9.523,28.273 9.523,28.547C9.523,29.098 9.969,29.547 10.52,29.547C11.016,29.547 11.441,29.188 11.508,28.711C11.57,28.254 11.516,27.582 11.453,26.809C11.348,25.563 11.219,24.008 11.469,22.203C11.473,22.176 11.488,22.148 11.496,22.121C11.625,21.43 12.023,20.82 12.641,20.449C12.996,20.23 13.457,20.344 13.672,20.699C13.887,21.055 13.773,21.516 13.422,21.73C13.117,21.914 12.938,22.234 12.938,22.586C12.938,23.137 13.387,23.586 13.938,23.586C14.434,23.586 14.859,23.227 14.922,22.75C14.961,22.477 14.988,22.145 15.016,21.77C15.125,20.34 15.289,18.18 16.391,16.348C16.391,16.344 16.395,16.344 16.402,16.34C16.742,15.695 17.355,15.207 18.102,15.051C18.508,14.973 18.906,15.23 18.984,15.637C19.07,16.043 18.809,16.438 18.402,16.52C17.941,16.617 17.605,17.027 17.605,17.5C17.605,18.055 18.051,18.5 18.605,18.5C19.086,18.5 19.504,18.156 19.59,17.684C19.746,17.008 20.504,13.859 21.238,12.703C21.52,11.879 22.215,11.234 23.102,11.051C23.508,10.973 23.906,11.23 23.984,11.637C24.07,12.043 23.809,12.438 23.402,12.52C22.941,12.617 22.605,13.027 22.605,13.5C22.605,14.051 23.051,14.5 23.605,14.5C24.078,14.5 24.488,14.168 24.582,13.703C24.949,12.555 25.797,10.102 26.438,9.254C26.801,8.617 27.434,8.152 28.207,8.031ZM37.383,22.012C37.574,22.02 37.762,22.102 37.906,22.254C38.184,22.559 38.164,23.031 37.859,23.313C37.648,23.504 37.535,23.766 37.535,24.047C37.535,24.602 37.984,25.047 38.535,25.047C38.945,25.047 39.52,24.785 39.52,24.203C39.52,24.059 39.496,23.914 39.387,23.645C39.23,23.262 39.414,22.824 39.797,22.668C40.18,22.512 40.617,22.691 40.777,23.078C40.945,23.492 41.02,23.832 41.02,24.203C41.016,25.672 39.754,26.547 38.531,26.547C38.184,26.547 37.855,26.48 37.559,26.352C37.586,26.676 37.617,27 37.652,27.305C37.777,28.484 37.875,29.41 37.73,30.012C37.414,31.301 36.457,32.043 35.105,32.043C34.527,32.043 34.035,31.824 33.652,31.461C33.672,31.602 33.695,31.746 33.73,31.891C34.113,33.516 33.855,34.469 33.25,35.656C33.023,36.105 32.719,36.523 32.344,36.891C32.195,37.035 32.004,37.105 31.816,37.105C31.621,37.105 31.426,37.031 31.281,36.879C31.047,36.641 31.016,36.289 31.168,36.004C30.773,35.953 30.41,35.816 30.094,35.605C30.051,36 30.008,36.426 29.973,36.887C29.883,38.094 28.801,39.035 27.5,39.035C26.672,39.035 25.938,38.625 25.484,38C25.277,38.57 25.102,39.211 24.965,39.965C24.746,41.164 23.711,42.035 22.5,42.035C22.113,42.035 21.75,41.941 21.422,41.781C21.035,42.586 20.344,42.957 19.902,43.035C19.855,43.047 19.813,43.051 19.766,43.051C19.41,43.051 19.098,42.797 19.031,42.438C18.957,42.035 19.215,41.648 19.613,41.566C19.719,41.539 20.184,41.363 20.195,40.504C20.07,40.207 20,39.883 20,39.539C20,38.84 20.293,38.172 20.809,37.699C21.113,37.418 21.586,37.438 21.871,37.742C22.148,38.047 22.129,38.523 21.824,38.801C21.613,38.992 21.5,39.258 21.5,39.539C21.5,40.09 21.949,40.539 22.5,40.539C22.984,40.539 23.398,40.184 23.488,39.695C23.863,37.621 24.469,36.176 25.395,35.141C25.414,35.117 25.441,35.105 25.465,35.09C25.566,34.945 25.68,34.816 25.809,34.699C26.113,34.418 26.586,34.438 26.871,34.742C27.148,35.047 27.129,35.523 26.824,35.801C26.613,35.992 26.5,36.258 26.5,36.539C26.5,37.09 26.949,37.539 27.5,37.539C28,37.539 28.445,37.188 28.48,36.773C28.578,35.445 28.777,33.664 29.145,32.719C29.152,32.703 29.156,32.699 29.16,32.688C29.297,32.316 29.512,31.973 29.813,31.699C30.117,31.418 30.59,31.438 30.871,31.742C31.152,32.047 31.133,32.523 30.828,32.801C30.617,32.992 30.5,33.258 30.5,33.539C30.5,34.09 30.949,34.539 31.5,34.539C31.715,34.539 32.023,34.492 32.277,34.074C32.285,34.059 32.297,34.051 32.305,34.039C32.453,33.52 32.453,33.004 32.27,32.234C31.801,30.234 32.336,28.422 33.703,27.387C33.711,27.391 33.711,27.391 33.719,27.395C34,27.184 34.391,27.184 34.664,27.43C34.969,27.711 34.992,28.184 34.715,28.488C34.422,28.805 34.27,29.598 34.512,30.141C34.664,30.496 34.898,30.543 35.109,30.543C35.766,30.543 36.125,30.266 36.273,29.656C36.355,29.309 36.254,28.328 36.16,27.465C36.035,26.258 35.91,24.934 36.051,23.891C36.063,23.727 36.086,23.566 36.129,23.406C36.137,23.383 36.133,23.355 36.141,23.328C36.148,23.305 36.164,23.285 36.176,23.262C36.309,22.863 36.527,22.496 36.844,22.207C36.996,22.07 37.191,22.004 37.383,22.012Z" style="fill-rule:nonzero;"/>
                </g>
                <g transform="matrix(4.64305,8.78864,-8.78864,4.64305,516.682,1281.06)">
                    <path d="M49,24.998C49,21.914 48.568,18.914 47.717,16.083C46.311,11.412 43.868,8.479 43.765,8.355C43.762,8.351 43.757,8.348 43.753,8.344C43.694,8.277 43.628,8.215 43.552,8.165C43.476,8.114 43.393,8.077 43.309,8.05C43.304,8.048 43.3,8.045 43.295,8.043C43.202,8.015 40.974,7.341 35.48,6.628C32.268,6.212 28.742,6 25,6C21.258,6 17.732,6.212 14.521,6.629C9.027,7.342 6.799,8.016 6.706,8.044C6.701,8.046 6.697,8.049 6.692,8.051C6.607,8.078 6.525,8.115 6.448,8.166C6.372,8.216 6.306,8.278 6.247,8.345C6.244,8.349 6.239,8.351 6.235,8.355C6.131,8.478 3.689,11.412 2.283,16.083C1.432,18.914 1,21.914 1,24.998L1,25.002C1,28.086 1.432,31.086 2.283,33.917C3.689,38.588 6.132,41.521 6.235,41.645C6.238,41.649 6.243,41.652 6.247,41.656C6.306,41.723 6.372,41.785 6.448,41.835C6.451,41.837 6.455,41.838 6.459,41.84C6.536,41.889 6.618,41.93 6.706,41.957C6.799,41.985 9.027,42.659 14.521,43.372C17.729,43.788 21.255,44 25,44C28.742,44 32.268,43.788 35.479,43.371C40.973,42.658 43.202,41.984 43.294,41.956C43.382,41.929 43.465,41.888 43.541,41.839C43.544,41.837 43.548,41.836 43.552,41.834C43.628,41.784 43.694,41.722 43.753,41.655C43.757,41.651 43.761,41.648 43.765,41.644C43.869,41.521 46.311,38.587 47.717,33.916C48.568,31.086 49,28.086 49,25.002L49,24.998ZM14,38L25,34L36,38L25,41.901L14,38ZM25.001,8.098L36,12L25,16L14,12L25.001,8.098ZM34,30L25,32L16,30L13,25L16,20L25,18L34,20L37,25L34,30ZM43,18L36,18L36,12L43,10.513L43,18ZM14,18L7,18L7,10.513L14,12L14,18ZM7,18L11,25L7,32L3.229,25L7,18ZM7,32L14,32L14,38L7,39.487L7,32ZM36,32L43,32L43,39.487L36,38L36,32ZM43,32L39,25L43,18L46.771,25L43,32Z" style="fill-rule:nonzero;"/>
                </g>
                <g transform="matrix(-6.75548,2.70746,-2.70746,-6.75548,1765.71,1239.06)">
                    <path d="M49,24.998C49,21.914 48.568,18.914 47.717,16.083C46.311,11.412 43.868,8.479 43.765,8.355C43.762,8.351 43.757,8.348 43.753,8.344C43.694,8.277 43.628,8.215 43.552,8.165C43.476,8.114 43.393,8.077 43.309,8.05C43.304,8.048 43.3,8.045 43.295,8.043C43.202,8.015 40.974,7.341 35.48,6.628C32.268,6.212 28.742,6 25,6C21.258,6 17.732,6.212 14.521,6.629C9.027,7.342 6.799,8.016 6.706,8.044C6.701,8.046 6.697,8.049 6.692,8.051C6.607,8.078 6.525,8.115 6.448,8.166C6.372,8.216 6.306,8.278 6.247,8.345C6.244,8.349 6.239,8.351 6.235,8.355C6.131,8.478 3.689,11.412 2.283,16.083C1.432,18.914 1,21.914 1,24.998L1,25.002C1,28.086 1.432,31.086 2.283,33.917C3.689,38.588 6.132,41.521 6.235,41.645C6.238,41.649 6.243,41.652 6.247,41.656C6.306,41.723 6.372,41.785 6.448,41.835C6.451,41.837 6.455,41.838 6.459,41.84C6.536,41.889 6.618,41.93 6.706,41.957C6.799,41.985 9.027,42.659 14.521,43.372C17.729,43.788 21.255,44 25,44C28.742,44 32.268,43.788 35.479,43.371C40.973,42.658 43.202,41.984 43.294,41.956C43.382,41.929 43.465,41.888 43.541,41.839C43.544,41.837 43.548,41.836 43.552,41.834C43.628,41.784 43.694,41.722 43.753,41.655C43.757,41.651 43.761,41.648 43.765,41.644C43.869,41.521 46.311,38.587 47.717,33.916C48.568,31.086 49,28.086 49,25.002L49,24.998ZM14,38L25,34L36,38L25,41.901L14,38ZM25.001,8.098L36,12L25,16L14,12L25.001,8.098ZM34,30L25,32L16,30L13,25L16,20L25,18L34,20L37,25L34,30ZM43,18L36,18L36,12L43,10.513L43,18ZM14,18L7,18L7,10.513L14,12L14,18ZM7,18L11,25L7,32L3.229,25L7,18ZM7,32L14,32L14,38L7,39.487L7,32ZM36,32L43,32L43,39.487L36,38L36,32ZM43,32L39,25L43,18L46.771,25L43,32Z" style="fill-rule:nonzero;"/>
                </g>
                <g transform="matrix(8.60806,4.96986,-4.96986,8.60806,1463.43,-73.7342)">
                    <path d="M24.906,-0.031C24.863,-0.023 24.82,-0.012 24.781,0C24.316,0.105 23.988,0.523 24,1L24,5L20.375,5C19.824,5.027 19.395,5.496 19.422,6.047C19.449,6.598 19.918,7.027 20.469,7L24,7L24,10.125C22.078,10.523 20.547,12.023 20.125,13.938C18.266,13.691 16.449,12.707 14.5,11.625C12.25,10.375 9.836,9 7,9C5.008,9 3.277,9.469 2,10.5C0.723,11.531 0,13.125 0,15C0,19.004 1.977,22.758 2,25.938L2,26C1.996,26.043 1.996,26.082 2,26.125C2.059,29.797 3.871,35.414 7,38.594L7,44C6.996,44.32 7.148,44.621 7.406,44.813C7.406,44.813 8.613,45.688 11.344,46.469C14.074,47.25 18.422,48 25,48C31.578,48 35.926,47.25 38.656,46.469C41.387,45.688 42.594,44.813 42.594,44.813C42.852,44.621 43.004,44.32 43,44L43,38.594C46.109,35.43 47.922,29.863 48,26.188L48,26.156C48.004,26.105 48.004,26.051 48,26L48,25.938C48.023,22.758 50,19.004 50,15C50,13.125 49.277,11.531 48,10.5C46.723,9.469 44.992,9 43,9C40.164,9 37.75,10.375 35.5,11.625C33.551,12.707 31.734,13.691 29.875,13.938C29.453,12.023 27.922,10.523 26,10.125L26,7L29.531,7C29.891,7.004 30.227,6.816 30.41,6.504C30.59,6.191 30.59,5.809 30.41,5.496C30.227,5.184 29.891,4.996 29.531,5L26,5L26,1C26.012,0.711 25.895,0.434 25.688,0.238C25.477,0.039 25.191,-0.059 24.906,-0.031ZM7,11C9.168,11 11.281,12.125 13.531,13.375C14.086,13.684 14.645,14.012 15.219,14.313C8.742,15.004 4.836,17.008 3.094,20.594C2.566,18.625 2,16.754 2,15C2,13.598 2.445,12.715 3.25,12.063C4.055,11.41 5.32,11 7,11ZM43,11C44.68,11 45.945,11.41 46.75,12.063C47.555,12.715 48,13.598 48,15C48,16.754 47.434,18.625 46.906,20.594C45.164,17.008 41.258,15.004 34.781,14.313C35.355,14.012 35.914,13.684 36.469,13.375C38.719,12.125 40.832,11 43,11ZM24.906,12C24.98,12.008 25.051,12.008 25.125,12C26.688,12.066 27.949,13.34 28,14.906L28,15C27.996,15.043 27.996,15.082 28,15.125C27.934,16.719 26.609,18 25,18C23.379,18 22.051,16.703 22,15.094C22.008,15.02 22.008,14.949 22,14.875C22.066,13.313 23.34,12.051 24.906,12ZM23,19.563C23.613,19.836 24.285,20 25,20C25.715,20 26.387,19.84 27,19.563L27,40C27,40.555 27.445,41 28,41L37.938,41C39.039,41 40.059,40.684 41,40.156L41,43.344C40.82,43.469 40.309,43.898 38.094,44.531C35.574,45.25 31.422,46 25,46C18.578,46 14.426,45.25 11.906,44.531C9.691,43.898 9.18,43.469 9,43.344L9,40.156C9.941,40.684 10.961,41 12.063,41L22,41C22.551,41 23,40.555 23,40L23,19.563Z" style="fill-rule:nonzero;"/>
                </g>
                <g transform="matrix(5.25931,-5.25931,5.25931,5.25931,859.156,428.56)">
                    <path d="M25.938,0L21.281,18L30.719,18L26,0L25.938,0ZM23.406,1.938L9.781,13.875L19.375,17.688L23.406,1.938ZM28.594,1.938L32.625,17.688L42.188,13.844L28.594,1.938ZM42.906,15.688L33,19.688L33,49.406L38.719,43.719C38.871,43.566 38.969,43.371 39,43.156L42.906,15.688ZM9.094,15.75L13,43.156C13.031,43.371 13.129,43.566 13.281,43.719L19,49.406L19,19.688L9.094,15.75ZM21,20L21,50L31,50L31,20L21,20Z" style="fill-rule:nonzero;"/>
                </g>
                <g transform="matrix(11.0817,2.96933,-2.96933,11.0817,837.375,1146.38)">
                    <path d="M11,3C8.25,3 6,5.25 6,8L4,8C3.995,8 3.991,8 3.986,8C3.437,8 2.986,8.451 2.986,9C2.986,9.549 3.437,10 3.986,10C3.991,10 3.995,10 4,10L6,10C7.093,10 8,9.093 8,8C8,6.332 9.332,5 11,5C12.668,5 14,6.332 14,8L14,15.176C12.808,15.601 12.007,16.736 12.007,18.002C12.007,18.775 12.306,19.52 12.842,20.078L5.383,35L11.152,35L13.549,20.621C13.993,20.868 14.492,20.999 15,21C15.508,21 16.007,20.871 16.451,20.625L18.848,35L24.617,35L17.158,20.082C17.697,19.523 17.999,18.776 17.999,18C17.999,16.732 17.195,15.595 16,15.172L16,8C16,5.25 13.75,3 11,3ZM33,3C30.25,3 28,5.25 28,8L26,8C25.995,8 25.991,8 25.986,8C25.437,8 24.986,8.451 24.986,9C24.986,9.549 25.437,10 25.986,10C25.991,10 25.995,10 26,10L28,10C29.093,10 30,9.093 30,8C30,6.332 31.332,5 33,5C34.668,5 36,6.332 36,8L36,15.176C34.808,15.601 34.007,16.736 34.007,18.002C34.007,18.775 34.306,19.52 34.842,20.078L27.383,35L33.152,35L35.549,20.621C35.993,20.868 36.492,20.999 37,21C37.508,21 38.007,20.871 38.451,20.625L40.848,35L46.617,35L39.158,20.082C39.697,19.523 39.999,18.776 39.999,18C39.999,16.732 39.195,15.595 38,15.172L38,8C38,5.25 35.75,3 33,3ZM15,24.082L13.07,35.656L15,37.586L16.93,35.656L15,24.082ZM37,24.082L35.07,35.656L37,37.586L38.93,35.656L37,24.082ZM5.586,37L14,45.414L14,39.414L11.586,37L5.586,37ZM18.414,37L16,39.414L16,45.414L24.414,37L18.414,37ZM27.586,37L36,45.414L36,39.414L33.586,37L27.586,37ZM40.414,37L38,39.414L38,45.414L46.414,37L40.414,37Z" style="fill-rule:nonzero;"/>
                </g>
                <g transform="matrix(0.918466,-0.918466,0.918466,0.918466,-4260.71,4145.01)">
                    <path d="M4700.42,233.793C4602.5,233.793 4523,313.294 4523,411.217C4523,509.139 4602.5,588.64 4700.42,588.64C4651.46,559.069 4611.71,489.748 4611.71,411.217C4611.71,332.685 4651.46,263.364 4700.42,233.793Z"/>
                </g>
                <g transform="matrix(1.08811,1.08811,-1.08811,1.08811,-3758.84,-5575.39)">
                    <path d="M5286.68,857.108C5189.2,857.108 5110.06,936.248 5110.06,1033.72C5110.06,1131.2 5189.2,1210.34 5286.68,1210.34C5237.94,1180.91 5198.37,1111.9 5198.37,1033.72C5198.37,955.55 5237.94,886.544 5286.68,857.108Z"/>
                </g>
                <g transform="matrix(8.75815,0,0,8.75815,324.289,1901.02)">
                    <path d="M25,2C13.421,2 4,11.42 4,23C4,31.891 9.627,39.818 18.012,42.781C18.081,40.576 19.176,38.636 20.832,37.4C14.577,35.593 10,29.837 10,23C10,14.716 16.716,8 25,8C33.284,8 40,14.716 40,23C40,29.837 35.423,35.593 29.168,37.4C30.824,38.636 31.919,40.576 31.988,42.781C40.373,39.818 46,31.891 46,23C46,11.42 36.579,2 25,2ZM25,38C22.243,38 20,40.243 20,43C20,45.757 22.243,48 25,48C27.757,48 30,45.757 30,43C30,40.243 27.757,38 25,38Z" style="fill-rule:nonzero;"/>
                </g>
                <g transform="matrix(8.75815,0,0,8.75815,324.289,-99.0163)">
                    <path d="M25,2C13.421,2 4,11.42 4,23C4,31.891 9.627,39.818 18.012,42.781C18.081,40.576 19.176,38.636 20.832,37.4C14.577,35.593 10,29.837 10,23C10,14.716 16.716,8 25,8C33.284,8 40,14.716 40,23C40,29.837 35.423,35.593 29.168,37.4C30.824,38.636 31.919,40.576 31.988,42.781C40.373,39.818 46,31.891 46,23C46,11.42 36.579,2 25,2ZM25,38C22.243,38 20,40.243 20,43C20,45.757 22.243,48 25,48C27.757,48 30,45.757 30,43C30,40.243 27.757,38 25,38Z" style="fill-rule:nonzero;"/>
                </g>
            </g>
        </g>
    </g>
</svg>
