<?xml version="1.0" encoding="UTF-8" standalone="no"?>
<!DOCTYPE svg PUBLIC "-//W3C//DTD SVG 1.1//EN" "http://www.w3.org/Graphics/SVG/1.1/DTD/svg11.dtd">
<svg width="100%" height="100%" viewBox="0 0 2000 2000" version="1.1" xmlns="http://www.w3.org/2000/svg" xmlns:xlink="http://www.w3.org/1999/xlink" xml:space="preserve" xmlns:serif="http://www.serif.com/" style="fill-rule:evenodd;clip-rule:evenodd;stroke-linejoin:round;stroke-miterlimit:2;">
    <g transform="matrix(1,0,0,1,-4426.4,0)">
        <g id="_-" serif:id=" " transform="matrix(1,0,0,1,4426.4,0)">
            <rect x="0" y="0" width="2000" height="2000" style="fill:none;"/>
            <clipPath id="_clip1">
                <rect x="0" y="0" width="2000" height="2000"/>
            </clipPath>
            <g clip-path="url(#_clip1)">
                <g transform="matrix(12.3344,-3.22802,3.22802,12.3344,244.285,548.426)">
                    <path d="M17.902,4C16.801,4 16.801,5.699 17.699,6C18.301,6.199 21,8 21,8L21,16.801C21.699,17.301 24.801,18 30,18C35.102,18 38.199,17.199 39,16.801L39,13.438L39.395,12.645C39.781,11.875 40.523,11.176 41.281,10.699C42.039,10.219 42.898,10 43,10C44.168,10 44.789,10.496 45.277,11.281C45.766,12.063 46,13.168 46,14C46,14.867 45.73,18.141 45.086,19.594C44.379,21.191 43.598,22.828 42.867,24.328C42.531,22.039 41.5,20.055 39.801,18.598C37.301,19.898 32,20 30,20C28,20 22.699,19.898 20.199,18.598C18.098,20.398 17,22.902 16.902,25.902C17.402,25.699 17.898,25.598 18.5,25.598C20.102,25.598 21.301,26.5 22.199,27.402C22.598,27.199 23,27 23.402,27L23.598,27C26,27 27.5,29 28,29.699C28.199,29.898 28.301,30.199 28.5,30.402C30.398,31.102 31.898,32.301 33.098,33.902C34.398,35.602 35.098,37.598 35.199,39.598L35.199,40.098L38,40.098C38,40.02 41.215,34.598 42.488,29.563C42.648,29.25 45.055,24.609 46.914,20.406C47.867,18.258 48,15.133 48,14C48,12.832 47.734,11.438 46.973,10.219C46.211,9.004 44.832,8 43,8C42.102,8 41.211,8.383 40.219,9.004C39.805,9.266 39.391,9.586 39,9.949L39,8L40.199,5.199C40.398,4.598 39.801,4 39,4L17.902,4ZM18.359,27.551C17.984,27.582 17.594,27.719 17.199,28C17.098,28.199 17,28.398 17,28.699C17,29 17.199,29.199 17.199,29.098C17.699,29.301 18.199,29.699 18.598,30.301C19.898,32.102 20.699,35 20.402,36.5C20.301,37.102 20.102,37.199 20,37.199C19.898,37.199 19.699,37 19.5,36.801C18.898,36.102 18.301,34.598 17.699,33.098C16.898,31.301 16.199,29.602 15.5,29C14.898,28.398 13,26.801 11.199,28.801C11,29 11,29.199 11,29.5C11.102,29.699 11.199,29.898 11.402,30C11.902,30.301 12.402,30.699 12.902,31.301C14.102,32.801 14.699,35.098 14.5,36.098C14.398,36.398 14.301,36.5 14.199,36.5C14.199,36.5 14,36.5 13.5,35.902C12.898,35.102 12.102,33.5 11.5,32.402C11.102,31.602 10.801,31.102 10.598,30.801C10.398,30.5 10.199,30.398 10,30.5C8.699,30.898 3.602,34 4,40C4.102,40.801 4.301,41.5 4.801,42.098C6.602,44.398 10.699,45.699 19.402,46C26.102,46.301 31.5,44 32.902,41.598C33.301,41 33.402,40.398 33.402,39.699C33.199,38 32.598,36.398 31.598,35C30.5,33.602 29,32.5 27.301,32C27.301,31.898 27.102,31.699 26.902,31.402C26.699,31.199 26.602,31 26.402,30.801C25.699,29.902 24.801,28.801 23.5,28.902C23.301,28.902 23.098,29.102 23.098,29.402C23.098,29.699 23.199,30 23.402,30.199C23.5,30.199 23.602,30.398 23.801,30.598C24.902,32.199 26.301,35.5 26,36.699C26,36.801 25.898,37 25.598,37C25.398,37 25.102,36.801 24.902,36.5C24.402,35.699 23.801,34.301 23.301,33C22.801,31.699 22.402,30.602 21.902,30C21.414,29.27 20,27.414 18.359,27.551Z" style="fill-rule:nonzero;"/>
                </g>
                <g transform="matrix(-5.37987,9.3182,-9.3182,-5.37987,559.974,881.658)">
                    <path d="M41.531,1.094C38.516,1.094 36.68,2.309 35.281,4.25C32.121,3.918 29.441,5.934 28.281,8.063C27.996,8.586 27.684,9.25 27.313,10C25.102,14.449 21.387,21.898 14.75,24.938C10.363,26.945 7.574,29.516 6.406,32.563C3.633,33.637 1.461,34.902 0.5,37.031C-0.309,38.828 -0.145,41.008 1.031,43.688C1.754,45.332 3.492,47.281 7.563,47.281C8.797,47.281 10.098,47.094 11.438,46.781C13.227,48.211 15.215,48.938 17.438,48.938C22.605,48.938 29.082,45.012 37.531,36.938C50.031,24.988 50.328,16.508 49.875,13.406C49.574,11.344 48.738,9.723 47.594,8.938C48.313,7.309 48.164,5.938 47.813,4.969C46.977,2.66 44.582,1.367 43.156,1.188C42.59,1.117 42.039,1.094 41.531,1.094ZM34.094,6.25C33.484,7.457 32.926,8.805 32.344,10.25C30.766,14.168 28.793,19.066 24.5,23.813C20.84,27.859 15.391,29.586 10.594,31.125C10.102,31.281 9.629,31.438 9.156,31.594C10.43,29.754 12.582,28.125 15.594,26.75C22.875,23.414 26.918,15.285 29.094,10.906C29.453,10.184 29.789,9.539 30.063,9.031C30.801,7.68 32.324,6.465 34.094,6.25ZM46.563,10.625C47.09,11.063 47.676,12.129 47.906,13.688C48.316,16.48 47.984,24.195 36.156,35.5C23.492,47.605 17.527,48.023 13.969,46.063C16.199,45.309 18.281,44.313 19.844,43.344L20.719,42.813L20.188,41.969C18.344,39.098 18.402,39.027 22.406,35.625C24.105,34.18 26.441,32.199 29.375,29.281C32.18,26.484 34.121,22.957 35.844,19.844C38.613,14.852 40.77,11.039 44.875,11.813L45.438,11.938L45.813,11.531C46.094,11.227 46.34,10.914 46.563,10.625Z" style="fill-rule:nonzero;"/>
                </g>
                <g transform="matrix(7.60828,7.60828,-7.60828,7.60828,638.141,1507.45)">
                    <path d="M25,0C18.637,0 14.109,2.602 11.531,6.188C11.426,7.031 11.535,7.934 11.875,9.313C12.117,10.297 12.895,11.078 13.875,11.688C15.383,9.742 18.02,7.391 22,7.281C22.336,8.395 22.594,9.91 22.5,11.844C22.473,12.395 22.887,12.879 23.438,12.906L23.5,12.906C24.031,12.906 24.477,12.473 24.5,11.938C24.648,8.836 24.082,7.102 23.594,5.781C25.652,6.063 28.742,6.723 29.625,11.281C29.73,11.824 30.238,12.199 30.781,12.094C31.324,11.988 31.699,11.449 31.594,10.906C31.32,9.48 30.836,8.355 30.25,7.406C33.051,7.242 35.211,8.305 36.406,10.438C37.402,9.879 38.063,9.383 38.344,8.313C38.625,7.242 38.566,6.863 38.5,5.563C36.309,2.563 32.301,0 25,0ZM40.094,8.594C39.828,11.988 35.336,13.266 30.844,14.406C27.777,15.188 24.902,15.926 23.5,17.906C21.316,20.926 18.688,26.238 18.688,34.313C18.688,40.199 20.617,47.82 26.031,49.938L26.219,50L26.438,50C27.891,49.945 31.461,49.766 33.281,49.375C35.676,48.895 37.535,46.898 37.781,44.563C37.918,43.727 41.094,23.973 41.094,14.031C41.168,11.07 40.328,9.113 40.094,8.594ZM9.875,9.313L9.344,11C9.02,12.227 9,13.918 9,14C9,20.492 12.18,43.559 12.313,44.5C12.559,46.953 14.48,49.016 17.031,49.5C17.777,49.625 20.035,49.766 22.188,49.875C18.195,46.328 16.688,39.879 16.688,34.313C16.688,25.723 19.504,20.023 21.844,16.781C20.652,16.25 19.262,15.836 17.844,15.406C13.945,14.223 9.859,12.551 9.875,9.313ZM19.406,11.781C18.922,11.84 18.555,12.238 18.531,12.727C18.508,13.211 18.836,13.645 19.313,13.75C19.313,13.75 20.355,14.109 21.031,14.938C21.254,15.238 21.621,15.387 21.988,15.332C22.355,15.273 22.66,15.02 22.781,14.668C22.902,14.316 22.816,13.926 22.563,13.656C21.438,12.281 19.906,11.844 19.906,11.844C19.805,11.805 19.699,11.785 19.594,11.781C19.531,11.773 19.469,11.773 19.406,11.781ZM27,24C28.105,24 29,24.895 29,26C29,27.105 28.105,28 27,28C25.895,28 25,27.105 25,26C25,24.895 25.895,24 27,24ZM30,30C30.555,30 31,30.445 31,31C31,31.555 30.555,32 30,32C29.445,32 29,31.555 29,31C29,30.445 29.445,30 30,30Z" style="fill-rule:nonzero;"/>
                </g>
                <g transform="matrix(7.60828,7.60828,-7.60828,7.60828,1634.22,188.283)">
                    <path d="M25,0C18.637,0 14.109,2.602 11.531,6.188C11.426,7.031 11.535,7.934 11.875,9.313C12.117,10.297 12.895,11.078 13.875,11.688C15.383,9.742 18.02,7.391 22,7.281C22.336,8.395 22.594,9.91 22.5,11.844C22.473,12.395 22.887,12.879 23.438,12.906L23.5,12.906C24.031,12.906 24.477,12.473 24.5,11.938C24.648,8.836 24.082,7.102 23.594,5.781C25.652,6.063 28.742,6.723 29.625,11.281C29.73,11.824 30.238,12.199 30.781,12.094C31.324,11.988 31.699,11.449 31.594,10.906C31.32,9.48 30.836,8.355 30.25,7.406C33.051,7.242 35.211,8.305 36.406,10.438C37.402,9.879 38.063,9.383 38.344,8.313C38.625,7.242 38.566,6.863 38.5,5.563C36.309,2.563 32.301,0 25,0ZM40.094,8.594C39.828,11.988 35.336,13.266 30.844,14.406C27.777,15.188 24.902,15.926 23.5,17.906C21.316,20.926 18.688,26.238 18.688,34.313C18.688,40.199 20.617,47.82 26.031,49.938L26.219,50L26.438,50C27.891,49.945 31.461,49.766 33.281,49.375C35.676,48.895 37.535,46.898 37.781,44.563C37.918,43.727 41.094,23.973 41.094,14.031C41.168,11.07 40.328,9.113 40.094,8.594ZM9.875,9.313L9.344,11C9.02,12.227 9,13.918 9,14C9,20.492 12.18,43.559 12.313,44.5C12.559,46.953 14.48,49.016 17.031,49.5C17.777,49.625 20.035,49.766 22.188,49.875C18.195,46.328 16.688,39.879 16.688,34.313C16.688,25.723 19.504,20.023 21.844,16.781C20.652,16.25 19.262,15.836 17.844,15.406C13.945,14.223 9.859,12.551 9.875,9.313ZM19.406,11.781C18.922,11.84 18.555,12.238 18.531,12.727C18.508,13.211 18.836,13.645 19.313,13.75C19.313,13.75 20.355,14.109 21.031,14.938C21.254,15.238 21.621,15.387 21.988,15.332C22.355,15.273 22.66,15.02 22.781,14.668C22.902,14.316 22.816,13.926 22.563,13.656C21.438,12.281 19.906,11.844 19.906,11.844C19.805,11.805 19.699,11.785 19.594,11.781C19.531,11.773 19.469,11.773 19.406,11.781ZM27,24C28.105,24 29,24.895 29,26C29,27.105 28.105,28 27,28C25.895,28 25,27.105 25,26C25,24.895 25.895,24 27,24ZM30,30C30.555,30 31,30.445 31,31C31,31.555 30.555,32 30,32C29.445,32 29,31.555 29,31C29,30.445 29.445,30 30,30Z" style="fill-rule:nonzero;"/>
                </g>
                <g transform="matrix(7.60828,7.60828,-7.60828,7.60828,638.126,-492.588)">
                    <path d="M25,0C18.637,0 14.109,2.602 11.531,6.188C11.426,7.031 11.535,7.934 11.875,9.313C12.117,10.297 12.895,11.078 13.875,11.688C15.383,9.742 18.02,7.391 22,7.281C22.336,8.395 22.594,9.91 22.5,11.844C22.473,12.395 22.887,12.879 23.438,12.906L23.5,12.906C24.031,12.906 24.477,12.473 24.5,11.938C24.648,8.836 24.082,7.102 23.594,5.781C25.652,6.063 28.742,6.723 29.625,11.281C29.73,11.824 30.238,12.199 30.781,12.094C31.324,11.988 31.699,11.449 31.594,10.906C31.32,9.48 30.836,8.355 30.25,7.406C33.051,7.242 35.211,8.305 36.406,10.438C37.402,9.879 38.063,9.383 38.344,8.313C38.625,7.242 38.566,6.863 38.5,5.563C36.309,2.563 32.301,0 25,0ZM40.094,8.594C39.828,11.988 35.336,13.266 30.844,14.406C27.777,15.188 24.902,15.926 23.5,17.906C21.316,20.926 18.688,26.238 18.688,34.313C18.688,40.199 20.617,47.82 26.031,49.938L26.219,50L26.438,50C27.891,49.945 31.461,49.766 33.281,49.375C35.676,48.895 37.535,46.898 37.781,44.563C37.918,43.727 41.094,23.973 41.094,14.031C41.168,11.07 40.328,9.113 40.094,8.594ZM9.875,9.313L9.344,11C9.02,12.227 9,13.918 9,14C9,20.492 12.18,43.559 12.313,44.5C12.559,46.953 14.48,49.016 17.031,49.5C17.777,49.625 20.035,49.766 22.188,49.875C18.195,46.328 16.688,39.879 16.688,34.313C16.688,25.723 19.504,20.023 21.844,16.781C20.652,16.25 19.262,15.836 17.844,15.406C13.945,14.223 9.859,12.551 9.875,9.313ZM19.406,11.781C18.922,11.84 18.555,12.238 18.531,12.727C18.508,13.211 18.836,13.645 19.313,13.75C19.313,13.75 20.355,14.109 21.031,14.938C21.254,15.238 21.621,15.387 21.988,15.332C22.355,15.273 22.66,15.02 22.781,14.668C22.902,14.316 22.816,13.926 22.563,13.656C21.438,12.281 19.906,11.844 19.906,11.844C19.805,11.805 19.699,11.785 19.594,11.781C19.531,11.773 19.469,11.773 19.406,11.781ZM27,24C28.105,24 29,24.895 29,26C29,27.105 28.105,28 27,28C25.895,28 25,27.105 25,26C25,24.895 25.895,24 27,24ZM30,30C30.555,30 31,30.445 31,31C31,31.555 30.555,32 30,32C29.445,32 29,31.555 29,31C29,30.445 29.445,30 30,30Z" style="fill-rule:nonzero;"/>
                </g>
                <g transform="matrix(9.3182,5.37987,-5.37987,9.3182,1099.82,656.251)">
                    <path d="M15.594,4C4.195,4 0,13.801 0,20C0,38.199 16.211,45.898 24.813,46L25,46C33.699,46 50,38.398 50,20C50,13.801 45.805,4 34.406,4C25.008,4 18,10 18,18C18,20 18.508,21.887 19.406,23.688C22.008,22.289 24,20.398 24,18C24,17.699 23.992,17.488 24.094,17.188L24.094,17C24.094,16.801 24.188,16.605 24.188,16.406C24.188,16.207 24.305,16.105 24.406,15.906C24.406,15.805 24.5,15.688 24.5,15.688C24.699,15.188 25.012,14.805 25.313,14.406L25.313,14.313C25.414,14.211 25.488,14.008 25.688,13.906L25.813,13.813C26.211,13.414 26.688,12.988 27.188,12.688C27.188,12.688 27.313,12.695 27.313,12.594C29.313,11.395 31.801,10.813 33.5,10.813C38.301,10.813 42,14.813 42,19.813C42,23.113 41.301,25.406 40.5,26.906C42.301,27.906 43.398,29.992 43,32.094C42.602,34.492 40.492,36.188 38.094,36.188C37.793,36.188 37.512,36.195 37.313,36.094C36.914,35.992 34.414,35.602 31.313,34.5C29.211,35.602 27,36 25,36C22.898,36 20.602,35.605 18.5,34.906C16.5,35.605 14.695,35.988 13.594,36.188C13.094,36.289 12.887,36.305 12.688,36.406C12.387,36.406 12.105,36.5 11.906,36.5C9.508,36.5 7.398,34.805 7,32.406C6.602,30.105 7.688,28 9.688,27C8.887,25.199 8,22.699 8,20C8,13.398 13.012,11 16.313,11C16.813,11 17.289,10.992 17.688,11.094C18.887,8.793 20.613,6.906 22.813,5.406C20.711,4.508 18.195,4 15.594,4ZM31.094,13.406C28.793,14.008 26,15.398 26,18C26,26 11.508,28.5 11.406,28.5C9.805,28.801 8.699,30.301 9,32C9.301,33.5 10.5,34.5 12,34.5L12.5,34.5C12.602,34.5 12.914,34.406 13.313,34.406C17.613,33.406 32,29.5 32,18C32,16.398 31.695,14.805 31.094,13.406ZM47,20C47.602,20 48,20.398 48,21C48,21.602 47.602,22 47,22C46.398,22 46,21.602 46,21C46,20.398 46.398,20 47,20ZM6,21C6.602,21 7,21.398 7,22C7,22.602 6.602,23 6,23C5.398,23 5,22.602 5,22C5,21.398 5.398,21 6,21ZM45,24C45.602,24 46,24.398 46,25C46,25.602 45.602,26 45,26C44.398,26 44,25.602 44,25C44,24.398 44.398,24 45,24ZM31.406,26.313C30.207,28.113 28.605,29.488 26.906,30.688C31.707,33.289 36.992,34.305 37.594,34.406L38.094,34.406C39.492,34.406 40.793,33.406 41.094,31.906C41.395,30.305 40.293,28.801 38.594,28.5C38.195,28.398 34.805,27.813 31.406,26.313ZM5,27C5.602,27 6,27.398 6,28C6,28.602 5.602,29 5,29C4.398,29 4,28.602 4,28C4,27.398 4.398,27 5,27ZM46,28C46.602,28 47,28.398 47,29C47,29.602 46.602,30 46,30C45.398,30 45,29.602 45,29C45,28.398 45.398,28 46,28ZM16,37C16.602,37 17,37.398 17,38C17,38.602 16.602,39 16,39C15.398,39 15,38.602 15,38C15,37.398 15.398,37 16,37ZM12,38C12.602,38 13,38.398 13,39C13,39.602 12.602,40 12,40C11.398,40 11,39.602 11,39C11,38.398 11.398,38 12,38ZM35,38C35.602,38 36,38.398 36,39C36,39.602 35.602,40 35,40C34.398,40 34,39.602 34,39C34,38.398 34.398,38 35,38ZM30,40C30.602,40 31,40.398 31,41C31,41.602 30.602,42 30,42C29.398,42 29,41.602 29,41C29,40.398 29.398,40 30,40Z" style="fill-rule:nonzero;"/>
                </g>
                <g transform="matrix(10.3931,2.78482,-2.78482,10.3931,441.612,1036.51)">
                    <path d="M30.412,2.018C27.236,1.941 24.273,2.95 22.111,5.111L8.566,19C6.01,21.555 4.348,25.424 4.119,29.348C3.89,33.248 5.086,36.968 7.49,40.025C5.931,40.096 4.131,40.37 2.459,41.445C2.124,41.66 1.949,42.053 2.014,42.447C2.078,42.84 2.371,43.159 2.758,43.256C4.714,43.746 5.988,45.037 6.768,47.322C6.893,47.689 7.219,47.951 7.604,47.994C7.641,47.998 7.678,48 7.715,48C8.06,48 8.382,47.822 8.564,47.525C9.618,45.82 9.896,44.115 9.971,42.588C12.845,44.975 16.349,46.254 20.049,46.254C20.363,46.254 20.679,46.244 20.996,46.225C24.919,45.996 28.443,44.333 30.998,41.777L44.889,27.889C49.831,22.947 48.742,13.816 42.463,7.537C38.93,4.005 34.495,2.116 30.412,2.018ZM30.09,3.998C33.735,3.998 37.803,5.707 41.049,8.953C46.548,14.452 47.636,22.313 43.475,26.475C39.313,30.636 31.454,29.549 25.953,24.049C20.453,18.549 19.364,10.687 23.525,6.525C25.231,4.82 27.558,3.998 30.09,3.998ZM29,8C28.451,8 28,8.451 28,9C28,9.549 28.451,10 29,10C29.549,10 30,9.549 30,9C30,8.451 29.549,8 29,8ZM36,10C35.451,10 35,10.451 35,11C35,11.549 35.451,12 36,12C36.549,12 37,11.549 37,11C37,10.451 36.549,10 36,10ZM26.5,13C25.677,13 25,13.677 25,14.5C25,15.323 25.677,16 26.5,16C27.323,16 28,15.323 28,14.5C28,13.677 27.323,13 26.5,13ZM33,16C32.451,16 32,16.451 32,17C32,17.549 32.451,18 33,18C33.549,18 34,17.549 34,17C34,16.451 33.549,16 33,16ZM40.5,18C39.677,18 39,18.677 39,19.5C39,20.323 39.677,21 40.5,21C41.323,21 42,20.323 42,19.5C42,18.677 41.323,18 40.5,18ZM35,23C34.451,23 34,23.451 34,24C34,24.549 34.451,25 35,25C35.549,25 36,24.549 36,24C36,23.451 35.549,23 35,23Z" style="fill-rule:nonzero;"/>
                </g>
                <g transform="matrix(10.7597,0,0,10.7597,936.168,1334.53)">
                    <path d="M28.969,0.125C28.305,0.152 27.781,0.313 27.781,0.313C27.781,0.313 24.828,1.832 23.781,6.375C18.969,2.25 15.359,7.32 13.406,2.281C13.406,10.32 17.809,8.391 20.156,9.406C12.773,8.797 16.734,15.086 11.375,16.156C16.457,18.406 21.43,18.754 23.281,13.781C22.988,15.727 21.711,19.625 28.063,23.438C29.641,18.367 31.023,17.422 28.75,13.063C31.859,17.055 34.496,19.164 40.031,15.656C35.594,14.496 37.699,11.453 32.188,10.5C36.32,10.672 37.73,10.953 39.594,6.031C35.535,7.57 33.758,1.383 27.656,6.625C27.633,6.641 27.316,4.027 31,0.75C30.438,0.203 29.633,0.098 28.969,0.125ZM12.094,6.844C4.273,9.68 0,16.508 0,26.281C0,39.141 11.449,50 25,50C37.039,50 50,41.82 50,23.875C50,15.785 46.82,10.223 41,7.875C40.16,9.785 39.258,10.996 38.063,11.719C38.148,11.836 38.234,11.949 38.313,12.063C38.887,12.891 39.188,13.367 40.531,13.719C41.301,13.918 41.91,14.559 42.031,15.344C42.152,16.129 41.797,16.918 41.125,17.344C38.898,18.754 36.922,19.438 35.094,19.438C33.848,19.438 32.734,19.109 31.75,18.594C31.563,19.465 31.254,20.371 30.875,21.406C30.598,22.164 30.285,23.008 29.969,24.031C29.785,24.617 29.355,25.094 28.781,25.313C28.551,25.402 28.301,25.438 28.063,25.438C27.703,25.438 27.348,25.348 27.031,25.156C23.563,23.074 22.016,20.883 21.375,18.906C20.281,19.449 19.023,19.719 17.625,19.719C15.586,19.719 13.188,19.129 10.563,17.969C9.766,17.617 9.313,16.805 9.406,15.938C9.5,15.07 10.145,14.359 11,14.188C12.219,13.945 12.434,13.461 12.938,12C13.176,11.313 13.469,10.457 14.031,9.656C13.266,9.063 12.57,8.152 12.094,6.844Z" style="fill-rule:nonzero;"/>
                </g>
                <g transform="matrix(10.3931,-2.78482,2.78482,10.3931,1322.91,1644.97)">
                    <path d="M31.094,2C30.793,2 30.605,2.086 30.406,2.188C30.207,2.387 28.789,3.688 28.188,5.188C24.688,6.789 15.688,12.094 14.188,23.594C14.488,23.695 14.801,23.898 15,24C15.301,23.801 15.813,23.605 16.313,23.406C17.68,14.563 23.828,9.922 27.563,7.875C27.477,9.863 27.852,13.734 31.313,16.313C33.012,17.512 35.008,18 36.906,18C39.105,18 41.102,17.414 42.5,16.813C42.699,16.613 42.898,16.395 43,16.094C43,15.793 43.012,15.512 42.813,15.313C42.414,14.711 41.992,13.988 41.594,13.188C40.695,11.488 39.602,9.488 37.5,8.188C35.395,6.902 33.18,6.34 31.5,6.063C32.238,5.43 32.922,4.805 33.188,4.406C33.387,4.105 33.395,3.613 33.094,3.313C32.195,2.113 31.195,2 31.094,2ZM26.313,12.5C25.711,17.199 26.414,21.711 27.313,24.813L28.094,24.813C28.293,24.512 28.695,24.094 29.094,23.594C28.492,21.492 28.094,18.813 28.094,15.813C27.195,14.711 26.613,13.602 26.313,12.5ZM35.313,23C33.961,23.09 32.813,23.469 32.094,23.813C30.695,24.512 30,25.488 29.5,26.188C29.398,26.387 29.195,26.688 29.094,26.688L27.188,26.688C28.789,28.586 30,31.195 30,35.094C30,39.195 28.105,42.805 25.406,45.406C27.605,47.008 30.207,47.906 32.906,47.906C34.906,47.906 36.914,47.398 38.813,46.5C44.313,43.898 48.113,35.793 44.813,29.094C42.27,23.867 38.289,22.797 35.313,23ZM11,25C8.898,25 2,25.688 2,35.188C2,42.086 8,48 15,48C21.102,48 27.992,42.488 28.094,35.188C28.094,26.789 21.594,25 19.094,25C17.492,25 16.387,25.602 15.688,26C15.488,26.102 15.195,26.313 15.094,26.313C14.992,26.313 14.605,26.102 14.406,26C13.605,25.602 12.5,25 11,25Z" style="fill-rule:nonzero;"/>
                </g>
                <g transform="matrix(10.3931,-2.78482,2.78482,10.3931,1322.91,-355.033)">
                    <path d="M31.094,2C30.793,2 30.605,2.086 30.406,2.188C30.207,2.387 28.789,3.688 28.188,5.188C24.688,6.789 15.688,12.094 14.188,23.594C14.488,23.695 14.801,23.898 15,24C15.301,23.801 15.813,23.605 16.313,23.406C17.68,14.563 23.828,9.922 27.563,7.875C27.477,9.863 27.852,13.734 31.313,16.313C33.012,17.512 35.008,18 36.906,18C39.105,18 41.102,17.414 42.5,16.813C42.699,16.613 42.898,16.395 43,16.094C43,15.793 43.012,15.512 42.813,15.313C42.414,14.711 41.992,13.988 41.594,13.188C40.695,11.488 39.602,9.488 37.5,8.188C35.395,6.902 33.18,6.34 31.5,6.063C32.238,5.43 32.922,4.805 33.188,4.406C33.387,4.105 33.395,3.613 33.094,3.313C32.195,2.113 31.195,2 31.094,2ZM26.313,12.5C25.711,17.199 26.414,21.711 27.313,24.813L28.094,24.813C28.293,24.512 28.695,24.094 29.094,23.594C28.492,21.492 28.094,18.813 28.094,15.813C27.195,14.711 26.613,13.602 26.313,12.5ZM35.313,23C33.961,23.09 32.813,23.469 32.094,23.813C30.695,24.512 30,25.488 29.5,26.188C29.398,26.387 29.195,26.688 29.094,26.688L27.188,26.688C28.789,28.586 30,31.195 30,35.094C30,39.195 28.105,42.805 25.406,45.406C27.605,47.008 30.207,47.906 32.906,47.906C34.906,47.906 36.914,47.398 38.813,46.5C44.313,43.898 48.113,35.793 44.813,29.094C42.27,23.867 38.289,22.797 35.313,23ZM11,25C8.898,25 2,25.688 2,35.188C2,42.086 8,48 15,48C21.102,48 27.992,42.488 28.094,35.188C28.094,26.789 21.594,25 19.094,25C17.492,25 16.387,25.602 15.688,26C15.488,26.102 15.195,26.313 15.094,26.313C14.992,26.313 14.605,26.102 14.406,26C13.605,25.602 12.5,25 11,25Z" style="fill-rule:nonzero;"/>
                </g>
                <g transform="matrix(-0.648242,-0.648242,0.648242,-0.648242,4522.43,4360.07)">
                    <path d="M5459.89,320C5459.89,542 5486.95,862.76 5744.8,604.909C6002.65,347.059 5782.44,355.446 5678.32,251C5574.21,146.554 5459.89,98 5459.89,320Z"/>
                </g>
                <g transform="matrix(-0.28923,0.461213,-0.466504,-0.292549,2370.48,-2149.38)">
                    <path d="M5459.89,320C5459.89,542 5486.95,862.76 5744.8,604.909C6002.65,347.059 5782.44,355.446 5678.32,251C5574.21,146.554 5459.89,98 5459.89,320Z"/>
                </g>
                <g transform="matrix(-0.648242,-0.648242,0.648242,-0.648242,3518.76,5633.07)">
                    <path d="M5407.08,340.42C5351.54,520.769 5395.68,578.766 5746.15,679.493C6009.31,755.127 5899.8,415.484 5795.69,311.038C5691.57,206.592 5472.41,128.251 5407.08,340.42Z"/>
                </g>
                <g transform="matrix(-0.648242,-0.648242,0.648242,-0.648242,5518.74,5633.07)">
                    <path d="M5407.08,340.42C5351.54,520.769 5395.68,578.766 5746.15,679.493C6009.31,755.127 5899.8,415.484 5795.69,311.038C5691.57,206.592 5472.41,128.251 5407.08,340.42Z"/>
                </g>
                <g transform="matrix(0.258819,-0.965926,0.965926,0.258819,-1329.63,4766.19)">
                    <path d="M4825.21,216C4824.81,214.059 4823.84,212.281 4822.44,210.891L4715.45,104.891C4714.05,103.512 4712.29,102.57 4710.37,102.191C4701.05,100.32 4691.39,99.379 4681.62,99.379C4625.68,99.379 4565.08,129.98 4506.3,187.949C4476.82,217.711 4456.91,245.449 4444.35,271.18C4443.78,271.969 4443.42,272.871 4443.1,273.801C4406.62,351.238 4437.27,410 4476.33,449.059C4487.57,460.301 4498.92,469.449 4510.42,476.93C4511.32,477.84 4512.39,478.551 4513.62,479.07C4536.17,493.02 4559.39,499.961 4583.81,499.961L4583.82,499.961C4632.1,499.961 4682.36,473.16 4737.47,418.059C4825.97,329.57 4834.03,259.34 4825.21,216ZM4522.64,461.07C4519.78,459.25 4516.92,457.371 4514.07,455.289L4500.13,412.102L4551.15,422.16C4558.6,431.039 4561.37,453.629 4561.64,471.922L4522.64,461.07ZM4561.07,356.879L4606.13,365.77C4606.22,365.871 4606.24,365.988 4606.34,366.078C4614.53,374.262 4617.43,398.461 4617.65,417.52L4566.63,405.871C4566.76,394.672 4566.15,374.109 4561.07,356.879ZM4483.53,337.809C4488.88,337.871 4493.9,338.141 4498.68,338.539L4526.74,344.078C4529.55,345.172 4531.82,346.391 4533.6,347.73C4534.4,349.211 4535.61,350.398 4537.01,351.309C4543.93,361.051 4546.47,383.18 4546.65,400.871L4493.92,390.48L4483.53,337.809ZM4447.66,328.852C4454.62,330 4459.45,331.77 4462.29,333.52L4472.8,386.828L4455.35,384C4448.16,366.262 4445.63,347.859 4447.66,328.852ZM4617,297.469L4665.28,306.98C4665.3,307.012 4665.31,307.039 4665.33,307.07C4673.57,315.309 4676.45,339.781 4676.65,358.879L4623.63,348.43C4623.71,336.191 4622.86,314.672 4617,297.469ZM4540.53,281.82C4565.9,282.102 4585.61,286.359 4592.33,293.07C4600.58,301.309 4603.46,325.781 4603.65,344.891L4550.92,334.488L4540.53,281.82ZM4473.51,260.121C4491.1,261.371 4505.85,265.602 4511.33,271.078C4519.46,279.211 4522.36,303.059 4522.62,322.039C4515.78,320.398 4508.54,319.32 4501.3,318.68L4469.86,312.48L4462.97,278.801C4466.02,272.641 4469.59,266.398 4473.51,260.121ZM4675.7,240.609L4722.96,249.93C4730.69,258.809 4733.46,282.32 4733.64,300.891L4681.62,290.641C4681.76,279.102 4681.1,257.969 4675.7,240.609ZM4598.53,222.809C4623.9,223.102 4643.61,227.359 4650.33,234.07C4658.57,242.309 4661.46,266.781 4661.65,285.879L4608.92,275.488L4598.53,222.809ZM4520.42,202.121C4520.78,201.762 4521.15,201.43 4521.51,201.078C4540.68,201.461 4562.89,205.281 4570.32,212.078C4578.56,220.328 4581.44,244.789 4581.64,263.891L4528.91,253.5L4519.09,203.551C4519.55,203.059 4519.95,202.59 4520.42,202.121ZM4507.1,246.238C4500.3,243.84 4493.04,242.352 4486.4,241.391C4491.27,234.891 4496.51,228.34 4502.28,221.73L4507.1,246.238ZM4796.61,244.07L4739.63,232.84C4739.73,222.102 4739.1,203.828 4734.88,187.711L4777.75,194.859C4777.79,194.859 4777.82,194.859 4777.85,194.871L4795.98,212.82C4797.57,223.551 4797.25,235.641 4796.61,244.07ZM4657.55,170.98C4657.53,170.891 4657.51,170.789 4657.49,170.699L4656.53,165.809C4681.9,166.09 4701.62,170.352 4708.34,177.07C4716.58,185.32 4719.46,209.781 4719.65,228.891L4666.93,218.488L4657.55,170.98ZM4923.47,187.93C4901.6,166.059 4821.23,133.57 4800.13,125.281C4791.98,104.449 4760.21,25.672 4737.47,2.93C4735.6,1.051 4733.06,0 4730.4,0C4727.74,0 4725.2,1.051 4723.33,2.93C4711.16,15.09 4706.08,43.129 4707.97,69.051L4856.97,217.238C4885.77,222.5 4911.29,214.25 4923.46,202.07C4927.38,198.16 4927.38,191.84 4923.47,187.93ZM4599.67,142.07C4600.39,142.371 4601.07,142.75 4601.88,142.879C4613.6,144.691 4622.67,147.93 4627.66,151.84C4628.46,153.281 4629.64,154.43 4631.01,155.32C4633.79,159.238 4635.87,165.102 4637.36,171.961L4638.29,176.699C4639.84,185.801 4640.56,195.91 4640.65,204.879L4587.92,194.48L4579.92,153.672C4586.53,149.41 4593.11,145.551 4599.67,142.07ZM4566.24,187.871C4558.27,185.16 4549.55,183.5 4541.66,182.512C4548.44,176.66 4555.21,171.191 4561.98,166.129L4566.24,187.871ZM4717.34,134.941L4753.26,170.512L4724.88,165.781C4724.11,164.801 4723.34,163.789 4722.48,162.93C4721.03,161.48 4719.32,160.23 4717.54,159.012C4717.77,154.641 4718.04,145.578 4717.34,134.941ZM4815.54,109.879C4841.52,120.289 4876.69,135.352 4903.89,150.512C4912.41,148.172 4919.44,145.102 4923.47,141.07C4925.35,139.191 4926.4,136.648 4926.4,134C4926.4,131.352 4925.35,128.801 4923.47,126.93C4908.28,111.738 4855.23,94.469 4837.42,88.98C4831.93,71.172 4814.67,18.121 4799.47,2.93C4795.56,-0.98 4789.24,-0.98 4785.33,2.93C4781.07,7.191 4777.62,14.012 4774.8,21.98C4790.86,50.41 4806.38,87 4815.54,109.879ZM4695.37,120.211C4697.27,130.488 4697.79,141.172 4697.78,148.922L4644.84,138.488L4642.04,124.949C4655.5,121.281 4668.72,119.398 4681.61,119.398C4686.25,119.391 4690.83,119.719 4695.37,120.211ZM4853.36,73.039C4861.59,75.699 4870.17,78.641 4878.62,81.789C4901.33,43.051 4896.9,38.359 4892.47,33.941C4890.92,32.391 4888.15,30.531 4883.81,30.531C4876.5,30.531 4860.38,38.699 4844.64,47.84C4847.78,56.27 4850.71,64.82 4853.36,73.039Z" style="fill-rule:nonzero;"/>
                </g>
                <g transform="matrix(0.258819,-0.965926,0.965926,0.258819,670.349,4766.19)">
                    <path d="M4825.21,216C4824.81,214.059 4823.84,212.281 4822.44,210.891L4715.45,104.891C4714.05,103.512 4712.29,102.57 4710.37,102.191C4701.05,100.32 4691.39,99.379 4681.62,99.379C4625.68,99.379 4565.08,129.98 4506.3,187.949C4476.82,217.711 4456.91,245.449 4444.35,271.18C4443.78,271.969 4443.42,272.871 4443.1,273.801C4406.62,351.238 4437.27,410 4476.33,449.059C4487.57,460.301 4498.92,469.449 4510.42,476.93C4511.32,477.84 4512.39,478.551 4513.62,479.07C4536.17,493.02 4559.39,499.961 4583.81,499.961L4583.82,499.961C4632.1,499.961 4682.36,473.16 4737.47,418.059C4825.97,329.57 4834.03,259.34 4825.21,216ZM4522.64,461.07C4519.78,459.25 4516.92,457.371 4514.07,455.289L4500.13,412.102L4551.15,422.16C4558.6,431.039 4561.37,453.629 4561.64,471.922L4522.64,461.07ZM4561.07,356.879L4606.13,365.77C4606.22,365.871 4606.24,365.988 4606.34,366.078C4614.53,374.262 4617.43,398.461 4617.65,417.52L4566.63,405.871C4566.76,394.672 4566.15,374.109 4561.07,356.879ZM4483.53,337.809C4488.88,337.871 4493.9,338.141 4498.68,338.539L4526.74,344.078C4529.55,345.172 4531.82,346.391 4533.6,347.73C4534.4,349.211 4535.61,350.398 4537.01,351.309C4543.93,361.051 4546.47,383.18 4546.65,400.871L4493.92,390.48L4483.53,337.809ZM4447.66,328.852C4454.62,330 4459.45,331.77 4462.29,333.52L4472.8,386.828L4455.35,384C4448.16,366.262 4445.63,347.859 4447.66,328.852ZM4617,297.469L4665.28,306.98C4665.3,307.012 4665.31,307.039 4665.33,307.07C4673.57,315.309 4676.45,339.781 4676.65,358.879L4623.63,348.43C4623.71,336.191 4622.86,314.672 4617,297.469ZM4540.53,281.82C4565.9,282.102 4585.61,286.359 4592.33,293.07C4600.58,301.309 4603.46,325.781 4603.65,344.891L4550.92,334.488L4540.53,281.82ZM4473.51,260.121C4491.1,261.371 4505.85,265.602 4511.33,271.078C4519.46,279.211 4522.36,303.059 4522.62,322.039C4515.78,320.398 4508.54,319.32 4501.3,318.68L4469.86,312.48L4462.97,278.801C4466.02,272.641 4469.59,266.398 4473.51,260.121ZM4675.7,240.609L4722.96,249.93C4730.69,258.809 4733.46,282.32 4733.64,300.891L4681.62,290.641C4681.76,279.102 4681.1,257.969 4675.7,240.609ZM4598.53,222.809C4623.9,223.102 4643.61,227.359 4650.33,234.07C4658.57,242.309 4661.46,266.781 4661.65,285.879L4608.92,275.488L4598.53,222.809ZM4520.42,202.121C4520.78,201.762 4521.15,201.43 4521.51,201.078C4540.68,201.461 4562.89,205.281 4570.32,212.078C4578.56,220.328 4581.44,244.789 4581.64,263.891L4528.91,253.5L4519.09,203.551C4519.55,203.059 4519.95,202.59 4520.42,202.121ZM4507.1,246.238C4500.3,243.84 4493.04,242.352 4486.4,241.391C4491.27,234.891 4496.51,228.34 4502.28,221.73L4507.1,246.238ZM4796.61,244.07L4739.63,232.84C4739.73,222.102 4739.1,203.828 4734.88,187.711L4777.75,194.859C4777.79,194.859 4777.82,194.859 4777.85,194.871L4795.98,212.82C4797.57,223.551 4797.25,235.641 4796.61,244.07ZM4657.55,170.98C4657.53,170.891 4657.51,170.789 4657.49,170.699L4656.53,165.809C4681.9,166.09 4701.62,170.352 4708.34,177.07C4716.58,185.32 4719.46,209.781 4719.65,228.891L4666.93,218.488L4657.55,170.98ZM4923.47,187.93C4901.6,166.059 4821.23,133.57 4800.13,125.281C4791.98,104.449 4760.21,25.672 4737.47,2.93C4735.6,1.051 4733.06,0 4730.4,0C4727.74,0 4725.2,1.051 4723.33,2.93C4711.16,15.09 4706.08,43.129 4707.97,69.051L4856.97,217.238C4885.77,222.5 4911.29,214.25 4923.46,202.07C4927.38,198.16 4927.38,191.84 4923.47,187.93ZM4599.67,142.07C4600.39,142.371 4601.07,142.75 4601.88,142.879C4613.6,144.691 4622.67,147.93 4627.66,151.84C4628.46,153.281 4629.64,154.43 4631.01,155.32C4633.79,159.238 4635.87,165.102 4637.36,171.961L4638.29,176.699C4639.84,185.801 4640.56,195.91 4640.65,204.879L4587.92,194.48L4579.92,153.672C4586.53,149.41 4593.11,145.551 4599.67,142.07ZM4566.24,187.871C4558.27,185.16 4549.55,183.5 4541.66,182.512C4548.44,176.66 4555.21,171.191 4561.98,166.129L4566.24,187.871ZM4717.34,134.941L4753.26,170.512L4724.88,165.781C4724.11,164.801 4723.34,163.789 4722.48,162.93C4721.03,161.48 4719.32,160.23 4717.54,159.012C4717.77,154.641 4718.04,145.578 4717.34,134.941ZM4815.54,109.879C4841.52,120.289 4876.69,135.352 4903.89,150.512C4912.41,148.172 4919.44,145.102 4923.47,141.07C4925.35,139.191 4926.4,136.648 4926.4,134C4926.4,131.352 4925.35,128.801 4923.47,126.93C4908.28,111.738 4855.23,94.469 4837.42,88.98C4831.93,71.172 4814.67,18.121 4799.47,2.93C4795.56,-0.98 4789.24,-0.98 4785.33,2.93C4781.07,7.191 4777.62,14.012 4774.8,21.98C4790.86,50.41 4806.38,87 4815.54,109.879ZM4695.37,120.211C4697.27,130.488 4697.79,141.172 4697.78,148.922L4644.84,138.488L4642.04,124.949C4655.5,121.281 4668.72,119.398 4681.61,119.398C4686.25,119.391 4690.83,119.719 4695.37,120.211ZM4853.36,73.039C4861.59,75.699 4870.17,78.641 4878.62,81.789C4901.33,43.051 4896.9,38.359 4892.47,33.941C4890.92,32.391 4888.15,30.531 4883.81,30.531C4876.5,30.531 4860.38,38.699 4844.64,47.84C4847.78,56.27 4850.71,64.82 4853.36,73.039Z" style="fill-rule:nonzero;"/>
                </g>
                <g transform="matrix(-0.965926,0.258819,-0.258819,-0.965926,2051.49,1411.04)">
                    <path d="M244,410C235,416 225,419 215,420C211,426 209,433 209,440C209,462 227,480 249,480C271,480 289,462 289,440C289,433 287,426 283,420L279,420C266,420 254,416 244,410ZM369,409C365,409 361,410 358,410C347,410 335,407 325,401C319,407 312,412 304,415C307,423 309,431 309,440C309,450 306,460 302,469C306,470 310,470 314,470C344,470 369,445 369,415L369,409ZM164.376,401.374C172.312,409.186 182.172,415.047 193,418C191,425 189,432 189,440C189,449 192,458 194,466C187,468 180,470 173,470C143,470 118,445 118,415C118,414.125 118.191,413.059 118.407,411.968L118.593,411.032C118.809,409.941 119,408.875 119,408C123,410 134,410 134,410C145,410 155,407 164,401L164.376,401.374ZM195,350C188,350 182,349 176,347C172,352 170,358 170,365C170,384 188,400 210,400C217,400 224,398 230,395C224,386 220,376 220,365C220,357 222,350 225,343C216,348 206,350 195,350ZM251,341C244,347 240,356 240,365C240,384 258,400 280,400C302,400 320,384 320,365C320,357 317,350 312,344C304,348 295,350 285,350C273,350 261,347 251,341ZM358,390C402,390 413,349 406,337C379,345 347,335 337,325C335,328 332,331 329,334C336,343 340,354 340,365C340,372 339,378 336,384C342,388 351,390 358,390ZM157,339C153,336 149,333 146,330C137,336 107,346 83,337C76,349 87,390 131,390C138,390 147,388 153,384C151,378 149,372 149,365C149,356 152,347 157,339ZM194,330C206,330 218,325 227,318C222,310 219,300 219,290C219,282 221,273 225,266C218,264 212,260 206,257C194,265 180,270 165,270C162,270 159,270 156,269C152,275 149,282 149,290C149,312 170,330 194,330ZM294,257C282,265 267,270 250,270L246,270C242,276 240,283 240,290C240,312 260,330 285,330C310,330 330,312 330,290C330,282 328,275 323,269C312,267 302,263 294,257ZM115,320C122,319 129,318 135,314C132,307 130,299 130,290C130,281 132,272 137,264C136,264 135,263 134,262C125,267 88,278 63,260C54,272 53,328 115,320ZM399,270C389,270 376,267 366,262C359,265 352,268 345,269C348,276 349,283 349,290C349,296 348,301 346,306C353,315 367,320 378,320C427,320 432,275 428,265C420,269 409,270 399,270ZM106,160C112,160 119,161 125,163C110,174 100,191 100,210C100,224 106,238 115,248C110,249 105,250 101,250C66,250 51,228 51,209C51,181 78,160 106,160ZM300,210C300,188 278,170 250,170C222,170 200,188 200,210C200,232 222,250 250,250C278,250 300,232 300,210ZM335,170C326,170 316,173 309,178C316,187 320,198 320,210C320,222 316,233 309,242C317,247 326,250 335,250C360,250 380,232 380,210C380,188 360,170 335,170ZM394,160C388,160 381,161 375,163C390,174 399,191 399,210C399,224 393,238 384,248C389,249 394,250 398,250C433,250 448,228 448,209C449,181 423,160 394,160ZM120,210C120,232 140,250 165,250C175,250 184,247 191,242C184,233 180,222 180,210C180,198 184,187 191,178C183,173 174,170 165,170C140,170 120,188 120,210ZM165,150C180,150 194,155 206,163C218,155 233,150 250,150C255,150 260,151 265,152C257,147 199,112 158,55C156,51 152,50 149,50C145,50 142,53 141,56C123,104 132,138 139,155C147,152 156,150 165,150ZM276,134L311,154C319,151 327,149 336,149C343,149 349,150 355,152C365,127 371,96 357,74C355,72 352,70 349,70C346,70 342,71 340,74C318,105 284,118 260,124C268,130 274,133 276,134ZM72,148C82,143 94,140 106,140L113,140C112,134 111,127 110,119C99,117 86,115 73,110C69,109 66,109 63,112C60,115 59,118 60,122C63,132 67,141 72,148ZM394,140C403,140 413,142 421,145C425,138 429,130 430,121C430,117 429,114 426,112C423,110 419,109 416,111C407,115 395,118 384,121C383,128 382,135 380,142C384,141 389,140 394,140ZM251,118C254,84 268,57 309,40L301,22C254,41 238,72 232,105C239,109 245,114 251,118Z" style="fill-rule:nonzero;"/>
                </g>
                <g transform="matrix(-1.15008,-0.308162,0.308162,-1.15008,1241.24,521.478)">
                    <path d="M409.172,92.039C407.371,90.832 405.941,89.922 405.121,89.18C381.82,68.289 375.461,20.379 375.398,19.898L374.129,10L364.238,11.238C342.398,13.98 324.391,26.851 323.629,27.398L315.102,33.582L321.719,41.789C321.961,42.09 346.352,72.621 347.969,100.601C347.691,101.82 345.57,105.351 343.871,108.18C339.078,116.129 331.871,128.14 327.352,146.039L327.059,147.211C321.449,169.469 308.34,221.59 248.879,272.211C217.25,299.14 191.211,313.691 163.641,329.09C131.871,346.84 95.859,366.961 46.25,409.211C37.148,416.961 28.219,441.551 25.699,448.91L24.172,453.359L38.578,476.859L41.129,478.14C53.379,484.289 67.32,490.64 77.852,491.101C78.469,491.129 79.59,491.16 81.172,491.16C95.602,491.16 225.852,487.969 354.621,377.57C446.309,298.941 460,222.582 460,184.058C460,126.379 423.078,101.441 409.172,92.039ZM291.852,339.43C240.52,384.219 210.039,397.172 171.449,413.558C140.809,426.582 124.969,429.43 69.852,464.281C68.191,465.32 66.34,465.82 64.52,465.82C61.199,465.82 57.961,464.172 56.059,461.16C53.109,456.488 54.5,450.32 59.172,447.359C115.66,411.648 132.301,408.449 163.641,395.14C200.59,379.449 229.781,367.051 278.711,324.351C360.691,252.808 372.93,169.738 372.93,126.601C372.93,121.082 377.398,116.601 382.93,116.601C388.461,116.601 392.93,121.082 392.93,126.601C392.922,173.148 379.789,262.68 291.852,339.43Z" style="fill-rule:nonzero;"/>
                </g>
                <g transform="matrix(-1.15008,-0.308162,0.308162,-1.15008,1241.24,2521.49)">
                    <path d="M409.172,92.039C407.371,90.832 405.941,89.922 405.121,89.18C381.82,68.289 375.461,20.379 375.398,19.898L374.129,10L364.238,11.238C342.398,13.98 324.391,26.851 323.629,27.398L315.102,33.582L321.719,41.789C321.961,42.09 346.352,72.621 347.969,100.601C347.691,101.82 345.57,105.351 343.871,108.18C339.078,116.129 331.871,128.14 327.352,146.039L327.059,147.211C321.449,169.469 308.34,221.59 248.879,272.211C217.25,299.14 191.211,313.691 163.641,329.09C131.871,346.84 95.859,366.961 46.25,409.211C37.148,416.961 28.219,441.551 25.699,448.91L24.172,453.359L38.578,476.859L41.129,478.14C53.379,484.289 67.32,490.64 77.852,491.101C78.469,491.129 79.59,491.16 81.172,491.16C95.602,491.16 225.852,487.969 354.621,377.57C446.309,298.941 460,222.582 460,184.058C460,126.379 423.078,101.441 409.172,92.039ZM291.852,339.43C240.52,384.219 210.039,397.172 171.449,413.558C140.809,426.582 124.969,429.43 69.852,464.281C68.191,465.32 66.34,465.82 64.52,465.82C61.199,465.82 57.961,464.172 56.059,461.16C53.109,456.488 54.5,450.32 59.172,447.359C115.66,411.648 132.301,408.449 163.641,395.14C200.59,379.449 229.781,367.051 278.711,324.351C360.691,252.808 372.93,169.738 372.93,126.601C372.93,121.082 377.398,116.601 382.93,116.601C388.461,116.601 392.93,121.082 392.93,126.601C392.922,173.148 379.789,262.68 291.852,339.43Z" style="fill-rule:nonzero;"/>
                </g>
            </g>
        </g>
    </g>
</svg>
