<?xml version="1.0" encoding="UTF-8" standalone="no"?>
<!DOCTYPE svg PUBLIC "-//W3C//DTD SVG 1.1//EN" "http://www.w3.org/Graphics/SVG/1.1/DTD/svg11.dtd">
<svg width="100%" height="100%" viewBox="0 0 32 32" version="1.1" xmlns="http://www.w3.org/2000/svg" xmlns:xlink="http://www.w3.org/1999/xlink" xml:space="preserve" xmlns:serif="http://www.serif.com/" style="fill-rule:evenodd;clip-rule:evenodd;stroke-linejoin:round;stroke-miterlimit:2;">
    <g transform="matrix(0.0395855,0,0,0.0395855,-10.2439,-93.5136)">
        <path d="M548.358,2606C552.403,2612.83 556.71,2619.46 561.19,2625.86C594.659,2673.64 636.921,2707.97 639.537,2710.31C639.917,2710.65 640.307,2710.98 640.707,2711.29C653.712,2721.57 672.224,2721.57 685.228,2711.29C688.235,2708.92 731.12,2674.25 764.924,2625.83C769.384,2619.44 773.67,2612.82 777.693,2606L838.432,2606C850.144,2606 860.857,2612.6 866.122,2623.06C880.583,2651.79 909.781,2709.8 925.832,2741.69C933.917,2757.75 934.651,2776.53 927.845,2793.18C921.038,2809.82 907.358,2822.7 890.334,2828.5C883.474,2830.76 876.149,2832 868.534,2832C844.098,2832 822.633,2819.18 810.507,2799.9C808.268,2796.27 804.311,2794.06 800.05,2794.06C800.049,2794 800.049,2794 800.049,2794C795.749,2794 791.756,2796.23 789.496,2799.89C777.42,2819.19 755.962,2832 731.534,2832C707.098,2832 685.633,2819.18 673.507,2799.9C671.268,2796.27 667.311,2794.06 663.05,2794.06C663.049,2794 663.049,2794 663.049,2794C658.749,2794 654.756,2796.23 652.496,2799.89C640.42,2819.19 618.962,2832 594.534,2832C570.098,2832 548.633,2819.18 536.507,2799.9C534.268,2796.27 530.311,2794.06 526.05,2794.06C526.049,2794 526.049,2794 526.049,2794C521.749,2794 517.756,2796.23 515.496,2799.89C503.42,2819.19 481.962,2832 457.534,2832C449.523,2832 441.831,2830.62 434.683,2828.09C417.902,2822.09 404.505,2809.17 397.896,2792.62C391.287,2776.06 392.102,2757.47 400.133,2741.56C416.136,2709.81 445.438,2651.76 459.938,2623.03C465.21,2612.59 475.913,2606 487.612,2606L548.358,2606Z" style="fill:white;"/>
        <g transform="matrix(2.71516,0,0,2.71516,-3306.54,-3020.66)">
            <path d="M1495.13,2224.55C1504.6,2224.55 1512.28,2216.89 1512.31,2207.42C1512.35,2192.96 1512.4,2172.82 1512.43,2161.36C1512.43,2159.86 1513.26,2158.49 1514.59,2157.79C1515.91,2157.09 1517.51,2157.18 1518.75,2158.02C1524.14,2161.72 1530.66,2163.88 1537.69,2163.88C1538.21,2163.88 1538.74,2163.87 1539.26,2163.84C1540.36,2163.8 1541.43,2164.2 1542.23,2164.96C1543.02,2165.73 1543.47,2166.78 1543.47,2167.89C1543.48,2183.61 1543.48,2236.38 1543.48,2259.52C1543.48,2265.61 1538.54,2270.55 1532.45,2270.55L1391.51,2270.55C1388.58,2270.55 1385.78,2269.39 1383.71,2267.32C1381.64,2265.25 1380.48,2262.45 1380.48,2259.52C1380.48,2236.38 1380.48,2183.62 1380.48,2167.88C1380.48,2166.78 1380.93,2165.72 1381.73,2164.96C1382.53,2164.19 1383.6,2163.79 1384.7,2163.84C1385.24,2163.87 1385.78,2163.88 1386.32,2163.88C1393.33,2163.88 1399.85,2161.72 1405.23,2158.03C1406.47,2157.19 1408.07,2157.11 1409.39,2157.8C1410.72,2158.5 1411.55,2159.88 1411.55,2161.37C1411.58,2172.84 1411.62,2192.96 1411.65,2207.41C1411.67,2216.89 1419.36,2224.55 1428.83,2224.55C1447.33,2224.55 1476.63,2224.55 1495.13,2224.55Z" style="fill:white;"/>
        </g>
        <g transform="matrix(3.48944,0,0,3.48944,488.496,2366.94)">
            <path d="M50,6.25C31.142,6.25 15.625,21.767 15.625,40.625C15.625,66.813 46.875,92 48.063,93.063C49.194,93.957 50.806,93.957 51.938,93.063C53.281,92 84.375,66.813 84.375,40.625C84.375,21.767 68.858,6.25 50,6.25ZM50,59.375C39.714,59.375 31.25,50.911 31.25,40.625C31.25,30.339 39.714,21.875 50,21.875C60.286,21.875 68.75,30.339 68.75,40.625C68.75,50.911 60.286,59.375 50,59.375Z" style="fill:rgb(241,39,5);fill-rule:nonzero;"/>
        </g>
    </g>
</svg>
