<?xml version="1.0" standalone="no"?>
<!DOCTYPE svg PUBLIC "-//W3C//DTD SVG 20010904//EN"
 "http://www.w3.org/TR/2001/REC-SVG-20010904/DTD/svg10.dtd">
<svg version="1.0" xmlns="http://www.w3.org/2000/svg"
 width="700.000000pt" height="700.000000pt" viewBox="0 0 700.000000 700.000000"
 preserveAspectRatio="xMidYMid meet">
<metadata>
Created by potrace 1.11, written by Peter Selinger 2001-2013
</metadata>
<g transform="translate(0.000000,700.000000) scale(0.100000,-0.100000)"
fill="#000000" stroke="none">
<path d="M3389 6815 c-2 -1 -22 -5 -44 -8 -105 -15 -250 -63 -345 -115 -199
-109 -385 -313 -469 -517 -178 -426 -71 -886 327 -1410 42 -55 90 -116 107
-134 146 -166 280 -302 413 -419 72 -63 87 -72 122 -72 34 0 50 9 112 62 229
194 483 479 645 723 141 213 256 481 279 653 3 26 8 50 11 54 6 11 5 238 -2
268 -3 14 -10 51 -16 84 -21 118 -97 291 -171 391 -166 223 -399 374 -660 426
-49 10 -302 22 -309 14z m288 -506 c188 -62 339 -227 383 -417 16 -70 16 -184
1 -252 -61 -261 -315 -459 -577 -449 -309 11 -559 269 -556 575 2 276 193 507
465 564 69 14 209 4 284 -21z"/>
<path d="M1890 4901 c-87 -27 -137 -72 -189 -172 -168 -323 -526 -1043 -542
-1092 -43 -128 -30 -281 35 -410 94 -189 280 -299 501 -300 203 0 385 98 503
269 31 45 73 67 117 58 37 -7 51 -18 115 -102 189 -244 549 -298 807 -121 70
49 90 68 140 134 91 122 153 124 238 10 182 -243 493 -317 765 -182 65 32 170
127 238 214 59 76 128 67 195 -25 115 -155 282 -247 467 -255 316 -15 575 218
585 527 5 138 -3 159 -307 766 -314 625 -323 639 -427 673 -45 14 -96 17 -337
17 l-284 0 -56 -87 c-124 -193 -282 -383 -488 -588 -270 -269 -345 -319 -469
-316 -128 2 -188 44 -472 326 -198 198 -332 359 -457 552 l-73 112 -290 0
c-159 -1 -301 -4 -315 -8z"/>
<path d="M2070 2824 c-122 -64 -228 -93 -350 -95 -97 -2 -136 -17 -153 -58
-14 -33 -16 -2232 -3 -2291 18 -74 74 -139 151 -176 l50 -24 1728 0 c1688 1
1729 1 1779 20 63 24 123 80 151 140 20 44 20 59 21 1170 1 650 -2 1137 -7
1153 -15 45 -49 60 -140 64 -155 6 -295 46 -407 118 -83 52 -154 42 -178 -26
-5 -13 -10 -280 -11 -594 -1 -314 -3 -581 -6 -595 -24 -161 -141 -293 -297
-336 -44 -12 -191 -15 -888 -15 -459 0 -853 3 -875 6 -58 10 -154 58 -201 102
-53 49 -89 104 -113 175 -21 62 -22 80 -22 833 -1 229 -5 403 -11 423 -10 35
-51 63 -90 61 -13 0 -70 -25 -128 -55z"/>
</g>
</svg>
