<?xml version="1.0" encoding="UTF-8" standalone="no"?>
<!DOCTYPE svg PUBLIC "-//W3C//DTD SVG 1.1//EN" "http://www.w3.org/Graphics/SVG/1.1/DTD/svg11.dtd">
<svg width="100%" height="100%" viewBox="0 0 1024 768" version="1.1" xmlns="http://www.w3.org/2000/svg" xmlns:xlink="http://www.w3.org/1999/xlink" xml:space="preserve" xmlns:serif="http://www.serif.com/" style="fill-rule:evenodd;clip-rule:evenodd;stroke-linejoin:round;stroke-miterlimit:2;">
    <g id="Character-unboxing" serif:id="Character/unboxing">
        <path id="Accent" d="M303.253,421.074C307.999,456.666 312.744,492.258 317.49,527.85L321.322,556.592C321.806,560.219 321.349,567.373 323.192,570.62C323.843,571.765 325.554,572.309 326.812,572.984C331.142,575.309 335.473,577.634 339.803,579.959C376.433,599.625 413.063,619.291 449.691,638.957C484.845,657.83 519.999,676.704 555.152,695.577C558.79,697.531 564.674,702.627 568.601,701.284C572.334,700.008 576.149,696.86 579.538,694.875C586.044,691.062 592.549,687.25 599.055,683.437C638.421,660.367 677.786,637.296 717.152,614.226C733.394,604.708 749.635,595.19 765.877,585.671C770.32,583.067 774.765,580.463 779.209,577.858C781.533,576.496 781.835,576.544 782.75,574.232C786.17,565.589 787.754,555.688 790.174,546.72C792.841,536.837 795.508,526.954 798.175,517.071C799.364,512.661 798.806,512.092 796.866,507.835C793.028,499.409 789.19,490.984 785.352,482.559C776.833,463.859 768.315,445.159 759.795,426.459C756.35,418.897 748.052,413.576 742.078,408.014L649.321,321.655C646.965,319.461 644.609,317.268 642.253,315.074C641.865,328.258 639.26,342.431 643.081,355.167C649.352,376.068 655.622,396.969 661.892,417.87C664.923,427.973 667.953,438.075 670.984,448.177C671.547,450.054 674.975,457.497 674.059,459.148C673.551,460.063 669.221,460.989 668.283,461.345C664.254,462.878 660.225,464.411 656.195,465.944C644.969,470.215 633.743,474.486 622.517,478.756C612.42,482.598 602.323,486.439 592.226,490.28C588.802,491.583 584.781,493.995 581.165,493.794C577.93,493.614 574.252,492.013 571.122,491.207C565.619,489.79 560.115,488.372 554.612,486.954C543.802,484.17 532.991,481.386 522.181,478.601C510.019,475.468 499.748,466.267 489.347,459.457C471.469,447.751 453.591,436.045 435.714,424.34C431.621,421.66 431.606,420.131 429.975,415.238C426.31,404.242 422.644,393.246 418.979,382.25C417.022,376.379 414.615,370.483 413.137,364.472C410.699,354.552 409.253,344.283 407.322,334.253C406.74,331.227 406.157,328.2 405.575,325.174C398.088,328.212 390.601,331.251 383.113,334.29C382.028,334.73 376.74,336.043 376.27,337.122C375.972,337.804 377.545,340.899 377.77,341.564C383.978,359.951 390.186,378.337 396.395,396.723C398.348,402.507 400.3,408.29 402.253,414.074C397.587,406.741 392.92,399.407 388.253,392.074C384.587,404.407 380.92,416.741 377.253,429.074C368.587,419.074 359.92,409.074 351.253,399.074C348.253,409.074 345.253,419.074 342.253,429.074C332.92,416.741 323.587,404.407 314.253,392.074C313.144,398.51 312.034,404.946 310.924,411.382C310.589,413.325 310.656,418.898 309.363,420.436C308.298,421.702 305.232,421.074 303.253,421.074" style="fill:rgb(241,39,5);"/>
        <g id="Ink" transform="matrix(1,0,0,1,94.9999,58.9998)">
            <path id="ink-shape" d="M799.187,439.01C798.662,455.764 799.026,477.513 789.857,492.244C788.377,494.621 783.364,502.027 782.804,495.512C782.255,489.116 783.829,482.782 782.27,476.312C781.436,472.85 778.631,465.288 773.836,468.415C771.393,470.009 770.749,473.944 769.793,476.428C768.379,480.103 766.795,483.72 765.306,487.367C760.106,500.098 754.718,515.291 743.159,523.716C744.672,512.738 748.795,501.016 746.023,489.919C745.079,486.137 742.217,479.231 737.29,481.447C732.488,483.606 729.376,493.24 727.11,497.53C720.239,510.537 713.212,523.299 705.477,535.82C701.586,542.118 697.384,547.874 692.293,553.261C689.11,556.631 685.141,562.326 680.124,562.828C680.124,553.225 683.284,543.947 686.169,534.904C689.272,525.18 692.101,515.373 695.147,505.631C697.789,497.18 699.958,488.794 701.717,480.128C702.446,476.544 703.022,472.833 706.077,470.518C708.823,468.438 713.161,467.448 716.223,465.919C724.263,461.902 732.532,457.568 740.001,452.575C743.068,450.525 745.708,447.877 748.919,446.038C752.578,443.943 755.994,442.18 759.379,439.627C773.985,428.61 787.152,415.058 796.024,398.926C797.464,405.407 799.372,411.74 799.583,418.421C799.798,425.271 799.402,432.164 799.187,439.01M678.978,516.019C676.642,512.074 673.083,513.69 669.947,515.592C665.081,518.543 660.202,521.473 655.311,524.387C645.358,530.317 635.589,536.557 625.865,542.853C606.07,555.666 585.585,566.153 564.716,576.999C544.546,587.48 525.173,599.953 506.275,612.561C501.733,615.591 497.223,618.692 492.862,621.978C488.991,624.895 485.895,628.991 481.82,631.588C477.576,634.292 474.659,632.098 470.6,630.104C465.524,627.61 460.234,625.52 455.045,623.271C434.106,614.193 413.107,604.77 392.738,594.466C372.492,584.226 353.309,572.426 333.91,560.707C324.671,555.126 315.59,549.191 306.477,543.405C296.779,537.248 286.738,532.636 276.565,527.401C272.064,525.084 268.077,521.939 263.454,519.833C258.594,517.62 253.46,516.032 249.108,512.839C247.157,511.407 245.511,509.696 243.281,508.683C241.45,507.852 239.372,507.712 237.564,506.829C233.886,505.033 232.833,501.388 232.121,497.597C227.54,473.26 225.105,448.249 222.45,423.641C220.958,409.803 219.293,396.019 217.231,382.254C216.301,376.048 218.171,371.24 219.153,365.203C220.299,358.152 220.752,350.953 221.52,343.854C225.144,350.568 228.278,357.614 232.889,363.741C236.288,368.256 242.094,374.659 248.353,374.508C258.081,374.273 257.636,357.588 258.028,350.965C262.459,354.92 263.803,361.363 267.481,365.957C270.839,370.151 275.409,375.355 280.566,377.233C291.424,381.188 290.379,361.033 289.782,355.317C289.482,352.45 287.863,347.914 291.704,349.221C295.241,350.425 298.683,355.416 301.656,357.705C306.795,361.663 312.432,364.952 317.704,368.73C324.245,373.418 331.303,376.806 337.972,381.172C342.143,383.903 346.693,384.516 351.24,386.524C357.902,389.467 363.787,393.853 370.128,397.381C382.685,404.364 396.615,410.626 410.35,414.836C414.794,416.198 420.716,420.038 424.087,416.092C426.163,413.664 427.527,409.955 429.289,407.233C431.518,403.787 433.885,400.432 436.343,397.145C445.081,385.464 454.778,374.434 465.547,364.582C478.076,353.121 491.776,342.807 506.43,334.217C512.726,330.526 539.016,313.983 544.795,325.626C540.046,325.33 535.93,327.067 531.869,329.242C530.878,329.773 525.767,333.423 526.963,330.206C525.478,330.484 524.176,332.42 523.052,333.281C521.109,334.769 518.162,336.487 515.912,337.719C513.688,338.936 510.94,339.234 508.913,340.71C508.173,341.249 507.724,342.123 507.018,342.706L504.994,342.722C504.691,343.843 504.388,344.963 504.085,346.084C502.941,342.417 501.309,347.186 499.398,348.735C498.249,349.666 496.43,350.625 495.077,351.226C494.066,351.675 493.91,350.631 492.928,351.425C492.056,352.13 491.5,353.683 490.562,354.567C489.411,355.649 487.938,356.49 486.655,357.414C484.197,359.184 481.597,360.574 479.107,362.252C475.757,364.51 474,368.393 470.748,370.754C469.207,371.872 466.814,372.003 465.98,372.719C463.889,374.517 464.578,377.241 460.678,377.361C461.033,377.929 461.246,378.545 461.319,379.21C460.39,379.05 459.564,378.665 458.841,378.054C459.003,381.944 455.178,383.333 452.885,385.728C451.563,387.108 449.916,389.049 448.984,390.71C448.829,390.988 448.533,393.205 448.469,393.235C448.115,393.405 445.96,391.512 446.164,391.67C445.563,395.264 442.085,398.662 440.562,401.989C439.76,403.742 438.945,406.56 437.364,407.793C436.934,408.128 435.611,407.778 434.518,408.943C433.716,409.797 432.791,411.376 432.465,412.509C432.248,413.266 432.509,415.224 432.197,415.678C431.625,416.508 430.735,415.674 429.839,416.288C428.183,417.422 428.141,419.194 425.718,419.427C427.388,423.485 437.472,424.736 441.137,425.89C451.502,429.152 462.376,432.41 472.065,437.406C474.571,438.698 476.942,439.763 477.386,442.74C478.005,446.882 475.894,452.39 475.491,456.574C474.4,467.873 474.177,479.505 474.405,490.852C474.621,501.6 474.969,512.449 475.47,523.184C475.934,533.137 477.941,542.893 479.024,552.776C479.321,555.489 479.123,567.721 483.787,567.105C487.681,566.591 485.222,558.236 485.149,555.841C484.986,550.54 486.102,545.128 486.055,539.78C486.033,537.209 487.157,534.994 487.265,532.534C487.372,530.103 486.164,528.182 486.526,525.662C486.874,523.244 494.022,509.336 487.157,510.965C487.559,508.977 487.911,506.972 488.442,505.013C489.176,505.673 489.768,506.444 490.214,507.324C490.825,503.052 490.621,498.788 491,494.514C491.17,492.577 491.955,490.456 491.687,488.504C491.738,487.695 491.635,486.901 491.379,486.123C490.957,485.676 490.434,485.441 489.813,485.418C489.486,484.349 489.402,484.055 489.982,483.006C490.231,482.295 490.725,481.851 491.464,481.675C492.872,481.508 493.033,480.699 491.946,479.248C492.513,476.384 492.586,474.576 492.177,471.718C491.833,469.317 493.098,464.668 491.809,462.53C490.304,460.031 489.556,462.455 489.276,458.991C489.216,458.258 489.168,456.73 489.463,455.999C489.786,455.203 490.757,455.529 490.881,455.246C491.724,453.321 491.78,449.531 488.797,449.86C488.914,448.485 489.031,447.11 489.147,445.735C491.302,448.216 490.549,446.116 491.771,444.737C493.417,442.879 495.027,442.559 497.38,441.824C503.651,439.868 509.693,436.925 515.821,434.537C528.797,429.48 542.014,424.965 554.61,418.989C581.103,406.418 607.07,392.775 633.725,380.536C631.821,377.002 633.005,376.83 634.397,373.512C636.255,374.802 635.864,373.902 637.186,373.823C637.066,372.716 637.41,372.382 638.218,372.821C638.861,373.018 639.52,373.088 640.196,373.03C641.846,373.313 643.194,374.221 644.694,374.566C645.186,374.929 645.727,375.201 646.317,375.384C646.847,375.263 647.299,375.001 647.673,374.597C650.101,375.047 650.919,376.876 651.026,379.524C651.044,379.985 649.634,380.457 650.038,381.076C650.743,382.158 652.641,381.9 653.727,382.038C653.489,383.162 653.251,384.285 653.014,385.408C657.779,383.209 656.536,390.092 657.981,392.353C658.384,392.984 659.281,392.48 659.748,393.211C660.356,394.165 660.173,395.516 660.692,396.466C661.865,398.615 663.039,398.354 664.208,400.815C670.317,413.664 678.444,425.635 684.308,438.76C687.1,445.007 689.618,451.361 692.533,457.553C695.215,463.252 696.748,468.097 694.836,474.32C690.402,488.757 685.66,503.457 679.849,517.402C679.559,516.941 679.269,516.48 678.978,516.019M369.685,623.781C369.269,624.489 368.853,625.197 368.437,625.906C367.513,620.591 369.975,623.056 369.685,623.781M350.127,613.829C348.794,613.43 349.37,611.253 349.413,610.322C350.256,611.373 351.083,612.444 351.785,613.598C351.232,613.675 350.679,613.752 350.127,613.829M296.524,593.397C297.924,592.612 298.931,592.048 300.518,591.158C298.905,594.302 298.905,594.302 296.524,593.397M212.195,316.46C210.056,321.71 216.578,354.126 210.506,355.184C209.635,352.339 209.526,344.505 205.921,343.57C201.448,342.409 201.889,350.474 201.278,352.968C192.095,346.579 188.016,334.241 183.629,324.463C178.037,312 173.637,299.037 169.435,286.051C165.842,274.948 162.871,263.649 159.24,252.564C156.959,245.602 154.5,238.623 152.966,231.447C152.633,229.888 151.322,225.935 152.436,224.453C154.055,222.298 159.883,224.766 161.761,225.332C173.944,228.998 186.582,230.576 199.099,232.706C213.006,235.071 226.882,237.516 240.873,239.35C244.369,239.808 247.867,240.242 251.367,240.664C253.637,240.938 257.073,240.664 259.229,241.682C263.593,243.741 264.522,251.621 266.143,255.709C272.19,270.961 279.307,285.731 285.674,300.845C291.41,314.46 295.758,328.945 304.003,341.342C297.854,338.616 290.061,324.204 283.19,332.511C280.236,336.083 280.981,340.789 281.217,345.064C281.559,351.244 281.666,357.47 281.666,363.66C274.942,361.913 270.424,354.28 266.894,348.873C262.072,341.488 259.035,334.529 256.9,326.063C255.975,322.397 253.523,322.306 251.344,320.112C249.944,318.702 249.24,316.802 247.232,318.853C244.708,321.431 246.387,328.57 246.823,331.614C247.858,338.857 251.253,350.004 247.953,356.81C243.499,365.995 231.564,342.884 230.166,339.546C229.455,337.847 216.757,305.262 212.195,316.46M203.857,159.05C204.609,159.165 205.36,159.28 206.112,159.395C205.506,159.93 204.245,161.806 203.215,161.31C203.429,160.557 203.643,159.804 203.857,159.05M243.687,150.503C243.452,150.762 243.215,151.02 242.979,151.279C241.901,149.931 242.283,147.966 242.283,146.407C243.708,147.268 244.056,148.99 243.687,150.503M246.906,165.459L246.906,169.865C243.92,168.571 243.861,167.903 246.906,165.459M250.532,171.061C248.44,170.487 248.19,170.024 248.484,166.809C249.351,168.61 249.922,169.797 250.532,171.061M262.574,203.691C261.697,205.947 256.572,200.571 256.76,198.962C256.939,197.427 257.726,196.969 258.812,197.956C259.171,198.283 258.638,199.464 258.867,199.874C259.694,201.358 261.361,202.572 262.574,203.691M262.631,217.283C261.347,220.489 259.058,215.44 262.413,215.302C262.633,215.947 262.706,216.607 262.631,217.283M260.14,212.228C259.643,211.565 259.16,210.893 258.691,210.209C260.419,210.558 261.791,213.076 263.614,211.396C263.398,213.958 261.578,214.029 260.14,212.228M148.395,170.584C145.616,167.551 163.737,165.422 165.923,164.901C181.787,161.118 196.765,155.644 211.598,148.927C218.674,145.723 225.714,142.48 232.624,138.928C235.608,137.395 239.698,136.095 242.19,133.793C243.969,132.15 243.898,130.907 246.21,129.928C248.173,129.099 248.271,129.882 249.17,128.382C249.71,127.482 250.321,124.184 250.005,123.208C249.144,120.545 247.871,122.704 246.084,120.869C244.797,119.546 245.109,115.784 245.46,114.226C245.916,114.968 246.178,115.774 246.248,116.642C248.187,115.686 247.405,112.403 249.526,111.865C251.761,111.299 251.53,113.04 252.113,114.82C253.802,112.34 252.448,110.225 251.534,107.803C256.181,106.933 261.174,106.09 265.78,107.636C269.111,108.753 271.962,111.5 275.479,112.031C278.923,112.55 279.585,110.917 282.124,109.26C284.185,107.915 285.955,109.499 287.016,108.483C286.362,111.913 280.739,111.444 281.431,115.73C281.743,117.659 284.107,119.392 285.183,120.893C286.534,122.777 287.611,124.86 288.531,126.983C292.11,135.241 293.64,144.824 295.142,153.655C298.848,175.453 299.317,197.681 302.803,219.549C304.464,229.965 306.129,240.387 306.992,250.905C307.208,253.535 308.814,259.5 307.5,262.03C306.389,264.166 303.917,264.172 301.747,264.689C297.501,265.698 293.514,267.069 289.441,268.588C285.79,269.949 284.729,270.784 282.385,267.349C280.118,264.025 278.997,260.063 277.375,256.419C275.309,251.776 272.813,247.296 270.417,242.817C275.124,242.817 277.833,240.276 277.708,235.493C277.572,230.195 273.215,228.938 271.419,224.584C269.672,226.853 269.525,226.917 268.28,224.763C266.856,222.3 265.895,217.793 265.024,214.999C265.647,215.664 266.27,216.329 266.893,216.993C268.464,214.831 266.003,211.423 265.18,209.387C263.91,206.243 263.686,202.844 262.481,199.709C261.824,197.998 260.302,196.651 259.929,194.866C259.68,193.671 260.678,192.534 260.441,191.321C260.029,189.209 257.64,186.943 256.897,184.795C255.754,181.491 254.513,178.582 253.095,175.363C251.176,171.006 251.622,166.434 251.271,161.797C250.907,156.989 249.367,152.389 248.823,147.602C248.447,144.295 249.624,140.131 247.122,137.482C246.829,141.885 248.091,141.817 243.954,142.609C239.244,143.51 235.828,147.019 231.375,148.066C230.457,148.282 229.788,144.272 230.146,149.742C228.01,148.165 223.451,150.123 225.152,151.059C223.863,152.438 221.324,151.484 220.9,153.55C216.519,149.291 209.494,163.788 204.277,156.226C203.416,161.351 199.705,164.381 194.723,165.059C192.218,165.399 190.674,166.234 188.451,166.985C188,167.136 187.834,167.785 187.3,167.96C186.484,168.226 185.286,167.423 184.698,167.579C183.501,167.897 182.17,169.472 180.499,169.785C178.583,170.144 176.493,169.979 174.575,169.757C172.177,169.479 171.122,169.195 168.774,169.985C166.662,170.696 164.4,172.687 162.44,170.519C159.361,175.846 152.02,174.544 148.395,170.584M290.739,106.301C288.409,106.022 290.027,104.018 291.106,103.416C294.038,101.782 293.255,106.603 290.739,106.301M161.719,125.417C175.395,105.687 198.787,92.131 219.369,80.725C230.611,74.495 242.086,68.456 253.89,63.357C259.759,60.823 265.696,58.387 271.689,56.161C274.889,54.972 278.128,53.891 281.369,52.815C282.265,52.518 283.895,51.606 284.833,51.695C284.671,51.679 287.164,52.357 286.674,52.57C288.28,51.871 289.044,50.048 290.932,49.319C293.054,48.499 295.757,48.16 298.03,48.086C300.041,48.02 301.782,48.851 303.698,48.916C304.957,48.958 306.027,48.36 307.26,48.272C307.891,48.228 307.835,49.172 308.215,49.227C308.38,49.251 310.06,48.62 310.076,48.631C310.688,49.024 311.23,50.558 311.783,51.157C313.369,52.875 315.697,54.072 317.812,54.976C320.386,56.076 326.665,57.182 323.755,61.252C325.822,60.955 326.784,62.823 324.196,63.296C322.794,63.553 322.195,62.269 321.154,61.393C318.749,59.373 312.911,56.497 309.447,56.627C307.498,56.7 305.992,58.179 304.195,58.716C302.426,59.244 301.55,58.425 299.998,58.555C298.184,58.706 297.016,60.241 295.287,60.514C293.668,60.77 292.766,59.666 291.319,59.743C289.599,59.834 287.933,61.328 286.291,61.83C283.679,62.628 281.761,63.172 279.211,64.495C274.269,67.06 268.75,68.034 263.657,70.242C259.585,72.007 254.968,72.936 251.2,74.888C247.01,77.057 242.801,79.218 238.698,81.575C235.734,83.278 229.708,83.864 226.44,83.431C226.393,89.449 223.431,85.23 220.446,87.866C221.152,88.489 221.954,88.947 222.849,89.24C219.614,90.532 216.624,92.14 213.49,93.625C210.251,95.161 206.795,95.499 204.667,98.404C202.707,101.081 203.371,99.7 200.446,100.754C199.104,101.238 197.937,102.714 196.97,103.705C195.308,105.409 194.94,107.989 193.991,104.487C193.714,104.914 192.624,107.633 192.412,107.702C191.223,106.44 191.052,107.936 190.387,108.471C190.737,109.634 190.237,110.396 188.887,110.757C188.204,111.265 187.512,111.763 186.813,112.25C184.277,114.009 181.049,115.518 179.263,118.139C177.946,117.362 177.458,116.021 178.26,114.652C175.743,116.972 172.74,119.355 172.059,122.926C171.746,122.624 171.381,122.406 170.967,122.272C169.945,122.962 171.276,125.018 171.924,125.481C174.75,124.383 171.218,124.781 173.117,124.958C173.658,125.008 174.214,125.413 174.811,125.42C176.562,125.443 178.207,125.359 179.943,125.092C183.771,124.502 187.533,123.403 191.239,122.301C195.275,121.101 199.312,119.903 203.259,118.431C206.509,117.219 209.705,115.868 212.9,114.522C214.176,113.984 215.451,113.439 216.729,112.905C219.156,111.891 220.436,110.225 220.097,113.079C222.03,112.758 223.705,110.026 225.189,108.911C227.277,107.344 229.625,106.175 232.099,105.375C233.101,105.051 233.837,104.639 234.873,104.636C235.381,104.635 235.685,106.067 236.005,105.989C238.225,105.451 237.213,104.221 238.211,102.449C240.394,98.576 246.274,96.434 249.885,94.234C252.177,92.837 253.804,90.958 255.92,89.411C256.91,88.688 257.629,88.368 258.666,88.062C259.46,87.827 260.434,89.651 260.949,87.818C259.102,87.063 257.579,86.132 255.802,85.581C254.545,85.19 256.053,83.853 254.061,84.649C253.261,84.969 252.986,86.517 252.692,87.165C250.467,85.178 244.211,87.237 241.571,88.069C241.389,88.126 240.574,87.696 240.19,87.722C238.666,87.824 237.605,89.875 236.602,90.759C233.935,93.108 231.042,94.09 227.758,95.431C228.632,90.656 235.055,88.7 238.804,86.871C244.284,84.197 249.386,80.784 255.386,79.346C259.382,78.387 264.677,77.616 266.403,82.262C267.436,85.047 267.566,91.966 264.071,93.251C263.702,91.951 264.884,90.84 265.24,89.712C261.761,91.04 261.188,95.219 258.546,97.4C257.061,98.625 256.53,99.018 255.812,100.202C255.099,101.378 254.757,102.475 253.086,103.726C250.355,97.925 250.817,105.871 249.432,106.868C249.989,106.467 247.175,107.638 247.511,107.514C247.381,107.562 246.155,105.576 245.36,105.618C243.913,105.694 244.191,107.287 243.494,108.089C241.131,110.803 238.078,112.583 234.275,112.156C234.186,114.087 234.782,116.394 232.145,116.57L231.799,112.289C230.364,113.741 228.475,115.12 227.307,116.801C225.978,118.714 226.12,119.892 223.915,121.167C221.611,122.5 216.709,125.126 213.967,125.353C214.645,124.391 214.525,123.522 213.609,122.748C212.23,124.17 210.194,124.31 208.726,125.594C213.822,127.723 204.811,127.613 203.668,127.854C202.903,128.016 202.235,128.713 201.46,128.87C200.431,129.079 200.298,127.997 199.412,128.34C198.116,128.842 198.642,130.259 197.286,130.971C196.312,131.483 194.66,131.476 193.561,131.962C190.942,133.122 185.363,135.691 183.593,132.575C182.696,137.921 173.535,134.667 170.144,134.307C165.5,133.814 157.411,131.634 161.719,125.417M181.225,70.719C181.882,70.158 182.54,70.199 183.198,70.843C182.282,66.005 189.367,63.656 192.458,61.599C196.558,58.871 201.384,53.578 206.749,53.997C205.834,54.675 204.921,55.353 204.007,56.031C205.312,56.2 206.616,56.369 207.919,56.538C207.184,57.618 206.448,58.697 205.711,59.776C204.507,53.14 198.225,61.518 196.407,62.739C194.576,63.968 192.75,64.884 191.123,66.383C189.511,67.868 188.056,70.542 185.391,69.206C185.148,72.996 182.101,71.968 179.994,74.067C179.906,72.75 180.66,71.819 181.225,70.719M209.059,51.8C215.544,49.371 221.19,44.88 227.301,41.672C233.138,38.607 239.093,35.855 245.027,32.996C248.037,31.545 253.551,27.793 256.992,29.705C261.635,32.287 255.243,33.12 253.583,34.014C252.969,30.038 250.818,33.64 252.103,35.852C248.56,34.322 240.833,40.308 237.453,41.959C236.688,42.333 237.031,42.549 236.161,42.989C235.947,43.097 233.729,43.602 233.094,43.815C229.912,44.88 227.815,44.034 226.444,47.875C226.157,46.971 225.87,46.066 225.583,45.161C223.591,49.634 217.536,51.592 213.664,54.237C212.666,54.919 209.816,57.564 208.55,57.017C206.788,56.255 207.495,52.385 209.059,51.8M326.046,65.286C328.784,65.467 326.144,66.744 326.896,67.588C326.811,67.493 328.545,68.972 328.318,68.566C328.624,69.112 329.359,69.092 329.735,70.202C331.03,74.019 325.375,77.963 323.468,80.129C319.76,84.342 317.617,89.677 313.753,93.755C312.008,95.597 310.272,96.869 307.853,97.556C306.16,98.037 304.369,97.522 302.813,99.15C301.56,100.461 301.844,101.206 300.459,101.903C298.019,103.132 296.944,102.054 294.57,104.71C292.527,99.156 298.397,99.165 301.46,96.061C305.688,91.776 310.321,87.453 314.286,82.869C317.808,78.796 319.219,75.225 320.891,70.277C321.418,68.717 321.992,65.372 323.445,64.393C325.708,62.869 324.35,65.173 326.046,65.286M339.51,209.566C346.691,201.534 355.599,194.322 365.255,189.484C368.706,187.754 373.619,185.484 377.196,188.147C380.704,190.757 379.949,195.964 378.535,199.506C377.18,198.974 378.459,193.996 377.756,192.766C376.222,190.082 372.912,191.507 370.66,192.407C368.022,193.461 365.668,194.625 363.579,196.538C362.731,197.313 361.108,198.008 360.565,198.541C359.749,198.202 359.268,198.449 359.124,199.281C359.292,199.791 359.272,200.293 359.063,200.787C358.944,200.944 357.883,200.3 357.732,200.429C357.044,201.018 356.4,201.711 355.723,202.258C354.364,203.357 353.208,203.877 351.957,205.409C349.541,208.37 346.345,210.105 343.918,212.926C343.37,213.564 342.713,215.199 342.59,215.342C341.363,216.774 339.544,217.907 338.16,219.423C335.767,222.042 333.212,223.8 330.451,226.046C329.262,227.012 327.875,228.053 327.084,229.397C326.724,230.01 326.521,233.37 326.508,233.384C323.8,236.352 324.327,230.386 324.531,229.638C326.73,221.589 334.165,215.546 339.51,209.566M324.729,263.993C325.066,265.257 325.343,266.302 325.685,267.585C323.538,265.824 323.538,265.824 324.729,263.993M322.41,268.133C321.621,268.928 320.828,269.718 320.029,270.503C318.272,268.646 322.732,267.815 322.41,268.133M321.295,236.171C320.455,239.569 317.38,243.688 315.266,246.37C315.499,246.074 313.462,246.669 313.23,246.804C312.477,247.24 314.28,250.066 311.671,248.803C310.745,249.327 312.568,251.461 311.31,252.416C307.674,244.131 317.602,236.953 321.446,230.803C323.326,232.529 321.767,234.266 321.295,236.171M297.678,280.965C300.329,281.647 301.708,281.218 303.498,278.614C304.574,277.05 304.967,274.28 307.428,276.62L307.862,273.611C311.375,275.052 311.08,280.26 312.615,283.146C313.362,279.881 315.131,270.76 320.548,272.223C326.629,273.866 316.508,284.324 315.568,286.886C313.501,283.678 314.314,286.662 312.737,287.114C311.384,287.503 309.27,286.507 307.626,286.597C302.624,286.869 298.23,289.119 293.661,291.024C292.504,287.905 291.348,284.786 290.191,281.667C292.881,281.874 298.443,274.714 299.233,279.918C297.238,279.571 296.676,279.659 295.704,281.475C296.325,281.16 296.983,280.99 297.678,280.965M308.906,321.676C308.898,321.651 314.08,321.971 314.542,321.802C318.088,320.507 316.777,316.485 317.502,313.642C318.964,314.986 318.189,317.439 318.64,319.178C319.169,321.222 320.701,322.964 320.843,325.15C321.166,330.089 317.113,328.993 314.041,330.591C311.416,331.957 311.125,333.675 308.908,329.994C308.308,328.998 307.018,326.403 307.15,325.129C307.28,323.867 309.279,322.818 308.906,321.676M313.082,343.048L311.649,341.443C315.919,342.75 313.401,340.785 314.383,338.098C317.66,340.28 320.333,342.523 322.926,338.154L327.406,356.224C324.397,356.932 320.515,352.283 318.451,350.686C317.259,349.763 310.644,346.208 314.616,345.172C314.104,344.464 313.593,343.756 313.082,343.048M342.326,286.306C339.839,288.671 337.334,289.995 334.626,291.854C332.251,293.486 333.069,295.359 331.01,297.179C329.643,298.389 326.438,299.621 324.749,300.544C321.74,302.188 319.045,302.501 315.95,300.661C316.792,307.442 312.148,307.973 306.367,309.316C303.61,309.957 301.978,310.936 299.991,308.411C298.63,306.683 298.097,303.554 299.79,301.973C302.479,299.461 309.643,300.328 313.093,298.748C315.711,297.55 318.378,290.799 321.608,293.256C319.941,290.601 321.882,289.886 323.331,287.993C324.918,285.918 325.893,283.492 327.535,281.434C330.655,277.522 335.445,273.587 339.876,271.228C343.775,269.153 345.822,270.622 346.406,274.98C346.7,277.171 346.689,280.435 345.462,282.379C345.071,282.999 343.78,283.006 343.389,283.588C342.708,284.605 343.333,285.348 342.326,286.306M388.079,233.713C391.19,236.121 390.887,241.181 391.377,244.627C392.068,249.484 391.567,254.184 391.493,259.131C391.415,264.314 388.872,267.69 387.675,272.548C386.345,277.952 384.628,280.814 381.644,285.349C384.88,285.858 380.064,295.522 379.27,296.773C378.408,298.131 371.457,304.389 374.437,304.389C372.793,306.557 371.003,308.782 369.365,310.89C368.72,311.72 367.589,312.046 367.081,312.632C366.046,313.823 365.983,314.885 365.242,316.275C364.117,318.384 363.747,317.821 362.268,319.351C361.247,320.408 360.577,321.803 359.574,322.816C356.342,326.079 355.93,323.406 354.123,320.893C353.846,321.566 353.354,321.988 352.647,322.159C352.081,319.315 355.977,316.442 357.615,314.714C360.298,311.882 362.75,308.762 365.122,305.665C370.202,299.029 374.767,291.979 378.369,284.427C382.201,276.39 385.262,267.692 386.852,258.924C388.064,252.241 389.216,240.777 380.286,239.077C373.791,237.841 366.631,241.787 361.277,244.982C358.014,246.928 354.733,248.863 351.625,251.052C348.251,253.426 345.335,256.786 341.673,258.691C343.676,257.649 337.067,260.785 338.079,259.903C337.605,260.315 338.014,261.574 337.701,262.142C337.293,262.881 335.875,263.611 335.239,264.089C333.559,265.351 330.875,266.642 330.111,268.726C319.455,261.124 340.646,247.628 346.078,244.191C356.853,237.374 375.602,224.054 388.079,233.713M416.823,159.78C416.721,154.306 421.179,146.833 424.19,142.369C425.663,140.184 428.016,140.271 428.879,137.694C429.377,136.21 428.724,134.654 428.872,133.164C429.072,131.149 429.946,129.533 430.954,127.801C440.067,112.144 451.139,98.286 462.932,84.626C468.747,77.892 474.26,70.899 480.531,64.573C483.151,61.931 490.192,52.433 494.22,53.383C496.353,53.886 497.594,57.141 498.557,58.802C500.149,61.549 501.9,64.122 503.835,66.648C508.942,73.317 514.833,79.171 521.79,83.898C526.134,86.852 530.523,89.723 534.771,92.818C538.268,95.365 543.555,98.277 546.052,101.853C548.55,105.43 544.882,108.459 542.877,111.429C539.761,116.048 536.895,120.834 533.766,125.448C532.523,124.554 532.844,122.738 531.992,121.593C531.236,120.578 530.167,120.165 529.123,119.538C527.122,118.339 525.158,116.873 523.351,118.882C520.188,122.398 524.537,130.709 529.225,129.797C529.777,133.267 520.416,138.982 518.07,140.892C510.87,146.75 503.443,151.843 493.932,152.373C490.083,152.587 486.078,152.295 482.421,151.007C480.669,150.39 478.732,149.543 477.389,148.198C475.781,146.588 475.371,144.192 473.811,142.598C472.458,141.215 470.6,141.002 469.248,139.614C467.894,138.225 467.225,136.031 466.676,134.232C465.602,130.717 465.399,127.01 464.367,123.487C463.746,121.368 463.236,118.535 461.211,120.571C458.27,123.529 459.747,132.83 460.5,136.374C461.577,141.43 464.102,145.506 466.747,149.856C469.615,154.575 470.674,158.952 471.188,164.412C472.15,174.633 475.083,184.441 479.647,193.637C481.568,197.509 483.869,201.15 485.943,204.933C486.912,206.698 489.083,212.72 491.718,212.688C495.928,212.636 489.931,200.359 489.099,198.298C484.487,186.883 480.082,174.885 479.094,162.525C485.705,164.228 492.911,165.844 499.757,164.765C495.338,174.647 499.954,184.486 499.389,194.658C499.107,199.759 498.903,204.465 499.008,209.551C499.101,214.011 497.087,218.469 495.346,222.502C491.888,230.511 487.535,240.391 481.113,246.526C475.744,251.655 468.562,252.056 461.547,250.875C445.589,248.187 435.104,235.92 428.407,221.988C424.104,213.038 420.815,203.484 418.773,193.764C416.409,182.515 417.033,171.19 416.823,159.78M437.547,83.969C422.655,73.194 444.295,60.958 455.31,62.624C457.894,63.014 462.648,64.082 462.406,67.454C462.208,70.21 457.611,73.282 455.846,74.983C450.813,79.837 445.691,89.86 437.547,83.969M545.881,323.386C545.37,322.928 541.202,324.052 542.853,321.586C544.225,319.537 548.029,322.105 549.411,322.632C548.272,323.419 547.281,324.638 545.881,323.386M483.872,453.705C482.592,453.863 481.254,450.411 485.868,452.99C485.203,453.228 484.537,453.467 483.872,453.705M483.74,509.966C483.899,511.513 484.372,512.533 483.273,513.658C482.344,512.513 482.224,510.898 483.74,509.966M485.613,533.212C485.477,534.054 485.341,534.896 485.207,535.737C484.141,535.198 483.077,534.659 482.011,534.119C483.211,533.817 484.413,533.515 485.613,533.212M486.917,513.61C488.505,514.204 487.766,512.305 488.919,512.038C489.332,514.015 488.823,515.708 487.688,517.339C487.58,516.953 486.998,513.639 486.917,513.61M527.501,373.335C525.273,373.051 524.936,375.405 523.275,376.318C522.203,376.908 518.939,376.465 518.33,377.594C519.134,377.826 519.939,378.059 520.743,378.291C518.902,379.283 517.061,380.276 515.22,381.268C519.648,381.268 524.262,379.153 528.66,379.774C530.519,380.037 531.882,380.665 533.048,382.177C533.756,383.095 534.378,384.572 534.492,385.696C534.615,386.912 533.667,387.752 533.835,388.332C535.817,388.386 535.583,391.637 535.138,392.962C534.173,395.835 530.34,400.334 526.905,398.512C528.342,400.551 527.976,401.715 525.851,402.898C526.044,402.224 526.186,401.045 525.1,401.162C524.821,402.292 524.928,404.084 524.005,404.936C522.972,405.889 522.05,404.775 521.062,405.395C519.891,406.131 520.243,407.286 519.322,408.084C518.104,409.138 517.93,408.389 516.474,408.594C514.269,408.906 515.676,407.536 513.91,409.322C513.299,409.938 513.402,411.541 512.412,412.443C510.51,414.174 505.435,415.978 503.613,413.758C499.232,420.701 486.101,422.367 479.989,416.886C470.241,408.145 488.417,390.368 494.418,384.734C500.441,379.08 507.131,374.196 513.9,369.482C517.746,366.804 521.693,364.373 525.723,361.987C528.209,360.514 531.331,357.825 534.386,358.083C537.126,358.315 539.467,360.441 542.352,360.862C544.438,361.166 548.491,361.668 545.859,364.498C544.628,365.82 539.794,367.958 538.148,368.28C537.181,368.469 536.162,368.107 535.204,368.303C533.582,368.636 532.468,370.005 530.703,369.831C531.262,372.45 530.242,373.683 527.501,373.335M556.35,276.105C556.351,278.154 552.611,277.643 551.83,276.947C550.544,275.802 550.499,272.378 550.022,270.821C552.196,271.368 556.348,273.37 556.35,276.105M526.222,208.507C534.078,202.05 542.338,196.13 551.07,190.916C554.197,189.049 558.612,185.283 562.496,185.753C564.125,185.951 567.493,187.822 566.266,189.885C566.037,190.271 564.224,190.426 563.664,190.706C563.029,191.023 562.531,191.897 561.942,192.329C557.862,195.322 552.96,197.161 548.867,200.226C545.503,202.743 542.366,205.559 538.745,207.719C535.271,209.79 531.641,211.101 528.343,213.395C528.408,213.349 524.053,214.915 524.907,215.2C521.084,213.921 525.122,209.412 526.222,208.507M578.6,206.102C583.267,204.242 587.833,201.985 592.719,200.735C595.157,200.111 597.66,199.642 600.184,199.923C600.613,199.172 601.184,199.006 601.898,199.425C602.455,200.281 603.189,200.938 604.101,201.397C605.493,202.467 610.618,203.866 609.594,206.229C608.917,207.792 603.778,207.922 602.368,208.273C598.117,209.332 594.153,211.714 589.774,212.299C589.363,212.354 588.021,211.856 588.006,211.859C586.297,212.232 584.875,214.005 583.407,214.855C580.247,216.684 575.707,216.991 573.438,220.148C580.786,225.129 587.161,220.189 593.621,216.428C597.491,214.176 601.645,212.551 605.874,211.107C608.084,210.353 610.314,209.569 612.554,208.907C613.481,208.569 614.434,208.326 615.412,208.177C616.322,207.996 616.973,208.327 617.366,209.171C620.074,209.081 620.306,207.382 621.936,210.551C624.234,215.019 620.718,214.792 617.414,215.341C612.832,216.101 608.172,217.813 603.657,218.948C602.616,219.21 593.485,221.327 593.474,221.402C593.06,224.284 619.266,221.615 621.516,221.183C625.486,220.419 629.744,218.25 633.854,218.773C637.01,219.174 644.199,223.804 639.165,226.88C638.174,222.136 634.772,226.054 632.996,227.655C630.63,229.786 627.24,229.581 623.995,230.416C619.557,231.556 608.196,235.834 605.044,230.38C606.041,235.16 587.931,232.731 585.441,232.573C583.014,232.418 579.881,232.934 577.535,232.242C576.005,231.791 575.154,230.796 573.714,230.572C573.361,230.952 572.938,231.211 572.446,231.348C571.716,230.979 571.057,230.509 570.469,229.94C565.619,227.711 558.115,226.479 560.81,219.378C563.352,212.681 572.435,208.56 578.6,206.102M624.059,210.241C624.18,209.824 624.301,209.407 624.421,208.989C624.436,210.268 627.486,210.814 627.134,212.471C626.353,216.14 622.833,210.627 622.531,210.026C623.041,210.098 623.549,210.169 624.059,210.241M642.681,216.337C643.034,217.84 647.09,221.04 646.085,221.778C644.486,219.604 640.066,220.591 642.681,216.337M574.264,353.477C575.749,350.532 580.238,355.547 579.764,350.519C582.205,350.74 580.681,352.597 583.606,351.781C584.702,351.475 585.443,350.26 586.779,349.98C587.135,349.905 588.674,350.027 589.205,350.011C590.964,349.957 597.858,349.761 593.113,347.454C595.769,345.698 596.096,346.589 598.493,348.198C597.878,344.872 601.405,346.76 603.047,347.175C601.876,345.278 604.782,343.26 605.725,341.978C605.387,343.953 605.565,346.164 608.423,344.901C609.135,344.587 608.975,343.191 609.54,342.963C610.574,342.546 611.152,343.305 611.523,343.262C611.888,343.221 612.657,343.426 613.424,343.137C614.421,342.762 613.94,341.424 615.204,341.225C616.027,341.096 616.628,342.306 617.633,342.316C618.149,342.321 619.01,341.797 619.402,341.825C619.471,341.83 619.962,340.646 620.565,340.617C621.447,340.574 621.806,342.937 622.128,343.396C623.672,345.586 625.725,347.014 628.093,348.182C623.809,352.11 615.167,351.694 609.78,353.018C606.862,353.736 604.373,354.771 601.703,356.105C601.059,356.524 600.504,357.038 600.04,357.647C599.662,357.396 599.283,357.145 598.905,356.894C597.442,356.984 596.058,356.26 594.411,356.538C589.324,357.396 585.341,361.207 580.171,362.056C577.848,362.438 575.939,362.971 574.426,360.957C573.098,359.191 573.318,355.355 574.264,353.477M567.289,330.004C568.442,330.979 567.055,334.153 569.287,333.808C570.871,333.563 570.555,331.106 571.799,330.585C573.433,329.902 574.419,331.523 575.955,331.373C578.818,331.091 578.654,328.591 576.235,327.493C578.75,326.829 579.556,329.803 581.783,329.776C584.708,329.741 584.01,326.29 586.499,325.718C587.577,325.47 587.217,327.053 587.916,327.25C589.316,327.643 590.291,326.968 591.529,326.374C592.637,325.843 593.426,324.817 594.637,324.469C595.188,324.31 596.588,324.601 596.992,324.306C597.807,323.712 598.537,321.398 599.339,321.092C599.175,321.154 601.805,322.472 602.182,322.596C601.951,323.573 601.416,323.689 600.576,322.945C600.576,325.15 606.704,325.837 605.447,323.112C608.761,324.484 606.293,325.19 605.962,327.105C605.83,327.875 605.382,327.854 605.515,328.668C605.576,329.043 607.313,328.72 607.292,329.231C607.145,332.522 596.656,333.534 594.669,333.824C590.555,334.425 586.662,335.436 582.696,336.681C579.743,337.608 574.653,340.263 571.511,340.098C566.992,339.861 566.403,333.965 567.289,330.004M557.192,296.422C556.09,292.761 559.625,285.199 564.229,286.144C565.361,286.376 565.64,287.314 566.518,287.73C567.744,288.312 569.738,288.006 570.801,288.607C573.184,289.956 571.983,293.393 574.371,294.635C570.601,295.549 558.943,302.241 557.192,296.422M561.555,310.646C563.179,309.773 565.812,309.661 566.919,307.982C567.471,308.364 568.514,310.683 569.503,310.328C569.965,310.163 570.442,308.906 570.409,308.907C571.29,308.882 571.465,307.689 572.812,307.823C574.048,307.947 575.432,309.433 576.533,309.987C576.344,306.303 577.288,305.951 580.275,303.979C580.93,303.547 581.477,301.925 582.081,301.269C581.503,305.135 582.96,305.156 586.047,305.737C589.917,306.465 592.328,308.543 593.879,312.282C590.581,311.639 586.327,312.413 585.027,315.958C582.395,311.149 572.829,317.785 569.734,319.144C567.437,320.153 564.765,321.509 562.839,319.158C561.483,317.502 562.26,315.51 562.289,314.039C562.297,313.577 562.774,313.55 562.73,312.862C562.674,311.984 561.531,311.633 561.555,310.646M596.765,386.267C595.894,386.597 591.411,386.782 591.382,385.297C591.358,383.985 599.294,385.307 596.765,386.267M589.483,381.463C586.091,383.554 582.296,376.186 581.049,374.064C584.607,374.519 586.344,371.543 588.44,369.281C590.434,373.65 593.462,371.341 596.647,369.882C600.403,368.161 604.519,368.148 608.367,366.767C609.568,366.336 610.675,365.695 611.847,365.202C612.791,364.849 613.732,364.487 614.669,364.116C615.334,363.516 615.571,362.777 615.377,361.901C615.062,361.165 615.277,360.7 616.022,360.508C616.908,360.772 617.812,360.926 618.736,360.967C620.219,360.673 622.35,359.274 620.56,357.766C622.478,356.024 624.399,357.756 626.246,358.519C625.807,357.268 625.37,356.017 624.931,354.766C625.847,355.155 628.567,358.955 628.844,358.934C630.602,358.802 630.419,356.443 631.429,355.491C632.012,356.21 632.179,361.571 634.471,359.765C635.451,358.993 633.341,356.363 632.821,355.764C635.443,356.356 637.732,359.486 638.441,361.916C637.196,362.096 636.045,361.846 634.988,361.164C634.312,364.548 640.576,363.177 641.59,364.945C643.576,368.406 630.658,370.81 628.975,371.131C625.607,371.773 621.632,372.012 618.545,373.505C615.587,374.934 614.887,375.343 611.431,375.611C607.486,375.917 603.637,377.217 599.821,378.229C596.508,379.107 592.42,379.653 589.483,381.463M661.583,257.572C664.698,256.451 675.19,250.634 677.861,253.221C677.579,252.947 679.787,257.509 679.764,257.222C679.954,259.595 679.896,260.55 676.975,261.687C674.883,262.501 673.061,260.771 671.179,261.458C669.112,262.213 670.558,263.549 669.494,264.482C668.328,265.505 666.08,265.947 664.629,266.395C661.077,267.492 657.497,268.409 653.962,269.591C646.769,271.996 639.152,274.234 631.76,275.935C626.236,277.206 616.86,280.365 611.77,276.634C611.273,278.755 610.059,278.465 608.373,278.774C607.05,279.016 604.658,279.671 603.482,279.705C601.525,279.762 596.084,279.249 596.833,276.504C596.627,277.26 601.065,274.672 600.297,274.511C602.182,274.908 601.571,273.959 603.115,273.431C605.132,272.742 607.24,272.779 609.299,272.049C614.49,270.209 618.844,267.821 624.323,266.668C636.838,264.035 649.509,261.917 661.583,257.572M159.886,541.164C158.872,541.191 158.083,538.31 161.168,540.367C160.741,540.633 160.314,540.898 159.886,541.164M135.516,537.436C134.137,537.789 133.587,537.019 133.868,535.128C135.791,534.368 136.34,535.137 135.516,537.436M116.702,533.577C116.349,531.891 117.599,531.511 118.732,530.754C118.618,532.988 118.618,532.988 116.702,533.577M69.364,519.703C67.457,519.284 64.916,517.419 64.479,520.55C64.16,519.825 62.532,516.415 63.231,515.626C63.596,515.213 64.978,517.123 64.831,516.934C66.5,513.558 69.377,517.632 70.985,518.837C70.445,519.126 69.904,519.415 69.364,519.703M565.18,146.607C565.838,145.215 566.615,144.773 567.507,145.282C566.105,148.538 561.357,150.303 565.18,146.607M598.17,116.043C599.346,118.248 597.577,119.18 596.314,121.013C597.053,119.036 597.565,117.666 598.17,116.043M741.549,331.287C745.791,331.286 754.827,329.047 757.385,333.896C759.078,330.601 761.002,336.78 762.471,337.771C762.636,337.883 763.694,337.074 764.186,337.372C764.928,337.821 765.568,339.044 765.993,339.771C767.274,341.963 767.825,344.569 768.535,346.981C761.126,346.981 753.529,345.256 746.126,344.629C741.267,344.217 736.503,344.205 731.637,344.467C730.67,344.519 728.75,344.2 727.923,344.382C727.083,344.567 725.56,346.278 724.634,346.003C726.073,348.704 744.502,355.243 745.908,352.252C744.242,351.244 740.542,350.47 740.545,348.034C740.548,345.305 744.016,345.31 745.854,345.39C749.874,345.566 756.606,346.904 758.254,351.084C758.96,352.876 759.177,357.388 758.401,359.118C757.9,360.235 757.052,361.578 755.708,361.805C755.157,361.898 754.363,361.165 754.279,361.183C751.521,361.768 746.416,363.983 743.408,360.86C741.239,363.667 730.791,360.601 727.592,359.542C721.998,357.69 714.295,355.147 710.897,349.927C706.755,343.565 715.176,338.188 720.011,335.602C726.62,332.068 734.171,331.29 741.549,331.287M769.78,345.997C771.081,346.364 772.381,346.732 773.681,347.099C773.333,349.379 768.203,347.575 769.78,345.997M809.089,428.874C809.489,419.739 806.848,411.694 805.323,402.859C804.945,400.669 805.331,396.84 803.667,395.039C802.078,393.317 798.531,394.717 798.39,391.673C796.825,393.506 796.983,393.889 795.054,391.781C795.406,392.685 795.457,393.604 795.207,394.54C794.01,393.854 789.672,391.576 790.037,394.691C786.47,393.902 787.503,391.671 785.468,389.968C785.179,389.726 784.018,390.585 783.565,390.219C782.747,389.556 782.342,388.954 781.652,388.1C780.775,389.16 779.581,389.926 778.509,390.764C777.886,389.407 776.673,388.411 775.215,388.081C776.578,390.933 779.948,394.627 775.326,396.25C772.567,397.218 768.048,396.031 765.126,396.257C754.296,397.097 742.434,394.736 731.963,392.156C721.206,389.506 710.328,385.765 700.654,380.297C698.592,379.131 697.293,377.751 695.517,376.305C693.791,374.899 692.536,374.677 690.461,373.778C686.726,372.16 683.31,369.565 680.469,366.673C674.36,360.454 668.684,352.321 670.385,343.216C672.081,334.141 678.319,327.049 684.994,321.073C692.877,314.015 701.778,308.122 711.224,303.371C715.448,301.248 726.252,293.27 730.425,297.938C733.092,300.92 731.592,304.725 727.948,305.388C727.049,305.552 726.11,304.949 725.201,305.362C723.891,305.958 724.352,306.662 723.811,307.159C722.872,308.022 721.874,309.368 720.471,310.116C715.574,312.727 710.84,314.796 706.159,317.976C704.001,319.441 701.924,320.071 700.022,321.35C698.13,322.621 697.7,324.725 695.156,323.427C696.062,327.127 690.622,331.089 688.49,333.356C685.187,336.866 681.227,341.346 682.768,346.539C685.785,356.705 699.416,364.426 708.139,368.895C719.025,374.471 731.03,378.91 743.151,380.747C749.177,381.66 755.405,382.224 761.476,382.803C766.203,383.254 773.457,381.603 776.858,385.86C776.963,380.896 792.467,381.334 795.767,380.699C789.151,358.084 776.16,337.977 762.272,319.191C755.456,309.969 748.762,300.485 740.993,292.031C732.487,282.776 722.769,274.505 713.536,265.989C695.426,249.286 674.944,234.379 654.102,221.247C633.308,208.146 611.773,195.252 588.992,185.911C562.973,175.243 535.58,168.226 508.157,162.25C511.877,157.51 517.928,155.198 522.691,151.73C524.359,150.516 526.613,147.602 528.779,147.204C531.125,146.772 532.972,149.296 534.642,150.563C539.435,154.199 542.75,152.655 548.24,152.436C551.525,152.305 559.304,154.134 560.689,149.691C562.531,152.143 559.86,154.109 558.493,155.907C559.488,157.295 560.29,155.855 561.273,155.638C561.576,155.387 561.878,155.135 562.181,154.884C562.669,154.178 563.109,154.174 563.5,154.87C564.086,155.752 564.676,155.557 565.27,154.284C565.433,154.182 565.595,154.079 565.758,153.977C566.468,153.599 567.153,153.001 567.813,152.53C572.802,148.965 577.248,145.928 582.755,143.302C587.38,141.098 584.893,136.881 587.942,133.903C588.632,133.229 589.793,133.567 590.531,132.996C591.253,132.435 591.362,131.799 591.889,131.198C593.156,129.753 591.648,128.076 594.88,129.845L593.714,123.284C600.051,129.432 600.026,111.74 600.892,109.122C600.778,109.468 601.461,106.789 601.46,106.812C601.646,101.503 602.371,97.655 596.153,97.347C598.507,95.866 599.227,98.758 600.314,95.764C600.858,94.264 599.159,91.686 601.867,92.653C602.438,89.465 601.874,86.885 601.164,83.787C600.436,80.616 600.864,78.5 600.897,75.329C600.934,71.732 599.25,68.117 598.711,64.575C598.289,61.801 598.724,57.426 595.138,58.445C594.634,57.656 596.405,55.229 596.333,54.029C596.221,52.165 594.198,50.271 593.625,48.481C592.782,49.351 591.594,49.641 590.447,49.248C591.524,46.816 590.513,45.999 589.482,43.902C588.891,42.701 589.248,41.375 587.983,40.514C587.258,40.02 586.022,40.852 585.454,40.273C584.236,39.033 584.686,37.388 583.848,35.754C582.797,33.705 580.396,32.14 578.742,30.602C569.441,21.957 559.339,15.35 546.967,11.972C534.486,8.564 519.935,7.343 507.496,11.274C502.524,12.845 498.11,12.684 493.635,15.618C492.184,16.57 492.028,16.315 491.291,17.902C491.121,18.272 492.666,19.257 491.72,19.862C490.692,20.519 489.557,19.183 489.033,18.074C482.559,22.76 476.493,29.007 472.806,36.17C469.142,43.288 468.806,51.65 467.407,59.385C460.954,52.013 452.226,48.479 442.737,52.023C434.466,55.111 428.057,61.899 426.439,70.693C425.452,76.054 426.53,81.483 428.965,86.32C430.018,88.41 431.293,90.724 433.229,92.131C434.76,93.243 437.382,93.087 438.103,95.093C439.208,98.166 432.826,104.803 431.169,107.493C428.172,112.361 425.387,117.388 423.267,122.705C415.666,111.968 408.39,100.241 399.747,90.341C391.59,80.997 381.866,72.617 372.329,64.719C352.535,48.327 331.953,32.927 309.811,19.868C289.194,7.708 264.29,0.957 240.262,3.344C216.785,5.677 198.811,20.525 183.686,37.65C154.604,70.577 136.792,117.508 135.052,161.339C134.529,174.506 135.532,187.501 138.784,200.272C140.333,206.353 140.108,212.334 141.008,218.493C142.024,225.441 143.781,232.364 145.48,239.17C151.952,265.097 160.198,291.004 169.451,316.072C174.262,329.108 180.083,341.852 187.958,353.347C191.595,358.657 196.307,362.811 200.221,367.853C204.018,372.743 205.021,378.745 205.856,384.745C207.858,399.132 209.186,413.58 210.39,428.051C210.901,434.184 211.498,440.263 212.31,446.353C213.018,451.663 211.237,451.402 206.77,453.205C207.676,448.434 186.334,451.68 184.319,452.006C182.126,452.36 179.804,452.365 178.077,452.647C176.146,452.961 174.256,453.416 172.032,453.352C168.763,453.258 162.642,452.423 161.394,456.596C160.535,451.758 154.861,457.048 159.059,456.15C154.75,456.632 150.353,455.83 145.992,456.236C140.994,456.7 135.953,457.142 130.99,457.894C127.535,458.417 124.238,459.748 120.777,460.134C116.348,460.629 111.726,460.583 107.254,460.977C90.759,462.432 73.662,466.03 57.628,470.15C53.996,471.083 49.823,471.746 46.353,473.244C45.424,473.644 44.588,474.54 43.698,474.884C42.206,475.46 42.41,475.062 41.085,475.326C33.146,476.913 24.956,479.505 17.018,481.539C12.615,482.668 5.453,483.686 1.861,486.759C0.251,488.135 -1.156,490.576 1.424,492.14C3.485,493.389 6.427,491.395 8.095,490.317C6.609,494.19 3.806,496.12 5.32,500.526C6.515,504.008 9.213,508.299 13.364,506.053C13.92,507.346 14.145,509.918 15.782,510.393C17.253,510.82 18.318,508.956 19.759,509.395C20.275,509.552 20.079,510.527 20.541,510.782C21.337,511.22 22.144,511.406 23.056,511.715C23.84,511.981 25.102,512.527 25.92,512.585C26.439,512.622 27.662,511.734 27.658,511.734C28.85,511.915 29.491,514.196 30.349,514.855C31.463,515.711 32.383,515.906 33.778,516.216C36.678,516.86 40.416,517.964 42.33,514.995C41.892,517.115 44.775,516.907 46.047,517.176C45.906,516.059 45.289,515.036 44.337,514.423C47.181,514.611 46.028,517.438 48.13,518.185C49.628,518.716 49.458,517.366 50.604,517.216C52.114,517.019 53.26,518.115 55.618,517.104C56.129,519.375 56.316,521.665 59.105,522.004C60.742,522.203 64.559,519.247 64.343,521.707C68,520.635 69.388,521.36 71.299,524.583C71.622,522.604 73.185,523.178 74.619,523.056C76.892,522.862 76.95,523.045 78.712,521.758C78.873,521.641 80.259,518.466 80.875,520.439C81.152,521.323 79.321,523.403 78.643,523.932C79.485,524.358 82.244,525.849 83.305,525.575C84.223,525.338 84.226,523.769 85.329,523.688C85.059,524.59 84.79,525.493 84.519,526.395C86.665,526.707 88.458,525.271 90.153,524.219C91.769,528.305 96.388,526.003 98.9,529.078C100.229,530.705 100.291,531.941 102.823,532.366C105.414,532.801 107.677,531.664 109.879,533.801C109.181,532.475 107.442,531.375 109.17,529.95C110.346,531.619 110.953,533.629 112.309,535.181C112.496,534.392 112.683,533.603 112.87,532.813C116.405,536.594 120.855,536.627 125.383,538.723L125.383,535.956C128.625,540.904 128.798,537.773 132.671,535.752C132.408,537.207 132.144,538.662 131.881,540.116C134.668,539.906 137.272,543.208 139.56,540.403C140.942,542.721 142.617,541.58 144.882,542.316C146.17,542.735 147.129,544.003 148.382,544.462C150.261,545.15 150.822,545.118 152.591,545.717C154.164,546.249 155.058,547.285 157.027,547.617C158.306,547.833 159.466,547.817 160.69,547.758C161.163,547.735 161.007,546.671 162.058,546.919C163.683,547.304 164.893,549.342 166.063,550.387C167.823,545.963 172.751,551.889 175.133,552.678C175.361,551.544 175.32,550.177 176.141,549.245C177.105,551.357 177.473,553.132 179.474,554.492C180.629,555.277 182.325,555.839 183.659,556.126C184.502,556.307 186.034,556.09 186.564,556.35C187.468,556.793 187.801,557.976 188.714,558.087C189.251,558.152 190.047,556.739 190.449,556.849C192.289,557.351 193.311,559.586 195.169,560.795C200.698,564.392 207.656,564.741 213.816,565.53C215.362,565.727 215.586,565.305 216.842,566.212C217.512,566.697 217.208,568.171 218.032,568.584C221.137,570.14 221.139,566.82 221.79,564.757C222.817,566.112 222.994,567.901 224.399,568.979C225.166,568.957 225.934,568.974 226.7,569.031C227.132,569.524 227.416,570.093 227.548,570.738C229.408,571.994 231.515,571.557 233.436,572.5C234.066,572.809 235.182,574.678 235.958,575.215C237.347,576.177 239.495,576.691 241.082,577.109C244.41,577.985 249.182,576.821 251.162,580.296C253.791,577.478 252.774,580.843 254.559,581.55C255.613,581.967 257.198,580.308 258.367,580.473C260.472,580.769 261.23,583.048 261.904,584.705C263.186,584.419 262.306,580.792 262.27,579.997C263.863,579.809 264.217,584.004 264.492,584.926C267.007,583.715 262.879,579.946 265.583,578.737C265.335,581.948 267.894,584.592 263.324,585.052C263.955,586.986 278.695,589.134 279.719,587.427C279.946,590.583 282.066,587.635 282.848,586.555C282.936,588.396 282.309,591.009 284.375,591.865C285.779,592.446 288.945,590.943 289.496,589.567C290.125,591.669 291.179,591.601 292.489,592.936C293.389,593.853 293.982,595.443 294.926,596.211C296.663,597.624 299.894,597.408 301.918,597.092C305.878,596.474 305.41,595.715 306.821,599.831C307.14,598.269 308.14,595.002 309.884,597.431C310.994,598.974 308.631,602.375 307.948,603.73C309.474,602.892 310.989,601.898 312.725,601.537C312.822,602.072 312.911,603.207 312.655,603.702C312.707,603.602 314.559,604.844 315.246,605.188C315.081,605.105 315.789,602.013 315.769,602.114C318.212,603.622 316.517,606.505 318.681,607.992C319.24,608.377 320.552,607.928 321.228,608.162C322.405,608.57 323.423,609.673 324.469,610.318C323.634,609.198 323.754,607.318 323.811,606.025C324.343,606.319 324.723,607.419 325.26,607.506C325.463,607.539 327.568,607.818 327.554,607.808C329.745,609.342 329.294,609.535 327.413,611.38C328.085,612.436 330.894,610.601 331.654,610.296C331.813,610.709 331.854,612.209 332.153,612.477C332.334,612.921 332.516,613.365 332.698,613.809C333.259,613.391 333.861,613.251 334.503,613.39C334.909,613.531 338.078,614.82 338.293,614.379C337.6,614.155 336.971,613.811 336.409,613.348C338.238,611.704 339.441,610.83 341.126,613.204C341.338,613.503 340.609,614.577 340.825,614.967C341.63,616.419 343.284,617.574 344.407,618.757C344.872,617.124 343.79,613.035 346.372,613.184C348.435,613.302 350.004,618.3 349.29,619.854C350.11,618.957 355.006,618.066 355.93,618.346C358.543,619.138 357.81,621.554 361.025,618.014C363.217,619.527 361.285,620.1 361.68,621.944C362.259,622.065 362.807,621.922 363.326,621.515C362.938,629.352 368.721,623.364 372.476,624.561C373.95,625.031 374.327,626.704 375.909,627.193C376.746,627.451 377.677,626.84 378.491,626.989C379.143,626.896 379.791,626.781 380.435,626.644C381.251,626.235 381.634,626.692 381.584,628.016C382.896,628.696 382.4,628.962 383.934,629.094C384.922,629.18 385.831,628.152 386.954,628.327C388.891,628.631 388.635,630.118 389.873,630.895C390.987,631.595 392.243,631.572 393.615,631.437C394.314,631.368 396.277,630.467 396.513,630.464C397.979,630.444 397.184,630.132 398.944,631.391C400.314,632.373 400.889,633.009 402.571,633.461C404.5,633.978 407.922,635.109 409.22,633.715C410.973,636.343 412.346,634.414 414.66,634.588C415.844,634.678 416.032,635.139 417.086,635.323C418.794,635.621 420.925,635.363 422.742,635.946C425.605,636.866 425.928,637.328 428.854,637.452C429.382,637.246 429.91,637.039 430.437,636.833C430.595,637.714 431.01,638.433 431.683,638.99C433.32,639.333 434.395,638.507 435.745,637.602C436.751,640.735 440.015,641.009 442.807,641.421C447.312,642.086 451.62,642.449 455.964,643.93C459.633,645.18 463.309,646.584 466.838,648.185C469.944,649.594 472.875,651.701 476.389,650.712C484.351,648.47 492.067,640.297 498.728,635.604C506.618,630.046 515.127,625.466 523.371,620.469C556.191,600.575 590.864,583.746 623.224,563.112C640.891,551.847 657.284,538.462 676.257,529.348C673.556,540.509 668.958,551.839 669.789,563.524C670.123,568.233 671.51,573.796 675.162,577.083C679.677,581.148 684.706,578.56 689.024,575.656C698.277,569.435 704.447,560.357 711.372,551.833C719.563,541.749 725.916,530.915 731.931,519.422C733.372,521.445 732.276,524.834 732.297,527.077C732.325,529.939 733.097,532.697 734.424,535.252C737.85,541.846 744.37,543.445 750.261,538.927C761.599,530.232 768.179,514.747 774.254,502.277C777.719,508.723 782.637,516.837 790.958,512.233C797.824,508.434 801.858,499.945 803.958,492.755C810.09,471.767 808.147,450.388 809.089,428.874"/>
            <path id="ink-shape1" serif:id="ink-shape" d="M798.677,302.806C797.894,300.904 797.55,301.215 798.99,299.371C800.112,300.476 799.214,301.389 798.677,302.806M833.377,417.919C831.175,411.659 832.535,404.861 831.198,398.44C830.584,395.494 829.615,392.636 829.266,389.637C829.111,388.306 827.926,382.315 828.733,381.372C826.249,379.868 826.241,378.755 825.667,375.806C826.552,374.867 826.441,374.066 825.333,373.401C824.609,372.525 823.884,371.648 823.159,370.772C826.328,372.321 824.453,368.356 824.13,366.071C823.874,364.265 823.702,362.381 823.1,360.65C822.359,358.522 820.711,357.446 824.139,357.446C823.011,356.163 821.324,354.839 820.762,353.268C819.954,351.007 821.287,348.019 819.639,346.022C818.72,344.908 813.983,344.472 814.814,342.066C815.237,340.84 817.157,341.755 817.751,340.896C820.086,337.52 813.192,336.121 812.854,334.685C812.416,332.823 814.906,332.407 815.059,330.666C815.208,328.962 812.559,326.162 811.859,324.638C810.905,324.87 809.859,326.379 808.767,325.658C808.56,325.522 808.871,319.623 808.623,318.84C808.379,318.07 807.88,316.028 807.702,315.65C806.995,314.149 804.972,313.418 804.651,311.645C804.459,310.587 808.605,308.985 803.85,308.935C805.558,305.925 802.429,304.096 801.29,301.524C799.826,298.217 798.963,294.645 797.459,291.321C795.997,288.09 794.362,285.024 792.254,282.167C790.346,279.58 789.521,277.092 787.996,274.36C787.691,274.12 787.386,273.88 787.081,273.64C785.809,273.824 785.401,273.245 785.857,271.902C784.884,270.461 784.161,268.923 783.303,267.418C782.306,265.669 780.961,264.243 779.931,262.542C778.564,260.287 778.16,257.744 776.615,255.482C774.716,252.699 772.58,250.245 770.819,247.358C768.613,243.741 766.17,241.493 763.394,238.692C762.073,237.358 761.914,234.026 760.295,232.132C758.532,230.069 756.791,229.51 755.569,226.802C753.979,223.279 751.646,221.597 749.375,218.552C747.501,216.04 746.586,213.153 744.522,210.723C742.747,208.636 740.732,206.729 738.837,204.75C736.445,202.251 734.679,199.214 732.189,196.838C732.548,197.181 730.022,195.179 730.149,195.243C729.59,194.958 727.786,194.729 728.049,194.884C724.291,192.675 719.582,184.59 713.927,188.874C710.952,191.127 712.379,195.259 714.456,197.503C715.348,198.467 719.983,203.219 720.984,201.215C722.065,202.747 725.394,210.153 728.163,208.031C727.881,210.562 729.347,209.722 730.315,211.433C730.952,212.562 730.642,213.116 731.106,214.878C732.383,219.722 737.255,224.453 739.85,228.677C746.309,239.19 753.434,249.161 759.899,259.686C766.06,269.717 772.96,279.235 778.871,289.401C785.594,300.961 793.97,311.873 799.035,324.335C799.206,324.754 800.613,325.417 800.962,326.046C801.571,327.139 801.44,329.029 801.832,330.267C803.191,334.559 805.394,338.784 807.904,342.339C810.106,345.458 810.266,349.697 811.781,353.356C813.918,358.513 816.175,363.616 818.251,368.799C821.482,376.866 823.671,384.598 825.904,393.02C827.351,398.478 828.502,403.933 828.963,409.569C829.387,414.752 829.491,420.151 831.409,425.058C832.717,423.038 834.258,420.421 833.377,417.919"/>
            <path id="ink-shape2" serif:id="ink-shape" d="M94.239,528.98C91.917,528.511 89.732,527.885 89.24,525.219C88.903,526.476 88.567,527.733 88.23,528.99C91.057,529.63 93.885,530.271 96.712,530.911C96.052,529.748 95.57,529.249 94.239,528.98"/>
            <path id="ink-shape3" serif:id="ink-shape" d="M100.47,91.439C100.646,90.687 100.874,89.95 101.155,89.231C101.346,89.932 102.282,91.448 101.737,92.109C101.043,92.948 100.341,92.473 100.47,91.439M111.853,69.781C112.615,70.117 114.264,70.182 115.21,70.466C112.756,72.577 112.324,71.956 109.151,71.711C109.01,69.575 109.878,68.912 111.853,69.781M90.582,122.659C90.911,122.668 91.241,122.676 91.572,122.684C91.592,121.754 91.568,120.825 91.498,119.897C94.844,120.628 92.95,114.781 91.899,113.569C95.163,113.678 96.753,103.344 97.787,101.353C98.705,99.585 99.745,98.901 100.416,96.745C101.003,94.858 101.638,93.16 102.485,91.375C104.431,87.271 106.984,83.544 106.513,78.761C108.162,82.35 109.612,78.767 110.658,77.051C112.343,74.286 116.454,70.758 116.891,67.474C117.277,64.583 115.129,64.43 116.397,61.749C117.679,59.035 118.733,59.307 120.979,58.439C122.473,57.861 122.77,58.563 123.824,56.677C124.507,55.456 124.266,54.546 125.141,53.545C125.502,53.859 125.913,53.989 126.373,53.935C127.083,52.998 127.549,51.954 127.77,50.803C128.349,49.249 128.629,47.822 129.501,46.342C130.328,44.94 131.796,41.189 132.574,40.513C133.4,39.795 138.085,40.16 138.065,40.186C140,37.752 136.449,35.327 141.366,35.84C140.395,34.032 143.806,31.788 144.796,30.782C147.269,28.271 147.466,27.109 147.988,23.951C148.253,22.341 146.523,22.527 148.842,22.16C149.801,22.009 150.721,23.235 151.413,23.055C154.468,22.263 151.272,22.414 152.115,21.169C152.381,20.774 153.74,19.18 153.727,19.197C153.661,19.277 154.033,17.81 154.341,17.433C154.925,17.383 155.5,17.281 156.065,17.127C156.352,16.547 156.606,15.953 156.826,15.345C159.037,13.501 162.345,12.676 163.874,10.65C164.863,9.34 164.567,8.057 165.845,6.751C167.062,5.507 168.672,6.408 168.913,3.598C169.22,0.023 165.38,-1.568 163.809,2.04C159.549,-3.207 141.743,16.044 139.686,18.559C130.751,29.477 121.969,40.665 114.64,52.738C107.499,64.502 101.638,76.88 97.057,89.855C94.848,96.111 93.503,102.339 92.154,108.81C91.701,110.977 88.316,120.634 89.725,122.795C90.01,122.75 90.296,122.704 90.582,122.659"/>
            <path id="ink-shape4" serif:id="ink-shape" d="M793.887,390.399C795.392,389.395 795.392,389.395 795.656,387.498C793.638,387.866 793.638,387.866 793.887,390.399"/>
            <path id="ink-shape5" serif:id="ink-shape" d="M52.05,518.024C52.069,518.022 52.083,518.027 52.094,518.038C52.062,517.997 51.946,517.876 52.05,518.024"/>
            <path id="ink-shape6" serif:id="ink-shape" d="M51.04,519.042C51.505,520.047 52.252,520.297 53.282,519.79C53.688,520.37 49.76,516.171 51.04,519.042"/>
            <path id="ink-shape7" serif:id="ink-shape" d="M118.966,60.346C116.609,64.967 119.561,61.606 119.41,63.107C119.509,62.121 119.918,60.716 118.966,60.346"/>
            <path id="ink-shape8" serif:id="ink-shape" d="M502.157,131.868C503.178,140.154 514.514,136.235 517.064,131.223C518.921,127.574 523.61,113.155 518.565,110.109C514.825,107.851 514.026,117.583 513.104,119.757C511.559,123.398 510.352,120.818 506.917,121.752C503.126,122.783 501.735,128.432 502.157,131.868"/>
            <path id="ink-shape9" serif:id="ink-shape" d="M489.771,116.701C493.823,117.601 497.795,117.137 500.673,113.937C502.267,112.165 504.388,108.65 501.518,106.935C498.917,105.382 495.968,109.019 493.229,108.267C489.504,107.244 491.422,103.25 490.144,100.612C485.448,103.316 482.828,115.159 489.771,116.701"/>
            <path id="ink-shape10" serif:id="ink-shape" d="M493.973,137.624C490.067,137.616 490.035,142.42 492.074,144.479C494.025,146.449 498.959,148.443 501.604,146.911C506.822,143.887 497.134,137.936 493.973,137.624"/>
            <path id="ink-shape11" serif:id="ink-shape" d="M266.704,328.661C267.538,329.066 269.996,331.15 271.032,330.209C269.57,328.736 268.107,327.263 266.645,325.79C265.837,326.676 265.283,327.971 266.704,328.661"/>
            <path id="ink-shape12" serif:id="ink-shape" d="M248.245,117.9C247.83,118.21 247.414,118.519 246.999,118.828C248.4,119.995 248.365,120.342 249.777,119.237C249.358,118.685 248.848,118.24 248.245,117.9"/>
            <path id="ink-shape13" serif:id="ink-shape" d="M512.975,392.815C512.19,391.405 510.707,394.005 509.704,394.428C508.072,395.115 506.733,391.475 507.201,395.838C503.512,394.149 501.273,398.024 498.894,400.042C495.533,402.894 491.422,404.441 489.18,408.491C499.733,410.96 511.328,401.862 519.197,395.886C520.481,394.91 526.899,389.987 522.549,389.511C520.77,389.317 514.295,395.185 512.975,392.815"/>
            <path id="ink-shape14" serif:id="ink-shape" d="M509.845,384.273C511.913,382.645 507.454,382.496 506.749,382.325C506.81,383.62 506.869,384.914 506.93,386.209C507.928,385.604 508.9,384.958 509.845,384.273"/>
            <path id="ink-shape15" serif:id="ink-shape" d="M502.079,389.703C502.697,389.317 504.42,388.112 503.248,387.214C502.189,387.888 501.432,388.988 501.266,390.243C501.537,390.063 501.808,389.883 502.079,389.703"/>
            <path id="ink-shape16" serif:id="ink-shape" d="M331.167,284.695C329.846,285.213 329.254,286.032 329.393,287.154C331.423,286.739 331.036,284.822 331.167,284.695"/>
        </g>
    </g>
</svg>
