<?xml version="1.0" encoding="UTF-8" standalone="no"?>
<!DOCTYPE svg PUBLIC "-//W3C//DTD SVG 1.1//EN" "http://www.w3.org/Graphics/SVG/1.1/DTD/svg11.dtd">
<svg width="100%" height="100%" viewBox="0 0 2000 2000" version="1.1" xmlns="http://www.w3.org/2000/svg" xmlns:xlink="http://www.w3.org/1999/xlink" xml:space="preserve" xmlns:serif="http://www.serif.com/" style="fill-rule:evenodd;clip-rule:evenodd;stroke-linejoin:round;stroke-miterlimit:2;">
    <rect id="_-" serif:id=" " x="0" y="0" width="2000" height="2000" style="fill:none;"/>
    <clipPath id="_clip1">
        <rect id="_-1" serif:id=" " x="0" y="0" width="2000" height="2000"/>
    </clipPath>
    <g clip-path="url(#_clip1)">
        <g transform="matrix(8.78152,0.807588,-0.807588,8.78152,-99.7457,-37.3787)">
            <path d="M25,2C19.488,2 15,6.488 15,12L15,14C14.996,14.359 15.184,14.695 15.496,14.879C15.809,15.059 16.191,15.059 16.504,14.879C16.816,14.695 17.004,14.359 17,14L17,12C17,7.57 20.57,4 25,4C29.43,4 33,7.57 33,12L33,14C32.996,14.359 33.184,14.695 33.496,14.879C33.809,15.059 34.191,15.059 34.504,14.879C34.816,14.695 35.004,14.359 35,14L35,12C35,6.488 30.512,2 25,2ZM16,16C14.895,16 14,16.895 14,18L9,18C8.531,18 8.133,18.328 8.031,18.781L5.469,30.063C5.328,30.672 5.676,31.277 6.281,31.438C9.387,32.254 16.945,34 25,34C33.063,34 40.617,32.254 43.719,31.438C44.324,31.277 44.672,30.672 44.531,30.063L41.969,18.781C41.867,18.324 41.469,18 41,18L36,18C36,16.895 35.105,16 34,16C32.895,16 32,16.895 32,18L18,18C18,16.895 17.105,16 16,16ZM5.844,33.406L4,45.844C3.957,46.129 4.059,46.434 4.25,46.656C4.441,46.875 4.711,47 5,47L8,47L8,48L11,48L11,47L39,47L39,48L42,48L42,47L45,47C45.289,47 45.559,46.875 45.75,46.656C45.941,46.434 46.043,46.129 46,45.844L44.156,33.406C41.285,34.164 35,35.613 27.844,35.938C27.449,37.137 26.332,38 25,38C23.668,38 22.551,37.137 22.156,35.938C15,35.613 8.715,34.164 5.844,33.406Z" style="fill-rule:nonzero;"/>
        </g>
        <g transform="matrix(9.25893,-3.18755,3.18755,9.25893,790.682,981.193)">
            <path d="M25,2C19.488,2 15,6.488 15,12L15,14C14.996,14.359 15.184,14.695 15.496,14.879C15.809,15.059 16.191,15.059 16.504,14.879C16.816,14.695 17.004,14.359 17,14L17,12C17,7.57 20.57,4 25,4C29.43,4 33,7.57 33,12L33,14C32.996,14.359 33.184,14.695 33.496,14.879C33.809,15.059 34.191,15.059 34.504,14.879C34.816,14.695 35.004,14.359 35,14L35,12C35,6.488 30.512,2 25,2ZM16,16C14.895,16 14,16.895 14,18L9,18C8.531,18 8.133,18.328 8.031,18.781L5.469,30.063C5.328,30.672 5.676,31.277 6.281,31.438C9.387,32.254 16.945,34 25,34C33.063,34 40.617,32.254 43.719,31.438C44.324,31.277 44.672,30.672 44.531,30.063L41.969,18.781C41.867,18.324 41.469,18 41,18L36,18C36,16.895 35.105,16 34,16C32.895,16 32,16.895 32,18L18,18C18,16.895 17.105,16 16,16ZM5.844,33.406L4,45.844C3.957,46.129 4.059,46.434 4.25,46.656C4.441,46.875 4.711,47 5,47L8,47L8,48L11,48L11,47L39,47L39,48L42,48L42,47L45,47C45.289,47 45.559,46.875 45.75,46.656C45.941,46.434 46.043,46.129 46,45.844L44.156,33.406C41.285,34.164 35,35.613 27.844,35.938C27.449,37.137 26.332,38 25,38C23.668,38 22.551,37.137 22.156,35.938C15,35.613 8.715,34.164 5.844,33.406Z" style="fill-rule:nonzero;"/>
        </g>
        <g transform="matrix(8.78152,0.807588,-0.807588,8.78152,1900.24,-37.3787)">
            <path d="M25,2C19.488,2 15,6.488 15,12L15,14C14.996,14.359 15.184,14.695 15.496,14.879C15.809,15.059 16.191,15.059 16.504,14.879C16.816,14.695 17.004,14.359 17,14L17,12C17,7.57 20.57,4 25,4C29.43,4 33,7.57 33,12L33,14C32.996,14.359 33.184,14.695 33.496,14.879C33.809,15.059 34.191,15.059 34.504,14.879C34.816,14.695 35.004,14.359 35,14L35,12C35,6.488 30.512,2 25,2ZM16,16C14.895,16 14,16.895 14,18L9,18C8.531,18 8.133,18.328 8.031,18.781L5.469,30.063C5.328,30.672 5.676,31.277 6.281,31.438C9.387,32.254 16.945,34 25,34C33.063,34 40.617,32.254 43.719,31.438C44.324,31.277 44.672,30.672 44.531,30.063L41.969,18.781C41.867,18.324 41.469,18 41,18L36,18C36,16.895 35.105,16 34,16C32.895,16 32,16.895 32,18L18,18C18,16.895 17.105,16 16,16ZM5.844,33.406L4,45.844C3.957,46.129 4.059,46.434 4.25,46.656C4.441,46.875 4.711,47 5,47L8,47L8,48L11,48L11,47L39,47L39,48L42,48L42,47L45,47C45.289,47 45.559,46.875 45.75,46.656C45.941,46.434 46.043,46.129 46,45.844L44.156,33.406C41.285,34.164 35,35.613 27.844,35.938C27.449,37.137 26.332,38 25,38C23.668,38 22.551,37.137 22.156,35.938C15,35.613 8.715,34.164 5.844,33.406Z" style="fill-rule:nonzero;"/>
        </g>
        <g transform="matrix(9.31724,-6.65309,6.65309,9.31724,189.252,2005.74)">
            <path d="M16,2C15.445,2 15,2.445 15,3L15,14C15,14.023 15.031,14.039 15.031,14.063C12.625,15.445 11,18.035 11,21L11,30C11,31.645 12.355,33 14,33L15,33L15,47C15,47.555 15.445,48 16,48L34,48C34.555,48 35,47.555 35,47L35,33L36,33C37.645,33 39,31.645 39,30L39,21C39,18.035 37.375,15.445 34.969,14.063C34.969,14.039 35,14.023 35,14L35,3C35,2.445 34.555,2 34,2L16,2ZM25,6C26.105,6 27,6.895 27,8C27,9.105 26.105,10 25,10C23.895,10 23,9.105 23,8C23,6.895 23.895,6 25,6ZM19,15L31,15C34.324,15 37,17.676 37,21L37,30C37,30.566 36.566,31 36,31L35,31L35,22C35,20.348 33.652,19 32,19L26,19L26,24.281C26.594,24.629 27,25.262 27,26C27,27.105 26.105,28 25,28C23.895,28 23,27.105 23,26C23,25.262 23.406,24.629 24,24.281L24,19L18,19C16.348,19 15,20.348 15,22L15,31L14,31C13.434,31 13,30.566 13,30L13,21C13,17.676 15.676,15 19,15ZM24,19L26,19L26,18C26,17.445 25.555,17 25,17C24.445,17 24,17.445 24,18L24,19ZM25,34C26.105,34 27,34.895 27,36C27,37.105 26.105,38 25,38C23.895,38 23,37.105 23,36C23,34.895 23.895,34 25,34Z" style="fill-rule:nonzero;"/>
        </g>
        <g transform="matrix(9.31724,-6.65309,6.65309,9.31724,189.252,5.74953)">
            <path d="M16,2C15.445,2 15,2.445 15,3L15,14C15,14.023 15.031,14.039 15.031,14.063C12.625,15.445 11,18.035 11,21L11,30C11,31.645 12.355,33 14,33L15,33L15,47C15,47.555 15.445,48 16,48L34,48C34.555,48 35,47.555 35,47L35,33L36,33C37.645,33 39,31.645 39,30L39,21C39,18.035 37.375,15.445 34.969,14.063C34.969,14.039 35,14.023 35,14L35,3C35,2.445 34.555,2 34,2L16,2ZM25,6C26.105,6 27,6.895 27,8C27,9.105 26.105,10 25,10C23.895,10 23,9.105 23,8C23,6.895 23.895,6 25,6ZM19,15L31,15C34.324,15 37,17.676 37,21L37,30C37,30.566 36.566,31 36,31L35,31L35,22C35,20.348 33.652,19 32,19L26,19L26,24.281C26.594,24.629 27,25.262 27,26C27,27.105 26.105,28 25,28C23.895,28 23,27.105 23,26C23,25.262 23.406,24.629 24,24.281L24,19L18,19C16.348,19 15,20.348 15,22L15,31L14,31C13.434,31 13,30.566 13,30L13,21C13,17.676 15.676,15 19,15ZM24,19L26,19L26,18C26,17.445 25.555,17 25,17C24.445,17 24,17.445 24,18L24,19ZM25,34C26.105,34 27,34.895 27,36C27,37.105 26.105,38 25,38C23.895,38 23,37.105 23,36C23,34.895 23.895,34 25,34Z" style="fill-rule:nonzero;"/>
        </g>
        <g transform="matrix(5.4788,-6.20917,6.20917,5.4788,1279.7,445.497)">
            <path d="M49.306,26.548L38.066,22.935L34.453,11.694C34.319,11.28 33.935,11 33.5,11C33.065,11 32.681,11.28 32.548,11.694L28.935,22.935L17.695,26.548C17.28,26.681 17,27.065 17,27.5C17,27.935 17.28,28.319 17.694,28.452L28.934,32.065L32.547,43.306C32.681,43.72 33.065,44 33.5,44C33.935,44 34.319,43.72 34.452,43.306L38.065,32.065L49.305,28.452C49.72,28.319 50,27.935 50,27.5C50,27.065 49.72,26.681 49.306,26.548ZM1.684,13.949L9.46,16.541L12.052,24.317C12.188,24.725 12.569,25 13,25C13.431,25 13.813,24.725 13.948,24.316L16.54,16.54L24.316,13.948C24.725,13.813 25,13.431 25,13C25,12.569 24.725,12.187 24.316,12.051L16.54,9.459L13.948,1.683C13.813,1.275 13.431,1 13,1C12.569,1 12.187,1.275 12.052,1.684L9.46,9.459L1.684,12.051C1.275,12.188 1,12.569 1,13C1,13.431 1.275,13.813 1.684,13.949ZM17.316,39.05L11.79,37.208L9.948,31.684C9.813,31.276 9.431,31 9,31C8.569,31 8.187,31.275 8.052,31.684L6.21,37.208L0.685,39.05C0.277,39.186 0.001,39.568 0.001,39.999C0.001,40.43 0.276,40.812 0.685,40.948L6.211,42.79L8.052,48.314C8.188,48.721 8.569,48.997 9,48.997C9.431,48.997 9.813,48.722 9.948,48.313L11.79,42.789L17.316,40.947C17.725,40.811 18,40.429 18,39.999C18,39.569 17.725,39.186 17.316,39.05Z" style="fill-rule:nonzero;"/>
        </g>
        <g transform="matrix(6.3193,-1.42041,1.42041,6.3193,350.186,946.098)">
            <path d="M49.306,26.548L38.066,22.935L34.453,11.694C34.319,11.28 33.935,11 33.5,11C33.065,11 32.681,11.28 32.548,11.694L28.935,22.935L17.695,26.548C17.28,26.681 17,27.065 17,27.5C17,27.935 17.28,28.319 17.694,28.452L28.934,32.065L32.547,43.306C32.681,43.72 33.065,44 33.5,44C33.935,44 34.319,43.72 34.452,43.306L38.065,32.065L49.305,28.452C49.72,28.319 50,27.935 50,27.5C50,27.065 49.72,26.681 49.306,26.548ZM1.684,13.949L9.46,16.541L12.052,24.317C12.188,24.725 12.569,25 13,25C13.431,25 13.813,24.725 13.948,24.316L16.54,16.54L24.316,13.948C24.725,13.813 25,13.431 25,13C25,12.569 24.725,12.187 24.316,12.051L16.54,9.459L13.948,1.683C13.813,1.275 13.431,1 13,1C12.569,1 12.187,1.275 12.052,1.684L9.46,9.459L1.684,12.051C1.275,12.188 1,12.569 1,13C1,13.431 1.275,13.813 1.684,13.949ZM17.316,39.05L11.79,37.208L9.948,31.684C9.813,31.276 9.431,31 9,31C8.569,31 8.187,31.275 8.052,31.684L6.21,37.208L0.685,39.05C0.277,39.186 0.001,39.568 0.001,39.999C0.001,40.43 0.276,40.812 0.685,40.948L6.211,42.79L8.052,48.314C8.188,48.721 8.569,48.997 9,48.997C9.431,48.997 9.813,48.722 9.948,48.313L11.79,42.789L17.316,40.947C17.725,40.811 18,40.429 18,39.999C18,39.569 17.725,39.186 17.316,39.05Z" style="fill-rule:nonzero;"/>
        </g>
        <g transform="matrix(-3.23015,0,0,-3.23015,1522.54,1815.26)">
            <circle cx="339.696" cy="351.692" r="61.696"/>
        </g>
        <g transform="matrix(-2.53862,0,0,-2.53862,2361.9,1830.78)">
            <circle cx="339.696" cy="351.692" r="61.696"/>
        </g>
        <g transform="matrix(-0.647641,-2.30621,3.10985,-0.873324,187.503,2845.99)">
            <circle cx="339.696" cy="351.692" r="61.696"/>
        </g>
        <g transform="matrix(-2.13608,0,0,-2.13608,948.31,2396.12)">
            <circle cx="339.696" cy="351.692" r="61.696"/>
        </g>
        <g transform="matrix(-1.42291,0,0,-1.42291,1887.42,2015.9)">
            <circle cx="339.696" cy="351.692" r="61.696"/>
        </g>
        <g transform="matrix(13.4344,-3.59973,3.59973,13.4344,1510.46,1075.66)">
            <path d="M2.719,10C2.063,10.086 1.605,10.766 0.813,16.188C0.422,18.844 0,22.563 0,25C0,27.438 0.422,31.156 0.813,33.813C1.719,40.012 2.168,40 3,40L3.156,40C3.57,39.938 12.629,38.465 19.156,33.094C17.898,32.297 17.223,30.441 16.875,28.688C14.957,29.305 12.273,30 10,30C9.445,30 9,29.555 9,29C9,28.445 9.445,28 10,28C12.133,28 14.793,27.25 16.594,26.656C16.504,25.699 16.5,25.023 16.5,25C16.5,24.977 16.504,24.301 16.594,23.344C14.793,22.75 12.133,22 10,22C9.445,22 9,21.555 9,21C9,20.445 9.445,20 10,20C12.273,20 14.957,20.695 16.875,21.313C17.219,19.57 17.887,17.711 19.125,16.906C13.336,12.43 3.664,10.137 3.219,10.031L3,10C2.895,10 2.813,9.988 2.719,10ZM47,10L46.781,10.031C46.336,10.137 36.664,12.43 30.875,16.906C32.113,17.711 32.781,19.57 33.125,21.313C35.043,20.695 37.727,20 40,20C40.555,20 41,20.445 41,21C41,21.555 40.555,22 40,22C37.867,22 35.207,22.75 33.406,23.344C33.496,24.301 33.5,24.977 33.5,25C33.5,25.023 33.496,25.699 33.406,26.656C35.207,27.25 37.867,28 40,28C40.555,28 41,28.445 41,29C41,29.555 40.555,30 40,30C37.727,30 35.043,29.305 33.125,28.688C32.777,30.441 32.102,32.301 30.844,33.094C37.371,38.465 46.43,39.938 46.844,40L47,40C47.832,40 48.281,40.012 49.188,33.813C49.578,31.156 50,27.438 50,25C50,22.563 49.578,18.844 49.188,16.188C48.281,9.988 47.832,10 47,10ZM20.5,18C18.754,18 18,22.637 18,25C18,27.363 18.754,32 20.5,32L29.5,32C31.246,32 32,27.363 32,25C32,22.637 31.246,18 29.5,18L20.5,18Z" style="fill-rule:nonzero;"/>
        </g>
        <g transform="matrix(13.4344,-3.59973,3.59973,13.4344,-489.54,1075.66)">
            <path d="M2.719,10C2.063,10.086 1.605,10.766 0.813,16.188C0.422,18.844 0,22.563 0,25C0,27.438 0.422,31.156 0.813,33.813C1.719,40.012 2.168,40 3,40L3.156,40C3.57,39.938 12.629,38.465 19.156,33.094C17.898,32.297 17.223,30.441 16.875,28.688C14.957,29.305 12.273,30 10,30C9.445,30 9,29.555 9,29C9,28.445 9.445,28 10,28C12.133,28 14.793,27.25 16.594,26.656C16.504,25.699 16.5,25.023 16.5,25C16.5,24.977 16.504,24.301 16.594,23.344C14.793,22.75 12.133,22 10,22C9.445,22 9,21.555 9,21C9,20.445 9.445,20 10,20C12.273,20 14.957,20.695 16.875,21.313C17.219,19.57 17.887,17.711 19.125,16.906C13.336,12.43 3.664,10.137 3.219,10.031L3,10C2.895,10 2.813,9.988 2.719,10ZM47,10L46.781,10.031C46.336,10.137 36.664,12.43 30.875,16.906C32.113,17.711 32.781,19.57 33.125,21.313C35.043,20.695 37.727,20 40,20C40.555,20 41,20.445 41,21C41,21.555 40.555,22 40,22C37.867,22 35.207,22.75 33.406,23.344C33.496,24.301 33.5,24.977 33.5,25C33.5,25.023 33.496,25.699 33.406,26.656C35.207,27.25 37.867,28 40,28C40.555,28 41,28.445 41,29C41,29.555 40.555,30 40,30C37.727,30 35.043,29.305 33.125,28.688C32.777,30.441 32.102,32.301 30.844,33.094C37.371,38.465 46.43,39.938 46.844,40L47,40C47.832,40 48.281,40.012 49.188,33.813C49.578,31.156 50,27.438 50,25C50,22.563 49.578,18.844 49.188,16.188C48.281,9.988 47.832,10 47,10ZM20.5,18C18.754,18 18,22.637 18,25C18,27.363 18.754,32 20.5,32L29.5,32C31.246,32 32,27.363 32,25C32,22.637 31.246,18 29.5,18L20.5,18Z" style="fill-rule:nonzero;"/>
        </g>
        <g transform="matrix(11.341,3.03882,-3.03882,11.341,803.267,247.82)">
            <path d="M2.719,10C2.063,10.086 1.605,10.766 0.813,16.188C0.422,18.844 0,22.563 0,25C0,27.438 0.422,31.156 0.813,33.813C1.719,40.012 2.168,40 3,40L3.156,40C3.57,39.938 12.629,38.465 19.156,33.094C17.898,32.297 17.223,30.441 16.875,28.688C14.957,29.305 12.273,30 10,30C9.445,30 9,29.555 9,29C9,28.445 9.445,28 10,28C12.133,28 14.793,27.25 16.594,26.656C16.504,25.699 16.5,25.023 16.5,25C16.5,24.977 16.504,24.301 16.594,23.344C14.793,22.75 12.133,22 10,22C9.445,22 9,21.555 9,21C9,20.445 9.445,20 10,20C12.273,20 14.957,20.695 16.875,21.313C17.219,19.57 17.887,17.711 19.125,16.906C13.336,12.43 3.664,10.137 3.219,10.031L3,10C2.895,10 2.813,9.988 2.719,10ZM47,10L46.781,10.031C46.336,10.137 36.664,12.43 30.875,16.906C32.113,17.711 32.781,19.57 33.125,21.313C35.043,20.695 37.727,20 40,20C40.555,20 41,20.445 41,21C41,21.555 40.555,22 40,22C37.867,22 35.207,22.75 33.406,23.344C33.496,24.301 33.5,24.977 33.5,25C33.5,25.023 33.496,25.699 33.406,26.656C35.207,27.25 37.867,28 40,28C40.555,28 41,28.445 41,29C41,29.555 40.555,30 40,30C37.727,30 35.043,29.305 33.125,28.688C32.777,30.441 32.102,32.301 30.844,33.094C37.371,38.465 46.43,39.938 46.844,40L47,40C47.832,40 48.281,40.012 49.188,33.813C49.578,31.156 50,27.438 50,25C50,22.563 49.578,18.844 49.188,16.188C48.281,9.988 47.832,10 47,10ZM20.5,18C18.754,18 18,22.637 18,25C18,27.363 18.754,32 20.5,32L29.5,32C31.246,32 32,27.363 32,25C32,22.637 31.246,18 29.5,18L20.5,18Z" style="fill-rule:nonzero;"/>
        </g>
        <g transform="matrix(15.6039,4.27948,-4.27948,15.6039,1109.79,-521.186)">
            <path d="M45.449,26.031C48.629,22.527 48.27,17.012 47.379,12.941C46.422,8.559 44.418,4.172 43.223,2.973C41.836,1.59 40.648,2.031 40.074,2.246C39.449,2.473 35.84,4.852 32.297,9.102C32.281,9.117 32.27,9.133 32.258,9.145L32.258,9.148C32.199,9.219 32.141,9.285 32.086,9.355L32.082,9.352C32.059,9.383 32.035,9.41 32.012,9.441C31.996,9.461 31.98,9.48 31.965,9.5C31.902,9.578 31.844,9.66 31.781,9.738C31.59,9.98 31.402,10.223 31.227,10.469C29.164,13.273 27.777,16.301 26.645,18.785C25.645,20.977 24.781,22.871 23.824,23.824C22.867,24.781 20.977,25.645 18.785,26.645C16.301,27.777 13.273,29.164 10.473,31.223C10.223,31.402 9.977,31.594 9.734,31.785C9.656,31.848 9.578,31.902 9.5,31.965C9.48,31.98 9.461,31.996 9.441,32.012C9.414,32.035 9.383,32.055 9.355,32.078L9.355,32.082C9.285,32.141 9.219,32.199 9.148,32.258L9.148,32.254C9.133,32.27 9.117,32.281 9.105,32.293C4.852,35.84 2.473,39.449 2.223,40.137C2.031,40.648 1.59,41.836 2.973,43.219C4.172,44.418 8.559,46.418 12.941,47.379C14.559,47.73 16.398,48.004 18.258,48.004C21.074,48.004 23.914,47.359 26.027,45.445L26.047,45.465C26.098,45.414 26.137,45.359 26.184,45.313C26.234,45.262 26.289,45.223 26.34,45.176C26.441,45.07 26.523,44.969 26.617,44.867C26.695,44.797 26.781,44.73 26.855,44.656L26.836,44.633C30.695,40.285 29.207,35.609 28.098,32.16C27.352,29.844 26.949,28.383 27.668,27.668C28.387,26.949 29.844,27.352 32.16,28.098C33.93,28.664 36.02,29.34 38.227,29.34C40.32,29.336 42.516,28.715 44.633,26.832L44.656,26.855C44.719,26.793 44.766,26.719 44.828,26.656C44.941,26.547 45.059,26.453 45.176,26.34C45.223,26.293 45.262,26.238 45.305,26.191C45.359,26.145 45.41,26.098 45.465,26.047L45.449,26.031ZM32.871,11.605C33.051,11.363 33.23,11.125 33.422,10.887C33.465,10.832 33.508,10.773 33.551,10.719C33.645,10.605 33.738,10.496 33.832,10.383C35.059,8.945 36.27,8.188 37.418,8.141C39.063,8.086 40.355,9.402 41.145,10.195L41.27,10.324C42.453,11.508 44.008,14.34 44.684,17.469C45.094,19.348 45.461,22.715 43.641,25C41.609,26.797 39.199,27.305 36.461,26.473C34.074,25.75 32.109,24.223 31.406,23.52C29.063,21.18 29.777,15.922 32.871,11.605ZM26.473,36.461C27.305,39.199 26.797,41.609 25,43.641C22.719,45.461 19.352,45.094 17.473,44.684C14.344,44.008 11.508,42.453 10.324,41.27L10.195,41.145C9.406,40.355 8.078,39.039 8.145,37.418C8.188,36.27 8.945,35.059 10.387,33.832C10.496,33.738 10.605,33.645 10.723,33.551C10.777,33.504 10.836,33.465 10.891,33.418C11.129,33.23 11.367,33.051 11.605,32.871C15.922,29.777 21.18,29.066 23.52,31.406C24.227,32.109 25.75,34.074 26.473,36.461Z" style="fill-rule:nonzero;"/>
        </g>
        <g transform="matrix(15.6039,4.27948,-4.27948,15.6039,1109.79,1478.81)">
            <path d="M45.449,26.031C48.629,22.527 48.27,17.012 47.379,12.941C46.422,8.559 44.418,4.172 43.223,2.973C41.836,1.59 40.648,2.031 40.074,2.246C39.449,2.473 35.84,4.852 32.297,9.102C32.281,9.117 32.27,9.133 32.258,9.145L32.258,9.148C32.199,9.219 32.141,9.285 32.086,9.355L32.082,9.352C32.059,9.383 32.035,9.41 32.012,9.441C31.996,9.461 31.98,9.48 31.965,9.5C31.902,9.578 31.844,9.66 31.781,9.738C31.59,9.98 31.402,10.223 31.227,10.469C29.164,13.273 27.777,16.301 26.645,18.785C25.645,20.977 24.781,22.871 23.824,23.824C22.867,24.781 20.977,25.645 18.785,26.645C16.301,27.777 13.273,29.164 10.473,31.223C10.223,31.402 9.977,31.594 9.734,31.785C9.656,31.848 9.578,31.902 9.5,31.965C9.48,31.98 9.461,31.996 9.441,32.012C9.414,32.035 9.383,32.055 9.355,32.078L9.355,32.082C9.285,32.141 9.219,32.199 9.148,32.258L9.148,32.254C9.133,32.27 9.117,32.281 9.105,32.293C4.852,35.84 2.473,39.449 2.223,40.137C2.031,40.648 1.59,41.836 2.973,43.219C4.172,44.418 8.559,46.418 12.941,47.379C14.559,47.73 16.398,48.004 18.258,48.004C21.074,48.004 23.914,47.359 26.027,45.445L26.047,45.465C26.098,45.414 26.137,45.359 26.184,45.313C26.234,45.262 26.289,45.223 26.34,45.176C26.441,45.07 26.523,44.969 26.617,44.867C26.695,44.797 26.781,44.73 26.855,44.656L26.836,44.633C30.695,40.285 29.207,35.609 28.098,32.16C27.352,29.844 26.949,28.383 27.668,27.668C28.387,26.949 29.844,27.352 32.16,28.098C33.93,28.664 36.02,29.34 38.227,29.34C40.32,29.336 42.516,28.715 44.633,26.832L44.656,26.855C44.719,26.793 44.766,26.719 44.828,26.656C44.941,26.547 45.059,26.453 45.176,26.34C45.223,26.293 45.262,26.238 45.305,26.191C45.359,26.145 45.41,26.098 45.465,26.047L45.449,26.031ZM32.871,11.605C33.051,11.363 33.23,11.125 33.422,10.887C33.465,10.832 33.508,10.773 33.551,10.719C33.645,10.605 33.738,10.496 33.832,10.383C35.059,8.945 36.27,8.188 37.418,8.141C39.063,8.086 40.355,9.402 41.145,10.195L41.27,10.324C42.453,11.508 44.008,14.34 44.684,17.469C45.094,19.348 45.461,22.715 43.641,25C41.609,26.797 39.199,27.305 36.461,26.473C34.074,25.75 32.109,24.223 31.406,23.52C29.063,21.18 29.777,15.922 32.871,11.605ZM26.473,36.461C27.305,39.199 26.797,41.609 25,43.641C22.719,45.461 19.352,45.094 17.473,44.684C14.344,44.008 11.508,42.453 10.324,41.27L10.195,41.145C9.406,40.355 8.078,39.039 8.145,37.418C8.188,36.27 8.945,35.059 10.387,33.832C10.496,33.738 10.605,33.645 10.723,33.551C10.777,33.504 10.836,33.465 10.891,33.418C11.129,33.23 11.367,33.051 11.605,32.871C15.922,29.777 21.18,29.066 23.52,31.406C24.227,32.109 25.75,34.074 26.473,36.461Z" style="fill-rule:nonzero;"/>
        </g>
        <g transform="matrix(9.22294,-0.719309,0.719309,9.22294,1685.11,568.059)">
            <path d="M15,2C14.504,2 14.07,2.352 14,2.844L13,9.844C12.969,10.066 12.965,10.121 12.938,10.313C9.43,13.195 7,17.324 6.25,22L5,22C4.449,22 4,22.449 4,23L4,27C4,27.551 4.449,28 5,28L6.25,28C7,32.676 9.43,36.805 12.938,39.688C12.969,39.879 12.969,39.934 13,40.156L14,47.156C14.07,47.648 14.504,48 15,48L35,48C35.496,48 35.93,47.648 36,47.156L37,40.156C37.031,39.934 37.035,39.879 37.063,39.688C41.305,36.199 44,30.91 44,25C44,19.09 41.305,13.801 37.063,10.313C37.031,10.121 37.031,10.066 37,9.844L36,2.844C35.93,2.352 35.496,2 35,2L15,2ZM25,8C34.402,8 42,15.598 42,25C42,34.402 34.402,42 25,42C15.598,42 8,34.402 8,25C8,15.598 15.598,8 25,8ZM25,10C16.715,10 10,16.715 10,25C10,33.285 16.715,40 25,40C33.285,40 40,33.285 40,25C40,16.715 33.285,10 25,10ZM18,22L32,22C32.551,22 33,22.445 33,23C33,23.555 32.551,24 32,24L18,24C17.449,24 17,23.555 17,23C17,22.445 17.449,22 18,22ZM20,26L30,26C30.551,26 31,26.445 31,27C31,27.555 30.551,28 30,28L20,28C19.449,28 19,27.555 19,27C19,26.445 19.449,26 20,26Z" style="fill-rule:nonzero;"/>
        </g>
        <g transform="matrix(8.78339,2.90381,-2.90381,8.78339,544.509,1173.75)">
            <path d="M15,2C14.504,2 14.07,2.352 14,2.844L13,9.844C12.969,10.066 12.965,10.121 12.938,10.313C9.43,13.195 7,17.324 6.25,22L5,22C4.449,22 4,22.449 4,23L4,27C4,27.551 4.449,28 5,28L6.25,28C7,32.676 9.43,36.805 12.938,39.688C12.969,39.879 12.969,39.934 13,40.156L14,47.156C14.07,47.648 14.504,48 15,48L35,48C35.496,48 35.93,47.648 36,47.156L37,40.156C37.031,39.934 37.035,39.879 37.063,39.688C41.305,36.199 44,30.91 44,25C44,19.09 41.305,13.801 37.063,10.313C37.031,10.121 37.031,10.066 37,9.844L36,2.844C35.93,2.352 35.496,2 35,2L15,2ZM25,8C34.402,8 42,15.598 42,25C42,34.402 34.402,42 25,42C15.598,42 8,34.402 8,25C8,15.598 15.598,8 25,8ZM25,10C16.715,10 10,16.715 10,25C10,33.285 16.715,40 25,40C33.285,40 40,33.285 40,25C40,16.715 33.285,10 25,10ZM18,22L32,22C32.551,22 33,22.445 33,23C33,23.555 32.551,24 32,24L18,24C17.449,24 17,23.555 17,23C17,22.445 17.449,22 18,22ZM20,26L30,26C30.551,26 31,26.445 31,27C31,27.555 30.551,28 30,28L20,28C19.449,28 19,27.555 19,27C19,26.445 19.449,26 20,26Z" style="fill-rule:nonzero;"/>
        </g>
        <g transform="matrix(9.22294,-0.719309,0.719309,9.22294,-314.93,568.059)">
            <path d="M15,2C14.504,2 14.07,2.352 14,2.844L13,9.844C12.969,10.066 12.965,10.121 12.938,10.313C9.43,13.195 7,17.324 6.25,22L5,22C4.449,22 4,22.449 4,23L4,27C4,27.551 4.449,28 5,28L6.25,28C7,32.676 9.43,36.805 12.938,39.688C12.969,39.879 12.969,39.934 13,40.156L14,47.156C14.07,47.648 14.504,48 15,48L35,48C35.496,48 35.93,47.648 36,47.156L37,40.156C37.031,39.934 37.035,39.879 37.063,39.688C41.305,36.199 44,30.91 44,25C44,19.09 41.305,13.801 37.063,10.313C37.031,10.121 37.031,10.066 37,9.844L36,2.844C35.93,2.352 35.496,2 35,2L15,2ZM25,8C34.402,8 42,15.598 42,25C42,34.402 34.402,42 25,42C15.598,42 8,34.402 8,25C8,15.598 15.598,8 25,8ZM25,10C16.715,10 10,16.715 10,25C10,33.285 16.715,40 25,40C33.285,40 40,33.285 40,25C40,16.715 33.285,10 25,10ZM18,22L32,22C32.551,22 33,22.445 33,23C33,23.555 32.551,24 32,24L18,24C17.449,24 17,23.555 17,23C17,22.445 17.449,22 18,22ZM20,26L30,26C30.551,26 31,26.445 31,27C31,27.555 30.551,28 30,28L20,28C19.449,28 19,27.555 19,27C19,26.445 19.449,26 20,26Z" style="fill-rule:nonzero;"/>
        </g>
    </g>
</svg>
