<?xml version="1.0" encoding="UTF-8" standalone="no"?>
<!DOCTYPE svg PUBLIC "-//W3C//DTD SVG 1.1//EN" "http://www.w3.org/Graphics/SVG/1.1/DTD/svg11.dtd">
<svg width="100%" height="100%" viewBox="0 0 2000 2000" version="1.1" xmlns="http://www.w3.org/2000/svg" xmlns:xlink="http://www.w3.org/1999/xlink" xml:space="preserve" xmlns:serif="http://www.serif.com/" style="fill-rule:evenodd;clip-rule:evenodd;stroke-linejoin:round;stroke-miterlimit:2;">
    <g transform="matrix(1,0,0,1,-4426.4,0)">
        <g id="_-" serif:id=" " transform="matrix(1,0,0,1,4426.4,0)">
            <rect x="0" y="0" width="2000" height="2000" style="fill:none;"/>
            <clipPath id="_clip1">
                <rect x="0" y="0" width="2000" height="2000"/>
            </clipPath>
            <g clip-path="url(#_clip1)">
                <g transform="matrix(0.954198,0,0,0.922509,91.6031,154.982)">
                    <rect x="-96" y="-168" width="2096" height="2168" style="fill:rgb(214,193,154);"/>
                </g>
                <g transform="matrix(8.81393,-5.08872,5.08872,8.81393,-251.842,190.863)">
                    <path d="M5.969,5C4.332,5 3,6.355 3,8L3,24.406C2.605,24.68 2.215,24.969 1.844,25.281C1.398,25.656 1.344,26.336 1.719,26.781C2.094,27.227 2.773,27.277 3.219,26.906C5.758,24.77 8.965,23.594 12.281,23.594C20.066,23.594 26.406,29.934 26.406,37.719C26.406,38.301 26.887,38.75 27.469,38.75C28.051,38.75 28.5,38.301 28.5,37.719C28.5,37.48 28.48,37.238 28.469,37L42.969,37C44.484,37 46.43,35.605 46.969,34.125L49.875,26.188C50.125,25.5 50.035,24.805 49.625,24.219C49.109,23.484 48.105,23 47.063,23L28.781,23L24.656,7.781C24.293,6.066 23.141,5 21.688,5L5.969,5ZM41,9.938C36.586,9.938 33.938,12.504 33.938,16.813L33.938,21L40.063,21L40.063,17C40.063,14.656 40.746,14.09 40.938,14.063C41.227,14.082 41.504,13.98 41.719,13.781C41.934,13.582 42.063,13.293 42.063,13L42.063,11C42.063,10.418 41.582,9.938 41,9.938ZM8,10L20.469,10L22.906,19L8,19L8,10ZM12,26C5.383,26 0,31.383 0,38C0,44.617 5.383,50 12,50C18.617,50 24,44.617 24,38C24,31.383 18.617,26 12,26ZM12,33.5C14.48,33.5 16.5,35.52 16.5,38C16.5,40.48 14.48,42.5 12,42.5C9.52,42.5 7.5,40.48 7.5,38C7.5,35.52 9.52,33.5 12,33.5ZM45.969,38.094C45.023,38.656 43.961,39 42.969,39L41.625,39C42.465,39.734 43,40.801 43,42C43,44.203 41.203,46 39,46C36.797,46 35,44.203 35,42C35,40.801 35.535,39.734 36.375,39L31.594,39C31.211,39.938 31,40.949 31,42C31,46.41 34.59,50 39,50C43.41,50 47,46.41 47,42C47,40.609 46.637,39.277 45.969,38.094Z" style="fill:rgb(183,148,108);fill-rule:nonzero;"/>
                </g>
                <g transform="matrix(12.4069,3.1018,-3.1018,12.4069,829.881,654.346)">
                    <path d="M5.969,5C4.332,5 3,6.355 3,8L3,24.406C2.605,24.68 2.215,24.969 1.844,25.281C1.398,25.656 1.344,26.336 1.719,26.781C2.094,27.227 2.773,27.277 3.219,26.906C5.758,24.77 8.965,23.594 12.281,23.594C20.066,23.594 26.406,29.934 26.406,37.719C26.406,38.301 26.887,38.75 27.469,38.75C28.051,38.75 28.5,38.301 28.5,37.719C28.5,37.48 28.48,37.238 28.469,37L42.969,37C44.484,37 46.43,35.605 46.969,34.125L49.875,26.188C50.125,25.5 50.035,24.805 49.625,24.219C49.109,23.484 48.105,23 47.063,23L28.781,23L24.656,7.781C24.293,6.066 23.141,5 21.688,5L5.969,5ZM41,9.938C36.586,9.938 33.938,12.504 33.938,16.813L33.938,21L40.063,21L40.063,17C40.063,14.656 40.746,14.09 40.938,14.063C41.227,14.082 41.504,13.98 41.719,13.781C41.934,13.582 42.063,13.293 42.063,13L42.063,11C42.063,10.418 41.582,9.938 41,9.938ZM8,10L20.469,10L22.906,19L8,19L8,10ZM12,26C5.383,26 0,31.383 0,38C0,44.617 5.383,50 12,50C18.617,50 24,44.617 24,38C24,31.383 18.617,26 12,26ZM12,33.5C14.48,33.5 16.5,35.52 16.5,38C16.5,40.48 14.48,42.5 12,42.5C9.52,42.5 7.5,40.48 7.5,38C7.5,35.52 9.52,33.5 12,33.5ZM45.969,38.094C45.023,38.656 43.961,39 42.969,39L41.625,39C42.465,39.734 43,40.801 43,42C43,44.203 41.203,46 39,46C36.797,46 35,44.203 35,42C35,40.801 35.535,39.734 36.375,39L31.594,39C31.211,39.938 31,40.949 31,42C31,46.41 34.59,50 39,50C43.41,50 47,46.41 47,42C47,40.609 46.637,39.277 45.969,38.094Z" style="fill:rgb(183,148,108);fill-rule:nonzero;"/>
                </g>
                <g transform="matrix(8.81393,-5.08872,5.08872,8.81393,1748.15,190.863)">
                    <path d="M5.969,5C4.332,5 3,6.355 3,8L3,24.406C2.605,24.68 2.215,24.969 1.844,25.281C1.398,25.656 1.344,26.336 1.719,26.781C2.094,27.227 2.773,27.277 3.219,26.906C5.758,24.77 8.965,23.594 12.281,23.594C20.066,23.594 26.406,29.934 26.406,37.719C26.406,38.301 26.887,38.75 27.469,38.75C28.051,38.75 28.5,38.301 28.5,37.719C28.5,37.48 28.48,37.238 28.469,37L42.969,37C44.484,37 46.43,35.605 46.969,34.125L49.875,26.188C50.125,25.5 50.035,24.805 49.625,24.219C49.109,23.484 48.105,23 47.063,23L28.781,23L24.656,7.781C24.293,6.066 23.141,5 21.688,5L5.969,5ZM41,9.938C36.586,9.938 33.938,12.504 33.938,16.813L33.938,21L40.063,21L40.063,17C40.063,14.656 40.746,14.09 40.938,14.063C41.227,14.082 41.504,13.98 41.719,13.781C41.934,13.582 42.063,13.293 42.063,13L42.063,11C42.063,10.418 41.582,9.938 41,9.938ZM8,10L20.469,10L22.906,19L8,19L8,10ZM12,26C5.383,26 0,31.383 0,38C0,44.617 5.383,50 12,50C18.617,50 24,44.617 24,38C24,31.383 18.617,26 12,26ZM12,33.5C14.48,33.5 16.5,35.52 16.5,38C16.5,40.48 14.48,42.5 12,42.5C9.52,42.5 7.5,40.48 7.5,38C7.5,35.52 9.52,33.5 12,33.5ZM45.969,38.094C45.023,38.656 43.961,39 42.969,39L41.625,39C42.465,39.734 43,40.801 43,42C43,44.203 41.203,46 39,46C36.797,46 35,44.203 35,42C35,40.801 35.535,39.734 36.375,39L31.594,39C31.211,39.938 31,40.949 31,42C31,46.41 34.59,50 39,50C43.41,50 47,46.41 47,42C47,40.609 46.637,39.277 45.969,38.094Z" style="fill:rgb(183,148,108);fill-rule:nonzero;"/>
                </g>
                <g transform="matrix(8.17011,-2.40298,2.40298,8.17011,180.808,-338.068)">
                    <path d="M11.5,0.031C11.199,0.031 10.91,0.16 10.719,0.406L8.406,3.406L4.406,3.406C3.855,3.406 3.406,3.855 3.406,4.406L3.406,8.406L0.406,10.719C0.16,10.91 0,11.188 0,11.5L0,11.563C0,11.875 0.16,12.152 0.406,12.344L3.406,14.656L3.406,18.656C3.406,19.023 3.613,19.324 3.906,19.5C7.328,17.973 12.602,16.09 19.594,14.969L19.594,14.656L22.594,12.344C22.84,12.152 23,11.875 23,11.563L23,11.5C23,11.188 22.84,10.906 22.594,10.719L19.594,8.406L19.594,4.406C19.594,3.855 19.145,3.406 18.594,3.406L14.594,3.406L12.281,0.406C12.09,0.16 11.801,0.031 11.5,0.031ZM11.5,7C13.984,7 16,9.016 16,11.5C16,13.984 13.984,16 11.5,16C9.016,16 7,13.984 7,11.5C7,9.016 9.016,7 11.5,7ZM31.813,16C27.473,16.012 23.574,16.391 20.094,16.938C19.637,17.008 19.16,17.047 18.719,17.125C18.688,17.129 18.656,17.152 18.625,17.156C17.695,17.324 16.797,17.496 15.938,17.688C15.906,17.695 15.875,17.711 15.844,17.719C14.988,17.91 14.16,18.105 13.375,18.313C13.344,18.32 13.313,18.336 13.281,18.344C12.5,18.551 11.742,18.75 11.031,18.969C11.012,18.977 10.988,18.992 10.969,19C9.781,19.363 8.711,19.754 7.719,20.125C7.238,20.305 6.777,20.48 6.344,20.656C6.02,20.789 5.676,20.902 5.375,21.031C2.293,22.355 0.613,23.445 0.438,23.563C0.16,23.746 0,24.07 0,24.406L0,39.219C0.086,39.078 0.141,38.992 0.156,38.969C7.43,27.816 19.195,21.293 26.125,18.219C27.988,18.074 29.945,18 32,18L32.125,18C30.965,18.375 11.766,24.816 1.844,40.031C1.449,40.645 0.672,41.938 0,43.219L0,49C0,49.555 0.449,50 1,50L10.125,50C10.359,49.262 10.543,48.746 10.563,48.688C17.848,29.957 29.664,21.391 35.688,18.063C37.238,18.102 38.598,18.145 39.938,18.219C38.645,18.719 21.633,25.727 12.438,49.375C12.438,49.375 12.344,49.609 12.219,50L23.906,50C24.078,49.266 24.234,48.77 24.25,48.719C30.605,30.332 38.715,21.633 42.438,18.375C43.516,18.453 44.48,18.516 45.313,18.594C44.188,19.387 33.816,27.164 26.156,49.313C26.156,49.313 26.074,49.582 25.969,50L37,50C37.117,49.316 37.207,48.867 37.219,48.813C41.129,31.867 45.703,22.09 47.406,18.813C47.574,18.832 47.863,18.859 48,18.875C48,18.875 48.73,18.988 49.531,19.125C48.211,21.598 43.25,31.605 39.188,49.219C39.188,49.223 39.117,49.523 39.031,50L49,50C49.555,50 50,49.555 50,49L50,18C50,17.5 49.617,17.07 49.125,17C49.117,17 48.695,16.965 48.469,16.938C48.418,16.93 48.367,16.914 48.313,16.906C46.453,16.68 40.246,16 32,16L31.813,16Z" style="fill:rgb(183,148,108);fill-rule:nonzero;"/>
                </g>
                <g transform="matrix(8.17011,-2.40298,2.40298,8.17011,180.808,1661.89)">
                    <path d="M11.5,0.031C11.199,0.031 10.91,0.16 10.719,0.406L8.406,3.406L4.406,3.406C3.855,3.406 3.406,3.855 3.406,4.406L3.406,8.406L0.406,10.719C0.16,10.91 0,11.188 0,11.5L0,11.563C0,11.875 0.16,12.152 0.406,12.344L3.406,14.656L3.406,18.656C3.406,19.023 3.613,19.324 3.906,19.5C7.328,17.973 12.602,16.09 19.594,14.969L19.594,14.656L22.594,12.344C22.84,12.152 23,11.875 23,11.563L23,11.5C23,11.188 22.84,10.906 22.594,10.719L19.594,8.406L19.594,4.406C19.594,3.855 19.145,3.406 18.594,3.406L14.594,3.406L12.281,0.406C12.09,0.16 11.801,0.031 11.5,0.031ZM11.5,7C13.984,7 16,9.016 16,11.5C16,13.984 13.984,16 11.5,16C9.016,16 7,13.984 7,11.5C7,9.016 9.016,7 11.5,7ZM31.813,16C27.473,16.012 23.574,16.391 20.094,16.938C19.637,17.008 19.16,17.047 18.719,17.125C18.688,17.129 18.656,17.152 18.625,17.156C17.695,17.324 16.797,17.496 15.938,17.688C15.906,17.695 15.875,17.711 15.844,17.719C14.988,17.91 14.16,18.105 13.375,18.313C13.344,18.32 13.313,18.336 13.281,18.344C12.5,18.551 11.742,18.75 11.031,18.969C11.012,18.977 10.988,18.992 10.969,19C9.781,19.363 8.711,19.754 7.719,20.125C7.238,20.305 6.777,20.48 6.344,20.656C6.02,20.789 5.676,20.902 5.375,21.031C2.293,22.355 0.613,23.445 0.438,23.563C0.16,23.746 0,24.07 0,24.406L0,39.219C0.086,39.078 0.141,38.992 0.156,38.969C7.43,27.816 19.195,21.293 26.125,18.219C27.988,18.074 29.945,18 32,18L32.125,18C30.965,18.375 11.766,24.816 1.844,40.031C1.449,40.645 0.672,41.938 0,43.219L0,49C0,49.555 0.449,50 1,50L10.125,50C10.359,49.262 10.543,48.746 10.563,48.688C17.848,29.957 29.664,21.391 35.688,18.063C37.238,18.102 38.598,18.145 39.938,18.219C38.645,18.719 21.633,25.727 12.438,49.375C12.438,49.375 12.344,49.609 12.219,50L23.906,50C24.078,49.266 24.234,48.77 24.25,48.719C30.605,30.332 38.715,21.633 42.438,18.375C43.516,18.453 44.48,18.516 45.313,18.594C44.188,19.387 33.816,27.164 26.156,49.313C26.156,49.313 26.074,49.582 25.969,50L37,50C37.117,49.316 37.207,48.867 37.219,48.813C41.129,31.867 45.703,22.09 47.406,18.813C47.574,18.832 47.863,18.859 48,18.875C48,18.875 48.73,18.988 49.531,19.125C48.211,21.598 43.25,31.605 39.188,49.219C39.188,49.223 39.117,49.523 39.031,50L49,50C49.555,50 50,49.555 50,49L50,18C50,17.5 49.617,17.07 49.125,17C49.117,17 48.695,16.965 48.469,16.938C48.418,16.93 48.367,16.914 48.313,16.906C46.453,16.68 40.246,16 32,16L31.813,16Z" style="fill:rgb(183,148,108);fill-rule:nonzero;"/>
                </g>
                <g transform="matrix(6.10408,-3.17506,3.17506,6.10408,849.105,430.968)">
                    <path d="M11.5,0.031C11.199,0.031 10.91,0.16 10.719,0.406L8.406,3.406L4.406,3.406C3.855,3.406 3.406,3.855 3.406,4.406L3.406,8.406L0.406,10.719C0.16,10.91 0,11.188 0,11.5L0,11.563C0,11.875 0.16,12.152 0.406,12.344L3.406,14.656L3.406,18.656C3.406,19.023 3.613,19.324 3.906,19.5C7.328,17.973 12.602,16.09 19.594,14.969L19.594,14.656L22.594,12.344C22.84,12.152 23,11.875 23,11.563L23,11.5C23,11.188 22.84,10.906 22.594,10.719L19.594,8.406L19.594,4.406C19.594,3.855 19.145,3.406 18.594,3.406L14.594,3.406L12.281,0.406C12.09,0.16 11.801,0.031 11.5,0.031ZM11.5,7C13.984,7 16,9.016 16,11.5C16,13.984 13.984,16 11.5,16C9.016,16 7,13.984 7,11.5C7,9.016 9.016,7 11.5,7ZM31.813,16C27.473,16.012 23.574,16.391 20.094,16.938C19.637,17.008 19.16,17.047 18.719,17.125C18.688,17.129 18.656,17.152 18.625,17.156C17.695,17.324 16.797,17.496 15.938,17.688C15.906,17.695 15.875,17.711 15.844,17.719C14.988,17.91 14.16,18.105 13.375,18.313C13.344,18.32 13.313,18.336 13.281,18.344C12.5,18.551 11.742,18.75 11.031,18.969C11.012,18.977 10.988,18.992 10.969,19C9.781,19.363 8.711,19.754 7.719,20.125C7.238,20.305 6.777,20.48 6.344,20.656C6.02,20.789 5.676,20.902 5.375,21.031C2.293,22.355 0.613,23.445 0.438,23.563C0.16,23.746 0,24.07 0,24.406L0,39.219C0.086,39.078 0.141,38.992 0.156,38.969C7.43,27.816 19.195,21.293 26.125,18.219C27.988,18.074 29.945,18 32,18L32.125,18C30.965,18.375 11.766,24.816 1.844,40.031C1.449,40.645 0.672,41.938 0,43.219L0,49C0,49.555 0.449,50 1,50L10.125,50C10.359,49.262 10.543,48.746 10.563,48.688C17.848,29.957 29.664,21.391 35.688,18.063C37.238,18.102 38.598,18.145 39.938,18.219C38.645,18.719 21.633,25.727 12.438,49.375C12.438,49.375 12.344,49.609 12.219,50L23.906,50C24.078,49.266 24.234,48.77 24.25,48.719C30.605,30.332 38.715,21.633 42.438,18.375C43.516,18.453 44.48,18.516 45.313,18.594C44.188,19.387 33.816,27.164 26.156,49.313C26.156,49.313 26.074,49.582 25.969,50L37,50C37.117,49.316 37.207,48.867 37.219,48.813C41.129,31.867 45.703,22.09 47.406,18.813C47.574,18.832 47.863,18.859 48,18.875C48,18.875 48.73,18.988 49.531,19.125C48.211,21.598 43.25,31.605 39.188,49.219C39.188,49.223 39.117,49.523 39.031,50L49,50C49.555,50 50,49.555 50,49L50,18C50,17.5 49.617,17.07 49.125,17C49.117,17 48.695,16.965 48.469,16.938C48.418,16.93 48.367,16.914 48.313,16.906C46.453,16.68 40.246,16 32,16L31.813,16Z" style="fill:rgb(183,148,108);fill-rule:nonzero;"/>
                </g>
                <g transform="matrix(6.42479,4.94396,-4.94396,6.42479,1617.49,-204.599)">
                    <path d="M28.594,0C28.395,0.023 28.188,0.113 28.031,0.25C27.707,0.531 20.07,7.297 21,19.063C21.043,19.582 21,20 21,20L25.188,20C25.074,19.688 25,19.352 25,19C25,12.445 26.965,7.789 29.281,4.563C29.5,2.559 29.68,1.164 29.688,1.125C29.746,0.711 29.555,0.324 29.188,0.125C29.004,0.027 28.793,-0.023 28.594,0ZM37.844,0C37.738,0.008 37.633,0.02 37.531,0.063C37.102,0.242 27,4.598 27,19L27,20L30.188,20C30.059,19.637 29.98,19.234 30,18.844C30.273,13.082 33.523,6.145 37.813,3.156C38.34,2.152 38.707,1.582 38.719,1.563C38.969,1.199 38.965,0.719 38.688,0.375C38.48,0.117 38.16,-0.02 37.844,0ZM19.438,1.906C19.227,1.918 19.016,1.98 18.844,2.125C18.504,2.41 18.414,2.906 18.594,3.313C18.602,3.324 18.766,3.742 19,4.438C19.738,5.055 20.5,5.797 21.188,6.656C21.586,5.77 22.004,4.93 22.438,4.188C21.578,3.254 20.66,2.461 20.063,2.063C19.879,1.941 19.648,1.895 19.438,1.906ZM11.938,3.219C11.613,3.273 11.324,3.469 11.188,3.781C11.004,4.195 11.113,4.684 11.469,4.969C11.484,4.98 11.898,5.344 12.469,6.094C14.934,8.008 17.336,11.051 19,15.469C19.156,13.008 19.645,10.793 20.313,8.844C17.156,4.086 12.32,3.23 12.25,3.219C12.137,3.199 12.047,3.199 11.938,3.219ZM41.438,3.719C36.707,4.445 32.297,12.684 32,18.938C31.988,19.211 32,20 32,20L38.906,20L38.906,19C38.906,12.426 42.465,5.227 42.5,5.156C42.668,4.82 42.629,4.426 42.406,4.125C42.188,3.824 41.801,3.66 41.438,3.719ZM6.344,5.5C6.039,5.551 5.773,5.742 5.625,6.031C5.43,6.414 5.48,6.879 5.781,7.188C5.832,7.242 11,12.582 11,19C11,19.551 10.969,20 10.969,20L18.156,20C18.156,20 18.152,19.641 18.031,19C18,18.84 17.973,18.699 17.906,18.563C15.473,9.848 10.34,6.066 6.656,5.5C6.551,5.484 6.445,5.484 6.344,5.5ZM11,21C10.449,21 10,21.449 10,22C10,22.551 10.449,23 11,23L39,23C39.555,23 40,22.551 40,22C40,21.449 39.555,21 39,21L11,21ZM11,24C10.449,24 10,24.449 10,25C10,25.551 10.449,26 11,26L39,26C39.555,26 40,25.551 40,25C40,24.449 39.555,24 39,24L11,24ZM11,27C10.449,27 10,27.445 10,28C10,28.496 10.371,28.891 10.844,28.969C8.449,38.477 3.055,43.73 3,43.781C2.773,43.996 2.684,44.313 2.719,44.625C2.754,44.934 2.918,45.184 3.188,45.344L7.688,48.063C7.848,48.16 8.012,48.188 8.188,48.188C8.527,48.188 8.875,48.027 9.063,47.719C9.34,47.262 15.746,36.574 15.969,29L17.969,29C17.777,36.305 12.5,45.832 11.063,48.281C11.086,48.363 11.109,48.426 11.156,48.5C11.293,48.73 11.492,48.906 11.75,48.969L15.75,49.969C15.832,49.988 15.922,50 16,50C16.43,50 16.836,49.738 16.969,49.313C17.133,48.785 20.93,36.531 21,29L24.031,29L26,49.094C26.051,49.605 26.484,50 27,50L31.031,50C31.082,50 31.105,49.977 31.156,49.969C31.148,49.941 31.133,49.934 31.125,49.906C30.957,49.367 27.074,36.879 27,29L29,29C29.07,36.531 32.863,48.781 33.031,49.313C33.164,49.738 33.574,50 34,50C34.082,50 34.168,49.988 34.25,49.969L38.25,48.969C38.508,48.906 38.707,48.73 38.844,48.5C38.902,48.406 38.945,48.324 38.969,48.219C37.672,46.004 32.273,36.32 32.031,29L34.031,29C34.305,36.57 40.66,47.168 40.938,47.625C41.125,47.934 41.473,48.094 41.813,48.094C41.988,48.094 42.148,48.066 42.313,47.969L46.813,45.25C47.082,45.09 47.25,44.813 47.281,44.5C47.313,44.188 47.199,43.871 46.969,43.656C46.914,43.605 41.555,38.5 39.156,28.969C39.629,28.891 40,28.496 40,28C40,27.445 39.555,27 39,27L11,27ZM22.531,34.25C21.527,41.191 19.211,48.832 18.875,49.906C18.867,49.93 18.852,49.945 18.844,49.969C18.898,49.98 18.941,50 19,50L23,50C23.516,50 23.949,49.605 24,49.094L22.531,34.25Z" style="fill:rgb(183,148,108);fill-rule:nonzero;"/>
                </g>
                <g transform="matrix(6.42479,4.94396,-4.94396,6.42479,1617.49,1795.41)">
                    <path d="M28.594,0C28.395,0.023 28.188,0.113 28.031,0.25C27.707,0.531 20.07,7.297 21,19.063C21.043,19.582 21,20 21,20L25.188,20C25.074,19.688 25,19.352 25,19C25,12.445 26.965,7.789 29.281,4.563C29.5,2.559 29.68,1.164 29.688,1.125C29.746,0.711 29.555,0.324 29.188,0.125C29.004,0.027 28.793,-0.023 28.594,0ZM37.844,0C37.738,0.008 37.633,0.02 37.531,0.063C37.102,0.242 27,4.598 27,19L27,20L30.188,20C30.059,19.637 29.98,19.234 30,18.844C30.273,13.082 33.523,6.145 37.813,3.156C38.34,2.152 38.707,1.582 38.719,1.563C38.969,1.199 38.965,0.719 38.688,0.375C38.48,0.117 38.16,-0.02 37.844,0ZM19.438,1.906C19.227,1.918 19.016,1.98 18.844,2.125C18.504,2.41 18.414,2.906 18.594,3.313C18.602,3.324 18.766,3.742 19,4.438C19.738,5.055 20.5,5.797 21.188,6.656C21.586,5.77 22.004,4.93 22.438,4.188C21.578,3.254 20.66,2.461 20.063,2.063C19.879,1.941 19.648,1.895 19.438,1.906ZM11.938,3.219C11.613,3.273 11.324,3.469 11.188,3.781C11.004,4.195 11.113,4.684 11.469,4.969C11.484,4.98 11.898,5.344 12.469,6.094C14.934,8.008 17.336,11.051 19,15.469C19.156,13.008 19.645,10.793 20.313,8.844C17.156,4.086 12.32,3.23 12.25,3.219C12.137,3.199 12.047,3.199 11.938,3.219ZM41.438,3.719C36.707,4.445 32.297,12.684 32,18.938C31.988,19.211 32,20 32,20L38.906,20L38.906,19C38.906,12.426 42.465,5.227 42.5,5.156C42.668,4.82 42.629,4.426 42.406,4.125C42.188,3.824 41.801,3.66 41.438,3.719ZM6.344,5.5C6.039,5.551 5.773,5.742 5.625,6.031C5.43,6.414 5.48,6.879 5.781,7.188C5.832,7.242 11,12.582 11,19C11,19.551 10.969,20 10.969,20L18.156,20C18.156,20 18.152,19.641 18.031,19C18,18.84 17.973,18.699 17.906,18.563C15.473,9.848 10.34,6.066 6.656,5.5C6.551,5.484 6.445,5.484 6.344,5.5ZM11,21C10.449,21 10,21.449 10,22C10,22.551 10.449,23 11,23L39,23C39.555,23 40,22.551 40,22C40,21.449 39.555,21 39,21L11,21ZM11,24C10.449,24 10,24.449 10,25C10,25.551 10.449,26 11,26L39,26C39.555,26 40,25.551 40,25C40,24.449 39.555,24 39,24L11,24ZM11,27C10.449,27 10,27.445 10,28C10,28.496 10.371,28.891 10.844,28.969C8.449,38.477 3.055,43.73 3,43.781C2.773,43.996 2.684,44.313 2.719,44.625C2.754,44.934 2.918,45.184 3.188,45.344L7.688,48.063C7.848,48.16 8.012,48.188 8.188,48.188C8.527,48.188 8.875,48.027 9.063,47.719C9.34,47.262 15.746,36.574 15.969,29L17.969,29C17.777,36.305 12.5,45.832 11.063,48.281C11.086,48.363 11.109,48.426 11.156,48.5C11.293,48.73 11.492,48.906 11.75,48.969L15.75,49.969C15.832,49.988 15.922,50 16,50C16.43,50 16.836,49.738 16.969,49.313C17.133,48.785 20.93,36.531 21,29L24.031,29L26,49.094C26.051,49.605 26.484,50 27,50L31.031,50C31.082,50 31.105,49.977 31.156,49.969C31.148,49.941 31.133,49.934 31.125,49.906C30.957,49.367 27.074,36.879 27,29L29,29C29.07,36.531 32.863,48.781 33.031,49.313C33.164,49.738 33.574,50 34,50C34.082,50 34.168,49.988 34.25,49.969L38.25,48.969C38.508,48.906 38.707,48.73 38.844,48.5C38.902,48.406 38.945,48.324 38.969,48.219C37.672,46.004 32.273,36.32 32.031,29L34.031,29C34.305,36.57 40.66,47.168 40.938,47.625C41.125,47.934 41.473,48.094 41.813,48.094C41.988,48.094 42.148,48.066 42.313,47.969L46.813,45.25C47.082,45.09 47.25,44.813 47.281,44.5C47.313,44.188 47.199,43.871 46.969,43.656C46.914,43.605 41.555,38.5 39.156,28.969C39.629,28.891 40,28.496 40,28C40,27.445 39.555,27 39,27L11,27ZM22.531,34.25C21.527,41.191 19.211,48.832 18.875,49.906C18.867,49.93 18.852,49.945 18.844,49.969C18.898,49.98 18.941,50 19,50L23,50C23.516,50 23.949,49.605 24,49.094L22.531,34.25Z" style="fill:rgb(183,148,108);fill-rule:nonzero;"/>
                </g>
                <g transform="matrix(12.6694,3.33016,-3.33016,12.6694,317.75,77.0392)">
                    <path d="M17.969,0.031C16.426,0.113 14.957,0.473 13.594,1.094C13.156,1.293 12.945,1.781 13.063,2.25C13.18,2.719 13.609,3.035 14.094,3C25.125,2.301 33.109,16.145 33.188,16.281C33.367,16.598 33.707,16.781 34.063,16.781C34.109,16.781 34.141,16.758 34.188,16.75L42.031,15.656C42.406,15.602 42.723,15.359 42.844,15C42.965,14.641 42.863,14.238 42.594,13.969C32.973,4.348 24.656,-0.332 17.969,0.031ZM40.031,17.969L36.719,18.438L23.75,31.406L20.313,27.969C20.078,27.73 19.738,27.621 19.406,27.688C19.031,27.754 18.73,28.027 18.625,28.391C18.52,28.758 18.629,29.148 18.906,29.406L22.344,32.813L6.969,48.188C6.578,48.578 6.578,49.203 6.969,49.594C7.164,49.789 7.43,49.906 7.688,49.906C7.945,49.906 8.18,49.789 8.375,49.594L24.406,33.563C24.453,33.523 24.492,33.484 24.531,33.438L40.031,17.969Z" style="fill:rgb(183,148,108);fill-rule:nonzero;"/>
                </g>
                <g transform="matrix(-11.1586,-6.86231,6.86231,-11.1586,266.56,2041)">
                    <path d="M17.969,0.031C16.426,0.113 14.957,0.473 13.594,1.094C13.156,1.293 12.945,1.781 13.063,2.25C13.18,2.719 13.609,3.035 14.094,3C25.125,2.301 33.109,16.145 33.188,16.281C33.367,16.598 33.707,16.781 34.063,16.781C34.109,16.781 34.141,16.758 34.188,16.75L42.031,15.656C42.406,15.602 42.723,15.359 42.844,15C42.965,14.641 42.863,14.238 42.594,13.969C32.973,4.348 24.656,-0.332 17.969,0.031ZM40.031,17.969L36.719,18.438L23.75,31.406L20.313,27.969C20.078,27.73 19.738,27.621 19.406,27.688C19.031,27.754 18.73,28.027 18.625,28.391C18.52,28.758 18.629,29.148 18.906,29.406L22.344,32.813L6.969,48.188C6.578,48.578 6.578,49.203 6.969,49.594C7.164,49.789 7.43,49.906 7.688,49.906C7.945,49.906 8.18,49.789 8.375,49.594L24.406,33.563C24.453,33.523 24.492,33.484 24.531,33.438L40.031,17.969Z" style="fill:rgb(183,148,108);fill-rule:nonzero;"/>
                </g>
                <g transform="matrix(-11.1586,-6.86231,6.86231,-11.1586,2266.59,2041)">
                    <path d="M17.969,0.031C16.426,0.113 14.957,0.473 13.594,1.094C13.156,1.293 12.945,1.781 13.063,2.25C13.18,2.719 13.609,3.035 14.094,3C25.125,2.301 33.109,16.145 33.188,16.281C33.367,16.598 33.707,16.781 34.063,16.781C34.109,16.781 34.141,16.758 34.188,16.75L42.031,15.656C42.406,15.602 42.723,15.359 42.844,15C42.965,14.641 42.863,14.238 42.594,13.969C32.973,4.348 24.656,-0.332 17.969,0.031ZM40.031,17.969L36.719,18.438L23.75,31.406L20.313,27.969C20.078,27.73 19.738,27.621 19.406,27.688C19.031,27.754 18.73,28.027 18.625,28.391C18.52,28.758 18.629,29.148 18.906,29.406L22.344,32.813L6.969,48.188C6.578,48.578 6.578,49.203 6.969,49.594C7.164,49.789 7.43,49.906 7.688,49.906C7.945,49.906 8.18,49.789 8.375,49.594L24.406,33.563C24.453,33.523 24.492,33.484 24.531,33.438L40.031,17.969Z" style="fill:rgb(183,148,108);fill-rule:nonzero;"/>
                </g>
                <g transform="matrix(0.883572,0.468294,-0.675933,1.27534,-3807.25,-2725.85)">
                    <rect x="4963" y="855" width="295" height="295" style="fill:rgb(183,148,108);"/>
                </g>
                <g transform="matrix(0.883572,0.468294,-0.675933,1.27534,-1807.27,-2725.85)">
                    <rect x="4963" y="855" width="295" height="295" style="fill:rgb(183,148,108);"/>
                </g>
                <g transform="matrix(1.42613,0.246229,-0.124153,0.719082,-6254.02,-730.334)">
                    <rect x="4958.33" y="1250.58" width="306.423" height="306.423" style="fill:rgb(183,148,108);"/>
                </g>
                <g transform="matrix(11.5152,-1.30267,1.30267,11.5152,712.067,-253.476)">
                    <path d="M25,1.998C24.87,1.998 24.739,2.025 24.619,2.08L7.619,9.08C7.389,9.17 7.2,9.35 7.09,9.58L1.09,22.58C0.95,22.89 0.97,23.249 1.16,23.539C1.34,23.829 1.66,24 2,24L4,24L4,45C4,45.55 4.45,46 5,46L45,46C45.55,46 46,45.55 46,45L46,24L48,24C48.34,24 48.66,23.829 48.84,23.539C49.03,23.249 49.05,22.89 48.91,22.58L42.91,9.58C42.8,9.35 42.611,9.17 42.381,9.08L25.381,2.08C25.261,2.025 25.13,1.998 25,1.998ZM21,12L29,12L29,20L21,20L21,12ZM16.744,27L33.256,27L25,32.779L16.744,27ZM15,28.221L23.256,34L15,39.779L15,28.221ZM35,28.221L35,39.779L26.744,34L35,28.221ZM25,35.221L33.256,41L16.744,41L25,35.221Z" style="fill:rgb(183,148,108);fill-rule:nonzero;"/>
                </g>
                <g transform="matrix(11.5152,-1.30267,1.30267,11.5152,712.067,1746.51)">
                    <path d="M25,1.998C24.87,1.998 24.739,2.025 24.619,2.08L7.619,9.08C7.389,9.17 7.2,9.35 7.09,9.58L1.09,22.58C0.95,22.89 0.97,23.249 1.16,23.539C1.34,23.829 1.66,24 2,24L4,24L4,45C4,45.55 4.45,46 5,46L45,46C45.55,46 46,45.55 46,45L46,24L48,24C48.34,24 48.66,23.829 48.84,23.539C49.03,23.249 49.05,22.89 48.91,22.58L42.91,9.58C42.8,9.35 42.611,9.17 42.381,9.08L25.381,2.08C25.261,2.025 25.13,1.998 25,1.998ZM21,12L29,12L29,20L21,20L21,12ZM16.744,27L33.256,27L25,32.779L16.744,27ZM15,28.221L23.256,34L15,39.779L15,28.221ZM35,28.221L35,39.779L26.744,34L35,28.221ZM25,35.221L33.256,41L16.744,41L25,35.221Z" style="fill:rgb(183,148,108);fill-rule:nonzero;"/>
                </g>
                <g transform="matrix(10.1345,5.62029,-5.62029,10.1345,1478.86,261.065)">
                    <path d="M25,1.998C24.87,1.998 24.739,2.025 24.619,2.08L7.619,9.08C7.389,9.17 7.2,9.35 7.09,9.58L1.09,22.58C0.95,22.89 0.97,23.249 1.16,23.539C1.34,23.829 1.66,24 2,24L4,24L4,45C4,45.55 4.45,46 5,46L45,46C45.55,46 46,45.55 46,45L46,24L48,24C48.34,24 48.66,23.829 48.84,23.539C49.03,23.249 49.05,22.89 48.91,22.58L42.91,9.58C42.8,9.35 42.611,9.17 42.381,9.08L25.381,2.08C25.261,2.025 25.13,1.998 25,1.998ZM21,12L29,12L29,20L21,20L21,12ZM16.744,27L33.256,27L25,32.779L16.744,27ZM15,28.221L23.256,34L15,39.779L15,28.221ZM35,28.221L35,39.779L26.744,34L35,28.221ZM25,35.221L33.256,41L16.744,41L25,35.221Z" style="fill:rgb(183,148,108);fill-rule:nonzero;"/>
                </g>
                <g transform="matrix(7.46961,-4.90732,4.90732,7.46961,85.3735,1083.76)">
                    <path d="M25,0C24.855,0 24.707,0.023 24.563,0.031C24.48,0.035 24.395,0.023 24.313,0.031C17.805,0.633 12.699,9.863 12.063,21.938C12.02,22.77 12,23.609 12,24.469C12.688,24.879 13.355,25.305 14,25.719C15.082,26.418 16.133,27.129 17.094,27.844C17.074,27.355 17.047,26.859 17.031,26.375C15.707,25.734 14.711,24.992 14,24.313C14.004,23.281 14.051,22.277 14.125,21.281C14.148,21.32 14.199,21.332 14.219,21.375C14.266,21.477 14.961,22.863 17,24.094C17.008,22.816 17.059,21.543 17.125,20.281C15.949,19.664 15.07,18.977 14.438,18.344C14.566,17.461 14.727,16.59 14.906,15.75C15.109,16.102 15.75,17.094 17.25,18.063C17.355,16.77 17.516,15.512 17.688,14.281C16.82,13.773 16.16,13.211 15.688,12.719C15.926,11.953 16.191,11.203 16.469,10.5C16.609,10.746 17.039,11.422 18,12.125C18.234,10.809 18.531,9.539 18.844,8.375C18.457,8.117 18.113,7.879 17.844,7.625C18.191,7.004 18.555,6.406 18.938,5.875C19.074,6.027 19.223,6.195 19.438,6.375C19.699,5.617 19.98,4.926 20.281,4.281C21.723,2.832 23.32,2 25,2C26.664,2 28.258,2.828 29.688,4.25C29.996,4.906 30.297,5.602 30.563,6.375C30.777,6.195 30.926,6.027 31.063,5.875C31.441,6.398 31.813,6.98 32.156,7.594C31.887,7.848 31.543,8.117 31.156,8.375C31.469,9.539 31.734,10.813 31.969,12.125C32.93,11.422 33.387,10.75 33.531,10.5C33.809,11.203 34.074,11.953 34.313,12.719C33.84,13.211 33.18,13.773 32.313,14.281C32.484,15.512 32.645,16.77 32.75,18.063C34.273,17.078 34.902,16.059 35.094,15.719C35.277,16.566 35.434,17.449 35.563,18.344C34.93,18.977 34.051,19.664 32.875,20.281C32.941,21.547 32.996,22.816 33,24.094C35.039,22.863 35.73,21.48 35.781,21.375C35.801,21.336 35.852,21.316 35.875,21.281C35.949,22.277 35.996,23.281 36,24.313C35.289,24.992 34.293,25.734 32.969,26.375C32.949,27.242 32.91,28.098 32.875,28.938C33.617,28.633 34.402,28.398 35.219,28.219C36.059,28.047 37.855,27.879 37.938,27.875C37.984,26.789 38,25.668 38,24.5C38,11.191 32.648,0.676 25.688,0.031C25.605,0.023 25.52,0.035 25.438,0.031C25.293,0.023 25.145,0 25,0ZM24,2.406C23.078,3.141 22.121,4.875 21.281,7.406C22.004,7.68 22.895,7.887 24,7.969L24,2.406ZM26,2.406L26,7.969C27.105,7.887 27.996,7.68 28.719,7.406C27.879,4.875 26.922,3.141 26,2.406ZM20.688,9.313C20.383,10.465 20.113,11.727 19.875,13.125C20.93,13.547 22.289,13.875 24,13.969L24,9.969C22.691,9.887 21.59,9.641 20.688,9.313ZM29.313,9.313C28.41,9.641 27.309,9.883 26,9.969L26,13.969C27.711,13.875 29.07,13.547 30.125,13.125C29.891,11.727 29.613,10.465 29.313,9.313ZM19.594,15.156C19.434,16.375 19.285,17.664 19.188,19.031C20.438,19.512 22.031,19.875 24,19.969L24,15.969C22.234,15.883 20.789,15.582 19.594,15.156ZM30.406,15.156C29.211,15.582 27.77,15.879 26,15.969L26,19.969C27.969,19.875 29.563,19.512 30.813,19.031C30.715,17.664 30.566,16.375 30.406,15.156ZM19.094,21.125C19.047,22.219 19,23.328 19,24.5C19,24.676 18.996,24.879 19,25.063C20.313,25.543 21.965,25.879 24,25.969L24,21.969C22.063,21.883 20.441,21.578 19.094,21.125ZM30.906,21.125C29.559,21.578 27.941,21.883 26,21.969L26,25.969C28.035,25.879 29.688,25.543 31,25.063C31.004,24.883 31,24.68 31,24.5C31,23.328 30.953,22.219 30.906,21.125ZM5.125,23C4.766,22.961 4.371,23.121 4.156,23.438C3.871,23.863 3.953,24.422 4.344,24.75C6.906,26.906 7.988,30.723 9.125,34.75C11.145,41.895 13.434,50 25,50C25.551,50 26,49.555 26,49C26,36.164 19.383,30.438 5.469,23.125C5.355,23.066 5.246,23.012 5.125,23ZM30.938,27.156C29.566,27.582 27.934,27.891 26,27.969L26,31.969C26.871,31.93 27.676,31.844 28.406,31.719C29.164,31.082 29.969,30.488 30.844,29.969C30.883,29.074 30.91,28.109 30.938,27.156ZM19.063,27.188C19.09,27.965 19.113,28.742 19.156,29.5C20,30.219 20.777,30.93 21.5,31.688C22.258,31.82 23.094,31.93 24,31.969L24,27.969C22.07,27.891 20.434,27.613 19.063,27.188ZM38.188,29.875C32.367,29.875 28.125,34.199 25.688,37.625C27.215,40.828 28,44.523 28,49C28,49.281 27.949,49.551 27.875,49.813C34.816,48.883 36.719,44.547 38.406,40.656C39.82,37.395 41.063,34.586 45.156,34C45.574,33.941 45.883,33.633 45.969,33.219C46.055,32.805 45.891,32.379 45.531,32.156C43.074,30.645 40.598,29.875 38.188,29.875Z" style="fill:rgb(183,148,108);fill-rule:nonzero;"/>
                </g>
                <g transform="matrix(-7.65877,-0.357049,0.357049,-7.65877,852.238,973.736)">
                    <path d="M28.656,0.313C28.293,0.305 27.965,0.512 27.781,0.844C27.535,1.289 27.652,1.828 28.063,2.125C28.199,2.223 41.715,12.035 42.563,22.594C42.871,26.43 41.453,29.945 38.313,33.063C35.77,35.586 32.117,37.094 28.531,37.094C24.184,37.094 20.262,34.957 17.5,31.031C17.328,30.789 17.043,30.617 16.75,30.594C16.453,30.566 16.18,30.668 15.969,30.875L12.438,34.406C13.188,34.719 14.012,35.258 14.875,36.125C15.574,36.82 16.082,37.57 16.438,38.313L16.844,37.875C20.496,41.246 25.855,43.219 31.406,43.219C36.855,43.219 41.512,41.359 44.156,38.094C49.137,31.949 50.883,25.852 49.375,19.969C46.195,7.559 29.73,0.691 29.031,0.406C28.914,0.359 28.777,0.316 28.656,0.313ZM10.125,36.031C9.496,36.102 8.934,36.379 8.406,36.906L1.906,43.375C0.496,44.785 0.723,46.66 2.531,48.469C3.555,49.492 4.582,50 5.563,50C6.313,50 7.016,49.672 7.625,49.063L14.094,42.594C15.504,41.184 15.277,39.34 13.469,37.531C12.34,36.398 11.172,35.91 10.125,36.031Z" style="fill:rgb(183,148,108);fill-rule:nonzero;"/>
                </g>
                <g transform="matrix(-5.94142,11.1339,-11.1339,-5.94142,2080.11,1322.64)">
                    <path d="M40.219,0.063C39.684,0.063 39.191,0.277 38.813,0.656C38.68,0.789 38.605,0.973 38.563,1.156L36.656,9.375L17.781,28.25C17.711,28.32 11.016,35.609 12.844,37.438C13.098,37.691 13.398,37.844 13.781,37.844C14.641,37.844 15.891,37.148 18,35.656C19.77,34.402 21.574,32.957 22.031,32.5L40.938,13.625L48.875,11.438C49.043,11.391 49.191,11.277 49.313,11.156C49.691,10.777 49.906,10.285 49.906,9.75C49.906,9.215 49.691,8.723 49.313,8.344L41.656,0.656C41.281,0.277 40.785,0.063 40.25,0.063L40.219,0.063ZM41.469,6.094C41.539,6.094 41.602,6.133 41.656,6.188L43.813,8.313C43.922,8.422 43.922,8.609 43.813,8.719L41.531,9.344L40.719,8.563L41.281,6.188C41.336,6.133 41.398,6.094 41.469,6.094ZM12.531,21.188C12.277,21.188 12.039,21.305 11.844,21.5L2.875,30.438C0.531,32.781 -1.781,39.57 2,47.844C2.105,48.078 2.324,48.277 2.563,48.375C5.242,49.441 8.172,50 11.031,50C14.824,50 18.27,48.98 19.844,47.406L28.813,38.469C29.203,38.078 29.203,37.453 28.813,37.063L24.563,32.813L23.438,33.906C22.852,34.492 20.945,36.047 19.156,37.313C16.547,39.16 15.105,39.844 13.781,39.844C12.883,39.844 12.074,39.512 11.438,38.875C11.023,38.461 10.527,37.711 10.531,36.563C10.539,32.93 16.32,26.898 16.375,26.844L17.5,25.719L13.25,21.5C13.055,21.305 12.785,21.188 12.531,21.188Z" style="fill:rgb(183,148,108);fill-rule:nonzero;"/>
                </g>
                <g transform="matrix(5.83862,3.21215,-3.21215,5.83862,1288.62,1377.89)">
                    <path d="M37.406,1.094C36.078,1.094 35.242,1.832 34.781,2.563C34.223,2.5 33.578,2.574 33.094,2.844C31.547,3.695 30.887,5.453 31.563,6.938C31.773,7.398 32.082,7.793 32.469,8.094C31.012,9.707 30.215,12.004 29.469,14.156C28.086,18.148 26.883,21.594 22.5,21.594C11.965,21.594 6.168,16.688 5.188,15.375C4.605,14.59 4.105,14 3.375,14C2.48,14 2.031,14.715 2.031,16.156C2.031,18.41 3.91,21.555 6.063,23.438C5.09,23.699 4.168,24.082 3.625,24.625C3.156,25.094 2.949,25.582 3.063,26.063C3.227,26.75 3.867,26.957 4.188,27.063C4.414,27.137 4.738,27.27 5.094,27.438C4.805,27.613 4.574,27.832 4.344,28.125C4.055,28.496 3.965,28.871 4.063,29.25C4.219,29.848 4.773,30.086 5.094,30.219C5.715,30.48 6.242,31.008 6.656,31.781C7.332,33.031 9.574,36.082 13.063,38.688C18.105,39.82 22.117,39.301 24.969,37.125C27.949,34.855 29,31.16 29,28.688C29,28.133 29.445,27.688 30,27.688C30.555,27.688 31,28.133 31,28.688C31,31.758 29.742,36.004 26.188,38.719C23.949,40.422 21.16,41.281 17.875,41.281C17.723,41.281 17.563,41.254 17.406,41.25C19.383,42.145 21.59,42.805 24,42.969L24,45.375C22.223,46.027 21.242,47.332 21.188,47.406C20.863,47.855 20.957,48.488 21.406,48.813C21.582,48.941 21.797,49 22,49C22.309,49 22.617,48.863 22.813,48.594C22.824,48.578 24.012,47 26,47C27.988,47 29.141,48.535 29.188,48.594C29.508,49.043 30.145,49.133 30.594,48.813C31.043,48.488 31.137,47.855 30.813,47.406C30.742,47.309 29.031,45 26,45L26,42.969C31.691,42.672 42,39.113 42,29.063C42,26.379 41.523,24.539 41.094,22.906C40.762,21.633 40.469,20.531 40.469,19.25C40.469,17.496 41.293,16.391 41.688,15.969C41.75,15.965 41.844,15.969 41.938,15.969C42.664,15.969 43.684,16.156 44.344,16.719C44.641,16.969 45.055,17.039 45.406,16.875C45.762,16.711 45.969,16.359 45.969,15.969C45.969,12.668 44.645,11.57 43.969,11.094C43.867,9.852 43.313,8.766 42.438,7.906C42.672,7.688 42.871,7.445 43.031,7.156C43.426,6.438 43.543,5.598 43.313,4.813C43.086,4.039 42.547,3.414 41.844,3.031C41.336,2.758 40.66,2.684 40.063,2.75C39.594,1.926 38.762,1.094 37.406,1.094ZM38.281,10C39.109,10 39.781,10.672 39.781,11.5C39.781,12.328 39.109,13 38.281,13C37.453,13 36.781,12.328 36.781,11.5C36.781,10.672 37.453,10 38.281,10Z" style="fill:rgb(183,149,108);fill-rule:nonzero;"/>
                </g>
                <g transform="matrix(5.13016,0,0,5.13016,1833.09,1232.4)">
                    <path d="M47.973,21.66C47.805,20.676 46.875,20 45.879,20L27,20C26.449,20 26,19.551 26,19C26,18.449 26.449,18 27,18L42.879,18C43.875,18 44.805,17.324 44.973,16.34C45.18,15.094 44.211,14 43,14L21,14C20.449,14 20,13.551 20,13C20,12.449 20.449,12 21,12L38.879,12C39.875,12 40.805,11.324 40.973,10.34C41.18,9.094 40.211,8 39,8L30,8C29.449,8 29,7.551 29,7C29,6.449 29.449,6 30,6L34.879,6C35.875,6 36.805,5.324 36.973,4.34C37.18,3.094 36.211,2 35,2L15.121,2C14.125,2 13.195,2.676 13.027,3.656C12.82,4.906 13.789,6 15,6L26,6C26.551,6 27,6.449 27,7C27,7.551 26.551,8 26,8L11.121,8C10.125,8 9.195,8.676 9.027,9.656C8.82,10.906 9.789,12 11,12L17,12C17.551,12 18,12.449 18,13C18,13.551 17.551,14 17,14L7.121,14C6.125,14 5.195,14.676 5.027,15.66C4.82,16.906 5.789,18 7,18L23,18C23.551,18 24,18.449 24,19C24,19.551 23.551,20 23,20L4.121,20C3.125,20 2.195,20.676 2.027,21.66C1.82,22.906 2.789,24 4,24L31,24C31.551,24 32,24.449 32,25C32,25.551 31.551,26 31,26L7.121,26C6.125,26 5.195,26.676 5.027,27.656C4.82,28.906 5.789,30 7,30L18,30C18.551,30 19,30.449 19,31C19,31.551 18.551,32 18,32L11.121,32C10.125,32 9.195,32.676 9.027,33.656C8.82,34.906 9.789,36 11,36L18,36C18.551,36 19,36.449 19,37C19,37.551 18.551,38 18,38L15.121,38C14.125,38 13.195,38.676 13.027,39.656C12.82,40.906 13.789,42 15,42L21,42C21.551,42 22,42.449 22,43C22,43.551 21.551,44 21,44L19.121,44C18.125,44 17.195,44.676 17.027,45.656C16.82,46.906 17.789,48 19,48L30.879,48C31.875,48 32.805,47.324 32.973,46.344C33.18,45.094 32.211,44 31,44L25,44C24.449,44 24,43.551 24,43C24,42.449 24.449,42 25,42L34.879,42C35.875,42 36.805,41.324 36.973,40.344C37.18,39.094 36.211,38 35,38L32,38C31.449,38 31,37.551 31,37C31,36.449 31.449,36 32,36L38.879,36C39.875,36 40.805,35.324 40.973,34.34C41.18,33.094 40.211,32 39,32L32,32C31.449,32 31,31.551 31,31C31,30.449 31.449,30 32,30L42.879,30C43.875,30 44.805,29.324 44.973,28.34C45.18,27.094 44.211,26 43,26L35,26C34.449,26 34,25.551 34,25C34,24.449 34.449,24 35,24L46,24C47.211,24 48.18,22.906 47.973,21.66ZM21.109,33.059C21.438,31.609 22.613,30.438 24.059,30.105C26.676,29.512 29,31.484 29,34C29,36.211 27.211,38 25,38C22.484,38 20.512,35.676 21.109,33.059Z" style="fill:rgb(183,149,108);fill-rule:nonzero;"/>
                </g>
                <g transform="matrix(5.13016,0,0,5.13016,-166.857,1232.4)">
                    <path d="M47.973,21.66C47.805,20.676 46.875,20 45.879,20L27,20C26.449,20 26,19.551 26,19C26,18.449 26.449,18 27,18L42.879,18C43.875,18 44.805,17.324 44.973,16.34C45.18,15.094 44.211,14 43,14L21,14C20.449,14 20,13.551 20,13C20,12.449 20.449,12 21,12L38.879,12C39.875,12 40.805,11.324 40.973,10.34C41.18,9.094 40.211,8 39,8L30,8C29.449,8 29,7.551 29,7C29,6.449 29.449,6 30,6L34.879,6C35.875,6 36.805,5.324 36.973,4.34C37.18,3.094 36.211,2 35,2L15.121,2C14.125,2 13.195,2.676 13.027,3.656C12.82,4.906 13.789,6 15,6L26,6C26.551,6 27,6.449 27,7C27,7.551 26.551,8 26,8L11.121,8C10.125,8 9.195,8.676 9.027,9.656C8.82,10.906 9.789,12 11,12L17,12C17.551,12 18,12.449 18,13C18,13.551 17.551,14 17,14L7.121,14C6.125,14 5.195,14.676 5.027,15.66C4.82,16.906 5.789,18 7,18L23,18C23.551,18 24,18.449 24,19C24,19.551 23.551,20 23,20L4.121,20C3.125,20 2.195,20.676 2.027,21.66C1.82,22.906 2.789,24 4,24L31,24C31.551,24 32,24.449 32,25C32,25.551 31.551,26 31,26L7.121,26C6.125,26 5.195,26.676 5.027,27.656C4.82,28.906 5.789,30 7,30L18,30C18.551,30 19,30.449 19,31C19,31.551 18.551,32 18,32L11.121,32C10.125,32 9.195,32.676 9.027,33.656C8.82,34.906 9.789,36 11,36L18,36C18.551,36 19,36.449 19,37C19,37.551 18.551,38 18,38L15.121,38C14.125,38 13.195,38.676 13.027,39.656C12.82,40.906 13.789,42 15,42L21,42C21.551,42 22,42.449 22,43C22,43.551 21.551,44 21,44L19.121,44C18.125,44 17.195,44.676 17.027,45.656C16.82,46.906 17.789,48 19,48L30.879,48C31.875,48 32.805,47.324 32.973,46.344C33.18,45.094 32.211,44 31,44L25,44C24.449,44 24,43.551 24,43C24,42.449 24.449,42 25,42L34.879,42C35.875,42 36.805,41.324 36.973,40.344C37.18,39.094 36.211,38 35,38L32,38C31.449,38 31,37.551 31,37C31,36.449 31.449,36 32,36L38.879,36C39.875,36 40.805,35.324 40.973,34.34C41.18,33.094 40.211,32 39,32L32,32C31.449,32 31,31.551 31,31C31,30.449 31.449,30 32,30L42.879,30C43.875,30 44.805,29.324 44.973,28.34C45.18,27.094 44.211,26 43,26L35,26C34.449,26 34,25.551 34,25C34,24.449 34.449,24 35,24L46,24C47.211,24 48.18,22.906 47.973,21.66ZM21.109,33.059C21.438,31.609 22.613,30.438 24.059,30.105C26.676,29.512 29,31.484 29,34C29,36.211 27.211,38 25,38C22.484,38 20.512,35.676 21.109,33.059Z" style="fill:rgb(183,149,108);fill-rule:nonzero;"/>
                </g>
            </g>
        </g>
    </g>
</svg>
