<?xml version="1.0" encoding="UTF-8" standalone="no"?>
<!DOCTYPE svg PUBLIC "-//W3C//DTD SVG 1.1//EN" "http://www.w3.org/Graphics/SVG/1.1/DTD/svg11.dtd">
<svg width="100%" height="100%" viewBox="0 0 2000 2000" version="1.1" xmlns="http://www.w3.org/2000/svg" xmlns:xlink="http://www.w3.org/1999/xlink" xml:space="preserve" xmlns:serif="http://www.serif.com/" style="fill-rule:evenodd;clip-rule:evenodd;stroke-linejoin:round;stroke-miterlimit:2;">
    <g transform="matrix(1,0,0,1,-4426.4,0)">
        <g id="_-" serif:id=" " transform="matrix(1,0,0,1,4426.4,0)">
            <rect x="0" y="0" width="2000" height="2000" style="fill:none;"/>
            <clipPath id="_clip1">
                <rect x="0" y="0" width="2000" height="2000"/>
            </clipPath>
            <g clip-path="url(#_clip1)">
                <g transform="matrix(0.954198,0,0,0.922509,91.6031,154.982)">
                    <rect x="-96" y="-168" width="2096" height="2168" style="fill:rgb(138,249,208);"/>
                </g>
                <g transform="matrix(-1.08628,0.336784,0.336784,1.08628,5083.74,-1606.87)">
                    <path d="M4577.94,672.052L4547.94,672.052C4531.4,672.052 4517.94,658.591 4517.94,642.052L4517.94,592.052C4517.94,575.513 4531.4,562.052 4547.94,562.052L4607.94,562.052L4607.94,502.052C4607.94,491.021 4616.91,482.052 4627.94,482.052L4688.16,482.052C4697.34,482.052 4706.2,486.38 4711.85,493.622L4769.53,567.782C4774.9,574.693 4777.86,583.302 4777.92,592.052L4777.94,592.052L4777.94,642.052C4777.94,658.591 4764.48,672.052 4747.94,672.052L4717.94,672.052L4717.94,692.052L4747.94,692.052C4781.03,692.052 4807.94,718.962 4807.94,752.052C4807.94,785.142 4781.03,812.052 4747.94,812.052L4547.94,812.052C4514.85,812.052 4487.94,785.142 4487.94,752.052C4487.94,718.962 4514.85,692.052 4547.94,692.052L4577.94,692.052L4577.94,672.052ZM4547.94,772.052C4536.89,772.052 4527.94,763.103 4527.94,752.052C4527.94,741.001 4536.89,732.052 4547.94,732.052C4558.99,732.052 4567.94,741.001 4567.94,752.052C4567.94,763.103 4558.99,772.052 4547.94,772.052ZM4607.94,772.052C4596.89,772.052 4587.94,763.103 4587.94,752.052C4587.94,741.001 4596.89,732.052 4607.94,732.052C4618.99,732.052 4627.94,741.001 4627.94,752.052C4627.94,763.103 4618.99,772.052 4607.94,772.052ZM4687.94,772.052C4676.89,772.052 4667.94,763.103 4667.94,752.052C4667.94,741.001 4676.89,732.052 4687.94,732.052C4698.99,732.052 4707.94,741.001 4707.94,752.052C4707.94,763.103 4698.99,772.052 4687.94,772.052ZM4747.94,772.052C4736.89,772.052 4727.94,763.103 4727.94,752.052C4727.94,741.001 4736.89,732.052 4747.94,732.052C4758.99,732.052 4767.94,741.001 4767.94,752.052C4767.94,763.103 4758.99,772.052 4747.94,772.052ZM4932.94,632.052C4917.49,632.052 4903.84,624.212 4895.74,612.322L4827.83,702.052L4917.94,702.052C4934.48,702.052 4947.94,688.591 4947.94,672.052L4947.94,629.29C4943.23,630.974 4938.23,632.052 4932.94,632.052ZM4597.94,672.052L4597.94,692.052L4697.94,692.052L4697.94,672.052L4597.94,672.052ZM4922.77,564.212C4925.88,562.823 4929.32,562.052 4932.94,562.052C4946.73,562.052 4957.94,573.263 4957.94,587.052C4957.94,600.841 4946.73,612.052 4932.94,612.052C4919.15,612.052 4907.94,600.841 4907.94,587.052C4907.94,584.67 4908.27,582.366 4908.9,580.182L4843.56,466.814C4849.68,463.622 4854.98,459.154 4859.05,453.642L4922.77,564.212ZM4688.16,502.052C4691.23,502.052 4694.18,503.501 4696.06,505.911L4753.74,580.064C4756.39,583.482 4757.84,587.732 4757.9,592.064L4643.3,592.064L4627.94,569.021L4627.94,502.052L4688.16,502.052ZM4799.85,436.644C4798.62,433.688 4797.94,430.448 4797.94,427.052C4797.94,413.263 4809.15,402.052 4822.94,402.052C4836.73,402.052 4847.94,413.263 4847.94,427.052C4847.94,440.841 4836.73,452.052 4822.94,452.052C4819.99,452.052 4817.16,451.538 4814.53,450.596L4740.51,507.291L4728.35,491.414L4799.85,436.644Z" style="fill:rgb(101,211,202);"/>
                </g>
                <g transform="matrix(-1.08628,0.336784,0.336784,1.08628,7083.71,-1606.87)">
                    <path d="M4577.94,672.052L4547.94,672.052C4531.4,672.052 4517.94,658.591 4517.94,642.052L4517.94,592.052C4517.94,575.513 4531.4,562.052 4547.94,562.052L4607.94,562.052L4607.94,502.052C4607.94,491.021 4616.91,482.052 4627.94,482.052L4688.16,482.052C4697.34,482.052 4706.2,486.38 4711.85,493.622L4769.53,567.782C4774.9,574.693 4777.86,583.302 4777.92,592.052L4777.94,592.052L4777.94,642.052C4777.94,658.591 4764.48,672.052 4747.94,672.052L4717.94,672.052L4717.94,692.052L4747.94,692.052C4781.03,692.052 4807.94,718.962 4807.94,752.052C4807.94,785.142 4781.03,812.052 4747.94,812.052L4547.94,812.052C4514.85,812.052 4487.94,785.142 4487.94,752.052C4487.94,718.962 4514.85,692.052 4547.94,692.052L4577.94,692.052L4577.94,672.052ZM4547.94,772.052C4536.89,772.052 4527.94,763.103 4527.94,752.052C4527.94,741.001 4536.89,732.052 4547.94,732.052C4558.99,732.052 4567.94,741.001 4567.94,752.052C4567.94,763.103 4558.99,772.052 4547.94,772.052ZM4607.94,772.052C4596.89,772.052 4587.94,763.103 4587.94,752.052C4587.94,741.001 4596.89,732.052 4607.94,732.052C4618.99,732.052 4627.94,741.001 4627.94,752.052C4627.94,763.103 4618.99,772.052 4607.94,772.052ZM4687.94,772.052C4676.89,772.052 4667.94,763.103 4667.94,752.052C4667.94,741.001 4676.89,732.052 4687.94,732.052C4698.99,732.052 4707.94,741.001 4707.94,752.052C4707.94,763.103 4698.99,772.052 4687.94,772.052ZM4747.94,772.052C4736.89,772.052 4727.94,763.103 4727.94,752.052C4727.94,741.001 4736.89,732.052 4747.94,732.052C4758.99,732.052 4767.94,741.001 4767.94,752.052C4767.94,763.103 4758.99,772.052 4747.94,772.052ZM4932.94,632.052C4917.49,632.052 4903.84,624.212 4895.74,612.322L4827.83,702.052L4917.94,702.052C4934.48,702.052 4947.94,688.591 4947.94,672.052L4947.94,629.29C4943.23,630.974 4938.23,632.052 4932.94,632.052ZM4597.94,672.052L4597.94,692.052L4697.94,692.052L4697.94,672.052L4597.94,672.052ZM4922.77,564.212C4925.88,562.823 4929.32,562.052 4932.94,562.052C4946.73,562.052 4957.94,573.263 4957.94,587.052C4957.94,600.841 4946.73,612.052 4932.94,612.052C4919.15,612.052 4907.94,600.841 4907.94,587.052C4907.94,584.67 4908.27,582.366 4908.9,580.182L4843.56,466.814C4849.68,463.622 4854.98,459.154 4859.05,453.642L4922.77,564.212ZM4688.16,502.052C4691.23,502.052 4694.18,503.501 4696.06,505.911L4753.74,580.064C4756.39,583.482 4757.84,587.732 4757.9,592.064L4643.3,592.064L4627.94,569.021L4627.94,502.052L4688.16,502.052ZM4799.85,436.644C4798.62,433.688 4797.94,430.448 4797.94,427.052C4797.94,413.263 4809.15,402.052 4822.94,402.052C4836.73,402.052 4847.94,413.263 4847.94,427.052C4847.94,440.841 4836.73,452.052 4822.94,452.052C4819.99,452.052 4817.16,451.538 4814.53,450.596L4740.51,507.291L4728.35,491.414L4799.85,436.644Z" style="fill:rgb(101,211,202);"/>
                </g>
                <g transform="matrix(0.543206,0.8396,-0.8396,0.543206,507.077,-13.5555)">
                    <path d="M225.531,200.113L-91.786,517.414C-102.575,528.195 -102.587,545.765 -91.798,556.593L-54.267,594.124C-48.868,599.523 -41.778,602.222 -34.688,602.222C-27.599,602.222 -20.509,599.523 -15.106,594.124L302.219,276.812L225.531,200.113ZM481.91,235.211L447.211,200.543C442.172,195.492 434.441,194.312 427.988,197.601C424.961,199.14 414.289,200.101 410.52,196.324L396.191,182.031C399.461,177.371 401.281,171.863 401.25,166.093C401.281,158.621 398.41,151.621 393.148,146.39L355.551,108.781C355.34,108.574 354.891,108.183 354.512,107.871L346.602,99.953C330.262,83.613 314.988,68.343 311.109,64.48C277.969,31.324 157.039,29.961 143.359,29.922L143.328,29.922C138.609,29.922 134.539,33.222 133.551,37.832C132.559,42.461 134.949,47.152 139.281,49.062C139.66,49.23 178.059,66.562 222.609,113.242C242.59,134.172 263.5,161.941 249.391,175.773C249.059,176.132 247.391,177.914 241.238,184.074C240.672,184.64 240.371,185.191 239.891,185.754L239.672,185.972L316.371,262.672L323.422,255.621C323.57,255.48 323.609,255.293 323.738,255.14L334.961,243.914C334.961,243.914 334.969,243.914 334.969,243.922C335.48,244.422 338.172,247.093 348.961,257.882C353.02,261.941 352.102,271.992 350.871,274.441C347.121,281.953 347.871,289.992 352.781,294.902C354.73,296.863 387.512,329.601 387.512,329.601C392.898,334.992 399.988,337.703 407.09,337.703C414.18,337.703 421.281,335.004 426.691,329.613L481.898,274.39C492.711,263.593 492.711,246.023 481.91,235.211Z" style="fill:rgb(101,211,202);fill-rule:nonzero;"/>
                </g>
                <g transform="matrix(0.543206,0.8396,-0.8396,0.543206,2507.08,-13.5555)">
                    <path d="M225.531,200.113L-91.786,517.414C-102.575,528.195 -102.587,545.765 -91.798,556.593L-54.267,594.124C-48.868,599.523 -41.778,602.222 -34.688,602.222C-27.599,602.222 -20.509,599.523 -15.106,594.124L302.219,276.812L225.531,200.113ZM481.91,235.211L447.211,200.543C442.172,195.492 434.441,194.312 427.988,197.601C424.961,199.14 414.289,200.101 410.52,196.324L396.191,182.031C399.461,177.371 401.281,171.863 401.25,166.093C401.281,158.621 398.41,151.621 393.148,146.39L355.551,108.781C355.34,108.574 354.891,108.183 354.512,107.871L346.602,99.953C330.262,83.613 314.988,68.343 311.109,64.48C277.969,31.324 157.039,29.961 143.359,29.922L143.328,29.922C138.609,29.922 134.539,33.222 133.551,37.832C132.559,42.461 134.949,47.152 139.281,49.062C139.66,49.23 178.059,66.562 222.609,113.242C242.59,134.172 263.5,161.941 249.391,175.773C249.059,176.132 247.391,177.914 241.238,184.074C240.672,184.64 240.371,185.191 239.891,185.754L239.672,185.972L316.371,262.672L323.422,255.621C323.57,255.48 323.609,255.293 323.738,255.14L334.961,243.914C334.961,243.914 334.969,243.914 334.969,243.922C335.48,244.422 338.172,247.093 348.961,257.882C353.02,261.941 352.102,271.992 350.871,274.441C347.121,281.953 347.871,289.992 352.781,294.902C354.73,296.863 387.512,329.601 387.512,329.601C392.898,334.992 399.988,337.703 407.09,337.703C414.18,337.703 421.281,335.004 426.691,329.613L481.898,274.39C492.711,263.593 492.711,246.023 481.91,235.211Z" style="fill:rgb(101,211,202);fill-rule:nonzero;"/>
                </g>
                <g transform="matrix(0.14253,-0.98979,0.98979,0.14253,1074.22,1459.1)">
                    <path d="M473.922,102.461L468.84,87.04L387.59,168.282L347.699,152.321L331.738,112.418L412.98,31.168L397.559,26.09C385.32,22.071 372.691,20.02 360,20.02C293.828,20.02 240,73.848 240,140.02C240,154.809 242.711,169.27 248.07,183.09L34.262,396.899C25.059,406.09 20,418.321 20,431.329C20,444.34 25.059,456.559 34.262,465.758C43.75,475.25 56.219,480 68.691,480C81.16,480 93.629,475.25 103.121,465.758L316.93,251.961C330.738,257.309 345.211,260.02 360,260.02C426.172,260.02 480,206.192 480,140.02C480,127.329 477.961,114.692 473.922,102.461Z" style="fill:rgb(101,211,202);fill-rule:nonzero;"/>
                </g>
                <g transform="matrix(1.07391,0.247093,-0.247093,1.07391,-4579.5,-299.159)">
                    <path d="M4616.4,210L4616.4,410L4696.4,410L4696.4,470L4476.4,470L4476.4,410L4556.4,410L4556.4,210L4476.4,210L4476.4,150L4696.4,150L4696.4,210L4616.4,210ZM4886.4,289L4886.4,325.199L4716.4,459.398L4716.4,405.301L4886.4,289ZM4536.4,368L4536.4,390L4501.3,390L4536.4,368ZM4864.1,280L4703.3,390L4636.4,390L4636.4,230L4709.3,230L4826.4,156L4826.4,280L4864.1,280ZM4886.4,56.602L4886.4,94.5L4716.4,201.898L4716.4,146L4886.4,56.602ZM4855.9,50L4703.9,130L4518.3,130L4718.3,50L4855.9,50Z" style="fill:rgb(101,211,202);fill-rule:nonzero;"/>
                </g>
                <g transform="matrix(0.987161,-0.35504,0.35504,0.987161,-5393.81,2062.55)">
                    <path d="M5946.4,1677L5826.4,1677L5826.4,1727L5946.4,1727L5946.4,1677ZM5686.4,1677L5806.4,1677L5806.4,1727L5686.4,1727C5680.88,1727 5676.4,1722.52 5676.4,1717L5676.4,1687C5676.4,1681.48 5680.88,1677 5686.4,1677ZM6086.4,1727L5966.4,1727L5966.4,1677L6086.4,1677C6091.92,1677 6096.4,1681.48 6096.4,1687L6096.4,1717C6096.4,1722.52 6091.92,1727 6086.4,1727ZM5756.4,1607L5876.4,1607L5876.4,1657L5746.4,1657L5746.4,1617C5746.4,1611.48 5750.88,1607 5756.4,1607ZM6026.4,1657L5896.4,1657L5896.4,1607L6016.4,1607C6021.92,1607 6026.4,1611.48 6026.4,1617L6026.4,1657ZM5826.4,1537L5946.4,1537C5951.92,1537 5956.4,1541.48 5956.4,1547L5956.4,1587L5816.4,1587L5816.4,1547C5816.4,1541.48 5820.88,1537 5826.4,1537ZM5962.91,1386.49L5980.62,1368.83L5980.76,1368.69L5994.76,1383L5994.69,1383.07L5977.01,1400.67L5990.87,1444.08C5992.49,1449.14 5989.87,1454.58 5984.9,1456.47L5879.95,1496.35C5876.26,1497.75 5872.08,1496.85 5869.3,1494.04C5866.52,1491.24 5865.65,1487.06 5867.08,1483.37L5908.21,1377.67C5910.16,1372.66 5915.73,1370.09 5920.81,1371.86L5962.91,1386.49ZM5980.79,1340.5L6015.88,1305.5C6021.45,1300 6028.98,1296.95 6036.81,1297.03C6044.63,1297.11 6052.11,1300.32 6057.56,1305.93L6057.77,1306.14C6063.32,1311.88 6066.41,1319.56 6066.4,1327.54C6066.4,1335.44 6063.27,1343.02 6057.7,1348.62L6022.89,1383.21L5980.79,1340.5Z" style="fill:rgb(101,211,202);"/>
                </g>
                <g transform="matrix(0.973292,0.229571,-0.229571,0.973292,-3891.51,-1109.31)">
                    <path d="M4674.4,1709L4644.4,1709C4627.86,1709 4614.4,1695.54 4614.4,1679L4614.4,1559C4614.4,1542.46 4627.86,1529 4644.4,1529L4784.62,1529C4793.8,1529 4802.66,1533.33 4808.31,1540.57L4865.99,1614.73C4871.36,1621.64 4874.31,1630.25 4874.38,1639L4874.4,1639L4874.4,1679C4874.4,1695.54 4860.94,1709 4844.4,1709L4834.4,1709L4834.4,1729L4864.4,1729C4897.49,1729 4924.4,1755.91 4924.4,1789C4924.4,1822.09 4897.49,1849 4864.4,1849L4644.4,1849C4611.31,1849 4584.4,1822.09 4584.4,1789C4584.4,1755.91 4611.31,1729 4644.4,1729L4674.4,1729L4674.4,1709ZM4644.4,1809C4633.35,1809 4624.4,1800.05 4624.4,1789C4624.4,1777.95 4633.35,1769 4644.4,1769C4655.45,1769 4664.4,1777.95 4664.4,1789C4664.4,1800.05 4655.45,1809 4644.4,1809ZM4704.4,1809C4693.35,1809 4684.4,1800.05 4684.4,1789C4684.4,1777.95 4693.35,1769 4704.4,1769C4715.45,1769 4724.4,1777.95 4724.4,1789C4724.4,1800.05 4715.45,1809 4704.4,1809ZM4804.4,1809C4793.35,1809 4784.4,1800.05 4784.4,1789C4784.4,1777.95 4793.35,1769 4804.4,1769C4815.45,1769 4824.4,1777.95 4824.4,1789C4824.4,1800.05 4815.45,1809 4804.4,1809ZM4864.4,1809C4853.35,1809 4844.4,1800.05 4844.4,1789C4844.4,1777.95 4853.35,1769 4864.4,1769C4875.45,1769 4884.4,1777.95 4884.4,1789C4884.4,1800.05 4875.45,1809 4864.4,1809ZM5004.4,1389L5004.53,1389L5004.56,1389L5004.57,1389L5004.6,1389L5004.66,1389L5004.73,1389.01L5004.74,1389.01L5004.75,1389.01C5006.31,1389.06 5007.78,1389.47 5009.08,1390.16L5009.1,1390.17L5009.14,1390.2L5009.16,1390.21L5009.18,1390.22C5010.87,1391.13 5012.28,1392.53 5013.22,1394.28C5013.42,1394.66 5013.6,1395.05 5013.75,1395.44L5013.78,1395.53L5013.79,1395.56C5013.81,1395.6 5013.82,1395.64 5013.84,1395.68L5013.84,1395.69L5013.84,1395.71L5013.87,1395.79L5013.89,1395.86C5014.22,1396.84 5014.4,1397.9 5014.4,1399L5014.4,1651.67C5020.38,1655.13 5024.4,1661.6 5024.4,1669C5024.4,1676.4 5020.38,1682.87 5014.4,1686.33L5014.4,1698.82C5014.4,1699.55 5014.68,1700.33 5015.37,1700.53C5034.28,1705.91 5047.51,1724.85 5043.77,1746.16C5040.95,1762.29 5027.71,1775.53 5011.57,1778.37C4986.3,1782.81 4964.4,1763.45 4964.4,1739C4964.4,1733.48 4968.88,1729 4974.4,1729C4979.92,1729 4984.4,1733.48 4984.4,1739C4984.4,1751.26 4995.44,1760.9 5008.11,1758.67C5016.11,1757.27 5022.67,1750.71 5024.07,1742.71C5025.94,1732.01 5019.38,1722.47 5009.88,1719.76C5000.65,1717.12 4994.4,1708.42 4994.4,1698.82L4994.4,1686.33C4988.42,1682.87 4984.4,1676.4 4984.4,1669C4984.4,1661.6 4988.42,1655.13 4994.4,1651.67L4994.4,1432L4875.22,1610.67C4874.75,1609.99 4874.38,1609.24 4873.87,1608.59L4862.4,1593.85L4873.46,1577.27L4866.57,1512.45L4828.85,1550.71L4816.46,1534.79L4957.28,1391.98C4959.16,1390.07 4961.72,1389 4964.4,1389L5004.4,1389ZM4694.4,1709L4694.4,1729L4814.4,1729L4814.4,1709L4694.4,1709ZM4784.62,1549C4787.69,1549 4790.64,1550.45 4792.52,1552.86L4850.2,1627.01C4852.85,1630.42 4854.29,1634.68 4854.36,1639.01L4772.05,1639.01L4747.5,1549.01L4784.62,1549.01L4784.62,1549ZM4885.51,1501.43L4890.81,1551.27L4925.81,1498.8L4885.51,1501.43ZM4930.47,1447.64L4898.01,1480.57L4933.03,1478.29L4930.47,1447.64ZM4951.59,1460.15L4985.71,1409L4968.58,1409L4948.98,1428.88L4951.59,1460.15Z" style="fill:rgb(101,211,202);"/>
                </g>
                <g transform="matrix(0.939346,0.34297,-0.34297,0.939346,697.782,347.735)">
                    <path d="M346.377,342.384C368.793,305.171 376.492,299.93 391.66,299.93C406.199,299.93 417.77,309.781 426.051,329.23C432.52,344.441 498.371,484.328 499.039,485.738C500.5,488.84 500.27,492.469 498.441,495.359C496.609,498.25 493.43,500 490,500L250,500C246.559,500 243.359,498.23 241.531,495.32C239.699,492.398 239.488,488.762 240.988,485.648C241.359,484.879 278.301,408.25 283.691,396.559C291.09,380.48 309.07,380.48 314.98,380.48C318.574,380.48 325.032,376.625 336.02,359.564L292.91,338C294.75,336.27 296.41,334.379 297.781,332.23C300.25,328.34 301.59,324.281 302.23,320.309L346.377,342.384ZM41.521,211.792C37.539,211.951 34.083,210.924 31.211,209.52C26.262,207.102 17.859,196.309 29.359,183.988C29.359,183.988 93.23,114.57 96.828,110.969C100.289,107.512 103.75,106.359 109.82,105.969C115.891,105.578 180.531,102.32 180.531,102.32C180.68,102.328 180.828,102.41 180.969,102.43C181.07,102.422 181.27,102.32 181.359,102.32C187.129,102.32 195.211,105.41 217.789,120.859C240.359,136.309 248.41,147.609 248.41,147.609L248.309,147.82C251.941,152.012 254.629,157.941 255.891,164.941C255.891,164.941 277.789,289.75 281.539,305.609C284.648,318.77 281.859,325.16 270.078,327.672C258.34,330.172 250.672,320.578 246.25,305.621C242.828,294.02 228.391,235.078 220.578,203.621L182.988,260.699L90.747,214.582L90.75,214.578L90.741,214.574C100.945,200.213 122.032,170.318 134.07,151.699L110.441,152.73L62.391,200.398L90.741,214.574L90.738,214.578L90.747,214.582C87.147,219.65 84.879,222.82 84.879,222.82C83.329,225.377 81.74,228.426 80.202,231.666L172.988,278.059L168.93,286.211C168.93,286.211 203,347.66 208.461,357.051C210.781,361.051 212.801,368.262 213.09,374.02C213.379,379.781 216.469,446.93 216.469,461.309C216.469,477.371 216.469,489.98 196.941,489.98C177.41,489.98 176.539,465.648 176.539,465.648L164.328,367.09L112.09,318.629L55.07,469.621C55.07,469.621 48.648,496.051 27.02,488.551C6.648,481.48 10.578,459.699 12.309,453.059C14.039,446.441 67.969,264.059 69.871,257.82C71.301,253.13 75.518,241.517 80.188,231.666L41.521,211.792C42.667,211.746 43.858,211.602 45.09,211.34C41.5,211.781 39.281,210.68 41.5,211.781L41.521,211.792ZM172.988,278.059L225.102,304.109C223.43,297.809 221.129,288.77 218.551,278.48L182.988,260.699L177.449,269.121L172.988,278.059ZM254.98,110C224.66,110 200,85.32 200,54.98C200,24.66 224.66,0 254.98,0C285.32,0 310,24.66 310,54.98C310,85.32 285.32,110 254.98,110Z" style="fill:rgb(101,211,202);fill-rule:nonzero;"/>
                </g>
                <g transform="matrix(0.658353,-0.426785,0.426785,0.658353,1214.07,1689.25)">
                    <path d="M346.377,342.384C368.793,305.171 376.492,299.93 391.66,299.93C406.199,299.93 417.77,309.781 426.051,329.23C432.52,344.441 498.371,484.328 499.039,485.738C500.5,488.84 500.27,492.469 498.441,495.359C496.609,498.25 493.43,500 490,500L250,500C246.559,500 243.359,498.23 241.531,495.32C239.699,492.398 239.488,488.762 240.988,485.648C241.359,484.879 278.301,408.25 283.691,396.559C291.09,380.48 309.07,380.48 314.98,380.48C318.574,380.48 325.032,376.625 336.02,359.564L292.91,338C294.75,336.27 296.41,334.379 297.781,332.23C300.25,328.34 301.59,324.281 302.23,320.309L346.377,342.384ZM41.521,211.792C37.539,211.951 34.083,210.924 31.211,209.52C26.262,207.102 17.859,196.309 29.359,183.988C29.359,183.988 93.23,114.57 96.828,110.969C100.289,107.512 103.75,106.359 109.82,105.969C115.891,105.578 180.531,102.32 180.531,102.32C180.68,102.328 180.828,102.41 180.969,102.43C181.07,102.422 181.27,102.32 181.359,102.32C187.129,102.32 195.211,105.41 217.789,120.859C240.359,136.309 248.41,147.609 248.41,147.609L248.309,147.82C251.941,152.012 254.629,157.941 255.891,164.941C255.891,164.941 277.789,289.75 281.539,305.609C284.648,318.77 281.859,325.16 270.078,327.672C258.34,330.172 250.672,320.578 246.25,305.621C242.828,294.02 228.391,235.078 220.578,203.621L182.988,260.699L90.747,214.582L90.75,214.578L90.741,214.574C100.945,200.213 122.032,170.318 134.07,151.699L110.441,152.73L62.391,200.398L90.741,214.574L90.738,214.578L90.747,214.582C87.147,219.65 84.879,222.82 84.879,222.82C83.329,225.377 81.74,228.426 80.202,231.666L172.988,278.059L168.93,286.211C168.93,286.211 203,347.66 208.461,357.051C210.781,361.051 212.801,368.262 213.09,374.02C213.379,379.781 216.469,446.93 216.469,461.309C216.469,477.371 216.469,489.98 196.941,489.98C177.41,489.98 176.539,465.648 176.539,465.648L164.328,367.09L112.09,318.629L55.07,469.621C55.07,469.621 48.648,496.051 27.02,488.551C6.648,481.48 10.578,459.699 12.309,453.059C14.039,446.441 67.969,264.059 69.871,257.82C71.301,253.13 75.518,241.517 80.188,231.666L41.521,211.792C42.667,211.746 43.858,211.602 45.09,211.34C41.5,211.781 39.281,210.68 41.5,211.781L41.521,211.792ZM172.988,278.059L225.102,304.109C223.43,297.809 221.129,288.77 218.551,278.48L182.988,260.699L177.449,269.121L172.988,278.059ZM254.98,110C224.66,110 200,85.32 200,54.98C200,24.66 224.66,0 254.98,0C285.32,0 310,24.66 310,54.98C310,85.32 285.32,110 254.98,110Z" style="fill:rgb(101,211,202);fill-rule:nonzero;"/>
                </g>
                <g transform="matrix(0.871388,-0.490595,0.490595,0.871388,-2912.39,2701)">
                    <path d="M4871.3,415.102C4868.2,418.199 4865.4,421.398 4862.7,424.602C4851.8,437.102 4840.6,450 4819.2,450L4533.6,450C4512.2,450 4501,437.102 4490.1,424.602C4487.4,421.398 4484.6,418.199 4481.5,415.102C4481.2,414.699 4443.3,374.301 4446.6,340.801C4447.3,334 4449.6,328 4453.5,322.898C4459,324.602 4466.6,326.898 4475.9,329.5C4518.6,341.602 4596.7,360 4676.4,360C4756.1,360 4834.2,341.602 4876.9,329.5C4886.2,326.898 4893.8,324.602 4899.3,322.898C4903.2,328 4905.5,334 4906.2,340.801C4909.5,374.301 4871.6,414.699 4871.3,415.102ZM4894.5,303.398C4889.7,304.898 4883,307 4874.8,309.301C4834,320.898 4755.1,340 4676.4,340C4597.8,340 4518.8,320.898 4478,309.301C4469.8,307 4463.1,304.898 4458.3,303.398C4460.9,242.5 4477.5,135.898 4559,102.199C4557.3,107.398 4556.4,113 4556.4,118.699L4556.4,170C4556.4,175.5 4560.9,180 4566.4,180C4571.9,180 4576.4,175.5 4576.4,170L4576.4,118.699C4576.4,102.801 4587.5,89.199 4602.8,86.301L4616.4,83.801L4616.4,240C4616.4,245.5 4620.9,250 4626.4,250C4631.9,250 4636.4,245.5 4636.4,240L4636.4,63.301C4636.4,62.199 4636.6,61.102 4636.9,60.102C4638.4,54.301 4644.3,50 4651.4,50L4701.4,50C4709.7,50 4716.4,56 4716.4,63.301L4716.4,240C4716.4,245.5 4720.9,250 4726.4,250C4731.9,250 4736.4,245.5 4736.4,240L4736.4,82.398L4754.7,86.301C4767.1,88.898 4776.4,102.898 4776.4,118.699L4776.4,170C4776.4,175.5 4780.9,180 4786.4,180C4791.9,180 4796.4,175.5 4796.4,170L4796.4,118.699C4796.4,113 4795.6,107.5 4794.1,102.398C4875.3,136.102 4891.9,242.5 4894.5,303.398Z" style="fill:rgb(101,211,202);fill-rule:nonzero;"/>
                </g>
                <g transform="matrix(0.866025,0.5,-0.5,0.866025,-4033.24,-1035.24)">
                    <path d="M4871.3,415.102C4868.2,418.199 4865.4,421.398 4862.7,424.602C4851.8,437.102 4840.6,450 4819.2,450L4533.6,450C4512.2,450 4501,437.102 4490.1,424.602C4487.4,421.398 4484.6,418.199 4481.5,415.102C4481.2,414.699 4443.3,374.301 4446.6,340.801C4447.3,334 4449.6,328 4453.5,322.898C4459,324.602 4466.6,326.898 4475.9,329.5C4518.6,341.602 4596.7,360 4676.4,360C4756.1,360 4834.2,341.602 4876.9,329.5C4886.2,326.898 4893.8,324.602 4899.3,322.898C4903.2,328 4905.5,334 4906.2,340.801C4909.5,374.301 4871.6,414.699 4871.3,415.102ZM4894.5,303.398C4889.7,304.898 4883,307 4874.8,309.301C4834,320.898 4755.1,340 4676.4,340C4597.8,340 4518.8,320.898 4478,309.301C4469.8,307 4463.1,304.898 4458.3,303.398C4460.9,242.5 4477.5,135.898 4559,102.199C4557.3,107.398 4556.4,113 4556.4,118.699L4556.4,170C4556.4,175.5 4560.9,180 4566.4,180C4571.9,180 4576.4,175.5 4576.4,170L4576.4,118.699C4576.4,102.801 4587.5,89.199 4602.8,86.301L4616.4,83.801L4616.4,240C4616.4,245.5 4620.9,250 4626.4,250C4631.9,250 4636.4,245.5 4636.4,240L4636.4,63.301C4636.4,62.199 4636.6,61.102 4636.9,60.102C4638.4,54.301 4644.3,50 4651.4,50L4701.4,50C4709.7,50 4716.4,56 4716.4,63.301L4716.4,240C4716.4,245.5 4720.9,250 4726.4,250C4731.9,250 4736.4,245.5 4736.4,240L4736.4,82.398L4754.7,86.301C4767.1,88.898 4776.4,102.898 4776.4,118.699L4776.4,170C4776.4,175.5 4780.9,180 4786.4,180C4791.9,180 4796.4,175.5 4796.4,170L4796.4,118.699C4796.4,113 4795.6,107.5 4794.1,102.398C4875.3,136.102 4891.9,242.5 4894.5,303.398Z" style="fill:rgb(101,211,202);fill-rule:nonzero;"/>
                </g>
                <g transform="matrix(0.866025,0.5,-0.5,0.866025,-2033.29,-1035.24)">
                    <path d="M4871.3,415.102C4868.2,418.199 4865.4,421.398 4862.7,424.602C4851.8,437.102 4840.6,450 4819.2,450L4533.6,450C4512.2,450 4501,437.102 4490.1,424.602C4487.4,421.398 4484.6,418.199 4481.5,415.102C4481.2,414.699 4443.3,374.301 4446.6,340.801C4447.3,334 4449.6,328 4453.5,322.898C4459,324.602 4466.6,326.898 4475.9,329.5C4518.6,341.602 4596.7,360 4676.4,360C4756.1,360 4834.2,341.602 4876.9,329.5C4886.2,326.898 4893.8,324.602 4899.3,322.898C4903.2,328 4905.5,334 4906.2,340.801C4909.5,374.301 4871.6,414.699 4871.3,415.102ZM4894.5,303.398C4889.7,304.898 4883,307 4874.8,309.301C4834,320.898 4755.1,340 4676.4,340C4597.8,340 4518.8,320.898 4478,309.301C4469.8,307 4463.1,304.898 4458.3,303.398C4460.9,242.5 4477.5,135.898 4559,102.199C4557.3,107.398 4556.4,113 4556.4,118.699L4556.4,170C4556.4,175.5 4560.9,180 4566.4,180C4571.9,180 4576.4,175.5 4576.4,170L4576.4,118.699C4576.4,102.801 4587.5,89.199 4602.8,86.301L4616.4,83.801L4616.4,240C4616.4,245.5 4620.9,250 4626.4,250C4631.9,250 4636.4,245.5 4636.4,240L4636.4,63.301C4636.4,62.199 4636.6,61.102 4636.9,60.102C4638.4,54.301 4644.3,50 4651.4,50L4701.4,50C4709.7,50 4716.4,56 4716.4,63.301L4716.4,240C4716.4,245.5 4720.9,250 4726.4,250C4731.9,250 4736.4,245.5 4736.4,240L4736.4,82.398L4754.7,86.301C4767.1,88.898 4776.4,102.898 4776.4,118.699L4776.4,170C4776.4,175.5 4780.9,180 4786.4,180C4791.9,180 4796.4,175.5 4796.4,170L4796.4,118.699C4796.4,113 4795.6,107.5 4794.1,102.398C4875.3,136.102 4891.9,242.5 4894.5,303.398Z" style="fill:rgb(101,211,202);fill-rule:nonzero;"/>
                </g>
                <g transform="matrix(1,0,0,1,-2990.39,841.515)">
                    <path d="M4686.4,490L4626.4,490C4615.37,490 4606.4,481.031 4606.4,470L4606.4,310C4606.4,298.969 4615.37,290 4626.4,290L4686.4,290C4697.43,290 4706.4,298.969 4706.4,310L4706.4,470C4706.4,481.031 4697.43,490 4686.4,490ZM4886.4,80L4876.4,80L4876.4,191.941L4654.28,240.23C4649.68,241.23 4646.4,245.301 4646.4,250L4646.4,270L4666.4,270L4666.4,258.059L4888.53,209.77C4893.12,208.77 4896.4,204.699 4896.4,200L4896.4,90C4896.4,84.48 4891.93,80 4886.4,80ZM4846.4,170L4456.4,170C4445.37,170 4436.4,161.031 4436.4,150L4436.4,30C4436.4,18.969 4445.37,10 4456.4,10L4846.4,10C4857.43,10 4866.4,18.969 4866.4,30L4866.4,150C4866.4,161.031 4857.43,170 4846.4,170Z" style="fill:rgb(101,211,202);fill-rule:nonzero;"/>
                </g>
                <g transform="matrix(-1,4.7358e-16,-4.7358e-16,-1,1939.13,446.227)">
                    <path d="M311.5,0.57L174.559,137.48L121.199,190.832C118.281,193.742 117.461,198.14 119.109,201.91C135.961,240.351 148.84,289.07 140.379,297.519C121.551,316.351 102.93,324.05 84.922,331.511C70.102,337.64 56.09,343.441 44.738,354.812C6.398,393.16 -15.461,456.75 14.469,486.691C23.578,495.8 36.691,500.621 52.391,500.621C82.648,500.621 119.531,483.3 146.379,456.461C158.871,443.953 168.059,424.589 176.961,405.871C185.141,388.671 193.602,370.89 203.648,360.832C206.121,358.371 211.059,357.07 217.949,357.07C248.391,357.07 298.328,381.64 298.828,381.882C302.68,383.793 307.301,383.05 310.34,380L363.719,326.621L363.73,326.632L449.25,241.089C449.641,240.75 450.148,240.339 450.379,240.113C450.52,239.972 450.559,239.793 450.68,239.652L500.621,189.703L311.5,0.57ZM70,451.203C58.961,451.203 50,442.242 50,431.203C50,420.16 58.961,411.203 70,411.203C81.039,411.203 90,420.16 90,431.203C90,442.242 81.039,451.203 70,451.203ZM363.73,298.351L202.852,137.48L231.52,108.82C233.102,113.613 235.922,118.269 240.27,122.621C259,141.312 291.648,122.05 297.988,118C320.539,103.64 330.25,104.011 331.148,104.519C332.5,107.339 331.648,116.5 319.961,144.121L319.191,145.941C309.121,169.863 318.422,184.25 324.859,190.711C335.449,201.312 350.262,197.589 362.148,194.601C372.781,191.921 379.988,190.453 383.52,193.961C387.859,198.3 384.988,209.121 382.48,218.66C379.352,230.55 376.09,242.839 384.5,251.25C389.82,256.57 396.18,258.832 402.789,259.293L363.73,298.351Z" style="fill:rgb(101,211,202);fill-rule:nonzero;"/>
                </g>
                <g transform="matrix(-1,4.7358e-16,-4.7358e-16,-1,1939.13,2446.27)">
                    <path d="M311.5,0.57L174.559,137.48L121.199,190.832C118.281,193.742 117.461,198.14 119.109,201.91C135.961,240.351 148.84,289.07 140.379,297.519C121.551,316.351 102.93,324.05 84.922,331.511C70.102,337.64 56.09,343.441 44.738,354.812C6.398,393.16 -15.461,456.75 14.469,486.691C23.578,495.8 36.691,500.621 52.391,500.621C82.648,500.621 119.531,483.3 146.379,456.461C158.871,443.953 168.059,424.589 176.961,405.871C185.141,388.671 193.602,370.89 203.648,360.832C206.121,358.371 211.059,357.07 217.949,357.07C248.391,357.07 298.328,381.64 298.828,381.882C302.68,383.793 307.301,383.05 310.34,380L363.719,326.621L363.73,326.632L449.25,241.089C449.641,240.75 450.148,240.339 450.379,240.113C450.52,239.972 450.559,239.793 450.68,239.652L500.621,189.703L311.5,0.57ZM70,451.203C58.961,451.203 50,442.242 50,431.203C50,420.16 58.961,411.203 70,411.203C81.039,411.203 90,420.16 90,431.203C90,442.242 81.039,451.203 70,451.203ZM363.73,298.351L202.852,137.48L231.52,108.82C233.102,113.613 235.922,118.269 240.27,122.621C259,141.312 291.648,122.05 297.988,118C320.539,103.64 330.25,104.011 331.148,104.519C332.5,107.339 331.648,116.5 319.961,144.121L319.191,145.941C309.121,169.863 318.422,184.25 324.859,190.711C335.449,201.312 350.262,197.589 362.148,194.601C372.781,191.921 379.988,190.453 383.52,193.961C387.859,198.3 384.988,209.121 382.48,218.66C379.352,230.55 376.09,242.839 384.5,251.25C389.82,256.57 396.18,258.832 402.789,259.293L363.73,298.351Z" style="fill:rgb(101,211,202);fill-rule:nonzero;"/>
                </g>
                <g transform="matrix(1,0,0,1,-4408.01,-68.3609)">
                    <path d="M5133.46,1964L4451.14,1930L4733.21,2219L5133.46,1964Z" style="fill:rgb(101,211,202);"/>
                </g>
                <g transform="matrix(1,0,0,1,-4044.06,-830.723)">
                    <path d="M5079.08,1945L4769.51,1830.72L4812.51,2120.99L5079.08,1945Z" style="fill:rgb(101,211,202);"/>
                </g>
                <g transform="matrix(1,0,0,1,-4044.06,-830.723)">
                    <path d="M5017.11,1155L4769.51,1075.72L4711.51,1259.99L5017.11,1155Z" style="fill:rgb(101,211,202);"/>
                </g>
                <g transform="matrix(1,0,0,1,-4408.01,-2068.4)">
                    <path d="M5133.46,1964L4451.14,1930L4733.21,2219L5133.46,1964Z" style="fill:rgb(101,211,202);"/>
                </g>
                <g transform="matrix(0.94838,0.317135,-0.317135,0.94838,-3323.73,275.887)">
                    <path d="M4813.78,238.191C4811.71,247.691 4810.71,258.199 4809.78,268.602C4807.19,297.371 4804.25,330 4771.4,330C4737.54,330 4733.08,301.738 4730.4,284.84C4729.61,279.84 4728.28,271.449 4726.58,269.879C4719.64,270 4714.81,271.648 4711.63,275.039C4702.47,284.828 4704.13,310.199 4705.59,332.578C4707.37,359.871 4709.05,385.641 4695.47,400.129C4689.33,406.68 4680.9,410 4670.4,410C4627.47,410 4626.34,360.699 4625.42,321.09C4624.9,298.328 4624.25,270 4614.4,270C4611.89,270 4610.67,270.961 4606.56,275.031C4600.55,280.988 4591.46,290 4571.4,290C4543.59,290 4538.65,263.512 4534.68,242.211C4534.29,240.129 4533.88,238.059 4533.47,235.98C4518.91,229.871 4506.16,222.359 4496.4,213.238L4496.4,410C4496.4,460.469 4575.47,500 4676.4,500C4777.34,500 4856.4,460.469 4856.4,410L4856.4,213.238C4845.43,223.488 4830.64,231.691 4813.78,238.191ZM4496.4,170C4496.4,76.671 4576.71,0 4676.4,0C4776.09,0 4856.4,76.671 4856.4,170C4856.4,215.469 4763.66,240 4676.4,240C4589.14,240 4496.4,215.469 4496.4,170ZM4831.52,133.151C4813.97,68.222 4751.13,20 4676.4,20C4601.66,20 4538.83,68.222 4521.28,133.151C4554.72,111.43 4616.83,100 4676.4,100C4735.96,100 4798.08,111.43 4831.52,133.151Z" style="fill:rgb(101,211,202);fill-rule:nonzero;"/>
                </g>
                <g transform="matrix(0.94838,0.317135,-0.317135,0.94838,-3323.73,-1724.09)">
                    <path d="M4813.78,238.191C4811.71,247.691 4810.71,258.199 4809.78,268.602C4807.19,297.371 4804.25,330 4771.4,330C4737.54,330 4733.08,301.738 4730.4,284.84C4729.61,279.84 4728.28,271.449 4726.58,269.879C4719.64,270 4714.81,271.648 4711.63,275.039C4702.47,284.828 4704.13,310.199 4705.59,332.578C4707.37,359.871 4709.05,385.641 4695.47,400.129C4689.33,406.68 4680.9,410 4670.4,410C4627.47,410 4626.34,360.699 4625.42,321.09C4624.9,298.328 4624.25,270 4614.4,270C4611.89,270 4610.67,270.961 4606.56,275.031C4600.55,280.988 4591.46,290 4571.4,290C4543.59,290 4538.65,263.512 4534.68,242.211C4534.29,240.129 4533.88,238.059 4533.47,235.98C4518.91,229.871 4506.16,222.359 4496.4,213.238L4496.4,410C4496.4,460.469 4575.47,500 4676.4,500C4777.34,500 4856.4,460.469 4856.4,410L4856.4,213.238C4845.43,223.488 4830.64,231.691 4813.78,238.191ZM4496.4,170C4496.4,76.671 4576.71,0 4676.4,0C4776.09,0 4856.4,76.671 4856.4,170C4856.4,215.469 4763.66,240 4676.4,240C4589.14,240 4496.4,215.469 4496.4,170ZM4831.52,133.151C4813.97,68.222 4751.13,20 4676.4,20C4601.66,20 4538.83,68.222 4521.28,133.151C4554.72,111.43 4616.83,100 4676.4,100C4735.96,100 4798.08,111.43 4831.52,133.151Z" style="fill:rgb(101,211,202);fill-rule:nonzero;"/>
                </g>
            </g>
        </g>
    </g>
</svg>
