<?xml version="1.0" encoding="UTF-8" standalone="no"?>
<!DOCTYPE svg PUBLIC "-//W3C//DTD SVG 1.1//EN" "http://www.w3.org/Graphics/SVG/1.1/DTD/svg11.dtd">
<svg width="100%" height="100%" viewBox="0 0 2000 2000" version="1.1" xmlns="http://www.w3.org/2000/svg" xmlns:xlink="http://www.w3.org/1999/xlink" xml:space="preserve" xmlns:serif="http://www.serif.com/" style="fill-rule:evenodd;clip-rule:evenodd;stroke-linejoin:round;stroke-miterlimit:2;">
    <g>
        <g id="_-" serif:id=" ">
            <rect x="0" y="0" width="2000" height="2000" style="fill:none;"/>
            <g>
                <g transform="matrix(0.954198,0,0,0.922509,91.6031,154.982)">
                    <rect x="-96" y="-168" width="2096" height="2168" style="fill:rgb(243,100,151);"/>
                </g>
                <g transform="matrix(1.25768,0,0,1.25768,-5327.36,715.908)">
                    <path d="M4506.4,350C4506.4,275 4554.06,233.75 4596.4,210C4638.74,186.25 4685.77,180 4706.4,150C4730.95,114.289 4747.18,88.148 4772.09,72.711C4773.44,71.68 4774.87,70.762 4776.4,70C4776.4,70 4777.13,67.852 4778.73,64.738C4783.88,53.941 4797.39,30.109 4816.49,30C4821.93,29.969 4826.4,34.559 4826.4,40L4826.4,61.84C4842.05,67.371 4859.94,85.578 4869.73,118.391C4872.94,127.172 4880.39,130.828 4880.46,130.859C4884.9,132.828 4887.28,137.711 4886.1,142.422C4884.26,149.781 4876.71,180 4826.4,180L4816.4,180C4819.58,187.98 4826.4,206.07 4826.4,230C4826.4,260.359 4813.75,287.379 4788.14,312.48L4817.65,407.141C4835.95,412.301 4843.53,424.41 4846.2,437.82C4846.34,438.551 4846.41,439.281 4846.4,440C4846.33,445.398 4842.03,450 4836.38,450L4807.65,450C4794.6,450 4783.13,442.559 4774.88,431.73C4767.82,422.461 4751.91,391.469 4737.33,361.871L4705.41,295.66C4703.01,290.68 4697,288.621 4692.06,291C4687.08,293.391 4684.99,299.371 4687.39,304.352L4713.32,358.129C4703.67,386.02 4673.1,400 4656.4,400L4666.4,400C4686.4,400 4706.4,410 4706.4,440C4706.4,445.52 4701.92,450 4696.4,450L4546.4,450C4530.35,450 4516.58,440.479 4510.25,426.798C4501.35,434.993 4489.46,440 4476.4,440C4448.79,440 4426.4,417.612 4426.4,390C4426.4,293.224 4481.25,261.425 4481.25,261.425C4485.99,258.585 4492.13,260.122 4494.97,264.855C4497.81,269.588 4496.28,275.735 4491.54,278.575C4491.54,278.575 4446.4,306.769 4446.4,390C4446.4,406.568 4459.83,420 4476.4,420C4492.97,420 4506.4,406.568 4506.4,390L4506.4,350ZM4915.96,237.141C4912.4,225.441 4901.25,210 4876.4,210C4863.16,210 4853.9,213.922 4845.87,218.27C4846.18,222.051 4846.4,225.922 4846.4,230C4846.4,248.039 4842.4,265.301 4834.74,281.73C4861.29,270.031 4876.4,250 4876.4,250L4906.36,250C4912.06,250 4916.42,245.34 4916.4,240C4916.4,239.059 4916.26,238.102 4915.96,237.141ZM4845.63,129.23C4845.63,129.23 4836.4,132.301 4830.25,126.16C4824.1,120.012 4827.18,110.781 4827.18,110.781C4827.18,110.781 4836.41,107.711 4842.56,113.852C4848.71,120 4845.63,129.23 4845.63,129.23Z" style="fill:rgb(223,59,118);"/>
                </g>
                <g transform="matrix(-1.15006,0.0425975,0.0425975,1.15006,1737.92,100.693)">
                    <path d="M70,204.968C52.051,221.269 40,245.039 40,289.308L40,444.007C40,456.918 48.57,476.109 72.199,476.109L122.59,476.109L122.5,466.019C122.379,453.621 117.289,431.781 100,425.648L100,385.07C122.922,376.718 145.969,357.507 151.441,351.418C162.41,341.211 214.641,347.64 260,359.808L260.02,444.73C260.941,457.347 270.691,476.109 293.801,476.109L339.34,476.109L339.98,466.789C340.141,464.531 341.172,444.371 330.031,432.429C327.191,429.39 323.801,427.129 320.012,425.73L320.012,360.148C330.66,350.488 361.059,320.05 370.059,280.39C374.422,260.968 389.41,202.699 391.781,193.519C393,192.078 399.449,186.109 422,186.109C439.422,186.109 454.02,176.168 463.102,158.168C463.371,157.64 463.41,157.57 469.27,143.05L473.18,133.39L425.84,116.507C424.738,101.949 415.859,82.308 387.121,76.769C388.77,70.359 390,61.519 390,46.109L390,30L375.559,37.148C373.852,37.988 333.301,58.25 313.031,84.019C313.031,84.019 304.18,94.98 303.879,95.41C302.852,96.738 293.648,109.218 292.422,110.98C291.719,111.91 279.09,131 273.66,141.347C271.629,145.648 269.09,149.75 266.109,153.578C250.84,173.218 228.551,175.847 219.82,176.121C219.871,177.359 219.738,183.769 219.738,183.769C216.391,208.98 204,229.179 195.781,242.597C194.43,244.8 191.891,248.949 190.57,251.418L188.07,289.898L149.621,275.039L149.238,274.89L148.859,274.73C128.422,265.859 122.66,238.968 119.93,216.55C119.852,215.859 111.68,170.918 127.602,168.711C128.32,168.711 142.52,162.281 141.82,214.339C144.801,238.757 148.488,252.769 156.828,256.39L169.891,261.429L170.809,247.25C170.969,244.808 175.469,237.461 178.762,232.089C186.512,219.437 197.129,202.121 199.922,181.129L200,179.808C200,139.168 167.52,106.109 127.602,106.109C89.059,106.109 60,133.019 60,168.711C60,168.711 59.648,198.039 70,204.968Z" style="fill:rgb(223,59,118);fill-rule:nonzero;"/>
                </g>
                <g transform="matrix(1.15114,0.157364,-0.157364,1.15114,872.299,1034.12)">
                    <path d="M80,30L80,150.719C75.07,162.711 50,226 50,272.719L50,470L360,470L360,316.09C360,195.98 399.801,133.922 410,120L410,30L80,30ZM380,316.09L380,466.59L450,436.59L450,266.09C450,217.961 422.719,172.07 412.129,156.078C398.219,184.738 380,237.27 380,316.09ZM226.391,399.641C214.469,399.641 210.699,395.191 201.922,395.191C193.129,395.191 186.859,400.012 175.238,400.012C161.75,400 150,384.672 150,372.359C150,351.059 175.238,352.23 182.77,329.609C188.828,311.41 192.16,310 202.852,310C216.039,310 220.359,319.691 222.629,330.922C226.391,349.57 250,359.109 250,374.422C250,384.391 244.59,399.641 226.391,399.641ZM289.18,323.961C287.551,330.82 285.949,340 276.172,340C270.961,340 267.949,334.711 265.141,330.172C262.68,326.199 260,325.301 260,320.641C260,317.672 263.23,312.969 266.148,308.219C269.219,303.219 273.078,300 277.711,300C288.078,300 291.82,312.828 289.18,323.961ZM136.02,330C128.141,330 122.352,322.02 120.672,314.039C118.301,302.84 122.238,290 132.52,290C137.121,290 140.262,294.328 143.309,299.34C146.199,304.09 150.012,309.148 150.012,312.121C150.012,316.781 148.238,318.301 145.289,321.289C141.59,325.02 141.191,330 136.02,330ZM150,255.57C150,247.289 159.469,230 174.949,230C190,230 190,249.922 190,254.809C190,259.699 187.43,280 171.5,280C155.59,280 150,263.828 150,255.57ZM238.789,280C223.512,280 220,260.602 220,255.699C220,250.801 220.359,230 233.109,230C249.309,230 260,247 260,257.82C260,266.09 254.078,280 238.789,280ZM290,130L185,130C171.191,130 160,118.809 160,105C160,91.191 171.191,80 185,80L290,80C303.809,80 315,91.191 315,105C315,118.809 303.809,130 290,130Z" style="fill:rgb(223,59,118);fill-rule:nonzero;"/>
                </g>
                <g transform="matrix(0.965926,0.258819,-0.258819,0.965926,-3067.98,-2036.81)">
                    <path d="M5544.59,1558.92C5531.97,1571.44 5510.13,1582.17 5482.95,1590.66C5481.87,1591.24 5480.68,1591.54 5479.47,1591.69C5436.29,1604.67 5380.47,1612.13 5326.39,1612.13C5249.27,1612.13 5143.89,1593.94 5108.73,1560.46L5076.56,1659.31C5078,1731.63 5180.33,1782 5326.4,1782C5426.02,1782 5509.59,1757.85 5549.96,1717.41C5567.04,1700.29 5575.88,1680.81 5576.23,1659.48L5544.59,1558.92ZM5396.4,1702C5396.4,1713.04 5387.44,1722 5376.4,1722C5365.36,1722 5356.4,1713.04 5356.4,1702C5356.4,1698.34 5357.45,1694.95 5359.17,1692L5303.62,1692C5305.35,1694.95 5306.4,1698.34 5306.4,1702C5306.4,1713.04 5297.44,1722 5286.4,1722C5275.36,1722 5266.4,1713.04 5266.4,1702C5266.4,1695.99 5269.11,1690.66 5273.3,1687C5269.11,1683.34 5266.4,1678.01 5266.4,1672C5266.4,1660.96 5275.36,1652 5286.4,1652C5297.44,1652 5306.4,1660.96 5306.4,1672L5356.4,1672C5356.4,1660.96 5365.36,1652 5376.4,1652C5387.44,1652 5396.4,1660.96 5396.4,1672C5396.4,1678.01 5393.69,1683.34 5389.51,1687C5393.69,1690.66 5396.4,1695.99 5396.4,1702ZM5536.35,1532.75L5535.56,1530.23C5535.51,1530.08 5535.55,1529.94 5535.51,1529.8C5529.77,1515.67 5498.17,1494.08 5443.42,1482.94L5442.97,1482.94C5433.85,1463.26 5413.57,1450 5390.4,1450C5385.69,1450 5380.95,1450.53 5376.23,1451.58C5365.47,1439.2 5349.94,1432 5333.4,1432C5314.45,1432 5297.75,1440.95 5287.62,1455.97C5279.67,1452.04 5271.12,1450 5262.4,1450C5239.24,1450 5218.96,1463.26 5209.82,1482.94L5209.3,1482.94C5160,1492.09 5127.15,1513.78 5118.85,1529.4L5116.84,1535.56C5116.81,1535.88 5116.71,1536.22 5116.71,1536.54C5116.71,1545.81 5132.54,1556.31 5158.1,1565.67C5165.39,1568.34 5173.44,1570.92 5182.18,1573.36C5176.12,1563.39 5176.39,1550.49 5176.4,1550C5176.4,1528.94 5203.32,1514.13 5219.37,1507.18C5222.44,1505.85 5224.64,1503.08 5225.23,1499.79C5226.4,1493.38 5229.29,1487.64 5233.4,1482.94C5240.36,1474.97 5250.82,1470 5262.39,1470C5272.58,1470 5280.52,1474.35 5285.39,1478C5287.87,1479.86 5291.07,1480.47 5294.04,1479.64C5297.02,1478.82 5299.46,1476.67 5300.64,1473.81C5306.19,1460.35 5318.74,1452 5333.4,1452C5345.7,1452 5357.17,1458.19 5364.07,1468.55C5366.57,1472.3 5371.26,1473.9 5375.55,1472.49C5380.5,1470.84 5385.5,1470 5390.39,1470C5401.96,1470 5412.42,1474.97 5419.38,1482.94C5423.48,1487.64 5426.37,1493.38 5427.53,1499.79C5428.14,1503.08 5430.33,1505.85 5433.4,1507.18C5460.31,1518.84 5476.38,1534.85 5476.4,1550.7C5476.41,1550.83 5477.05,1562.82 5471.8,1573.03C5480.37,1570.51 5488.18,1567.84 5495.23,1565.08C5521.27,1554.87 5536.54,1543.51 5536.54,1534.19C5536.56,1533.73 5536.43,1533.23 5536.35,1532.75ZM5377.39,1561.95C5377.39,1561.95 5406.4,1558.53 5406.4,1532C5406.4,1526.48 5401.92,1522 5396.4,1522C5390.88,1522 5386.4,1526.48 5386.4,1532C5386.4,1541.48 5375.4,1542.05 5375.4,1542.05C5369.91,1542.6 5365.9,1547.5 5366.45,1553C5367,1558.49 5371.9,1562.5 5377.39,1561.95ZM5258.01,1527.45C5258.01,1527.45 5272.88,1552 5316.4,1552C5321.92,1552 5326.4,1547.52 5326.4,1542C5326.4,1536.48 5321.92,1532 5316.4,1532C5285.9,1532 5274.78,1516.55 5274.78,1516.55C5271.78,1511.92 5265.58,1510.61 5260.95,1513.62C5256.32,1516.62 5255.01,1522.82 5258.01,1527.45Z" style="fill:rgb(223,59,118);fill-rule:nonzero;"/>
                </g>
                <g transform="matrix(0.730884,-0.127295,0.127295,0.730884,-3297.05,-117.604)">
                    <path d="M5544.59,1558.92C5531.97,1571.44 5510.13,1582.17 5482.95,1590.66C5481.87,1591.24 5480.68,1591.54 5479.47,1591.69C5436.29,1604.67 5380.47,1612.13 5326.39,1612.13C5249.27,1612.13 5143.89,1593.94 5108.73,1560.46L5076.56,1659.31C5078,1731.63 5180.33,1782 5326.4,1782C5426.02,1782 5509.59,1757.85 5549.96,1717.41C5567.04,1700.29 5575.88,1680.81 5576.23,1659.48L5544.59,1558.92ZM5396.4,1702C5396.4,1713.04 5387.44,1722 5376.4,1722C5365.36,1722 5356.4,1713.04 5356.4,1702C5356.4,1698.34 5357.45,1694.95 5359.17,1692L5303.62,1692C5305.35,1694.95 5306.4,1698.34 5306.4,1702C5306.4,1713.04 5297.44,1722 5286.4,1722C5275.36,1722 5266.4,1713.04 5266.4,1702C5266.4,1695.99 5269.11,1690.66 5273.3,1687C5269.11,1683.34 5266.4,1678.01 5266.4,1672C5266.4,1660.96 5275.36,1652 5286.4,1652C5297.44,1652 5306.4,1660.96 5306.4,1672L5356.4,1672C5356.4,1660.96 5365.36,1652 5376.4,1652C5387.44,1652 5396.4,1660.96 5396.4,1672C5396.4,1678.01 5393.69,1683.34 5389.51,1687C5393.69,1690.66 5396.4,1695.99 5396.4,1702ZM5536.35,1532.75L5535.56,1530.23C5535.51,1530.08 5535.55,1529.94 5535.51,1529.8C5529.77,1515.67 5498.17,1494.08 5443.42,1482.94L5442.97,1482.94C5433.85,1463.26 5413.57,1450 5390.4,1450C5385.69,1450 5380.95,1450.53 5376.23,1451.58C5365.47,1439.2 5349.94,1432 5333.4,1432C5314.45,1432 5297.75,1440.95 5287.62,1455.97C5279.67,1452.04 5271.12,1450 5262.4,1450C5239.24,1450 5218.96,1463.26 5209.82,1482.94L5209.3,1482.94C5160,1492.09 5127.15,1513.78 5118.85,1529.4L5116.84,1535.56C5116.81,1535.88 5116.71,1536.22 5116.71,1536.54C5116.71,1545.81 5132.54,1556.31 5158.1,1565.67C5165.39,1568.34 5173.44,1570.92 5182.18,1573.36C5176.12,1563.39 5176.39,1550.49 5176.4,1550C5176.4,1528.94 5203.32,1514.13 5219.37,1507.18C5222.44,1505.85 5224.64,1503.08 5225.23,1499.79C5226.4,1493.38 5229.29,1487.64 5233.4,1482.94C5240.36,1474.97 5250.82,1470 5262.39,1470C5272.58,1470 5280.52,1474.35 5285.39,1478C5287.87,1479.86 5291.07,1480.47 5294.04,1479.64C5297.02,1478.82 5299.46,1476.67 5300.64,1473.81C5306.19,1460.35 5318.74,1452 5333.4,1452C5345.7,1452 5357.17,1458.19 5364.07,1468.55C5366.57,1472.3 5371.26,1473.9 5375.55,1472.49C5380.5,1470.84 5385.5,1470 5390.39,1470C5401.96,1470 5412.42,1474.97 5419.38,1482.94C5423.48,1487.64 5426.37,1493.38 5427.53,1499.79C5428.14,1503.08 5430.33,1505.85 5433.4,1507.18C5460.31,1518.84 5476.38,1534.85 5476.4,1550.7C5476.41,1550.83 5477.05,1562.82 5471.8,1573.03C5480.37,1570.51 5488.18,1567.84 5495.23,1565.08C5521.27,1554.87 5536.54,1543.51 5536.54,1534.19C5536.56,1533.73 5536.43,1533.23 5536.35,1532.75ZM5377.39,1561.95C5377.39,1561.95 5406.4,1558.53 5406.4,1532C5406.4,1526.48 5401.92,1522 5396.4,1522C5390.88,1522 5386.4,1526.48 5386.4,1532C5386.4,1541.48 5375.4,1542.05 5375.4,1542.05C5369.91,1542.6 5365.9,1547.5 5366.45,1553C5367,1558.49 5371.9,1562.5 5377.39,1561.95ZM5258.01,1527.45C5258.01,1527.45 5272.88,1552 5316.4,1552C5321.92,1552 5326.4,1547.52 5326.4,1542C5326.4,1536.48 5321.92,1532 5316.4,1532C5285.9,1532 5274.78,1516.55 5274.78,1516.55C5271.78,1511.92 5265.58,1510.61 5260.95,1513.62C5256.32,1516.62 5255.01,1522.82 5258.01,1527.45Z" style="fill:rgb(223,59,118);fill-rule:nonzero;"/>
                </g>
                <g transform="matrix(0.75206,-0.30861,0.30861,0.75206,799.641,564.736)">
                    <path d="M380,400L120,400C92.43,400 70,422.43 70,450C70,455.531 74.469,460 80,460L420,460C425.531,460 430,455.531 430,450C430,422.43 407.57,400 380,400ZM330,360L170,360C164.469,360 160,364.469 160,370C160,375.531 164.469,380 170,380L330,380C335.531,380 340,375.531 340,370C340,364.469 335.531,360 330,360ZM330,320L170,320C164.469,320 160,324.469 160,330C160,335.531 164.469,340 170,340L330,340C335.531,340 340,335.531 340,330C340,324.469 335.531,320 330,320ZM330,280L170,280C164.469,280 160,284.469 160,290C160,295.531 164.469,300 170,300L330,300C335.531,300 340,295.531 340,290C340,284.469 335.531,280 330,280ZM100,100L100,191.629C85.59,195.969 75,209.199 75,225C75,244.301 90.699,260 110,260C129.301,260 145,244.301 145,225C145,209.199 134.41,195.969 120,191.629L120,100L400,100C416.539,100 430,86.539 430,70C430,53.461 416.539,40 400,40L100,40C83.461,40 70,53.461 70,70C70,86.539 83.461,100 100,100ZM330,240L170,240C164.469,240 160,244.469 160,250C160,255.531 164.469,260 170,260L330,260C335.531,260 340,255.531 340,250C340,244.469 335.531,240 330,240ZM330,200L170,200C164.469,200 160,204.469 160,210C160,215.531 164.469,220 170,220L330,220C335.531,220 340,215.531 340,210C340,204.469 335.531,200 330,200ZM330,160L170,160C164.469,160 160,164.469 160,170C160,175.531 164.469,180 170,180L330,180C335.531,180 340,175.531 340,170C340,164.469 335.531,160 330,160ZM330,120L170,120C164.469,120 160,124.469 160,130C160,135.531 164.469,140 170,140L330,140C335.531,140 340,135.531 340,130C340,124.469 335.531,120 330,120Z" style="fill:rgb(223,59,118);fill-rule:nonzero;"/>
                </g>
                <g transform="matrix(1,0,0,1,632.891,1702.56)">
                    <path d="M250,30C128.691,30 30,128.691 30,250C30,371.309 128.691,470 250,470C371.309,470 470,371.309 470,250C470,128.691 371.309,30 250,30ZM448.02,276.629C434.41,171.52 344.57,90 235.859,90C231.949,90 228.09,90.191 224.23,90.398C209.281,102.641 196.059,116.961 185.18,133.109C197.621,131.148 210.219,130.059 222.879,130.059C299.922,130.059 367.488,165.91 409.961,222.609L409.988,222.609L409.988,222.641C425.43,243.262 437.449,266.66 445.461,292.102C442.719,304.859 438.781,317.172 433.719,328.898C429.551,303.449 421.16,279.691 409.219,258.32C406.781,288.48 398.02,318.078 383.371,344.82C360.531,386.5 324.398,420.371 280.531,441.781C284.32,443.148 288.211,444.32 292.109,445.469C278.52,448.379 264.449,450 250,450C249.879,450 249.77,449.98 249.66,449.98C177.852,413.191 130,336.648 130,249.371C130,162.699 177.879,86.621 249.711,50.02C249.809,50.012 249.898,50 250,50C264.5,50 278.602,51.641 292.23,54.578C278.57,58.602 265.531,63.988 253.328,70.719C334.879,76.77 404.719,124.891 441.699,193.301C447.02,211.289 450,230.301 450,250C450,259.051 449.191,267.891 448.02,276.629ZM118.602,400.41C88.059,360.031 70,307.57 70,249.801C70,190.359 90.641,135.699 124.641,94.391C147.879,75.629 175.379,62.051 205.449,55.18C137.09,87.602 90,163.262 90,249.801C90,336.762 134.078,410.629 200.199,443.461C169.539,435.57 141.738,420.648 118.602,400.41ZM324.379,337.102C305.629,372.488 277.719,402.121 243.441,423.48C247.648,426.16 251.988,428.629 256.41,430.98L256.301,430.699C303.449,411.949 342.34,378.031 365.82,335.191C381.871,305.93 390,274.281 390,241.129L390.039,236.5C390.059,234.43 390.078,232.059 390.09,229.852C377.199,213.672 362.051,199.512 345.02,187.77C348.25,202.891 350,218.328 350,233.93C350,269.781 341.141,305.449 324.379,337.102ZM306.711,327.738C316.949,308.41 323.762,288.02 327.25,266.859C268.602,296.051 224.371,345.73 211.371,397.922C215.988,402.461 220.828,406.75 225.871,410.809C260.398,391.09 288.352,362.398 306.711,327.738ZM174.621,348.641C180.648,360 187.602,370.762 195.551,380.66C214.422,323.629 264.09,272.602 329.699,243.621C329.859,240.398 330,237.18 330,233.93C330,220.391 328.512,207.012 325.84,193.871C251.648,215.32 194.781,273.219 174.621,348.641ZM151.07,270.078C152.781,287.871 156.609,305.039 162.422,321.25C189.02,249.691 247.148,195.539 320.949,174.43C320.809,173.98 320.719,173.52 320.57,173.07C307.301,166.359 293.141,161.148 278.398,157.301C223.43,174.031 177.422,214.781 151.07,270.078ZM150.93,229.91C173.93,195.578 204.73,168.371 240.371,150.871C234.59,150.422 228.789,150.051 222.879,150.051C205.691,150.051 188.602,152.09 172.012,156.012C160.73,178.59 153.34,203.52 150.93,229.91Z" style="fill:rgb(223,59,118);fill-rule:nonzero;"/>
                </g>
                <g transform="matrix(1,0,0,1,632.891,-297.4)">
                    <path d="M250,30C128.691,30 30,128.691 30,250C30,371.309 128.691,470 250,470C371.309,470 470,371.309 470,250C470,128.691 371.309,30 250,30ZM448.02,276.629C434.41,171.52 344.57,90 235.859,90C231.949,90 228.09,90.191 224.23,90.398C209.281,102.641 196.059,116.961 185.18,133.109C197.621,131.148 210.219,130.059 222.879,130.059C299.922,130.059 367.488,165.91 409.961,222.609L409.988,222.609L409.988,222.641C425.43,243.262 437.449,266.66 445.461,292.102C442.719,304.859 438.781,317.172 433.719,328.898C429.551,303.449 421.16,279.691 409.219,258.32C406.781,288.48 398.02,318.078 383.371,344.82C360.531,386.5 324.398,420.371 280.531,441.781C284.32,443.148 288.211,444.32 292.109,445.469C278.52,448.379 264.449,450 250,450C249.879,450 249.77,449.98 249.66,449.98C177.852,413.191 130,336.648 130,249.371C130,162.699 177.879,86.621 249.711,50.02C249.809,50.012 249.898,50 250,50C264.5,50 278.602,51.641 292.23,54.578C278.57,58.602 265.531,63.988 253.328,70.719C334.879,76.77 404.719,124.891 441.699,193.301C447.02,211.289 450,230.301 450,250C450,259.051 449.191,267.891 448.02,276.629ZM118.602,400.41C88.059,360.031 70,307.57 70,249.801C70,190.359 90.641,135.699 124.641,94.391C147.879,75.629 175.379,62.051 205.449,55.18C137.09,87.602 90,163.262 90,249.801C90,336.762 134.078,410.629 200.199,443.461C169.539,435.57 141.738,420.648 118.602,400.41ZM324.379,337.102C305.629,372.488 277.719,402.121 243.441,423.48C247.648,426.16 251.988,428.629 256.41,430.98L256.301,430.699C303.449,411.949 342.34,378.031 365.82,335.191C381.871,305.93 390,274.281 390,241.129L390.039,236.5C390.059,234.43 390.078,232.059 390.09,229.852C377.199,213.672 362.051,199.512 345.02,187.77C348.25,202.891 350,218.328 350,233.93C350,269.781 341.141,305.449 324.379,337.102ZM306.711,327.738C316.949,308.41 323.762,288.02 327.25,266.859C268.602,296.051 224.371,345.73 211.371,397.922C215.988,402.461 220.828,406.75 225.871,410.809C260.398,391.09 288.352,362.398 306.711,327.738ZM174.621,348.641C180.648,360 187.602,370.762 195.551,380.66C214.422,323.629 264.09,272.602 329.699,243.621C329.859,240.398 330,237.18 330,233.93C330,220.391 328.512,207.012 325.84,193.871C251.648,215.32 194.781,273.219 174.621,348.641ZM151.07,270.078C152.781,287.871 156.609,305.039 162.422,321.25C189.02,249.691 247.148,195.539 320.949,174.43C320.809,173.98 320.719,173.52 320.57,173.07C307.301,166.359 293.141,161.148 278.398,157.301C223.43,174.031 177.422,214.781 151.07,270.078ZM150.93,229.91C173.93,195.578 204.73,168.371 240.371,150.871C234.59,150.422 228.789,150.051 222.879,150.051C205.691,150.051 188.602,152.09 172.012,156.012C160.73,178.59 153.34,203.52 150.93,229.91Z" style="fill:rgb(223,59,118);fill-rule:nonzero;"/>
                </g>
                <g transform="matrix(0.956224,-0.292636,0.292636,0.956224,113.641,1421.32)">
                    <path d="M499.801,357.301L459.801,131.398C459.602,130.102 459.398,128.898 459.102,127.602L459,127.199L459,127.102C448,83.5 346.199,60 250,60C153.801,60 52,83.5 41,127.102L41,127.199L40.898,127.602C40.602,128.898 40.398,130.102 40.199,131.398L0.199,357.301C0.102,357.801 0,358.398 0,359C0,440.602 142.699,450 250,450C357.301,450 500,440.602 500,359C500,358.398 499.898,357.801 499.801,357.301ZM380,340C380,356.602 366.602,370 350,370C333.398,370 320,356.602 320,340C320,336.5 320.699,333.102 321.801,330L178.199,330C179.301,333.102 180,336.5 180,340C180,356.602 166.602,370 150,370C133.398,370 120,356.602 120,340C120,323.398 133.398,310 150,310C133.398,310 120,296.602 120,280C120,263.398 133.398,250 150,250C166.602,250 180,263.398 180,280C180,283.5 179.301,286.898 178.199,290L321.801,290C320.699,286.898 320,283.5 320,280C320,263.398 333.398,250 350,250C366.602,250 380,263.398 380,280C380,296.602 366.602,310 350,310C366.602,310 380,323.398 380,340ZM250,190C132.301,190 60,158 60,135C60,112 132.301,80 250,80C367.699,80 440,112 440,135C440,158 367.699,190 250,190Z" style="fill:rgb(223,59,118);fill-rule:nonzero;"/>
                </g>
                <g transform="matrix(0.866025,-0.5,0.5,0.866025,-203.425,561.116)">
                    <path d="M144.031,480C101.988,479.988 80,450.566 80,421.508C80,389.367 97.719,375.379 118.238,359.168C126.879,352.34 136.68,344.609 146.41,334.508C154.48,326.136 161.73,317.508 168.738,309.16C189.988,283.879 210.039,259.988 242.051,259.988C277.621,259.988 295.078,286.207 313.559,313.968C319.98,323.609 326.621,333.566 334.289,342.918C343.531,354.16 358.539,360.797 373.059,367.226C395.059,376.968 419.988,388 419.988,417.008C419.988,454.968 396.121,474.218 349.051,474.218C331.211,474.218 314.441,471.027 298.23,467.937C281.629,464.777 264.469,461.5 245.621,461.5C228.301,461.5 214.68,465.617 200.27,469.988C184.031,474.91 167.23,480 144.031,480ZM322.512,209.988C271.48,209.988 260,126.707 260,97.539C260,60.828 286.949,9.988 337.57,9.988C363.738,9.988 400,39.777 400,95.726C400,151.117 372.84,209.988 322.512,209.988ZM179.672,199.988C137.129,199.988 110,134.097 110,99.648C110,56.187 135.102,9.988 181.621,9.988C212.172,9.988 240,47.097 240,87.859C240,180.539 207.191,199.988 179.672,199.988ZM65.512,349.988C25.52,349.988 0,300.519 0,266.449C0,218.668 33.969,169.988 67.32,169.988C98.949,169.988 130,208.136 130,247.019C130,297.636 105.879,349.988 65.512,349.988ZM414.078,349.988C414.07,349.988 414.078,349.988 414.078,349.988C410.211,349.988 406.328,349.539 402.539,348.648C385.77,344.726 372.66,334.027 365.641,318.527C355.602,296.379 358.969,267.508 375.129,237.258C401.66,187.609 432.699,164.289 462.191,171.16C473.539,173.84 483.16,182.066 490.039,194.988C501.66,216.789 503.238,248.027 493.969,272.707C475.988,320.379 445.379,349.988 414.078,349.988Z" style="fill:rgb(223,59,118);fill-rule:nonzero;"/>
                </g>
                <g transform="matrix(0.866025,-0.5,0.5,0.866025,1796.53,561.116)">
                    <path d="M144.031,480C101.988,479.988 80,450.566 80,421.508C80,389.367 97.719,375.379 118.238,359.168C126.879,352.34 136.68,344.609 146.41,334.508C154.48,326.136 161.73,317.508 168.738,309.16C189.988,283.879 210.039,259.988 242.051,259.988C277.621,259.988 295.078,286.207 313.559,313.968C319.98,323.609 326.621,333.566 334.289,342.918C343.531,354.16 358.539,360.797 373.059,367.226C395.059,376.968 419.988,388 419.988,417.008C419.988,454.968 396.121,474.218 349.051,474.218C331.211,474.218 314.441,471.027 298.23,467.937C281.629,464.777 264.469,461.5 245.621,461.5C228.301,461.5 214.68,465.617 200.27,469.988C184.031,474.91 167.23,480 144.031,480ZM322.512,209.988C271.48,209.988 260,126.707 260,97.539C260,60.828 286.949,9.988 337.57,9.988C363.738,9.988 400,39.777 400,95.726C400,151.117 372.84,209.988 322.512,209.988ZM179.672,199.988C137.129,199.988 110,134.097 110,99.648C110,56.187 135.102,9.988 181.621,9.988C212.172,9.988 240,47.097 240,87.859C240,180.539 207.191,199.988 179.672,199.988ZM65.512,349.988C25.52,349.988 0,300.519 0,266.449C0,218.668 33.969,169.988 67.32,169.988C98.949,169.988 130,208.136 130,247.019C130,297.636 105.879,349.988 65.512,349.988ZM414.078,349.988C414.07,349.988 414.078,349.988 414.078,349.988C410.211,349.988 406.328,349.539 402.539,348.648C385.77,344.726 372.66,334.027 365.641,318.527C355.602,296.379 358.969,267.508 375.129,237.258C401.66,187.609 432.699,164.289 462.191,171.16C473.539,173.84 483.16,182.066 490.039,194.988C501.66,216.789 503.238,248.027 493.969,272.707C475.988,320.379 445.379,349.988 414.078,349.988Z" style="fill:rgb(223,59,118);fill-rule:nonzero;"/>
                </g>
                <g transform="matrix(1,0,0,1,-4426.4,0)">
                    <path d="M4675.33,240.712C4760.62,206.165 4831.14,255.302 4879.33,336.841C4957.82,469.65 4979.27,688.543 4904.88,826.538C4898.59,838.197 4902.95,852.767 4914.61,859.052C4926.27,865.338 4940.84,860.976 4947.12,849.316C5028.68,698.042 5006.69,458.008 4920.65,312.419C4859.14,208.345 4766.17,152.129 4657.31,196.222C4645.03,201.195 4639.1,215.2 4644.07,227.477C4649.05,239.754 4663.05,245.684 4675.33,240.712Z" style="fill:rgb(223,59,118);"/>
                </g>
                <g transform="matrix(1,0,0,1,-4426.4,0)">
                    <path d="M4539.44,1151.28C4499.94,1252.48 4507.07,1322.19 4537.51,1361.7C4559.82,1390.66 4595,1406 4639.01,1406C4652.26,1406 4663.01,1395.25 4663.01,1382C4663.01,1368.75 4652.26,1358 4639.01,1358C4611.81,1358 4589.32,1350.31 4575.53,1332.41C4551.82,1301.63 4553.39,1247.56 4584.16,1168.73C4588.97,1156.39 4582.86,1142.46 4570.53,1137.64C4558.19,1132.83 4544.26,1138.93 4539.44,1151.28Z" style="fill:rgb(223,59,118);"/>
                </g>
                <g transform="matrix(1,0,0,1,-4426.4,0)">
                    <path d="M5380.68,1023.73C5469.39,1010.32 5561.71,1015.02 5636.02,1000.42C5719.91,983.931 5782.83,944.909 5801.61,842.244C5803.99,829.214 5795.35,816.701 5782.32,814.319C5769.29,811.936 5756.77,820.58 5754.39,833.61C5740.05,912.06 5690.87,940.72 5626.76,953.316C5553.07,967.797 5461.49,962.972 5373.5,976.27C5360.41,978.249 5351.38,990.489 5353.36,1003.59C5355.34,1016.68 5367.58,1025.71 5380.68,1023.73Z" style="fill:rgb(223,59,118);"/>
                </g>
                <g transform="matrix(0.620996,0.453993,-0.453993,0.620996,-888.199,-519.603)">
                    <path d="M4606.97,500C4568.96,500 4536.4,460.719 4536.4,428.57C4536.4,398.281 4556.64,384.91 4576.21,371.988C4591.94,361.609 4608.21,350.871 4615.65,330.18C4631.33,286.578 4642.6,279.988 4673.25,279.988C4713.95,279.988 4725.4,311.02 4730.49,334.352C4734.31,351.91 4749.12,366.18 4763.45,379.98C4779.65,395.59 4796.41,411.719 4796.41,433.141C4796.41,464.961 4775.55,499.191 4729.75,499.191C4712.91,499.191 4702.24,496.051 4692.82,493.27C4685.57,491.129 4679.31,489.289 4671.01,489.289C4662.54,489.289 4654.98,491.352 4646.23,493.73C4635.45,496.672 4623.23,500 4606.97,500ZM4840.56,213.357C4846.23,199.05 4854.75,186.199 4858.24,186.199C4863.11,186.199 4886.69,212.153 4871.23,245.652C4877.36,261.683 4878.18,281.348 4873.06,300.449L4872.14,303.941C4866.27,326.262 4857.41,360 4815.7,360C4792.25,360 4779.08,341.059 4768.5,325.852L4767.05,323.77C4764.56,320.219 4761.9,317.449 4759.34,314.789C4753.28,308.488 4746.4,301.34 4746.4,287.09C4746.4,275.609 4755.59,262.559 4766.24,247.441L4770.72,241.031C4784.76,220.73 4802.27,210 4821.35,210C4828.23,210 4834.67,211.135 4840.56,213.357ZM4504.45,195.952C4507.81,160.946 4525.71,150.716 4530.1,151.898C4533.13,152.755 4537.04,166.161 4539.47,180.066C4540.4,180.022 4541.35,180 4542.3,180C4564.46,180 4578.59,197.91 4590.1,214.699C4592.45,218.141 4594.98,221.621 4597.48,225.07C4607.63,239.078 4616.4,251.191 4616.4,261.891C4616.4,280.719 4607.6,288.578 4597.4,297.68L4595.76,299.141C4592.01,302.5 4589.32,306.352 4586.49,310.422C4580.41,319.148 4572.85,330 4555.14,330C4521.09,330 4496.15,300.039 4489.11,270.441C4482.85,244.199 4487.51,217.07 4501.28,199.629C4502.29,198.342 4503.35,197.117 4504.45,195.952ZM4729.65,51.263C4728.23,28.926 4729.97,14.138 4733.68,12.539C4737.96,10.687 4763.09,31.797 4770.66,58.168C4799.01,73.6 4816.4,107.699 4816.4,132.328C4816.4,160.43 4796.85,200 4753.38,200C4710.75,200 4696.4,149.75 4696.4,126.828C4696.4,84.016 4708.38,57.215 4729.65,51.263ZM4619.91,45.361C4628.41,12.699 4655.32,-0.192 4659.68,1.828C4663.38,3.624 4666.95,21.362 4661.42,44.789C4675.04,52.689 4686.4,72.015 4686.4,114.512C4686.4,135.512 4677.13,190 4634.78,190C4594.51,190 4576.4,147.012 4576.4,116.48C4576.4,94.909 4592.47,58.897 4619.91,45.361Z" style="fill:rgb(223,59,118);fill-rule:nonzero;"/>
                </g>
                <g transform="matrix(0.620996,0.453993,-0.453993,0.620996,-2861.2,-2072.91)">
                    <path d="M4606.97,500C4568.96,500 4536.4,460.719 4536.4,428.57C4536.4,398.281 4556.64,384.91 4576.21,371.988C4591.94,361.609 4608.21,350.871 4615.65,330.18C4631.33,286.578 4642.6,279.988 4673.25,279.988C4713.95,279.988 4725.4,311.02 4730.49,334.352C4734.31,351.91 4749.12,366.18 4763.45,379.98C4779.65,395.59 4796.41,411.719 4796.41,433.141C4796.41,464.961 4775.55,499.191 4729.75,499.191C4712.91,499.191 4702.24,496.051 4692.82,493.27C4685.57,491.129 4679.31,489.289 4671.01,489.289C4662.54,489.289 4654.98,491.352 4646.23,493.73C4635.45,496.672 4623.23,500 4606.97,500ZM4840.56,213.357C4846.23,199.05 4854.75,186.199 4858.24,186.199C4863.11,186.199 4886.69,212.153 4871.23,245.652C4877.36,261.683 4878.18,281.348 4873.06,300.449L4872.14,303.941C4866.27,326.262 4857.41,360 4815.7,360C4792.25,360 4779.08,341.059 4768.5,325.852L4767.05,323.77C4764.56,320.219 4761.9,317.449 4759.34,314.789C4753.28,308.488 4746.4,301.34 4746.4,287.09C4746.4,275.609 4755.59,262.559 4766.24,247.441L4770.72,241.031C4784.76,220.73 4802.27,210 4821.35,210C4828.23,210 4834.67,211.135 4840.56,213.357ZM4504.45,195.952C4507.81,160.946 4525.71,150.716 4530.1,151.898C4533.13,152.755 4537.04,166.161 4539.47,180.066C4540.4,180.022 4541.35,180 4542.3,180C4564.46,180 4578.59,197.91 4590.1,214.699C4592.45,218.141 4594.98,221.621 4597.48,225.07C4607.63,239.078 4616.4,251.191 4616.4,261.891C4616.4,280.719 4607.6,288.578 4597.4,297.68L4595.76,299.141C4592.01,302.5 4589.32,306.352 4586.49,310.422C4580.41,319.148 4572.85,330 4555.14,330C4521.09,330 4496.15,300.039 4489.11,270.441C4482.85,244.199 4487.51,217.07 4501.28,199.629C4502.29,198.342 4503.35,197.117 4504.45,195.952ZM4729.65,51.263C4728.23,28.926 4729.97,14.138 4733.68,12.539C4737.96,10.687 4763.09,31.797 4770.66,58.168C4799.01,73.6 4816.4,107.699 4816.4,132.328C4816.4,160.43 4796.85,200 4753.38,200C4710.75,200 4696.4,149.75 4696.4,126.828C4696.4,84.016 4708.38,57.215 4729.65,51.263ZM4619.91,45.361C4628.41,12.699 4655.32,-0.192 4659.68,1.828C4663.38,3.624 4666.95,21.362 4661.42,44.789C4675.04,52.689 4686.4,72.015 4686.4,114.512C4686.4,135.512 4677.13,190 4634.78,190C4594.51,190 4576.4,147.012 4576.4,116.48C4576.4,94.909 4592.47,58.897 4619.91,45.361Z" style="fill:rgb(223,59,118);fill-rule:nonzero;"/>
                </g>
                <g transform="matrix(0.620996,0.453993,-0.453993,0.620996,-861.183,-2072.91)">
                    <path d="M4606.97,500C4568.96,500 4536.4,460.719 4536.4,428.57C4536.4,398.281 4556.64,384.91 4576.21,371.988C4591.94,361.609 4608.21,350.871 4615.65,330.18C4631.33,286.578 4642.6,279.988 4673.25,279.988C4713.95,279.988 4725.4,311.02 4730.49,334.352C4734.31,351.91 4749.12,366.18 4763.45,379.98C4779.65,395.59 4796.41,411.719 4796.41,433.141C4796.41,464.961 4775.55,499.191 4729.75,499.191C4712.91,499.191 4702.24,496.051 4692.82,493.27C4685.57,491.129 4679.31,489.289 4671.01,489.289C4662.54,489.289 4654.98,491.352 4646.23,493.73C4635.45,496.672 4623.23,500 4606.97,500ZM4840.56,213.357C4846.23,199.05 4854.75,186.199 4858.24,186.199C4863.11,186.199 4886.69,212.153 4871.23,245.652C4877.36,261.683 4878.18,281.348 4873.06,300.449L4872.14,303.941C4866.27,326.262 4857.41,360 4815.7,360C4792.25,360 4779.08,341.059 4768.5,325.852L4767.05,323.77C4764.56,320.219 4761.9,317.449 4759.34,314.789C4753.28,308.488 4746.4,301.34 4746.4,287.09C4746.4,275.609 4755.59,262.559 4766.24,247.441L4770.72,241.031C4784.76,220.73 4802.27,210 4821.35,210C4828.23,210 4834.67,211.135 4840.56,213.357ZM4504.45,195.952C4507.81,160.946 4525.71,150.716 4530.1,151.898C4533.13,152.755 4537.04,166.161 4539.47,180.066C4540.4,180.022 4541.35,180 4542.3,180C4564.46,180 4578.59,197.91 4590.1,214.699C4592.45,218.141 4594.98,221.621 4597.48,225.07C4607.63,239.078 4616.4,251.191 4616.4,261.891C4616.4,280.719 4607.6,288.578 4597.4,297.68L4595.76,299.141C4592.01,302.5 4589.32,306.352 4586.49,310.422C4580.41,319.148 4572.85,330 4555.14,330C4521.09,330 4496.15,300.039 4489.11,270.441C4482.85,244.199 4487.51,217.07 4501.28,199.629C4502.29,198.342 4503.35,197.117 4504.45,195.952ZM4729.65,51.263C4728.23,28.926 4729.97,14.138 4733.68,12.539C4737.96,10.687 4763.09,31.797 4770.66,58.168C4799.01,73.6 4816.4,107.699 4816.4,132.328C4816.4,160.43 4796.85,200 4753.38,200C4710.75,200 4696.4,149.75 4696.4,126.828C4696.4,84.016 4708.38,57.215 4729.65,51.263ZM4619.91,45.361C4628.41,12.699 4655.32,-0.192 4659.68,1.828C4663.38,3.624 4666.95,21.362 4661.42,44.789C4675.04,52.689 4686.4,72.015 4686.4,114.512C4686.4,135.512 4677.13,190 4634.78,190C4594.51,190 4576.4,147.012 4576.4,116.48C4576.4,94.909 4592.47,58.897 4619.91,45.361Z" style="fill:rgb(223,59,118);fill-rule:nonzero;"/>
                </g>
                <g transform="matrix(0.620996,0.453993,-0.453993,0.620996,-2888.18,-519.603)">
                    <path d="M4606.97,500C4568.96,500 4536.4,460.719 4536.4,428.57C4536.4,398.281 4556.64,384.91 4576.21,371.988C4591.94,361.609 4608.21,350.871 4615.65,330.18C4631.33,286.578 4642.6,279.988 4673.25,279.988C4713.95,279.988 4725.4,311.02 4730.49,334.352C4734.31,351.91 4749.12,366.18 4763.45,379.98C4779.65,395.59 4796.41,411.719 4796.41,433.141C4796.41,464.961 4775.55,499.191 4729.75,499.191C4712.91,499.191 4702.24,496.051 4692.82,493.27C4685.57,491.129 4679.31,489.289 4671.01,489.289C4662.54,489.289 4654.98,491.352 4646.23,493.73C4635.45,496.672 4623.23,500 4606.97,500ZM4840.56,213.357C4846.23,199.05 4854.75,186.199 4858.24,186.199C4863.11,186.199 4886.69,212.153 4871.23,245.652C4877.36,261.683 4878.18,281.348 4873.06,300.449L4872.14,303.941C4866.27,326.262 4857.41,360 4815.7,360C4792.25,360 4779.08,341.059 4768.5,325.852L4767.05,323.77C4764.56,320.219 4761.9,317.449 4759.34,314.789C4753.28,308.488 4746.4,301.34 4746.4,287.09C4746.4,275.609 4755.59,262.559 4766.24,247.441L4770.72,241.031C4784.76,220.73 4802.27,210 4821.35,210C4828.23,210 4834.67,211.135 4840.56,213.357ZM4504.45,195.952C4507.81,160.946 4525.71,150.716 4530.1,151.898C4533.13,152.755 4537.04,166.161 4539.47,180.066C4540.4,180.022 4541.35,180 4542.3,180C4564.46,180 4578.59,197.91 4590.1,214.699C4592.45,218.141 4594.98,221.621 4597.48,225.07C4607.63,239.078 4616.4,251.191 4616.4,261.891C4616.4,280.719 4607.6,288.578 4597.4,297.68L4595.76,299.141C4592.01,302.5 4589.32,306.352 4586.49,310.422C4580.41,319.148 4572.85,330 4555.14,330C4521.09,330 4496.15,300.039 4489.11,270.441C4482.85,244.199 4487.51,217.07 4501.28,199.629C4502.29,198.342 4503.35,197.117 4504.45,195.952ZM4729.65,51.263C4728.23,28.926 4729.97,14.138 4733.68,12.539C4737.96,10.687 4763.09,31.797 4770.66,58.168C4799.01,73.6 4816.4,107.699 4816.4,132.328C4816.4,160.43 4796.85,200 4753.38,200C4710.75,200 4696.4,149.75 4696.4,126.828C4696.4,84.016 4708.38,57.215 4729.65,51.263ZM4619.91,45.361C4628.41,12.699 4655.32,-0.192 4659.68,1.828C4663.38,3.624 4666.95,21.362 4661.42,44.789C4675.04,52.689 4686.4,72.015 4686.4,114.512C4686.4,135.512 4677.13,190 4634.78,190C4594.51,190 4576.4,147.012 4576.4,116.48C4576.4,94.909 4592.47,58.897 4619.91,45.361Z" style="fill:rgb(223,59,118);fill-rule:nonzero;"/>
                </g>
                <g transform="matrix(1,0,0,1,-2996.84,1164)">
                    <path d="M4486.4,380C4453.26,380 4426.4,406.865 4426.4,440C4426.4,473.135 4453.26,500 4486.4,500C4519.53,500 4546.4,473.135 4546.4,440C4546.4,406.865 4519.53,380 4486.4,380ZM4486.4,420C4497.44,420 4506.4,428.955 4506.4,440C4506.4,451.045 4497.44,460 4486.4,460C4475.35,460 4466.4,451.045 4466.4,440C4466.4,428.955 4475.35,420 4486.4,420ZM4466.4,110C4466.4,48.889 4515.29,0 4576.4,0C4637.51,0 4686.4,48.889 4686.4,110L4686.4,310C4686.4,353.726 4717.66,390 4761.39,390C4805.11,390 4836.4,353.727 4836.4,310L4836.4,209.564C4830.11,196.467 4810.81,155.4 4798.36,120.418C4791.11,100.046 4786.4,81.393 4786.4,70C4786.4,23.8 4825.93,0 4856.4,0C4886.86,0 4926.4,23.8 4926.4,70C4926.4,81.393 4921.69,100.046 4914.44,120.418C4901.99,155.4 4882.68,196.467 4876.4,209.564L4876.4,310C4876.4,376.275 4827.66,430 4761.39,430C4695.11,430 4646.4,376.276 4646.4,310L4646.4,110C4646.4,71.111 4615.29,40 4576.4,40C4537.51,40 4506.4,71.111 4506.4,110L4506.4,340C4517.44,340 4526.4,348.962 4526.4,360C4526.4,371.038 4517.44,380 4506.4,380L4466.4,380C4455.36,380 4446.4,371.038 4446.4,360C4446.4,348.962 4455.36,340 4466.4,340L4466.4,110ZM4856.4,157.335C4863.25,141.807 4870.82,123.685 4876.76,107.008C4882.11,91.972 4886.4,78.408 4886.4,70C4886.4,50.2 4869.46,40 4856.4,40C4843.34,40 4826.4,50.2 4826.4,70C4826.4,78.408 4830.69,91.972 4836.04,107.008C4841.98,123.685 4849.55,141.807 4856.4,157.335Z" style="fill:rgb(223,59,118);"/>
                </g>
                <g transform="matrix(1,0,0,1,-4324.4,1713)">
                    <path d="M4586.4,368C4559.79,368 4542.16,360.757 4530.39,351.505C4510.97,336.244 4506.4,314.622 4506.4,301.777C4506.4,286.718 4511.2,273.541 4515.72,260.532C4520.22,247.583 4524.57,234.743 4514.44,217.906C4511.76,213.471 4507.94,210.652 4504.17,207.325C4490.36,195.119 4474.4,180.533 4474.4,128C4474.4,119.169 4481.57,112 4490.4,112C4499.23,112 4506.4,119.169 4506.4,128C4506.4,164.272 4515.82,174.916 4525.36,183.344C4531.6,188.86 4537.41,194.035 4541.85,201.399C4555.97,224.869 4554.31,243.633 4548.96,261.77C4545.16,274.649 4538.4,286.95 4538.4,301.777C4538.4,308.114 4540.58,318.816 4550.16,326.345C4555.39,330.453 4562.54,333.496 4572.1,334.982C4579.99,292.75 4615.65,232.55 4685.49,213.902C4683.52,222.207 4682.4,230.945 4682.4,240C4682.4,248.832 4689.57,256 4698.4,256C4707.23,256 4714.4,248.832 4714.4,240L4714.4,239.586C4714.57,204.454 4736.01,176 4762.4,176C4788.89,176 4810.4,204.677 4810.4,240C4810.4,248.983 4809.01,257.535 4806.5,265.293C4832.28,287.158 4858.4,321.671 4858.4,336C4858.4,352.594 4810.4,368 4746.4,368L4586.4,368ZM4802.4,320C4797.98,320 4794.4,316.414 4794.4,312C4794.4,307.586 4797.98,304 4802.4,304C4806.81,304 4810.4,307.586 4810.4,312C4810.4,316.414 4806.81,320 4802.4,320Z" style="fill:rgb(223,59,118);"/>
                </g>
                <g transform="matrix(1,0,0,1,-4324.4,-287)">
                    <path d="M4586.4,368C4559.79,368 4542.16,360.757 4530.39,351.505C4510.97,336.244 4506.4,314.622 4506.4,301.777C4506.4,286.718 4511.2,273.541 4515.72,260.532C4520.22,247.583 4524.57,234.743 4514.44,217.906C4511.76,213.471 4507.94,210.652 4504.17,207.325C4490.36,195.119 4474.4,180.533 4474.4,128C4474.4,119.169 4481.57,112 4490.4,112C4499.23,112 4506.4,119.169 4506.4,128C4506.4,164.272 4515.82,174.916 4525.36,183.344C4531.6,188.86 4537.41,194.035 4541.85,201.399C4555.97,224.869 4554.31,243.633 4548.96,261.77C4545.16,274.649 4538.4,286.95 4538.4,301.777C4538.4,308.114 4540.58,318.816 4550.16,326.345C4555.39,330.453 4562.54,333.496 4572.1,334.982C4579.99,292.75 4615.65,232.55 4685.49,213.902C4683.52,222.207 4682.4,230.945 4682.4,240C4682.4,248.832 4689.57,256 4698.4,256C4707.23,256 4714.4,248.832 4714.4,240L4714.4,239.586C4714.57,204.454 4736.01,176 4762.4,176C4788.89,176 4810.4,204.677 4810.4,240C4810.4,248.983 4809.01,257.535 4806.5,265.293C4832.28,287.158 4858.4,321.671 4858.4,336C4858.4,352.594 4810.4,368 4746.4,368L4586.4,368ZM4802.4,320C4797.98,320 4794.4,316.414 4794.4,312C4794.4,307.586 4797.98,304 4802.4,304C4806.81,304 4810.4,307.586 4810.4,312C4810.4,316.414 4806.81,320 4802.4,320Z" style="fill:rgb(223,59,118);"/>
                </g>
                <g transform="matrix(0.684729,-0.728798,0.728798,0.684729,1051.62,1955.24)">
                    <path d="M341.852,357.254C306.238,357.254 285.82,373.504 285.82,401.82C285.82,426.14 306.621,438.863 327.172,438.863C333.961,438.863 339.059,436.781 344.828,431.691C346.391,430.312 346.93,428.121 346.199,426.172C345.461,424.23 343.602,422.941 341.52,422.941C337.789,422.941 326.43,422.941 326.43,406.101C326.441,398.933 336.102,397.871 341.852,397.871C358.07,397.871 367.469,401.39 367.469,419.363C367.469,442.492 346.789,459.293 318.281,459.293C296.941,459.293 265.199,441.601 265.199,392.863C265.199,359.914 287.801,341.98 311.73,322.992C338.25,301.953 368.32,278.094 368.32,230.531C368.32,192.722 334.73,170.453 300.789,151.82C299.551,151.652 298.441,151.492 297.129,151.32C277.75,148.82 255.84,145.992 239.73,135.652C239.191,135.363 238.672,135.023 238.18,134.621C224.699,123.742 218.121,112.332 218.051,99.773C218.02,94.254 222.469,89.742 227.988,89.711C233.281,89.801 238.02,94.133 238.051,99.652C238.07,103.523 239.359,109.664 250.129,118.551C262.422,126.683 281.371,129.121 299.699,131.48C313.828,133.312 328.891,135.262 340.512,140.551C344.809,141.933 348.762,144.012 352.309,147.344L352.32,147.344C353.859,148.793 355.98,149.722 358.559,149.722C362.52,149.722 367.551,147.523 373.301,141.582C385.238,129.211 391.77,109.89 380.32,98.453C379.77,97.914 379.121,97.504 378.391,97.254C377.828,97.062 326.84,79.363 304.02,46.851C308.031,43.722 314.379,39.992 320,39.992C325.531,39.992 330,35.512 330,29.992C330,24.472 325.531,19.992 320,19.992C309.078,19.992 299.219,25.422 292.609,30.461C288.102,23.633 282.191,11.711 278.449,3.082C277.641,1.222 275.809,0.211 273.77,0.07C272.57,0.094 153.148,3.183 153.148,96.863C153.148,132.523 164.129,162.742 170.68,180.801C171.512,183.07 172.371,185.472 173.102,187.562C167.48,184.961 156.281,177.601 134.27,157.773C128.172,152.273 119.93,151.652 113.77,156.211C103.211,164.07 91.922,188.48 91.922,233.422C91.922,296.531 144.969,332.062 154.719,335.972C158.32,337.422 162.801,337.262 166.68,335.543C169.969,334.094 172.359,331.711 173.422,328.844C175.07,324.433 176.91,317.371 179.039,309.191C183.07,293.703 191.988,259.453 201.18,252.922C207.41,270.262 205.109,283.441 201.469,304.301C198.309,322.441 193.969,347.293 193.969,385.004C193.969,460.191 234.52,499.922 311.23,499.922C374.129,499.922 408.078,458.433 408.078,419.39C408.078,381.012 373.699,357.254 341.852,357.254ZM290,69.992C295.531,69.992 300,74.472 300,79.992C300,85.512 295.531,89.992 290,89.992C284.469,89.992 280,85.512 280,79.992C280,74.472 284.469,69.992 290,69.992Z" style="fill:rgb(223,59,118);fill-rule:nonzero;"/>
                </g>
                <g transform="matrix(0.684729,-0.728798,0.728798,0.684729,1051.62,-44.7553)">
                    <path d="M341.852,357.254C306.238,357.254 285.82,373.504 285.82,401.82C285.82,426.14 306.621,438.863 327.172,438.863C333.961,438.863 339.059,436.781 344.828,431.691C346.391,430.312 346.93,428.121 346.199,426.172C345.461,424.23 343.602,422.941 341.52,422.941C337.789,422.941 326.43,422.941 326.43,406.101C326.441,398.933 336.102,397.871 341.852,397.871C358.07,397.871 367.469,401.39 367.469,419.363C367.469,442.492 346.789,459.293 318.281,459.293C296.941,459.293 265.199,441.601 265.199,392.863C265.199,359.914 287.801,341.98 311.73,322.992C338.25,301.953 368.32,278.094 368.32,230.531C368.32,192.722 334.73,170.453 300.789,151.82C299.551,151.652 298.441,151.492 297.129,151.32C277.75,148.82 255.84,145.992 239.73,135.652C239.191,135.363 238.672,135.023 238.18,134.621C224.699,123.742 218.121,112.332 218.051,99.773C218.02,94.254 222.469,89.742 227.988,89.711C233.281,89.801 238.02,94.133 238.051,99.652C238.07,103.523 239.359,109.664 250.129,118.551C262.422,126.683 281.371,129.121 299.699,131.48C313.828,133.312 328.891,135.262 340.512,140.551C344.809,141.933 348.762,144.012 352.309,147.344L352.32,147.344C353.859,148.793 355.98,149.722 358.559,149.722C362.52,149.722 367.551,147.523 373.301,141.582C385.238,129.211 391.77,109.89 380.32,98.453C379.77,97.914 379.121,97.504 378.391,97.254C377.828,97.062 326.84,79.363 304.02,46.851C308.031,43.722 314.379,39.992 320,39.992C325.531,39.992 330,35.512 330,29.992C330,24.472 325.531,19.992 320,19.992C309.078,19.992 299.219,25.422 292.609,30.461C288.102,23.633 282.191,11.711 278.449,3.082C277.641,1.222 275.809,0.211 273.77,0.07C272.57,0.094 153.148,3.183 153.148,96.863C153.148,132.523 164.129,162.742 170.68,180.801C171.512,183.07 172.371,185.472 173.102,187.562C167.48,184.961 156.281,177.601 134.27,157.773C128.172,152.273 119.93,151.652 113.77,156.211C103.211,164.07 91.922,188.48 91.922,233.422C91.922,296.531 144.969,332.062 154.719,335.972C158.32,337.422 162.801,337.262 166.68,335.543C169.969,334.094 172.359,331.711 173.422,328.844C175.07,324.433 176.91,317.371 179.039,309.191C183.07,293.703 191.988,259.453 201.18,252.922C207.41,270.262 205.109,283.441 201.469,304.301C198.309,322.441 193.969,347.293 193.969,385.004C193.969,460.191 234.52,499.922 311.23,499.922C374.129,499.922 408.078,458.433 408.078,419.39C408.078,381.012 373.699,357.254 341.852,357.254ZM290,69.992C295.531,69.992 300,74.472 300,79.992C300,85.512 295.531,89.992 290,89.992C284.469,89.992 280,85.512 280,79.992C280,74.472 284.469,69.992 290,69.992Z" style="fill:rgb(223,59,118);fill-rule:nonzero;"/>
                </g>
            </g>
        </g>
    </g>
</svg>
