<?xml version="1.0" encoding="UTF-8" standalone="no"?>
<!DOCTYPE svg PUBLIC "-//W3C//DTD SVG 1.1//EN" "http://www.w3.org/Graphics/SVG/1.1/DTD/svg11.dtd">
<svg width="100%" height="100%" viewBox="0 0 2000 2000" version="1.1" xmlns="http://www.w3.org/2000/svg" xmlns:xlink="http://www.w3.org/1999/xlink" xml:space="preserve" xmlns:serif="http://www.serif.com/" style="fill-rule:evenodd;clip-rule:evenodd;stroke-linejoin:round;stroke-miterlimit:2;">
    <g transform="matrix(1,0,0,1,-4426.4,0)">
        <g id="_-" serif:id=" " transform="matrix(1,0,0,1,4426.4,0)">
            <rect x="0" y="0" width="2000" height="2000" style="fill:none;"/>
            <clipPath id="_clip1">
                <rect x="0" y="0" width="2000" height="2000"/>
            </clipPath>
            <g clip-path="url(#_clip1)">
                <g transform="matrix(0.954198,0,0,0.922509,91.6031,154.982)">
                    <rect x="-96" y="-168" width="2096" height="2168" style="fill:rgb(173,210,248);"/>
                </g>
                <g transform="matrix(0.707107,0.707107,-0.707107,0.707107,540.122,-111.686)">
                    <path d="M263,0C155.512,0 30,62.07 30,237C30,364.012 128.051,500 274,500L276.18,500C331,499 390,463.539 390,388C390,373.551 384.629,361.031 379.891,349.98C378.641,347.07 377.41,344.219 376.301,341.309C365.488,314.129 377.41,304.172 405.41,284.25C437.129,261.672 480.578,230.75 480,149C480,100.391 426.949,0 263,0ZM265,60C284.34,60 300,80.148 300,105C300,129.852 284.34,150 265,150C245.672,150 230,129.852 230,105C230,80.148 245.672,60 265,60ZM145,330C125.672,330 110,309.852 110,285C110,260.148 125.672,240 145,240C164.328,240 180,260.148 180,285C180,309.852 164.328,330 145,330ZM155,200C135.672,200 120,179.852 120,155C120,130.148 135.672,110 155,110C174.328,110 190,130.148 190,155C190,179.852 174.328,200 155,200ZM270,430C247.57,430 230,412.43 230,390C230,367.57 247.57,350 270,350C292.43,350 310,367.57 310,390C310,412.43 292.43,430 270,430ZM375,200C355.66,200 340,179.852 340,155C340,130.148 355.66,110 375,110C394.34,110 410,130.148 410,155C410,179.852 394.34,200 375,200Z" style="fill:rgb(102,165,226);fill-rule:nonzero;"/>
                </g>
                <g transform="matrix(0.902764,0.430136,-0.430136,0.902764,-3988.64,-1711.1)">
                    <path d="M4825.3,194.281C4785.11,171.73 4748.05,160.301 4715.13,160.301C4685.77,160.301 4670.6,169.551 4668.97,170.609L4666.9,171.949L4665.69,174.09C4541.11,394.672 4647.27,490.578 4651.85,494.559L4653.47,495.969L4655.52,496.59C4656,496.738 4667.59,500.16 4686.52,500.16L4686.53,500.16C4737.05,500.16 4835.21,476.621 4925.09,318.969L4926.26,316.922L4926.39,314.559C4926.52,311.988 4928.53,251.629 4825.3,194.281ZM4695.4,424C4651.4,399 4671.4,319 4671.4,319C4671.4,319 4703.4,354 4727.4,367C4751.4,380 4798.4,390 4798.4,390C4798.4,390 4739.4,449 4695.4,424ZM4808.4,337C4792.4,324 4776.4,311 4776.4,311C4776.4,311 4803.4,301 4818.4,310C4836.4,320 4842.39,357 4842.39,357C4842.39,357 4825.4,349 4808.4,337ZM4611.15,242.391C4588.47,254.078 4580.98,271.031 4580.63,271.852C4579.01,275.66 4575.29,277.961 4571.38,277.961C4570.11,277.961 4568.81,277.719 4567.57,277.199C4562.5,275.078 4560.07,269.309 4562.14,264.23C4562.66,262.949 4575.31,232.898 4616.09,218.57C4617.97,217.988 4619.83,217.539 4621.69,217.059C4629.19,200.211 4637.88,182.672 4648.29,164.25L4649.5,162.109L4651.92,157.82L4656.06,155.148L4658.13,153.82C4661.62,151.559 4680.77,140.301 4715.15,140.301C4721.51,140.301 4728.03,140.809 4734.63,141.559C4731.09,104.059 4722.52,65.238 4708.87,25.73L4708.1,23.551L4706.47,21.922C4705.57,21.02 4683.94,-0.031 4633.47,-0.031C4608.22,-0.031 4579.87,5.199 4549.16,15.539C4436.66,54.078 4426.86,114.051 4426.5,116.578L4426.17,118.91L4426.91,121.141C4472.31,258.199 4539.17,312.91 4587.58,334.68C4590.75,307.34 4598.07,276.609 4611.15,242.391ZM4729.4,260C4744.4,269 4750.41,297 4750.41,297C4750.41,297 4730.41,290 4712.4,282C4693.41,274 4677.4,264 4677.4,264C4677.4,264 4711.4,250 4729.4,260ZM4513.4,189C4513.4,189 4521.4,175 4535.4,161C4547.4,149 4566.4,137 4566.4,137C4566.4,137 4574.4,168 4558.4,185C4547.4,197 4513.4,189 4513.4,189ZM4646.4,124C4665.4,126 4681.4,133 4681.4,133C4681.4,133 4658.4,159 4642.4,157C4619.4,154 4607.4,124 4607.4,124C4607.4,124 4629.4,122 4646.4,124Z" style="fill:rgb(102,165,226);fill-rule:nonzero;"/>
                </g>
                <g transform="matrix(0.902764,0.430136,-0.430136,0.902764,-1988.6,-1711.1)">
                    <path d="M4825.3,194.281C4785.11,171.73 4748.05,160.301 4715.13,160.301C4685.77,160.301 4670.6,169.551 4668.97,170.609L4666.9,171.949L4665.69,174.09C4541.11,394.672 4647.27,490.578 4651.85,494.559L4653.47,495.969L4655.52,496.59C4656,496.738 4667.59,500.16 4686.52,500.16L4686.53,500.16C4737.05,500.16 4835.21,476.621 4925.09,318.969L4926.26,316.922L4926.39,314.559C4926.52,311.988 4928.53,251.629 4825.3,194.281ZM4695.4,424C4651.4,399 4671.4,319 4671.4,319C4671.4,319 4703.4,354 4727.4,367C4751.4,380 4798.4,390 4798.4,390C4798.4,390 4739.4,449 4695.4,424ZM4808.4,337C4792.4,324 4776.4,311 4776.4,311C4776.4,311 4803.4,301 4818.4,310C4836.4,320 4842.39,357 4842.39,357C4842.39,357 4825.4,349 4808.4,337ZM4611.15,242.391C4588.47,254.078 4580.98,271.031 4580.63,271.852C4579.01,275.66 4575.29,277.961 4571.38,277.961C4570.11,277.961 4568.81,277.719 4567.57,277.199C4562.5,275.078 4560.07,269.309 4562.14,264.23C4562.66,262.949 4575.31,232.898 4616.09,218.57C4617.97,217.988 4619.83,217.539 4621.69,217.059C4629.19,200.211 4637.88,182.672 4648.29,164.25L4649.5,162.109L4651.92,157.82L4656.06,155.148L4658.13,153.82C4661.62,151.559 4680.77,140.301 4715.15,140.301C4721.51,140.301 4728.03,140.809 4734.63,141.559C4731.09,104.059 4722.52,65.238 4708.87,25.73L4708.1,23.551L4706.47,21.922C4705.57,21.02 4683.94,-0.031 4633.47,-0.031C4608.22,-0.031 4579.87,5.199 4549.16,15.539C4436.66,54.078 4426.86,114.051 4426.5,116.578L4426.17,118.91L4426.91,121.141C4472.31,258.199 4539.17,312.91 4587.58,334.68C4590.75,307.34 4598.07,276.609 4611.15,242.391ZM4729.4,260C4744.4,269 4750.41,297 4750.41,297C4750.41,297 4730.41,290 4712.4,282C4693.41,274 4677.4,264 4677.4,264C4677.4,264 4711.4,250 4729.4,260ZM4513.4,189C4513.4,189 4521.4,175 4535.4,161C4547.4,149 4566.4,137 4566.4,137C4566.4,137 4574.4,168 4558.4,185C4547.4,197 4513.4,189 4513.4,189ZM4646.4,124C4665.4,126 4681.4,133 4681.4,133C4681.4,133 4658.4,159 4642.4,157C4619.4,154 4607.4,124 4607.4,124C4607.4,124 4629.4,122 4646.4,124Z" style="fill:rgb(102,165,226);fill-rule:nonzero;"/>
                </g>
                <g transform="matrix(1,0,0,1,-4426.4,0)">
                    <path d="M4939,1138C5007,1194.18 5039,1184 5033,1090C5027,996 5018.46,983.298 5053,943C5083,908 5184,935 5164,1002C5144,1069 5040,1214 5124,1311C5156.18,1348.16 5117.11,1429.46 5061,1443C4974,1464 5061,1390 4994,1363C4927,1336 4924.66,1529.92 4852,1458C4765.54,1372.41 4946.66,1386.53 4918,1264C4907.98,1221.14 4870,1081 4939,1138Z" style="fill:rgb(102,165,226);"/>
                </g>
                <g transform="matrix(0.394014,-0.682453,0.682453,0.394014,-1623.23,3839.82)">
                    <path d="M4854.99,1165.99C4927.81,1081.64 4969.29,1157.37 4989.89,1114.89C5065.37,959.233 5081.48,1117.57 5263.01,1195.4C5327.27,1222.96 5413.97,1456.88 5127.91,1468.46C4985.89,1474.21 4776.92,1623.36 4902.44,1346.25C4964.96,1208.23 4796.5,1233.73 4854.99,1165.99Z" style="fill:rgb(102,165,226);"/>
                </g>
                <g transform="matrix(0.731007,0.885116,-0.885116,0.731007,-2349.09,-5266.36)">
                    <path d="M6155.3,322.727C6196.81,318.27 6200.8,382.775 6226.45,437.123C6249.31,485.566 6297.12,522.722 6283.07,546.062C6207.14,672.208 6160.82,516.203 6081.86,516.203C6002.9,516.203 5804.57,624.671 5750.67,479.73C5685.41,304.256 5847.8,427.976 5947.28,426.6C6039.65,425.322 6088.68,329.879 6155.3,322.727Z" style="fill:rgb(102,165,226);"/>
                </g>
                <g transform="matrix(1.21957,0,0,1.21957,426.101,461.523)">
                    <path d="M201.461,90C201.617,89.502 201.815,89.01 202.056,88.528C202.056,88.528 210,72.839 210,58C210,50.624 208.594,44.393 207.428,40.493C201.741,40.168 195.934,40 190,40C171,40 160,51 160,70C160,76 156,80 150,80C144,80 140,76 140,70C140,40 160,20 190,20C335,20 410,111 410,150C410,165.381 406.448,180.496 400.011,194.771C400.125,201.764 401.444,251.397 416.034,291.683C425.346,317.394 439.591,340 465,340L465.194,340.001C473.389,340.105 480,346.78 480,355C480,363.285 473.285,370 465,370C457.798,370 451.782,364.926 450.333,358.156C424.808,351.484 407.723,327.466 397.23,298.493C388.155,273.438 383.857,245.003 381.823,224.142C350.801,262.779 297.729,290 241,290C225,290 213,290 204,291C187.095,292.989 199.855,301.899 199.998,314.781C199.999,314.854 200,314.927 200,315C200,323.285 193.285,330 185,330C179.264,330 174.281,326.782 171.758,322.053C101.947,337.321 80,471.001 80,472C79,476 75,480 70,480L69,480C64,480 60,474 61,469C61,467 62,461 64,451C61,446 20,371 20,269C20,153 88,90 153,90L201.461,90ZM365,400C356.715,400 350,406.715 350,415C350,423.285 356.715,430 365,430C373.285,430 380,423.285 380,415C380,406.715 373.285,400 365,400ZM405,390C396.715,390 390,396.715 390,405C390,413.285 396.715,420 405,420C413.285,420 420,413.285 420,405C420,396.715 413.285,390 405,390ZM325,380C316.715,380 310,386.715 310,395C310,403.285 316.715,410 325,410C333.285,410 340,403.285 340,395C340,386.715 333.285,380 325,380ZM435,360C426.715,360 420,366.715 420,375C420,383.285 426.715,390 435,390C443.285,390 450,383.285 450,375C450,366.715 443.285,360 435,360ZM290,357C281.715,357 275,363.715 275,372C275,380.285 281.715,387 290,387C298.285,387 305,380.285 305,372C305,363.715 298.285,357 290,357ZM259,332C250.715,332 244,338.715 244,347C244,355.285 250.715,362 259,362C267.285,362 274,355.285 274,347C274,338.715 267.285,332 259,332ZM226,308C217.715,308 211,314.715 211,323C211,331.285 217.715,338 226,338C234.285,338 241,331.285 241,323C241,314.715 234.285,308 226,308ZM228.472,42.458C229.345,46.923 230,52.203 230,58C230,69.957 226.085,82.361 223.139,90L270,90C274.304,90 278.126,92.754 279.487,96.838L287.751,121.63L308.437,126.801C306.891,120.283 304.527,115.079 302.902,111.096C301.007,106.455 300,102.706 300,100C300,94.481 304.481,90 310,90C315.382,90 319.777,94.261 319.99,99.591C320.149,100.025 321.604,103.968 322.778,106.845C326.009,114.76 329.956,125.664 329.999,139.763C330.002,139.911 330.003,140.059 329.999,140.207C329.954,163.591 322.033,177.413 315.604,188.076C312.866,192.616 310,196.008 310,200C310,205.519 305.519,210 300,210C294.481,210 290,205.519 290,200C290,194.169 292.149,188.595 295.648,182.502C300.268,174.454 307.806,164.76 309.605,147.709L277.575,139.701C274.258,138.872 271.594,136.406 270.513,133.162L262.792,110L160,110C132,110 110,142 110,168C110,252 181,270 241,270C318,270 390,212 390,150C390,124.881 334.47,56.304 228.472,42.458ZM181.863,155.812C181.863,155.812 190,167.519 190,185C190,206.835 173.113,222.75 173.113,222.75C169.111,226.551 168.949,232.886 172.75,236.887C176.551,240.889 182.886,241.051 186.887,237.25C186.887,237.25 210,215.165 210,185C210,160.48 198.137,144.188 198.137,144.188C194.929,139.697 188.679,138.655 184.188,141.863C179.697,145.071 178.655,151.321 181.863,155.812ZM240,150L240,160C240,165.519 244.481,170 250,170C255.519,170 260,165.519 260,160L260,150C260,144.481 255.519,140 250,140C244.481,140 240,144.481 240,150Z" style="fill:rgb(102,165,226);"/>
                </g>
                <g transform="matrix(0.983832,0.179093,-0.179093,0.983832,-4243.56,621.86)">
                    <path d="M4806.4,209C4804.4,320 4761.4,399 4726.4,399C4694.4,399 4695.4,379 4676.4,379C4648.4,379 4635.4,354 4618.4,326C4606.4,305 4552.4,277 4546.4,210L4426.4,210L4426.4,429C4426.4,435 4430.4,439 4436.4,439L4916.4,439C4922.4,439 4926.4,435 4926.4,429L4926.4,209L4806.4,209ZM4716.4,360C4710.88,360 4706.4,364.477 4706.4,370C4706.4,375.523 4710.88,380 4716.4,380C4721.92,380 4726.4,375.523 4726.4,370C4726.4,364.477 4721.92,360 4716.4,360ZM4666.4,330C4660.88,330 4656.4,334.477 4656.4,340C4656.4,345.523 4660.88,350 4666.4,350C4671.92,350 4676.4,345.523 4676.4,340C4676.4,334.477 4671.92,330 4666.4,330ZM4746.4,320C4740.88,320 4736.4,324.477 4736.4,330C4736.4,335.523 4740.88,340 4746.4,340C4751.92,340 4756.4,335.523 4756.4,330C4756.4,324.477 4751.92,320 4746.4,320ZM4661.83,203.576L4624.7,183.829C4619.83,181.237 4617.98,175.177 4620.57,170.304C4623.16,165.431 4629.22,163.579 4634.1,166.171L4671.22,185.918C4672.83,185.324 4674.58,185 4676.4,185C4684.68,185 4691.4,191.715 4691.4,200C4691.4,204.443 4689.47,208.435 4686.4,211.181L4686.4,303C4686.4,308.519 4681.92,313 4676.4,313C4670.88,313 4666.4,308.519 4666.4,303L4666.4,211.181C4664.18,209.197 4662.56,206.562 4661.83,203.576ZM4756.4,270C4750.88,270 4746.4,274.477 4746.4,280C4746.4,285.523 4750.88,290 4756.4,290C4761.92,290 4766.4,285.523 4766.4,280C4766.4,274.477 4761.92,270 4756.4,270ZM4626.4,270C4620.88,270 4616.4,274.477 4616.4,280C4616.4,285.523 4620.88,290 4626.4,290C4631.92,290 4636.4,285.523 4636.4,280C4636.4,274.477 4631.92,270 4626.4,270ZM4576.4,220C4570.88,220 4566.4,224.477 4566.4,230C4566.4,235.523 4570.88,240 4576.4,240C4581.92,240 4586.4,235.523 4586.4,230C4586.4,224.477 4581.92,220 4576.4,220ZM4776.4,210C4770.88,210 4766.4,214.477 4766.4,220C4766.4,225.523 4770.88,230 4776.4,230C4781.92,230 4786.4,225.523 4786.4,220C4786.4,214.477 4781.92,210 4776.4,210ZM4766.4,180C4760.88,180 4756.4,182.238 4756.4,185C4756.4,187.762 4760.88,190 4766.4,190C4771.92,190 4776.4,187.762 4776.4,185C4776.4,182.238 4771.92,180 4766.4,180ZM4586.4,180C4580.88,180 4576.4,182.238 4576.4,185C4576.4,187.762 4580.88,190 4586.4,190C4591.92,190 4596.4,187.762 4596.4,185C4596.4,182.238 4591.92,180 4586.4,180ZM4548.4,190C4557.4,164 4601.4,130 4652.4,122L4652.4,120C4647.4,119 4643.4,115 4643.4,110C4643.4,97 4661.4,94 4676.4,94C4688.4,94 4709.4,96 4709.4,110C4709.4,115 4705.4,120 4699.4,120L4699.4,121C4750.4,129 4795.4,161 4804.4,189L4922.4,189L4865.4,65C4863.4,61 4860.4,59 4856.4,59L4496.4,59C4492.4,59 4489.4,61 4487.4,65L4429.4,190L4548.4,190ZM4726.4,150C4720.88,150 4716.4,152.238 4716.4,155C4716.4,157.762 4720.88,160 4726.4,160C4731.92,160 4736.4,157.762 4736.4,155C4736.4,152.238 4731.92,150 4726.4,150ZM4626.4,150C4620.88,150 4616.4,152.238 4616.4,155C4616.4,157.762 4620.88,160 4626.4,160C4631.92,160 4636.4,157.762 4636.4,155C4636.4,152.238 4631.92,150 4626.4,150ZM4676.4,140C4670.88,140 4666.4,142.238 4666.4,145C4666.4,147.762 4670.88,150 4676.4,150C4681.92,150 4686.4,147.762 4686.4,145C4686.4,142.238 4681.92,140 4676.4,140Z" style="fill:rgb(102,165,226);fill-rule:nonzero;"/>
                </g>
                <g transform="matrix(0.984448,0.175676,-0.175676,0.984448,-4008.19,-1037.76)">
                    <path d="M5891.4,1571.93L5861.4,1571.93L5861.4,1356.93C5861.4,1276.98 5926.45,1211.93 6006.4,1211.93C6074.98,1211.93 6134.72,1260.62 6148.45,1327.71L6148.62,1328.87C6149.04,1333.2 6154.12,1371.72 6201.42,1371.93L6231.4,1371.93C6281.03,1371.93 6321.4,1412.3 6321.4,1461.93L6321.4,1571.93L6291.4,1571.93L6291.4,1651.93L5891.4,1651.93L5891.4,1571.93ZM6271.4,1571.93L6241.4,1571.93L6241.4,1611.93L6221.4,1611.93L6221.4,1571.93L6201.4,1571.93L6201.4,1611.93L6181.4,1611.93L6181.4,1571.93L6141.4,1571.93L6141.4,1611.93L6121.4,1611.93L6121.4,1571.93L6101.4,1571.93L6101.4,1611.93L6081.4,1611.93L6081.4,1571.93L6061.4,1571.93L6061.4,1611.93L6041.4,1611.93L6041.4,1571.93L6001.4,1571.93L6001.4,1611.93L5981.4,1611.93L5981.4,1571.93L5961.4,1571.93L5961.4,1611.93L5941.4,1611.93L5941.4,1571.93L5911.4,1571.93L5911.4,1631.93L6271.4,1631.93L6271.4,1571.93Z" style="fill:rgb(102,165,226);"/>
                </g>
                <g transform="matrix(0.983703,-0.179799,0.179799,0.983703,-3600.2,513.748)">
                    <path d="M5431.17,1422L5497.97,1405.3C5498.77,1405.1 5499.58,1405 5500.4,1405L5505.4,1405C5506.22,1405 5507.03,1405.1 5507.82,1405.3L5574.63,1422L5577.17,1422L5643.97,1405.3C5644.77,1405.1 5645.58,1405 5646.4,1405L5651.4,1405C5652.31,1405 5653.21,1405.12 5654.09,1405.37L5721.91,1424.32C5722.49,1424.17 5723.09,1424.07 5723.69,1424.03C5752.29,1415.03 5781.68,1440.87 5775.19,1472.04C5775.19,1472.05 5775.18,1472.06 5775.18,1472.08L5768.4,1504.05L5768.4,1505.85L5785.14,1577.73C5785.31,1578.48 5785.4,1579.24 5785.4,1580L5785.4,1585C5785.4,1585.82 5785.3,1586.63 5785.1,1587.42L5768.4,1654.23L5768.4,1656.77L5785.1,1723.58C5785.3,1724.37 5785.4,1725.18 5785.4,1726L5785.4,1731C5785.4,1731.81 5785.3,1732.61 5785.11,1733.39L5768.4,1801.21L5768.4,1803.09L5775.19,1839.96C5781.68,1871.12 5753.64,1897.04 5723.83,1888L5720.63,1888L5653.82,1904.7C5653.03,1904.9 5652.22,1905 5651.4,1905L5646.4,1905C5645.58,1905 5644.77,1904.9 5643.97,1904.7L5577.17,1888L5574.63,1888L5507.82,1904.7C5507.03,1904.9 5506.22,1905 5505.4,1905L5500.4,1905C5499.58,1905 5498.77,1904.9 5497.97,1904.7L5429.97,1887.7L5429.9,1887.68C5429.31,1887.83 5428.71,1887.93 5428.11,1887.97C5399.49,1896.97 5370.11,1871.13 5376.57,1840.14L5383.4,1804.06L5383.4,1802.21L5366.69,1734.39C5366.5,1733.61 5366.4,1732.81 5366.4,1732L5366.4,1727C5366.4,1726.19 5366.5,1725.39 5366.69,1724.61L5383.4,1656.79L5383.4,1654.21L5366.69,1586.39C5366.5,1585.61 5366.4,1584.81 5366.4,1584L5366.4,1579C5366.4,1578.2 5366.49,1577.41 5366.68,1576.64L5383.4,1507.8L5383.4,1505.94L5376.57,1469.86L5376.53,1469.64C5371.36,1438.6 5399.56,1413.11 5428.02,1422L5431.17,1422ZM5428.17,1887.06C5427.65,1886.82 5427.14,1886.53 5426.66,1886.19C5426.19,1885.86 5425.74,1885.49 5425.33,1885.07C5426.03,1885.77 5427.01,1886.6 5428.17,1887.06ZM5504.17,1425L5501.63,1425L5434.82,1441.7C5434.03,1441.9 5433.22,1442 5432.4,1442L5426.4,1442C5425.23,1442 5424.08,1441.8 5422.98,1441.4C5408.05,1435.97 5393.58,1450.01 5396.25,1466.29L5403.22,1503.14C5403.34,1503.75 5403.4,1504.38 5403.4,1505L5403.4,1509C5403.4,1509.8 5403.3,1510.59 5403.12,1511.36L5386.4,1580.2L5386.4,1582.79L5403.11,1650.61C5403.3,1651.39 5403.4,1652.19 5403.4,1653L5403.4,1658C5403.4,1658.81 5403.3,1659.61 5403.11,1660.39L5386.4,1728.21L5386.4,1730.79L5403.11,1798.61C5403.3,1799.39 5403.4,1800.19 5403.4,1801L5403.4,1805C5403.4,1805.62 5403.34,1806.25 5403.22,1806.86C5403.22,1806.86 5396.22,1843.86 5396.19,1844.04C5392.81,1860.25 5408.12,1874.01 5422.98,1868.6C5423.76,1868.32 5424.56,1868.13 5425.38,1868.05C5429.37,1866.78 5433.19,1867.25 5436.12,1868.62L5501.63,1885L5504.17,1885L5570.97,1868.3C5571.77,1868.1 5572.58,1868 5573.4,1868L5578.4,1868C5579.22,1868 5580.03,1868.1 5580.82,1868.3L5647.63,1885L5650.17,1885L5716.97,1868.3C5717.77,1868.1 5718.58,1868 5719.4,1868L5725.4,1868C5726.52,1868 5727.63,1868.19 5728.68,1868.56C5744.25,1873.97 5758.99,1860.28 5755.61,1844.04C5755.59,1843.96 5755.58,1843.89 5755.56,1843.81L5748.56,1805.81C5748.45,1805.21 5748.4,1804.61 5748.4,1804L5748.4,1800C5748.4,1799.19 5748.5,1798.39 5748.69,1797.61L5765.4,1729.79L5765.4,1727.23L5748.7,1660.42C5748.5,1659.63 5748.4,1658.82 5748.4,1658L5748.4,1653C5748.4,1652.18 5748.5,1651.37 5748.7,1650.58L5765.4,1583.77L5765.4,1581.15L5748.66,1509.27C5748.49,1508.52 5748.4,1507.76 5748.4,1507L5748.4,1503C5748.4,1502.3 5748.47,1501.61 5748.62,1500.92C5748.62,1500.92 5755.62,1467.92 5755.61,1467.96C5758.99,1451.75 5743.67,1437.99 5728.82,1443.4C5728.04,1443.68 5727.23,1443.87 5726.41,1443.95C5722.34,1445.25 5718.46,1444.73 5715.5,1443.29L5650.03,1425L5647.63,1425L5580.82,1441.7C5580.03,1441.9 5579.22,1442 5578.4,1442L5573.4,1442C5572.58,1442 5571.77,1441.9 5570.97,1441.7L5504.17,1425ZM5716.4,1845C5721.92,1845 5726.4,1840.52 5726.4,1835L5726.4,1475C5726.4,1469.48 5721.92,1465 5716.4,1465L5436.4,1465C5430.88,1465 5426.4,1469.48 5426.4,1475L5426.4,1835C5426.4,1840.52 5430.88,1845 5436.4,1845L5716.4,1845ZM5446.4,1655L5446.4,1825L5506.4,1825L5506.4,1655L5446.4,1655ZM5646.4,1655L5646.4,1825L5706.4,1825L5706.4,1655L5646.4,1655ZM5706.4,1585L5526.4,1585L5526.4,1635L5706.4,1635L5706.4,1585ZM5446.4,1485L5446.4,1565L5506.4,1565L5506.4,1485L5446.4,1485ZM5723.6,1424.93C5724.14,1425.18 5724.64,1425.47 5725.12,1425.8C5725.6,1426.13 5726.05,1426.51 5726.47,1426.93C5725.77,1426.23 5724.78,1425.39 5723.6,1424.93Z" style="fill:rgb(102,165,226);"/>
                </g>
                <g transform="matrix(0.983703,-0.179799,0.179799,0.983703,-5600.23,513.748)">
                    <path d="M5431.17,1422L5497.97,1405.3C5498.77,1405.1 5499.58,1405 5500.4,1405L5505.4,1405C5506.22,1405 5507.03,1405.1 5507.82,1405.3L5574.63,1422L5577.17,1422L5643.97,1405.3C5644.77,1405.1 5645.58,1405 5646.4,1405L5651.4,1405C5652.31,1405 5653.21,1405.12 5654.09,1405.37L5721.91,1424.32C5722.49,1424.17 5723.09,1424.07 5723.69,1424.03C5752.29,1415.03 5781.68,1440.87 5775.19,1472.04C5775.19,1472.05 5775.18,1472.06 5775.18,1472.08L5768.4,1504.05L5768.4,1505.85L5785.14,1577.73C5785.31,1578.48 5785.4,1579.24 5785.4,1580L5785.4,1585C5785.4,1585.82 5785.3,1586.63 5785.1,1587.42L5768.4,1654.23L5768.4,1656.77L5785.1,1723.58C5785.3,1724.37 5785.4,1725.18 5785.4,1726L5785.4,1731C5785.4,1731.81 5785.3,1732.61 5785.11,1733.39L5768.4,1801.21L5768.4,1803.09L5775.19,1839.96C5781.68,1871.12 5753.64,1897.04 5723.83,1888L5720.63,1888L5653.82,1904.7C5653.03,1904.9 5652.22,1905 5651.4,1905L5646.4,1905C5645.58,1905 5644.77,1904.9 5643.97,1904.7L5577.17,1888L5574.63,1888L5507.82,1904.7C5507.03,1904.9 5506.22,1905 5505.4,1905L5500.4,1905C5499.58,1905 5498.77,1904.9 5497.97,1904.7L5429.97,1887.7L5429.9,1887.68C5429.31,1887.83 5428.71,1887.93 5428.11,1887.97C5399.49,1896.97 5370.11,1871.13 5376.57,1840.14L5383.4,1804.06L5383.4,1802.21L5366.69,1734.39C5366.5,1733.61 5366.4,1732.81 5366.4,1732L5366.4,1727C5366.4,1726.19 5366.5,1725.39 5366.69,1724.61L5383.4,1656.79L5383.4,1654.21L5366.69,1586.39C5366.5,1585.61 5366.4,1584.81 5366.4,1584L5366.4,1579C5366.4,1578.2 5366.49,1577.41 5366.68,1576.64L5383.4,1507.8L5383.4,1505.94L5376.57,1469.86L5376.53,1469.64C5371.36,1438.6 5399.56,1413.11 5428.02,1422L5431.17,1422ZM5428.17,1887.06C5427.65,1886.82 5427.14,1886.53 5426.66,1886.19C5426.19,1885.86 5425.74,1885.49 5425.33,1885.07C5426.03,1885.77 5427.01,1886.6 5428.17,1887.06ZM5504.17,1425L5501.63,1425L5434.82,1441.7C5434.03,1441.9 5433.22,1442 5432.4,1442L5426.4,1442C5425.23,1442 5424.08,1441.8 5422.98,1441.4C5408.05,1435.97 5393.58,1450.01 5396.25,1466.29L5403.22,1503.14C5403.34,1503.75 5403.4,1504.38 5403.4,1505L5403.4,1509C5403.4,1509.8 5403.3,1510.59 5403.12,1511.36L5386.4,1580.2L5386.4,1582.79L5403.11,1650.61C5403.3,1651.39 5403.4,1652.19 5403.4,1653L5403.4,1658C5403.4,1658.81 5403.3,1659.61 5403.11,1660.39L5386.4,1728.21L5386.4,1730.79L5403.11,1798.61C5403.3,1799.39 5403.4,1800.19 5403.4,1801L5403.4,1805C5403.4,1805.62 5403.34,1806.25 5403.22,1806.86C5403.22,1806.86 5396.22,1843.86 5396.19,1844.04C5392.81,1860.25 5408.12,1874.01 5422.98,1868.6C5423.76,1868.32 5424.56,1868.13 5425.38,1868.05C5429.37,1866.78 5433.19,1867.25 5436.12,1868.62L5501.63,1885L5504.17,1885L5570.97,1868.3C5571.77,1868.1 5572.58,1868 5573.4,1868L5578.4,1868C5579.22,1868 5580.03,1868.1 5580.82,1868.3L5647.63,1885L5650.17,1885L5716.97,1868.3C5717.77,1868.1 5718.58,1868 5719.4,1868L5725.4,1868C5726.52,1868 5727.63,1868.19 5728.68,1868.56C5744.25,1873.97 5758.99,1860.28 5755.61,1844.04C5755.59,1843.96 5755.58,1843.89 5755.56,1843.81L5748.56,1805.81C5748.45,1805.21 5748.4,1804.61 5748.4,1804L5748.4,1800C5748.4,1799.19 5748.5,1798.39 5748.69,1797.61L5765.4,1729.79L5765.4,1727.23L5748.7,1660.42C5748.5,1659.63 5748.4,1658.82 5748.4,1658L5748.4,1653C5748.4,1652.18 5748.5,1651.37 5748.7,1650.58L5765.4,1583.77L5765.4,1581.15L5748.66,1509.27C5748.49,1508.52 5748.4,1507.76 5748.4,1507L5748.4,1503C5748.4,1502.3 5748.47,1501.61 5748.62,1500.92C5748.62,1500.92 5755.62,1467.92 5755.61,1467.96C5758.99,1451.75 5743.67,1437.99 5728.82,1443.4C5728.04,1443.68 5727.23,1443.87 5726.41,1443.95C5722.34,1445.25 5718.46,1444.73 5715.5,1443.29L5650.03,1425L5647.63,1425L5580.82,1441.7C5580.03,1441.9 5579.22,1442 5578.4,1442L5573.4,1442C5572.58,1442 5571.77,1441.9 5570.97,1441.7L5504.17,1425ZM5716.4,1845C5721.92,1845 5726.4,1840.52 5726.4,1835L5726.4,1475C5726.4,1469.48 5721.92,1465 5716.4,1465L5436.4,1465C5430.88,1465 5426.4,1469.48 5426.4,1475L5426.4,1835C5426.4,1840.52 5430.88,1845 5436.4,1845L5716.4,1845ZM5446.4,1655L5446.4,1825L5506.4,1825L5506.4,1655L5446.4,1655ZM5646.4,1655L5646.4,1825L5706.4,1825L5706.4,1655L5646.4,1655ZM5706.4,1585L5526.4,1585L5526.4,1635L5706.4,1635L5706.4,1585ZM5446.4,1485L5446.4,1565L5506.4,1565L5506.4,1485L5446.4,1485ZM5723.6,1424.93C5724.14,1425.18 5724.64,1425.47 5725.12,1425.8C5725.6,1426.13 5726.05,1426.51 5726.47,1426.93C5725.77,1426.23 5724.78,1425.39 5723.6,1424.93Z" style="fill:rgb(102,165,226);"/>
                </g>
                <g transform="matrix(0.906514,0.422175,-0.422175,0.906514,-3294.03,-433.818)">
                    <path d="M4803.43,82.809C4799.32,73.191 4791.69,64.738 4782.86,61.66C4769.71,57.078 4758.35,59.141 4747.37,65.43C4730.65,74.969 4718.93,96.039 4712.54,128.031C4709.25,144.469 4688.98,161.93 4663.24,170.512C4649.45,175.102 4635.34,193.738 4623.49,223.012C4622.04,226.59 4618.67,229.02 4614.81,229.238C4614.61,229.25 4614.42,229.262 4614.22,229.262C4610.59,229.262 4607.22,227.289 4605.45,224.07C4596.71,208.129 4583.66,180.719 4575.77,161.66C4575.11,160.07 4574.31,158.281 4573.45,156.469C4568.4,145.719 4558.96,130 4546.4,130C4535.15,130 4526.4,136.879 4526.4,150C4526.4,154.301 4527.64,158.941 4529.59,163.879C4537.29,183.48 4556.71,207.922 4560,235.781C4560.98,244.078 4561.98,253.25 4563.45,262.621C4563.85,265.211 4564.31,267.801 4564.81,270.41C4565.12,272.02 4565.43,273.641 4565.78,275.25C4566.52,278.672 4567.38,282.07 4568.35,285.43C4568.55,286.129 4568.7,286.84 4568.92,287.539C4570.21,291.77 4571.72,295.93 4573.49,299.949C4573.7,300.422 4573.96,300.871 4574.17,301.34C4575.74,304.77 4577.52,308.07 4579.51,311.25C4579.74,311.609 4579.99,311.949 4580.22,312.309C4581.81,301.039 4583.85,289.43 4586.33,277.898C4587.49,272.512 4592.82,269.02 4598.21,270.23C4603.61,271.391 4607.05,276.711 4605.89,282.109C4599.94,309.602 4596.4,338.719 4596.4,360C4596.4,420.289 4606.18,469.879 4606.6,471.961C4607.53,476.629 4611.63,480 4616.4,480L4786.4,480C4791.93,480 4796.4,475.531 4796.4,470C4796.4,464.711 4796.14,459.691 4795.76,454.84C4795.71,454.141 4795.67,453.441 4795.61,452.75C4795.2,448.211 4794.64,443.891 4793.98,439.75C4793.85,438.949 4793.72,438.18 4793.59,437.398C4792.89,433.391 4792.11,429.57 4791.24,425.98C4791.08,425.328 4790.92,424.738 4790.76,424.109C4789.85,420.531 4788.9,417.109 4787.9,413.98C4787.82,413.75 4787.75,413.539 4787.67,413.309C4786.7,410.32 4785.71,407.602 4784.73,405.051C4784.52,404.512 4784.33,403.969 4784.12,403.449C4783.18,401.078 4782.26,398.961 4781.37,397.02C4781.17,396.59 4780.99,396.199 4780.81,395.801C4774.95,398.449 4768.41,400 4761.19,400C4740.11,400 4720.84,390.02 4693.12,373.422L4684.62,385.699C4681.47,390.23 4675.24,391.371 4670.7,388.23C4666.16,385.09 4665.03,378.852 4668.17,374.309L4682.01,354.309C4685.01,349.961 4690.88,348.699 4695.42,351.449C4727.44,370.859 4744.37,380 4761.19,380C4778.27,380 4784.67,367.898 4787.01,357.738C4787.09,357.391 4789.47,348.16 4789.47,348.16C4797.01,316.422 4806.4,276.891 4806.4,250C4806.4,232.531 4800.21,224.898 4795.24,218.781C4790.49,212.941 4786.4,207.891 4786.4,190C4786.4,182.988 4786.68,175.52 4788.51,166.629C4784.78,168.211 4781.32,169.191 4778.41,169.789C4777.73,169.93 4777.05,170 4776.39,170C4771.74,170 4767.57,166.738 4766.6,162.012C4765.49,156.602 4769.08,151.738 4774.38,150.199C4781.55,148.121 4788.8,142.629 4794.73,134.988C4802.86,124.531 4811.03,100.609 4803.43,82.809ZM4915.54,435.941C4915.15,435.059 4876.4,347.02 4876.4,280C4876.4,260.34 4876.4,259.93 4876.22,241.488C4876.12,230.84 4870.66,221.059 4861.62,215.34C4852.84,209.789 4842.02,209.051 4832.7,213.371C4828.37,215.371 4824.15,217.738 4820,220.09C4823.54,227.262 4826.4,236.781 4826.4,250C4826.4,279.199 4816.73,319.922 4808.94,352.738L4805.32,368.148C4804.5,371.828 4803.27,377.191 4800.88,383.102C4805.95,387.289 4812.31,389.82 4819.19,389.988L4822.36,399.488C4826.3,411.309 4837.05,419.379 4849.39,419.969C4857.27,438.109 4875.17,450 4895.23,450L4906.4,450C4909.79,450 4912.94,448.289 4914.78,445.449C4916.62,442.621 4916.91,439.031 4915.54,435.941ZM4756.2,331.961C4755.26,336.719 4751.08,340 4746.41,340C4745.76,340 4745.1,339.941 4744.44,339.801C4739.03,338.719 4735.51,333.449 4736.6,328.031L4746.6,278.031C4747.67,272.609 4752.96,269.07 4758.37,270.191C4763.78,271.27 4767.3,276.539 4766.21,281.961L4756.2,331.961ZM4540.75,243.512L4540.13,238.121C4538.4,223.469 4530.4,208.891 4522.66,194.781C4518.04,186.359 4513.63,178.18 4510.55,170L4456.4,170C4450.87,170 4446.4,174.469 4446.4,180C4446.4,198.691 4463.39,217.07 4481.94,219.691L4493.47,231.211C4499.13,236.879 4506.67,240 4514.68,240L4522.26,240L4533.47,251.211C4536.09,253.828 4539.14,255.84 4542.43,257.32C4541.8,252.551 4541.26,247.91 4540.75,243.512ZM4647.08,144.469C4644.09,138.129 4638.54,133.281 4631.86,131.18C4625.09,129.059 4617.63,129.852 4611.43,133.422C4606.3,136.359 4601.03,139.711 4595.56,143.199C4594,144.199 4592.35,145.211 4590.75,146.219C4591.94,148.66 4593.11,151.262 4594.25,154.02C4599.31,166.238 4606.78,182.469 4613.66,196.398C4624.77,174.871 4637.36,160.641 4651.24,153.891L4647.08,144.469ZM4836.4,130C4830.88,130 4826.4,134.477 4826.4,140C4826.4,145.523 4830.88,150 4836.4,150C4841.92,150 4846.4,145.523 4846.4,140C4846.4,134.477 4841.92,130 4836.4,130ZM4846.4,90C4840.88,90 4836.4,94.477 4836.4,100C4836.4,105.523 4840.88,110 4846.4,110C4851.92,110 4856.4,105.523 4856.4,100C4856.4,94.477 4851.92,90 4846.4,90ZM4686.4,80C4680.88,80 4676.4,84.477 4676.4,90C4676.4,95.523 4680.88,100 4686.4,100C4691.92,100 4696.4,95.523 4696.4,90C4696.4,84.477 4691.92,80 4686.4,80ZM4836.4,50C4830.88,50 4826.4,54.477 4826.4,60C4826.4,65.523 4830.88,70 4836.4,70C4841.92,70 4846.4,65.523 4846.4,60C4846.4,54.477 4841.92,50 4836.4,50ZM4706.4,40C4700.88,40 4696.4,44.477 4696.4,50C4696.4,55.523 4700.88,60 4706.4,60C4711.92,60 4716.4,55.523 4716.4,50C4716.4,44.477 4711.92,40 4706.4,40ZM4746.4,20C4740.88,20 4736.4,24.477 4736.4,30C4736.4,35.523 4740.88,40 4746.4,40C4751.92,40 4756.4,35.523 4756.4,30C4756.4,24.477 4751.92,20 4746.4,20ZM4796.4,20C4790.88,20 4786.4,24.477 4786.4,30C4786.4,35.523 4790.88,40 4796.4,40C4801.92,40 4806.4,35.523 4806.4,30C4806.4,24.477 4801.92,20 4796.4,20Z" style="fill:rgb(102,165,226);fill-rule:nonzero;"/>
                </g>
                <g transform="matrix(0.906514,0.422175,-0.422175,0.906514,-3294.03,-2433.79)">
                    <path d="M4803.43,82.809C4799.32,73.191 4791.69,64.738 4782.86,61.66C4769.71,57.078 4758.35,59.141 4747.37,65.43C4730.65,74.969 4718.93,96.039 4712.54,128.031C4709.25,144.469 4688.98,161.93 4663.24,170.512C4649.45,175.102 4635.34,193.738 4623.49,223.012C4622.04,226.59 4618.67,229.02 4614.81,229.238C4614.61,229.25 4614.42,229.262 4614.22,229.262C4610.59,229.262 4607.22,227.289 4605.45,224.07C4596.71,208.129 4583.66,180.719 4575.77,161.66C4575.11,160.07 4574.31,158.281 4573.45,156.469C4568.4,145.719 4558.96,130 4546.4,130C4535.15,130 4526.4,136.879 4526.4,150C4526.4,154.301 4527.64,158.941 4529.59,163.879C4537.29,183.48 4556.71,207.922 4560,235.781C4560.98,244.078 4561.98,253.25 4563.45,262.621C4563.85,265.211 4564.31,267.801 4564.81,270.41C4565.12,272.02 4565.43,273.641 4565.78,275.25C4566.52,278.672 4567.38,282.07 4568.35,285.43C4568.55,286.129 4568.7,286.84 4568.92,287.539C4570.21,291.77 4571.72,295.93 4573.49,299.949C4573.7,300.422 4573.96,300.871 4574.17,301.34C4575.74,304.77 4577.52,308.07 4579.51,311.25C4579.74,311.609 4579.99,311.949 4580.22,312.309C4581.81,301.039 4583.85,289.43 4586.33,277.898C4587.49,272.512 4592.82,269.02 4598.21,270.23C4603.61,271.391 4607.05,276.711 4605.89,282.109C4599.94,309.602 4596.4,338.719 4596.4,360C4596.4,420.289 4606.18,469.879 4606.6,471.961C4607.53,476.629 4611.63,480 4616.4,480L4786.4,480C4791.93,480 4796.4,475.531 4796.4,470C4796.4,464.711 4796.14,459.691 4795.76,454.84C4795.71,454.141 4795.67,453.441 4795.61,452.75C4795.2,448.211 4794.64,443.891 4793.98,439.75C4793.85,438.949 4793.72,438.18 4793.59,437.398C4792.89,433.391 4792.11,429.57 4791.24,425.98C4791.08,425.328 4790.92,424.738 4790.76,424.109C4789.85,420.531 4788.9,417.109 4787.9,413.98C4787.82,413.75 4787.75,413.539 4787.67,413.309C4786.7,410.32 4785.71,407.602 4784.73,405.051C4784.52,404.512 4784.33,403.969 4784.12,403.449C4783.18,401.078 4782.26,398.961 4781.37,397.02C4781.17,396.59 4780.99,396.199 4780.81,395.801C4774.95,398.449 4768.41,400 4761.19,400C4740.11,400 4720.84,390.02 4693.12,373.422L4684.62,385.699C4681.47,390.23 4675.24,391.371 4670.7,388.23C4666.16,385.09 4665.03,378.852 4668.17,374.309L4682.01,354.309C4685.01,349.961 4690.88,348.699 4695.42,351.449C4727.44,370.859 4744.37,380 4761.19,380C4778.27,380 4784.67,367.898 4787.01,357.738C4787.09,357.391 4789.47,348.16 4789.47,348.16C4797.01,316.422 4806.4,276.891 4806.4,250C4806.4,232.531 4800.21,224.898 4795.24,218.781C4790.49,212.941 4786.4,207.891 4786.4,190C4786.4,182.988 4786.68,175.52 4788.51,166.629C4784.78,168.211 4781.32,169.191 4778.41,169.789C4777.73,169.93 4777.05,170 4776.39,170C4771.74,170 4767.57,166.738 4766.6,162.012C4765.49,156.602 4769.08,151.738 4774.38,150.199C4781.55,148.121 4788.8,142.629 4794.73,134.988C4802.86,124.531 4811.03,100.609 4803.43,82.809ZM4915.54,435.941C4915.15,435.059 4876.4,347.02 4876.4,280C4876.4,260.34 4876.4,259.93 4876.22,241.488C4876.12,230.84 4870.66,221.059 4861.62,215.34C4852.84,209.789 4842.02,209.051 4832.7,213.371C4828.37,215.371 4824.15,217.738 4820,220.09C4823.54,227.262 4826.4,236.781 4826.4,250C4826.4,279.199 4816.73,319.922 4808.94,352.738L4805.32,368.148C4804.5,371.828 4803.27,377.191 4800.88,383.102C4805.95,387.289 4812.31,389.82 4819.19,389.988L4822.36,399.488C4826.3,411.309 4837.05,419.379 4849.39,419.969C4857.27,438.109 4875.17,450 4895.23,450L4906.4,450C4909.79,450 4912.94,448.289 4914.78,445.449C4916.62,442.621 4916.91,439.031 4915.54,435.941ZM4756.2,331.961C4755.26,336.719 4751.08,340 4746.41,340C4745.76,340 4745.1,339.941 4744.44,339.801C4739.03,338.719 4735.51,333.449 4736.6,328.031L4746.6,278.031C4747.67,272.609 4752.96,269.07 4758.37,270.191C4763.78,271.27 4767.3,276.539 4766.21,281.961L4756.2,331.961ZM4540.75,243.512L4540.13,238.121C4538.4,223.469 4530.4,208.891 4522.66,194.781C4518.04,186.359 4513.63,178.18 4510.55,170L4456.4,170C4450.87,170 4446.4,174.469 4446.4,180C4446.4,198.691 4463.39,217.07 4481.94,219.691L4493.47,231.211C4499.13,236.879 4506.67,240 4514.68,240L4522.26,240L4533.47,251.211C4536.09,253.828 4539.14,255.84 4542.43,257.32C4541.8,252.551 4541.26,247.91 4540.75,243.512ZM4647.08,144.469C4644.09,138.129 4638.54,133.281 4631.86,131.18C4625.09,129.059 4617.63,129.852 4611.43,133.422C4606.3,136.359 4601.03,139.711 4595.56,143.199C4594,144.199 4592.35,145.211 4590.75,146.219C4591.94,148.66 4593.11,151.262 4594.25,154.02C4599.31,166.238 4606.78,182.469 4613.66,196.398C4624.77,174.871 4637.36,160.641 4651.24,153.891L4647.08,144.469ZM4836.4,130C4830.88,130 4826.4,134.477 4826.4,140C4826.4,145.523 4830.88,150 4836.4,150C4841.92,150 4846.4,145.523 4846.4,140C4846.4,134.477 4841.92,130 4836.4,130ZM4846.4,90C4840.88,90 4836.4,94.477 4836.4,100C4836.4,105.523 4840.88,110 4846.4,110C4851.92,110 4856.4,105.523 4856.4,100C4856.4,94.477 4851.92,90 4846.4,90ZM4686.4,80C4680.88,80 4676.4,84.477 4676.4,90C4676.4,95.523 4680.88,100 4686.4,100C4691.92,100 4696.4,95.523 4696.4,90C4696.4,84.477 4691.92,80 4686.4,80ZM4836.4,50C4830.88,50 4826.4,54.477 4826.4,60C4826.4,65.523 4830.88,70 4836.4,70C4841.92,70 4846.4,65.523 4846.4,60C4846.4,54.477 4841.92,50 4836.4,50ZM4706.4,40C4700.88,40 4696.4,44.477 4696.4,50C4696.4,55.523 4700.88,60 4706.4,60C4711.92,60 4716.4,55.523 4716.4,50C4716.4,44.477 4711.92,40 4706.4,40ZM4746.4,20C4740.88,20 4736.4,24.477 4736.4,30C4736.4,35.523 4740.88,40 4746.4,40C4751.92,40 4756.4,35.523 4756.4,30C4756.4,24.477 4751.92,20 4746.4,20ZM4796.4,20C4790.88,20 4786.4,24.477 4786.4,30C4786.4,35.523 4790.88,40 4796.4,40C4801.92,40 4806.4,35.523 4806.4,30C4806.4,24.477 4801.92,20 4796.4,20Z" style="fill:rgb(102,165,226);fill-rule:nonzero;"/>
                </g>
                <g transform="matrix(0.977086,0.212846,-0.212846,0.977086,-3498.46,49.3622)">
                    <path d="M4856.4,90L4833.24,90L4826.9,73.73C4819.3,54.18 4800.74,40 4782.77,40L4670.03,40C4652.06,40 4633.5,54.18 4625.9,73.719L4619.56,90L4566.4,90L4566.4,80C4566.4,74.469 4561.93,70 4556.4,70L4486.4,70C4480.87,70 4476.4,74.469 4476.4,80L4476.4,92.961C4446.98,101.648 4426.4,128.621 4426.4,160L4426.4,370C4426.4,408.59 4457.81,440 4496.4,440L4856.4,440C4894.99,440 4926.4,408.59 4926.4,370L4926.4,160C4926.4,121.41 4894.99,90 4856.4,90ZM4726.4,390C4654.72,390 4596.4,331.68 4596.4,260C4596.4,188.32 4654.72,130 4726.4,130C4798.08,130 4856.4,188.32 4856.4,260C4856.4,331.68 4798.08,390 4726.4,390ZM4726.4,150C4665.75,150 4616.4,199.352 4616.4,260C4616.4,320.648 4665.75,370 4726.4,370C4787.05,370 4836.4,320.648 4836.4,260C4836.4,199.352 4787.05,150 4726.4,150ZM4496.4,180C4485.35,180 4476.4,171.039 4476.4,160C4476.4,148.961 4485.35,140 4496.4,140C4507.44,140 4516.4,148.961 4516.4,160C4516.4,171.039 4507.44,180 4496.4,180Z" style="fill:rgb(102,165,226);fill-rule:nonzero;"/>
                </g>
                <g transform="matrix(0.944038,-0.329835,0.329835,0.944038,-2656.39,3334.82)">
                    <path d="M4696.4,80L4516.4,80C4483.31,80 4456.4,106.91 4456.4,140L4456.4,420C4456.4,453.09 4483.31,480 4516.4,480L4696.4,480C4729.49,480 4756.4,453.09 4756.4,420L4756.4,410L4616.4,410L4616.4,420.641C4616.4,431.32 4607.43,440 4596.4,440C4585.37,440 4576.4,431.32 4576.4,420.641L4576.4,149.359C4576.4,138.68 4585.37,130 4596.4,130C4607.43,130 4616.4,138.68 4616.4,149.359L4616.4,160L4756.4,160L4756.4,140C4756.4,106.91 4729.49,80 4696.4,80ZM4596.4,180L4596.4,390L4896.4,390L4896.4,180L4596.4,180ZM4636.4,370L4616.4,370L4616.4,340L4636.4,340L4636.4,370ZM4696.4,370L4676.4,370L4676.4,340L4696.4,340L4696.4,370ZM4756.4,370L4736.4,370L4736.4,340L4756.4,340L4756.4,370ZM4816.4,370L4796.4,370L4796.4,340L4816.4,340L4816.4,370ZM4876.4,370L4856.4,370L4856.4,340L4876.4,340L4876.4,370ZM4636.4,230L4616.4,230L4616.4,200L4636.4,200L4636.4,230ZM4696.4,230L4676.4,230L4676.4,200L4696.4,200L4696.4,230ZM4756.4,230L4736.4,230L4736.4,200L4756.4,200L4756.4,230ZM4816.4,230L4796.4,230L4796.4,200L4816.4,200L4816.4,230ZM4876.4,230L4856.4,230L4856.4,200L4876.4,200L4876.4,230ZM4686.4,60L4686.4,50C4686.4,33.461 4672.94,20 4656.4,20L4556.4,20C4539.86,20 4526.4,33.461 4526.4,50L4526.4,60L4686.4,60Z" style="fill:rgb(102,165,226);fill-rule:nonzero;"/>
                </g>
                <g transform="matrix(0.944038,-0.329835,0.329835,0.944038,-2656.39,1334.8)">
                    <path d="M4696.4,80L4516.4,80C4483.31,80 4456.4,106.91 4456.4,140L4456.4,420C4456.4,453.09 4483.31,480 4516.4,480L4696.4,480C4729.49,480 4756.4,453.09 4756.4,420L4756.4,410L4616.4,410L4616.4,420.641C4616.4,431.32 4607.43,440 4596.4,440C4585.37,440 4576.4,431.32 4576.4,420.641L4576.4,149.359C4576.4,138.68 4585.37,130 4596.4,130C4607.43,130 4616.4,138.68 4616.4,149.359L4616.4,160L4756.4,160L4756.4,140C4756.4,106.91 4729.49,80 4696.4,80ZM4596.4,180L4596.4,390L4896.4,390L4896.4,180L4596.4,180ZM4636.4,370L4616.4,370L4616.4,340L4636.4,340L4636.4,370ZM4696.4,370L4676.4,370L4676.4,340L4696.4,340L4696.4,370ZM4756.4,370L4736.4,370L4736.4,340L4756.4,340L4756.4,370ZM4816.4,370L4796.4,370L4796.4,340L4816.4,340L4816.4,370ZM4876.4,370L4856.4,370L4856.4,340L4876.4,340L4876.4,370ZM4636.4,230L4616.4,230L4616.4,200L4636.4,200L4636.4,230ZM4696.4,230L4676.4,230L4676.4,200L4696.4,200L4696.4,230ZM4756.4,230L4736.4,230L4736.4,200L4756.4,200L4756.4,230ZM4816.4,230L4796.4,230L4796.4,200L4816.4,200L4816.4,230ZM4876.4,230L4856.4,230L4856.4,200L4876.4,200L4876.4,230ZM4686.4,60L4686.4,50C4686.4,33.461 4672.94,20 4656.4,20L4556.4,20C4539.86,20 4526.4,33.461 4526.4,50L4526.4,60L4686.4,60Z" style="fill:rgb(102,165,226);fill-rule:nonzero;"/>
                </g>
                <g transform="matrix(0.944038,-0.329835,0.329835,0.944038,-4656.44,1334.8)">
                    <path d="M4696.4,80L4516.4,80C4483.31,80 4456.4,106.91 4456.4,140L4456.4,420C4456.4,453.09 4483.31,480 4516.4,480L4696.4,480C4729.49,480 4756.4,453.09 4756.4,420L4756.4,410L4616.4,410L4616.4,420.641C4616.4,431.32 4607.43,440 4596.4,440C4585.37,440 4576.4,431.32 4576.4,420.641L4576.4,149.359C4576.4,138.68 4585.37,130 4596.4,130C4607.43,130 4616.4,138.68 4616.4,149.359L4616.4,160L4756.4,160L4756.4,140C4756.4,106.91 4729.49,80 4696.4,80ZM4596.4,180L4596.4,390L4896.4,390L4896.4,180L4596.4,180ZM4636.4,370L4616.4,370L4616.4,340L4636.4,340L4636.4,370ZM4696.4,370L4676.4,370L4676.4,340L4696.4,340L4696.4,370ZM4756.4,370L4736.4,370L4736.4,340L4756.4,340L4756.4,370ZM4816.4,370L4796.4,370L4796.4,340L4816.4,340L4816.4,370ZM4876.4,370L4856.4,370L4856.4,340L4876.4,340L4876.4,370ZM4636.4,230L4616.4,230L4616.4,200L4636.4,200L4636.4,230ZM4696.4,230L4676.4,230L4676.4,200L4696.4,200L4696.4,230ZM4756.4,230L4736.4,230L4736.4,200L4756.4,200L4756.4,230ZM4816.4,230L4796.4,230L4796.4,200L4816.4,200L4816.4,230ZM4876.4,230L4856.4,230L4856.4,200L4876.4,200L4876.4,230ZM4686.4,60L4686.4,50C4686.4,33.461 4672.94,20 4656.4,20L4556.4,20C4539.86,20 4526.4,33.461 4526.4,50L4526.4,60L4686.4,60Z" style="fill:rgb(102,165,226);fill-rule:nonzero;"/>
                </g>
                <g transform="matrix(0.944038,-0.329835,0.329835,0.944038,-4656.44,3334.8)">
                    <path d="M4696.4,80L4516.4,80C4483.31,80 4456.4,106.91 4456.4,140L4456.4,420C4456.4,453.09 4483.31,480 4516.4,480L4696.4,480C4729.49,480 4756.4,453.09 4756.4,420L4756.4,410L4616.4,410L4616.4,420.641C4616.4,431.32 4607.43,440 4596.4,440C4585.37,440 4576.4,431.32 4576.4,420.641L4576.4,149.359C4576.4,138.68 4585.37,130 4596.4,130C4607.43,130 4616.4,138.68 4616.4,149.359L4616.4,160L4756.4,160L4756.4,140C4756.4,106.91 4729.49,80 4696.4,80ZM4596.4,180L4596.4,390L4896.4,390L4896.4,180L4596.4,180ZM4636.4,370L4616.4,370L4616.4,340L4636.4,340L4636.4,370ZM4696.4,370L4676.4,370L4676.4,340L4696.4,340L4696.4,370ZM4756.4,370L4736.4,370L4736.4,340L4756.4,340L4756.4,370ZM4816.4,370L4796.4,370L4796.4,340L4816.4,340L4816.4,370ZM4876.4,370L4856.4,370L4856.4,340L4876.4,340L4876.4,370ZM4636.4,230L4616.4,230L4616.4,200L4636.4,200L4636.4,230ZM4696.4,230L4676.4,230L4676.4,200L4696.4,200L4696.4,230ZM4756.4,230L4736.4,230L4736.4,200L4756.4,200L4756.4,230ZM4816.4,230L4796.4,230L4796.4,200L4816.4,200L4816.4,230ZM4876.4,230L4856.4,230L4856.4,200L4876.4,200L4876.4,230ZM4686.4,60L4686.4,50C4686.4,33.461 4672.94,20 4656.4,20L4556.4,20C4539.86,20 4526.4,33.461 4526.4,50L4526.4,60L4686.4,60Z" style="fill:rgb(102,165,226);fill-rule:nonzero;"/>
                </g>
                <g transform="matrix(1,0,0,1,1059,1665.21)">
                    <path d="M80.271,255.577C75.108,239.314 70,218.54 70,200C70,139.281 105.84,112.238 120.25,103.828C122.578,71.75 141.262,20 200,20C224.07,20 240.988,29.711 250,36.629C259.012,29.711 275.93,20 300,20C358.738,20 377.422,71.75 379.75,103.828C394.148,112.238 430,139.281 430,200C430,218.54 424.892,239.314 419.729,255.577C423.869,260.486 430,270.97 430,290C430,316.794 407.205,332.077 397.798,337.24C381.018,376.755 362.329,411.436 339.756,436.511C315.193,463.795 286.033,480 250,480C213.967,480 184.807,463.795 160.244,436.511C137.671,411.436 118.982,376.755 102.202,337.24C92.795,332.077 70,316.794 70,290C70,270.97 76.131,260.486 80.271,255.577ZM409.531,283.166C409.329,283.634 409.195,283.936 409.141,284.059C407.531,287.68 403.961,290 400,290L380,290C374.469,290 370,285.531 370,280C370,206.27 308.012,180 250,180C191.988,180 130,206.27 130,280C130,285.531 125.52,290 120,290L100,290C96.051,290 92.469,287.68 90.859,284.059C90.805,283.936 90.671,283.634 90.469,283.166C90.176,285.232 90,287.51 90,290C90,300.438 95.908,307.876 101.576,312.825C107.71,318.179 113.814,320.756 113.814,320.756C116.257,321.764 118.201,323.698 119.223,326.135C135.404,364.742 153.202,398.796 175.108,423.129C195.666,445.965 219.842,460 250,460C280.158,460 304.334,445.965 324.892,423.129C346.798,398.796 364.596,364.742 380.777,326.135C381.799,323.698 383.743,321.764 386.186,320.756C386.186,320.756 392.29,318.179 398.424,312.825C404.092,307.876 410,300.438 410,290C410,287.511 409.824,285.234 409.531,283.166ZM182.889,281.301C173.367,280.488 162.462,280 150,280C144.481,280 140,275.519 140,270C140,264.481 144.481,260 150,260C209.698,260 238.215,271.164 249.974,277.895C261.702,271.139 290.129,260 350,260C355.519,260 360,264.481 360,270C360,275.519 355.519,280 350,280C337.518,280 326.605,280.484 317.082,281.29C324.632,284.148 330,291.446 330,300C330,311.047 321.047,320 310,320C298.953,320 290,311.047 290,300C290,293.114 293.478,287.042 298.775,283.444C266.59,288.432 257.071,297.071 257.071,297.071C253.192,300.95 246.911,300.98 242.996,297.137C242.996,297.137 233.328,288.493 201.285,283.485C206.547,287.087 210,293.14 210,300C210,311.047 201.047,320 190,320C178.953,320 170,311.047 170,300C170,291.457 175.354,284.167 182.889,281.301ZM214.847,70.001C208.446,70.065 203.058,74.171 200.971,79.864L200.922,80L199.078,80C197.036,74.236 191.606,70.065 185.153,70.001L185,70C176.719,70 170,76.719 170,85C170,91.52 174.191,97.012 180,99.078L180,100.922C174.191,102.98 170,108.48 170,115C170,123.281 176.719,130 185,130L185.153,129.999C191.605,129.935 197.028,125.764 199.078,120L200.922,120L200.971,120.136C203.066,125.874 208.531,130 215,130L215.194,129.999C223.385,129.895 230,123.216 230,115C230,108.48 225.809,102.98 220,100.922L220,99.078C225.809,97.02 230,91.52 230,85C230,76.784 223.385,70.105 215.194,70.001L214.847,70.001ZM314.847,70.001C308.446,70.065 303.058,74.171 300.971,79.864L300.922,80L299.078,80C297.036,74.236 291.606,70.065 285.153,70.001L285,70C276.719,70 270,76.719 270,85C270,91.52 274.191,97.012 280,99.078L280,100.922C274.191,102.98 270,108.48 270,115C270,123.281 276.719,130 285,130L285.153,129.999C291.605,129.935 297.028,125.764 299.078,120L300.922,120L300.971,120.136C303.066,125.874 308.531,130 315,130L315.194,129.999C323.385,129.895 330,123.216 330,115C330,108.48 325.809,102.98 320,100.922L320,99.078C325.809,97.02 330,91.52 330,85C330,76.784 323.385,70.105 315.194,70.001L314.847,70.001Z" style="fill:rgb(102,165,226);"/>
                </g>
                <g transform="matrix(1,0,0,1,1059,-334.8)">
                    <path d="M80.271,255.577C75.108,239.314 70,218.54 70,200C70,139.281 105.84,112.238 120.25,103.828C122.578,71.75 141.262,20 200,20C224.07,20 240.988,29.711 250,36.629C259.012,29.711 275.93,20 300,20C358.738,20 377.422,71.75 379.75,103.828C394.148,112.238 430,139.281 430,200C430,218.54 424.892,239.314 419.729,255.577C423.869,260.486 430,270.97 430,290C430,316.794 407.205,332.077 397.798,337.24C381.018,376.755 362.329,411.436 339.756,436.511C315.193,463.795 286.033,480 250,480C213.967,480 184.807,463.795 160.244,436.511C137.671,411.436 118.982,376.755 102.202,337.24C92.795,332.077 70,316.794 70,290C70,270.97 76.131,260.486 80.271,255.577ZM409.531,283.166C409.329,283.634 409.195,283.936 409.141,284.059C407.531,287.68 403.961,290 400,290L380,290C374.469,290 370,285.531 370,280C370,206.27 308.012,180 250,180C191.988,180 130,206.27 130,280C130,285.531 125.52,290 120,290L100,290C96.051,290 92.469,287.68 90.859,284.059C90.805,283.936 90.671,283.634 90.469,283.166C90.176,285.232 90,287.51 90,290C90,300.438 95.908,307.876 101.576,312.825C107.71,318.179 113.814,320.756 113.814,320.756C116.257,321.764 118.201,323.698 119.223,326.135C135.404,364.742 153.202,398.796 175.108,423.129C195.666,445.965 219.842,460 250,460C280.158,460 304.334,445.965 324.892,423.129C346.798,398.796 364.596,364.742 380.777,326.135C381.799,323.698 383.743,321.764 386.186,320.756C386.186,320.756 392.29,318.179 398.424,312.825C404.092,307.876 410,300.438 410,290C410,287.511 409.824,285.234 409.531,283.166ZM182.889,281.301C173.367,280.488 162.462,280 150,280C144.481,280 140,275.519 140,270C140,264.481 144.481,260 150,260C209.698,260 238.215,271.164 249.974,277.895C261.702,271.139 290.129,260 350,260C355.519,260 360,264.481 360,270C360,275.519 355.519,280 350,280C337.518,280 326.605,280.484 317.082,281.29C324.632,284.148 330,291.446 330,300C330,311.047 321.047,320 310,320C298.953,320 290,311.047 290,300C290,293.114 293.478,287.042 298.775,283.444C266.59,288.432 257.071,297.071 257.071,297.071C253.192,300.95 246.911,300.98 242.996,297.137C242.996,297.137 233.328,288.493 201.285,283.485C206.547,287.087 210,293.14 210,300C210,311.047 201.047,320 190,320C178.953,320 170,311.047 170,300C170,291.457 175.354,284.167 182.889,281.301ZM214.847,70.001C208.446,70.065 203.058,74.171 200.971,79.864L200.922,80L199.078,80C197.036,74.236 191.606,70.065 185.153,70.001L185,70C176.719,70 170,76.719 170,85C170,91.52 174.191,97.012 180,99.078L180,100.922C174.191,102.98 170,108.48 170,115C170,123.281 176.719,130 185,130L185.153,129.999C191.605,129.935 197.028,125.764 199.078,120L200.922,120L200.971,120.136C203.066,125.874 208.531,130 215,130L215.194,129.999C223.385,129.895 230,123.216 230,115C230,108.48 225.809,102.98 220,100.922L220,99.078C225.809,97.02 230,91.52 230,85C230,76.784 223.385,70.105 215.194,70.001L214.847,70.001ZM314.847,70.001C308.446,70.065 303.058,74.171 300.971,79.864L300.922,80L299.078,80C297.036,74.236 291.606,70.065 285.153,70.001L285,70C276.719,70 270,76.719 270,85C270,91.52 274.191,97.012 280,99.078L280,100.922C274.191,102.98 270,108.48 270,115C270,123.281 276.719,130 285,130L285.153,129.999C291.605,129.935 297.028,125.764 299.078,120L300.922,120L300.971,120.136C303.066,125.874 308.531,130 315,130L315.194,129.999C323.385,129.895 330,123.216 330,115C330,108.48 325.809,102.98 320,100.922L320,99.078C325.809,97.02 330,91.52 330,85C330,76.784 323.385,70.105 315.194,70.001L314.847,70.001Z" style="fill:rgb(102,165,226);"/>
                </g>
                <g transform="matrix(0.978913,0.204278,-0.204278,0.978913,-2849.27,-300.262)">
                    <path d="M4601.4,284.199L4587.1,270.102L4492.3,364.898C4491.3,365.898 4490.5,367.199 4490,368.5L4457,456.5C4455.7,460.199 4456.6,464.301 4459.3,467.102C4461.2,469 4463.8,470 4466.4,470C4467.6,470 4468.8,469.801 4469.9,469.398L4557.9,436.398C4559.2,435.898 4560.5,435.102 4561.5,434.102L4656.6,339L4642.4,325L4601.4,284.199ZM4906.8,437C4905.5,432.398 4901.4,429.301 4896.7,429.102C4886.9,428.898 4879,426.398 4873.3,421.699C4866,415.5 4863.8,406.801 4861.3,396.699C4858.4,385.199 4855.2,372.102 4843.6,361.801C4833.5,352.898 4819.4,348.602 4801.9,349C4801.7,344.199 4800.6,339.398 4798.5,334.699C4798.1,333.898 4797.7,333.199 4797.2,332.5L4748.8,271.102C4748.5,270.801 4748.3,270.5 4748,270.199L4736.7,258.898L4722.7,244.602L4681.8,203.699L4667.4,189.801L4520.2,42.801C4519.3,41.898 4518.4,41.199 4517.3,40.801C4496.7,31.398 4472.6,36.699 4458.7,53.699C4446.6,68.301 4444.5,89.102 4453.2,106.699C4453.6,107.602 4454.3,108.5 4455.1,109.301L4601.5,255.699L4615.5,270.102L4656.6,310.801L4670.7,324.898L4682.9,337L4683.2,337.301L4744.2,385.398C4744.9,385.898 4745.6,386.398 4746.4,386.699C4749.4,388 4752.4,388.898 4755.5,389.5L4755.5,390.398C4756,403.801 4759.6,429 4778.8,447.801C4793.8,462.5 4814.6,469.801 4837,469.801C4858.6,469.801 4881.8,462.898 4902.5,449C4906.4,446.398 4908.1,441.5 4906.8,437ZM4497.2,437.801L4488.6,429.199L4503,390.801L4509.3,397.102C4511.2,398.898 4513.7,400 4516.4,400L4526.4,400L4526.4,410C4526.4,412.699 4527.5,415.199 4529.3,417.102L4535.6,423.398L4497.2,437.801ZM4712.1,334.602C4719.9,331.602 4728.8,326.398 4736.5,317.5C4740.7,312.5 4744.2,306.801 4746.6,300.699L4780.6,343.801C4783.4,351.301 4781.9,359.398 4776.5,364.801C4771.2,370.102 4763,371.699 4755.5,368.801L4712.1,334.602ZM4681.8,175.398L4751,244.602L4875.5,120.102C4879,116.602 4879.4,111.102 4876.5,107.102L4884.5,99.102C4900.5,83 4900.5,57 4884.5,40.898C4876.8,33.199 4866.5,29 4855.4,29C4844.3,29 4834,33.199 4826.3,40.898L4818.1,49.102C4814.3,47.102 4809.5,47.699 4806.3,50.898L4681.8,175.398ZM4813.4,72.102L4854.3,113L4827,140.398L4786.1,99.5L4813.4,72.102Z" style="fill:rgb(102,165,226);fill-rule:nonzero;"/>
                </g>
                <g transform="matrix(0.866025,-0.5,0.5,0.866025,792.327,324.944)">
                    <path d="M290,364.931L290,330C290,327 292,324 294,322C306,313 320,295 320,270C320,267 322,263 325,262C326,262 340,251 340,228C340,217 333,210 333,209C331,207 330,205 330,202L330,190C330,184 334,180 340,180C346,180 350,184 350,190L350,199C354,204 360,214 360,228C360,253 347,269 340,275C339,302 324,323 310,335L310,368C317,385 342,394 370,405C403,418 441,433 462,465C464,468 464,472 462,475C461,478 458,480 454,480L310,480C306,480 303,478 301,475C299,472 299,468 302,465C316,444 321,418 323,407C311.75,401 302.188,393.875 296,384.36C290.449,387.236 281.014,391.769 270.982,395.03L256,420C256,420 281,449 281,480L220,480C220,450 244,420 244,420L229.068,395.113C218.009,391.611 207.527,386.597 202.031,383.791C195.837,392.596 186.679,399.305 176,405C178,416 183,443 197,463C199,466 199,470 198,473C197,478 194,480 190,480L46,480C42,480 39,478 37,475C35,472 35,468 37,465C58,433 96,418 129,405C157,394 182,384 189,368L189,335C175,323 161,302 159,275C152,269 139,253 139,228C139,214 145,204 149,199L149,190C149,184 153,180 159,180C165,180 169,184 169,190L169,203C169,206 168,208 166,210C166,210 159,218 159,228C159,251 174,261 175,262C178,264 179,267 179,270C179,295 192,313 205,322C208,324 209,327 209,330L209,364.91C213.89,367.653 235.02,379 250,379C264.996,379 285.489,367.56 290,364.931ZM234,230C221,230 210,241 210,255C210,280 233,300 242,300C245,300 248,299 250,298C252,299 255,300 258,300C267,300 290,284 290,255C290,241 279,230 266,230C260,230 254,232 250,236C246,232 240,230 234,230ZM272,220C280,213 280,200 280,200C280,200 267,200 259,207C251,214 250,227 250,227C250,227 264,227 272,220ZM399,147C397,142 391,139 386,141C386,141 372,146 349,151L349,111C349,61 309,21 259,21L239,21C189,21 149,61 149,111L149,151C126,146 113,142 112,141C107,139 101,142 99,147C97,152 100,158 105,160C109,160 165,180 250,180C335,180 391,160 393,159C399,158 401,152 399,147Z" style="fill:rgb(102,165,226);fill-rule:nonzero;"/>
                </g>
            </g>
        </g>
    </g>
</svg>
