<?xml version="1.0" encoding="UTF-8" standalone="no"?>
<!DOCTYPE svg PUBLIC "-//W3C//DTD SVG 1.1//EN" "http://www.w3.org/Graphics/SVG/1.1/DTD/svg11.dtd">
<svg width="100%" height="100%" viewBox="0 0 2000 2000" version="1.1" xmlns="http://www.w3.org/2000/svg" xmlns:xlink="http://www.w3.org/1999/xlink" xml:space="preserve" xmlns:serif="http://www.serif.com/" style="fill-rule:evenodd;clip-rule:evenodd;stroke-linejoin:round;stroke-miterlimit:2;">
    <g transform="matrix(1,0,0,1,-4426.4,0)">
        <g id="_-" serif:id=" " transform="matrix(1,0,0,1,4426.4,0)">
            <rect x="0" y="0" width="2000" height="2000" style="fill:none;"/>
            <clipPath id="_clip1">
                <rect x="0" y="0" width="2000" height="2000"/>
            </clipPath>
            <g clip-path="url(#_clip1)">
                <g transform="matrix(1.15135,0,0,1.15135,337.332,869.042)">
                    <path d="M459.82,380.828C459.852,380.551 460,380.289 460,380C460,374.539 459.691,245.672 429.551,166.988C416.109,113.891 335.891,20 222.219,20C110.719,20 20,110.719 20,222.219C20,284.16 35.078,337.449 35.719,339.691C36.43,342.18 38.078,344.301 40.32,345.59C78.219,367.512 299.629,476.961 368.719,479.988C368.871,480 369.012,480 369.16,480C371.039,480 372.879,479.469 374.469,478.469C433.41,441.488 458.129,386.352 459.148,384.031C459.27,383.75 459.238,383.43 459.34,383.141C459.5,382.68 459.762,382.281 459.84,381.789C459.898,381.461 459.801,381.148 459.82,380.828ZM439.801,367.781C338.68,346.031 251.969,283.43 218.191,256.461C236.77,249.148 250,231.141 250,210C250,202.84 248.43,196.07 245.711,189.91C342.051,189.172 393.488,181.961 412.488,178.539C434.672,240.328 438.969,334.469 439.801,367.781ZM230,210C230,226.539 216.539,240 200,240C183.461,240 170,226.539 170,210C170,193.461 183.461,180 200,180C216.539,180 230,193.461 230,210ZM200,195C191.721,195 185,201.721 185,210C185,218.279 191.721,225 200,225C208.279,225 215,218.279 215,210C215,201.721 208.279,195 200,195Z"/>
                </g>
                <g transform="matrix(0.986361,-0.164597,0.164597,0.986361,903.343,1570.74)">
                    <path d="M330.801,430.191C335.493,401.754 360.249,380 390,380C423.09,380 450,406.91 450,440C450,473.09 423.09,500 390,500C360.252,500 335.499,478.251 330.803,449.82L278.356,449.82C274.289,461.567 263.13,470 250,470C236.87,470 225.711,461.567 221.644,449.82L179.197,449.82C174.501,478.251 149.748,500 120,500C86.91,500 60,473.09 60,440C60,406.91 86.91,380 120,380C149.751,380 174.507,401.754 179.199,430.191L221.64,430.191C225.703,418.439 236.865,410 250,410C263.135,410 274.297,418.439 278.36,430.191L330.801,430.191ZM397.699,149.969L53.648,149.969C27.922,149.969 -0.031,202.191 -0.031,215.711L-0.031,271.43C-0.031,287.199 12.75,300.031 28.461,300.031L70,300.031L70,290C70,262.379 92.379,240 120,240C147.621,240 170,262.379 170,290L170,300.031L340,300.031L340,290C340,262.379 362.379,240 390,240C417.621,240 440,262.379 440,290L440,300.031L471.539,300.031C487.238,300.031 500.031,287.199 500.031,271.43L500.031,234.301C500.031,207.879 474.262,149.969 397.699,149.969ZM53.648,129.969L190,129.969L190,70L145.051,70C108.219,70 74.922,100.328 50.578,130.27C51.609,130.191 52.621,129.969 53.648,129.969ZM365.961,129.969C362.77,127.602 359.57,125.211 356.461,122.859C325.219,99.309 286.371,70 250,70L210,70L210,129.969L365.961,129.969Z"/>
                </g>
                <g transform="matrix(0.986361,-0.164597,0.164597,0.986361,903.343,-429.25)">
                    <path d="M330.801,430.191C335.493,401.754 360.249,380 390,380C423.09,380 450,406.91 450,440C450,473.09 423.09,500 390,500C360.252,500 335.499,478.251 330.803,449.82L278.356,449.82C274.289,461.567 263.13,470 250,470C236.87,470 225.711,461.567 221.644,449.82L179.197,449.82C174.501,478.251 149.748,500 120,500C86.91,500 60,473.09 60,440C60,406.91 86.91,380 120,380C149.751,380 174.507,401.754 179.199,430.191L221.64,430.191C225.703,418.439 236.865,410 250,410C263.135,410 274.297,418.439 278.36,430.191L330.801,430.191ZM397.699,149.969L53.648,149.969C27.922,149.969 -0.031,202.191 -0.031,215.711L-0.031,271.43C-0.031,287.199 12.75,300.031 28.461,300.031L70,300.031L70,290C70,262.379 92.379,240 120,240C147.621,240 170,262.379 170,290L170,300.031L340,300.031L340,290C340,262.379 362.379,240 390,240C417.621,240 440,262.379 440,290L440,300.031L471.539,300.031C487.238,300.031 500.031,287.199 500.031,271.43L500.031,234.301C500.031,207.879 474.262,149.969 397.699,149.969ZM53.648,129.969L190,129.969L190,70L145.051,70C108.219,70 74.922,100.328 50.578,130.27C51.609,130.191 52.621,129.969 53.648,129.969ZM365.961,129.969C362.77,127.602 359.57,125.211 356.461,122.859C325.219,99.309 286.371,70 250,70L210,70L210,129.969L365.961,129.969Z"/>
                </g>
                <g transform="matrix(0.942861,0.333185,-0.333185,0.942861,1648.69,-152.573)">
                    <path d="M410,40L90,40C62.43,40 40,62.43 40,90L40,410C40,437.57 62.43,460 90,460L410,460C437.57,460 460,437.57 460,410L460,90C460,62.43 437.57,40 410,40ZM260,90L290,90L317.5,170L260,170L260,90ZM210,90L240,90L240,170L182.5,170L210,90ZM240,410L100,410L161.879,230L240,230L240,410ZM260,410L260,230L338.129,230L400,410L260,410ZM420,210L390,210L390,230L360,230L360,210L140,210L140,230L110,230L110,210L80,210L80,190L420,190L420,210Z" style="fill-rule:nonzero;"/>
                </g>
                <g transform="matrix(0.942861,0.333185,-0.333185,0.942861,-351.287,-152.573)">
                    <path d="M410,40L90,40C62.43,40 40,62.43 40,90L40,410C40,437.57 62.43,460 90,460L410,460C437.57,460 460,437.57 460,410L460,90C460,62.43 437.57,40 410,40ZM260,90L290,90L317.5,170L260,170L260,90ZM210,90L240,90L240,170L182.5,170L210,90ZM240,410L100,410L161.879,230L240,230L240,410ZM260,410L260,230L338.129,230L400,410L260,410ZM420,210L390,210L390,230L360,230L360,210L140,210L140,230L110,230L110,210L80,210L80,190L420,190L420,210Z" style="fill-rule:nonzero;"/>
                </g>
                <g transform="matrix(0.942861,0.333185,-0.333185,0.942861,1648.71,1847.46)">
                    <path d="M410,40L90,40C62.43,40 40,62.43 40,90L40,410C40,437.57 62.43,460 90,460L410,460C437.57,460 460,437.57 460,410L460,90C460,62.43 437.57,40 410,40ZM260,90L290,90L317.5,170L260,170L260,90ZM210,90L240,90L240,170L182.5,170L210,90ZM240,410L100,410L161.879,230L240,230L240,410ZM260,410L260,230L338.129,230L400,410L260,410ZM420,210L390,210L390,230L360,230L360,210L140,210L140,230L110,230L110,210L80,210L80,190L420,190L420,210Z" style="fill-rule:nonzero;"/>
                </g>
                <g transform="matrix(0.946387,-0.323034,0.323034,0.946387,230.008,65.9707)">
                    <path d="M200,210L170,210C164.48,210 160,205.52 160,200L160,180C160,174.48 164.48,170 170,170L250,170C255.52,170 260,174.48 260,180L260,200C260,205.52 255.52,210 250,210L220,210C220,210 220,230 220,230L320,230C325.531,230 330,234.48 330,240L330,252.102L444.762,181.48C446.34,180.512 448.141,180 450,180L459.871,180C459.961,180.012 460.059,180 460.129,180L490,180C495.531,180 500,184.48 500,190C500,195.52 495.531,200 490,200L465.211,200L328.191,395.73C326.32,398.41 323.262,400 320,400L90,400C84.48,400 80,395.531 80,390L80,276.93L6.489,249.363C2.586,247.9 0,244.168 0,240L0,180C0,176.786 1.545,173.767 4.153,171.888C6.761,170.008 10.113,169.497 13.162,170.513L73.162,190.513C75.678,191.352 77.758,193.156 78.944,195.528L96.18,230L200,230L200,210ZM500,320C500,331.051 491.051,340 480,340C468.949,340 460,331.051 460,320C460,308.949 480,270 480,270C480,270 500,308.949 500,320ZM80,242.361L62.908,208.177L20,193.874L20,233.07L80,255.57L80,242.361Z" style="fill-rule:nonzero;"/>
                </g>
                <g transform="matrix(0.94428,0.329142,-0.329142,0.94428,-80.1227,1343.27)">
                    <path d="M449.34,268.141C448.281,265.34 434.051,228.199 419.961,191.91C419.82,191.59 419.73,191.309 419.609,190.988C407.91,160.84 396.41,131.48 392.73,123.09C384.352,104.051 361.289,95.398 344.371,90.551C339.16,88.391 314.82,80 250,80C184.012,80 159.969,88.699 155.359,90.68C139.871,95.949 116.789,103.941 106.82,123.281C100.051,136.43 55.68,254.762 50.641,268.199L50,269.91L50,390C50,406.539 63.461,420 80,420L120,420C136.539,420 150,406.539 150,390L150,380L350,380L350,390C350,406.539 363.461,420 380,420L420,420C436.539,420 450,406.539 450,390L450,269.891L449.34,268.141ZM150,330C133.238,330 128.129,325.66 110.801,315.84C99.191,309.27 90,303.07 90,290C90,278.949 98.961,270 110,270L150,270C166.559,270 180,283.422 180,300C180,316.578 166.559,330 150,330ZM320,300C320,283.422 333.441,270 350,270L390,270C401.039,270 410,278.949 410,290C410,303.07 400.809,309.27 389.199,315.84C371.879,325.66 366.762,330 350,330C333.441,330 320,316.578 320,300ZM449,190L440.641,190C449.699,213.391 458.551,236.391 463.672,249.672C486.219,247.98 490,234.34 490,225.879C490,208.539 479.23,190 449,190ZM58.809,190L50.988,190C20.77,190 10,208.539 10,225.879C10,234.32 13.762,247.941 36.23,249.66C42.5,232.969 50.68,211.289 58.809,190ZM222.431,230C214.357,217.941 200.601,210 185,210C169.397,210 155.648,217.939 147.578,230L222.431,230ZM374.979,229.901C389.296,229.314 399.033,226.132 402.641,220.789C406.539,214.961 403.699,205.441 401.25,199C400.98,198.301 400.699,197.578 400.43,196.891C400.25,196.441 400.07,195.969 399.91,195.578L399.121,193.648L399.172,193.629C388.18,165.352 377.75,138.789 374.41,131.16C368.75,118.27 345.801,111.762 338.262,109.621L336.699,109.031C336.621,109 315.52,100 250,100C184.48,100 163.371,109 163.172,109.09L162.219,109.469C149.77,113.699 130.961,120.102 124.602,132.441C122.078,137.34 112.078,162.82 100.34,193.441L100.52,192.922L99.738,194.84C97.328,200.762 92.309,213.07 97.012,220.039C100.612,225.404 110.641,229.18 125.041,229.881C132.252,212.691 146.63,199.258 164.437,193.324C155.687,186.965 150,176.648 150,165C150,145.667 165.667,130 185,130C204.333,130 220,145.667 220,165C220,176.648 214.313,186.965 205.562,193.325C223.417,199.274 237.829,212.76 245.02,230L254.986,230C262.178,212.756 276.583,199.273 294.433,193.321C285.685,186.962 280,176.646 280,165C280,145.667 295.667,130 315,130C334.333,130 350,145.667 350,165C350,176.648 344.313,186.965 335.562,193.325C353.383,199.263 367.773,212.708 374.979,229.901ZM352.431,230C344.357,217.941 330.601,210 315,210C299.397,210 285.647,217.939 277.574,230L352.431,230ZM315,150C323.285,150 330,156.715 330,165C330,173.285 323.285,180 315,180C306.715,180 300,173.285 300,165C300,156.715 306.715,150 315,150ZM185,150C193.285,150 200,156.715 200,165C200,173.285 193.285,180 185,180C176.715,180 170,173.285 170,165C170,156.715 176.715,150 185,150Z"/>
                </g>
                <g transform="matrix(0.94428,0.329142,-0.329142,0.94428,1919.89,1343.27)">
                    <path d="M449.34,268.141C448.281,265.34 434.051,228.199 419.961,191.91C419.82,191.59 419.73,191.309 419.609,190.988C407.91,160.84 396.41,131.48 392.73,123.09C384.352,104.051 361.289,95.398 344.371,90.551C339.16,88.391 314.82,80 250,80C184.012,80 159.969,88.699 155.359,90.68C139.871,95.949 116.789,103.941 106.82,123.281C100.051,136.43 55.68,254.762 50.641,268.199L50,269.91L50,390C50,406.539 63.461,420 80,420L120,420C136.539,420 150,406.539 150,390L150,380L350,380L350,390C350,406.539 363.461,420 380,420L420,420C436.539,420 450,406.539 450,390L450,269.891L449.34,268.141ZM150,330C133.238,330 128.129,325.66 110.801,315.84C99.191,309.27 90,303.07 90,290C90,278.949 98.961,270 110,270L150,270C166.559,270 180,283.422 180,300C180,316.578 166.559,330 150,330ZM320,300C320,283.422 333.441,270 350,270L390,270C401.039,270 410,278.949 410,290C410,303.07 400.809,309.27 389.199,315.84C371.879,325.66 366.762,330 350,330C333.441,330 320,316.578 320,300ZM449,190L440.641,190C449.699,213.391 458.551,236.391 463.672,249.672C486.219,247.98 490,234.34 490,225.879C490,208.539 479.23,190 449,190ZM58.809,190L50.988,190C20.77,190 10,208.539 10,225.879C10,234.32 13.762,247.941 36.23,249.66C42.5,232.969 50.68,211.289 58.809,190ZM222.431,230C214.357,217.941 200.601,210 185,210C169.397,210 155.648,217.939 147.578,230L222.431,230ZM374.979,229.901C389.296,229.314 399.033,226.132 402.641,220.789C406.539,214.961 403.699,205.441 401.25,199C400.98,198.301 400.699,197.578 400.43,196.891C400.25,196.441 400.07,195.969 399.91,195.578L399.121,193.648L399.172,193.629C388.18,165.352 377.75,138.789 374.41,131.16C368.75,118.27 345.801,111.762 338.262,109.621L336.699,109.031C336.621,109 315.52,100 250,100C184.48,100 163.371,109 163.172,109.09L162.219,109.469C149.77,113.699 130.961,120.102 124.602,132.441C122.078,137.34 112.078,162.82 100.34,193.441L100.52,192.922L99.738,194.84C97.328,200.762 92.309,213.07 97.012,220.039C100.612,225.404 110.641,229.18 125.041,229.881C132.252,212.691 146.63,199.258 164.437,193.324C155.687,186.965 150,176.648 150,165C150,145.667 165.667,130 185,130C204.333,130 220,145.667 220,165C220,176.648 214.313,186.965 205.562,193.325C223.417,199.274 237.829,212.76 245.02,230L254.986,230C262.178,212.756 276.583,199.273 294.433,193.321C285.685,186.962 280,176.646 280,165C280,145.667 295.667,130 315,130C334.333,130 350,145.667 350,165C350,176.648 344.313,186.965 335.562,193.325C353.383,199.263 367.773,212.708 374.979,229.901ZM352.431,230C344.357,217.941 330.601,210 315,210C299.397,210 285.647,217.939 277.574,230L352.431,230ZM315,150C323.285,150 330,156.715 330,165C330,173.285 323.285,180 315,180C306.715,180 300,173.285 300,165C300,156.715 306.715,150 315,150ZM185,150C193.285,150 200,156.715 200,165C200,173.285 193.285,180 185,180C176.715,180 170,173.285 170,165C170,156.715 176.715,150 185,150Z"/>
                </g>
                <g transform="matrix(1,0,0,1,363.655,1461.75)">
                    <path d="M410,474.141L370.949,435.09L360.969,395.109L250,284.141L139.031,395.109L129.051,435.09L90,474.141L25.859,410L64.91,370.949L104.891,360.969L215.859,250L104.891,139.031L64.91,129.051L25.859,90L90,25.859L129.051,64.91L139.031,104.891L250,215.859L360.969,104.891L370.949,64.91L410,25.859L474.141,90L435.09,129.051L395.109,139.031L284.141,250L395.109,360.969L435.09,370.949L474.141,410L410,474.141Z" style="fill-rule:nonzero;"/>
                </g>
                <g transform="matrix(1,-1.66533e-16,1.66533e-16,1,955.513,150.914)">
                    <path d="M60,500L100,500C116.539,500 130,486.539 130,470L30,470C30,486.539 43.461,500 60,500ZM400,500L440,500C456.539,500 470,486.539 470,470L370,470C370,486.539 383.461,500 400,500ZM30,400L470,400L470,450L30,450L30,400ZM469.078,302.59C468.961,301.949 468.871,301.301 468.738,300.672C468.16,298.012 467.352,295.461 466.41,292.988C466,291.941 465.551,290.898 465.07,289.879C464.352,288.32 463.52,286.828 462.648,285.371C461.5,283.449 460.25,281.59 458.859,279.84C458.461,279.32 458.031,278.809 457.609,278.32C455.32,275.641 452.789,273.172 450,271.02C447.98,269.461 445.82,268.059 443.578,266.789C443.129,266.551 442.672,266.301 442.211,266.059C440.262,265.02 438.238,264.121 436.141,263.34C434.922,262.898 433.66,262.559 432.391,262.199C430.82,261.75 429.262,261.262 427.609,260.949C424.488,260.379 421.301,260 418,260L408.77,260L404.309,226.059L400.172,194.609L391.988,132.41C389.711,93.949 264.98,92 240,92C191.602,92 110.09,97.25 108.078,131.691L100.828,186.852L95.449,227.809L91.23,260L82,260C78.691,260 75.5,260.379 72.391,260.941C70.738,261.25 69.18,261.738 67.602,262.191C66.34,262.551 65.07,262.891 63.852,263.328C61.762,264.109 59.73,265.02 57.789,266.051C57.328,266.289 56.871,266.539 56.422,266.781C54.18,268.059 52.02,269.449 50,271.02C47.211,273.18 44.691,275.648 42.391,278.32C41.969,278.82 41.539,279.328 41.141,279.84C39.762,281.59 38.512,283.441 37.359,285.371C36.488,286.828 35.66,288.32 34.941,289.879C34.461,290.898 34.02,291.93 33.602,292.988C32.648,295.461 31.84,298.012 31.27,300.672C31.129,301.301 31.051,301.949 30.93,302.59C30.379,305.641 30,308.77 30,312L30,380L470,380L470,312C470,308.77 469.621,305.641 469.078,302.59ZM140,343C140,347 137,350 133,350L87,350C83,350 80,347 80,343L80,317C80,313 83,310 87,310L133,310C137,310 140,313 140,317L140,343ZM320,334C320,342.988 313,350 304,350L196,350C187,350 180,343 180,334L180,286C180,283.859 180.422,281.852 181.141,280C183.461,274.078 189.141,270 196,270L304,270C310.859,270 316.531,274.078 318.852,280C319.578,281.852 320,283.859 320,286L320,334ZM420,343C420,347 417,350 413,350L367,350C363,350 360,347 360,343L360,317C360,313 363,310 367,310L413,310C417,310 420,313 420,317L420,343ZM458,230.828L443,230.828C430.41,230.828 420.172,220.59 420.172,207.988L420.172,152.988C420.172,140.398 430.41,130.16 443,130.16L458,130.16C470.59,130.16 480.828,140.398 480.828,152.988L480.828,207.988C480.828,219.949 469.949,230.828 458,230.828ZM57,230.828L42,230.828C29.84,230.828 19.16,219.691 19.16,207L19.16,152C19.16,140.051 30.039,129.16 42,129.16L58,129.16C70.16,129.16 80.84,140.301 80.84,152.988L80.84,207.988C80.828,220.16 69.699,230.828 57,230.828ZM127.98,133.578C128.23,129.301 148.961,112 240,112C324.281,112 368.309,126.77 372.09,134.301L382.199,211.27C367.398,213.781 323.422,220 250,220C176.578,220 132.578,213.781 117.789,211.262L127.98,133.578ZM89.148,123.441C96.84,88.859 146.309,72 240,72C345.57,72 402.93,89.809 410.941,124.898C418.789,115.941 430.18,110.172 443,110.172L450,110.172L450,32C450,14.359 435.199,0 417,0L82,0C64.359,0 50,14.359 50,32L50,109.16L58,109.16C70.172,109.172 81.262,114.77 89.148,123.441Z" style="fill-rule:nonzero;"/>
                </g>
                <g transform="matrix(0.993823,-0.110972,0.110972,0.993823,1739.87,945.849)">
                    <path d="M380,20C369.422,20 358.891,21.699 348.699,25.059L333.281,30.148L401,97.859L388.68,128.672L357.871,140.988L290.16,73.27L285.07,88.699C281.699,98.91 280,109.441 280,120C280,159.828 303.84,195.77 340,211.57L340,430C340,457.57 362.43,480 390,480C417.57,480 440,457.57 440,430L440,199.988C465.148,181.121 480,151.609 480,120C480,64.859 435.141,20 380,20ZM41.001,350L30,350C13.423,350 0,336.577 0,320C0,320 0,265.621 0,265.621C0,251.85 9.377,239.85 22.722,236.518L125.232,210.884L192.106,152.372C201.217,144.4 212.917,140 225.031,140L270,140L270,160L225.031,160C217.763,160 210.743,162.64 205.276,167.424L136.585,227.526C135.391,228.571 133.965,229.316 132.426,229.701C132.426,229.701 27.574,255.92 27.571,255.921C23.123,257.032 20,261.032 20,265.621L20,320C20,325.525 24.475,330 30,330L41.001,330C45.632,307.18 65.811,290 90,290C114.189,290 134.368,307.18 138.999,330L320,330L320,350L138.999,350C134.368,372.82 114.189,390 90,390C65.811,390 45.632,372.82 41.001,350ZM90,310C106.568,310 120,323.433 120,340C120,356.568 106.568,370 90,370C73.433,370 60,356.568 60,340C60,323.433 73.433,310 90,310Z"/>
                </g>
                <g transform="matrix(0.993823,-0.110972,0.110972,0.993823,-260.119,945.849)">
                    <path d="M380,20C369.422,20 358.891,21.699 348.699,25.059L333.281,30.148L401,97.859L388.68,128.672L357.871,140.988L290.16,73.27L285.07,88.699C281.699,98.91 280,109.441 280,120C280,159.828 303.84,195.77 340,211.57L340,430C340,457.57 362.43,480 390,480C417.57,480 440,457.57 440,430L440,199.988C465.148,181.121 480,151.609 480,120C480,64.859 435.141,20 380,20ZM41.001,350L30,350C13.423,350 0,336.577 0,320C0,320 0,265.621 0,265.621C0,251.85 9.377,239.85 22.722,236.518L125.232,210.884L192.106,152.372C201.217,144.4 212.917,140 225.031,140L270,140L270,160L225.031,160C217.763,160 210.743,162.64 205.276,167.424L136.585,227.526C135.391,228.571 133.965,229.316 132.426,229.701C132.426,229.701 27.574,255.92 27.571,255.921C23.123,257.032 20,261.032 20,265.621L20,320C20,325.525 24.475,330 30,330L41.001,330C45.632,307.18 65.811,290 90,290C114.189,290 134.368,307.18 138.999,330L320,330L320,350L138.999,350C134.368,372.82 114.189,390 90,390C65.811,390 45.632,372.82 41.001,350ZM90,310C106.568,310 120,323.433 120,340C120,356.568 106.568,370 90,370C73.433,370 60,356.568 60,340C60,323.433 73.433,310 90,310Z"/>
                </g>
                <g transform="matrix(1.0652,0.654918,-0.654918,1.0652,1372.53,1006.96)">
                    <path d="M370,202.818C351.295,206.664 338.892,209.955 337.809,210.25C337.121,210.398 320.52,214.172 268.781,229.922C256.879,228.371 244.34,204.699 233.23,183.738C225.91,169.93 218.48,155.93 209.941,144.57C218.211,147.68 225.961,152.32 232.762,158.359C248.211,172.109 261.789,180 270,180C277.488,180 293.84,177.691 314.52,174.762C356.02,168.879 418.719,160 480,160C485.531,160 490,164.48 490,170L490,180C490,185.441 485.641,189.879 480.211,190C480.16,190 480.102,190.012 480.051,190.012C480.031,190.012 480.02,190 480,190C448.989,190 416.248,194.329 390,198.986L390,260C428.66,260 460,291.34 460,330C460,368.66 428.66,400 390,400C351.34,400 320,368.66 320,330C320,298.291 341.083,271.507 370,262.899L370,202.818ZM154.921,140.106L182,104C183.889,101.482 186.852,100 190,100L230,100C235.519,100 240,104.481 240,110C240,115.519 235.519,120 230,120L195,120L178.39,142.147C192.281,149.186 204.539,172.304 215.559,193.109C231.059,222.359 245.711,250 270,250C270.988,250 271.969,249.852 272.922,249.57C316.379,236.309 335.398,231.422 340.828,230.09C330.809,249.941 313.691,285.871 303.621,318.211C299.559,331.25 287.719,340.012 274.172,340.012L159.289,340.012C154.434,373.927 125.262,400 90,400C51.34,400 20,368.66 20,330C20,292.593 49.342,262.039 86.262,260.098L140.017,215.302C138.345,213.054 136.918,211.328 135.82,210.078C120.34,210.469 65.102,213 23.66,229.309C23.262,229.461 22.852,229.422 22.449,229.52C21.621,229.738 20.789,229.98 19.93,229.969C19.32,229.969 18.77,229.762 18.18,229.648C17.512,229.52 16.828,229.48 16.191,229.211C15.449,228.898 14.828,228.391 14.18,227.91C13.801,227.641 13.359,227.5 13.02,227.16C12.988,227.129 12.988,227.102 12.961,227.07C12.48,226.59 12.18,225.949 11.801,225.371C11.441,224.828 10.988,224.352 10.75,223.762C10.738,223.719 10.699,223.699 10.691,223.66C10.512,223.199 10.551,222.738 10.441,222.27C10.262,221.5 10.031,220.73 10.031,219.941C10.039,219.289 10.238,218.699 10.371,218.078C10.488,217.441 10.539,216.789 10.789,216.18C11.09,215.461 11.602,214.859 12.059,214.219C12.34,213.828 12.488,213.371 12.84,213.012C15.684,210.098 81.892,143.131 154.921,140.106ZM390,280C417.614,280 440,302.386 440,330C440,357.614 417.614,380 390,380C362.386,380 340,357.614 340,330C340,302.386 362.386,280 390,280ZM90,280C117.614,280 140,302.386 140,330C140,357.614 117.614,380 90,380C62.386,380 40,357.614 40,330C40,302.386 62.386,280 90,280ZM390,360C373.461,360 360,346.539 360,330C360,313.461 373.461,300 390,300C406.539,300 420,313.461 420,330C420,346.539 406.539,360 390,360ZM90,360C73.461,360 60,346.539 60,330C60,313.461 73.461,300 90,300C106.539,300 120,313.461 120,330C120,346.539 106.539,360 90,360ZM150.742,232.399L112.986,263.862C137.324,272.32 155.552,293.83 159.293,320.012L178.34,320.012C171.428,278.139 160.232,250.04 150.742,232.399ZM400,240L470,240L470,220L400,220L400,240Z"/>
                </g>
                <g transform="matrix(0.968224,-0.250085,0.250085,0.968224,83.8593,497.422)">
                    <path d="M90,360C62,360 40,338 40,310C40,282 62,260 90,260C114,260 134,277 139,300L179,300C174,255 136,220 90,220C40,220 0,260 0,310C0,360 40,400 90,400C136,400 174,365 179,320L139,320C134,343 114,360 90,360ZM309.761,116.831C309.516,116.238 309.325,115.613 309.194,114.961C308.229,110.136 305.919,104.525 304.026,100.44C295.382,101.485 279.107,105.035 267.071,117.071C263.168,120.974 256.832,120.974 252.929,117.071C249.026,113.168 249.026,106.832 252.929,102.929C275.771,80.087 310,80 310,80C313.679,80 317.061,82.02 318.805,85.259C318.805,85.259 325.67,98.159 328.35,109.009C328.639,109.631 328.859,110.295 329,111C329.73,111.73 337.379,143.866 345.346,170.123C346.019,170.974 346.577,171.942 347,173C353,192 362,211 371,229C365.135,231.932 359.27,235.821 354.339,239.73C360.263,252.451 367.132,264.207 374,275C365,284 360,296 360,310C360,338 382,360 410,360C438,360 460,338 460,310C460,282 438,260 410,260C403,260 397,262 391,264C384,253 377,241 371,229C383,223 396,220 410,220C460,220 500,259 500,309C500,359 460,399 410,399C360,399 320,359 320,309C320,281.16 332.852,255.296 353.639,239.277C349.187,230.34 344.936,221.21 340.974,212.153C326.876,221.78 297.374,249.401 306,309C306,314 305,319 300,324C289,335 263,340 245,340L243,340C234,340 214,339 196,334C198,326 199,318 199,310C199,249 150,200 89,200C73,200 58,204 44,210L39,210C15,210 3,198 2,197C0,194 -1,191 0,188C1,184 11,150 80,150C124,150 135,151 149,175C153,181 177,190 209,190C209,188 210,186 211,184C217,169 229,140 290,140C294,140 298,138 302,134C306.84,128.354 309.077,121.406 309.761,116.831ZM118.396,320C114.424,331.841 103.467,340 90,340C73,340 60,327 60,310C60,293 73,280 90,280C103.467,280 114.424,288.159 118.396,300L139,300C140,303 140,307 140,310C140,313 140,317 139,320L118.396,320ZM374,275C386,295 400,313 413,327C415,329 418,330 420,330C422,330 425,329 427,327C431,323 431,317 427,313C415,300 402,283 390,264C384,267 379,270 374,275ZM410,153C410,145 410,135 403,128C397,123 389,120 376,120C368,120 360,121 353,123C359,145 367,174 372,187C372,188 373,189 373,190L376,190C389,190 397,187 403,182C410,175 410,165 410,157L410,153Z"/>
                </g>
                <g transform="matrix(1,0,0,1,940.453,692.144)">
                    <path d="M250,20C123.18,20 20,123.18 20,250C20,376.82 123.18,480 250,480C376.82,480 480,376.82 480,250C480,123.18 376.82,20 250,20ZM258.822,90.241C255.891,90.081 252.945,90 249.98,90C247.024,90 244.087,90.081 241.173,90.239C241.445,91.227 241.569,92.273 241.52,93.352L237.43,184.219C237.25,188.328 234.559,191.91 230.672,193.238C223.25,195.77 216.48,199.68 210.551,204.879C208.68,206.52 206.328,207.359 203.961,207.359C202.34,207.359 200.699,206.969 199.211,206.16L121.109,164.02C119.534,163.17 118.28,161.959 117.394,160.545C113.793,165.867 110.503,171.416 107.551,177.168C109.015,177.364 110.458,177.888 111.77,178.762L186.789,228.711C190.129,230.941 191.82,234.941 191.078,238.879C190.359,242.691 190,246.43 190,250C190,253.57 190.359,257.309 191.078,261.121C191.82,265.059 190.129,269.059 186.801,271.289L111.781,321.309C110.473,322.18 109.038,322.701 107.585,322.897C110.402,328.38 113.526,333.679 116.939,338.779L199.191,293.828C202.859,291.84 207.391,292.352 210.531,295.102C216.469,300.301 223.238,304.219 230.66,306.738C234.559,308.07 237.238,311.648 237.422,315.781L241.512,406.23C241.568,407.459 241.398,408.647 241.039,409.753C243.999,409.917 246.98,410 249.98,410C252.989,410 255.979,409.917 258.951,409.751C258.586,408.625 258.416,407.414 258.48,406.16L263.129,315.512C263.328,311.449 265.969,307.922 269.801,306.578C276.891,304.102 283.352,300.371 289.02,295.512C292.18,292.801 296.699,292.32 300.352,294.34L335.301,313.57C336.02,313.801 336.648,314.27 337.309,314.672L380.219,338.281C381.009,338.715 381.717,339.24 382.337,339.836C385.7,334.896 388.795,329.76 391.6,324.448C390.793,324.172 390.009,323.787 389.27,323.289L313.051,271.969C309.711,269.719 308.039,265.691 308.828,261.73C309.609,257.84 310,253.891 310,250C310,246.109 309.609,242.16 308.84,238.27C308.059,234.301 309.73,230.262 313.09,228.012L387.91,177.941C389.187,177.081 390.592,176.558 392.019,176.351C389.201,170.937 386.081,165.704 382.682,160.672C382.218,161.047 381.714,161.385 381.172,161.68L300.328,205.691C298.828,206.512 297.191,206.91 295.551,206.91C293.211,206.91 290.898,206.09 289.039,204.5C283.371,199.641 276.91,195.91 269.82,193.43C265.988,192.09 263.352,188.559 263.129,184.488L258.48,93.41C258.422,92.312 258.545,91.246 258.822,90.241ZM129.195,354.815C152.637,381.802 184.953,400.884 221.552,407.471C221.543,407.358 221.536,407.244 221.531,407.129L219.672,366.059C199.18,360.699 180.301,349.879 165.238,334.871L129.195,354.815ZM370.137,355.563L333.961,335.648C319.102,350.191 300.578,360.711 280.559,366L278.449,407.18C278.444,407.276 278.438,407.372 278.43,407.468C314.688,400.937 346.741,382.153 370.137,355.563ZM399.865,193.937C399.6,194.156 399.322,194.364 399.031,194.559L365.352,217.102C368.391,227.762 370,238.781 370,250C370,261.262 368.352,272.328 365.289,283.031L399.79,306.261C406.389,288.752 410,269.79 410,250C410,230.281 406.414,211.383 399.865,193.937ZM99.821,194.77C93.47,211.992 90,230.598 90,250C90,269.428 93.479,288.058 99.845,305.294C100.11,305.075 100.388,304.867 100.68,304.672L134.449,282.148C131.551,271.719 130,260.949 130,250C130,239.059 131.531,228.289 134.422,217.871L100.68,195.41C100.379,195.21 100.093,194.996 99.821,194.77ZM290,250C290,227.941 272.059,210 250,210C227.941,210 210,227.941 210,250C210,272.059 227.941,290 250,290C272.059,290 290,272.059 290,250ZM250,270C238.969,270 230,261.031 230,250C230,238.969 238.969,230 250,230C261.031,230 270,238.969 270,250C270,261.031 261.031,270 250,270ZM221.535,92.532C184.73,99.162 152.262,118.423 128.796,145.646C129.416,145.837 130.027,146.091 130.621,146.41L165.301,165.121C180.488,149.941 199.07,139.25 219.68,133.898L221.535,92.532ZM278.456,92.537L280.578,134C300.672,139.309 319.238,149.891 334.129,164.52L370.425,144.765C347.011,118.01 314.851,99.098 278.456,92.537Z"/>
                </g>
                <g transform="matrix(0.97248,-0.232988,0.232988,0.97248,1463.61,608.368)">
                    <path d="M106.655,188.199C85.52,182.358 70,162.99 70,140C70,112.388 92.388,90 120,90C147.613,90 170,112.388 170,140C170,147.11 168.516,153.874 165.839,160L329.27,160C349.18,160 366.82,171.941 374.219,190.43L389.91,234.66C394.289,232.398 399.262,230.328 403.301,230.031C404.809,229.898 407.891,229.922 410.84,229.969L414.25,230C432.059,230 438.781,249.289 439.949,260.68C440.391,265.031 437.961,269.172 433.941,270.891L415.27,278.891C424.84,290.82 430.07,305.531 430.07,321.051L430.07,460C430.07,471.031 421.102,480 410.07,480L360.07,480C349.039,480 340.07,471.031 340.07,460L340.07,446.48C314.141,448.961 284.148,450 240.469,450C211.922,450 159.949,447.699 140.109,446.398L139.972,446.41C139.233,465.088 123.861,480 105,480C95.206,480 86.353,475.976 80,469.492C73.647,475.976 64.794,480 55,480C35.667,480 20,464.321 20,445L20,357.922C20,338.635 22.363,319.413 27.017,300.687L42.042,230.622L42.119,230.293C48.041,206.61 69.322,190 93.73,190L105.866,190C106.116,189.391 106.38,188.791 106.655,188.199ZM150.185,240L200,240C201.301,239.871 202.602,239.738 203.898,239.621L247.941,229.711C256.07,228.09 261.34,220.191 259.711,212.059C258.078,203.93 250.172,198.68 242.059,200.289L193.52,210L93.73,210C78.541,210 65.291,220.308 61.554,235.021L46.548,304.995L46.473,305.318C42.181,322.526 40,340.194 40,357.922C40,357.922 40,445 40,445C40,453.281 46.715,460 55,460C63.285,460 70,453.281 70,445L70,360C70,354.481 74.481,350 80,350C85.519,350 90,354.481 90,360L90,445C90,453.281 96.715,460 105,460C113.285,460 120,453.285 120,445L120,330C120,329.182 120.1,328.368 120.299,327.575L140.299,247.575C141.398,243.175 145.263,240.19 149.576,240.007L149.578,240L149.805,240C149.931,239.998 150.058,239.998 150.185,240ZM270.237,100.326C276.554,93.95 285.301,90 295,90C309.329,90 321.645,98.607 327.057,110.935C329.602,110.323 332.26,110 335,110C347.699,110 358.772,116.765 364.879,126.886C372.239,122.52 380.801,120 390,120C417.612,120 440,142.387 440,170C440,171.802 439.881,173.572 439.663,175.312C445.416,178.556 450.272,183.174 453.795,188.773C458.179,195.023 460.801,202.572 460.801,210.801C460.801,212.39 460.685,213.945 460.471,215.47C472.437,226.09 480,241.546 480,258.801C480,272.112 475.447,284.287 467.869,294.035C475.41,302.55 480,313.722 480,326C480,339.888 474.112,352.324 464.724,361.113C468.322,367.815 470.398,375.443 470.398,383.602C470.398,395.729 465.905,406.738 458.51,415.18C454.873,419.331 448.55,419.749 444.398,416.112C440.247,412.475 439.829,406.152 443.466,402C447.775,397.082 450.398,390.669 450.398,383.602C450.398,376.603 447.733,370.294 443.536,365.351C441.633,363.108 440.813,360.141 441.295,357.239C441.778,354.338 443.513,351.796 446.04,350.289C454.348,345.337 460,336.373 460,326C460,316.394 455.184,307.956 447.889,302.816C445.389,301.055 443.832,298.246 443.663,295.192C443.495,292.138 444.733,289.175 447.024,287.149C454.902,280.184 460,270.134 460,258.801C460,245.868 453.492,234.489 443.624,227.616C440.04,225.119 438.491,220.584 439.799,216.417C440.36,214.628 440.801,212.773 440.801,210.801C440.801,206.785 439.473,203.116 437.307,200.086C437.18,199.909 437.059,199.727 436.944,199.542C434.352,195.365 430.275,192.276 425.444,190.896C422.881,190.164 420.716,188.439 419.431,186.104C418.145,183.769 417.845,181.017 418.597,178.46C419.392,175.757 420,172.958 420,170C420,153.433 406.568,140 390,140C380.947,140 372.949,144.131 367.448,150.479C364.766,153.575 360.466,154.721 356.598,153.372C352.73,152.023 350.076,148.452 349.9,144.359C349.558,136.388 343.055,130 335,130C331.611,130 328.532,131.196 326.022,133.095C322.995,135.386 318.933,135.765 315.535,134.075C312.137,132.385 309.988,128.916 309.988,125.121L309.997,124.887C309.938,116.653 303.247,110 295,110C288.643,110 283.257,113.986 281.077,119.568C279.761,122.937 276.728,125.333 273.145,125.834C269.563,126.334 265.99,124.861 263.801,121.981C258.317,114.767 249.758,110 240,110C225.926,110 213.037,119.47 209.684,132.493C208.308,137.838 202.852,141.06 197.507,139.684C192.162,138.308 188.94,132.852 190.316,127.507C195.845,106.03 216.791,90 240,90C251.411,90 261.861,93.864 270.237,100.326ZM301.25,380C301.25,380 280.09,390 245,390C209.91,390 188.75,380 188.75,380L170,340L320,340L301.25,380ZM410,360L368.398,360C357.789,360 349.199,351.41 349.199,340.801L410,322.199L410,360ZM120,110C136.568,110 150,123.433 150,140C150,156.568 136.568,170 120,170C103.433,170 90,156.568 90,140C90,123.433 103.433,110 120,110ZM390,30C367.907,30 350,47.907 350,70C350,92.093 367.907,110 390,110C412.093,110 430,92.093 430,70C430,47.907 412.093,30 390,30ZM390,50C401.047,50 410,58.953 410,70C410,81.047 401.047,90 390,90C378.953,90 370,81.047 370,70C370,58.953 378.953,50 390,50ZM210,20C193.43,20 180,33.429 180,50C180,66.571 193.43,80 210,80C226.57,80 240,66.571 240,50C240,33.429 226.57,20 210,20ZM210,40C215.524,40 220,44.476 220,50C220,55.524 215.524,60 210,60C204.476,60 200,55.524 200,50C200,44.476 204.476,40 210,40Z"/>
                </g>
                <g transform="matrix(1.21288,0,0,1.21288,-5403,-104.912)">
                    <path d="M4598.28,319C4660.81,319 4711.57,369.761 4711.57,432.283C4711.57,494.806 4660.81,545.567 4598.28,545.567C4535.76,545.567 4485,494.806 4485,432.283C4485,369.761 4535.76,319 4598.28,319ZM4598.28,375.642C4629.55,375.642 4654.93,401.022 4654.93,432.283C4654.93,463.545 4629.55,488.925 4598.28,488.925C4567.02,488.925 4541.64,463.545 4541.64,432.283C4541.64,401.022 4567.02,375.642 4598.28,375.642Z"/>
                </g>
                <g transform="matrix(1.3772,0,0,1.3772,-6487.53,-305.636)">
                    <path d="M5282.57,488.925C5318.21,488.925 5347.14,517.858 5347.14,553.496C5347.14,589.134 5318.21,618.067 5282.57,618.067C5246.93,618.067 5218,589.134 5218,553.496C5218,517.858 5246.93,488.925 5282.57,488.925ZM5282.57,521.211C5300.39,521.211 5314.86,535.677 5314.86,553.496C5314.86,571.315 5300.39,585.781 5282.57,585.781C5264.75,585.781 5250.28,571.315 5250.28,553.496C5250.28,535.677 5264.75,521.211 5282.57,521.211Z"/>
                </g>
                <g transform="matrix(1.3772,0,0,1.3772,-6275.17,614.364)">
                    <path d="M5282.57,488.925C5318.21,488.925 5347.14,517.858 5347.14,553.496C5347.14,589.134 5318.21,618.067 5282.57,618.067C5246.93,618.067 5218,589.134 5218,553.496C5218,517.858 5246.93,488.925 5282.57,488.925ZM5282.57,521.211C5300.39,521.211 5314.86,535.677 5314.86,553.496C5314.86,571.315 5300.39,585.781 5282.57,585.781C5264.75,585.781 5250.28,571.315 5250.28,553.496C5250.28,535.677 5264.75,521.211 5282.57,521.211Z"/>
                </g>
                <g transform="matrix(1.00552,0,0,1.00552,-4481.68,210.45)">
                    <path d="M5282.57,488.925C5318.21,488.925 5347.14,517.858 5347.14,553.496C5347.14,589.134 5318.21,618.067 5282.57,618.067C5246.93,618.067 5218,589.134 5218,553.496C5218,517.858 5246.93,488.925 5282.57,488.925ZM5282.57,521.211C5300.39,521.211 5314.86,535.677 5314.86,553.496C5314.86,571.315 5300.39,585.781 5282.57,585.781C5264.75,585.781 5250.28,571.315 5250.28,553.496C5250.28,535.677 5264.75,521.211 5282.57,521.211Z"/>
                </g>
            </g>
        </g>
    </g>
</svg>
