<?xml version="1.0" encoding="UTF-8" standalone="no"?>
<!DOCTYPE svg PUBLIC "-//W3C//DTD SVG 1.1//EN" "http://www.w3.org/Graphics/SVG/1.1/DTD/svg11.dtd">
<svg width="100%" height="100%" viewBox="0 0 1024 768" version="1.1" xmlns="http://www.w3.org/2000/svg" xmlns:xlink="http://www.w3.org/1999/xlink" xml:space="preserve" xmlns:serif="http://www.serif.com/" style="fill-rule:evenodd;clip-rule:evenodd;stroke-linejoin:round;stroke-miterlimit:2;">
    <g id="Character-loving" serif:id="Character/loving">
        <path id="Accent" d="M448.995,335.473C439.895,342.07 441.343,355.051 444.083,364.482C448.117,378.369 456.152,391.224 465.318,402.305C481.579,421.963 509.184,444.036 534.63,426.778C557.29,411.408 571.584,380.395 576.518,354.272C578.043,346.199 580.074,334.17 572.909,328.101C562.317,319.13 543.632,320.762 530.845,321.917C522.424,322.677 514.299,325.258 505.977,324.047C486.642,321.229 465.123,323.781 448.995,335.473" style="fill:rgb(241,39,5);"/>
        <g id="Ink" transform="matrix(1,0,0,1,89.9998,82)">
            <path id="ink-shape" d="M751.023,356.343C732.588,379.728 701.246,383.423 673.41,383.194C656.694,383.055 639.947,381.797 623.559,378.391C614.725,376.554 605.949,374.121 597.413,371.198C591.774,369.267 583.38,368.302 580.981,362.26C574.651,346.32 579.309,326.329 581.915,310.149C583.241,301.919 584.236,293.64 585.525,285.404C586.35,280.134 586.745,274.304 588.954,269.374C591.54,263.599 594.806,264.752 600.275,266.347C607.81,268.547 615.546,269.461 623.293,270.644C642.2,273.531 658.695,279.353 675.877,287.605C692.868,295.763 709.348,303.817 724.503,315.161C732.181,320.911 738.798,327.151 744.961,334.478C749.723,340.138 756.83,348.976 751.023,356.343M670.439,460.212C670.291,462.73 641.398,455.128 637.597,454.275C612.65,448.68 587.208,442.307 563.657,432.197C541.674,422.761 522.305,411.965 505.006,395.2C496.943,387.385 489.691,379.156 482.751,370.392C479.272,365.999 474.52,366.509 470.642,362.793C467.153,359.448 464.477,356.836 465.567,351.836C474.286,354.133 490.384,368.573 499.421,361.281C504.573,357.125 497.428,352.783 494.13,350.375C487.929,345.846 482.627,340.259 477.699,334.395C486.161,336.036 494.039,339.205 501.404,343.617C504.676,345.577 515.891,352.684 518.502,345.909C520.109,341.738 512.504,336.497 510.133,334.189C504.311,328.524 498.025,321.91 494.934,314.293C502.577,312.52 509.781,318.427 514.986,323.238C520.763,328.58 527.845,334.186 532.69,340.341C535.189,343.515 535.733,347.265 537.685,350.689C539.882,354.541 543.396,357.843 546.754,360.693C553.225,366.186 560.793,370.23 568.561,373.575C586.312,381.217 605.339,386.626 624.26,390.42C633.543,392.282 642.597,393.139 652.018,393.455C659.34,393.701 662.58,395.891 665.376,402.637C672.942,420.893 671.568,440.975 670.439,460.212M453.157,321.112C448.924,325.073 443.423,327.558 438.998,331.366C435.103,334.717 430.612,338.292 426.266,341.002C421.627,343.894 418.16,341.866 413.983,339.249C409.079,336.179 403.442,334.934 398.391,332.187C380.928,322.682 359.563,299.393 362.823,278.009C364.205,268.946 368.891,260.028 377.4,255.916C385.127,252.182 396.361,250.109 404.628,253.231C409.291,254.992 412.628,258.879 415.616,262.701C419.1,267.156 420.435,266.454 423.983,262.157C430.332,254.47 440.802,247.726 451.153,247.888C456.297,247.97 461.407,249.054 466.041,251.189C466.669,251.479 467.019,252.355 467.649,252.652C468.423,253.017 469.695,252.258 470.233,252.599C471.59,253.458 472.944,256.141 473.726,257.503C476.867,262.966 482.521,273.68 476.823,278.28C476.819,278.282 477.077,284.504 476.998,285.213C476.597,288.925 475.313,291.989 473.66,295.384C468.696,305.581 461.367,313.432 453.157,321.112M461.598,407.392C457.588,408.638 453.268,396.07 457.115,394.064C460.783,392.151 465.229,406.264 461.598,407.392M398.61,392.365C397.221,397.112 396.635,402.5 393.238,406.364C390.128,402.674 389.822,395.865 392.838,392.071C394.559,389.907 400.129,387.177 398.61,392.365M526.946,309.184C526.923,309.304 531.771,311.623 529.406,314.158C526.174,317.621 526.619,310.881 526.946,309.184M546.981,270.492C546.925,275.292 536.763,274.133 536.835,269.305C536.924,263.363 547.04,265.403 546.981,270.492M534.85,230.373C535.856,225.978 553.532,219.864 553.051,227.524C552.809,231.364 532.717,239.717 534.85,230.373M353.646,379.417C351.664,381.799 348.85,382.738 346.475,384.567C343.984,386.483 342.204,388.969 340.029,391.219C334.055,397.395 326.864,402.47 320.42,408.144C308.571,418.573 297.222,429.786 284.085,438.631C260.61,454.436 233.388,463.081 206.363,470.65C204.124,471.277 197.675,473.808 195.46,471.923C193.071,469.89 194.286,462.736 194.396,460.031C194.844,448.94 196.137,437.718 195.997,426.644C195.939,422.095 194.607,415.629 196.981,411.467C199.631,406.819 207.029,405.459 211.606,403.71C225.516,398.393 238.916,389.425 251.204,381.118C266.309,370.906 281.565,360.525 297.109,350.993C312.339,341.654 329.137,335.4 346.125,330.066C346.912,331.72 338.806,337.042 337.88,337.788C333.435,341.366 328.6,345.075 325.301,349.798C322.965,353.142 320.57,360.708 327.019,360.902C330.146,360.996 334.768,357.972 337.602,356.994C342.284,355.378 347.109,354.244 352.007,353.506C347.796,358.142 333.524,366.47 336.121,374.18C338.64,381.662 353.213,372.931 358.23,372.931C357.407,375.54 355.34,377.381 353.646,379.417M181.481,400.3C172.149,403.582 162.583,405.448 152.95,407.567C143.77,409.587 135.283,411.109 125.88,409.926C112.896,408.294 98.528,402.916 96.882,388.163C94.93,370.683 107.275,354.62 117.876,342.079C130.776,326.821 145.263,313.18 160.963,300.829C176.645,288.489 193.571,277.611 211.305,268.427C224.796,261.44 240.032,257.198 254.297,251.955C257.011,250.957 264.517,247.452 267.056,250.357C269.107,252.706 266.315,256.619 265.38,258.8C263.556,263.052 263.305,267.333 262.834,271.898C260.731,292.286 258.2,312.668 257.035,333.144C256.71,338.85 256.139,344.82 256.472,350.53C256.655,353.693 258.301,357.721 257.205,360.809C255.098,366.745 245.449,370.675 240.336,373.326C231.181,378.073 221.487,381.615 212.239,386.155C202.081,391.142 192.192,396.532 181.481,400.3M310.913,267.825C313.475,267.473 317.312,266.775 319.596,268.435C322.574,270.599 321.793,273.61 319.043,275.18C316.87,276.421 311.786,276.76 309.64,275.634C305.984,273.717 306.603,268.418 310.913,267.825M325.101,315.035C323.03,318.483 315.465,320.744 316.124,314.31C316.689,308.801 328.913,308.686 325.101,315.035M322.292,217.906C325.62,219.195 331.659,220.298 332.646,224.579C333.565,228.563 329.789,228.3 327.065,227.203C324.824,226.303 314.84,217.837 322.292,217.906M843.687,369.895C841.743,362.331 843.223,353.958 842.151,346.211C841.11,338.701 839.238,331.8 836.551,324.723C830.602,309.055 823.787,294.951 814.144,281.2C795.982,255.305 774.912,232.496 749.468,213.582C724.349,194.91 696.534,179.735 667.07,169.1C635.825,157.821 604.374,153.896 571.425,151.734C561.586,151.089 551.755,150.324 541.971,149.081C534.821,148.173 525.857,147.054 518.787,149.244C514.345,150.621 511.863,154.494 516.702,157.036C520.133,158.838 524.624,159.054 528.413,159.533C523.836,174.073 516.389,188.664 504.587,198.676C493.066,208.451 477.648,211.802 463.107,214.281C455.221,215.624 446.392,216.664 438.385,216.084C433.322,215.719 429.372,213.375 427.329,218.589C425.912,222.212 425.241,226.187 423.372,220.717C421.162,214.25 420.078,214.291 413.202,212.454C399.141,208.698 383.022,205.271 370.755,197.147C358.028,188.719 353.602,175.085 346.497,162.389C344.74,159.251 339.44,152.9 342.148,149.304C344.625,146.016 352.679,146.344 356.367,146.001C360.259,145.639 364.174,145.624 368.079,145.472C370.341,145.385 374.892,146.312 373.982,142.933C372.608,137.84 357.897,138.493 354.243,138.41C347.449,138.258 340.561,138.415 333.802,139.162C300.284,142.869 266.465,149.723 234.031,158.863C171.103,176.595 110.157,209.269 64.233,256.341C20.15,301.526 6.184,376.717 33.285,434.41C47.368,464.394 77.932,476.711 107.561,486.659C123.188,491.905 139.737,496.01 156.349,495.02C164.321,494.544 171.886,492.397 179.661,490.781C183.051,490.075 186.91,488.95 190.393,489.234C193.03,489.449 195.562,491.869 198.035,490.583C199.791,489.67 200.554,487.05 202.699,485.934C205.274,484.595 208.397,484.111 211.178,483.436C218.909,481.558 226.396,478.512 233.953,476.015C241.767,473.432 249.142,470.106 256.64,466.744C260.426,465.045 269.188,458.141 271.655,463.189C272.78,465.492 272.301,469.936 272.575,472.352C273.055,476.578 273.619,480.795 274.235,485.003C275.593,494.267 277.219,503.493 278.885,512.708C281.893,529.333 285.768,545.249 292.248,560.889C297.422,573.376 301.965,587.53 311.572,597.464C315.766,601.8 321.489,603.751 327.504,602.389C334.347,600.838 337.753,594.623 341.906,589.598C351.046,578.539 366.134,570.066 380.067,567.015C397.129,563.28 413.748,568.743 430.034,573.387C447.26,578.299 464.797,582.979 481.705,588.883C497.461,594.386 514.474,602.513 531.562,601.806C546.463,601.19 560.382,589.062 571.128,579.817C581.922,570.533 595.417,556.938 610.937,558.033C618.644,558.575 625.666,562.293 633.173,563.804C641.414,565.464 650.182,565.699 658.562,566.318C668.965,567.085 692.237,564.373 696.085,551.859C696.656,550.002 696.66,546.179 694.208,545.436C691.953,544.754 690.801,547.39 688.664,547.27C684.317,547.025 680.921,539.446 678.533,536.511C668.896,524.666 655.676,515.831 644.862,505.13C632.651,493.048 622.226,478.409 613.025,463.971C617.185,462.89 621.673,464.686 625.698,465.539C630.59,466.575 635.357,467.827 640.178,469.154C645.49,470.617 650.879,471.623 656.271,472.738C660.294,473.568 665.634,473.819 669.266,475.837C672.436,477.599 674.205,479.491 678.141,480.002C682.143,480.522 686.251,480.084 690.272,480.057C701.147,479.983 711.998,479.781 722.822,478.632C761.065,474.569 801.604,458.393 824.601,426.289C830.856,417.557 835.895,407.884 839.079,397.619C841.564,389.604 845.849,378.31 843.687,369.895"/>
            <path id="ink-shape1" serif:id="ink-shape" d="M484.989,0.008C495.039,0.151 504.46,3.131 513.824,6.519C522.06,9.498 530.839,12.254 537.498,18.2C549.476,28.897 552.596,46.608 554.556,61.76C557.001,80.668 548.865,96.532 542.017,113.638C535.613,129.637 523.858,142.598 509.886,152.474C502.566,157.647 494.476,160.77 486.011,163.508C477.413,166.289 469.086,170.014 459.887,170C445.918,169.98 428.033,163.345 422.082,149.582C419.373,143.315 422.011,142.19 427.433,145.596C435.298,150.537 442.879,155.869 452.07,158.061C469.894,162.313 491.242,155.726 506.871,147.034C522.495,138.345 532.983,125.291 539.993,109.038C547.065,92.64 549.813,76.482 547.086,58.805C544.775,43.824 540.177,30.14 526.677,22.008C497.534,4.455 458.269,5.869 432.353,28.681C428.798,31.808 425.285,34.851 421.623,37.838C419.294,39.736 416.552,42.013 416.891,45.295C417.18,48.106 423.173,58.944 415.956,55.615C410.106,52.915 406.927,47.639 399.84,46.986C392.297,46.29 383.3,52.084 381.043,59.377C378.891,66.336 382.729,75.857 388.74,79.848C392.463,82.32 396.559,81.938 400.786,81.838C402.884,81.789 408.725,81.107 410.113,83.325C412.57,87.248 403.903,91.371 401.106,92.238C394.3,94.35 386.256,91.865 382.344,85.79C378.367,79.613 375.645,72.465 375.096,65.107C374.573,58.057 376.173,50.919 380.332,45.131C384.756,38.974 393.773,32.073 401.857,34.211C405.366,35.139 408.185,38.765 411.628,39.453C413.802,39.887 412.887,40.198 414.688,38.587C415.831,37.565 416.911,35.679 417.966,34.467C424.033,27.502 430.033,20.068 437.458,14.492C450.773,4.495 468.47,-0.226 484.989,0.008ZM448.169,138.113C449.744,134.421 452.637,141.006 453.492,142.107C455.185,144.286 459.167,145.98 458.995,149.193C458.711,154.497 451.482,153.513 449.071,150.746C446.328,147.596 446.615,141.758 448.169,138.113ZM499.53,113C503.43,119.078 498.677,125.638 495.594,131.018C492.645,136.161 489.907,141.975 486.475,146.811C480.777,154.839 468.381,146.154 468.013,137.903C467.731,131.587 472.205,134.336 475.077,136.695C478.033,139.125 479.433,139.73 482.532,137.076C488.765,131.735 491.566,122.805 495.875,116.043C496.73,114.702 498.278,113.896 499.53,113ZM510.648,114.954C511.654,117.894 509.544,125.682 515.409,124.903C518.65,124.473 519.342,119.823 521.046,117.793C526.775,110.97 525.018,123.875 523.521,127.105C520.221,134.223 510.985,139.128 506.404,130.097C504.701,126.738 504.708,122.498 505.574,118.887C506.045,116.92 508.792,109.526 510.648,114.954ZM458.347,101.034C457.828,104.463 454.604,111.296 458.54,113.749C462.003,115.909 468.034,111.219 470.701,109.261C473.471,107.226 479.751,101.389 479.997,108.653C480.123,112.356 476.416,116.799 473.771,118.932C468.128,123.481 456.403,127.562 452.244,118.999C449.979,114.334 451.218,107.694 452.716,102.993C453.93,99.183 459.601,92.75 458.347,101.034ZM532.36,82.258C534.656,84.925 540.1,90.899 537.14,94.697C533.68,99.136 528.058,90.992 525.841,88.725C523.844,86.683 519.643,80.868 521.434,77.783C524.4,72.679 530.343,79.917 532.36,82.258ZM496.265,70.775C503.771,75.665 493.902,79.186 489.627,79.624C484.452,80.152 477.836,80.502 473.083,77.963C466.346,74.364 468.592,68.927 475.122,67.625C481.817,66.292 490.44,66.979 496.265,70.775ZM398.68,55.208C404.2,56.282 410.505,57.679 412.385,63.698C414.327,69.917 411.537,71.981 405.899,70.581C400.682,69.285 392.89,67.981 389.941,62.885C386.417,56.797 393.562,54.213 398.68,55.208Z"/>
            <path id="ink-shape2" serif:id="ink-shape" d="M94.947,188.85C93.094,194.833 83.718,198.8 79.043,202.437C62.688,215.16 46.707,228.407 31.922,242.927C24.248,250.464 18.439,259.581 11.784,267.963C10.161,270.008 7.284,274.591 4.1,274.16C0.606,273.69 -0.101,267.672 0.011,265.044C0.392,256.082 8.577,247.427 14.414,241.256C20.98,234.317 28,227.555 35.169,221.237C43.063,214.281 51.628,208.302 60.357,202.449C68.928,196.701 77.146,190.06 86.06,184.854C90.259,182.402 97.232,181.469 94.947,188.85ZM666.622,132.036C673.449,132.251 680.11,134.49 686.548,136.569C700.71,141.142 714.197,147.486 727.497,154.117C750.815,165.739 773.254,179.801 793.823,195.79C798.122,199.131 802.53,201.839 807.206,204.571C810.198,206.322 814.465,208.457 815.618,212.025C818.546,221.093 803.765,211.991 801.668,210.689L798.717,208.86C754.953,181.736 711.241,155.383 661.738,139.828C659.101,139 658.281,136.647 659.664,134.316C661.164,131.789 664.086,131.956 666.622,132.036ZM92.955,151.015C92.638,153.776 89.511,154.404 87.402,155.29C79.532,158.596 71.465,161.415 63.616,164.776C49.049,171.013 35.671,180.064 20.466,184.798C16.991,185.881 16.479,182.374 17.409,179.988C18.445,177.325 21.557,175.455 23.808,173.914C30.3,169.466 37.664,166.269 44.874,163.179C52.022,160.114 59.382,157.795 66.711,155.226C73.522,152.837 81.428,148.392 88.743,148.063L89.062,148.048C91.39,147.93 93.324,147.773 92.955,151.015ZM679.047,109.07C672.088,107.112 678.663,102.706 682.799,103.016C687.413,103.361 691.873,105.54 696.249,106.854C709.627,110.871 722.028,115.264 734.527,121.499C736.391,122.43 744.602,126.843 739.17,128.797C735.406,130.151 726.614,124.342 723.382,122.949C709.179,116.824 693.917,113.251 679.047,109.07Z"/>
            <path id="ink-shape3" serif:id="ink-shape" d="M401.608,123.331C402.478,120.779 413.238,92.877 409.026,92.036C404.565,91.143 398.602,107.332 397.309,110.257C392.529,121.059 389.699,132.649 387.482,144.236C385.937,152.304 384.58,160.569 385.121,168.817C385.537,175.156 388.155,176.116 392.469,180C392.469,160.746 395.395,141.555 401.608,123.331"/>
        </g>
    </g>
</svg>
